<?xml version="1.0" encoding="UTF-8" standalone="no"?>
<!DOCTYPE svg PUBLIC "-//W3C//DTD SVG 1.1//EN"
 "http://www.w3.org/Graphics/SVG/1.1/DTD/svg11.dtd">
<!-- Generated by graphviz version 2.40.1 (20161225.0304)
 -->
<!-- Title: gfield::getNyg Pages: 1 -->
<svg width="410pt" height="104pt"
 viewBox="0.00 0.00 410.00 104.00" xmlns="http://www.w3.org/2000/svg" xmlns:xlink="http://www.w3.org/1999/xlink">
<g id="graph0" class="graph" transform="scale(1 1) rotate(0) translate(4 100)">
<title>gfield::getNyg</title>
<polygon fill="#ffffff" stroke="transparent" points="-4,4 -4,-100 406,-100 406,4 -4,4"/>
<!-- Node22 -->
<g id="node1" class="node">
<title>Node22</title>
<polygon fill="#bfbfbf" stroke="#000000" points="0,-38.5 0,-57.5 77,-57.5 77,-38.5 0,-38.5"/>
<text text-anchor="middle" x="38.5" y="-45.5" font-family="Helvetica,sans-Serif" font-size="10.00" fill="#000000">gfield::getNyg</text>
</g>
<!-- Node23 -->
<g id="node2" class="node">
<title>Node23</title>
<g id="a_node2"><a xlink:href="field_8h.html#ae2e78230fe4fa881c6233010eba186f2" target="_top" xlink:title="operator*">
<polygon fill="#ffffff" stroke="#000000" points="128.5,-76.5 128.5,-95.5 184.5,-95.5 184.5,-76.5 128.5,-76.5"/>
<text text-anchor="middle" x="156.5" y="-83.5" font-family="Helvetica,sans-Serif" font-size="10.00" fill="#000000">operator*</text>
</a>
</g>
</g>
<!-- Node22&#45;&gt;Node23 -->
<g id="edge1" class="edge">
<title>Node22&#45;&gt;Node23</title>
<path fill="none" stroke="#191970" d="M78.1794,-60.7781C94.6379,-66.0783 113.3512,-72.1046 128.3579,-76.9373"/>
<polygon fill="#191970" stroke="#191970" points="78.8679,-57.3229 68.2764,-57.589 76.7221,-63.9859 78.8679,-57.3229"/>
</g>
<!-- Node24 -->
<g id="node3" class="node">
<title>Node24</title>
<g id="a_node3"><a xlink:href="field_8h.html#a37042ea36be49b649f301e9b193b7089" target="_top" xlink:title="operator+">
<polygon fill="#ffffff" stroke="#000000" points="127.5,-38.5 127.5,-57.5 185.5,-57.5 185.5,-38.5 127.5,-38.5"/>
<text text-anchor="middle" x="156.5" y="-45.5" font-family="Helvetica,sans-Serif" font-size="10.00" fill="#000000">operator+</text>
</a>
</g>
</g>
<!-- Node22&#45;&gt;Node24 -->
<g id="edge2" class="edge">
<title>Node22&#45;&gt;Node24</title>
<path fill="none" stroke="#191970" d="M87.2919,-48C100.823,-48 115.093,-48 127.1372,-48"/>
<polygon fill="#191970" stroke="#191970" points="87.1376,-44.5001 77.1376,-48 87.1376,-51.5001 87.1376,-44.5001"/>
</g>
<!-- Node25 -->
<g id="node4" class="node">
<title>Node25</title>
<g id="a_node4"><a xlink:href="classgfield.html#a9d5e1ced7bf2e0c89ce72eefc08e63ad" target="_top" xlink:title="gfield::operator=">
<polygon fill="#ffffff" stroke="#000000" points="113,-.5 113,-19.5 200,-19.5 200,-.5 113,-.5"/>
<text text-anchor="middle" x="156.5" y="-7.5" font-family="Helvetica,sans-Serif" font-size="10.00" fill="#000000">gfield::operator=</text>
</a>
</g>
</g>
<!-- Node22&#45;&gt;Node25 -->
<g id="edge3" class="edge">
<title>Node22&#45;&gt;Node25</title>
<path fill="none" stroke="#191970" d="M77.8761,-35.3196C93.8198,-30.1852 111.9211,-24.3559 126.7331,-19.5859"/>
<polygon fill="#191970" stroke="#191970" points="76.7221,-32.0141 68.2764,-38.411 78.8679,-38.6771 76.7221,-32.0141"/>
</g>
<!-- Node26 -->
<g id="node5" class="node">
<title>Node26</title>
<g id="a_node5"><a xlink:href="classlfield.html#a6220e9fc7f5d24c493f7ab3382fb36aa" target="_top" xlink:title="lfield::setToFixed">
<polygon fill="#ffffff" stroke="#000000" points="236,-.5 236,-19.5 328,-19.5 328,-.5 236,-.5"/>
<text text-anchor="middle" x="282" y="-7.5" font-family="Helvetica,sans-Serif" font-size="10.00" fill="#000000">lfield::setToFixed</text>
</a>
</g>
</g>
<!-- Node25&#45;&gt;Node26 -->
<g id="edge4" class="edge">
<title>Node25&#45;&gt;Node26</title>
<path fill="none" stroke="#191970" d="M210.3097,-10C218.8554,-10 227.6269,-10 235.9727,-10"/>
<polygon fill="#191970" stroke="#191970" points="210.0416,-6.5001 200.0416,-10 210.0416,-13.5001 210.0416,-6.5001"/>
</g>
<!-- Node27 -->
<g id="node6" class="node">
<title>Node27</title>
<g id="a_node6"><a xlink:href="test__symmetrize__average2_8cpp.html#a0ddf1224851353fc92bfbff6f499fa97" target="_top" xlink:title="main">
<polygon fill="#ffffff" stroke="#000000" points="364,-.5 364,-19.5 402,-19.5 402,-.5 364,-.5"/>
<text text-anchor="middle" x="383" y="-7.5" font-family="Helvetica,sans-Serif" font-size="10.00" fill="#000000">main</text>
</a>
</g>
</g>
<!-- Node26&#45;&gt;Node27 -->
<g id="edge5" class="edge">
<title>Node26&#45;&gt;Node27</title>
<path fill="none" stroke="#191970" d="M338.328,-10C347.3773,-10 356.1737,-10 363.5337,-10"/>
<polygon fill="#191970" stroke="#191970" points="338.0666,-6.5001 328.0666,-10 338.0666,-13.5001 338.0666,-6.5001"/>
</g>
</g>
</svg>
