<?xml version="1.0" encoding="UTF-8" standalone="no"?>
<!DOCTYPE svg PUBLIC "-//W3C//DTD SVG 1.1//EN"
 "http://www.w3.org/Graphics/SVG/1.1/DTD/svg11.dtd">
<!-- Generated by graphviz version 2.40.1 (20161225.0304)
 -->
<!-- Title: lfield::getNxl Pages: 1 -->
<svg width="279pt" height="256pt"
 viewBox="0.00 0.00 279.00 256.00" xmlns="http://www.w3.org/2000/svg" xmlns:xlink="http://www.w3.org/1999/xlink">
<g id="graph0" class="graph" transform="scale(1 1) rotate(0) translate(4 252)">
<title>lfield::getNxl</title>
<polygon fill="#ffffff" stroke="transparent" points="-4,4 -4,-252 275,-252 275,4 -4,4"/>
<!-- Node26 -->
<g id="node1" class="node">
<title>Node26</title>
<polygon fill="#bfbfbf" stroke="#000000" points="0,-114.5 0,-133.5 71,-133.5 71,-114.5 0,-114.5"/>
<text text-anchor="middle" x="35.5" y="-121.5" font-family="Helvetica,sans-Serif" font-size="10.00" fill="#000000">lfield::getNxl</text>
</g>
<!-- Node27 -->
<g id="node2" class="node">
<title>Node27</title>
<g id="a_node2"><a xlink:href="classgfield.html#a0dcff590c53a428a50567d25d10404e2" target="_top" xlink:title="gfield::allgather">
<polygon fill="#ffffff" stroke="#000000" points="110.5,-228.5 110.5,-247.5 193.5,-247.5 193.5,-228.5 110.5,-228.5"/>
<text text-anchor="middle" x="152" y="-235.5" font-family="Helvetica,sans-Serif" font-size="10.00" fill="#000000">gfield::allgather</text>
</a>
</g>
</g>
<!-- Node26&#45;&gt;Node27 -->
<g id="edge1" class="edge">
<title>Node26&#45;&gt;Node27</title>
<path fill="none" stroke="#191970" d="M45.4583,-142.5938C57.5488,-163.634 79.7435,-197.7339 107,-219 111.8139,-222.7559 117.4796,-225.9021 123.1371,-228.4844"/>
<polygon fill="#191970" stroke="#191970" points="48.4185,-140.7155 40.4943,-133.6829 42.3033,-144.1221 48.4185,-140.7155"/>
</g>
<!-- Node29 -->
<g id="node4" class="node">
<title>Node29</title>
<g id="a_node4"><a xlink:href="classlfield.html#a20b8f55a07ab66eda4152d1e4dc78b36" target="_top" xlink:title="lfield::lfield">
<polygon fill="#ffffff" stroke="#000000" points="120.5,-190.5 120.5,-209.5 183.5,-209.5 183.5,-190.5 120.5,-190.5"/>
<text text-anchor="middle" x="152" y="-197.5" font-family="Helvetica,sans-Serif" font-size="10.00" fill="#000000">lfield::lfield</text>
</a>
</g>
</g>
<!-- Node26&#45;&gt;Node29 -->
<g id="edge3" class="edge">
<title>Node26&#45;&gt;Node29</title>
<path fill="none" stroke="#191970" d="M53.7521,-140.8781C67.62,-153.104 87.5624,-169.4467 107,-181 112.8319,-184.4663 119.4134,-187.6217 125.7064,-190.3219"/>
<polygon fill="#191970" stroke="#191970" points="55.7387,-137.9577 45.9611,-133.8773 51.06,-143.1645 55.7387,-137.9577"/>
</g>
<!-- Node30 -->
<g id="node5" class="node">
<title>Node30</title>
<g id="a_node5"><a xlink:href="field_8h.html#a3bdeaa38edf27a3f664c8312f15f8a88" target="_top" xlink:title="operator*">
<polygon fill="#ffffff" stroke="#000000" points="124,-152.5 124,-171.5 180,-171.5 180,-152.5 124,-152.5"/>
<text text-anchor="middle" x="152" y="-159.5" font-family="Helvetica,sans-Serif" font-size="10.00" fill="#000000">operator*</text>
</a>
</g>
</g>
<!-- Node26&#45;&gt;Node30 -->
<g id="edge4" class="edge">
<title>Node26&#45;&gt;Node30</title>
<path fill="none" stroke="#191970" d="M74.6001,-136.7537C90.7222,-142.0124 109.0465,-147.9894 123.8172,-152.8073"/>
<polygon fill="#191970" stroke="#191970" points="75.4903,-133.3626 64.8979,-133.589 73.3195,-140.0175 75.4903,-133.3626"/>
</g>
<!-- Node31 -->
<g id="node6" class="node">
<title>Node31</title>
<g id="a_node6"><a xlink:href="classlfield.html#ad794d8e7e1cb4685d665e0b474f8901b" target="_top" xlink:title="lfield::operator*=">
<polygon fill="#ffffff" stroke="#000000" points="108,-114.5 108,-133.5 196,-133.5 196,-114.5 108,-114.5"/>
<text text-anchor="middle" x="152" y="-121.5" font-family="Helvetica,sans-Serif" font-size="10.00" fill="#000000">lfield::operator*=</text>
</a>
</g>
</g>
<!-- Node26&#45;&gt;Node31 -->
<g id="edge5" class="edge">
<title>Node26&#45;&gt;Node31</title>
<path fill="none" stroke="#191970" d="M81.1989,-124C90.0143,-124 99.2324,-124 107.9927,-124"/>
<polygon fill="#191970" stroke="#191970" points="81.0869,-120.5001 71.0869,-124 81.0868,-127.5001 81.0869,-120.5001"/>
</g>
<!-- Node32 -->
<g id="node7" class="node">
<title>Node32</title>
<g id="a_node7"><a xlink:href="field_8h.html#a3b4f42aa9c3b63b4579c4ce8922a9fb4" target="_top" xlink:title="operator+">
<polygon fill="#ffffff" stroke="#000000" points="123,-76.5 123,-95.5 181,-95.5 181,-76.5 123,-76.5"/>
<text text-anchor="middle" x="152" y="-83.5" font-family="Helvetica,sans-Serif" font-size="10.00" fill="#000000">operator+</text>
</a>
</g>
</g>
<!-- Node26&#45;&gt;Node32 -->
<g id="edge6" class="edge">
<title>Node26&#45;&gt;Node32</title>
<path fill="none" stroke="#191970" d="M74.8216,-111.1741C90.4534,-106.0753 108.1258,-100.3109 122.6115,-95.5859"/>
<polygon fill="#191970" stroke="#191970" points="73.3195,-107.9825 64.8979,-114.411 75.4903,-114.6374 73.3195,-107.9825"/>
</g>
<!-- Node33 -->
<g id="node8" class="node">
<title>Node33</title>
<g id="a_node8"><a xlink:href="classlfield.html#a1b2ecd36f95f102bbfc308915e37477e" target="_top" xlink:title="lfield::operator+=">
<polygon fill="#ffffff" stroke="#000000" points="107,-38.5 107,-57.5 197,-57.5 197,-38.5 107,-38.5"/>
<text text-anchor="middle" x="152" y="-45.5" font-family="Helvetica,sans-Serif" font-size="10.00" fill="#000000">lfield::operator+=</text>
</a>
</g>
</g>
<!-- Node26&#45;&gt;Node33 -->
<g id="edge7" class="edge">
<title>Node26&#45;&gt;Node33</title>
<path fill="none" stroke="#191970" d="M53.7521,-107.1219C67.62,-94.896 87.5624,-78.5533 107,-67 112.8319,-63.5337 119.4134,-60.3783 125.7064,-57.6781"/>
<polygon fill="#191970" stroke="#191970" points="51.06,-104.8355 45.9611,-114.1227 55.7387,-110.0423 51.06,-104.8355"/>
</g>
<!-- Node34 -->
<g id="node9" class="node">
<title>Node34</title>
<g id="a_node9"><a xlink:href="classlfield.html#a7dbe6c485025a80aa097f772be931e19" target="_top" xlink:title="lfield::operator=">
<polygon fill="#ffffff" stroke="#000000" points="110,-.5 110,-19.5 194,-19.5 194,-.5 110,-.5"/>
<text text-anchor="middle" x="152" y="-7.5" font-family="Helvetica,sans-Serif" font-size="10.00" fill="#000000">lfield::operator=</text>
</a>
</g>
</g>
<!-- Node26&#45;&gt;Node34 -->
<g id="edge8" class="edge">
<title>Node26&#45;&gt;Node34</title>
<path fill="none" stroke="#191970" d="M45.4583,-105.4062C57.5488,-84.366 79.7435,-50.2661 107,-29 111.8139,-25.2441 117.4796,-22.0979 123.1371,-19.5156"/>
<polygon fill="#191970" stroke="#191970" points="42.3033,-103.8779 40.4943,-114.3171 48.4185,-107.2845 42.3033,-103.8779"/>
</g>
<!-- Node28 -->
<g id="node3" class="node">
<title>Node28</title>
<g id="a_node3"><a xlink:href="main__explicit_8cpp.html#a0ddf1224851353fc92bfbff6f499fa97" target="_top" xlink:title="main">
<polygon fill="#ffffff" stroke="#000000" points="233,-228.5 233,-247.5 271,-247.5 271,-228.5 233,-228.5"/>
<text text-anchor="middle" x="252" y="-235.5" font-family="Helvetica,sans-Serif" font-size="10.00" fill="#000000">main</text>
</a>
</g>
</g>
<!-- Node27&#45;&gt;Node28 -->
<g id="edge2" class="edge">
<title>Node27&#45;&gt;Node28</title>
<path fill="none" stroke="#191970" d="M203.859,-238C214.2081,-238 224.4509,-238 232.8105,-238"/>
<polygon fill="#191970" stroke="#191970" points="203.5403,-234.5001 193.5402,-238 203.5402,-241.5001 203.5403,-234.5001"/>
</g>
</g>
</svg>
