<?xml version="1.0" encoding="UTF-8" standalone="no"?>
<!DOCTYPE svg PUBLIC "-//W3C//DTD SVG 1.1//EN"
 "http://www.w3.org/Graphics/SVG/1.1/DTD/svg11.dtd">
<!-- Generated by graphviz version 2.40.1 (20161225.0304)
 -->
<!-- Title: gfield::setToZero Pages: 1 -->
<svg width="192pt" height="104pt"
 viewBox="0.00 0.00 192.00 104.00" xmlns="http://www.w3.org/2000/svg" xmlns:xlink="http://www.w3.org/1999/xlink">
<g id="graph0" class="graph" transform="scale(1 1) rotate(0) translate(4 100)">
<title>gfield::setToZero</title>
<polygon fill="#ffffff" stroke="transparent" points="-4,4 -4,-100 188,-100 188,4 -4,4"/>
<!-- Node91 -->
<g id="node1" class="node">
<title>Node91</title>
<polygon fill="#bfbfbf" stroke="#000000" points="0,-38.5 0,-57.5 90,-57.5 90,-38.5 0,-38.5"/>
<text text-anchor="middle" x="45" y="-45.5" font-family="Helvetica,sans-Serif" font-size="10.00" fill="#000000">gfield::setToZero</text>
</g>
<!-- Node92 -->
<g id="node2" class="node">
<title>Node92</title>
<g id="a_node2"><a xlink:href="test__initial__condition_8cpp.html#a0ddf1224851353fc92bfbff6f499fa97" target="_top" xlink:title="main">
<polygon fill="#ffffff" stroke="#000000" points="136,-76.5 136,-95.5 174,-95.5 174,-76.5 136,-76.5"/>
<text text-anchor="middle" x="155" y="-83.5" font-family="Helvetica,sans-Serif" font-size="10.00" fill="#000000">main</text>
</a>
</g>
</g>
<!-- Node91&#45;&gt;Node92 -->
<g id="edge1" class="edge">
<title>Node91&#45;&gt;Node92</title>
<path fill="none" stroke="#191970" d="M82.408,-60.9228C100.4001,-67.1382 121.1996,-74.3235 135.9101,-79.4053"/>
<polygon fill="#191970" stroke="#191970" points="83.3524,-57.5461 72.7576,-57.589 81.0667,-64.1624 83.3524,-57.5461"/>
</g>
<!-- Node93 -->
<g id="node3" class="node">
<title>Node93</title>
<g id="a_node3"><a xlink:href="field_8h.html#ae2e78230fe4fa881c6233010eba186f2" target="_top" xlink:title="operator*">
<polygon fill="#ffffff" stroke="#000000" points="127,-38.5 127,-57.5 183,-57.5 183,-38.5 127,-38.5"/>
<text text-anchor="middle" x="155" y="-45.5" font-family="Helvetica,sans-Serif" font-size="10.00" fill="#000000">operator*</text>
</a>
</g>
</g>
<!-- Node91&#45;&gt;Node93 -->
<g id="edge2" class="edge">
<title>Node91&#45;&gt;Node93</title>
<path fill="none" stroke="#191970" d="M100.0864,-48C109.3726,-48 118.6556,-48 126.8764,-48"/>
<polygon fill="#191970" stroke="#191970" points="100.0586,-44.5001 90.0586,-48 100.0586,-51.5001 100.0586,-44.5001"/>
</g>
<!-- Node94 -->
<g id="node4" class="node">
<title>Node94</title>
<g id="a_node4"><a xlink:href="field_8h.html#a37042ea36be49b649f301e9b193b7089" target="_top" xlink:title="operator+">
<polygon fill="#ffffff" stroke="#000000" points="126,-.5 126,-19.5 184,-19.5 184,-.5 126,-.5"/>
<text text-anchor="middle" x="155" y="-7.5" font-family="Helvetica,sans-Serif" font-size="10.00" fill="#000000">operator+</text>
</a>
</g>
</g>
<!-- Node91&#45;&gt;Node94 -->
<g id="edge3" class="edge">
<title>Node91&#45;&gt;Node94</title>
<path fill="none" stroke="#191970" d="M82.5499,-35.0282C97.2049,-29.9656 113.7039,-24.2659 127.2512,-19.5859"/>
<polygon fill="#191970" stroke="#191970" points="81.0667,-31.8376 72.7576,-38.411 83.3524,-38.4539 81.0667,-31.8376"/>
</g>
</g>
</svg>
