<?xml version="1.0" encoding="UTF-8" standalone="no"?>
<!DOCTYPE svg PUBLIC "-//W3C//DTD SVG 1.1//EN"
 "http://www.w3.org/Graphics/SVG/1.1/DTD/svg11.dtd">
<!-- Generated by graphviz version 2.40.1 (20161225.0304)
 -->
<!-- Title: momenta::pbarX Pages: 1 -->
<svg width="338pt" height="154pt"
 viewBox="0.00 0.00 338.00 154.00" xmlns="http://www.w3.org/2000/svg" xmlns:xlink="http://www.w3.org/1999/xlink">
<g id="graph0" class="graph" transform="scale(1 1) rotate(0) translate(4 150)">
<title>momenta::pbarX</title>
<polygon fill="#ffffff" stroke="transparent" points="-4,4 -4,-150 334,-150 334,4 -4,4"/>
<!-- Node10 -->
<g id="node1" class="node">
<title>Node10</title>
<polygon fill="#bfbfbf" stroke="#000000" points="0,-66.5 0,-85.5 89,-85.5 89,-66.5 0,-66.5"/>
<text text-anchor="middle" x="44.5" y="-73.5" font-family="Helvetica,sans-Serif" font-size="10.00" fill="#000000">momenta::pbarX</text>
</g>
<!-- Node11 -->
<g id="node2" class="node">
<title>Node11</title>
<g id="a_node2"><a xlink:href="field_8h.html#a775fa9c6bfba32acd280006a6fd3e524" target="_top" xlink:title="prepare_A_local">
<polygon fill="#ffffff" stroke="#000000" points="147.5,-126.5 147.5,-145.5 233.5,-145.5 233.5,-126.5 147.5,-126.5"/>
<text text-anchor="middle" x="190.5" y="-133.5" font-family="Helvetica,sans-Serif" font-size="10.00" fill="#000000">prepare_A_local</text>
</a>
</g>
</g>
<!-- Node10&#45;&gt;Node11 -->
<g id="edge1" class="edge">
<title>Node10&#45;&gt;Node11</title>
<path fill="none" stroke="#191970" d="M70.0224,-90.5657C85.573,-99.0416 106.0382,-109.4989 125,-117 133.9182,-120.528 143.7502,-123.7255 153.025,-126.4486"/>
<polygon fill="#191970" stroke="#191970" points="71.4763,-87.3702 61.0324,-85.5885 68.0858,-93.4942 71.4763,-87.3702"/>
</g>
<!-- Node13 -->
<g id="node4" class="node">
<title>Node13</title>
<g id="a_node4"><a xlink:href="classlfield.html#a1370b1b3fd05bfcffb64018dd3bedf70" target="_top" xlink:title="lfield::setKernelPbarX">
<polygon fill="#ffffff" stroke="#000000" points="135,-88.5 135,-107.5 246,-107.5 246,-88.5 135,-88.5"/>
<text text-anchor="middle" x="190.5" y="-95.5" font-family="Helvetica,sans-Serif" font-size="10.00" fill="#000000">lfield::setKernelPbarX</text>
</a>
</g>
</g>
<!-- Node10&#45;&gt;Node13 -->
<g id="edge3" class="edge">
<title>Node10&#45;&gt;Node13</title>
<path fill="none" stroke="#191970" d="M99.1391,-84.2333C110.7978,-85.9901 123.1248,-87.8476 134.822,-89.6102"/>
<polygon fill="#191970" stroke="#191970" points="99.508,-80.7494 89.0981,-82.7203 98.465,-87.6713 99.508,-80.7494"/>
</g>
<!-- Node15 -->
<g id="node6" class="node">
<title>Node15</title>
<g id="a_node6"><a xlink:href="classlfield.html#a1caeadd397716179bb8d72b60236cffb" target="_top" xlink:title="lfield::setKernelPbarXWith\lCouplingConstant">
<polygon fill="#ffffff" stroke="#000000" points="125,-39 125,-69 256,-69 256,-39 125,-39"/>
<text text-anchor="start" x="133" y="-57" font-family="Helvetica,sans-Serif" font-size="10.00" fill="#000000">lfield::setKernelPbarXWith</text>
<text text-anchor="middle" x="190.5" y="-46" font-family="Helvetica,sans-Serif" font-size="10.00" fill="#000000">CouplingConstant</text>
</a>
</g>
</g>
<!-- Node10&#45;&gt;Node15 -->
<g id="edge5" class="edge">
<title>Node10&#45;&gt;Node15</title>
<path fill="none" stroke="#191970" d="M99.1534,-67.7645C107.5652,-66.497 116.3244,-65.1771 124.9438,-63.8783"/>
<polygon fill="#191970" stroke="#191970" points="98.465,-64.3287 89.0981,-69.2797 99.508,-71.2506 98.465,-64.3287"/>
</g>
<!-- Node16 -->
<g id="node7" class="node">
<title>Node16</title>
<g id="a_node7"><a xlink:href="classmomenta.html#a6bd37462bcd9d58e3ae501a72e96a9e7" target="_top" xlink:title="momenta::~momenta">
<polygon fill="#ffffff" stroke="#000000" points="135.5,-.5 135.5,-19.5 245.5,-19.5 245.5,-.5 135.5,-.5"/>
<text text-anchor="middle" x="190.5" y="-7.5" font-family="Helvetica,sans-Serif" font-size="10.00" fill="#000000">momenta::~momenta</text>
</a>
</g>
</g>
<!-- Node10&#45;&gt;Node16 -->
<g id="edge7" class="edge">
<title>Node10&#45;&gt;Node16</title>
<path fill="none" stroke="#191970" d="M66.9858,-60.8468C82.7103,-50.7641 104.4876,-37.8032 125,-29 133.4869,-25.3577 142.8827,-22.1711 151.8457,-19.5006"/>
<polygon fill="#191970" stroke="#191970" points="64.9429,-58.0007 58.4821,-66.3977 68.7692,-63.8624 64.9429,-58.0007"/>
</g>
<!-- Node12 -->
<g id="node3" class="node">
<title>Node12</title>
<g id="a_node3"><a xlink:href="main__optimized_8cpp.html#a0ddf1224851353fc92bfbff6f499fa97" target="_top" xlink:title="main">
<polygon fill="#ffffff" stroke="#000000" points="292,-126.5 292,-145.5 330,-145.5 330,-126.5 292,-126.5"/>
<text text-anchor="middle" x="311" y="-133.5" font-family="Helvetica,sans-Serif" font-size="10.00" fill="#000000">main</text>
</a>
</g>
</g>
<!-- Node11&#45;&gt;Node12 -->
<g id="edge2" class="edge">
<title>Node11&#45;&gt;Node12</title>
<path fill="none" stroke="#191970" d="M243.6788,-136C260.9176,-136 278.9393,-136 291.9937,-136"/>
<polygon fill="#191970" stroke="#191970" points="243.6629,-132.5001 233.6629,-136 243.6629,-139.5001 243.6629,-132.5001"/>
</g>
<!-- Node14 -->
<g id="node5" class="node">
<title>Node14</title>
<g id="a_node5"><a xlink:href="main__explicit_8cpp.html#a0ddf1224851353fc92bfbff6f499fa97" target="_top" xlink:title="main">
<polygon fill="#ffffff" stroke="#000000" points="292,-66.5 292,-85.5 330,-85.5 330,-66.5 292,-66.5"/>
<text text-anchor="middle" x="311" y="-73.5" font-family="Helvetica,sans-Serif" font-size="10.00" fill="#000000">main</text>
</a>
</g>
</g>
<!-- Node13&#45;&gt;Node14 -->
<g id="edge4" class="edge">
<title>Node13&#45;&gt;Node14</title>
<path fill="none" stroke="#191970" d="M252.5133,-86.6781C266.7835,-84.0727 280.9217,-81.4915 291.7221,-79.5196"/>
<polygon fill="#191970" stroke="#191970" points="251.861,-83.2392 242.6522,-88.4784 253.1183,-90.1254 251.861,-83.2392"/>
</g>
<!-- Node15&#45;&gt;Node14 -->
<g id="edge6" class="edge">
<title>Node15&#45;&gt;Node14</title>
<path fill="none" stroke="#191970" d="M266.0898,-67.8006C275.5865,-69.5345 284.5385,-71.1689 291.9137,-72.5154"/>
<polygon fill="#191970" stroke="#191970" points="266.5054,-64.3187 256.0394,-65.9657 265.2481,-71.2049 266.5054,-64.3187"/>
</g>
</g>
</svg>
