<?xml version="1.0" encoding="UTF-8" standalone="no"?>
<!DOCTYPE svg PUBLIC "-//W3C//DTD SVG 1.1//EN"
 "http://www.w3.org/Graphics/SVG/1.1/DTD/svg11.dtd">
<!-- Generated by graphviz version 2.40.1 (20161225.0304)
 -->
<!-- Title: mpi_class::mpi_exchange_grid Pages: 1 -->
<svg width="306pt" height="66pt"
 viewBox="0.00 0.00 306.00 66.00" xmlns="http://www.w3.org/2000/svg" xmlns:xlink="http://www.w3.org/1999/xlink">
<g id="graph0" class="graph" transform="scale(1 1) rotate(0) translate(4 62)">
<title>mpi_class::mpi_exchange_grid</title>
<polygon fill="#ffffff" stroke="transparent" points="-4,4 -4,-62 302,-62 302,4 -4,4"/>
<!-- Node82 -->
<g id="node1" class="node">
<title>Node82</title>
<polygon fill="#bfbfbf" stroke="#000000" points="0,-19.5 0,-38.5 151,-38.5 151,-19.5 0,-19.5"/>
<text text-anchor="middle" x="75.5" y="-26.5" font-family="Helvetica,sans-Serif" font-size="10.00" fill="#000000">mpi_class::mpi_exchange_grid</text>
</g>
<!-- Node83 -->
<g id="node2" class="node">
<title>Node83</title>
<g id="a_node2"><a xlink:href="main__explicit_8cpp.html#a0ddf1224851353fc92bfbff6f499fa97" target="_top" xlink:title="main">
<polygon fill="#ffffff" stroke="#000000" points="223.5,-38.5 223.5,-57.5 261.5,-57.5 261.5,-38.5 223.5,-38.5"/>
<text text-anchor="middle" x="242.5" y="-45.5" font-family="Helvetica,sans-Serif" font-size="10.00" fill="#000000">main</text>
</a>
</g>
</g>
<!-- Node82&#45;&gt;Node83 -->
<g id="edge1" class="edge">
<title>Node82&#45;&gt;Node83</title>
<path fill="none" stroke="#191970" d="M161.1785,-38.7479C184.5208,-41.4036 207.6359,-44.0334 223.2207,-45.8065"/>
<polygon fill="#191970" stroke="#191970" points="161.5137,-35.2635 151.1821,-37.6105 160.7223,-42.2186 161.5137,-35.2635"/>
</g>
<!-- Node84 -->
<g id="node3" class="node">
<title>Node84</title>
<g id="a_node3"><a xlink:href="classmpi__class.html#adde25076ac0bf81585dbf15ba7f6ff57" target="_top" xlink:title="mpi_class::mpi_class">
<polygon fill="#ffffff" stroke="#000000" points="187,-.5 187,-19.5 298,-19.5 298,-.5 187,-.5"/>
<text text-anchor="middle" x="242.5" y="-7.5" font-family="Helvetica,sans-Serif" font-size="10.00" fill="#000000">mpi_class::mpi_class</text>
</a>
</g>
</g>
<!-- Node82&#45;&gt;Node84 -->
<g id="edge2" class="edge">
<title>Node82&#45;&gt;Node84</title>
<path fill="none" stroke="#191970" d="M161.2597,-19.2429C169.8505,-18.2655 178.4093,-17.2918 186.5721,-16.3631"/>
<polygon fill="#191970" stroke="#191970" points="160.7223,-15.7814 151.1821,-20.3895 161.5137,-22.7365 160.7223,-15.7814"/>
</g>
</g>
</svg>
