<?xml version="1.0" encoding="UTF-8" standalone="no"?>
<!DOCTYPE svg PUBLIC "-//W3C//DTD SVG 1.1//EN"
 "http://www.w3.org/Graphics/SVG/1.1/DTD/svg11.dtd">
<!-- Generated by graphviz version 2.40.1 (20161225.0304)
 -->
<!-- Title: gfield::setKernelXbarYWithCouplingConstant Pages: 1 -->
<svg width="265pt" height="104pt"
 viewBox="0.00 0.00 265.00 104.00" xmlns="http://www.w3.org/2000/svg" xmlns:xlink="http://www.w3.org/1999/xlink">
<g id="graph0" class="graph" transform="scale(1 1) rotate(0) translate(4 100)">
<title>gfield::setKernelXbarYWithCouplingConstant</title>
<polygon fill="#ffffff" stroke="transparent" points="-4,4 -4,-100 261,-100 261,4 -4,4"/>
<!-- Node81 -->
<g id="node1" class="node">
<title>Node81</title>
<polygon fill="#bfbfbf" stroke="#000000" points="0,-33 0,-63 134,-63 134,-33 0,-33"/>
<text text-anchor="start" x="8" y="-51" font-family="Helvetica,sans-Serif" font-size="10.00" fill="#000000">gfield::setKernelXbarYWith</text>
<text text-anchor="middle" x="67" y="-40" font-family="Helvetica,sans-Serif" font-size="10.00" fill="#000000">CouplingConstant</text>
</g>
<!-- Node82 -->
<g id="node2" class="node">
<title>Node82</title>
<g id="a_node2"><a xlink:href="classpositions.html#a6dbe3d67f866039efa6736ed9a7fb210" target="_top" xlink:title="positions::xbar2">
<polygon fill="#ffffff" stroke="#000000" points="170.5,-76.5 170.5,-95.5 256.5,-95.5 256.5,-76.5 170.5,-76.5"/>
<text text-anchor="middle" x="213.5" y="-83.5" font-family="Helvetica,sans-Serif" font-size="10.00" fill="#000000">positions::xbar2</text>
</a>
</g>
</g>
<!-- Node81&#45;&gt;Node82 -->
<g id="edge1" class="edge">
<title>Node81&#45;&gt;Node82</title>
<path fill="none" stroke="#191970" d="M124.9007,-63.0186C138.7945,-66.6225 153.4598,-70.4264 166.7735,-73.8798"/>
<polygon fill="#191970" stroke="#191970" points="166.0975,-77.3202 176.656,-76.4432 167.8551,-70.5445 166.0975,-77.3202"/>
</g>
<!-- Node83 -->
<g id="node3" class="node">
<title>Node83</title>
<g id="a_node3"><a xlink:href="classpositions.html#a77d78afe9d418da5a6f5ba15e123e402" target="_top" xlink:title="positions::xhatX">
<polygon fill="#ffffff" stroke="#000000" points="170,-38.5 170,-57.5 257,-57.5 257,-38.5 170,-38.5"/>
<text text-anchor="middle" x="213.5" y="-45.5" font-family="Helvetica,sans-Serif" font-size="10.00" fill="#000000">positions::xhatX</text>
</a>
</g>
</g>
<!-- Node81&#45;&gt;Node83 -->
<g id="edge2" class="edge">
<title>Node81&#45;&gt;Node83</title>
<path fill="none" stroke="#191970" d="M134.2472,-48C142.7094,-48 151.2792,-48 159.5007,-48"/>
<polygon fill="#191970" stroke="#191970" points="159.6941,-51.5001 169.694,-48 159.694,-44.5001 159.6941,-51.5001"/>
</g>
<!-- Node84 -->
<g id="node4" class="node">
<title>Node84</title>
<g id="a_node4"><a xlink:href="classpositions.html#a7c323a6022ee85bf1312d56d9726c308" target="_top" xlink:title="positions::xhatY">
<polygon fill="#ffffff" stroke="#000000" points="170,-.5 170,-19.5 257,-19.5 257,-.5 170,-.5"/>
<text text-anchor="middle" x="213.5" y="-7.5" font-family="Helvetica,sans-Serif" font-size="10.00" fill="#000000">positions::xhatY</text>
</a>
</g>
</g>
<!-- Node81&#45;&gt;Node84 -->
<g id="edge3" class="edge">
<title>Node81&#45;&gt;Node84</title>
<path fill="none" stroke="#191970" d="M124.9007,-32.9814C138.7945,-29.3775 153.4598,-25.5736 166.7735,-22.1202"/>
<polygon fill="#191970" stroke="#191970" points="167.8551,-25.4555 176.656,-19.5568 166.0975,-18.6798 167.8551,-25.4555"/>
</g>
</g>
</svg>
