<?xml version="1.0" encoding="UTF-8" standalone="no"?>
<!DOCTYPE svg PUBLIC "-//W3C//DTD SVG 1.1//EN"
 "http://www.w3.org/Graphics/SVG/1.1/DTD/svg11.dtd">
<!-- Generated by graphviz version 2.40.1 (20161225.0304)
 -->
<!-- Title: gfield::getNxg Pages: 1 -->
<svg width="427pt" height="142pt"
 viewBox="0.00 0.00 427.00 142.00" xmlns="http://www.w3.org/2000/svg" xmlns:xlink="http://www.w3.org/1999/xlink">
<g id="graph0" class="graph" transform="scale(1 1) rotate(0) translate(4 138)">
<title>gfield::getNxg</title>
<polygon fill="#ffffff" stroke="transparent" points="-4,4 -4,-138 423,-138 423,4 -4,4"/>
<!-- Node15 -->
<g id="node1" class="node">
<title>Node15</title>
<polygon fill="#bfbfbf" stroke="#000000" points="0,-57.5 0,-76.5 77,-76.5 77,-57.5 0,-57.5"/>
<text text-anchor="middle" x="38.5" y="-64.5" font-family="Helvetica,sans-Serif" font-size="10.00" fill="#000000">gfield::getNxg</text>
</g>
<!-- Node16 -->
<g id="node2" class="node">
<title>Node16</title>
<g id="a_node2"><a xlink:href="field_8h.html#ae2e78230fe4fa881c6233010eba186f2" target="_top" xlink:title="operator*">
<polygon fill="#ffffff" stroke="#000000" points="137,-114.5 137,-133.5 193,-133.5 193,-114.5 137,-114.5"/>
<text text-anchor="middle" x="165" y="-121.5" font-family="Helvetica,sans-Serif" font-size="10.00" fill="#000000">operator*</text>
</a>
</g>
</g>
<!-- Node15&#45;&gt;Node16 -->
<g id="edge1" class="edge">
<title>Node15&#45;&gt;Node16</title>
<path fill="none" stroke="#191970" d="M64.7824,-81.3923C78.8811,-88.86 96.6699,-97.8832 113,-105 120.6657,-108.3408 129.1268,-111.6053 136.9573,-114.4595"/>
<polygon fill="#191970" stroke="#191970" points="66.1422,-78.1502 55.6746,-76.5134 62.8368,-84.3207 66.1422,-78.1502"/>
</g>
<!-- Node17 -->
<g id="node3" class="node">
<title>Node17</title>
<g id="a_node3"><a xlink:href="field_8h.html#a37042ea36be49b649f301e9b193b7089" target="_top" xlink:title="operator+">
<polygon fill="#ffffff" stroke="#000000" points="136,-76.5 136,-95.5 194,-95.5 194,-76.5 136,-76.5"/>
<text text-anchor="middle" x="165" y="-83.5" font-family="Helvetica,sans-Serif" font-size="10.00" fill="#000000">operator+</text>
</a>
</g>
</g>
<!-- Node15&#45;&gt;Node17 -->
<g id="edge2" class="edge">
<title>Node15&#45;&gt;Node17</title>
<path fill="none" stroke="#191970" d="M87.1472,-74.3067C103.574,-76.774 121.3907,-79.45 135.8294,-81.6187"/>
<polygon fill="#191970" stroke="#191970" points="87.5505,-70.8281 77.1415,-72.8039 86.5107,-77.7504 87.5505,-70.8281"/>
</g>
<!-- Node18 -->
<g id="node4" class="node">
<title>Node18</title>
<g id="a_node4"><a xlink:href="classgfield.html#a9d5e1ced7bf2e0c89ce72eefc08e63ad" target="_top" xlink:title="gfield::operator=">
<polygon fill="#ffffff" stroke="#000000" points="121.5,-38.5 121.5,-57.5 208.5,-57.5 208.5,-38.5 121.5,-38.5"/>
<text text-anchor="middle" x="165" y="-45.5" font-family="Helvetica,sans-Serif" font-size="10.00" fill="#000000">gfield::operator=</text>
</a>
</g>
</g>
<!-- Node15&#45;&gt;Node18 -->
<g id="edge3" class="edge">
<title>Node15&#45;&gt;Node18</title>
<path fill="none" stroke="#191970" d="M87.2188,-59.6826C98.4365,-57.9977 110.299,-56.216 121.2887,-54.5653"/>
<polygon fill="#191970" stroke="#191970" points="86.5107,-56.2496 77.1415,-61.1961 87.5505,-63.1719 86.5107,-56.2496"/>
</g>
<!-- Node21 -->
<g id="node7" class="node">
<title>Node21</title>
<g id="a_node7"><a xlink:href="classlfield.html#ad624c0368bcb52153abf6568d1bce971" target="_top" xlink:title="The method reduces the global gfield object into local lfield by performing a sum over the volume...">
<polygon fill="#ffffff" stroke="#000000" points="113,-.5 113,-19.5 217,-19.5 217,-.5 113,-.5"/>
<text text-anchor="middle" x="165" y="-7.5" font-family="Helvetica,sans-Serif" font-size="10.00" fill="#000000">lfield::reduceAndSet</text>
</a>
</g>
</g>
<!-- Node15&#45;&gt;Node21 -->
<g id="edge6" class="edge">
<title>Node15&#45;&gt;Node21</title>
<path fill="none" stroke="#191970" d="M64.7824,-52.6077C78.8811,-45.14 96.6699,-36.1168 113,-29 120.6657,-25.6592 129.1268,-22.3947 136.9573,-19.5405"/>
<polygon fill="#191970" stroke="#191970" points="62.8368,-49.6793 55.6746,-57.4866 66.1422,-55.8498 62.8368,-49.6793"/>
</g>
<!-- Node19 -->
<g id="node5" class="node">
<title>Node19</title>
<g id="a_node5"><a xlink:href="classlfield.html#a6220e9fc7f5d24c493f7ab3382fb36aa" target="_top" xlink:title="lfield::setToFixed">
<polygon fill="#ffffff" stroke="#000000" points="253,-38.5 253,-57.5 345,-57.5 345,-38.5 253,-38.5"/>
<text text-anchor="middle" x="299" y="-45.5" font-family="Helvetica,sans-Serif" font-size="10.00" fill="#000000">lfield::setToFixed</text>
</a>
</g>
</g>
<!-- Node18&#45;&gt;Node19 -->
<g id="edge4" class="edge">
<title>Node18&#45;&gt;Node19</title>
<path fill="none" stroke="#191970" d="M218.7272,-48C230.0614,-48 241.9235,-48 252.9449,-48"/>
<polygon fill="#191970" stroke="#191970" points="218.506,-44.5001 208.506,-48 218.5059,-51.5001 218.506,-44.5001"/>
</g>
<!-- Node20 -->
<g id="node6" class="node">
<title>Node20</title>
<g id="a_node6"><a xlink:href="test__symmetrize__average2_8cpp.html#a0ddf1224851353fc92bfbff6f499fa97" target="_top" xlink:title="main">
<polygon fill="#ffffff" stroke="#000000" points="381,-38.5 381,-57.5 419,-57.5 419,-38.5 381,-38.5"/>
<text text-anchor="middle" x="400" y="-45.5" font-family="Helvetica,sans-Serif" font-size="10.00" fill="#000000">main</text>
</a>
</g>
</g>
<!-- Node19&#45;&gt;Node20 -->
<g id="edge5" class="edge">
<title>Node19&#45;&gt;Node20</title>
<path fill="none" stroke="#191970" d="M355.328,-48C364.3773,-48 373.1737,-48 380.5337,-48"/>
<polygon fill="#191970" stroke="#191970" points="355.0666,-44.5001 345.0666,-48 355.0666,-51.5001 355.0666,-44.5001"/>
</g>
<!-- Node22 -->
<g id="node8" class="node">
<title>Node22</title>
<g id="a_node8"><a xlink:href="main__explicit_8cpp.html#a0ddf1224851353fc92bfbff6f499fa97" target="_top" xlink:title="main">
<polygon fill="#ffffff" stroke="#000000" points="280,-.5 280,-19.5 318,-19.5 318,-.5 280,-.5"/>
<text text-anchor="middle" x="299" y="-7.5" font-family="Helvetica,sans-Serif" font-size="10.00" fill="#000000">main</text>
</a>
</g>
</g>
<!-- Node21&#45;&gt;Node22 -->
<g id="edge7" class="edge">
<title>Node21&#45;&gt;Node22</title>
<path fill="none" stroke="#191970" d="M227.3879,-10C246.456,-10 266.0246,-10 279.8767,-10"/>
<polygon fill="#191970" stroke="#191970" points="227.1916,-6.5001 217.1916,-10 227.1916,-13.5001 227.1916,-6.5001"/>
</g>
</g>
</svg>
