<?xml version="1.0" encoding="UTF-8" standalone="no"?>
<!DOCTYPE svg PUBLIC "-//W3C//DTD SVG 1.1//EN"
 "http://www.w3.org/Graphics/SVG/1.1/DTD/svg11.dtd">
<!-- Generated by graphviz version 2.40.1 (20161225.0304)
 -->
<!-- Title: config Pages: 1 -->
<svg width="133pt" height="343pt"
 viewBox="0.00 0.00 133.00 343.00" xmlns="http://www.w3.org/2000/svg" xmlns:xlink="http://www.w3.org/1999/xlink">
<g id="graph0" class="graph" transform="scale(1 1) rotate(0) translate(4 339)">
<title>config</title>
<polygon fill="#ffffff" stroke="transparent" points="-4,4 -4,-339 129,-339 129,4 -4,4"/>
<!-- Node1 -->
<g id="node1" class="node">
<title>Node1</title>
<polygon fill="#bfbfbf" stroke="#000000" points="0,-.5 0,-123.5 125,-123.5 125,-.5 0,-.5"/>
<text text-anchor="middle" x="62.5" y="-111.5" font-family="Helvetica,sans-Serif" font-size="10.00" fill="#000000">config</text>
<polyline fill="none" stroke="#000000" points="0,-104.5 125,-104.5 "/>
<text text-anchor="start" x="8" y="-92.5" font-family="Helvetica,sans-Serif" font-size="10.00" fill="#000000">+ Nxl</text>
<text text-anchor="start" x="8" y="-81.5" font-family="Helvetica,sans-Serif" font-size="10.00" fill="#000000">+ Nyl</text>
<text text-anchor="start" x="8" y="-70.5" font-family="Helvetica,sans-Serif" font-size="10.00" fill="#000000">+ Nxl_buf</text>
<text text-anchor="start" x="8" y="-59.5" font-family="Helvetica,sans-Serif" font-size="10.00" fill="#000000">+ Nyl_buf</text>
<text text-anchor="start" x="8" y="-48.5" font-family="Helvetica,sans-Serif" font-size="10.00" fill="#000000">+ ExchangeX</text>
<text text-anchor="start" x="8" y="-37.5" font-family="Helvetica,sans-Serif" font-size="10.00" fill="#000000">+ ExchangeY</text>
<text text-anchor="start" x="8" y="-26.5" font-family="Helvetica,sans-Serif" font-size="10.00" fill="#000000">and 17 more...</text>
<polyline fill="none" stroke="#000000" points="0,-19.5 125,-19.5 "/>
<text text-anchor="start" x="8" y="-7.5" font-family="Helvetica,sans-Serif" font-size="10.00" fill="#000000">+ read_config_from_file()</text>
</g>
<!-- Node2 -->
<g id="node2" class="node">
<title>Node2</title>
<g id="a_node2"><a xlink:title="STL class. ">
<polygon fill="#ffffff" stroke="#bfbfbf" points="32.5,-171.5 32.5,-228.5 92.5,-228.5 92.5,-171.5 32.5,-171.5"/>
<text text-anchor="middle" x="62.5" y="-216.5" font-family="Helvetica,sans-Serif" font-size="10.00" fill="#000000">std::string</text>
<polyline fill="none" stroke="#bfbfbf" points="32.5,-209.5 92.5,-209.5 "/>
<text text-anchor="middle" x="62.5" y="-197.5" font-family="Helvetica,sans-Serif" font-size="10.00" fill="#000000"> </text>
<polyline fill="none" stroke="#bfbfbf" points="32.5,-190.5 92.5,-190.5 "/>
<text text-anchor="middle" x="62.5" y="-178.5" font-family="Helvetica,sans-Serif" font-size="10.00" fill="#000000"> </text>
</a>
</g>
</g>
<!-- Node2&#45;&gt;Node1 -->
<g id="edge1" class="edge">
<title>Node2&#45;&gt;Node1</title>
<path fill="none" stroke="#404040" d="M62.5,-171.4063C62.5,-160.8767 62.5,-148.4088 62.5,-135.7269"/>
<polygon fill="none" stroke="#404040" points="62.5001,-135.5587 58.5,-129.5587 62.5,-123.5587 66.5,-129.5586 62.5001,-135.5587"/>
<text text-anchor="middle" x="88.5" y="-145" font-family="Helvetica,sans-Serif" font-size="10.00" fill="#000000"> +file_name</text>
</g>
<!-- Node3 -->
<g id="node3" class="node">
<title>Node3</title>
<g id="a_node3"><a xlink:title="STL class. ">
<polygon fill="#ffffff" stroke="#bfbfbf" points="15,-266.5 15,-334.5 110,-334.5 110,-266.5 15,-266.5"/>
<text text-anchor="start" x="23" y="-322.5" font-family="Helvetica,sans-Serif" font-size="10.00" fill="#000000">std::basic_string&lt;</text>
<text text-anchor="middle" x="62.5" y="-311.5" font-family="Helvetica,sans-Serif" font-size="10.00" fill="#000000"> char &gt;</text>
<polyline fill="none" stroke="#bfbfbf" points="15,-304.5 110,-304.5 "/>
<text text-anchor="middle" x="62.5" y="-292.5" font-family="Helvetica,sans-Serif" font-size="10.00" fill="#000000"> </text>
<polyline fill="none" stroke="#bfbfbf" points="15,-285.5 110,-285.5 "/>
<text text-anchor="middle" x="62.5" y="-273.5" font-family="Helvetica,sans-Serif" font-size="10.00" fill="#000000"> </text>
</a>
</g>
</g>
<!-- Node3&#45;&gt;Node2 -->
<g id="edge2" class="edge">
<title>Node3&#45;&gt;Node2</title>
<path fill="none" stroke="#191970" d="M62.5,-256.4301C62.5,-247.0073 62.5,-237.2901 62.5,-228.6312"/>
<polygon fill="none" stroke="#191970" points="59.0001,-256.4752 62.5,-266.4753 66.0001,-256.4753 59.0001,-256.4752"/>
</g>
</g>
</svg>
