<?xml version="1.0" encoding="UTF-8" standalone="no"?>
<!DOCTYPE svg PUBLIC "-//W3C//DTD SVG 1.1//EN"
 "http://www.w3.org/Graphics/SVG/1.1/DTD/svg11.dtd">
<!-- Generated by graphviz version 2.40.1 (20161225.0304)
 -->
<!-- Title: field&lt; T, t &gt; Pages: 1 -->
<svg width="105pt" height="204pt"
 viewBox="0.00 0.00 105.00 204.00" xmlns="http://www.w3.org/2000/svg" xmlns:xlink="http://www.w3.org/1999/xlink">
<g id="graph0" class="graph" transform="scale(1 1) rotate(0) translate(4 200)">
<title>field&lt; T, t &gt;</title>
<polygon fill="#ffffff" stroke="transparent" points="-4,4 -4,-200 101,-200 101,4 -4,4"/>
<!-- Node3 -->
<g id="node1" class="node">
<title>Node3</title>
<polygon fill="#bfbfbf" stroke="#000000" points="14.5,-.5 14.5,-90.5 82.5,-90.5 82.5,-.5 14.5,-.5"/>
<text text-anchor="middle" x="48.5" y="-78.5" font-family="Helvetica,sans-Serif" font-size="10.00" fill="#000000">field&lt; T, t &gt;</text>
<polyline fill="none" stroke="#000000" points="14.5,-71.5 82.5,-71.5 "/>
<text text-anchor="start" x="22.5" y="-59.5" font-family="Helvetica,sans-Serif" font-size="10.00" fill="#000000">&#45; Nxl</text>
<text text-anchor="start" x="22.5" y="-48.5" font-family="Helvetica,sans-Serif" font-size="10.00" fill="#000000">&#45; Nyl</text>
<polyline fill="none" stroke="#000000" points="14.5,-41.5 82.5,-41.5 "/>
<text text-anchor="start" x="22.5" y="-29.5" font-family="Helvetica,sans-Serif" font-size="10.00" fill="#000000">+ field()</text>
<text text-anchor="start" x="22.5" y="-18.5" font-family="Helvetica,sans-Serif" font-size="10.00" fill="#000000">+ field()</text>
<text text-anchor="start" x="22.5" y="-7.5" font-family="Helvetica,sans-Serif" font-size="10.00" fill="#000000">+ ~field()</text>
</g>
<!-- Node4 -->
<g id="node2" class="node">
<title>Node4</title>
<polygon fill="#ffffff" stroke="#bfbfbf" points="0,-138.5 0,-195.5 97,-195.5 97,-138.5 0,-138.5"/>
<text text-anchor="middle" x="48.5" y="-183.5" font-family="Helvetica,sans-Serif" font-size="10.00" fill="#000000">std::complex&lt; T &gt;</text>
<polyline fill="none" stroke="#bfbfbf" points="0,-176.5 97,-176.5 "/>
<text text-anchor="middle" x="48.5" y="-164.5" font-family="Helvetica,sans-Serif" font-size="10.00" fill="#000000"> </text>
<polyline fill="none" stroke="#bfbfbf" points="0,-157.5 97,-157.5 "/>
<text text-anchor="middle" x="48.5" y="-145.5" font-family="Helvetica,sans-Serif" font-size="10.00" fill="#000000"> </text>
</g>
<!-- Node4&#45;&gt;Node3 -->
<g id="edge1" class="edge">
<title>Node4&#45;&gt;Node3</title>
<path fill="none" stroke="#404040" d="M48.5,-138.2062C48.5,-127.5748 48.5,-115.1181 48.5,-102.847"/>
<polygon fill="none" stroke="#404040" points="48.5001,-102.7124 44.5,-96.7125 48.5,-90.7124 52.5,-96.7124 48.5001,-102.7124"/>
<text text-anchor="middle" x="56" y="-112" font-family="Helvetica,sans-Serif" font-size="10.00" fill="#000000"> +u</text>
</g>
</g>
</svg>
