<?xml version="1.0" encoding="UTF-8" standalone="no"?>
<!DOCTYPE svg PUBLIC "-//W3C//DTD SVG 1.1//EN"
 "http://www.w3.org/Graphics/SVG/1.1/DTD/svg11.dtd">
<!-- Generated by graphviz version 2.40.1 (20161225.0304)
 -->
<!-- Title: gfield::reduce Pages: 1 -->
<svg width="223pt" height="104pt"
 viewBox="0.00 0.00 223.00 104.00" xmlns="http://www.w3.org/2000/svg" xmlns:xlink="http://www.w3.org/1999/xlink">
<g id="graph0" class="graph" transform="scale(1 1) rotate(0) translate(4 100)">
<title>gfield::reduce</title>
<polygon fill="#ffffff" stroke="transparent" points="-4,4 -4,-100 219,-100 219,4 -4,4"/>
<!-- Node46 -->
<g id="node1" class="node">
<title>Node46</title>
<polygon fill="#bfbfbf" stroke="#000000" points="0,-38.5 0,-57.5 75,-57.5 75,-38.5 0,-38.5"/>
<text text-anchor="middle" x="37.5" y="-45.5" font-family="Helvetica,sans-Serif" font-size="10.00" fill="#000000">gfield::reduce</text>
</g>
<!-- Node47 -->
<g id="node2" class="node">
<title>Node47</title>
<g id="a_node2"><a xlink:href="classmpi__class.html#ab876ade2f1b994bb1c920d1de9375cf6" target="_top" xlink:title="mpi_class::getPosX">
<polygon fill="#ffffff" stroke="#000000" points="111,-76.5 111,-95.5 215,-95.5 215,-76.5 111,-76.5"/>
<text text-anchor="middle" x="163" y="-83.5" font-family="Helvetica,sans-Serif" font-size="10.00" fill="#000000">mpi_class::getPosX</text>
</a>
</g>
</g>
<!-- Node46&#45;&gt;Node47 -->
<g id="edge1" class="edge">
<title>Node46&#45;&gt;Node47</title>
<path fill="none" stroke="#191970" d="M69.1689,-57.589C85.0725,-62.4044 104.5396,-68.2988 121.6114,-73.468"/>
<polygon fill="#191970" stroke="#191970" points="120.756,-76.8658 131.3412,-76.4141 122.7846,-70.1662 120.756,-76.8658"/>
</g>
<!-- Node48 -->
<g id="node3" class="node">
<title>Node48</title>
<g id="a_node3"><a xlink:href="classmpi__class.html#aa894e45879f0e9a081efd4d4118b2491" target="_top" xlink:title="mpi_class::getPosY">
<polygon fill="#ffffff" stroke="#000000" points="111,-38.5 111,-57.5 215,-57.5 215,-38.5 111,-38.5"/>
<text text-anchor="middle" x="163" y="-45.5" font-family="Helvetica,sans-Serif" font-size="10.00" fill="#000000">mpi_class::getPosY</text>
</a>
</g>
</g>
<!-- Node46&#45;&gt;Node48 -->
<g id="edge2" class="edge">
<title>Node46&#45;&gt;Node48</title>
<path fill="none" stroke="#191970" d="M75.1541,-48C83.2497,-48 92.0124,-48 100.7618,-48"/>
<polygon fill="#191970" stroke="#191970" points="100.9861,-51.5001 110.9861,-48 100.986,-44.5001 100.9861,-51.5001"/>
</g>
<!-- Node49 -->
<g id="node4" class="node">
<title>Node49</title>
<g id="a_node4"><a xlink:href="classlfield.html#ad980584011ceafb6abbaf0a450bda309" target="_top" xlink:title="lfield::setToZero">
<polygon fill="#ffffff" stroke="#000000" points="119.5,-.5 119.5,-19.5 206.5,-19.5 206.5,-.5 119.5,-.5"/>
<text text-anchor="middle" x="163" y="-7.5" font-family="Helvetica,sans-Serif" font-size="10.00" fill="#000000">lfield::setToZero</text>
</a>
</g>
</g>
<!-- Node46&#45;&gt;Node49 -->
<g id="edge3" class="edge">
<title>Node46&#45;&gt;Node49</title>
<path fill="none" stroke="#191970" d="M69.1689,-38.411C85.0725,-33.5956 104.5396,-27.7012 121.6114,-22.532"/>
<polygon fill="#191970" stroke="#191970" points="122.7846,-25.8338 131.3412,-19.5859 120.756,-19.1342 122.7846,-25.8338"/>
</g>
</g>
</svg>
