<?xml version="1.0" encoding="UTF-8" standalone="no"?>
<!DOCTYPE svg PUBLIC "-//W3C//DTD SVG 1.1//EN"
 "http://www.w3.org/Graphics/SVG/1.1/DTD/svg11.dtd">
<!-- Generated by graphviz version 2.40.1 (20161225.0304)
 -->
<!-- Title: lfield::setToZero Pages: 1 -->
<svg width="189pt" height="104pt"
 viewBox="0.00 0.00 189.00 104.00" xmlns="http://www.w3.org/2000/svg" xmlns:xlink="http://www.w3.org/1999/xlink">
<g id="graph0" class="graph" transform="scale(1 1) rotate(0) translate(4 100)">
<title>lfield::setToZero</title>
<polygon fill="#ffffff" stroke="transparent" points="-4,4 -4,-100 185,-100 185,4 -4,4"/>
<!-- Node187 -->
<g id="node1" class="node">
<title>Node187</title>
<polygon fill="#bfbfbf" stroke="#000000" points="0,-38.5 0,-57.5 87,-57.5 87,-38.5 0,-38.5"/>
<text text-anchor="middle" x="43.5" y="-45.5" font-family="Helvetica,sans-Serif" font-size="10.00" fill="#000000">lfield::setToZero</text>
</g>
<!-- Node188 -->
<g id="node2" class="node">
<title>Node188</title>
<g id="a_node2"><a xlink:href="main__optimized_8cpp.html#a0ddf1224851353fc92bfbff6f499fa97" target="_top" xlink:title="main">
<polygon fill="#ffffff" stroke="#000000" points="133,-76.5 133,-95.5 171,-95.5 171,-76.5 133,-76.5"/>
<text text-anchor="middle" x="152" y="-83.5" font-family="Helvetica,sans-Serif" font-size="10.00" fill="#000000">main</text>
</a>
</g>
</g>
<!-- Node187&#45;&gt;Node188 -->
<g id="edge1" class="edge">
<title>Node187&#45;&gt;Node188</title>
<path fill="none" stroke="#191970" d="M80.3343,-60.9005C97.96,-67.0735 118.3295,-74.2076 132.8366,-79.2884"/>
<polygon fill="#191970" stroke="#191970" points="81.474,-57.5912 70.8791,-57.589 79.1601,-64.1978 81.474,-57.5912"/>
</g>
<!-- Node189 -->
<g id="node3" class="node">
<title>Node189</title>
<g id="a_node3"><a xlink:href="field_8h.html#a3bdeaa38edf27a3f664c8312f15f8a88" target="_top" xlink:title="operator*">
<polygon fill="#ffffff" stroke="#000000" points="124,-38.5 124,-57.5 180,-57.5 180,-38.5 124,-38.5"/>
<text text-anchor="middle" x="152" y="-45.5" font-family="Helvetica,sans-Serif" font-size="10.00" fill="#000000">operator*</text>
</a>
</g>
</g>
<!-- Node187&#45;&gt;Node189 -->
<g id="edge2" class="edge">
<title>Node187&#45;&gt;Node189</title>
<path fill="none" stroke="#191970" d="M97.2809,-48C106.4375,-48 115.6119,-48 123.7607,-48"/>
<polygon fill="#191970" stroke="#191970" points="97.006,-44.5001 87.0059,-48 97.0059,-51.5001 97.006,-44.5001"/>
</g>
<!-- Node190 -->
<g id="node4" class="node">
<title>Node190</title>
<g id="a_node4"><a xlink:href="field_8h.html#a3b4f42aa9c3b63b4579c4ce8922a9fb4" target="_top" xlink:title="operator+">
<polygon fill="#ffffff" stroke="#000000" points="123,-.5 123,-19.5 181,-19.5 181,-.5 123,-.5"/>
<text text-anchor="middle" x="152" y="-7.5" font-family="Helvetica,sans-Serif" font-size="10.00" fill="#000000">operator+</text>
</a>
</g>
</g>
<!-- Node187&#45;&gt;Node190 -->
<g id="edge3" class="edge">
<title>Node187&#45;&gt;Node190</title>
<path fill="none" stroke="#191970" d="M80.5379,-35.0282C94.9931,-29.9656 111.2671,-24.2659 124.6296,-19.5859"/>
<polygon fill="#191970" stroke="#191970" points="79.1601,-31.8022 70.8791,-38.411 81.474,-38.4088 79.1601,-31.8022"/>
</g>
</g>
</svg>
