<?xml version="1.0" encoding="UTF-8" standalone="no"?>
<!DOCTYPE svg PUBLIC "-//W3C//DTD SVG 1.1//EN"
 "http://www.w3.org/Graphics/SVG/1.1/DTD/svg11.dtd">
<!-- Generated by graphviz version 2.40.1 (20161225.0304)
 -->
<!-- Title: gmatrix&lt; T &gt; Pages: 1 -->
<svg width="90pt" height="248pt"
 viewBox="0.00 0.00 90.00 248.00" xmlns="http://www.w3.org/2000/svg" xmlns:xlink="http://www.w3.org/1999/xlink">
<g id="graph0" class="graph" transform="scale(1 1) rotate(0) translate(4 244)">
<title>gmatrix&lt; T &gt;</title>
<polygon fill="#ffffff" stroke="transparent" points="-4,4 -4,-244 86,-244 86,4 -4,4"/>
<!-- Node0 -->
<g id="node1" class="node">
<title>Node0</title>
<polygon fill="#bfbfbf" stroke="#000000" points="0,-.5 0,-112.5 82,-112.5 82,-.5 0,-.5"/>
<text text-anchor="middle" x="41" y="-100.5" font-family="Helvetica,sans-Serif" font-size="10.00" fill="#000000">gmatrix&lt; T &gt;</text>
<polyline fill="none" stroke="#000000" points="0,-93.5 82,-93.5 "/>
<text text-anchor="start" x="8" y="-81.5" font-family="Helvetica,sans-Serif" font-size="10.00" fill="#000000">+ Nxg</text>
<text text-anchor="start" x="8" y="-70.5" font-family="Helvetica,sans-Serif" font-size="10.00" fill="#000000">+ Nyg</text>
<text text-anchor="start" x="8" y="-59.5" font-family="Helvetica,sans-Serif" font-size="10.00" fill="#000000">+ Nyg</text>
<polyline fill="none" stroke="#000000" points="0,-52.5 82,-52.5 "/>
<text text-anchor="start" x="8" y="-40.5" font-family="Helvetica,sans-Serif" font-size="10.00" fill="#000000">+ gmatrix()</text>
<text text-anchor="start" x="8" y="-29.5" font-family="Helvetica,sans-Serif" font-size="10.00" fill="#000000">+ operator=()</text>
<text text-anchor="start" x="8" y="-18.5" font-family="Helvetica,sans-Serif" font-size="10.00" fill="#000000">+ decompose()</text>
<text text-anchor="start" x="8" y="-7.5" font-family="Helvetica,sans-Serif" font-size="10.00" fill="#000000">+ print()</text>
</g>
<!-- Node1 -->
<g id="node2" class="node">
<title>Node1</title>
<g id="a_node2"><a xlink:href="classmatrix.html" target="_top" xlink:title="{matrix\&lt; T \&gt;\n|+ u\l+ Nxl\l+ Nyl\l|+ matrix()\l+ ~matrix()\l}">
<polygon fill="#ffffff" stroke="#000000" points="7,-149.5 7,-239.5 75,-239.5 75,-149.5 7,-149.5"/>
<text text-anchor="middle" x="41" y="-227.5" font-family="Helvetica,sans-Serif" font-size="10.00" fill="#000000">matrix&lt; T &gt;</text>
<polyline fill="none" stroke="#000000" points="7,-220.5 75,-220.5 "/>
<text text-anchor="start" x="15" y="-208.5" font-family="Helvetica,sans-Serif" font-size="10.00" fill="#000000">+ u</text>
<text text-anchor="start" x="15" y="-197.5" font-family="Helvetica,sans-Serif" font-size="10.00" fill="#000000">+ Nxl</text>
<text text-anchor="start" x="15" y="-186.5" font-family="Helvetica,sans-Serif" font-size="10.00" fill="#000000">+ Nyl</text>
<polyline fill="none" stroke="#000000" points="7,-179.5 75,-179.5 "/>
<text text-anchor="start" x="15" y="-167.5" font-family="Helvetica,sans-Serif" font-size="10.00" fill="#000000">+ matrix()</text>
<text text-anchor="start" x="15" y="-156.5" font-family="Helvetica,sans-Serif" font-size="10.00" fill="#000000">+ ~matrix()</text>
</a>
</g>
</g>
<!-- Node1&#45;&gt;Node0 -->
<g id="edge1" class="edge">
<title>Node1&#45;&gt;Node0</title>
<path fill="none" stroke="#191970" d="M41,-139.2882C41,-130.5993 41,-121.6063 41,-112.8911"/>
<polygon fill="none" stroke="#191970" points="37.5001,-139.3136 41,-149.3136 44.5001,-139.3137 37.5001,-139.3136"/>
</g>
</g>
</svg>
