<?xml version="1.0" encoding="UTF-8" standalone="no"?>
<!DOCTYPE svg PUBLIC "-//W3C//DTD SVG 1.1//EN"
 "http://www.w3.org/Graphics/SVG/1.1/DTD/svg11.dtd">
<!-- Generated by graphviz version 2.40.1 (20161225.0304)
 -->
<!-- Title: lfield::setKernelPbarYWithCouplingConstant Pages: 1 -->
<svg width="279pt" height="142pt"
 viewBox="0.00 0.00 279.00 142.00" xmlns="http://www.w3.org/2000/svg" xmlns:xlink="http://www.w3.org/1999/xlink">
<g id="graph0" class="graph" transform="scale(1 1) rotate(0) translate(4 138)">
<title>lfield::setKernelPbarYWithCouplingConstant</title>
<polygon fill="#ffffff" stroke="transparent" points="-4,4 -4,-138 275,-138 275,4 -4,4"/>
<!-- Node128 -->
<g id="node1" class="node">
<title>Node128</title>
<polygon fill="#bfbfbf" stroke="#000000" points="0,-52 0,-82 131,-82 131,-52 0,-52"/>
<text text-anchor="start" x="8" y="-70" font-family="Helvetica,sans-Serif" font-size="10.00" fill="#000000">lfield::setKernelPbarYWith</text>
<text text-anchor="middle" x="65.5" y="-59" font-family="Helvetica,sans-Serif" font-size="10.00" fill="#000000">CouplingConstant</text>
</g>
<!-- Node129 -->
<g id="node2" class="node">
<title>Node129</title>
<g id="a_node2"><a xlink:href="classmpi__class.html#ab876ade2f1b994bb1c920d1de9375cf6" target="_top" xlink:title="mpi_class::getPosX">
<polygon fill="#ffffff" stroke="#000000" points="167,-114.5 167,-133.5 271,-133.5 271,-114.5 167,-114.5"/>
<text text-anchor="middle" x="219" y="-121.5" font-family="Helvetica,sans-Serif" font-size="10.00" fill="#000000">mpi_class::getPosX</text>
</a>
</g>
</g>
<!-- Node128&#45;&gt;Node129 -->
<g id="edge1" class="edge">
<title>Node128&#45;&gt;Node129</title>
<path fill="none" stroke="#191970" d="M105.4851,-82.053C124.1618,-89.0628 146.7054,-97.4935 167,-105 172.2398,-106.9381 177.7809,-108.9756 183.2163,-110.9674"/>
<polygon fill="#191970" stroke="#191970" points="182.2043,-114.324 192.7981,-114.4721 184.6089,-107.7499 182.2043,-114.324"/>
</g>
<!-- Node130 -->
<g id="node3" class="node">
<title>Node130</title>
<g id="a_node3"><a xlink:href="classmpi__class.html#aa894e45879f0e9a081efd4d4118b2491" target="_top" xlink:title="mpi_class::getPosY">
<polygon fill="#ffffff" stroke="#000000" points="167,-76.5 167,-95.5 271,-95.5 271,-76.5 167,-76.5"/>
<text text-anchor="middle" x="219" y="-83.5" font-family="Helvetica,sans-Serif" font-size="10.00" fill="#000000">mpi_class::getPosY</text>
</a>
</g>
</g>
<!-- Node128&#45;&gt;Node130 -->
<g id="edge2" class="edge">
<title>Node128&#45;&gt;Node130</title>
<path fill="none" stroke="#191970" d="M131.0431,-75.1128C139.5011,-76.1597 148.1446,-77.2296 156.5509,-78.2701"/>
<polygon fill="#191970" stroke="#191970" points="156.3044,-81.7663 166.6586,-79.5213 157.1643,-74.8193 156.3044,-81.7663"/>
</g>
<!-- Node131 -->
<g id="node4" class="node">
<title>Node131</title>
<g id="a_node4"><a xlink:href="classmomenta.html#adf9462fd94288b5cd635a555d689434b" target="_top" xlink:title="momenta::pbarY">
<polygon fill="#ffffff" stroke="#000000" points="174.5,-38.5 174.5,-57.5 263.5,-57.5 263.5,-38.5 174.5,-38.5"/>
<text text-anchor="middle" x="219" y="-45.5" font-family="Helvetica,sans-Serif" font-size="10.00" fill="#000000">momenta::pbarY</text>
</a>
</g>
</g>
<!-- Node128&#45;&gt;Node131 -->
<g id="edge3" class="edge">
<title>Node128&#45;&gt;Node131</title>
<path fill="none" stroke="#191970" d="M131.0431,-58.8872C142.0348,-57.5266 153.3399,-56.1273 164.0303,-54.8041"/>
<polygon fill="#191970" stroke="#191970" points="164.567,-58.2644 174.0613,-53.5624 163.707,-51.3175 164.567,-58.2644"/>
</g>
<!-- Node132 -->
<g id="node5" class="node">
<title>Node132</title>
<g id="a_node5"><a xlink:href="classmomenta.html#a5b2ec8b44c4874d8e18036c8927461db" target="_top" xlink:title="momenta::phat2">
<polygon fill="#ffffff" stroke="#000000" points="175.5,-.5 175.5,-19.5 262.5,-19.5 262.5,-.5 175.5,-.5"/>
<text text-anchor="middle" x="219" y="-7.5" font-family="Helvetica,sans-Serif" font-size="10.00" fill="#000000">momenta::phat2</text>
</a>
</g>
</g>
<!-- Node128&#45;&gt;Node132 -->
<g id="edge4" class="edge">
<title>Node128&#45;&gt;Node132</title>
<path fill="none" stroke="#191970" d="M105.4851,-51.947C124.1618,-44.9372 146.7054,-36.5065 167,-29 172.2398,-27.0619 177.7809,-25.0244 183.2163,-23.0326"/>
<polygon fill="#191970" stroke="#191970" points="184.6089,-26.2501 192.7981,-19.5279 182.2043,-19.676 184.6089,-26.2501"/>
</g>
</g>
</svg>
