<?xml version="1.0" encoding="UTF-8" standalone="no"?>
<!DOCTYPE svg PUBLIC "-//W3C//DTD SVG 1.1//EN"
 "http://www.w3.org/Graphics/SVG/1.1/DTD/svg11.dtd">
<!-- Generated by graphviz version 2.40.1 (20161225.0304)
 -->
<!-- Title: positions::xbar2 Pages: 1 -->
<svg width="338pt" height="242pt"
 viewBox="0.00 0.00 338.00 242.00" xmlns="http://www.w3.org/2000/svg" xmlns:xlink="http://www.w3.org/1999/xlink">
<g id="graph0" class="graph" transform="scale(1 1) rotate(0) translate(4 238)">
<title>positions::xbar2</title>
<polygon fill="#ffffff" stroke="transparent" points="-4,4 -4,-238 334,-238 334,4 -4,4"/>
<!-- Node15 -->
<g id="node1" class="node">
<title>Node15</title>
<polygon fill="#bfbfbf" stroke="#000000" points="0,-110.5 0,-129.5 86,-129.5 86,-110.5 0,-110.5"/>
<text text-anchor="middle" x="43" y="-117.5" font-family="Helvetica,sans-Serif" font-size="10.00" fill="#000000">positions::xbar2</text>
</g>
<!-- Node16 -->
<g id="node2" class="node">
<title>Node16</title>
<g id="a_node2"><a xlink:href="field_8h.html#ae43c2aa5da993ce8ed28c1953c02805a" target="_top" xlink:title="prepare_A_and_B_local">
<polygon fill="#ffffff" stroke="#000000" points="129.5,-214.5 129.5,-233.5 248.5,-233.5 248.5,-214.5 129.5,-214.5"/>
<text text-anchor="middle" x="189" y="-221.5" font-family="Helvetica,sans-Serif" font-size="10.00" fill="#000000">prepare_A_and_B_local</text>
</a>
</g>
</g>
<!-- Node15&#45;&gt;Node16 -->
<g id="edge1" class="edge">
<title>Node15&#45;&gt;Node16</title>
<path fill="none" stroke="#191970" d="M55.1305,-138.0482C69.0577,-157.3956 93.6655,-187.6612 122,-205 128.2909,-208.8496 135.3879,-211.9434 142.5497,-214.423"/>
<polygon fill="#191970" stroke="#191970" points="57.943,-135.9626 49.3448,-129.7722 52.206,-139.9734 57.943,-135.9626"/>
</g>
<!-- Node18 -->
<g id="node4" class="node">
<title>Node18</title>
<g id="a_node4"><a xlink:href="classgfield.html#ad90d3015d279c25b8d55f51a706fd0b8" target="_top" xlink:title="gfield::setKernelXbarX">
<polygon fill="#ffffff" stroke="#000000" points="132,-176.5 132,-195.5 246,-195.5 246,-176.5 132,-176.5"/>
<text text-anchor="middle" x="189" y="-183.5" font-family="Helvetica,sans-Serif" font-size="10.00" fill="#000000">gfield::setKernelXbarX</text>
</a>
</g>
</g>
<!-- Node15&#45;&gt;Node18 -->
<g id="edge3" class="edge">
<title>Node15&#45;&gt;Node18</title>
<path fill="none" stroke="#191970" d="M65.0105,-135.2167C80.417,-145.3277 101.7816,-158.2963 122,-167 130.44,-170.6333 139.7738,-173.7839 148.7269,-176.4182"/>
<polygon fill="#191970" stroke="#191970" points="66.94,-132.2965 56.6816,-129.6475 63.049,-138.1155 66.94,-132.2965"/>
</g>
<!-- Node20 -->
<g id="node6" class="node">
<title>Node20</title>
<g id="a_node6"><a xlink:href="classgfield.html#aea2227cd08dda6575702afa3dd70033f" target="_top" xlink:title="gfield::setKernelXbarXWith\lCouplingConstant">
<polygon fill="#ffffff" stroke="#000000" points="122,-127 122,-157 256,-157 256,-127 122,-127"/>
<text text-anchor="start" x="130" y="-145" font-family="Helvetica,sans-Serif" font-size="10.00" fill="#000000">gfield::setKernelXbarXWith</text>
<text text-anchor="middle" x="189" y="-134" font-family="Helvetica,sans-Serif" font-size="10.00" fill="#000000">CouplingConstant</text>
</a>
</g>
</g>
<!-- Node15&#45;&gt;Node20 -->
<g id="edge5" class="edge">
<title>Node15&#45;&gt;Node20</title>
<path fill="none" stroke="#191970" d="M96.0456,-127.9932C104.4514,-129.2598 113.2396,-130.5841 121.9157,-131.8914"/>
<polygon fill="#191970" stroke="#191970" points="96.4251,-124.5109 86.0152,-126.4817 95.382,-131.4328 96.4251,-124.5109"/>
</g>
<!-- Node21 -->
<g id="node7" class="node">
<title>Node21</title>
<g id="a_node7"><a xlink:href="classgfield.html#aab4026191433a667c8f1a698d1e887ed" target="_top" xlink:title="gfield::setKernelXbarY">
<polygon fill="#ffffff" stroke="#000000" points="132,-88.5 132,-107.5 246,-107.5 246,-88.5 132,-88.5"/>
<text text-anchor="middle" x="189" y="-95.5" font-family="Helvetica,sans-Serif" font-size="10.00" fill="#000000">gfield::setKernelXbarY</text>
</a>
</g>
</g>
<!-- Node15&#45;&gt;Node21 -->
<g id="edge7" class="edge">
<title>Node15&#45;&gt;Node21</title>
<path fill="none" stroke="#191970" d="M96.0476,-112.0065C107.7176,-110.248 120.1245,-108.3785 131.9449,-106.5973"/>
<polygon fill="#191970" stroke="#191970" points="95.382,-108.5672 86.0152,-113.5183 96.4251,-115.4891 95.382,-108.5672"/>
</g>
<!-- Node22 -->
<g id="node8" class="node">
<title>Node22</title>
<g id="a_node8"><a xlink:href="classgfield.html#aa5886f04e2cae1df02e4b83aa642dedc" target="_top" xlink:title="gfield::setKernelXbarYWith\lCouplingConstant">
<polygon fill="#ffffff" stroke="#000000" points="122,-39 122,-69 256,-69 256,-39 122,-39"/>
<text text-anchor="start" x="130" y="-57" font-family="Helvetica,sans-Serif" font-size="10.00" fill="#000000">gfield::setKernelXbarYWith</text>
<text text-anchor="middle" x="189" y="-46" font-family="Helvetica,sans-Serif" font-size="10.00" fill="#000000">CouplingConstant</text>
</a>
</g>
</g>
<!-- Node15&#45;&gt;Node22 -->
<g id="edge9" class="edge">
<title>Node15&#45;&gt;Node22</title>
<path fill="none" stroke="#191970" d="M68.8143,-105.5901C84.0624,-97.3352 103.8726,-87.0502 122,-79 129.7158,-75.5735 138.0599,-72.2034 146.154,-69.1015"/>
<polygon fill="#191970" stroke="#191970" points="67.0598,-102.5604 59.9656,-110.4295 70.4186,-108.7019 67.0598,-102.5604"/>
</g>
<!-- Node23 -->
<g id="node9" class="node">
<title>Node23</title>
<g id="a_node9"><a xlink:href="classpositions.html#a3ce5c1c38ad0d157a9f0321eafa2937b" target="_top" xlink:title="positions::~positions">
<polygon fill="#ffffff" stroke="#000000" points="135.5,-.5 135.5,-19.5 242.5,-19.5 242.5,-.5 135.5,-.5"/>
<text text-anchor="middle" x="189" y="-7.5" font-family="Helvetica,sans-Serif" font-size="10.00" fill="#000000">positions::~positions</text>
</a>
</g>
</g>
<!-- Node15&#45;&gt;Node23 -->
<g id="edge11" class="edge">
<title>Node15&#45;&gt;Node23</title>
<path fill="none" stroke="#191970" d="M54.0146,-101.9029C67.5139,-81.2437 92.2937,-47.8777 122,-29 128.1227,-25.1092 135.0558,-21.9985 142.0831,-19.5159"/>
<polygon fill="#191970" stroke="#191970" points="51.0246,-100.0827 48.6289,-110.4032 56.9376,-103.8292 51.0246,-100.0827"/>
</g>
<!-- Node17 -->
<g id="node3" class="node">
<title>Node17</title>
<g id="a_node3"><a xlink:href="main__optimized_8cpp.html#a0ddf1224851353fc92bfbff6f499fa97" target="_top" xlink:title="main">
<polygon fill="#ffffff" stroke="#000000" points="292,-214.5 292,-233.5 330,-233.5 330,-214.5 292,-214.5"/>
<text text-anchor="middle" x="311" y="-221.5" font-family="Helvetica,sans-Serif" font-size="10.00" fill="#000000">main</text>
</a>
</g>
</g>
<!-- Node16&#45;&gt;Node17 -->
<g id="edge2" class="edge">
<title>Node16&#45;&gt;Node17</title>
<path fill="none" stroke="#191970" d="M258.8653,-224C271.0385,-224 282.7304,-224 291.9459,-224"/>
<polygon fill="#191970" stroke="#191970" points="258.5705,-220.5001 248.5704,-224 258.5704,-227.5001 258.5705,-220.5001"/>
</g>
<!-- Node19 -->
<g id="node5" class="node">
<title>Node19</title>
<g id="a_node5"><a xlink:href="main__explicit_8cpp.html#a0ddf1224851353fc92bfbff6f499fa97" target="_top" xlink:title="main">
<polygon fill="#ffffff" stroke="#000000" points="292,-110.5 292,-129.5 330,-129.5 330,-110.5 292,-110.5"/>
<text text-anchor="middle" x="311" y="-117.5" font-family="Helvetica,sans-Serif" font-size="10.00" fill="#000000">main</text>
</a>
</g>
</g>
<!-- Node18&#45;&gt;Node19 -->
<g id="edge4" class="edge">
<title>Node18&#45;&gt;Node19</title>
<path fill="none" stroke="#191970" d="M242.5754,-173.0938C247.22,-171.2949 251.7601,-169.2709 256,-167 274.3795,-157.1558 292.049,-140.3161 302.2012,-129.6925"/>
<polygon fill="#191970" stroke="#191970" points="241.2295,-169.857 232.9577,-176.4772 243.5525,-176.4603 241.2295,-169.857"/>
</g>
<!-- Node20&#45;&gt;Node19 -->
<g id="edge6" class="edge">
<title>Node20&#45;&gt;Node19</title>
<path fill="none" stroke="#191970" d="M266.1407,-128.0894C275.6522,-126.3742 284.5996,-124.7607 291.9637,-123.4328"/>
<polygon fill="#191970" stroke="#191970" points="265.2874,-124.6867 256.0672,-129.9059 266.5297,-131.5756 265.2874,-124.6867"/>
</g>
<!-- Node21&#45;&gt;Node19 -->
<g id="edge8" class="edge">
<title>Node21&#45;&gt;Node19</title>
<path fill="none" stroke="#191970" d="M251.8582,-109.3351C266.4111,-111.9594 280.8227,-114.5582 291.776,-116.5334"/>
<polygon fill="#191970" stroke="#191970" points="252.2638,-105.8519 241.8014,-107.5216 251.0215,-112.7407 252.2638,-105.8519"/>
</g>
<!-- Node22&#45;&gt;Node19 -->
<g id="edge10" class="edge">
<title>Node22&#45;&gt;Node19</title>
<path fill="none" stroke="#191970" d="M244.296,-73.1879C248.3175,-75.021 252.2592,-76.9619 256,-79 272.315,-87.8888 289.1697,-101.1692 299.8479,-110.1882"/>
<polygon fill="#191970" stroke="#191970" points="245.3936,-69.85 234.8246,-69.1113 242.6261,-76.2797 245.3936,-69.85"/>
</g>
</g>
</svg>
