<?xml version="1.0" encoding="UTF-8" standalone="no"?>
<!DOCTYPE svg PUBLIC "-//W3C//DTD SVG 1.1//EN"
 "http://www.w3.org/Graphics/SVG/1.1/DTD/svg11.dtd">
<!-- Generated by graphviz version 2.40.1 (20161225.0304)
 -->
<!-- Title: lfield::setToZero Pages: 1 -->
<svg width="206pt" height="142pt"
 viewBox="0.00 0.00 206.00 142.00" xmlns="http://www.w3.org/2000/svg" xmlns:xlink="http://www.w3.org/1999/xlink">
<g id="graph0" class="graph" transform="scale(1 1) rotate(0) translate(4 138)">
<title>lfield::setToZero</title>
<polygon fill="#ffffff" stroke="transparent" points="-4,4 -4,-138 202,-138 202,4 -4,4"/>
<!-- Node160 -->
<g id="node1" class="node">
<title>Node160</title>
<polygon fill="#bfbfbf" stroke="#000000" points="0,-57.5 0,-76.5 87,-76.5 87,-57.5 0,-57.5"/>
<text text-anchor="middle" x="43.5" y="-64.5" font-family="Helvetica,sans-Serif" font-size="10.00" fill="#000000">lfield::setToZero</text>
</g>
<!-- Node161 -->
<g id="node2" class="node">
<title>Node161</title>
<g id="a_node2"><a xlink:href="main__optimized_8cpp.html#a0ddf1224851353fc92bfbff6f499fa97" target="_top" xlink:title="main">
<polygon fill="#ffffff" stroke="#000000" points="141.5,-114.5 141.5,-133.5 179.5,-133.5 179.5,-114.5 141.5,-114.5"/>
<text text-anchor="middle" x="160.5" y="-121.5" font-family="Helvetica,sans-Serif" font-size="10.00" fill="#000000">main</text>
</a>
</g>
</g>
<!-- Node160&#45;&gt;Node161 -->
<g id="edge1" class="edge">
<title>Node160&#45;&gt;Node161</title>
<path fill="none" stroke="#191970" d="M72.0827,-80.9249C93.5719,-91.394 122.4304,-105.4533 141.2423,-114.618"/>
<polygon fill="#191970" stroke="#191970" points="73.606,-77.7738 63.0832,-76.5405 70.5402,-84.0667 73.606,-77.7738"/>
</g>
<!-- Node162 -->
<g id="node3" class="node">
<title>Node162</title>
<g id="a_node3"><a xlink:href="field_8h.html#a3bdeaa38edf27a3f664c8312f15f8a88" target="_top" xlink:title="operator*">
<polygon fill="#ffffff" stroke="#000000" points="132.5,-76.5 132.5,-95.5 188.5,-95.5 188.5,-76.5 132.5,-76.5"/>
<text text-anchor="middle" x="160.5" y="-83.5" font-family="Helvetica,sans-Serif" font-size="10.00" fill="#000000">operator*</text>
</a>
</g>
</g>
<!-- Node160&#45;&gt;Node162 -->
<g id="edge2" class="edge">
<title>Node160&#45;&gt;Node162</title>
<path fill="none" stroke="#191970" d="M97.1159,-75.7068C109.2125,-77.6713 121.5896,-79.6812 132.1589,-81.3976"/>
<polygon fill="#191970" stroke="#191970" points="97.4982,-72.2232 87.0665,-74.0749 96.3761,-79.1327 97.4982,-72.2232"/>
</g>
<!-- Node163 -->
<g id="node4" class="node">
<title>Node163</title>
<g id="a_node4"><a xlink:href="field_8h.html#a3b4f42aa9c3b63b4579c4ce8922a9fb4" target="_top" xlink:title="operator+">
<polygon fill="#ffffff" stroke="#000000" points="131.5,-38.5 131.5,-57.5 189.5,-57.5 189.5,-38.5 131.5,-38.5"/>
<text text-anchor="middle" x="160.5" y="-45.5" font-family="Helvetica,sans-Serif" font-size="10.00" fill="#000000">operator+</text>
</a>
</g>
</g>
<!-- Node160&#45;&gt;Node163 -->
<g id="edge3" class="edge">
<title>Node160&#45;&gt;Node163</title>
<path fill="none" stroke="#191970" d="M96.9407,-58.3216C108.8261,-56.3915 120.992,-54.4158 131.4565,-52.7165"/>
<polygon fill="#191970" stroke="#191970" points="96.3761,-54.8673 87.0665,-59.9251 97.4982,-61.7768 96.3761,-54.8673"/>
</g>
<!-- Node164 -->
<g id="node5" class="node">
<title>Node164</title>
<g id="a_node5"><a xlink:href="classgfield.html#a64cb5db1c89298f4726366667fd266a0" target="_top" xlink:title="gfield::reduce">
<polygon fill="#ffffff" stroke="#000000" points="123,-.5 123,-19.5 198,-19.5 198,-.5 123,-.5"/>
<text text-anchor="middle" x="160.5" y="-7.5" font-family="Helvetica,sans-Serif" font-size="10.00" fill="#000000">gfield::reduce</text>
</a>
</g>
</g>
<!-- Node160&#45;&gt;Node164 -->
<g id="edge4" class="edge">
<title>Node160&#45;&gt;Node164</title>
<path fill="none" stroke="#191970" d="M72.3132,-52.9628C93.6298,-42.5778 122.1017,-28.7069 140.8529,-19.5716"/>
<polygon fill="#191970" stroke="#191970" points="70.5402,-49.9333 63.0832,-57.4595 73.606,-56.2262 70.5402,-49.9333"/>
</g>
</g>
</svg>
