<?xml version="1.0" encoding="UTF-8" standalone="no"?>
<!DOCTYPE svg PUBLIC "-//W3C//DTD SVG 1.1//EN"
 "http://www.w3.org/Graphics/SVG/1.1/DTD/svg11.dtd">
<!-- Generated by graphviz version 2.40.1 (20161225.0304)
 -->
<!-- Title: lfield&lt; T, t &gt; Pages: 1 -->
<svg width="155pt" height="314pt"
 viewBox="0.00 0.00 155.00 314.00" xmlns="http://www.w3.org/2000/svg" xmlns:xlink="http://www.w3.org/1999/xlink">
<g id="graph0" class="graph" transform="scale(1 1) rotate(0) translate(4 310)">
<title>lfield&lt; T, t &gt;</title>
<polygon fill="#ffffff" stroke="transparent" points="-4,4 -4,-310 151,-310 151,4 -4,4"/>
<!-- Node0 -->
<g id="node1" class="node">
<title>Node0</title>
<polygon fill="#bfbfbf" stroke="#000000" points="0,-.5 0,-167.5 147,-167.5 147,-.5 0,-.5"/>
<text text-anchor="middle" x="73.5" y="-155.5" font-family="Helvetica,sans-Serif" font-size="10.00" fill="#000000">lfield&lt; T, t &gt;</text>
<polyline fill="none" stroke="#000000" points="0,-148.5 147,-148.5 "/>
<text text-anchor="start" x="8" y="-136.5" font-family="Helvetica,sans-Serif" font-size="10.00" fill="#000000">+ Nyl</text>
<text text-anchor="start" x="8" y="-125.5" font-family="Helvetica,sans-Serif" font-size="10.00" fill="#000000">&#45; Nxl</text>
<text text-anchor="start" x="8" y="-114.5" font-family="Helvetica,sans-Serif" font-size="10.00" fill="#000000">&#45; Nyl</text>
<text text-anchor="start" x="8" y="-103.5" font-family="Helvetica,sans-Serif" font-size="10.00" fill="#000000">&#45; Nxl_buf</text>
<text text-anchor="start" x="8" y="-92.5" font-family="Helvetica,sans-Serif" font-size="10.00" fill="#000000">&#45; Nyl_buf</text>
<polyline fill="none" stroke="#000000" points="0,-85.5 147,-85.5 "/>
<text text-anchor="start" x="8" y="-73.5" font-family="Helvetica,sans-Serif" font-size="10.00" fill="#000000">+ lfield()</text>
<text text-anchor="start" x="8" y="-62.5" font-family="Helvetica,sans-Serif" font-size="10.00" fill="#000000">+ lfield()</text>
<text text-anchor="start" x="8" y="-51.5" font-family="Helvetica,sans-Serif" font-size="10.00" fill="#000000">+ ~lfield()</text>
<text text-anchor="start" x="8" y="-40.5" font-family="Helvetica,sans-Serif" font-size="10.00" fill="#000000">+ mpi_exchange_boundaries()</text>
<text text-anchor="start" x="8" y="-29.5" font-family="Helvetica,sans-Serif" font-size="10.00" fill="#000000">+ getNxl()</text>
<text text-anchor="start" x="8" y="-18.5" font-family="Helvetica,sans-Serif" font-size="10.00" fill="#000000">+ getNyl()</text>
<text text-anchor="start" x="8" y="-7.5" font-family="Helvetica,sans-Serif" font-size="10.00" fill="#000000">and 32 more...</text>
</g>
<!-- Node1 -->
<g id="node2" class="node">
<title>Node1</title>
<g id="a_node2"><a xlink:href="classfield.html" target="_top" xlink:title="Definition of the main class of type field. ">
<polygon fill="#ffffff" stroke="#000000" points="39.5,-204.5 39.5,-305.5 107.5,-305.5 107.5,-204.5 39.5,-204.5"/>
<text text-anchor="middle" x="73.5" y="-293.5" font-family="Helvetica,sans-Serif" font-size="10.00" fill="#000000">field&lt; T, t &gt;</text>
<polyline fill="none" stroke="#000000" points="39.5,-286.5 107.5,-286.5 "/>
<text text-anchor="start" x="47.5" y="-274.5" font-family="Helvetica,sans-Serif" font-size="10.00" fill="#000000">+ u</text>
<text text-anchor="start" x="47.5" y="-263.5" font-family="Helvetica,sans-Serif" font-size="10.00" fill="#000000">&#45; Nxl</text>
<text text-anchor="start" x="47.5" y="-252.5" font-family="Helvetica,sans-Serif" font-size="10.00" fill="#000000">&#45; Nyl</text>
<polyline fill="none" stroke="#000000" points="39.5,-245.5 107.5,-245.5 "/>
<text text-anchor="start" x="47.5" y="-233.5" font-family="Helvetica,sans-Serif" font-size="10.00" fill="#000000">+ field()</text>
<text text-anchor="start" x="47.5" y="-222.5" font-family="Helvetica,sans-Serif" font-size="10.00" fill="#000000">+ field()</text>
<text text-anchor="start" x="47.5" y="-211.5" font-family="Helvetica,sans-Serif" font-size="10.00" fill="#000000">+ ~field()</text>
</a>
</g>
</g>
<!-- Node1&#45;&gt;Node0 -->
<g id="edge1" class="edge">
<title>Node1&#45;&gt;Node0</title>
<path fill="none" stroke="#191970" d="M73.5,-193.941C73.5,-185.4 73.5,-176.5037 73.5,-167.6342"/>
<polygon fill="none" stroke="#191970" points="70.0001,-194.1573 73.5,-204.1573 77.0001,-194.1574 70.0001,-194.1573"/>
</g>
</g>
</svg>
