<?xml version="1.0" encoding="UTF-8" standalone="no"?>
<!DOCTYPE svg PUBLIC "-//W3C//DTD SVG 1.1//EN"
 "http://www.w3.org/Graphics/SVG/1.1/DTD/svg11.dtd">
<!-- Generated by graphviz version 2.40.1 (20161225.0304)
 -->
<!-- Title: mpi_class::mpi_class Pages: 1 -->
<svg width="306pt" height="116pt"
 viewBox="0.00 0.00 306.00 116.00" xmlns="http://www.w3.org/2000/svg" xmlns:xlink="http://www.w3.org/1999/xlink">
<g id="graph0" class="graph" transform="scale(1 1) rotate(0) translate(4 112)">
<title>mpi_class::mpi_class</title>
<polygon fill="#ffffff" stroke="transparent" points="-4,4 -4,-112 302,-112 302,4 -4,4"/>
<!-- Node2 -->
<g id="node1" class="node">
<title>Node2</title>
<polygon fill="#bfbfbf" stroke="#000000" points="0,-44.5 0,-63.5 111,-63.5 111,-44.5 0,-44.5"/>
<text text-anchor="middle" x="55.5" y="-51.5" font-family="Helvetica,sans-Serif" font-size="10.00" fill="#000000">mpi_class::mpi_class</text>
</g>
<!-- Node3 -->
<g id="node2" class="node">
<title>Node3</title>
<g id="a_node2"><a xlink:href="classmpi__class.html#a995c216b811090aa6255523e0e2a8e8a" target="_top" xlink:title="mpi_class::mpi_exchange_grid">
<polygon fill="#ffffff" stroke="#000000" points="147,-88.5 147,-107.5 298,-107.5 298,-88.5 147,-88.5"/>
<text text-anchor="middle" x="222.5" y="-95.5" font-family="Helvetica,sans-Serif" font-size="10.00" fill="#000000">mpi_class::mpi_exchange_grid</text>
</a>
</g>
</g>
<!-- Node2&#45;&gt;Node3 -->
<g id="edge1" class="edge">
<title>Node2&#45;&gt;Node3</title>
<path fill="none" stroke="#191970" d="M89.7817,-63.5427C106.9412,-68.2743 128.0452,-74.026 147,-79 155.7389,-81.2932 165.0617,-83.6842 174.0675,-85.9656"/>
<polygon fill="#191970" stroke="#191970" points="173.5005,-89.4322 184.0528,-88.4838 175.2123,-82.6447 173.5005,-89.4322"/>
</g>
<!-- Node4 -->
<g id="node3" class="node">
<title>Node4</title>
<g id="a_node3"><a xlink:href="classmpi__class.html#a20929c3a4bb045fb41696ba09cee4680" target="_top" xlink:title="mpi_class::mpi_exchange\l_groups">
<polygon fill="#ffffff" stroke="#000000" points="157.5,-39 157.5,-69 287.5,-69 287.5,-39 157.5,-39"/>
<text text-anchor="start" x="165.5" y="-57" font-family="Helvetica,sans-Serif" font-size="10.00" fill="#000000">mpi_class::mpi_exchange</text>
<text text-anchor="middle" x="222.5" y="-46" font-family="Helvetica,sans-Serif" font-size="10.00" fill="#000000">_groups</text>
</a>
</g>
</g>
<!-- Node2&#45;&gt;Node4 -->
<g id="edge2" class="edge">
<title>Node2&#45;&gt;Node4</title>
<path fill="none" stroke="#191970" d="M111.1086,-54C122.6725,-54 135.0428,-54 147.1803,-54"/>
<polygon fill="#191970" stroke="#191970" points="147.2983,-57.5001 157.2982,-54 147.2982,-50.5001 147.2983,-57.5001"/>
</g>
<!-- Node5 -->
<g id="node4" class="node">
<title>Node5</title>
<g id="a_node4"><a xlink:href="classmpi__class.html#a0326e6a2416b3aacd64a3dcc84ddb79b" target="_top" xlink:title="mpi_class::mpi_init">
<polygon fill="#ffffff" stroke="#000000" points="172,-.5 172,-19.5 273,-19.5 273,-.5 172,-.5"/>
<text text-anchor="middle" x="222.5" y="-7.5" font-family="Helvetica,sans-Serif" font-size="10.00" fill="#000000">mpi_class::mpi_init</text>
</a>
</g>
</g>
<!-- Node2&#45;&gt;Node5 -->
<g id="edge3" class="edge">
<title>Node2&#45;&gt;Node5</title>
<path fill="none" stroke="#191970" d="M91.7365,-44.4527C116.5748,-37.9084 149.7327,-29.1722 176.4435,-22.1346"/>
<polygon fill="#191970" stroke="#191970" points="177.556,-25.4611 186.3342,-19.5287 175.7725,-18.6921 177.556,-25.4611"/>
</g>
</g>
</svg>
