<?xml version="1.0" encoding="UTF-8" standalone="no"?>
<!DOCTYPE svg PUBLIC "-//W3C//DTD SVG 1.1//EN"
 "http://www.w3.org/Graphics/SVG/1.1/DTD/svg11.dtd">
<!-- Generated by graphviz version 2.40.1 (20161225.0304)
 -->
<!-- Title: matrix&lt; T &gt; Pages: 1 -->
<svg width="182pt" height="248pt"
 viewBox="0.00 0.00 181.50 248.00" xmlns="http://www.w3.org/2000/svg" xmlns:xlink="http://www.w3.org/1999/xlink">
<g id="graph0" class="graph" transform="scale(1 1) rotate(0) translate(4 244)">
<title>matrix&lt; T &gt;</title>
<polygon fill="#ffffff" stroke="transparent" points="-4,4 -4,-244 177.5,-244 177.5,4 -4,4"/>
<!-- Node0 -->
<g id="node1" class="node">
<title>Node0</title>
<polygon fill="#bfbfbf" stroke="#000000" points="55,-149.5 55,-239.5 123,-239.5 123,-149.5 55,-149.5"/>
<text text-anchor="middle" x="89" y="-227.5" font-family="Helvetica,sans-Serif" font-size="10.00" fill="#000000">matrix&lt; T &gt;</text>
<polyline fill="none" stroke="#000000" points="55,-220.5 123,-220.5 "/>
<text text-anchor="start" x="63" y="-208.5" font-family="Helvetica,sans-Serif" font-size="10.00" fill="#000000">+ u</text>
<text text-anchor="start" x="63" y="-197.5" font-family="Helvetica,sans-Serif" font-size="10.00" fill="#000000">+ Nxl</text>
<text text-anchor="start" x="63" y="-186.5" font-family="Helvetica,sans-Serif" font-size="10.00" fill="#000000">+ Nyl</text>
<polyline fill="none" stroke="#000000" points="55,-179.5 123,-179.5 "/>
<text text-anchor="start" x="63" y="-167.5" font-family="Helvetica,sans-Serif" font-size="10.00" fill="#000000">+ matrix()</text>
<text text-anchor="start" x="63" y="-156.5" font-family="Helvetica,sans-Serif" font-size="10.00" fill="#000000">+ ~matrix()</text>
</g>
<!-- Node1 -->
<g id="node2" class="node">
<title>Node1</title>
<g id="a_node2"><a xlink:href="classgmatrix.html" target="_top" xlink:title="{gmatrix\&lt; T \&gt;\n|+ Nxg\l+ Nyg\l+ Nyg\l|+ gmatrix()\l+ operator=()\l+ decompose()\l+ print()\l}">
<polygon fill="#ffffff" stroke="#000000" points="0,-.5 0,-112.5 82,-112.5 82,-.5 0,-.5"/>
<text text-anchor="middle" x="41" y="-100.5" font-family="Helvetica,sans-Serif" font-size="10.00" fill="#000000">gmatrix&lt; T &gt;</text>
<polyline fill="none" stroke="#000000" points="0,-93.5 82,-93.5 "/>
<text text-anchor="start" x="8" y="-81.5" font-family="Helvetica,sans-Serif" font-size="10.00" fill="#000000">+ Nxg</text>
<text text-anchor="start" x="8" y="-70.5" font-family="Helvetica,sans-Serif" font-size="10.00" fill="#000000">+ Nyg</text>
<text text-anchor="start" x="8" y="-59.5" font-family="Helvetica,sans-Serif" font-size="10.00" fill="#000000">+ Nyg</text>
<polyline fill="none" stroke="#000000" points="0,-52.5 82,-52.5 "/>
<text text-anchor="start" x="8" y="-40.5" font-family="Helvetica,sans-Serif" font-size="10.00" fill="#000000">+ gmatrix()</text>
<text text-anchor="start" x="8" y="-29.5" font-family="Helvetica,sans-Serif" font-size="10.00" fill="#000000">+ operator=()</text>
<text text-anchor="start" x="8" y="-18.5" font-family="Helvetica,sans-Serif" font-size="10.00" fill="#000000">+ decompose()</text>
<text text-anchor="start" x="8" y="-7.5" font-family="Helvetica,sans-Serif" font-size="10.00" fill="#000000">+ print()</text>
</a>
</g>
</g>
<!-- Node0&#45;&gt;Node1 -->
<g id="edge1" class="edge">
<title>Node0&#45;&gt;Node1</title>
<path fill="none" stroke="#191970" d="M69.9928,-139.8544C66.9097,-130.9904 63.7116,-121.7958 60.6143,-112.8911"/>
<polygon fill="none" stroke="#191970" points="66.692,-141.0185 73.283,-149.3136 73.3035,-138.7188 66.692,-141.0185"/>
</g>
<!-- Node2 -->
<g id="node3" class="node">
<title>Node2</title>
<g id="a_node3"><a xlink:href="classlmatrix.html" target="_top" xlink:title="{lmatrix\&lt; T \&gt;\n|+ Nxl\l+ Nyl\l+ Nyl\l|+ lmatrix()\l+ operator=()\l}">
<polygon fill="#ffffff" stroke="#000000" points="100.5,-11.5 100.5,-101.5 173.5,-101.5 173.5,-11.5 100.5,-11.5"/>
<text text-anchor="middle" x="137" y="-89.5" font-family="Helvetica,sans-Serif" font-size="10.00" fill="#000000">lmatrix&lt; T &gt;</text>
<polyline fill="none" stroke="#000000" points="100.5,-82.5 173.5,-82.5 "/>
<text text-anchor="start" x="108.5" y="-70.5" font-family="Helvetica,sans-Serif" font-size="10.00" fill="#000000">+ Nxl</text>
<text text-anchor="start" x="108.5" y="-59.5" font-family="Helvetica,sans-Serif" font-size="10.00" fill="#000000">+ Nyl</text>
<text text-anchor="start" x="108.5" y="-48.5" font-family="Helvetica,sans-Serif" font-size="10.00" fill="#000000">+ Nyl</text>
<polyline fill="none" stroke="#000000" points="100.5,-41.5 173.5,-41.5 "/>
<text text-anchor="start" x="108.5" y="-29.5" font-family="Helvetica,sans-Serif" font-size="10.00" fill="#000000">+ lmatrix()</text>
<text text-anchor="start" x="108.5" y="-18.5" font-family="Helvetica,sans-Serif" font-size="10.00" fill="#000000">+ operator=()</text>
</a>
</g>
</g>
<!-- Node0&#45;&gt;Node2 -->
<g id="edge2" class="edge">
<title>Node0&#45;&gt;Node2</title>
<path fill="none" stroke="#191970" d="M108.0151,-139.8315C112.4008,-127.2228 117.0187,-113.9462 121.2477,-101.7879"/>
<polygon fill="none" stroke="#191970" points="104.6965,-138.7188 104.717,-149.3136 111.308,-141.0185 104.6965,-138.7188"/>
</g>
</g>
</svg>
