<?xml version="1.0" encoding="UTF-8" standalone="no"?>
<!DOCTYPE svg PUBLIC "-//W3C//DTD SVG 1.1//EN"
 "http://www.w3.org/Graphics/SVG/1.1/DTD/svg11.dtd">
<!-- Generated by graphviz version 2.40.1 (20161225.0304)
 -->
<!-- Title: su3_matrix&lt; T &gt; Pages: 1 -->
<svg width="105pt" height="237pt"
 viewBox="0.00 0.00 105.00 237.00" xmlns="http://www.w3.org/2000/svg" xmlns:xlink="http://www.w3.org/1999/xlink">
<g id="graph0" class="graph" transform="scale(1 1) rotate(0) translate(4 233)">
<title>su3_matrix&lt; T &gt;</title>
<polygon fill="#ffffff" stroke="transparent" points="-4,4 -4,-233 101,-233 101,4 -4,4"/>
<!-- Node1 -->
<g id="node1" class="node">
<title>Node1</title>
<polygon fill="#bfbfbf" stroke="#000000" points="4,-.5 4,-123.5 93,-123.5 93,-.5 4,-.5"/>
<text text-anchor="middle" x="48.5" y="-111.5" font-family="Helvetica,sans-Serif" font-size="10.00" fill="#000000">su3_matrix&lt; T &gt;</text>
<polyline fill="none" stroke="#000000" points="4,-104.5 93,-104.5 "/>
<text text-anchor="middle" x="48.5" y="-92.5" font-family="Helvetica,sans-Serif" font-size="10.00" fill="#000000"> </text>
<polyline fill="none" stroke="#000000" points="4,-85.5 93,-85.5 "/>
<text text-anchor="start" x="12" y="-73.5" font-family="Helvetica,sans-Serif" font-size="10.00" fill="#000000">+ su3_matrix()</text>
<text text-anchor="start" x="12" y="-62.5" font-family="Helvetica,sans-Serif" font-size="10.00" fill="#000000">+ exponentiate()</text>
<text text-anchor="start" x="12" y="-51.5" font-family="Helvetica,sans-Serif" font-size="10.00" fill="#000000">+ zheevh3()</text>
<text text-anchor="start" x="12" y="-40.5" font-family="Helvetica,sans-Serif" font-size="10.00" fill="#000000">+ print()</text>
<text text-anchor="start" x="12" y="-29.5" font-family="Helvetica,sans-Serif" font-size="10.00" fill="#000000">+ toVector()</text>
<text text-anchor="start" x="12" y="-18.5" font-family="Helvetica,sans-Serif" font-size="10.00" fill="#000000">+ operator*()</text>
<text text-anchor="start" x="12" y="-7.5" font-family="Helvetica,sans-Serif" font-size="10.00" fill="#000000">and 4 more...</text>
</g>
<!-- Node2 -->
<g id="node2" class="node">
<title>Node2</title>
<polygon fill="#ffffff" stroke="#bfbfbf" points="0,-171.5 0,-228.5 97,-228.5 97,-171.5 0,-171.5"/>
<text text-anchor="middle" x="48.5" y="-216.5" font-family="Helvetica,sans-Serif" font-size="10.00" fill="#000000">std::complex&lt; T &gt;</text>
<polyline fill="none" stroke="#bfbfbf" points="0,-209.5 97,-209.5 "/>
<text text-anchor="middle" x="48.5" y="-197.5" font-family="Helvetica,sans-Serif" font-size="10.00" fill="#000000"> </text>
<polyline fill="none" stroke="#bfbfbf" points="0,-190.5 97,-190.5 "/>
<text text-anchor="middle" x="48.5" y="-178.5" font-family="Helvetica,sans-Serif" font-size="10.00" fill="#000000"> </text>
</g>
<!-- Node2&#45;&gt;Node1 -->
<g id="edge1" class="edge">
<title>Node2&#45;&gt;Node1</title>
<path fill="none" stroke="#404040" d="M48.5,-171.4063C48.5,-160.8767 48.5,-148.4088 48.5,-135.7269"/>
<polygon fill="none" stroke="#404040" points="48.5001,-135.5587 44.5,-129.5587 48.5,-123.5587 52.5,-129.5586 48.5001,-135.5587"/>
<text text-anchor="middle" x="57.5" y="-145" font-family="Helvetica,sans-Serif" font-size="10.00" fill="#000000"> +m</text>
</g>
</g>
</svg>
