<?xml version="1.0" encoding="UTF-8" standalone="no"?>
<!DOCTYPE svg PUBLIC "-//W3C//DTD SVG 1.1//EN"
 "http://www.w3.org/Graphics/SVG/1.1/DTD/svg11.dtd">
<!-- Generated by graphviz version 2.40.1 (20161225.0304)
 -->
<!-- Title: lfield::mpi_exchange_boundaries Pages: 1 -->
<svg width="302pt" height="356pt"
 viewBox="0.00 0.00 302.00 355.50" xmlns="http://www.w3.org/2000/svg" xmlns:xlink="http://www.w3.org/1999/xlink">
<g id="graph0" class="graph" transform="scale(1 1) rotate(0) translate(4 351.5)">
<title>lfield::mpi_exchange_boundaries</title>
<polygon fill="#ffffff" stroke="transparent" points="-4,4 -4,-351.5 298,-351.5 298,4 -4,4"/>
<!-- Node50 -->
<g id="node1" class="node">
<title>Node50</title>
<polygon fill="#bfbfbf" stroke="#000000" points="0,-170.5 0,-200.5 106,-200.5 106,-170.5 0,-170.5"/>
<text text-anchor="start" x="8" y="-188.5" font-family="Helvetica,sans-Serif" font-size="10.00" fill="#000000">lfield::mpi_exchange</text>
<text text-anchor="middle" x="53" y="-177.5" font-family="Helvetica,sans-Serif" font-size="10.00" fill="#000000">_boundaries</text>
</g>
<!-- Node51 -->
<g id="node2" class="node">
<title>Node51</title>
<g id="a_node2"><a xlink:href="classlfield.html#a42db686d573305a3808dbf990a748b62" target="_top" xlink:title="lfield::buf_pos">
<polygon fill="#ffffff" stroke="#000000" points="179.5,-328 179.5,-347 256.5,-347 256.5,-328 179.5,-328"/>
<text text-anchor="middle" x="218" y="-335" font-family="Helvetica,sans-Serif" font-size="10.00" fill="#000000">lfield::buf_pos</text>
</a>
</g>
</g>
<!-- Node50&#45;&gt;Node51 -->
<g id="edge1" class="edge">
<title>Node50&#45;&gt;Node51</title>
<path fill="none" stroke="#191970" d="M58.7255,-200.5267C70.1222,-228.3421 98.3694,-287.8092 142,-318.5 150.091,-324.1914 159.7194,-328.1825 169.3584,-330.98"/>
<polygon fill="#191970" stroke="#191970" points="168.7921,-334.4463 179.3431,-333.4845 170.4952,-327.6566 168.7921,-334.4463"/>
</g>
<!-- Node52 -->
<g id="node3" class="node">
<title>Node52</title>
<g id="a_node3"><a xlink:href="classlfield.html#ac7718569639fa5fb786036f8ee59489f" target="_top" xlink:title="lfield::buf_pos_ex">
<polygon fill="#ffffff" stroke="#000000" points="171.5,-290 171.5,-309 264.5,-309 264.5,-290 171.5,-290"/>
<text text-anchor="middle" x="218" y="-297" font-family="Helvetica,sans-Serif" font-size="10.00" fill="#000000">lfield::buf_pos_ex</text>
</a>
</g>
</g>
<!-- Node50&#45;&gt;Node52 -->
<g id="edge2" class="edge">
<title>Node50&#45;&gt;Node52</title>
<path fill="none" stroke="#191970" d="M62.8467,-200.5489C77.5085,-221.7201 107.1262,-259.9971 142,-280.5 147.9868,-284.0197 154.609,-286.8913 161.3749,-289.2331"/>
<polygon fill="#191970" stroke="#191970" points="160.7462,-292.7016 171.3333,-292.2991 162.8059,-286.0115 160.7462,-292.7016"/>
</g>
<!-- Node53 -->
<g id="node4" class="node">
<title>Node53</title>
<g id="a_node4"><a xlink:href="classmpi__class.html#a563349e5d424fd15cb3c743bee847859" target="_top" xlink:title="mpi_class::getExchangeX">
<polygon fill="#ffffff" stroke="#000000" points="152.5,-252 152.5,-271 283.5,-271 283.5,-252 152.5,-252"/>
<text text-anchor="middle" x="218" y="-259" font-family="Helvetica,sans-Serif" font-size="10.00" fill="#000000">mpi_class::getExchangeX</text>
</a>
</g>
</g>
<!-- Node50&#45;&gt;Node53 -->
<g id="edge3" class="edge">
<title>Node50&#45;&gt;Node53</title>
<path fill="none" stroke="#191970" d="M72.4519,-200.6081C89.8173,-213.4286 116.3917,-231.4518 142,-242.5 147.7366,-244.975 153.8616,-247.1735 160.0509,-249.1151"/>
<polygon fill="#191970" stroke="#191970" points="159.2031,-252.5136 169.7833,-251.9575 161.1656,-245.7943 159.2031,-252.5136"/>
</g>
<!-- Node54 -->
<g id="node5" class="node">
<title>Node54</title>
<g id="a_node5"><a xlink:href="classmpi__class.html#a9e3f485947dab4c5af0a581fd54bceb9" target="_top" xlink:title="mpi_class::getExchangeY">
<polygon fill="#ffffff" stroke="#000000" points="152.5,-214 152.5,-233 283.5,-233 283.5,-214 152.5,-214"/>
<text text-anchor="middle" x="218" y="-221" font-family="Helvetica,sans-Serif" font-size="10.00" fill="#000000">mpi_class::getExchangeY</text>
</a>
</g>
</g>
<!-- Node50&#45;&gt;Node54 -->
<g id="edge4" class="edge">
<title>Node50&#45;&gt;Node54</title>
<path fill="none" stroke="#191970" d="M106.1153,-197.7326C125.5296,-202.2038 147.4412,-207.2501 166.6947,-211.6842"/>
<polygon fill="#191970" stroke="#191970" points="165.9629,-215.1073 176.4934,-213.9409 167.534,-208.2858 165.9629,-215.1073"/>
</g>
<!-- Node55 -->
<g id="node6" class="node">
<title>Node55</title>
<g id="a_node6"><a xlink:href="classmpi__class.html#a6ba81c7f035bcbbb4c5c1273d0850aba" target="_top" xlink:title="mpi_class::getRank">
<polygon fill="#ffffff" stroke="#000000" points="166,-176 166,-195 270,-195 270,-176 166,-176"/>
<text text-anchor="middle" x="218" y="-183" font-family="Helvetica,sans-Serif" font-size="10.00" fill="#000000">mpi_class::getRank</text>
</a>
</g>
</g>
<!-- Node50&#45;&gt;Node55 -->
<g id="edge5" class="edge">
<title>Node50&#45;&gt;Node55</title>
<path fill="none" stroke="#191970" d="M106.1153,-185.5C121.9526,-185.5 139.4518,-185.5 155.8142,-185.5"/>
<polygon fill="#191970" stroke="#191970" points="155.8302,-189.0001 165.8301,-185.5 155.8301,-182.0001 155.8302,-189.0001"/>
</g>
<!-- Node56 -->
<g id="node7" class="node">
<title>Node56</title>
<g id="a_node7"><a xlink:href="classmpi__class.html#ad1c95f40f6efcc32e789b6bbfd214d17" target="_top" xlink:title="mpi_class::getXNeighbourNext">
<polygon fill="#ffffff" stroke="#000000" points="142,-138 142,-157 294,-157 294,-138 142,-138"/>
<text text-anchor="middle" x="218" y="-145" font-family="Helvetica,sans-Serif" font-size="10.00" fill="#000000">mpi_class::getXNeighbourNext</text>
</a>
</g>
</g>
<!-- Node50&#45;&gt;Node56 -->
<g id="edge6" class="edge">
<title>Node50&#45;&gt;Node56</title>
<path fill="none" stroke="#191970" d="M106.1153,-173.2674C125.5296,-168.7962 147.4412,-163.7499 166.6947,-159.3158"/>
<polygon fill="#191970" stroke="#191970" points="167.534,-162.7142 176.4934,-157.0591 165.9629,-155.8927 167.534,-162.7142"/>
</g>
<!-- Node57 -->
<g id="node8" class="node">
<title>Node57</title>
<g id="a_node8"><a xlink:href="classmpi__class.html#a794f98bb5afdc2fe15341ca80a4012e6" target="_top" xlink:title="mpi_class::getXNeighbour\lPrevious">
<polygon fill="#ffffff" stroke="#000000" points="152.5,-88.5 152.5,-118.5 283.5,-118.5 283.5,-88.5 152.5,-88.5"/>
<text text-anchor="start" x="160.5" y="-106.5" font-family="Helvetica,sans-Serif" font-size="10.00" fill="#000000">mpi_class::getXNeighbour</text>
<text text-anchor="middle" x="218" y="-95.5" font-family="Helvetica,sans-Serif" font-size="10.00" fill="#000000">Previous</text>
</a>
</g>
</g>
<!-- Node50&#45;&gt;Node57 -->
<g id="edge7" class="edge">
<title>Node50&#45;&gt;Node57</title>
<path fill="none" stroke="#191970" d="M73.3549,-170.3526C90.859,-157.8541 117.1423,-140.3155 142,-128.5 146.6632,-126.2835 151.5745,-124.1835 156.5636,-122.2131"/>
<polygon fill="#191970" stroke="#191970" points="158.0805,-125.382 166.2091,-118.5867 155.617,-118.8298 158.0805,-125.382"/>
</g>
<!-- Node58 -->
<g id="node9" class="node">
<title>Node58</title>
<g id="a_node9"><a xlink:href="classmpi__class.html#a0ce0703c55de3e00bbb2d02278813aa3" target="_top" xlink:title="mpi_class::getYNeighbourNext">
<polygon fill="#ffffff" stroke="#000000" points="142,-50 142,-69 294,-69 294,-50 142,-50"/>
<text text-anchor="middle" x="218" y="-57" font-family="Helvetica,sans-Serif" font-size="10.00" fill="#000000">mpi_class::getYNeighbourNext</text>
</a>
</g>
</g>
<!-- Node50&#45;&gt;Node58 -->
<g id="edge8" class="edge">
<title>Node50&#45;&gt;Node58</title>
<path fill="none" stroke="#191970" d="M61.5227,-170.2998C75.3375,-147.0903 104.8566,-103.0383 142,-79.5 146.1056,-76.8982 150.5403,-74.6333 155.133,-72.6618"/>
<polygon fill="#191970" stroke="#191970" points="156.6243,-75.8393 164.7272,-69.0133 154.1362,-69.2964 156.6243,-75.8393"/>
</g>
<!-- Node59 -->
<g id="node10" class="node">
<title>Node59</title>
<g id="a_node10"><a xlink:href="classmpi__class.html#a95d2bc3939d1e18198533e6bbd7e63f4" target="_top" xlink:title="mpi_class::getYNeighbour\lPrevious">
<polygon fill="#ffffff" stroke="#000000" points="152.5,-.5 152.5,-30.5 283.5,-30.5 283.5,-.5 152.5,-.5"/>
<text text-anchor="start" x="160.5" y="-18.5" font-family="Helvetica,sans-Serif" font-size="10.00" fill="#000000">mpi_class::getYNeighbour</text>
<text text-anchor="middle" x="218" y="-7.5" font-family="Helvetica,sans-Serif" font-size="10.00" fill="#000000">Previous</text>
</a>
</g>
</g>
<!-- Node50&#45;&gt;Node59 -->
<g id="edge9" class="edge">
<title>Node50&#45;&gt;Node59</title>
<path fill="none" stroke="#191970" d="M58.2229,-170.3587C69.117,-140.9859 97.0512,-76.0412 142,-40.5 144.2983,-38.6828 146.7338,-36.9952 149.2683,-35.4284"/>
<polygon fill="#191970" stroke="#191970" points="151.1067,-38.4126 158.2117,-30.5532 147.7563,-32.2665 151.1067,-38.4126"/>
</g>
</g>
</svg>
