<?xml version="1.0" encoding="UTF-8" standalone="no"?>
<!DOCTYPE svg PUBLIC "-//W3C//DTD SVG 1.1//EN"
 "http://www.w3.org/Graphics/SVG/1.1/DTD/svg11.dtd">
<!-- Generated by graphviz version 2.40.1 (20161225.0304)
 -->
<!-- Title: fftw2D Pages: 1 -->
<svg width="88pt" height="281pt"
 viewBox="0.00 0.00 88.00 281.00" xmlns="http://www.w3.org/2000/svg" xmlns:xlink="http://www.w3.org/1999/xlink">
<g id="graph0" class="graph" transform="scale(1 1) rotate(0) translate(4 277)">
<title>fftw2D</title>
<polygon fill="#ffffff" stroke="transparent" points="-4,4 -4,-277 84,-277 84,4 -4,4"/>
<!-- Node2 -->
<g id="node1" class="node">
<title>Node2</title>
<polygon fill="#bfbfbf" stroke="#000000" points=".5,-.5 .5,-101.5 79.5,-101.5 79.5,-.5 .5,-.5"/>
<text text-anchor="middle" x="40" y="-89.5" font-family="Helvetica,sans-Serif" font-size="10.00" fill="#000000">fftw2D</text>
<polyline fill="none" stroke="#000000" points=".5,-82.5 79.5,-82.5 "/>
<text text-anchor="middle" x="40" y="-70.5" font-family="Helvetica,sans-Serif" font-size="10.00" fill="#000000"> </text>
<polyline fill="none" stroke="#000000" points=".5,-63.5 79.5,-63.5 "/>
<text text-anchor="start" x="8.5" y="-51.5" font-family="Helvetica,sans-Serif" font-size="10.00" fill="#000000">+ fftw2D()</text>
<text text-anchor="start" x="8.5" y="-40.5" font-family="Helvetica,sans-Serif" font-size="10.00" fill="#000000">+ ~fftw2D()</text>
<text text-anchor="start" x="8.5" y="-29.5" font-family="Helvetica,sans-Serif" font-size="10.00" fill="#000000">+ init2D()</text>
<text text-anchor="start" x="8.5" y="-18.5" font-family="Helvetica,sans-Serif" font-size="10.00" fill="#000000">+ execute2D()</text>
<text text-anchor="start" x="8.5" y="-7.5" font-family="Helvetica,sans-Serif" font-size="10.00" fill="#000000">+ execute2D()</text>
</g>
<!-- Node3 -->
<g id="node2" class="node">
<title>Node3</title>
<g id="a_node2"><a xlink:href="classfftw.html" target="_top" xlink:title="{fftw\n|# N0\l# N1\l# volume\l# Nxl\l# Nyl\l# planX2K\land 11 more...\l|+ fftw()\l+ ~fftw()\l}">
<polygon fill="#ffffff" stroke="#000000" points="0,-138.5 0,-272.5 80,-272.5 80,-138.5 0,-138.5"/>
<text text-anchor="middle" x="40" y="-260.5" font-family="Helvetica,sans-Serif" font-size="10.00" fill="#000000">fftw</text>
<polyline fill="none" stroke="#000000" points="0,-253.5 80,-253.5 "/>
<text text-anchor="start" x="8" y="-241.5" font-family="Helvetica,sans-Serif" font-size="10.00" fill="#000000"># N0</text>
<text text-anchor="start" x="8" y="-230.5" font-family="Helvetica,sans-Serif" font-size="10.00" fill="#000000"># N1</text>
<text text-anchor="start" x="8" y="-219.5" font-family="Helvetica,sans-Serif" font-size="10.00" fill="#000000"># volume</text>
<text text-anchor="start" x="8" y="-208.5" font-family="Helvetica,sans-Serif" font-size="10.00" fill="#000000"># Nxl</text>
<text text-anchor="start" x="8" y="-197.5" font-family="Helvetica,sans-Serif" font-size="10.00" fill="#000000"># Nyl</text>
<text text-anchor="start" x="8" y="-186.5" font-family="Helvetica,sans-Serif" font-size="10.00" fill="#000000"># planX2K</text>
<text text-anchor="start" x="8" y="-175.5" font-family="Helvetica,sans-Serif" font-size="10.00" fill="#000000">and 11 more...</text>
<polyline fill="none" stroke="#000000" points="0,-168.5 80,-168.5 "/>
<text text-anchor="start" x="8" y="-156.5" font-family="Helvetica,sans-Serif" font-size="10.00" fill="#000000">+ fftw()</text>
<text text-anchor="start" x="8" y="-145.5" font-family="Helvetica,sans-Serif" font-size="10.00" fill="#000000">+ ~fftw()</text>
</a>
</g>
</g>
<!-- Node3&#45;&gt;Node2 -->
<g id="edge1" class="edge">
<title>Node3&#45;&gt;Node2</title>
<path fill="none" stroke="#191970" d="M40,-128.1277C40,-119.1994 40,-110.2733 40,-101.8265"/>
<polygon fill="none" stroke="#191970" points="36.5001,-128.1835 40,-138.1835 43.5001,-128.1835 36.5001,-128.1835"/>
</g>
</g>
</svg>
