<?xml version="1.0" encoding="UTF-8" standalone="no"?>
<!DOCTYPE svg PUBLIC "-//W3C//DTD SVG 1.1//EN"
 "http://www.w3.org/Graphics/SVG/1.1/DTD/svg11.dtd">
<!-- Generated by graphviz version 2.40.1 (20161225.0304)
 -->
<!-- Title: lfield::mpi_exchange_boundaries Pages: 1 -->
<svg width="302pt" height="230pt"
 viewBox="0.00 0.00 302.00 229.50" xmlns="http://www.w3.org/2000/svg" xmlns:xlink="http://www.w3.org/1999/xlink">
<g id="graph0" class="graph" transform="scale(1 1) rotate(0) translate(4 225.5)">
<title>lfield::mpi_exchange_boundaries</title>
<polygon fill="#ffffff" stroke="transparent" points="-4,4 -4,-225.5 298,-225.5 298,4 -4,4"/>
<!-- Node73 -->
<g id="node1" class="node">
<title>Node73</title>
<polygon fill="#bfbfbf" stroke="#000000" points="0,-101.5 0,-131.5 106,-131.5 106,-101.5 0,-101.5"/>
<text text-anchor="start" x="8" y="-119.5" font-family="Helvetica,sans-Serif" font-size="10.00" fill="#000000">lfield::mpi_exchange</text>
<text text-anchor="middle" x="53" y="-108.5" font-family="Helvetica,sans-Serif" font-size="10.00" fill="#000000">_boundaries</text>
</g>
<!-- Node74 -->
<g id="node2" class="node">
<title>Node74</title>
<g id="a_node2"><a xlink:href="classlfield.html#a42db686d573305a3808dbf990a748b62" target="_top" xlink:title="lfield::buf_pos">
<polygon fill="#ffffff" stroke="#000000" points="179.5,-202 179.5,-221 256.5,-221 256.5,-202 179.5,-202"/>
<text text-anchor="middle" x="218" y="-209" font-family="Helvetica,sans-Serif" font-size="10.00" fill="#000000">lfield::buf_pos</text>
</a>
</g>
</g>
<!-- Node73&#45;&gt;Node74 -->
<g id="edge1" class="edge">
<title>Node73&#45;&gt;Node74</title>
<path fill="none" stroke="#191970" d="M66.5635,-131.7239C82.8106,-149.0185 111.6577,-176.8622 142,-192.5 150.524,-196.8931 160.1177,-200.3075 169.5453,-202.9492"/>
<polygon fill="#191970" stroke="#191970" points="168.7027,-206.3463 179.2579,-205.431 170.4357,-199.5642 168.7027,-206.3463"/>
</g>
<!-- Node75 -->
<g id="node3" class="node">
<title>Node75</title>
<g id="a_node3"><a xlink:href="classlfield.html#ac7718569639fa5fb786036f8ee59489f" target="_top" xlink:title="lfield::buf_pos_ex">
<polygon fill="#ffffff" stroke="#000000" points="171.5,-164 171.5,-183 264.5,-183 264.5,-164 171.5,-164"/>
<text text-anchor="middle" x="218" y="-171" font-family="Helvetica,sans-Serif" font-size="10.00" fill="#000000">lfield::buf_pos_ex</text>
</a>
</g>
</g>
<!-- Node73&#45;&gt;Node75 -->
<g id="edge2" class="edge">
<title>Node73&#45;&gt;Node75</title>
<path fill="none" stroke="#191970" d="M85.0706,-131.6535C101.7936,-139.1795 122.7304,-148.0231 142,-154.5 149.3423,-156.9679 157.1792,-159.2781 164.9273,-161.3786"/>
<polygon fill="#191970" stroke="#191970" points="164.0897,-164.7772 174.6501,-163.9232 165.8621,-158.0053 164.0897,-164.7772"/>
</g>
<!-- Node76 -->
<g id="node4" class="node">
<title>Node76</title>
<g id="a_node4"><a xlink:href="classmpi__class.html#a563349e5d424fd15cb3c743bee847859" target="_top" xlink:title="mpi_class::getExchangeX">
<polygon fill="#ffffff" stroke="#000000" points="152.5,-126 152.5,-145 283.5,-145 283.5,-126 152.5,-126"/>
<text text-anchor="middle" x="218" y="-133" font-family="Helvetica,sans-Serif" font-size="10.00" fill="#000000">mpi_class::getExchangeX</text>
</a>
</g>
</g>
<!-- Node73&#45;&gt;Node76 -->
<g id="edge3" class="edge">
<title>Node73&#45;&gt;Node76</title>
<path fill="none" stroke="#191970" d="M106.1153,-122.6163C117.5969,-123.9384 129.952,-125.3611 142.1142,-126.7616"/>
<polygon fill="#191970" stroke="#191970" points="141.9269,-130.2631 152.2616,-127.9301 142.7277,-123.3091 141.9269,-130.2631"/>
</g>
<!-- Node77 -->
<g id="node5" class="node">
<title>Node77</title>
<g id="a_node5"><a xlink:href="classmpi__class.html#a6ba81c7f035bcbbb4c5c1273d0850aba" target="_top" xlink:title="mpi_class::getRank">
<polygon fill="#ffffff" stroke="#000000" points="166,-88 166,-107 270,-107 270,-88 166,-88"/>
<text text-anchor="middle" x="218" y="-95" font-family="Helvetica,sans-Serif" font-size="10.00" fill="#000000">mpi_class::getRank</text>
</a>
</g>
</g>
<!-- Node73&#45;&gt;Node77 -->
<g id="edge4" class="edge">
<title>Node73&#45;&gt;Node77</title>
<path fill="none" stroke="#191970" d="M106.1153,-110.3837C121.9526,-108.56 139.4518,-106.5449 155.8142,-104.6608"/>
<polygon fill="#191970" stroke="#191970" points="156.2962,-108.1285 165.8301,-103.5074 155.4954,-101.1745 156.2962,-108.1285"/>
</g>
<!-- Node78 -->
<g id="node6" class="node">
<title>Node78</title>
<g id="a_node6"><a xlink:href="classmpi__class.html#ad1c95f40f6efcc32e789b6bbfd214d17" target="_top" xlink:title="mpi_class::getXNeighbourNext">
<polygon fill="#ffffff" stroke="#000000" points="142,-50 142,-69 294,-69 294,-50 142,-50"/>
<text text-anchor="middle" x="218" y="-57" font-family="Helvetica,sans-Serif" font-size="10.00" fill="#000000">mpi_class::getXNeighbourNext</text>
</a>
</g>
</g>
<!-- Node73&#45;&gt;Node78 -->
<g id="edge5" class="edge">
<title>Node73&#45;&gt;Node78</title>
<path fill="none" stroke="#191970" d="M85.0706,-101.3465C101.7936,-93.8205 122.7304,-84.9769 142,-78.5 149.3423,-76.0321 157.1792,-73.7219 164.9273,-71.6214"/>
<polygon fill="#191970" stroke="#191970" points="165.8621,-74.9947 174.6501,-69.0768 164.0897,-68.2228 165.8621,-74.9947"/>
</g>
<!-- Node79 -->
<g id="node7" class="node">
<title>Node79</title>
<g id="a_node7"><a xlink:href="classmpi__class.html#a794f98bb5afdc2fe15341ca80a4012e6" target="_top" xlink:title="mpi_class::getXNeighbour\lPrevious">
<polygon fill="#ffffff" stroke="#000000" points="152.5,-.5 152.5,-30.5 283.5,-30.5 283.5,-.5 152.5,-.5"/>
<text text-anchor="start" x="160.5" y="-18.5" font-family="Helvetica,sans-Serif" font-size="10.00" fill="#000000">mpi_class::getXNeighbour</text>
<text text-anchor="middle" x="218" y="-7.5" font-family="Helvetica,sans-Serif" font-size="10.00" fill="#000000">Previous</text>
</a>
</g>
</g>
<!-- Node73&#45;&gt;Node79 -->
<g id="edge6" class="edge">
<title>Node73&#45;&gt;Node79</title>
<path fill="none" stroke="#191970" d="M67.0674,-101.3606C83.5614,-84.4067 112.4242,-57.1324 142,-40.5 145.8496,-38.3351 149.9154,-36.3223 154.0843,-34.4573"/>
<polygon fill="#191970" stroke="#191970" points="155.4441,-37.6825 163.3315,-30.6086 152.7543,-31.2198 155.4441,-37.6825"/>
</g>
</g>
</svg>
