<?xml version="1.0" encoding="UTF-8" standalone="no"?>
<!DOCTYPE svg PUBLIC "-//W3C//DTD SVG 1.1//EN"
 "http://www.w3.org/Graphics/SVG/1.1/DTD/svg11.dtd">
<!-- Generated by graphviz version 2.40.1 (20161225.0304)
 -->
<!-- Title: MV_class::gGet Pages: 1 -->
<svg width="303pt" height="47pt"
 viewBox="0.00 0.00 303.00 47.00" xmlns="http://www.w3.org/2000/svg" xmlns:xlink="http://www.w3.org/1999/xlink">
<g id="graph0" class="graph" transform="scale(1 1) rotate(0) translate(4 43)">
<title>MV_class::gGet</title>
<polygon fill="#ffffff" stroke="transparent" points="-4,4 -4,-43 299,-43 299,4 -4,4"/>
<!-- Node3 -->
<g id="node1" class="node">
<title>Node3</title>
<polygon fill="#bfbfbf" stroke="#000000" points="0,-19.5 0,-38.5 87,-38.5 87,-19.5 0,-19.5"/>
<text text-anchor="middle" x="43.5" y="-26.5" font-family="Helvetica,sans-Serif" font-size="10.00" fill="#000000">MV_class::gGet</text>
</g>
<!-- Node4 -->
<g id="node2" class="node">
<title>Node4</title>
<g id="a_node2"><a xlink:href="main__explicit_8cpp.html#a0ddf1224851353fc92bfbff6f499fa97" target="_top" xlink:title="main">
<polygon fill="#ffffff" stroke="#000000" points="257,-19.5 257,-38.5 295,-38.5 295,-19.5 257,-19.5"/>
<text text-anchor="middle" x="276" y="-26.5" font-family="Helvetica,sans-Serif" font-size="10.00" fill="#000000">main</text>
</a>
</g>
</g>
<!-- Node3&#45;&gt;Node4 -->
<g id="edge1" class="edge">
<title>Node3&#45;&gt;Node4</title>
<path fill="none" stroke="#191970" d="M97.4395,-29C148.4961,-29 222.3149,-29 256.8423,-29"/>
<polygon fill="#191970" stroke="#191970" points="97.2315,-25.5001 87.2315,-29 97.2314,-32.5001 97.2315,-25.5001"/>
</g>
<!-- Node5 -->
<g id="node3" class="node">
<title>Node5</title>
<g id="a_node3"><a xlink:href="classlfield.html#a751b066f2c88db69b0315de9354e082b" target="_top" xlink:title="Method to set the values of lfield object according to the McLerran&#45;Venugopalan model. ">
<polygon fill="#ffffff" stroke="#000000" points="123,-.5 123,-19.5 221,-19.5 221,-.5 123,-.5"/>
<text text-anchor="middle" x="172" y="-7.5" font-family="Helvetica,sans-Serif" font-size="10.00" fill="#000000">lfield::setMVModel</text>
</a>
</g>
</g>
<!-- Node3&#45;&gt;Node5 -->
<g id="edge2" class="edge">
<title>Node3&#45;&gt;Node5</title>
<path fill="none" stroke="#191970" d="M96.9086,-21.103C105.4818,-19.8354 114.3203,-18.5285 122.7893,-17.2763"/>
<polygon fill="#191970" stroke="#191970" points="96.3847,-17.6423 87.0042,-22.5675 97.4087,-24.567 96.3847,-17.6423"/>
</g>
<!-- Node5&#45;&gt;Node4 -->
<g id="edge3" class="edge">
<title>Node5&#45;&gt;Node4</title>
<path fill="none" stroke="#191970" d="M231.2897,-20.8318C240.4732,-22.5095 249.3472,-24.1307 256.7353,-25.4805"/>
<polygon fill="#191970" stroke="#191970" points="231.7252,-17.3535 221.2589,-18.9992 230.4671,-24.2395 231.7252,-17.3535"/>
</g>
</g>
</svg>
