<?xml version="1.0" encoding="UTF-8" standalone="no"?>
<!DOCTYPE svg PUBLIC "-//W3C//DTD SVG 1.1//EN"
 "http://www.w3.org/Graphics/SVG/1.1/DTD/svg11.dtd">
<!-- Generated by graphviz version 2.40.1 (20161225.0304)
 -->
<!-- Title: mpi_class::getRank Pages: 1 -->
<svg width="467pt" height="154pt"
 viewBox="0.00 0.00 467.00 153.50" xmlns="http://www.w3.org/2000/svg" xmlns:xlink="http://www.w3.org/1999/xlink">
<g id="graph0" class="graph" transform="scale(1 1) rotate(0) translate(4 149.5)">
<title>mpi_class::getRank</title>
<polygon fill="#ffffff" stroke="transparent" points="-4,4 -4,-149.5 463,-149.5 463,4 -4,4"/>
<!-- Node52 -->
<g id="node1" class="node">
<title>Node52</title>
<polygon fill="#bfbfbf" stroke="#000000" points="0,-57.5 0,-76.5 104,-76.5 104,-57.5 0,-57.5"/>
<text text-anchor="middle" x="52" y="-64.5" font-family="Helvetica,sans-Serif" font-size="10.00" fill="#000000">mpi_class::getRank</text>
</g>
<!-- Node53 -->
<g id="node2" class="node">
<title>Node53</title>
<g id="a_node2"><a xlink:href="classlfield.html#afd673e79539094a4042199fe8b29560e" target="_top" xlink:title="Function exchanging boundary values through MPI Send and Recv functions. ">
<polygon fill="#ffffff" stroke="#000000" points="145.5,-115 145.5,-145 251.5,-145 251.5,-115 145.5,-115"/>
<text text-anchor="start" x="153.5" y="-133" font-family="Helvetica,sans-Serif" font-size="10.00" fill="#000000">lfield::mpi_exchange</text>
<text text-anchor="middle" x="198.5" y="-122" font-family="Helvetica,sans-Serif" font-size="10.00" fill="#000000">_boundaries</text>
</a>
</g>
</g>
<!-- Node52&#45;&gt;Node53 -->
<g id="edge1" class="edge">
<title>Node52&#45;&gt;Node53</title>
<path fill="none" stroke="#191970" d="M83.3961,-80.5915C100.1837,-87.8503 121.211,-96.9286 140,-105 147.5096,-108.226 155.5657,-111.6759 163.2251,-114.9507"/>
<polygon fill="#191970" stroke="#191970" points="84.6185,-77.3069 74.0508,-76.5492 81.8395,-83.7316 84.6185,-77.3069"/>
</g>
<!-- Node54 -->
<g id="node3" class="node">
<title>Node54</title>
<g id="a_node3"><a xlink:href="classlfield.html#adc12acff8aae699d6672814e537435dd" target="_top" xlink:title="Simple print function. ">
<polygon fill="#ffffff" stroke="#000000" points="167.5,-76.5 167.5,-95.5 229.5,-95.5 229.5,-76.5 167.5,-76.5"/>
<text text-anchor="middle" x="198.5" y="-83.5" font-family="Helvetica,sans-Serif" font-size="10.00" fill="#000000">lfield::print</text>
</a>
</g>
</g>
<!-- Node52&#45;&gt;Node54 -->
<g id="edge2" class="edge">
<title>Node52&#45;&gt;Node54</title>
<path fill="none" stroke="#191970" d="M114.0894,-75.0525C132.3665,-77.423 151.5929,-79.9165 167.0721,-81.924"/>
<polygon fill="#191970" stroke="#191970" points="114.43,-71.5675 104.0629,-73.7522 113.5297,-78.5094 114.43,-71.5675"/>
</g>
<!-- Node55 -->
<g id="node4" class="node">
<title>Node55</title>
<g id="a_node4"><a xlink:href="field_8h.html#a463f2cc1e2cd9fa4d1fc3f800835a2aa" target="_top" xlink:title="Simple print function. ">
<polygon fill="#ffffff" stroke="#000000" points="181,-38.5 181,-57.5 216,-57.5 216,-38.5 181,-38.5"/>
<text text-anchor="middle" x="198.5" y="-45.5" font-family="Helvetica,sans-Serif" font-size="10.00" fill="#000000">print</text>
</a>
</g>
</g>
<!-- Node52&#45;&gt;Node55 -->
<g id="edge3" class="edge">
<title>Node52&#45;&gt;Node55</title>
<path fill="none" stroke="#191970" d="M114.2798,-58.9228C138.4252,-55.7913 164.1977,-52.4488 180.7808,-50.298"/>
<polygon fill="#191970" stroke="#191970" points="113.5297,-55.4906 104.0629,-60.2478 114.43,-62.4325 113.5297,-55.4906"/>
</g>
<!-- Node59 -->
<g id="node8" class="node">
<title>Node59</title>
<g id="a_node8"><a xlink:href="classrand__class.html#a8e8306d5aa18a6729268757934c56d82" target="_top" xlink:title="rand_class::rand_class">
<polygon fill="#ffffff" stroke="#000000" points="140,-.5 140,-19.5 257,-19.5 257,-.5 140,-.5"/>
<text text-anchor="middle" x="198.5" y="-7.5" font-family="Helvetica,sans-Serif" font-size="10.00" fill="#000000">rand_class::rand_class</text>
</a>
</g>
</g>
<!-- Node52&#45;&gt;Node59 -->
<g id="edge7" class="edge">
<title>Node52&#45;&gt;Node59</title>
<path fill="none" stroke="#191970" d="M82.1,-53.172C98.9669,-45.6339 120.4771,-36.3671 140,-29 148.7919,-25.6823 158.452,-22.4004 167.3445,-19.5217"/>
<polygon fill="#191970" stroke="#191970" points="80.4346,-50.0834 72.7557,-57.3831 83.3107,-56.4653 80.4346,-50.0834"/>
</g>
<!-- Node56 -->
<g id="node5" class="node">
<title>Node56</title>
<g id="a_node5"><a xlink:href="main__explicit_8cpp.html#a0ddf1224851353fc92bfbff6f499fa97" target="_top" xlink:title="main">
<polygon fill="#ffffff" stroke="#000000" points="320,-57.5 320,-76.5 358,-76.5 358,-57.5 320,-57.5"/>
<text text-anchor="middle" x="339" y="-64.5" font-family="Helvetica,sans-Serif" font-size="10.00" fill="#000000">main</text>
</a>
</g>
</g>
<!-- Node55&#45;&gt;Node56 -->
<g id="edge4" class="edge">
<title>Node55&#45;&gt;Node56</title>
<path fill="none" stroke="#191970" d="M226.2169,-51.7482C253.9107,-55.4933 295.747,-61.1508 319.9191,-64.4197"/>
<polygon fill="#191970" stroke="#191970" points="226.3892,-48.2397 216.0103,-50.3679 225.4511,-55.1766 226.3892,-48.2397"/>
</g>
<!-- Node57 -->
<g id="node6" class="node">
<title>Node57</title>
<g id="a_node6"><a xlink:href="classlfield.html#a6220e9fc7f5d24c493f7ab3382fb36aa" target="_top" xlink:title="lfield::setToFixed">
<polygon fill="#ffffff" stroke="#000000" points="293,-19.5 293,-38.5 385,-38.5 385,-19.5 293,-19.5"/>
<text text-anchor="middle" x="339" y="-26.5" font-family="Helvetica,sans-Serif" font-size="10.00" fill="#000000">lfield::setToFixed</text>
</a>
</g>
</g>
<!-- Node55&#45;&gt;Node57 -->
<g id="edge5" class="edge">
<title>Node55&#45;&gt;Node57</title>
<path fill="none" stroke="#191970" d="M226.074,-44.2711C245.0681,-41.7025 270.7642,-38.2276 292.8461,-35.2415"/>
<polygon fill="#191970" stroke="#191970" points="225.4511,-40.8234 216.0103,-45.6321 226.3892,-47.7603 225.4511,-40.8234"/>
</g>
<!-- Node58 -->
<g id="node7" class="node">
<title>Node58</title>
<g id="a_node7"><a xlink:href="test__symmetrize__average2_8cpp.html#a0ddf1224851353fc92bfbff6f499fa97" target="_top" xlink:title="main">
<polygon fill="#ffffff" stroke="#000000" points="421,-19.5 421,-38.5 459,-38.5 459,-19.5 421,-19.5"/>
<text text-anchor="middle" x="440" y="-26.5" font-family="Helvetica,sans-Serif" font-size="10.00" fill="#000000">main</text>
</a>
</g>
</g>
<!-- Node57&#45;&gt;Node58 -->
<g id="edge6" class="edge">
<title>Node57&#45;&gt;Node58</title>
<path fill="none" stroke="#191970" d="M395.328,-29C404.3773,-29 413.1737,-29 420.5337,-29"/>
<polygon fill="#191970" stroke="#191970" points="395.0666,-25.5001 385.0666,-29 395.0666,-32.5001 395.0666,-25.5001"/>
</g>
</g>
</svg>
