<?xml version="1.0" encoding="UTF-8" standalone="no"?>
<!DOCTYPE svg PUBLIC "-//W3C//DTD SVG 1.1//EN"
 "http://www.w3.org/Graphics/SVG/1.1/DTD/svg11.dtd">
<!-- Generated by graphviz version 2.40.1 (20161225.0304)
 -->
<!-- Title: gfield&lt; T, t &gt; Pages: 1 -->
<svg width="151pt" height="387pt"
 viewBox="0.00 0.00 151.00 387.00" xmlns="http://www.w3.org/2000/svg" xmlns:xlink="http://www.w3.org/1999/xlink">
<g id="graph0" class="graph" transform="scale(1 1) rotate(0) translate(4 383)">
<title>gfield&lt; T, t &gt;</title>
<polygon fill="#ffffff" stroke="transparent" points="-4,4 -4,-383 147,-383 147,4 -4,4"/>
<!-- Node2 -->
<g id="node1" class="node">
<title>Node2</title>
<polygon fill="#bfbfbf" stroke="#000000" points="0,-.5 0,-145.5 143,-145.5 143,-.5 0,-.5"/>
<text text-anchor="middle" x="71.5" y="-133.5" font-family="Helvetica,sans-Serif" font-size="10.00" fill="#000000">gfield&lt; T, t &gt;</text>
<polyline fill="none" stroke="#000000" points="0,-126.5 143,-126.5 "/>
<text text-anchor="start" x="8" y="-114.5" font-family="Helvetica,sans-Serif" font-size="10.00" fill="#000000">+ Nyg</text>
<text text-anchor="start" x="8" y="-103.5" font-family="Helvetica,sans-Serif" font-size="10.00" fill="#000000">&#45; Nxg</text>
<text text-anchor="start" x="8" y="-92.5" font-family="Helvetica,sans-Serif" font-size="10.00" fill="#000000">&#45; Nyg</text>
<polyline fill="none" stroke="#000000" points="0,-85.5 143,-85.5 "/>
<text text-anchor="start" x="8" y="-73.5" font-family="Helvetica,sans-Serif" font-size="10.00" fill="#000000">+ allgather()</text>
<text text-anchor="start" x="8" y="-62.5" font-family="Helvetica,sans-Serif" font-size="10.00" fill="#000000">+ gfield()</text>
<text text-anchor="start" x="8" y="-51.5" font-family="Helvetica,sans-Serif" font-size="10.00" fill="#000000">+ ~gfield()</text>
<text text-anchor="start" x="8" y="-40.5" font-family="Helvetica,sans-Serif" font-size="10.00" fill="#000000">+ getNxg()</text>
<text text-anchor="start" x="8" y="-29.5" font-family="Helvetica,sans-Serif" font-size="10.00" fill="#000000">+ getNyg()</text>
<text text-anchor="start" x="8" y="-18.5" font-family="Helvetica,sans-Serif" font-size="10.00" fill="#000000">+ average_and_symmetrize()</text>
<text text-anchor="start" x="8" y="-7.5" font-family="Helvetica,sans-Serif" font-size="10.00" fill="#000000">and 13 more...</text>
</g>
<!-- Node3 -->
<g id="node2" class="node">
<title>Node3</title>
<g id="a_node2"><a xlink:href="classfield.html" target="_top" xlink:title="Definition of the main class of type field. ">
<polygon fill="#ffffff" stroke="#000000" points="37.5,-183.5 37.5,-273.5 105.5,-273.5 105.5,-183.5 37.5,-183.5"/>
<text text-anchor="middle" x="71.5" y="-261.5" font-family="Helvetica,sans-Serif" font-size="10.00" fill="#000000">field&lt; T, t &gt;</text>
<polyline fill="none" stroke="#000000" points="37.5,-254.5 105.5,-254.5 "/>
<text text-anchor="start" x="45.5" y="-242.5" font-family="Helvetica,sans-Serif" font-size="10.00" fill="#000000">&#45; Nxl</text>
<text text-anchor="start" x="45.5" y="-231.5" font-family="Helvetica,sans-Serif" font-size="10.00" fill="#000000">&#45; Nyl</text>
<polyline fill="none" stroke="#000000" points="37.5,-224.5 105.5,-224.5 "/>
<text text-anchor="start" x="45.5" y="-212.5" font-family="Helvetica,sans-Serif" font-size="10.00" fill="#000000">+ field()</text>
<text text-anchor="start" x="45.5" y="-201.5" font-family="Helvetica,sans-Serif" font-size="10.00" fill="#000000">+ field()</text>
<text text-anchor="start" x="45.5" y="-190.5" font-family="Helvetica,sans-Serif" font-size="10.00" fill="#000000">+ ~field()</text>
</a>
</g>
</g>
<!-- Node3&#45;&gt;Node2 -->
<g id="edge1" class="edge">
<title>Node3&#45;&gt;Node2</title>
<path fill="none" stroke="#191970" d="M71.5,-172.9427C71.5,-164.0962 71.5,-154.8312 71.5,-145.661"/>
<polygon fill="none" stroke="#191970" points="68.0001,-173.1049 71.5,-183.1049 75.0001,-173.105 68.0001,-173.1049"/>
</g>
<!-- Node4 -->
<g id="node3" class="node">
<title>Node4</title>
<polygon fill="#ffffff" stroke="#bfbfbf" points="23,-321.5 23,-378.5 120,-378.5 120,-321.5 23,-321.5"/>
<text text-anchor="middle" x="71.5" y="-366.5" font-family="Helvetica,sans-Serif" font-size="10.00" fill="#000000">std::complex&lt; T &gt;</text>
<polyline fill="none" stroke="#bfbfbf" points="23,-359.5 120,-359.5 "/>
<text text-anchor="middle" x="71.5" y="-347.5" font-family="Helvetica,sans-Serif" font-size="10.00" fill="#000000"> </text>
<polyline fill="none" stroke="#bfbfbf" points="23,-340.5 120,-340.5 "/>
<text text-anchor="middle" x="71.5" y="-328.5" font-family="Helvetica,sans-Serif" font-size="10.00" fill="#000000"> </text>
</g>
<!-- Node4&#45;&gt;Node3 -->
<g id="edge2" class="edge">
<title>Node4&#45;&gt;Node3</title>
<path fill="none" stroke="#404040" d="M71.5,-321.2062C71.5,-310.5748 71.5,-298.1181 71.5,-285.847"/>
<polygon fill="none" stroke="#404040" points="71.5001,-285.7124 67.5,-279.7125 71.5,-273.7124 75.5,-279.7124 71.5001,-285.7124"/>
<text text-anchor="middle" x="79" y="-295" font-family="Helvetica,sans-Serif" font-size="10.00" fill="#000000"> +u</text>
</g>
</g>
</svg>
