<?xml version="1.0" encoding="UTF-8" standalone="no"?>
<!DOCTYPE svg PUBLIC "-//W3C//DTD SVG 1.1//EN"
 "http://www.w3.org/Graphics/SVG/1.1/DTD/svg11.dtd">
<!-- Generated by graphviz version 2.40.1 (20161225.0304)
 -->
<!-- Title: lfield::reduceAndSet Pages: 1 -->
<svg width="225pt" height="66pt"
 viewBox="0.00 0.00 225.00 66.00" xmlns="http://www.w3.org/2000/svg" xmlns:xlink="http://www.w3.org/1999/xlink">
<g id="graph0" class="graph" transform="scale(1 1) rotate(0) translate(4 62)">
<title>lfield::reduceAndSet</title>
<polygon fill="#ffffff" stroke="transparent" points="-4,4 -4,-62 221,-62 221,4 -4,4"/>
<!-- Node117 -->
<g id="node1" class="node">
<title>Node117</title>
<polygon fill="#bfbfbf" stroke="#000000" points="0,-19.5 0,-38.5 104,-38.5 104,-19.5 0,-19.5"/>
<text text-anchor="middle" x="52" y="-26.5" font-family="Helvetica,sans-Serif" font-size="10.00" fill="#000000">lfield::reduceAndSet</text>
</g>
<!-- Node118 -->
<g id="node2" class="node">
<title>Node118</title>
<g id="a_node2"><a xlink:href="classgfield.html#a53fa88cad304f3381b70aef740e903b4" target="_top" xlink:title="gfield::getNxg">
<polygon fill="#ffffff" stroke="#000000" points="140,-38.5 140,-57.5 217,-57.5 217,-38.5 140,-38.5"/>
<text text-anchor="middle" x="178.5" y="-45.5" font-family="Helvetica,sans-Serif" font-size="10.00" fill="#000000">gfield::getNxg</text>
</a>
</g>
</g>
<!-- Node117&#45;&gt;Node118 -->
<g id="edge1" class="edge">
<title>Node117&#45;&gt;Node118</title>
<path fill="none" stroke="#191970" d="M104.1827,-36.8377C112.6985,-38.1168 121.4906,-39.4373 129.9153,-40.7027"/>
<polygon fill="#191970" stroke="#191970" points="129.5571,-44.1881 139.9661,-42.2123 130.5969,-37.2657 129.5571,-44.1881"/>
</g>
<!-- Node119 -->
<g id="node3" class="node">
<title>Node119</title>
<g id="a_node3"><a xlink:href="classgfield.html#a12884fdf0eca769d389e04c4200263d2" target="_top" xlink:title="gfield::getNyg">
<polygon fill="#ffffff" stroke="#000000" points="140,-.5 140,-19.5 217,-19.5 217,-.5 140,-.5"/>
<text text-anchor="middle" x="178.5" y="-7.5" font-family="Helvetica,sans-Serif" font-size="10.00" fill="#000000">gfield::getNyg</text>
</a>
</g>
</g>
<!-- Node117&#45;&gt;Node119 -->
<g id="edge2" class="edge">
<title>Node117&#45;&gt;Node119</title>
<path fill="none" stroke="#191970" d="M104.1827,-21.1623C112.6985,-19.8832 121.4906,-18.5627 129.9153,-17.2973"/>
<polygon fill="#191970" stroke="#191970" points="130.5969,-20.7343 139.9661,-15.7877 129.5571,-13.8119 130.5969,-20.7343"/>
</g>
</g>
</svg>
