<?xml version="1.0" encoding="UTF-8" standalone="no"?>
<!DOCTYPE svg PUBLIC "-//W3C//DTD SVG 1.1//EN"
 "http://www.w3.org/Graphics/SVG/1.1/DTD/svg11.dtd">
<!-- Generated by graphviz version 2.40.1 (20161225.0304)
 -->
<!-- Title: momenta::phat2 Pages: 1 -->
<svg width="464pt" height="494pt"
 viewBox="0.00 0.00 464.00 493.50" xmlns="http://www.w3.org/2000/svg" xmlns:xlink="http://www.w3.org/1999/xlink">
<g id="graph0" class="graph" transform="scale(1 1) rotate(0) translate(4 489.5)">
<title>momenta::phat2</title>
<polygon fill="#ffffff" stroke="transparent" points="-4,4 -4,-489.5 460,-489.5 460,4 -4,4"/>
<!-- Node26 -->
<g id="node1" class="node">
<title>Node26</title>
<polygon fill="#bfbfbf" stroke="#000000" points="0,-236.5 0,-255.5 87,-255.5 87,-236.5 0,-236.5"/>
<text text-anchor="middle" x="43.5" y="-243.5" font-family="Helvetica,sans-Serif" font-size="10.00" fill="#000000">momenta::phat2</text>
</g>
<!-- Node27 -->
<g id="node2" class="node">
<title>Node27</title>
<g id="a_node2"><a xlink:href="field_8h.html#ab1991c064deb041673a7fd9e56ddcc0b" target="_top" xlink:title="generate_gaussian_with\l_noise_coupling_constant">
<polygon fill="#ffffff" stroke="#000000" points="124,-455 124,-485 253,-485 253,-455 124,-455"/>
<text text-anchor="start" x="132" y="-473" font-family="Helvetica,sans-Serif" font-size="10.00" fill="#000000">generate_gaussian_with</text>
<text text-anchor="middle" x="188.5" y="-462" font-family="Helvetica,sans-Serif" font-size="10.00" fill="#000000">_noise_coupling_constant</text>
</a>
</g>
</g>
<!-- Node26&#45;&gt;Node27 -->
<g id="edge1" class="edge">
<title>Node26&#45;&gt;Node27</title>
<path fill="none" stroke="#191970" d="M46.0672,-265.7258C52.2003,-305.1055 71.2559,-394.0497 123,-445 126.9028,-448.843 131.4574,-452.1073 136.3141,-454.8778"/>
<polygon fill="#191970" stroke="#191970" points="49.5276,-265.1992 44.6365,-255.8009 42.5992,-266.198 49.5276,-265.1992"/>
</g>
<!-- Node29 -->
<g id="node4" class="node">
<title>Node29</title>
<g id="a_node4"><a xlink:href="test__momentum__coupling_8cpp.html#a0ddf1224851353fc92bfbff6f499fa97" target="_top" xlink:title="main">
<polygon fill="#ffffff" stroke="#000000" points="169.5,-416.5 169.5,-435.5 207.5,-435.5 207.5,-416.5 169.5,-416.5"/>
<text text-anchor="middle" x="188.5" y="-423.5" font-family="Helvetica,sans-Serif" font-size="10.00" fill="#000000">main</text>
</a>
</g>
</g>
<!-- Node26&#45;&gt;Node29 -->
<g id="edge3" class="edge">
<title>Node26&#45;&gt;Node29</title>
<path fill="none" stroke="#191970" d="M47.748,-265.7145C56.1011,-299.6854 77.9107,-369.2349 123,-407 136.071,-417.9477 155.1617,-422.591 169.3642,-424.5584"/>
<polygon fill="#191970" stroke="#191970" points="51.0842,-264.6069 45.4169,-255.6552 44.2649,-266.1872 51.0842,-264.6069"/>
</g>
<!-- Node30 -->
<g id="node5" class="node">
<title>Node30</title>
<g id="a_node5"><a xlink:href="field_8h.html#a775fa9c6bfba32acd280006a6fd3e524" target="_top" xlink:title="prepare_A_local">
<polygon fill="#ffffff" stroke="#000000" points="145.5,-378.5 145.5,-397.5 231.5,-397.5 231.5,-378.5 145.5,-378.5"/>
<text text-anchor="middle" x="188.5" y="-385.5" font-family="Helvetica,sans-Serif" font-size="10.00" fill="#000000">prepare_A_local</text>
</a>
</g>
</g>
<!-- Node26&#45;&gt;Node30 -->
<g id="edge4" class="edge">
<title>Node26&#45;&gt;Node30</title>
<path fill="none" stroke="#191970" d="M50.7999,-265.2195C62.1085,-292.405 86.4419,-341.8001 123,-369 129.5546,-373.8768 137.3343,-377.5049 145.2024,-380.2033"/>
<polygon fill="#191970" stroke="#191970" points="53.9459,-263.6601 46.9868,-255.6713 47.4451,-266.2562 53.9459,-263.6601"/>
</g>
<!-- Node31 -->
<g id="node6" class="node">
<title>Node31</title>
<g id="a_node6"><a xlink:href="classlfield.html#adc12acff8aae699d6672814e537435dd" target="_top" xlink:title="lfield::print">
<polygon fill="#ffffff" stroke="#000000" points="157.5,-340.5 157.5,-359.5 219.5,-359.5 219.5,-340.5 157.5,-340.5"/>
<text text-anchor="middle" x="188.5" y="-347.5" font-family="Helvetica,sans-Serif" font-size="10.00" fill="#000000">lfield::print</text>
</a>
</g>
</g>
<!-- Node26&#45;&gt;Node31 -->
<g id="edge6" class="edge">
<title>Node26&#45;&gt;Node31</title>
<path fill="none" stroke="#191970" d="M55.7532,-264.0134C69.8087,-283.3304 94.607,-313.5697 123,-331 133.3933,-337.3804 146.0264,-341.7023 157.4145,-344.5893"/>
<polygon fill="#191970" stroke="#191970" points="58.543,-261.8965 49.912,-255.7517 52.8273,-265.9376 58.543,-261.8965"/>
</g>
<!-- Node32 -->
<g id="node7" class="node">
<title>Node32</title>
<g id="a_node7"><a xlink:href="field_8h.html#a463f2cc1e2cd9fa4d1fc3f800835a2aa" target="_top" xlink:title="print">
<polygon fill="#ffffff" stroke="#000000" points="171,-302.5 171,-321.5 206,-321.5 206,-302.5 171,-302.5"/>
<text text-anchor="middle" x="188.5" y="-309.5" font-family="Helvetica,sans-Serif" font-size="10.00" fill="#000000">print</text>
</a>
</g>
</g>
<!-- Node26&#45;&gt;Node32 -->
<g id="edge7" class="edge">
<title>Node26&#45;&gt;Node32</title>
<path fill="none" stroke="#191970" d="M65.6801,-261.1697C81.1976,-271.2599 102.7012,-284.2227 123,-293 138.6496,-299.7669 157.4181,-304.9328 170.845,-308.1577"/>
<polygon fill="#191970" stroke="#191970" points="67.56,-258.2167 57.2898,-255.6141 63.6953,-264.0533 67.56,-258.2167"/>
</g>
<!-- Node36 -->
<g id="node11" class="node">
<title>Node36</title>
<g id="a_node11"><a xlink:href="classlfield.html#a14cbafc22e451ce6ecaea0744b56dff6" target="_top" xlink:title="lfield::setCorrelationsFor\lCouplingConstant">
<polygon fill="#ffffff" stroke="#000000" points="127,-253 127,-283 250,-283 250,-253 127,-253"/>
<text text-anchor="start" x="135" y="-271" font-family="Helvetica,sans-Serif" font-size="10.00" fill="#000000">lfield::setCorrelationsFor</text>
<text text-anchor="middle" x="188.5" y="-260" font-family="Helvetica,sans-Serif" font-size="10.00" fill="#000000">CouplingConstant</text>
</a>
</g>
</g>
<!-- Node26&#45;&gt;Node36 -->
<g id="edge11" class="edge">
<title>Node26&#45;&gt;Node36</title>
<path fill="none" stroke="#191970" d="M96.9256,-254.1059C106.6476,-255.581 116.8622,-257.1308 126.8,-258.6386"/>
<polygon fill="#191970" stroke="#191970" points="97.4167,-250.6405 87.0048,-252.6007 96.3666,-257.5613 97.4167,-250.6405"/>
</g>
<!-- Node37 -->
<g id="node12" class="node">
<title>Node37</title>
<g id="a_node12"><a xlink:href="classlfield.html#a1370b1b3fd05bfcffb64018dd3bedf70" target="_top" xlink:title="lfield::setKernelPbarX">
<polygon fill="#ffffff" stroke="#000000" points="133,-214.5 133,-233.5 244,-233.5 244,-214.5 133,-214.5"/>
<text text-anchor="middle" x="188.5" y="-221.5" font-family="Helvetica,sans-Serif" font-size="10.00" fill="#000000">lfield::setKernelPbarX</text>
</a>
</g>
</g>
<!-- Node26&#45;&gt;Node37 -->
<g id="edge13" class="edge">
<title>Node26&#45;&gt;Node37</title>
<path fill="none" stroke="#191970" d="M97.0627,-237.8732C108.7531,-236.0995 121.1499,-234.2186 132.917,-232.4333"/>
<polygon fill="#191970" stroke="#191970" points="96.3666,-234.4387 87.0048,-239.3993 97.4167,-241.3595 96.3666,-234.4387"/>
</g>
<!-- Node38 -->
<g id="node13" class="node">
<title>Node38</title>
<g id="a_node13"><a xlink:href="classlfield.html#a1caeadd397716179bb8d72b60236cffb" target="_top" xlink:title="lfield::setKernelPbarXWith\lCouplingConstant">
<polygon fill="#ffffff" stroke="#000000" points="123,-165 123,-195 254,-195 254,-165 123,-165"/>
<text text-anchor="start" x="131" y="-183" font-family="Helvetica,sans-Serif" font-size="10.00" fill="#000000">lfield::setKernelPbarXWith</text>
<text text-anchor="middle" x="188.5" y="-172" font-family="Helvetica,sans-Serif" font-size="10.00" fill="#000000">CouplingConstant</text>
</a>
</g>
</g>
<!-- Node26&#45;&gt;Node38 -->
<g id="edge15" class="edge">
<title>Node26&#45;&gt;Node38</title>
<path fill="none" stroke="#191970" d="M69.5106,-231.6534C84.8663,-223.4198 104.802,-213.135 123,-205 130.6672,-201.5725 138.9597,-198.1765 146.9834,-195.044"/>
<polygon fill="#191970" stroke="#191970" points="67.7264,-228.6393 60.5979,-236.4773 71.0584,-234.7954 67.7264,-228.6393"/>
</g>
<!-- Node39 -->
<g id="node14" class="node">
<title>Node39</title>
<g id="a_node14"><a xlink:href="classlfield.html#a6b6c5fddce5518d9909f64b89b873a68" target="_top" xlink:title="lfield::setKernelPbarY">
<polygon fill="#ffffff" stroke="#000000" points="133,-126.5 133,-145.5 244,-145.5 244,-126.5 133,-126.5"/>
<text text-anchor="middle" x="188.5" y="-133.5" font-family="Helvetica,sans-Serif" font-size="10.00" fill="#000000">lfield::setKernelPbarY</text>
</a>
</g>
</g>
<!-- Node26&#45;&gt;Node39 -->
<g id="edge17" class="edge">
<title>Node26&#45;&gt;Node39</title>
<path fill="none" stroke="#191970" d="M54.6317,-227.9362C68.2611,-207.3083 93.24,-173.9719 123,-155 129.0903,-151.1175 135.9971,-148.0064 142.9856,-145.5196"/>
<polygon fill="#191970" stroke="#191970" points="51.642,-226.1147 49.1918,-236.4223 57.5351,-229.8924 51.642,-226.1147"/>
</g>
<!-- Node40 -->
<g id="node15" class="node">
<title>Node40</title>
<g id="a_node15"><a xlink:href="classlfield.html#af3c6253e8700837bcc8121ef328f41ef" target="_top" xlink:title="lfield::setKernelPbarYWith\lCouplingConstant">
<polygon fill="#ffffff" stroke="#000000" points="123,-77 123,-107 254,-107 254,-77 123,-77"/>
<text text-anchor="start" x="131" y="-95" font-family="Helvetica,sans-Serif" font-size="10.00" fill="#000000">lfield::setKernelPbarYWith</text>
<text text-anchor="middle" x="188.5" y="-84" font-family="Helvetica,sans-Serif" font-size="10.00" fill="#000000">CouplingConstant</text>
</a>
</g>
</g>
<!-- Node26&#45;&gt;Node40 -->
<g id="edge19" class="edge">
<title>Node26&#45;&gt;Node40</title>
<path fill="none" stroke="#191970" d="M50.5489,-227.0398C61.798,-199.2163 86.3456,-147.3481 123,-117 127.5939,-113.1965 132.8289,-109.9331 138.2912,-107.1424"/>
<polygon fill="#191970" stroke="#191970" points="47.2591,-225.8427 46.8912,-236.4311 53.7819,-228.3832 47.2591,-225.8427"/>
</g>
<!-- Node41 -->
<g id="node16" class="node">
<title>Node41</title>
<g id="a_node16"><a xlink:href="classlfield.html#a5b407bbd988e3b009ef8364bbe705beb" target="_top" xlink:title="lfield::solvePoisson">
<polygon fill="#ffffff" stroke="#000000" points="138,-38.5 138,-57.5 239,-57.5 239,-38.5 138,-38.5"/>
<text text-anchor="middle" x="188.5" y="-45.5" font-family="Helvetica,sans-Serif" font-size="10.00" fill="#000000">lfield::solvePoisson</text>
</a>
</g>
</g>
<!-- Node26&#45;&gt;Node41 -->
<g id="edge21" class="edge">
<title>Node26&#45;&gt;Node41</title>
<path fill="none" stroke="#191970" d="M46.6857,-226.1527C53.6615,-189.2557 73.781,-109.9581 123,-67 127.4602,-63.1071 132.6768,-60.0101 138.1842,-57.5466"/>
<polygon fill="#191970" stroke="#191970" points="43.2117,-225.6997 44.9251,-236.1551 50.1057,-226.9133 43.2117,-225.6997"/>
</g>
<!-- Node42 -->
<g id="node17" class="node">
<title>Node42</title>
<g id="a_node17"><a xlink:href="classmomenta.html#a6bd37462bcd9d58e3ae501a72e96a9e7" target="_top" xlink:title="momenta::~momenta">
<polygon fill="#ffffff" stroke="#000000" points="133.5,-.5 133.5,-19.5 243.5,-19.5 243.5,-.5 133.5,-.5"/>
<text text-anchor="middle" x="188.5" y="-7.5" font-family="Helvetica,sans-Serif" font-size="10.00" fill="#000000">momenta::~momenta</text>
</a>
</g>
</g>
<!-- Node26&#45;&gt;Node42 -->
<g id="edge23" class="edge">
<title>Node26&#45;&gt;Node42</title>
<path fill="none" stroke="#191970" d="M44.9592,-225.8877C49.1503,-183.2311 64.9671,-83.169 123,-29 127.1547,-25.122 132.0541,-22.0302 137.2728,-19.5662"/>
<polygon fill="#191970" stroke="#191970" points="41.4513,-225.8287 44.0761,-236.0932 48.4253,-226.4323 41.4513,-225.8287"/>
</g>
<!-- Node28 -->
<g id="node3" class="node">
<title>Node28</title>
<g id="a_node3"><a xlink:href="main__optimized_8cpp.html#a0ddf1224851353fc92bfbff6f499fa97" target="_top" xlink:title="main">
<polygon fill="#ffffff" stroke="#000000" points="317,-419.5 317,-438.5 355,-438.5 355,-419.5 317,-419.5"/>
<text text-anchor="middle" x="336" y="-426.5" font-family="Helvetica,sans-Serif" font-size="10.00" fill="#000000">main</text>
</a>
</g>
</g>
<!-- Node27&#45;&gt;Node28 -->
<g id="edge2" class="edge">
<title>Node27&#45;&gt;Node28</title>
<path fill="none" stroke="#191970" d="M252.4659,-452.2197C275.7734,-445.741 300.408,-438.8934 316.8351,-434.3272"/>
<polygon fill="#191970" stroke="#191970" points="251.2834,-448.9156 242.586,-454.9659 253.1581,-455.6599 251.2834,-448.9156"/>
</g>
<!-- Node30&#45;&gt;Node28 -->
<g id="edge5" class="edge">
<title>Node30&#45;&gt;Node28</title>
<path fill="none" stroke="#191970" d="M232.7018,-400.2866C260.7649,-408.0872 295.6668,-417.7887 316.8682,-423.682"/>
<polygon fill="#191970" stroke="#191970" points="233.2823,-396.8153 222.7102,-397.5093 231.4076,-403.5596 233.2823,-396.8153"/>
</g>
<!-- Node33 -->
<g id="node8" class="node">
<title>Node33</title>
<g id="a_node8"><a xlink:href="main__explicit_8cpp.html#a0ddf1224851353fc92bfbff6f499fa97" target="_top" xlink:title="main">
<polygon fill="#ffffff" stroke="#000000" points="317,-170.5 317,-189.5 355,-189.5 355,-170.5 317,-170.5"/>
<text text-anchor="middle" x="336" y="-177.5" font-family="Helvetica,sans-Serif" font-size="10.00" fill="#000000">main</text>
</a>
</g>
</g>
<!-- Node32&#45;&gt;Node33 -->
<g id="edge8" class="edge">
<title>Node32&#45;&gt;Node33</title>
<path fill="none" stroke="#191970" d="M216.1349,-308.1728C228.5503,-305.4472 242.8756,-300.8197 254,-293 293.8585,-264.9822 321.6773,-211.3 331.7909,-189.5266"/>
<polygon fill="#191970" stroke="#191970" points="215.4404,-304.7421 206.2673,-310.0434 216.7442,-311.6196 215.4404,-304.7421"/>
</g>
<!-- Node34 -->
<g id="node9" class="node">
<title>Node34</title>
<g id="a_node9"><a xlink:href="classlfield.html#a6220e9fc7f5d24c493f7ab3382fb36aa" target="_top" xlink:title="lfield::setToFixed">
<polygon fill="#ffffff" stroke="#000000" points="290,-302.5 290,-321.5 382,-321.5 382,-302.5 290,-302.5"/>
<text text-anchor="middle" x="336" y="-309.5" font-family="Helvetica,sans-Serif" font-size="10.00" fill="#000000">lfield::setToFixed</text>
</a>
</g>
</g>
<!-- Node32&#45;&gt;Node34 -->
<g id="edge9" class="edge">
<title>Node32&#45;&gt;Node34</title>
<path fill="none" stroke="#191970" d="M216.298,-312C236.9529,-312 265.6019,-312 289.6937,-312"/>
<polygon fill="#191970" stroke="#191970" points="216.292,-308.5001 206.2919,-312 216.2919,-315.5001 216.292,-308.5001"/>
</g>
<!-- Node35 -->
<g id="node10" class="node">
<title>Node35</title>
<g id="a_node10"><a xlink:href="test__symmetrize__average2_8cpp.html#a0ddf1224851353fc92bfbff6f499fa97" target="_top" xlink:title="main">
<polygon fill="#ffffff" stroke="#000000" points="418,-302.5 418,-321.5 456,-321.5 456,-302.5 418,-302.5"/>
<text text-anchor="middle" x="437" y="-309.5" font-family="Helvetica,sans-Serif" font-size="10.00" fill="#000000">main</text>
</a>
</g>
</g>
<!-- Node34&#45;&gt;Node35 -->
<g id="edge10" class="edge">
<title>Node34&#45;&gt;Node35</title>
<path fill="none" stroke="#191970" d="M392.328,-312C401.3773,-312 410.1737,-312 417.5337,-312"/>
<polygon fill="#191970" stroke="#191970" points="392.0666,-308.5001 382.0666,-312 392.0666,-315.5001 392.0666,-308.5001"/>
</g>
<!-- Node36&#45;&gt;Node33 -->
<g id="edge12" class="edge">
<title>Node36&#45;&gt;Node33</title>
<path fill="none" stroke="#191970" d="M242.5847,-248.8126C246.51,-246.9793 250.3548,-245.0383 254,-243 281.8913,-227.4039 310.6399,-203.0382 325.5694,-189.6382"/>
<polygon fill="#191970" stroke="#191970" points="241.0742,-245.6534 233.3354,-252.8894 243.8976,-252.0587 241.0742,-245.6534"/>
</g>
<!-- Node37&#45;&gt;Node33 -->
<g id="edge14" class="edge">
<title>Node37&#45;&gt;Node33</title>
<path fill="none" stroke="#191970" d="M230.1824,-211.5659C258.5728,-203.0969 294.8364,-192.2793 316.6956,-185.7586"/>
<polygon fill="#191970" stroke="#191970" points="229.0875,-208.2401 220.5053,-214.4527 231.0886,-214.948 229.0875,-208.2401"/>
</g>
<!-- Node38&#45;&gt;Node33 -->
<g id="edge16" class="edge">
<title>Node38&#45;&gt;Node33</title>
<path fill="none" stroke="#191970" d="M264.2373,-180C283.7322,-180 303.0419,-180 316.7122,-180"/>
<polygon fill="#191970" stroke="#191970" points="264.0547,-176.5001 254.0546,-180 264.0546,-183.5001 264.0547,-176.5001"/>
</g>
<!-- Node39&#45;&gt;Node33 -->
<g id="edge18" class="edge">
<title>Node39&#45;&gt;Node33</title>
<path fill="none" stroke="#191970" d="M231.5199,-148.3885C239.0189,-150.5739 246.7403,-152.8405 254,-155 275.5406,-161.4075 300.1991,-168.9541 316.803,-174.0667"/>
<polygon fill="#191970" stroke="#191970" points="232.4267,-145.0073 221.8472,-145.5783 230.4736,-151.7294 232.4267,-145.0073"/>
</g>
<!-- Node40&#45;&gt;Node33 -->
<g id="edge20" class="edge">
<title>Node40&#45;&gt;Node33</title>
<path fill="none" stroke="#191970" d="M242.5847,-111.1874C246.51,-113.0207 250.3548,-114.9617 254,-117 281.8913,-132.5961 310.6399,-156.9618 325.5694,-170.3618"/>
<polygon fill="#191970" stroke="#191970" points="243.8976,-107.9413 233.3354,-107.1106 241.0742,-114.3466 243.8976,-107.9413"/>
</g>
<!-- Node41&#45;&gt;Node33 -->
<g id="edge22" class="edge">
<title>Node41&#45;&gt;Node33</title>
<path fill="none" stroke="#191970" d="M244.9159,-61.602C248.0965,-63.2067 251.1531,-64.9988 254,-67 293.8585,-95.0178 321.6773,-148.7 331.7909,-170.4734"/>
<polygon fill="#191970" stroke="#191970" points="246.2591,-58.3693 235.6953,-57.558 243.4475,-64.7798 246.2591,-58.3693"/>
</g>
</g>
</svg>
