<?xml version="1.0" encoding="UTF-8" standalone="no"?>
<!DOCTYPE svg PUBLIC "-//W3C//DTD SVG 1.1//EN"
 "http://www.w3.org/Graphics/SVG/1.1/DTD/svg11.dtd">
<!-- Generated by graphviz version 2.40.1 (20161225.0304)
 -->
<!-- Title: gfield&lt; T, t &gt; Pages: 1 -->
<svg width="151pt" height="292pt"
 viewBox="0.00 0.00 151.00 292.00" xmlns="http://www.w3.org/2000/svg" xmlns:xlink="http://www.w3.org/1999/xlink">
<g id="graph0" class="graph" transform="scale(1 1) rotate(0) translate(4 288)">
<title>gfield&lt; T, t &gt;</title>
<polygon fill="#ffffff" stroke="transparent" points="-4,4 -4,-288 147,-288 147,4 -4,4"/>
<!-- Node0 -->
<g id="node1" class="node">
<title>Node0</title>
<polygon fill="#bfbfbf" stroke="#000000" points="0,-.5 0,-145.5 143,-145.5 143,-.5 0,-.5"/>
<text text-anchor="middle" x="71.5" y="-133.5" font-family="Helvetica,sans-Serif" font-size="10.00" fill="#000000">gfield&lt; T, t &gt;</text>
<polyline fill="none" stroke="#000000" points="0,-126.5 143,-126.5 "/>
<text text-anchor="start" x="8" y="-114.5" font-family="Helvetica,sans-Serif" font-size="10.00" fill="#000000">+ Nyg</text>
<text text-anchor="start" x="8" y="-103.5" font-family="Helvetica,sans-Serif" font-size="10.00" fill="#000000">&#45; Nxg</text>
<text text-anchor="start" x="8" y="-92.5" font-family="Helvetica,sans-Serif" font-size="10.00" fill="#000000">&#45; Nyg</text>
<polyline fill="none" stroke="#000000" points="0,-85.5 143,-85.5 "/>
<text text-anchor="start" x="8" y="-73.5" font-family="Helvetica,sans-Serif" font-size="10.00" fill="#000000">+ allgather()</text>
<text text-anchor="start" x="8" y="-62.5" font-family="Helvetica,sans-Serif" font-size="10.00" fill="#000000">+ gfield()</text>
<text text-anchor="start" x="8" y="-51.5" font-family="Helvetica,sans-Serif" font-size="10.00" fill="#000000">+ ~gfield()</text>
<text text-anchor="start" x="8" y="-40.5" font-family="Helvetica,sans-Serif" font-size="10.00" fill="#000000">+ getNxg()</text>
<text text-anchor="start" x="8" y="-29.5" font-family="Helvetica,sans-Serif" font-size="10.00" fill="#000000">+ getNyg()</text>
<text text-anchor="start" x="8" y="-18.5" font-family="Helvetica,sans-Serif" font-size="10.00" fill="#000000">+ average_and_symmetrize()</text>
<text text-anchor="start" x="8" y="-7.5" font-family="Helvetica,sans-Serif" font-size="10.00" fill="#000000">and 12 more...</text>
</g>
<!-- Node1 -->
<g id="node2" class="node">
<title>Node1</title>
<g id="a_node2"><a xlink:href="classfield.html" target="_top" xlink:title="Definition of the main class of type field. ">
<polygon fill="#ffffff" stroke="#000000" points="37.5,-182.5 37.5,-283.5 105.5,-283.5 105.5,-182.5 37.5,-182.5"/>
<text text-anchor="middle" x="71.5" y="-271.5" font-family="Helvetica,sans-Serif" font-size="10.00" fill="#000000">field&lt; T, t &gt;</text>
<polyline fill="none" stroke="#000000" points="37.5,-264.5 105.5,-264.5 "/>
<text text-anchor="start" x="45.5" y="-252.5" font-family="Helvetica,sans-Serif" font-size="10.00" fill="#000000">+ u</text>
<text text-anchor="start" x="45.5" y="-241.5" font-family="Helvetica,sans-Serif" font-size="10.00" fill="#000000">&#45; Nxl</text>
<text text-anchor="start" x="45.5" y="-230.5" font-family="Helvetica,sans-Serif" font-size="10.00" fill="#000000">&#45; Nyl</text>
<polyline fill="none" stroke="#000000" points="37.5,-223.5 105.5,-223.5 "/>
<text text-anchor="start" x="45.5" y="-211.5" font-family="Helvetica,sans-Serif" font-size="10.00" fill="#000000">+ field()</text>
<text text-anchor="start" x="45.5" y="-200.5" font-family="Helvetica,sans-Serif" font-size="10.00" fill="#000000">+ field()</text>
<text text-anchor="start" x="45.5" y="-189.5" font-family="Helvetica,sans-Serif" font-size="10.00" fill="#000000">+ ~field()</text>
</a>
</g>
</g>
<!-- Node1&#45;&gt;Node0 -->
<g id="edge1" class="edge">
<title>Node1&#45;&gt;Node0</title>
<path fill="none" stroke="#191970" d="M71.5,-172.2827C71.5,-163.5344 71.5,-154.459 71.5,-145.5098"/>
<polygon fill="none" stroke="#191970" points="68.0001,-172.375 71.5,-182.375 75.0001,-172.375 68.0001,-172.375"/>
</g>
</g>
</svg>
