<?xml version="1.0" encoding="UTF-8" standalone="no"?>
<!DOCTYPE svg PUBLIC "-//W3C//DTD SVG 1.1//EN"
 "http://www.w3.org/Graphics/SVG/1.1/DTD/svg11.dtd">
<!-- Generated by graphviz version 2.40.1 (20161225.0304)
 -->
<!-- Title: lfield&lt; T, t &gt; Pages: 1 -->
<svg width="155pt" height="409pt"
 viewBox="0.00 0.00 155.00 409.00" xmlns="http://www.w3.org/2000/svg" xmlns:xlink="http://www.w3.org/1999/xlink">
<g id="graph0" class="graph" transform="scale(1 1) rotate(0) translate(4 405)">
<title>lfield&lt; T, t &gt;</title>
<polygon fill="#ffffff" stroke="transparent" points="-4,4 -4,-405 151,-405 151,4 -4,4"/>
<!-- Node2 -->
<g id="node1" class="node">
<title>Node2</title>
<polygon fill="#bfbfbf" stroke="#000000" points="0,-.5 0,-167.5 147,-167.5 147,-.5 0,-.5"/>
<text text-anchor="middle" x="73.5" y="-155.5" font-family="Helvetica,sans-Serif" font-size="10.00" fill="#000000">lfield&lt; T, t &gt;</text>
<polyline fill="none" stroke="#000000" points="0,-148.5 147,-148.5 "/>
<text text-anchor="start" x="8" y="-136.5" font-family="Helvetica,sans-Serif" font-size="10.00" fill="#000000">+ Nyl</text>
<text text-anchor="start" x="8" y="-125.5" font-family="Helvetica,sans-Serif" font-size="10.00" fill="#000000">&#45; Nxl</text>
<text text-anchor="start" x="8" y="-114.5" font-family="Helvetica,sans-Serif" font-size="10.00" fill="#000000">&#45; Nyl</text>
<text text-anchor="start" x="8" y="-103.5" font-family="Helvetica,sans-Serif" font-size="10.00" fill="#000000">&#45; Nxl_buf</text>
<text text-anchor="start" x="8" y="-92.5" font-family="Helvetica,sans-Serif" font-size="10.00" fill="#000000">&#45; Nyl_buf</text>
<polyline fill="none" stroke="#000000" points="0,-85.5 147,-85.5 "/>
<text text-anchor="start" x="8" y="-73.5" font-family="Helvetica,sans-Serif" font-size="10.00" fill="#000000">+ lfield()</text>
<text text-anchor="start" x="8" y="-62.5" font-family="Helvetica,sans-Serif" font-size="10.00" fill="#000000">+ lfield()</text>
<text text-anchor="start" x="8" y="-51.5" font-family="Helvetica,sans-Serif" font-size="10.00" fill="#000000">+ ~lfield()</text>
<text text-anchor="start" x="8" y="-40.5" font-family="Helvetica,sans-Serif" font-size="10.00" fill="#000000">+ mpi_exchange_boundaries()</text>
<text text-anchor="start" x="8" y="-29.5" font-family="Helvetica,sans-Serif" font-size="10.00" fill="#000000">+ getNxl()</text>
<text text-anchor="start" x="8" y="-18.5" font-family="Helvetica,sans-Serif" font-size="10.00" fill="#000000">+ getNyl()</text>
<text text-anchor="start" x="8" y="-7.5" font-family="Helvetica,sans-Serif" font-size="10.00" fill="#000000">and 32 more...</text>
</g>
<!-- Node3 -->
<g id="node2" class="node">
<title>Node3</title>
<g id="a_node2"><a xlink:href="classfield.html" target="_top" xlink:title="Definition of the main class of type field. ">
<polygon fill="#ffffff" stroke="#000000" points="39.5,-205.5 39.5,-295.5 107.5,-295.5 107.5,-205.5 39.5,-205.5"/>
<text text-anchor="middle" x="73.5" y="-283.5" font-family="Helvetica,sans-Serif" font-size="10.00" fill="#000000">field&lt; T, t &gt;</text>
<polyline fill="none" stroke="#000000" points="39.5,-276.5 107.5,-276.5 "/>
<text text-anchor="start" x="47.5" y="-264.5" font-family="Helvetica,sans-Serif" font-size="10.00" fill="#000000">&#45; Nxl</text>
<text text-anchor="start" x="47.5" y="-253.5" font-family="Helvetica,sans-Serif" font-size="10.00" fill="#000000">&#45; Nyl</text>
<polyline fill="none" stroke="#000000" points="39.5,-246.5 107.5,-246.5 "/>
<text text-anchor="start" x="47.5" y="-234.5" font-family="Helvetica,sans-Serif" font-size="10.00" fill="#000000">+ field()</text>
<text text-anchor="start" x="47.5" y="-223.5" font-family="Helvetica,sans-Serif" font-size="10.00" fill="#000000">+ field()</text>
<text text-anchor="start" x="47.5" y="-212.5" font-family="Helvetica,sans-Serif" font-size="10.00" fill="#000000">+ ~field()</text>
</a>
</g>
</g>
<!-- Node3&#45;&gt;Node2 -->
<g id="edge1" class="edge">
<title>Node3&#45;&gt;Node2</title>
<path fill="none" stroke="#191970" d="M73.5,-195.2501C73.5,-186.3542 73.5,-176.9755 73.5,-167.5911"/>
<polygon fill="none" stroke="#191970" points="70.0001,-195.4427 73.5,-205.4427 77.0001,-195.4427 70.0001,-195.4427"/>
</g>
<!-- Node4 -->
<g id="node3" class="node">
<title>Node4</title>
<polygon fill="#ffffff" stroke="#bfbfbf" points="25,-343.5 25,-400.5 122,-400.5 122,-343.5 25,-343.5"/>
<text text-anchor="middle" x="73.5" y="-388.5" font-family="Helvetica,sans-Serif" font-size="10.00" fill="#000000">std::complex&lt; T &gt;</text>
<polyline fill="none" stroke="#bfbfbf" points="25,-381.5 122,-381.5 "/>
<text text-anchor="middle" x="73.5" y="-369.5" font-family="Helvetica,sans-Serif" font-size="10.00" fill="#000000"> </text>
<polyline fill="none" stroke="#bfbfbf" points="25,-362.5 122,-362.5 "/>
<text text-anchor="middle" x="73.5" y="-350.5" font-family="Helvetica,sans-Serif" font-size="10.00" fill="#000000"> </text>
</g>
<!-- Node4&#45;&gt;Node3 -->
<g id="edge2" class="edge">
<title>Node4&#45;&gt;Node3</title>
<path fill="none" stroke="#404040" d="M73.5,-343.2062C73.5,-332.5748 73.5,-320.1181 73.5,-307.847"/>
<polygon fill="none" stroke="#404040" points="73.5001,-307.7124 69.5,-301.7125 73.5,-295.7124 77.5,-301.7124 73.5001,-307.7124"/>
<text text-anchor="middle" x="81" y="-317" font-family="Helvetica,sans-Serif" font-size="10.00" fill="#000000"> +u</text>
</g>
</g>
</svg>
