<?xml version="1.0" encoding="UTF-8" standalone="no"?>
<!DOCTYPE svg PUBLIC "-//W3C//DTD SVG 1.1//EN"
 "http://www.w3.org/Graphics/SVG/1.1/DTD/svg11.dtd">
<!-- Generated by graphviz version 2.40.1 (20161225.0304)
 -->
<!-- Title: gfield::setCorrelationsForCouplingConstant Pages: 1 -->
<svg width="336pt" height="39pt"
 viewBox="0.00 0.00 336.00 39.00" xmlns="http://www.w3.org/2000/svg" xmlns:xlink="http://www.w3.org/1999/xlink">
<g id="graph0" class="graph" transform="scale(1 1) rotate(0) translate(4 35)">
<title>gfield::setCorrelationsForCouplingConstant</title>
<polygon fill="#ffffff" stroke="transparent" points="-4,4 -4,-35 332,-35 332,4 -4,4"/>
<!-- Node63 -->
<g id="node1" class="node">
<title>Node63</title>
<polygon fill="#bfbfbf" stroke="#000000" points="0,-.5 0,-30.5 126,-30.5 126,-.5 0,-.5"/>
<text text-anchor="start" x="8" y="-18.5" font-family="Helvetica,sans-Serif" font-size="10.00" fill="#000000">gfield::setCorrelationsFor</text>
<text text-anchor="middle" x="63" y="-7.5" font-family="Helvetica,sans-Serif" font-size="10.00" fill="#000000">CouplingConstant</text>
</g>
<!-- Node64 -->
<g id="node2" class="node">
<title>Node64</title>
<g id="a_node2"><a xlink:href="classlfield.html#a6220e9fc7f5d24c493f7ab3382fb36aa" target="_top" xlink:title="lfield::setToFixed">
<polygon fill="#ffffff" stroke="#000000" points="162,-6 162,-25 254,-25 254,-6 162,-6"/>
<text text-anchor="middle" x="208" y="-13" font-family="Helvetica,sans-Serif" font-size="10.00" fill="#000000">lfield::setToFixed</text>
</a>
</g>
</g>
<!-- Node63&#45;&gt;Node64 -->
<g id="edge1" class="edge">
<title>Node63&#45;&gt;Node64</title>
<path fill="none" stroke="#191970" d="M136.2743,-15.5C144.8946,-15.5 153.5003,-15.5 161.6039,-15.5"/>
<polygon fill="#191970" stroke="#191970" points="136.1773,-12.0001 126.1773,-15.5 136.1773,-19.0001 136.1773,-12.0001"/>
</g>
<!-- Node65 -->
<g id="node3" class="node">
<title>Node65</title>
<g id="a_node3"><a xlink:href="test__symmetrize__average2_8cpp.html#a0ddf1224851353fc92bfbff6f499fa97" target="_top" xlink:title="main">
<polygon fill="#ffffff" stroke="#000000" points="290,-6 290,-25 328,-25 328,-6 290,-6"/>
<text text-anchor="middle" x="309" y="-13" font-family="Helvetica,sans-Serif" font-size="10.00" fill="#000000">main</text>
</a>
</g>
</g>
<!-- Node64&#45;&gt;Node65 -->
<g id="edge2" class="edge">
<title>Node64&#45;&gt;Node65</title>
<path fill="none" stroke="#191970" d="M264.328,-15.5C273.3773,-15.5 282.1737,-15.5 289.5337,-15.5"/>
<polygon fill="#191970" stroke="#191970" points="264.0666,-12.0001 254.0666,-15.5 264.0666,-19.0001 264.0666,-12.0001"/>
</g>
</g>
</svg>
