<?xml version="1.0" encoding="UTF-8" standalone="no"?>
<!DOCTYPE svg PUBLIC "-//W3C//DTD SVG 1.1//EN"
 "http://www.w3.org/Graphics/SVG/1.1/DTD/svg11.dtd">
<!-- Generated by graphviz version 2.40.1 (20161225.0304)
 -->
<!-- Title: lfield::setToFixed Pages: 1 -->
<svg width="402pt" height="332pt"
 viewBox="0.00 0.00 402.00 332.00" xmlns="http://www.w3.org/2000/svg" xmlns:xlink="http://www.w3.org/1999/xlink">
<g id="graph0" class="graph" transform="scale(1 1) rotate(0) translate(4 328)">
<title>lfield::setToFixed</title>
<polygon fill="#ffffff" stroke="transparent" points="-4,4 -4,-328 398,-328 398,4 -4,4"/>
<!-- Node163 -->
<g id="node1" class="node">
<title>Node163</title>
<polygon fill="#bfbfbf" stroke="#000000" points="0,-152.5 0,-171.5 92,-171.5 92,-152.5 0,-152.5"/>
<text text-anchor="middle" x="46" y="-159.5" font-family="Helvetica,sans-Serif" font-size="10.00" fill="#000000">lfield::setToFixed</text>
</g>
<!-- Node164 -->
<g id="node2" class="node">
<title>Node164</title>
<g id="a_node2"><a xlink:href="classgfield.html#a8a7aa9669d548e51089535f807e0ae4b" target="_top" xlink:title="Returns a gfield with the matrices on all sites hermitian conjugated. ">
<polygon fill="#ffffff" stroke="#000000" points="148,-266.5 148,-285.5 234,-285.5 234,-266.5 148,-266.5"/>
<text text-anchor="middle" x="191" y="-273.5" font-family="Helvetica,sans-Serif" font-size="10.00" fill="#000000">gfield::hermitian</text>
</a>
</g>
</g>
<!-- Node163&#45;&gt;Node164 -->
<g id="edge1" class="edge">
<title>Node163&#45;&gt;Node164</title>
<path fill="none" stroke="#191970" d="M51.6788,-171.6707C63.4402,-190.8548 92.3655,-233.8661 128,-257 131.3013,-259.1432 134.8551,-261.0536 138.5336,-262.7552"/>
<polygon fill="#191970" stroke="#191970" points="137.2807,-266.0241 147.8615,-266.568 139.9293,-259.5445 137.2807,-266.0241"/>
</g>
<!-- Node165 -->
<g id="node3" class="node">
<title>Node165</title>
<g id="a_node3"><a xlink:href="classgfield.html#a9d5e1ced7bf2e0c89ce72eefc08e63ad" target="_top" xlink:title="gfield::operator=">
<polygon fill="#ffffff" stroke="#000000" points="147.5,-228.5 147.5,-247.5 234.5,-247.5 234.5,-228.5 147.5,-228.5"/>
<text text-anchor="middle" x="191" y="-235.5" font-family="Helvetica,sans-Serif" font-size="10.00" fill="#000000">gfield::operator=</text>
</a>
</g>
</g>
<!-- Node163&#45;&gt;Node165 -->
<g id="edge2" class="edge">
<title>Node163&#45;&gt;Node165</title>
<path fill="none" stroke="#191970" d="M64.3644,-171.6255C89.423,-184.7597 134.5283,-208.401 163.5945,-223.6358"/>
<polygon fill="#191970" stroke="#191970" points="162.3028,-226.9103 172.7848,-228.4527 165.5525,-220.7103 162.3028,-226.9103"/>
</g>
<!-- Node168 -->
<g id="node6" class="node">
<title>Node168</title>
<g id="a_node6"><a xlink:href="field_8h.html#a463f2cc1e2cd9fa4d1fc3f800835a2aa" target="_top" xlink:title="Simple print function. ">
<polygon fill="#ffffff" stroke="#000000" points="173.5,-152.5 173.5,-171.5 208.5,-171.5 208.5,-152.5 173.5,-152.5"/>
<text text-anchor="middle" x="191" y="-159.5" font-family="Helvetica,sans-Serif" font-size="10.00" fill="#000000">print</text>
</a>
</g>
</g>
<!-- Node163&#45;&gt;Node168 -->
<g id="edge5" class="edge">
<title>Node163&#45;&gt;Node168</title>
<path fill="none" stroke="#191970" d="M92.2776,-162C115.6022,-162 143.1117,-162 163.1589,-162"/>
<polygon fill="#191970" stroke="#191970" points="163.1771,-165.5001 173.177,-162 163.177,-158.5001 163.1771,-165.5001"/>
</g>
<!-- Node176 -->
<g id="node14" class="node">
<title>Node176</title>
<g id="a_node14"><a xlink:href="classgfield.html#aa7216414b47a54279908e9572ac5f488" target="_top" xlink:title="Simple print function. ">
<polygon fill="#ffffff" stroke="#000000" points="144.5,-114.5 144.5,-133.5 237.5,-133.5 237.5,-114.5 144.5,-114.5"/>
<text text-anchor="middle" x="191" y="-121.5" font-family="Helvetica,sans-Serif" font-size="10.00" fill="#000000">gfield::printDebug</text>
</a>
</g>
</g>
<!-- Node163&#45;&gt;Node176 -->
<g id="edge13" class="edge">
<title>Node163&#45;&gt;Node176</title>
<path fill="none" stroke="#191970" d="M82.5896,-152.411C101.4654,-147.4642 124.6859,-141.3789 144.7879,-136.1108"/>
<polygon fill="#191970" stroke="#191970" points="145.8875,-139.4409 154.6735,-133.5201 144.1129,-132.6695 145.8875,-139.4409"/>
</g>
<!-- Node177 -->
<g id="node15" class="node">
<title>Node177</title>
<g id="a_node15"><a xlink:href="classgfield.html#a39a5a9c26ecccd46720fd6d2369302b2" target="_top" xlink:title="gfield::setCorrelationsFor\lCouplingConstant">
<polygon fill="#ffffff" stroke="#000000" points="128,-65 128,-95 254,-95 254,-65 128,-65"/>
<text text-anchor="start" x="136" y="-83" font-family="Helvetica,sans-Serif" font-size="10.00" fill="#000000">gfield::setCorrelationsFor</text>
<text text-anchor="middle" x="191" y="-72" font-family="Helvetica,sans-Serif" font-size="10.00" fill="#000000">CouplingConstant</text>
</a>
</g>
</g>
<!-- Node163&#45;&gt;Node177 -->
<g id="edge14" class="edge">
<title>Node163&#45;&gt;Node177</title>
<path fill="none" stroke="#191970" d="M57.9355,-152.3834C73.4153,-140.2288 101.572,-119.1849 128,-105 131.7325,-102.9966 135.6611,-101.0623 139.6568,-99.2172"/>
<polygon fill="#191970" stroke="#191970" points="141.3007,-102.3177 149.0413,-95.0836 138.4789,-95.9116 141.3007,-102.3177"/>
</g>
<!-- Node166 -->
<g id="node4" class="node">
<title>Node166</title>
<g id="a_node4"><a xlink:href="classgfield.html#a53fa88cad304f3381b70aef740e903b4" target="_top" xlink:title="gfield::getNxg">
<polygon fill="#ffffff" stroke="#000000" points="303.5,-304.5 303.5,-323.5 380.5,-323.5 380.5,-304.5 303.5,-304.5"/>
<text text-anchor="middle" x="342" y="-311.5" font-family="Helvetica,sans-Serif" font-size="10.00" fill="#000000">gfield::getNxg</text>
</a>
</g>
</g>
<!-- Node165&#45;&gt;Node166 -->
<g id="edge3" class="edge">
<title>Node165&#45;&gt;Node166</title>
<path fill="none" stroke="#191970" d="M233.655,-247.5543C240.7281,-250.0552 247.777,-253.1618 254,-257 273.801,-269.2129 270.5576,-282.2239 290,-295 292.9406,-296.9324 296.1037,-298.7006 299.3653,-300.3122"/>
<polygon fill="#191970" stroke="#191970" points="298.1544,-303.6035 308.7158,-304.4451 300.9844,-297.2011 298.1544,-303.6035"/>
</g>
<!-- Node167 -->
<g id="node5" class="node">
<title>Node167</title>
<g id="a_node5"><a xlink:href="classgfield.html#a12884fdf0eca769d389e04c4200263d2" target="_top" xlink:title="gfield::getNyg">
<polygon fill="#ffffff" stroke="#000000" points="303.5,-266.5 303.5,-285.5 380.5,-285.5 380.5,-266.5 303.5,-266.5"/>
<text text-anchor="middle" x="342" y="-273.5" font-family="Helvetica,sans-Serif" font-size="10.00" fill="#000000">gfield::getNyg</text>
</a>
</g>
</g>
<!-- Node165&#45;&gt;Node167 -->
<g id="edge4" class="edge">
<title>Node165&#45;&gt;Node167</title>
<path fill="none" stroke="#191970" d="M229.1037,-247.589C248.94,-252.5809 273.3839,-258.7324 294.4483,-264.0334"/>
<polygon fill="#191970" stroke="#191970" points="293.6185,-267.4336 304.1703,-266.4799 295.3269,-260.6452 293.6185,-267.4336"/>
</g>
<!-- Node169 -->
<g id="node7" class="node">
<title>Node169</title>
<g id="a_node7"><a xlink:href="classlfield.html#a6525c9ba54e57f27ff551fc3f6169f14" target="_top" xlink:title="lfield::getNxl">
<polygon fill="#ffffff" stroke="#000000" points="306.5,-228.5 306.5,-247.5 377.5,-247.5 377.5,-228.5 306.5,-228.5"/>
<text text-anchor="middle" x="342" y="-235.5" font-family="Helvetica,sans-Serif" font-size="10.00" fill="#000000">lfield::getNxl</text>
</a>
</g>
</g>
<!-- Node168&#45;&gt;Node169 -->
<g id="edge6" class="edge">
<title>Node168&#45;&gt;Node169</title>
<path fill="none" stroke="#191970" d="M205.6658,-171.5169C224.6251,-183.5661 258.9044,-204.4989 290,-219 294.3446,-221.026 298.97,-222.9838 303.602,-224.823"/>
<polygon fill="#191970" stroke="#191970" points="302.4402,-228.1257 313.031,-228.4156 304.9325,-221.5844 302.4402,-228.1257"/>
</g>
<!-- Node170 -->
<g id="node8" class="node">
<title>Node170</title>
<g id="a_node8"><a xlink:href="classlfield.html#a7eba0ea85f6f0df54a45cf97cd3ad53d" target="_top" xlink:title="lfield::getNyl">
<polygon fill="#ffffff" stroke="#000000" points="306.5,-190.5 306.5,-209.5 377.5,-209.5 377.5,-190.5 306.5,-190.5"/>
<text text-anchor="middle" x="342" y="-197.5" font-family="Helvetica,sans-Serif" font-size="10.00" fill="#000000">lfield::getNyl</text>
</a>
</g>
</g>
<!-- Node168&#45;&gt;Node170 -->
<g id="edge7" class="edge">
<title>Node168&#45;&gt;Node170</title>
<path fill="none" stroke="#191970" d="M208.6171,-166.4335C230.0752,-171.8335 267.1229,-181.1568 296.7363,-188.6091"/>
<polygon fill="#191970" stroke="#191970" points="295.909,-192.01 306.4608,-191.0564 297.6173,-185.2216 295.909,-192.01"/>
</g>
<!-- Node171 -->
<g id="node9" class="node">
<title>Node171</title>
<g id="a_node9"><a xlink:href="classmpi__class.html#ab876ade2f1b994bb1c920d1de9375cf6" target="_top" xlink:title="mpi_class::getPosX">
<polygon fill="#ffffff" stroke="#000000" points="290,-152.5 290,-171.5 394,-171.5 394,-152.5 290,-152.5"/>
<text text-anchor="middle" x="342" y="-159.5" font-family="Helvetica,sans-Serif" font-size="10.00" fill="#000000">mpi_class::getPosX</text>
</a>
</g>
</g>
<!-- Node168&#45;&gt;Node171 -->
<g id="edge8" class="edge">
<title>Node168&#45;&gt;Node171</title>
<path fill="none" stroke="#191970" d="M208.6171,-162C226.1306,-162 254.029,-162 279.7944,-162"/>
<polygon fill="#191970" stroke="#191970" points="279.913,-165.5001 289.913,-162 279.9129,-158.5001 279.913,-165.5001"/>
</g>
<!-- Node172 -->
<g id="node10" class="node">
<title>Node172</title>
<g id="a_node10"><a xlink:href="classmpi__class.html#aa894e45879f0e9a081efd4d4118b2491" target="_top" xlink:title="mpi_class::getPosY">
<polygon fill="#ffffff" stroke="#000000" points="290,-114.5 290,-133.5 394,-133.5 394,-114.5 290,-114.5"/>
<text text-anchor="middle" x="342" y="-121.5" font-family="Helvetica,sans-Serif" font-size="10.00" fill="#000000">mpi_class::getPosY</text>
</a>
</g>
</g>
<!-- Node168&#45;&gt;Node172 -->
<g id="edge9" class="edge">
<title>Node168&#45;&gt;Node172</title>
<path fill="none" stroke="#191970" d="M208.6171,-157.5665C229.4251,-152.3301 264.8926,-143.4045 294.0252,-136.0731"/>
<polygon fill="#191970" stroke="#191970" points="295.1877,-139.3898 304.0311,-133.5551 293.4793,-132.6014 295.1877,-139.3898"/>
</g>
<!-- Node173 -->
<g id="node11" class="node">
<title>Node173</title>
<g id="a_node11"><a xlink:href="classmpi__class.html#a6ba81c7f035bcbbb4c5c1273d0850aba" target="_top" xlink:title="mpi_class::getRank">
<polygon fill="#ffffff" stroke="#000000" points="290,-76.5 290,-95.5 394,-95.5 394,-76.5 290,-76.5"/>
<text text-anchor="middle" x="342" y="-83.5" font-family="Helvetica,sans-Serif" font-size="10.00" fill="#000000">mpi_class::getRank</text>
</a>
</g>
</g>
<!-- Node168&#45;&gt;Node173 -->
<g id="edge10" class="edge">
<title>Node168&#45;&gt;Node173</title>
<path fill="none" stroke="#191970" d="M208.5845,-159.2309C221.815,-156.5681 239.9984,-151.6359 254,-143 273.801,-130.7871 270.5576,-117.7761 290,-105 292.9406,-103.0676 296.1037,-101.2994 299.3653,-99.6878"/>
<polygon fill="#191970" stroke="#191970" points="300.9844,-102.7989 308.7158,-95.5549 298.1544,-96.3965 300.9844,-102.7989"/>
</g>
<!-- Node174 -->
<g id="node12" class="node">
<title>Node174</title>
<g id="a_node12"><a xlink:href="classmpi__class.html#af78626438bee67b2eacf5bd583d4e4ce" target="_top" xlink:title="mpi_class::getSize">
<polygon fill="#ffffff" stroke="#000000" points="292,-38.5 292,-57.5 392,-57.5 392,-38.5 292,-38.5"/>
<text text-anchor="middle" x="342" y="-45.5" font-family="Helvetica,sans-Serif" font-size="10.00" fill="#000000">mpi_class::getSize</text>
</a>
</g>
</g>
<!-- Node168&#45;&gt;Node174 -->
<g id="edge11" class="edge">
<title>Node168&#45;&gt;Node174</title>
<path fill="none" stroke="#191970" d="M208.6154,-160.5578C222.3884,-158.5937 241.2718,-153.955 254,-143 282.328,-118.6184 262.3833,-92.1845 290,-67 291.7311,-65.4214 293.604,-63.9711 295.5759,-62.6391"/>
<polygon fill="#191970" stroke="#191970" points="297.7033,-65.4596 304.7238,-57.5246 294.2873,-59.3497 297.7033,-65.4596"/>
</g>
<!-- Node175 -->
<g id="node13" class="node">
<title>Node175</title>
<g id="a_node13"><a xlink:href="classmomenta.html#a5b2ec8b44c4874d8e18036c8927461db" target="_top" xlink:title="momenta::phat2">
<polygon fill="#ffffff" stroke="#000000" points="298.5,-.5 298.5,-19.5 385.5,-19.5 385.5,-.5 298.5,-.5"/>
<text text-anchor="middle" x="342" y="-7.5" font-family="Helvetica,sans-Serif" font-size="10.00" fill="#000000">momenta::phat2</text>
</a>
</g>
</g>
<!-- Node168&#45;&gt;Node175 -->
<g id="edge12" class="edge">
<title>Node168&#45;&gt;Node175</title>
<path fill="none" stroke="#191970" d="M208.7525,-161.0504C222.791,-159.3722 241.9672,-154.8778 254,-143 291.8135,-105.6737 253.2733,-67.3961 290,-29 291.3952,-27.5414 292.9114,-26.1943 294.5194,-24.9501"/>
<polygon fill="#191970" stroke="#191970" points="296.5524,-27.8072 303.1886,-19.5482 292.8505,-21.8662 296.5524,-27.8072"/>
</g>
</g>
</svg>
