<?xml version="1.0" encoding="UTF-8" standalone="no"?>
<!DOCTYPE svg PUBLIC "-//W3C//DTD SVG 1.1//EN"
 "http://www.w3.org/Graphics/SVG/1.1/DTD/svg11.dtd">
<!-- Generated by graphviz version 2.40.1 (20161225.0304)
 -->
<!-- Title: gfield::setKernelXbarX Pages: 1 -->
<svg width="245pt" height="104pt"
 viewBox="0.00 0.00 245.00 104.00" xmlns="http://www.w3.org/2000/svg" xmlns:xlink="http://www.w3.org/1999/xlink">
<g id="graph0" class="graph" transform="scale(1 1) rotate(0) translate(4 100)">
<title>gfield::setKernelXbarX</title>
<polygon fill="#ffffff" stroke="transparent" points="-4,4 -4,-100 241,-100 241,4 -4,4"/>
<!-- Node63 -->
<g id="node1" class="node">
<title>Node63</title>
<polygon fill="#bfbfbf" stroke="#000000" points="0,-38.5 0,-57.5 114,-57.5 114,-38.5 0,-38.5"/>
<text text-anchor="middle" x="57" y="-45.5" font-family="Helvetica,sans-Serif" font-size="10.00" fill="#000000">gfield::setKernelXbarX</text>
</g>
<!-- Node64 -->
<g id="node2" class="node">
<title>Node64</title>
<g id="a_node2"><a xlink:href="classpositions.html#a6dbe3d67f866039efa6736ed9a7fb210" target="_top" xlink:title="positions::xbar2">
<polygon fill="#ffffff" stroke="#000000" points="150.5,-76.5 150.5,-95.5 236.5,-95.5 236.5,-76.5 150.5,-76.5"/>
<text text-anchor="middle" x="193.5" y="-83.5" font-family="Helvetica,sans-Serif" font-size="10.00" fill="#000000">positions::xbar2</text>
</a>
</g>
</g>
<!-- Node63&#45;&gt;Node64 -->
<g id="edge1" class="edge">
<title>Node63&#45;&gt;Node64</title>
<path fill="none" stroke="#191970" d="M91.4447,-57.589C108.9847,-62.4719 130.51,-68.4643 149.2631,-73.685"/>
<polygon fill="#191970" stroke="#191970" points="148.494,-77.1039 159.0663,-76.4141 150.3713,-70.3603 148.494,-77.1039"/>
</g>
<!-- Node65 -->
<g id="node3" class="node">
<title>Node65</title>
<g id="a_node3"><a xlink:href="classpositions.html#a77d78afe9d418da5a6f5ba15e123e402" target="_top" xlink:title="positions::xhatX">
<polygon fill="#ffffff" stroke="#000000" points="150,-38.5 150,-57.5 237,-57.5 237,-38.5 150,-38.5"/>
<text text-anchor="middle" x="193.5" y="-45.5" font-family="Helvetica,sans-Serif" font-size="10.00" fill="#000000">positions::xhatX</text>
</a>
</g>
</g>
<!-- Node63&#45;&gt;Node65 -->
<g id="edge2" class="edge">
<title>Node63&#45;&gt;Node65</title>
<path fill="none" stroke="#191970" d="M114.0974,-48C122.6152,-48 131.3713,-48 139.8153,-48"/>
<polygon fill="#191970" stroke="#191970" points="139.9235,-51.5001 149.9235,-48 139.9235,-44.5001 139.9235,-51.5001"/>
</g>
<!-- Node66 -->
<g id="node4" class="node">
<title>Node66</title>
<g id="a_node4"><a xlink:href="classpositions.html#a7c323a6022ee85bf1312d56d9726c308" target="_top" xlink:title="positions::xhatY">
<polygon fill="#ffffff" stroke="#000000" points="150,-.5 150,-19.5 237,-19.5 237,-.5 150,-.5"/>
<text text-anchor="middle" x="193.5" y="-7.5" font-family="Helvetica,sans-Serif" font-size="10.00" fill="#000000">positions::xhatY</text>
</a>
</g>
</g>
<!-- Node63&#45;&gt;Node66 -->
<g id="edge3" class="edge">
<title>Node63&#45;&gt;Node66</title>
<path fill="none" stroke="#191970" d="M91.4447,-38.411C108.9847,-33.5281 130.51,-27.5357 149.2631,-22.315"/>
<polygon fill="#191970" stroke="#191970" points="150.3713,-25.6397 159.0663,-19.5859 148.494,-18.8961 150.3713,-25.6397"/>
</g>
</g>
</svg>
