<?xml version="1.0" encoding="UTF-8" standalone="no"?>
<!DOCTYPE svg PUBLIC "-//W3C//DTD SVG 1.1//EN"
 "http://www.w3.org/Graphics/SVG/1.1/DTD/svg11.dtd">
<!-- Generated by graphviz version 2.40.1 (20161225.0304)
 -->
<!-- Title: lfield::getNxl Pages: 1 -->
<svg width="446pt" height="572pt"
 viewBox="0.00 0.00 446.00 571.50" xmlns="http://www.w3.org/2000/svg" xmlns:xlink="http://www.w3.org/1999/xlink">
<g id="graph0" class="graph" transform="scale(1 1) rotate(0) translate(4 567.5)">
<title>lfield::getNxl</title>
<polygon fill="#ffffff" stroke="transparent" points="-4,4 -4,-567.5 442,-567.5 442,4 -4,4"/>
<!-- Node26 -->
<g id="node1" class="node">
<title>Node26</title>
<polygon fill="#bfbfbf" stroke="#000000" points="0,-266.5 0,-285.5 71,-285.5 71,-266.5 0,-266.5"/>
<text text-anchor="middle" x="35.5" y="-273.5" font-family="Helvetica,sans-Serif" font-size="10.00" fill="#000000">lfield::getNxl</text>
</g>
<!-- Node27 -->
<g id="node2" class="node">
<title>Node27</title>
<g id="a_node2"><a xlink:href="classgfield.html#a0dcff590c53a428a50567d25d10404e2" target="_top" xlink:title="Specialization of the MPI Allgather function to the lfield class. ">
<polygon fill="#ffffff" stroke="#000000" points="130,-38.5 130,-57.5 213,-57.5 213,-38.5 130,-38.5"/>
<text text-anchor="middle" x="171.5" y="-45.5" font-family="Helvetica,sans-Serif" font-size="10.00" fill="#000000">gfield::allgather</text>
</a>
</g>
</g>
<!-- Node26&#45;&gt;Node27 -->
<g id="edge1" class="edge">
<title>Node26&#45;&gt;Node27</title>
<path fill="none" stroke="#191970" d="M36.4284,-256.4144C39.453,-215.2767 52.3181,-119.3716 107,-67 113.323,-60.9441 121.4772,-56.8058 129.8469,-53.9813"/>
<polygon fill="#191970" stroke="#191970" points="32.9297,-256.2875 35.8098,-266.4834 39.9166,-256.7169 32.9297,-256.2875"/>
</g>
<!-- Node29 -->
<g id="node4" class="node">
<title>Node29</title>
<g id="a_node4"><a xlink:href="field_8h.html#a87926e17588c01dfa811c26d05bf8792" target="_top" xlink:title="Method for generation of the noise vectors with a gaussian distribution in the Lie algebra...">
<polygon fill="#ffffff" stroke="#000000" points="122.5,-190.5 122.5,-209.5 220.5,-209.5 220.5,-190.5 122.5,-190.5"/>
<text text-anchor="middle" x="171.5" y="-197.5" font-family="Helvetica,sans-Serif" font-size="10.00" fill="#000000">generate_gaussian</text>
</a>
</g>
</g>
<!-- Node26&#45;&gt;Node29 -->
<g id="edge3" class="edge">
<title>Node26&#45;&gt;Node29</title>
<path fill="none" stroke="#191970" d="M52.9103,-258.8992C66.6064,-246.2893 86.7075,-229.5581 107,-219 114.2491,-215.2283 122.3563,-212.0987 130.3105,-209.542"/>
<polygon fill="#191970" stroke="#191970" points="50.1281,-256.713 45.2658,-266.1262 54.937,-261.7997 50.1281,-256.713"/>
</g>
<!-- Node31 -->
<g id="node6" class="node">
<title>Node31</title>
<g id="a_node6"><a xlink:href="field_8h.html#ab1991c064deb041673a7fd9e56ddcc0b" target="_top" xlink:title="Method for generation of the noise vectors with a gaussian distribution rescaled by the coupling cons...">
<polygon fill="#ffffff" stroke="#000000" points="107,-533 107,-563 236,-563 236,-533 107,-533"/>
<text text-anchor="start" x="115" y="-551" font-family="Helvetica,sans-Serif" font-size="10.00" fill="#000000">generate_gaussian_with</text>
<text text-anchor="middle" x="171.5" y="-540" font-family="Helvetica,sans-Serif" font-size="10.00" fill="#000000">_noise_coupling_constant</text>
</a>
</g>
</g>
<!-- Node26&#45;&gt;Node31 -->
<g id="edge5" class="edge">
<title>Node26&#45;&gt;Node31</title>
<path fill="none" stroke="#191970" d="M38.8869,-295.7177C48.2296,-348.0665 75.7531,-488.875 107,-523 110.5686,-526.8973 114.8158,-530.1934 119.4031,-532.9798"/>
<polygon fill="#191970" stroke="#191970" points="42.3049,-294.9452 37.1297,-285.7003 35.4102,-296.1547 42.3049,-294.9452"/>
</g>
<!-- Node32 -->
<g id="node7" class="node">
<title>Node32</title>
<g id="a_node7"><a xlink:href="classlfield.html#a20b8f55a07ab66eda4152d1e4dc78b36" target="_top" xlink:title="lfield::lfield">
<polygon fill="#ffffff" stroke="#000000" points="140,-418.5 140,-437.5 203,-437.5 203,-418.5 140,-418.5"/>
<text text-anchor="middle" x="171.5" y="-425.5" font-family="Helvetica,sans-Serif" font-size="10.00" fill="#000000">lfield::lfield</text>
</a>
</g>
</g>
<!-- Node26&#45;&gt;Node32 -->
<g id="edge7" class="edge">
<title>Node26&#45;&gt;Node32</title>
<path fill="none" stroke="#191970" d="M40.7166,-295.4822C49.4983,-324.5237 70.0058,-378.9617 107,-409 116.3343,-416.5792 128.5987,-421.1352 139.9243,-423.8739"/>
<polygon fill="#191970" stroke="#191970" points="44.0328,-294.349 37.915,-285.699 37.3033,-296.2762 44.0328,-294.349"/>
</g>
<!-- Node33 -->
<g id="node8" class="node">
<title>Node33</title>
<g id="a_node8"><a xlink:href="field_8h.html#a3bdeaa38edf27a3f664c8312f15f8a88" target="_top" xlink:title="operator*">
<polygon fill="#ffffff" stroke="#000000" points="143.5,-380.5 143.5,-399.5 199.5,-399.5 199.5,-380.5 143.5,-380.5"/>
<text text-anchor="middle" x="171.5" y="-387.5" font-family="Helvetica,sans-Serif" font-size="10.00" fill="#000000">operator*</text>
</a>
</g>
</g>
<!-- Node26&#45;&gt;Node33 -->
<g id="edge8" class="edge">
<title>Node26&#45;&gt;Node33</title>
<path fill="none" stroke="#191970" d="M44.8628,-294.8259C56.5231,-316.3655 78.4392,-351.2061 107,-371 117.746,-378.4475 131.435,-383.0151 143.435,-385.7973"/>
<polygon fill="#191970" stroke="#191970" points="47.8348,-292.9555 40.1089,-285.7057 41.6275,-296.1911 47.8348,-292.9555"/>
</g>
<!-- Node34 -->
<g id="node9" class="node">
<title>Node34</title>
<g id="a_node9"><a xlink:href="classlfield.html#ad794d8e7e1cb4685d665e0b474f8901b" target="_top" xlink:title="Overloaded multiplication and assignement operator. ">
<polygon fill="#ffffff" stroke="#000000" points="127.5,-342.5 127.5,-361.5 215.5,-361.5 215.5,-342.5 127.5,-342.5"/>
<text text-anchor="middle" x="171.5" y="-349.5" font-family="Helvetica,sans-Serif" font-size="10.00" fill="#000000">lfield::operator*=</text>
</a>
</g>
</g>
<!-- Node26&#45;&gt;Node34 -->
<g id="edge9" class="edge">
<title>Node26&#45;&gt;Node34</title>
<path fill="none" stroke="#191970" d="M52.9103,-293.1008C66.6064,-305.7107 86.7075,-322.4419 107,-333 114.2491,-336.7717 122.3563,-339.9013 130.3105,-342.458"/>
<polygon fill="#191970" stroke="#191970" points="54.937,-290.2003 45.2658,-285.8738 50.1281,-295.287 54.937,-290.2003"/>
</g>
<!-- Node35 -->
<g id="node10" class="node">
<title>Node35</title>
<g id="a_node10"><a xlink:href="field_8h.html#a3b4f42aa9c3b63b4579c4ce8922a9fb4" target="_top" xlink:title="operator+">
<polygon fill="#ffffff" stroke="#000000" points="142.5,-304.5 142.5,-323.5 200.5,-323.5 200.5,-304.5 142.5,-304.5"/>
<text text-anchor="middle" x="171.5" y="-311.5" font-family="Helvetica,sans-Serif" font-size="10.00" fill="#000000">operator+</text>
</a>
</g>
</g>
<!-- Node26&#45;&gt;Node35 -->
<g id="edge10" class="edge">
<title>Node26&#45;&gt;Node35</title>
<path fill="none" stroke="#191970" d="M79.5926,-288.32C100.1278,-294.0578 123.9961,-300.7269 142.262,-305.8305"/>
<polygon fill="#191970" stroke="#191970" points="80.3915,-284.9092 69.8185,-285.589 78.5078,-291.651 80.3915,-284.9092"/>
</g>
<!-- Node36 -->
<g id="node11" class="node">
<title>Node36</title>
<g id="a_node11"><a xlink:href="classlfield.html#a1b2ecd36f95f102bbfc308915e37477e" target="_top" xlink:title="lfield::operator+=">
<polygon fill="#ffffff" stroke="#000000" points="126.5,-266.5 126.5,-285.5 216.5,-285.5 216.5,-266.5 126.5,-266.5"/>
<text text-anchor="middle" x="171.5" y="-273.5" font-family="Helvetica,sans-Serif" font-size="10.00" fill="#000000">lfield::operator+=</text>
</a>
</g>
</g>
<!-- Node26&#45;&gt;Node36 -->
<g id="edge11" class="edge">
<title>Node26&#45;&gt;Node36</title>
<path fill="none" stroke="#191970" d="M81.4507,-276C95.9052,-276 111.8502,-276 126.2553,-276"/>
<polygon fill="#191970" stroke="#191970" points="81.2324,-272.5001 71.2324,-276 81.2324,-279.5001 81.2324,-272.5001"/>
</g>
<!-- Node37 -->
<g id="node12" class="node">
<title>Node37</title>
<g id="a_node12"><a xlink:href="classlfield.html#a7dbe6c485025a80aa097f772be931e19" target="_top" xlink:title="lfield::operator=">
<polygon fill="#ffffff" stroke="#000000" points="129.5,-228.5 129.5,-247.5 213.5,-247.5 213.5,-228.5 129.5,-228.5"/>
<text text-anchor="middle" x="171.5" y="-235.5" font-family="Helvetica,sans-Serif" font-size="10.00" fill="#000000">lfield::operator=</text>
</a>
</g>
</g>
<!-- Node26&#45;&gt;Node37 -->
<g id="edge12" class="edge">
<title>Node26&#45;&gt;Node37</title>
<path fill="none" stroke="#191970" d="M79.5866,-263.6817C98.2722,-258.4607 119.7183,-252.4684 137.1924,-247.5859"/>
<polygon fill="#191970" stroke="#191970" points="78.5078,-260.349 69.8185,-266.411 80.3915,-267.0908 78.5078,-260.349"/>
</g>
<!-- Node38 -->
<g id="node13" class="node">
<title>Node38</title>
<g id="a_node13"><a xlink:href="field_8h.html#a775fa9c6bfba32acd280006a6fd3e524" target="_top" xlink:title="Optimized method for the evaluation of the A and B matrices. ">
<polygon fill="#ffffff" stroke="#000000" points="128.5,-494.5 128.5,-513.5 214.5,-513.5 214.5,-494.5 128.5,-494.5"/>
<text text-anchor="middle" x="171.5" y="-501.5" font-family="Helvetica,sans-Serif" font-size="10.00" fill="#000000">prepare_A_local</text>
</a>
</g>
</g>
<!-- Node26&#45;&gt;Node38 -->
<g id="edge13" class="edge">
<title>Node26&#45;&gt;Node38</title>
<path fill="none" stroke="#191970" d="M36.4284,-295.5856C39.453,-336.7233 52.3181,-432.6284 107,-485 112.9015,-490.6522 120.3981,-494.6339 128.1763,-497.4361"/>
<polygon fill="#191970" stroke="#191970" points="39.9166,-295.2831 35.8098,-285.5166 32.9297,-295.7125 39.9166,-295.2831"/>
</g>
<!-- Node39 -->
<g id="node14" class="node">
<title>Node39</title>
<g id="a_node14"><a xlink:href="field_8h.html#a463f2cc1e2cd9fa4d1fc3f800835a2aa" target="_top" xlink:title="Simple print function. ">
<polygon fill="#ffffff" stroke="#000000" points="154,-.5 154,-19.5 189,-19.5 189,-.5 154,-.5"/>
<text text-anchor="middle" x="171.5" y="-7.5" font-family="Helvetica,sans-Serif" font-size="10.00" fill="#000000">print</text>
</a>
</g>
</g>
<!-- Node26&#45;&gt;Node39 -->
<g id="edge15" class="edge">
<title>Node26&#45;&gt;Node39</title>
<path fill="none" stroke="#191970" d="M38.7355,-256.1377C47.6992,-203.4272 74.3594,-61.7944 107,-29 119.3527,-16.5892 139.3739,-12.1991 153.8361,-10.6915"/>
<polygon fill="#191970" stroke="#191970" points="35.2458,-255.7867 37.0528,-266.2263 42.1504,-256.9384 35.2458,-255.7867"/>
</g>
<!-- Node42 -->
<g id="node17" class="node">
<title>Node42</title>
<g id="a_node17"><a xlink:href="classgfield.html#a743dc1eeb1b0756557a3173895df1c8d" target="_top" xlink:title="The method reduces the global gfield object into local lfield sum and lfield err objects: each MPI ra...">
<polygon fill="#ffffff" stroke="#000000" points="134,-114.5 134,-133.5 209,-133.5 209,-114.5 134,-114.5"/>
<text text-anchor="middle" x="171.5" y="-121.5" font-family="Helvetica,sans-Serif" font-size="10.00" fill="#000000">gfield::reduce</text>
</a>
</g>
</g>
<!-- Node26&#45;&gt;Node42 -->
<g id="edge19" class="edge">
<title>Node26&#45;&gt;Node42</title>
<path fill="none" stroke="#191970" d="M40.7166,-256.5178C49.4983,-227.4763 70.0058,-173.0383 107,-143 114.7031,-136.7453 124.4016,-132.5495 133.9213,-129.7348"/>
<polygon fill="#191970" stroke="#191970" points="37.3033,-255.7238 37.915,-266.301 44.0328,-257.651 37.3033,-255.7238"/>
</g>
<!-- Node43 -->
<g id="node18" class="node">
<title>Node43</title>
<g id="a_node18"><a xlink:href="classgfield.html#a16112e9685d6442818f2a308811620f6" target="_top" xlink:title="The method reduces the global gfield object into local lfield sum and lfield err objects: each MPI ra...">
<polygon fill="#ffffff" stroke="#000000" points="120.5,-76.5 120.5,-95.5 222.5,-95.5 222.5,-76.5 120.5,-76.5"/>
<text text-anchor="middle" x="171.5" y="-83.5" font-family="Helvetica,sans-Serif" font-size="10.00" fill="#000000">gfield::reduce_hatta</text>
</a>
</g>
</g>
<!-- Node26&#45;&gt;Node43 -->
<g id="edge20" class="edge">
<title>Node26&#45;&gt;Node43</title>
<path fill="none" stroke="#191970" d="M38.1906,-256.12C44.0646,-220.5405 61.3717,-145.8842 107,-105 111.3471,-101.1049 116.4565,-98.0066 121.8648,-95.5423"/>
<polygon fill="#191970" stroke="#191970" points="34.7,-255.7951 36.6638,-266.2064 41.6211,-256.8429 34.7,-255.7951"/>
</g>
<!-- Node44 -->
<g id="node19" class="node">
<title>Node44</title>
<g id="a_node19"><a xlink:href="field_8h.html#aea30ef7d1293ae1aa73d254f8eaef4c7" target="_top" xlink:title="Main method for the advance of the Wilson lines in rapidity according to the Langevin equation...">
<polygon fill="#ffffff" stroke="#000000" points="142,-152.5 142,-171.5 201,-171.5 201,-152.5 142,-152.5"/>
<text text-anchor="middle" x="171.5" y="-159.5" font-family="Helvetica,sans-Serif" font-size="10.00" fill="#000000">update_uf</text>
</a>
</g>
</g>
<!-- Node26&#45;&gt;Node44 -->
<g id="edge21" class="edge">
<title>Node26&#45;&gt;Node44</title>
<path fill="none" stroke="#191970" d="M44.8628,-257.1741C56.5231,-235.6345 78.4392,-200.7939 107,-181 117.2663,-173.885 130.2186,-169.3984 141.8181,-166.5861"/>
<polygon fill="#191970" stroke="#191970" points="41.6275,-255.8089 40.1089,-266.2943 47.8348,-259.0445 41.6275,-255.8089"/>
</g>
<!-- Node45 -->
<g id="node20" class="node">
<title>Node45</title>
<g id="a_node20"><a xlink:href="field_8h.html#a127febd6e7d0a0da0fc2d4fee0081bd4" target="_top" xlink:title="Optimized method to compute the product of Wilson line U, noise vector xi and hermitian conjugate of ...">
<polygon fill="#ffffff" stroke="#000000" points="144,-456.5 144,-475.5 199,-475.5 199,-456.5 144,-456.5"/>
<text text-anchor="middle" x="171.5" y="-463.5" font-family="Helvetica,sans-Serif" font-size="10.00" fill="#000000">uxiulocal</text>
</a>
</g>
</g>
<!-- Node26&#45;&gt;Node45 -->
<g id="edge23" class="edge">
<title>Node26&#45;&gt;Node45</title>
<path fill="none" stroke="#191970" d="M38.1906,-295.88C44.0646,-331.4595 61.3717,-406.1158 107,-447 117.0852,-456.0366 131.2739,-460.7849 143.7767,-463.2758"/>
<polygon fill="#191970" stroke="#191970" points="41.6211,-295.1571 36.6638,-285.7936 34.7,-296.2049 41.6211,-295.1571"/>
</g>
<!-- Node28 -->
<g id="node3" class="node">
<title>Node28</title>
<g id="a_node3"><a xlink:href="main__explicit_8cpp.html#a0ddf1224851353fc92bfbff6f499fa97" target="_top" xlink:title="main">
<polygon fill="#ffffff" stroke="#000000" points="299,-38.5 299,-57.5 337,-57.5 337,-38.5 299,-38.5"/>
<text text-anchor="middle" x="318" y="-45.5" font-family="Helvetica,sans-Serif" font-size="10.00" fill="#000000">main</text>
</a>
</g>
</g>
<!-- Node27&#45;&gt;Node28 -->
<g id="edge2" class="edge">
<title>Node27&#45;&gt;Node28</title>
<path fill="none" stroke="#191970" d="M223.2445,-48C249.3652,-48 279.4893,-48 298.631,-48"/>
<polygon fill="#191970" stroke="#191970" points="223.0892,-44.5001 213.0892,-48 223.0891,-51.5001 223.0892,-44.5001"/>
</g>
<!-- Node30 -->
<g id="node5" class="node">
<title>Node30</title>
<g id="a_node5"><a xlink:href="main__optimized_8cpp.html#a0ddf1224851353fc92bfbff6f499fa97" target="_top" xlink:title="main">
<polygon fill="#ffffff" stroke="#000000" points="299,-475.5 299,-494.5 337,-494.5 337,-475.5 299,-475.5"/>
<text text-anchor="middle" x="318" y="-482.5" font-family="Helvetica,sans-Serif" font-size="10.00" fill="#000000">main</text>
</a>
</g>
</g>
<!-- Node29&#45;&gt;Node30 -->
<g id="edge4" class="edge">
<title>Node29&#45;&gt;Node30</title>
<path fill="none" stroke="#191970" d="M229.7297,-213.8415C231.9677,-215.3847 234.074,-217.098 236,-219 274.511,-257.0305 308.409,-432.1639 316.2818,-475.353"/>
<polygon fill="#191970" stroke="#191970" points="230.9808,-210.5305 220.5465,-208.6933 227.5577,-216.6364 230.9808,-210.5305"/>
</g>
<!-- Node31&#45;&gt;Node30 -->
<g id="edge6" class="edge">
<title>Node31&#45;&gt;Node30</title>
<path fill="none" stroke="#191970" d="M221.1889,-529.1112C226.2099,-527.0918 231.2179,-525.0323 236,-523 257.8051,-513.7331 282.4161,-502.1774 298.9365,-494.2572"/>
<polygon fill="#191970" stroke="#191970" points="219.5769,-525.9853 211.5733,-532.9274 222.1592,-532.4916 219.5769,-525.9853"/>
</g>
<!-- Node38&#45;&gt;Node30 -->
<g id="edge14" class="edge">
<title>Node38&#45;&gt;Node30</title>
<path fill="none" stroke="#191970" d="M224.7106,-497.099C250.5028,-493.7539 279.8858,-489.9431 298.6687,-487.5071"/>
<polygon fill="#191970" stroke="#191970" points="224.1292,-493.645 214.6625,-498.4021 225.0296,-500.5868 224.1292,-493.645"/>
</g>
<!-- Node39&#45;&gt;Node28 -->
<g id="edge16" class="edge">
<title>Node39&#45;&gt;Node28</title>
<path fill="none" stroke="#191970" d="M199.1179,-17.1637C228.2626,-24.7234 273.4255,-36.438 298.8735,-43.0389"/>
<polygon fill="#191970" stroke="#191970" points="199.7298,-13.7066 189.1713,-14.5837 197.9722,-20.4824 199.7298,-13.7066"/>
</g>
<!-- Node40 -->
<g id="node15" class="node">
<title>Node40</title>
<g id="a_node15"><a xlink:href="classlfield.html#a6220e9fc7f5d24c493f7ab3382fb36aa" target="_top" xlink:title="lfield::setToFixed">
<polygon fill="#ffffff" stroke="#000000" points="272,-.5 272,-19.5 364,-19.5 364,-.5 272,-.5"/>
<text text-anchor="middle" x="318" y="-7.5" font-family="Helvetica,sans-Serif" font-size="10.00" fill="#000000">lfield::setToFixed</text>
</a>
</g>
</g>
<!-- Node39&#45;&gt;Node40 -->
<g id="edge17" class="edge">
<title>Node39&#45;&gt;Node40</title>
<path fill="none" stroke="#191970" d="M199.3511,-10C219.7572,-10 247.9239,-10 271.6928,-10"/>
<polygon fill="#191970" stroke="#191970" points="199.1714,-6.5001 189.1713,-10 199.1713,-13.5001 199.1714,-6.5001"/>
</g>
<!-- Node41 -->
<g id="node16" class="node">
<title>Node41</title>
<g id="a_node16"><a xlink:href="test__symmetrize__average2_8cpp.html#a0ddf1224851353fc92bfbff6f499fa97" target="_top" xlink:title="main">
<polygon fill="#ffffff" stroke="#000000" points="400,-.5 400,-19.5 438,-19.5 438,-.5 400,-.5"/>
<text text-anchor="middle" x="419" y="-7.5" font-family="Helvetica,sans-Serif" font-size="10.00" fill="#000000">main</text>
</a>
</g>
</g>
<!-- Node40&#45;&gt;Node41 -->
<g id="edge18" class="edge">
<title>Node40&#45;&gt;Node41</title>
<path fill="none" stroke="#191970" d="M374.328,-10C383.3773,-10 392.1737,-10 399.5337,-10"/>
<polygon fill="#191970" stroke="#191970" points="374.0666,-6.5001 364.0666,-10 374.0666,-13.5001 374.0666,-6.5001"/>
</g>
<!-- Node44&#45;&gt;Node28 -->
<g id="edge22" class="edge">
<title>Node44&#45;&gt;Node28</title>
<path fill="none" stroke="#191970" d="M210.9181,-154.2676C219.5959,-151.5311 228.4435,-147.8712 236,-143 271.7089,-119.9809 300.5952,-76.9095 312.3338,-57.6903"/>
<polygon fill="#191970" stroke="#191970" points="209.9498,-150.9041 201.2705,-156.9802 211.8446,-157.6427 209.9498,-150.9041"/>
</g>
<!-- Node45&#45;&gt;Node30 -->
<g id="edge24" class="edge">
<title>Node45&#45;&gt;Node30</title>
<path fill="none" stroke="#191970" d="M209.1597,-470.8842C237.8989,-474.6115 276.2938,-479.591 298.9604,-482.5307"/>
<polygon fill="#191970" stroke="#191970" points="209.4227,-467.3891 199.0555,-469.5738 208.5223,-474.3309 209.4227,-467.3891"/>
</g>
</g>
</svg>
