<?xml version="1.0" encoding="UTF-8" standalone="no"?>
<!DOCTYPE svg PUBLIC "-//W3C//DTD SVG 1.1//EN"
 "http://www.w3.org/Graphics/SVG/1.1/DTD/svg11.dtd">
<!-- Generated by graphviz version 2.40.1 (20161225.0304)
 -->
<!-- Title: lfield::operator*= Pages: 1 -->
<svg width="387pt" height="104pt"
 viewBox="0.00 0.00 387.00 104.00" xmlns="http://www.w3.org/2000/svg" xmlns:xlink="http://www.w3.org/1999/xlink">
<g id="graph0" class="graph" transform="scale(1 1) rotate(0) translate(4 100)">
<title>lfield::operator*=</title>
<polygon fill="#ffffff" stroke="transparent" points="-4,4 -4,-100 383,-100 383,4 -4,4"/>
<!-- Node61 -->
<g id="node1" class="node">
<title>Node61</title>
<polygon fill="#bfbfbf" stroke="#000000" points="0,-38.5 0,-57.5 88,-57.5 88,-38.5 0,-38.5"/>
<text text-anchor="middle" x="44" y="-45.5" font-family="Helvetica,sans-Serif" font-size="10.00" fill="#000000">lfield::operator*=</text>
</g>
<!-- Node62 -->
<g id="node2" class="node">
<title>Node62</title>
<g id="a_node2"><a xlink:href="classsu3__matrix.html#aedf511a4b74bf6f2a4a5ba681c1df72e" target="_top" xlink:title="su3_matrix::exponentiate">
<polygon fill="#ffffff" stroke="#000000" points="124,-76.5 124,-95.5 250,-95.5 250,-76.5 124,-76.5"/>
<text text-anchor="middle" x="187" y="-83.5" font-family="Helvetica,sans-Serif" font-size="10.00" fill="#000000">su3_matrix::exponentiate</text>
</a>
</g>
</g>
<!-- Node61&#45;&gt;Node62 -->
<g id="edge1" class="edge">
<title>Node61&#45;&gt;Node62</title>
<path fill="none" stroke="#191970" d="M80.0849,-57.589C98.6296,-62.5169 121.4265,-68.5749 141.199,-73.8291"/>
<polygon fill="#191970" stroke="#191970" points="140.3631,-77.2284 150.9266,-76.4141 142.1609,-70.4632 140.3631,-77.2284"/>
</g>
<!-- Node64 -->
<g id="node4" class="node">
<title>Node64</title>
<g id="a_node4"><a xlink:href="classlfield.html#a3182dddf09856d6c2f715412b1e93dcc" target="_top" xlink:title="lfield::getNxl">
<polygon fill="#ffffff" stroke="#000000" points="151.5,-38.5 151.5,-57.5 222.5,-57.5 222.5,-38.5 151.5,-38.5"/>
<text text-anchor="middle" x="187" y="-45.5" font-family="Helvetica,sans-Serif" font-size="10.00" fill="#000000">lfield::getNxl</text>
</a>
</g>
</g>
<!-- Node61&#45;&gt;Node64 -->
<g id="edge3" class="edge">
<title>Node61&#45;&gt;Node64</title>
<path fill="none" stroke="#191970" d="M88.0715,-48C104.9255,-48 124.1759,-48 141.1886,-48"/>
<polygon fill="#191970" stroke="#191970" points="141.4507,-51.5001 151.4507,-48 141.4507,-44.5001 141.4507,-51.5001"/>
</g>
<!-- Node65 -->
<g id="node5" class="node">
<title>Node65</title>
<g id="a_node5"><a xlink:href="classlfield.html#a0d5c1f786c377cd838c0122b3148ed6e" target="_top" xlink:title="lfield::getNyl">
<polygon fill="#ffffff" stroke="#000000" points="151.5,-.5 151.5,-19.5 222.5,-19.5 222.5,-.5 151.5,-.5"/>
<text text-anchor="middle" x="187" y="-7.5" font-family="Helvetica,sans-Serif" font-size="10.00" fill="#000000">lfield::getNyl</text>
</a>
</g>
</g>
<!-- Node61&#45;&gt;Node65 -->
<g id="edge4" class="edge">
<title>Node61&#45;&gt;Node65</title>
<path fill="none" stroke="#191970" d="M80.0849,-38.411C98.7711,-33.4454 121.7748,-27.3326 141.6513,-22.0507"/>
<polygon fill="#191970" stroke="#191970" points="142.6563,-25.4052 151.422,-19.4543 140.8585,-18.64 142.6563,-25.4052"/>
</g>
<!-- Node63 -->
<g id="node3" class="node">
<title>Node63</title>
<g id="a_node3"><a xlink:href="su3__matrix_8h.html#ab226771af05ad43c66ee5a218eee0bdd" target="_top" xlink:title="function_zheevh3">
<polygon fill="#ffffff" stroke="#000000" points="286,-76.5 286,-95.5 379,-95.5 379,-76.5 286,-76.5"/>
<text text-anchor="middle" x="332.5" y="-83.5" font-family="Helvetica,sans-Serif" font-size="10.00" fill="#000000">function_zheevh3</text>
</a>
</g>
</g>
<!-- Node62&#45;&gt;Node63 -->
<g id="edge2" class="edge">
<title>Node62&#45;&gt;Node63</title>
<path fill="none" stroke="#191970" d="M250.3952,-86C258.8884,-86 267.5547,-86 275.9204,-86"/>
<polygon fill="#191970" stroke="#191970" points="275.944,-89.5001 285.9439,-86 275.9439,-82.5001 275.944,-89.5001"/>
</g>
</g>
</svg>
