<?xml version="1.0" encoding="UTF-8" standalone="no"?>
<!DOCTYPE svg PUBLIC "-//W3C//DTD SVG 1.1//EN"
 "http://www.w3.org/Graphics/SVG/1.1/DTD/svg11.dtd">
<!-- Generated by graphviz version 2.40.1 (20161225.0304)
 -->
<!-- Title: gmatrix&lt; T &gt; Pages: 1 -->
<svg width="105pt" height="343pt"
 viewBox="0.00 0.00 105.00 343.00" xmlns="http://www.w3.org/2000/svg" xmlns:xlink="http://www.w3.org/1999/xlink">
<g id="graph0" class="graph" transform="scale(1 1) rotate(0) translate(4 339)">
<title>gmatrix&lt; T &gt;</title>
<polygon fill="#ffffff" stroke="transparent" points="-4,4 -4,-339 101,-339 101,4 -4,4"/>
<!-- Node2 -->
<g id="node1" class="node">
<title>Node2</title>
<polygon fill="#bfbfbf" stroke="#000000" points="7.5,-.5 7.5,-112.5 89.5,-112.5 89.5,-.5 7.5,-.5"/>
<text text-anchor="middle" x="48.5" y="-100.5" font-family="Helvetica,sans-Serif" font-size="10.00" fill="#000000">gmatrix&lt; T &gt;</text>
<polyline fill="none" stroke="#000000" points="7.5,-93.5 89.5,-93.5 "/>
<text text-anchor="start" x="15.5" y="-81.5" font-family="Helvetica,sans-Serif" font-size="10.00" fill="#000000">+ Nxg</text>
<text text-anchor="start" x="15.5" y="-70.5" font-family="Helvetica,sans-Serif" font-size="10.00" fill="#000000">+ Nyg</text>
<text text-anchor="start" x="15.5" y="-59.5" font-family="Helvetica,sans-Serif" font-size="10.00" fill="#000000">+ Nyg</text>
<polyline fill="none" stroke="#000000" points="7.5,-52.5 89.5,-52.5 "/>
<text text-anchor="start" x="15.5" y="-40.5" font-family="Helvetica,sans-Serif" font-size="10.00" fill="#000000">+ gmatrix()</text>
<text text-anchor="start" x="15.5" y="-29.5" font-family="Helvetica,sans-Serif" font-size="10.00" fill="#000000">+ operator=()</text>
<text text-anchor="start" x="15.5" y="-18.5" font-family="Helvetica,sans-Serif" font-size="10.00" fill="#000000">+ decompose()</text>
<text text-anchor="start" x="15.5" y="-7.5" font-family="Helvetica,sans-Serif" font-size="10.00" fill="#000000">+ print()</text>
</g>
<!-- Node3 -->
<g id="node2" class="node">
<title>Node3</title>
<g id="a_node2"><a xlink:href="classmatrix.html" target="_top" xlink:title="{matrix\&lt; T \&gt;\n|+ Nxl\l+ Nyl\l|+ matrix()\l+ ~matrix()\l}">
<polygon fill="#ffffff" stroke="#000000" points="14.5,-150.5 14.5,-229.5 82.5,-229.5 82.5,-150.5 14.5,-150.5"/>
<text text-anchor="middle" x="48.5" y="-217.5" font-family="Helvetica,sans-Serif" font-size="10.00" fill="#000000">matrix&lt; T &gt;</text>
<polyline fill="none" stroke="#000000" points="14.5,-210.5 82.5,-210.5 "/>
<text text-anchor="start" x="22.5" y="-198.5" font-family="Helvetica,sans-Serif" font-size="10.00" fill="#000000">+ Nxl</text>
<text text-anchor="start" x="22.5" y="-187.5" font-family="Helvetica,sans-Serif" font-size="10.00" fill="#000000">+ Nyl</text>
<polyline fill="none" stroke="#000000" points="14.5,-180.5 82.5,-180.5 "/>
<text text-anchor="start" x="22.5" y="-168.5" font-family="Helvetica,sans-Serif" font-size="10.00" fill="#000000">+ matrix()</text>
<text text-anchor="start" x="22.5" y="-157.5" font-family="Helvetica,sans-Serif" font-size="10.00" fill="#000000">+ ~matrix()</text>
</a>
</g>
</g>
<!-- Node3&#45;&gt;Node2 -->
<g id="edge1" class="edge">
<title>Node3&#45;&gt;Node2</title>
<path fill="none" stroke="#191970" d="M48.5,-140.038C48.5,-131.0858 48.5,-121.7027 48.5,-112.5916"/>
<polygon fill="none" stroke="#191970" points="45.0001,-140.307 48.5,-150.307 52.0001,-140.3071 45.0001,-140.307"/>
</g>
<!-- Node4 -->
<g id="node3" class="node">
<title>Node4</title>
<polygon fill="#ffffff" stroke="#bfbfbf" points="0,-277.5 0,-334.5 97,-334.5 97,-277.5 0,-277.5"/>
<text text-anchor="middle" x="48.5" y="-322.5" font-family="Helvetica,sans-Serif" font-size="10.00" fill="#000000">std::complex&lt; T &gt;</text>
<polyline fill="none" stroke="#bfbfbf" points="0,-315.5 97,-315.5 "/>
<text text-anchor="middle" x="48.5" y="-303.5" font-family="Helvetica,sans-Serif" font-size="10.00" fill="#000000"> </text>
<polyline fill="none" stroke="#bfbfbf" points="0,-296.5 97,-296.5 "/>
<text text-anchor="middle" x="48.5" y="-284.5" font-family="Helvetica,sans-Serif" font-size="10.00" fill="#000000"> </text>
</g>
<!-- Node4&#45;&gt;Node3 -->
<g id="edge2" class="edge">
<title>Node4&#45;&gt;Node3</title>
<path fill="none" stroke="#404040" d="M48.5,-277.3258C48.5,-266.5576 48.5,-253.9593 48.5,-241.7364"/>
<polygon fill="none" stroke="#404040" points="48.5001,-241.7203 44.5,-235.7203 48.5,-229.7203 52.5,-235.7203 48.5001,-241.7203"/>
<text text-anchor="middle" x="56" y="-251" font-family="Helvetica,sans-Serif" font-size="10.00" fill="#000000"> +u</text>
</g>
</g>
</svg>
