<?xml version="1.0" encoding="UTF-8" standalone="no"?>
<!DOCTYPE svg PUBLIC "-//W3C//DTD SVG 1.1//EN"
 "http://www.w3.org/Graphics/SVG/1.1/DTD/svg11.dtd">
<!-- Generated by graphviz version 2.40.1 (20161225.0304)
 -->
<!-- Title: lfield::print Pages: 1 -->
<svg width="210pt" height="180pt"
 viewBox="0.00 0.00 210.00 180.00" xmlns="http://www.w3.org/2000/svg" xmlns:xlink="http://www.w3.org/1999/xlink">
<g id="graph0" class="graph" transform="scale(1 1) rotate(0) translate(4 176)">
<title>lfield::print</title>
<polygon fill="#ffffff" stroke="transparent" points="-4,4 -4,-176 206,-176 206,4 -4,4"/>
<!-- Node97 -->
<g id="node1" class="node">
<title>Node97</title>
<polygon fill="#bfbfbf" stroke="#000000" points="0,-76.5 0,-95.5 62,-95.5 62,-76.5 0,-76.5"/>
<text text-anchor="middle" x="31" y="-83.5" font-family="Helvetica,sans-Serif" font-size="10.00" fill="#000000">lfield::print</text>
</g>
<!-- Node98 -->
<g id="node2" class="node">
<title>Node98</title>
<g id="a_node2"><a xlink:href="classmpi__class.html#ab876ade2f1b994bb1c920d1de9375cf6" target="_top" xlink:title="mpi_class::getPosX">
<polygon fill="#ffffff" stroke="#000000" points="98,-152.5 98,-171.5 202,-171.5 202,-152.5 98,-152.5"/>
<text text-anchor="middle" x="150" y="-159.5" font-family="Helvetica,sans-Serif" font-size="10.00" fill="#000000">mpi_class::getPosX</text>
</a>
</g>
</g>
<!-- Node97&#45;&gt;Node98 -->
<g id="edge1" class="edge">
<title>Node97&#45;&gt;Node98</title>
<path fill="none" stroke="#191970" d="M40.152,-95.6801C52.3394,-108.0965 75.0407,-129.621 98,-143 101.4515,-145.0113 105.153,-146.8703 108.9322,-148.5735"/>
<polygon fill="#191970" stroke="#191970" points="107.81,-151.8969 118.3886,-152.4842 110.4852,-145.4282 107.81,-151.8969"/>
</g>
<!-- Node99 -->
<g id="node3" class="node">
<title>Node99</title>
<g id="a_node3"><a xlink:href="classmpi__class.html#aa894e45879f0e9a081efd4d4118b2491" target="_top" xlink:title="mpi_class::getPosY">
<polygon fill="#ffffff" stroke="#000000" points="98,-114.5 98,-133.5 202,-133.5 202,-114.5 98,-114.5"/>
<text text-anchor="middle" x="150" y="-121.5" font-family="Helvetica,sans-Serif" font-size="10.00" fill="#000000">mpi_class::getPosY</text>
</a>
</g>
</g>
<!-- Node97&#45;&gt;Node99 -->
<g id="edge2" class="edge">
<title>Node97&#45;&gt;Node99</title>
<path fill="none" stroke="#191970" d="M61.0287,-95.589C75.9677,-100.3594 94.2227,-106.1888 110.3006,-111.3229"/>
<polygon fill="#191970" stroke="#191970" points="109.3901,-114.7062 119.9809,-114.4141 111.5195,-108.0379 109.3901,-114.7062"/>
</g>
<!-- Node100 -->
<g id="node4" class="node">
<title>Node100</title>
<g id="a_node4"><a xlink:href="classmpi__class.html#a6ba81c7f035bcbbb4c5c1273d0850aba" target="_top" xlink:title="mpi_class::getRank">
<polygon fill="#ffffff" stroke="#000000" points="98,-76.5 98,-95.5 202,-95.5 202,-76.5 98,-76.5"/>
<text text-anchor="middle" x="150" y="-83.5" font-family="Helvetica,sans-Serif" font-size="10.00" fill="#000000">mpi_class::getRank</text>
</a>
</g>
</g>
<!-- Node97&#45;&gt;Node100 -->
<g id="edge3" class="edge">
<title>Node97&#45;&gt;Node100</title>
<path fill="none" stroke="#191970" d="M62.2658,-86C70.0861,-86 78.7534,-86 87.5073,-86"/>
<polygon fill="#191970" stroke="#191970" points="87.7778,-89.5001 97.7778,-86 87.7778,-82.5001 87.7778,-89.5001"/>
</g>
<!-- Node101 -->
<g id="node5" class="node">
<title>Node101</title>
<g id="a_node5"><a xlink:href="classmpi__class.html#af78626438bee67b2eacf5bd583d4e4ce" target="_top" xlink:title="mpi_class::getSize">
<polygon fill="#ffffff" stroke="#000000" points="100,-38.5 100,-57.5 200,-57.5 200,-38.5 100,-38.5"/>
<text text-anchor="middle" x="150" y="-45.5" font-family="Helvetica,sans-Serif" font-size="10.00" fill="#000000">mpi_class::getSize</text>
</a>
</g>
</g>
<!-- Node97&#45;&gt;Node101 -->
<g id="edge4" class="edge">
<title>Node97&#45;&gt;Node101</title>
<path fill="none" stroke="#191970" d="M61.0287,-76.411C75.9677,-71.6406 94.2227,-65.8112 110.3006,-60.6771"/>
<polygon fill="#191970" stroke="#191970" points="111.5195,-63.9621 119.9809,-57.5859 109.3901,-57.2938 111.5195,-63.9621"/>
</g>
<!-- Node102 -->
<g id="node6" class="node">
<title>Node102</title>
<g id="a_node6"><a xlink:href="classmomenta.html#a5b2ec8b44c4874d8e18036c8927461db" target="_top" xlink:title="momenta::phat2">
<polygon fill="#ffffff" stroke="#000000" points="106.5,-.5 106.5,-19.5 193.5,-19.5 193.5,-.5 106.5,-.5"/>
<text text-anchor="middle" x="150" y="-7.5" font-family="Helvetica,sans-Serif" font-size="10.00" fill="#000000">momenta::phat2</text>
</a>
</g>
</g>
<!-- Node97&#45;&gt;Node102 -->
<g id="edge5" class="edge">
<title>Node97&#45;&gt;Node102</title>
<path fill="none" stroke="#191970" d="M40.152,-76.3199C52.3394,-63.9035 75.0407,-42.379 98,-29 101.4515,-26.9887 105.153,-25.1297 108.9322,-23.4265"/>
<polygon fill="#191970" stroke="#191970" points="110.4852,-26.5718 118.3886,-19.5158 107.81,-20.1031 110.4852,-26.5718"/>
</g>
</g>
</svg>
