<?xml version="1.0" encoding="UTF-8" standalone="no"?>
<!DOCTYPE svg PUBLIC "-//W3C//DTD SVG 1.1//EN"
 "http://www.w3.org/Graphics/SVG/1.1/DTD/svg11.dtd">
<!-- Generated by graphviz version 2.40.1 (20161225.0304)
 -->
<!-- Title: lfield::getNyl Pages: 1 -->
<!--zoomable 610 -->
<svg id="main" version="1.1" xmlns="http://www.w3.org/2000/svg" xmlns:xlink="http://www.w3.org/1999/xlink" xml:space="preserve" onload="init(evt)">
<style type="text/css"><![CDATA[
.edge:hover path { stroke: red; }
.edge:hover polygon { stroke: red; fill: red; }
]]></style>
<script type="text/javascript"><![CDATA[
var edges = document.getElementsByTagName('g');
if (edges && edges.length) {
  for (var i=0;i<edges.length;i++) {
    if (edges[i].id.substr(0,4)=='edge') {
      edges[i].setAttribute('class','edge');
    }
  }
}
]]></script>
        <defs>
                <circle id="rim" cx="0" cy="0" r="7"/>
                <circle id="rim2" cx="0" cy="0" r="3.5"/>
                <g id="zoomPlus">
                        <use xlink:href="#rim" fill="#404040">
                                <set attributeName="fill" to="#808080" begin="zoomplus.mouseover" end="zoomplus.mouseout"/>
                        </use>
                        <path d="M-4,0h8M0,-4v8" fill="none" stroke="white" stroke-width="1.5" pointer-events="none"/>
                </g>
                <g id="zoomMin">
                        <use xlink:href="#rim" fill="#404040">
                                <set attributeName="fill" to="#808080" begin="zoomminus.mouseover" end="zoomminus.mouseout"/>
                        </use>
                        <path d="M-4,0h8" fill="none" stroke="white" stroke-width="1.5" pointer-events="none"/>
                </g>
                <g id="dirArrow">
                        <path fill="none" stroke="white" stroke-width="1.5" d="M0,-3.0v7 M-2.5,-0.5L0,-3.0L2.5,-0.5"/>
                </g>
               <g id="resetDef">
                       <use xlink:href="#rim2" fill="#404040">
                               <set attributeName="fill" to="#808080" begin="reset.mouseover" end="reset.mouseout"/>
                       </use>
               </g>
        </defs>

<script type="text/javascript">
var viewWidth = 446;
var viewHeight = 610;
var sectionId = 'dynsection-9';
</script>
<script xlink:href="svgpan.js"/>
<svg id="graph" class="graph">
<g id="viewport">
<title>lfield::getNyl</title>
<polygon fill="#ffffff" stroke="transparent" points="-4,4 -4,-606 442,-606 442,4 -4,4"/>
<!-- Node47 -->
<g id="node1" class="node">
<title>Node47</title>
<polygon fill="#bfbfbf" stroke="#000000" points="0,-285.5 0,-304.5 71,-304.5 71,-285.5 0,-285.5"/>
<text text-anchor="middle" x="35.5" y="-292.5" font-family="Helvetica,sans-Serif" font-size="10.00" fill="#000000">lfield::getNyl</text>
</g>
<!-- Node48 -->
<g id="node2" class="node">
<title>Node48</title>
<g id="a_node2"><a xlink:href="classgfield.html#a0dcff590c53a428a50567d25d10404e2" target="_top" xlink:title="Specialization of the MPI Allgather function to the lfield class. ">
<polygon fill="#ffffff" stroke="#000000" points="130,-38.5 130,-57.5 213,-57.5 213,-38.5 130,-38.5"/>
<text text-anchor="middle" x="171.5" y="-45.5" font-family="Helvetica,sans-Serif" font-size="10.00" fill="#000000">gfield::allgather</text>
</a>
</g>
</g>
<!-- Node47&#45;&gt;Node48 -->
<g id="edge1" class="edge">
<title>Node47&#45;&gt;Node48</title>
<path fill="none" stroke="#191970" d="M39.2011,-275.3663C48.9341,-225.698 76.5994,-96.8758 107,-67 113.2446,-60.8632 121.3663,-56.6915 129.7293,-53.86"/>
<polygon fill="#191970" stroke="#191970" points="35.7139,-274.9667 37.2603,-285.448 42.5877,-276.29 35.7139,-274.9667"/>
</g>
<!-- Node50 -->
<g id="node4" class="node">
<title>Node50</title>
<g id="a_node4"><a xlink:href="field_8h.html#a87926e17588c01dfa811c26d05bf8792" target="_top" xlink:title="Method for generation of the noise vectors with a gaussian distribution in the Lie algebra...">
<polygon fill="#ffffff" stroke="#000000" points="122.5,-544.5 122.5,-563.5 220.5,-563.5 220.5,-544.5 122.5,-544.5"/>
<text text-anchor="middle" x="171.5" y="-551.5" font-family="Helvetica,sans-Serif" font-size="10.00" fill="#000000">generate_gaussian</text>
</a>
</g>
</g>
<!-- Node47&#45;&gt;Node50 -->
<g id="edge3" class="edge">
<title>Node47&#45;&gt;Node50</title>
<path fill="none" stroke="#191970" d="M38.8767,-314.6516C48.0984,-366.1536 75.1598,-503.2575 107,-535 111.3816,-539.3682 116.7136,-542.742 122.4145,-545.346"/>
<polygon fill="#191970" stroke="#191970" points="42.3187,-314.0157 37.1401,-304.7727 35.4244,-315.2277 42.3187,-314.0157"/>
</g>
<!-- Node52 -->
<g id="node6" class="node">
<title>Node52</title>
<g id="a_node6"><a xlink:href="field_8h.html#ab1991c064deb041673a7fd9e56ddcc0b" target="_top" xlink:title="Method for generation of the noise vectors with a gaussian distribution rescaled by the coupling cons...">
<polygon fill="#ffffff" stroke="#000000" points="107,-495 107,-525 236,-525 236,-495 107,-495"/>
<text text-anchor="start" x="115" y="-513" font-family="Helvetica,sans-Serif" font-size="10.00" fill="#000000">generate_gaussian_with</text>
<text text-anchor="middle" x="171.5" y="-502" font-family="Helvetica,sans-Serif" font-size="10.00" fill="#000000">_noise_coupling_constant</text>
</a>
</g>
</g>
<!-- Node47&#45;&gt;Node52 -->
<g id="edge5" class="edge">
<title>Node47&#45;&gt;Node52</title>
<path fill="none" stroke="#191970" d="M37.6611,-315.0566C42.7992,-353.192 59.1309,-436.6573 107,-485 110.8026,-488.8402 115.2613,-492.1028 120.028,-494.8722"/>
<polygon fill="#191970" stroke="#191970" points="41.0907,-314.2673 36.4033,-304.7658 34.1424,-315.1166 41.0907,-314.2673"/>
</g>
<!-- Node53 -->
<g id="node7" class="node">
<title>Node53</title>
<g id="a_node7"><a xlink:href="classlfield.html#a20b8f55a07ab66eda4152d1e4dc78b36" target="_top" xlink:title="lfield::lfield">
<polygon fill="#ffffff" stroke="#000000" points="140,-456.5 140,-475.5 203,-475.5 203,-456.5 140,-456.5"/>
<text text-anchor="middle" x="171.5" y="-463.5" font-family="Helvetica,sans-Serif" font-size="10.00" fill="#000000">lfield::lfield</text>
</a>
</g>
</g>
<!-- Node47&#45;&gt;Node53 -->
<g id="edge7" class="edge">
<title>Node47&#45;&gt;Node53</title>
<path fill="none" stroke="#191970" d="M39.3703,-314.9268C46.7235,-347.4083 65.808,-411.6807 107,-447 116.1279,-454.8265 128.352,-459.4309 139.7032,-462.1389"/>
<polygon fill="#191970" stroke="#191970" points="42.7354,-313.9223 37.2417,-304.8631 35.8869,-315.3709 42.7354,-313.9223"/>
</g>
<!-- Node54 -->
<g id="node8" class="node">
<title>Node54</title>
<g id="a_node8"><a xlink:href="field_8h.html#a3bdeaa38edf27a3f664c8312f15f8a88" target="_top" xlink:title="operator*">
<polygon fill="#ffffff" stroke="#000000" points="143.5,-418.5 143.5,-437.5 199.5,-437.5 199.5,-418.5 143.5,-418.5"/>
<text text-anchor="middle" x="171.5" y="-425.5" font-family="Helvetica,sans-Serif" font-size="10.00" fill="#000000">operator*</text>
</a>
</g>
</g>
<!-- Node47&#45;&gt;Node54 -->
<g id="edge8" class="edge">
<title>Node47&#45;&gt;Node54</title>
<path fill="none" stroke="#191970" d="M42.5047,-314.2184C52.7549,-339.6578 74.254,-384.1814 107,-409 117.5129,-416.9679 131.312,-421.6036 143.4479,-424.2963"/>
<polygon fill="#191970" stroke="#191970" points="45.6599,-312.672 38.8005,-304.5973 39.1273,-315.1871 45.6599,-312.672"/>
</g>
<!-- Node55 -->
<g id="node9" class="node">
<title>Node55</title>
<g id="a_node9"><a xlink:href="classlfield.html#ad794d8e7e1cb4685d665e0b474f8901b" target="_top" xlink:title="Overloaded multiplication and assignement operator. ">
<polygon fill="#ffffff" stroke="#000000" points="127.5,-380.5 127.5,-399.5 215.5,-399.5 215.5,-380.5 127.5,-380.5"/>
<text text-anchor="middle" x="171.5" y="-387.5" font-family="Helvetica,sans-Serif" font-size="10.00" fill="#000000">lfield::operator*=</text>
</a>
</g>
</g>
<!-- Node47&#45;&gt;Node55 -->
<g id="edge9" class="edge">
<title>Node47&#45;&gt;Node55</title>
<path fill="none" stroke="#191970" d="M47.8889,-312.8892C60.757,-330.1729 82.4243,-355.8924 107,-371 113.2653,-374.8515 120.3531,-377.958 127.4792,-380.4529"/>
<polygon fill="#191970" stroke="#191970" points="50.6837,-310.7809 41.9931,-304.7208 45.0077,-314.8777 50.6837,-310.7809"/>
</g>
<!-- Node56 -->
<g id="node10" class="node">
<title>Node56</title>
<g id="a_node10"><a xlink:href="field_8h.html#a3b4f42aa9c3b63b4579c4ce8922a9fb4" target="_top" xlink:title="operator+">
<polygon fill="#ffffff" stroke="#000000" points="142.5,-342.5 142.5,-361.5 200.5,-361.5 200.5,-342.5 142.5,-342.5"/>
<text text-anchor="middle" x="171.5" y="-349.5" font-family="Helvetica,sans-Serif" font-size="10.00" fill="#000000">operator+</text>
</a>
</g>
</g>
<!-- Node47&#45;&gt;Node56 -->
<g id="edge10" class="edge">
<title>Node47&#45;&gt;Node56</title>
<path fill="none" stroke="#191970" d="M59.9505,-309.579C73.4944,-317.246 90.8205,-326.3968 107,-333 118.3486,-337.6316 131.2385,-341.6602 142.4962,-344.8012"/>
<polygon fill="#191970" stroke="#191970" points="61.6505,-306.5191 51.2388,-304.5576 58.1548,-312.5838 61.6505,-306.5191"/>
</g>
<!-- Node57 -->
<g id="node11" class="node">
<title>Node57</title>
<g id="a_node11"><a xlink:href="classlfield.html#a1b2ecd36f95f102bbfc308915e37477e" target="_top" xlink:title="lfield::operator+=">
<polygon fill="#ffffff" stroke="#000000" points="126.5,-304.5 126.5,-323.5 216.5,-323.5 216.5,-304.5 126.5,-304.5"/>
<text text-anchor="middle" x="171.5" y="-311.5" font-family="Helvetica,sans-Serif" font-size="10.00" fill="#000000">lfield::operator+=</text>
</a>
</g>
</g>
<!-- Node47&#45;&gt;Node57 -->
<g id="edge11" class="edge">
<title>Node47&#45;&gt;Node57</title>
<path fill="none" stroke="#191970" d="M81.4507,-301.4196C95.9052,-303.439 111.8502,-305.6666 126.2553,-307.6791"/>
<polygon fill="#191970" stroke="#191970" points="81.6205,-297.9094 71.2324,-299.992 80.6519,-304.8421 81.6205,-297.9094"/>
</g>
<!-- Node58 -->
<g id="node12" class="node">
<title>Node58</title>
<g id="a_node12"><a xlink:href="classlfield.html#a7dbe6c485025a80aa097f772be931e19" target="_top" xlink:title="lfield::operator=">
<polygon fill="#ffffff" stroke="#000000" points="129.5,-266.5 129.5,-285.5 213.5,-285.5 213.5,-266.5 129.5,-266.5"/>
<text text-anchor="middle" x="171.5" y="-273.5" font-family="Helvetica,sans-Serif" font-size="10.00" fill="#000000">lfield::operator=</text>
</a>
</g>
</g>
<!-- Node47&#45;&gt;Node58 -->
<g id="edge12" class="edge">
<title>Node47&#45;&gt;Node58</title>
<path fill="none" stroke="#191970" d="M81.1519,-288.6222C96.6911,-286.4512 113.982,-284.0356 129.2433,-281.9035"/>
<polygon fill="#191970" stroke="#191970" points="80.6519,-285.1579 71.2324,-290.008 81.6205,-292.0906 80.6519,-285.1579"/>
</g>
<!-- Node59 -->
<g id="node13" class="node">
<title>Node59</title>
<g id="a_node13"><a xlink:href="field_8h.html#ae43c2aa5da993ce8ed28c1953c02805a" target="_top" xlink:title="Optimized method for the evaluation of the A and B matrices. ">
<polygon fill="#ffffff" stroke="#000000" points="112,-228.5 112,-247.5 231,-247.5 231,-228.5 112,-228.5"/>
<text text-anchor="middle" x="171.5" y="-235.5" font-family="Helvetica,sans-Serif" font-size="10.00" fill="#000000">prepare_A_and_B_local</text>
</a>
</g>
</g>
<!-- Node47&#45;&gt;Node59 -->
<g id="edge13" class="edge">
<title>Node47&#45;&gt;Node59</title>
<path fill="none" stroke="#191970" d="M59.9505,-280.421C73.4944,-272.754 90.8205,-263.6032 107,-257 115.6465,-253.4712 125.1878,-250.2924 134.2202,-247.5895"/>
<polygon fill="#191970" stroke="#191970" points="58.1548,-277.4162 51.2388,-285.4424 61.6505,-283.4809 58.1548,-277.4162"/>
</g>
<!-- Node60 -->
<g id="node14" class="node">
<title>Node60</title>
<g id="a_node14"><a xlink:href="field_8h.html#a775fa9c6bfba32acd280006a6fd3e524" target="_top" xlink:title="Optimized method for the evaluation of the A and B matrices. ">
<polygon fill="#ffffff" stroke="#000000" points="128.5,-190.5 128.5,-209.5 214.5,-209.5 214.5,-190.5 128.5,-190.5"/>
<text text-anchor="middle" x="171.5" y="-197.5" font-family="Helvetica,sans-Serif" font-size="10.00" fill="#000000">prepare_A_local</text>
</a>
</g>
</g>
<!-- Node47&#45;&gt;Node60 -->
<g id="edge15" class="edge">
<title>Node47&#45;&gt;Node60</title>
<path fill="none" stroke="#191970" d="M47.8889,-277.1108C60.757,-259.8271 82.4243,-234.1076 107,-219 113.5636,-214.9651 121.03,-211.7479 128.4974,-209.1948"/>
<polygon fill="#191970" stroke="#191970" points="45.0077,-275.1223 41.9931,-285.2792 50.6837,-279.2191 45.0077,-275.1223"/>
</g>
<!-- Node61 -->
<g id="node15" class="node">
<title>Node61</title>
<g id="a_node15"><a xlink:href="field_8h.html#a463f2cc1e2cd9fa4d1fc3f800835a2aa" target="_top" xlink:title="Simple print function. ">
<polygon fill="#ffffff" stroke="#000000" points="154,-152.5 154,-171.5 189,-171.5 189,-152.5 154,-152.5"/>
<text text-anchor="middle" x="171.5" y="-159.5" font-family="Helvetica,sans-Serif" font-size="10.00" fill="#000000">print</text>
</a>
</g>
</g>
<!-- Node47&#45;&gt;Node61 -->
<g id="edge17" class="edge">
<title>Node47&#45;&gt;Node61</title>
<path fill="none" stroke="#191970" d="M42.5047,-275.7816C52.7549,-250.3422 74.254,-205.8186 107,-181 120.6761,-170.6347 139.9135,-165.9085 153.8159,-163.7629"/>
<polygon fill="#191970" stroke="#191970" points="39.1273,-274.8129 38.8005,-285.4027 45.6599,-277.328 39.1273,-274.8129"/>
</g>
<!-- Node64 -->
<g id="node18" class="node">
<title>Node64</title>
<g id="a_node18"><a xlink:href="classgfield.html#a743dc1eeb1b0756557a3173895df1c8d" target="_top" xlink:title="The method reduces the global gfield object into local lfield sum and lfield err objects: each MPI ra...">
<polygon fill="#ffffff" stroke="#000000" points="134,-114.5 134,-133.5 209,-133.5 209,-114.5 134,-114.5"/>
<text text-anchor="middle" x="171.5" y="-121.5" font-family="Helvetica,sans-Serif" font-size="10.00" fill="#000000">gfield::reduce</text>
</a>
</g>
</g>
<!-- Node47&#45;&gt;Node64 -->
<g id="edge21" class="edge">
<title>Node47&#45;&gt;Node64</title>
<path fill="none" stroke="#191970" d="M39.3703,-275.0732C46.7235,-242.5917 65.808,-178.3193 107,-143 114.5327,-136.5412 124.1741,-132.2768 133.6933,-129.4616"/>
<polygon fill="#191970" stroke="#191970" points="35.8869,-274.6291 37.2417,-285.1369 42.7354,-276.0777 35.8869,-274.6291"/>
</g>
<!-- Node65 -->
<g id="node19" class="node">
<title>Node65</title>
<g id="a_node19"><a xlink:href="classgfield.html#a16112e9685d6442818f2a308811620f6" target="_top" xlink:title="The method reduces the global gfield object into local lfield sum and lfield err objects: each MPI ra...">
<polygon fill="#ffffff" stroke="#000000" points="120.5,-76.5 120.5,-95.5 222.5,-95.5 222.5,-76.5 120.5,-76.5"/>
<text text-anchor="middle" x="171.5" y="-83.5" font-family="Helvetica,sans-Serif" font-size="10.00" fill="#000000">gfield::reduce_hatta</text>
</a>
</g>
</g>
<!-- Node47&#45;&gt;Node65 -->
<g id="edge22" class="edge">
<title>Node47&#45;&gt;Node65</title>
<path fill="none" stroke="#191970" d="M37.2402,-275.117C41.6862,-236.6011 56.9256,-151.525 107,-105 111.1905,-101.1065 116.1399,-98.0074 121.4041,-95.5413"/>
<polygon fill="#191970" stroke="#191970" points="33.7159,-275.177 36.1803,-285.4812 40.6796,-275.8892 33.7159,-275.177"/>
</g>
<!-- Node66 -->
<g id="node20" class="node">
<title>Node66</title>
<g id="a_node20"><a xlink:href="field_8h.html#aea30ef7d1293ae1aa73d254f8eaef4c7" target="_top" xlink:title="Main method for the advance of the Wilson lines in rapidity according to the Langevin equation...">
<polygon fill="#ffffff" stroke="#000000" points="142,-.5 142,-19.5 201,-19.5 201,-.5 142,-.5"/>
<text text-anchor="middle" x="171.5" y="-7.5" font-family="Helvetica,sans-Serif" font-size="10.00" fill="#000000">update_uf</text>
</a>
</g>
</g>
<!-- Node47&#45;&gt;Node66 -->
<g id="edge23" class="edge">
<title>Node47&#45;&gt;Node66</title>
<path fill="none" stroke="#191970" d="M38.249,-275.4565C46.3875,-220.2562 71.9952,-64.8509 107,-29 116.134,-19.6452 129.6215,-14.8391 141.9048,-12.3922"/>
<polygon fill="#191970" stroke="#191970" points="34.7832,-274.9691 36.8184,-285.3666 41.7114,-275.9693 34.7832,-274.9691"/>
</g>
<!-- Node67 -->
<g id="node21" class="node">
<title>Node67</title>
<g id="a_node21"><a xlink:href="field_8h.html#a127febd6e7d0a0da0fc2d4fee0081bd4" target="_top" xlink:title="Optimized method to compute the product of Wilson line U, noise vector xi and hermitian conjugate of ...">
<polygon fill="#ffffff" stroke="#000000" points="144,-582.5 144,-601.5 199,-601.5 199,-582.5 144,-582.5"/>
<text text-anchor="middle" x="171.5" y="-589.5" font-family="Helvetica,sans-Serif" font-size="10.00" fill="#000000">uxiulocal</text>
</a>
</g>
</g>
<!-- Node47&#45;&gt;Node67 -->
<g id="edge25" class="edge">
<title>Node47&#45;&gt;Node67</title>
<path fill="none" stroke="#191970" d="M38.0715,-315.0317C45.8155,-372.3574 70.6425,-535.3573 107,-573 116.5697,-582.908 131.0212,-587.7189 143.8209,-590.0264"/>
<polygon fill="#191970" stroke="#191970" points="41.4948,-314.2197 36.7161,-304.7638 34.555,-315.1359 41.4948,-314.2197"/>
</g>
<!-- Node49 -->
<g id="node3" class="node">
<title>Node49</title>
<g id="a_node3"><a xlink:href="main__explicit_8cpp.html#a0ddf1224851353fc92bfbff6f499fa97" target="_top" xlink:title="main">
<polygon fill="#ffffff" stroke="#000000" points="299,-38.5 299,-57.5 337,-57.5 337,-38.5 299,-38.5"/>
<text text-anchor="middle" x="318" y="-45.5" font-family="Helvetica,sans-Serif" font-size="10.00" fill="#000000">main</text>
</a>
</g>
</g>
<!-- Node48&#45;&gt;Node49 -->
<g id="edge2" class="edge">
<title>Node48&#45;&gt;Node49</title>
<path fill="none" stroke="#191970" d="M223.2445,-48C249.3652,-48 279.4893,-48 298.631,-48"/>
<polygon fill="#191970" stroke="#191970" points="223.0892,-44.5001 213.0892,-48 223.0891,-51.5001 223.0892,-44.5001"/>
</g>
<!-- Node51 -->
<g id="node5" class="node">
<title>Node51</title>
<g id="a_node5"><a xlink:href="main__optimized_8cpp.html#a0ddf1224851353fc92bfbff6f499fa97" target="_top" xlink:title="main">
<polygon fill="#ffffff" stroke="#000000" points="299,-500.5 299,-519.5 337,-519.5 337,-500.5 299,-500.5"/>
<text text-anchor="middle" x="318" y="-507.5" font-family="Helvetica,sans-Serif" font-size="10.00" fill="#000000">main</text>
</a>
</g>
</g>
<!-- Node50&#45;&gt;Node51 -->
<g id="edge4" class="edge">
<title>Node50&#45;&gt;Node51</title>
<path fill="none" stroke="#191970" d="M213.6152,-541.6563C221.0759,-539.4519 228.7691,-537.1672 236,-535 257.5273,-528.5479 282.1882,-521.0094 298.7963,-515.9108"/>
<polygon fill="#191970" stroke="#191970" points="212.6016,-538.3061 203.9997,-544.4915 214.5814,-545.0204 212.6016,-538.3061"/>
</g>
<!-- Node52&#45;&gt;Node51 -->
<g id="edge6" class="edge">
<title>Node52&#45;&gt;Node51</title>
<path fill="none" stroke="#191970" d="M246.3315,-510C265.767,-510 285.0539,-510 298.7159,-510"/>
<polygon fill="#191970" stroke="#191970" points="246.1835,-506.5001 236.1835,-510 246.1834,-513.5001 246.1835,-506.5001"/>
</g>
<!-- Node59&#45;&gt;Node51 -->
<g id="edge14" class="edge">
<title>Node59&#45;&gt;Node51</title>
<path fill="none" stroke="#191970" d="M230.7579,-252.6207C232.6119,-253.9561 234.3688,-255.4122 236,-257 272.8913,-292.91 307.733,-458.2355 316.1026,-500.2618"/>
<polygon fill="#191970" stroke="#191970" points="232.4862,-249.5767 222.0956,-247.5061 228.9271,-255.6044 232.4862,-249.5767"/>
</g>
<!-- Node60&#45;&gt;Node51 -->
<g id="edge16" class="edge">
<title>Node60&#45;&gt;Node51</title>
<path fill="none" stroke="#191970" d="M224.0877,-210.2968C228.4718,-212.637 232.5408,-215.4997 236,-219 277.5992,-261.0933 309.5372,-454.8208 316.5569,-500.3849"/>
<polygon fill="#191970" stroke="#191970" points="225.3037,-207.0082 214.7405,-206.1903 222.488,-213.417 225.3037,-207.0082"/>
</g>
<!-- Node61&#45;&gt;Node49 -->
<g id="edge18" class="edge">
<title>Node61&#45;&gt;Node49</title>
<path fill="none" stroke="#191970" d="M199.0394,-157.5222C211.0655,-154.6804 224.9204,-150.1422 236,-143 271.7089,-119.9809 300.5952,-76.9095 312.3338,-57.6903"/>
<polygon fill="#191970" stroke="#191970" points="198.1314,-154.1362 189.0575,-159.6056 199.5617,-160.9885 198.1314,-154.1362"/>
</g>
<!-- Node62 -->
<g id="node16" class="node">
<title>Node62</title>
<g id="a_node16"><a xlink:href="classlfield.html#a6220e9fc7f5d24c493f7ab3382fb36aa" target="_top" xlink:title="lfield::setToFixed">
<polygon fill="#ffffff" stroke="#000000" points="272,-152.5 272,-171.5 364,-171.5 364,-152.5 272,-152.5"/>
<text text-anchor="middle" x="318" y="-159.5" font-family="Helvetica,sans-Serif" font-size="10.00" fill="#000000">lfield::setToFixed</text>
</a>
</g>
</g>
<!-- Node61&#45;&gt;Node62 -->
<g id="edge19" class="edge">
<title>Node61&#45;&gt;Node62</title>
<path fill="none" stroke="#191970" d="M199.3511,-162C219.7572,-162 247.9239,-162 271.6928,-162"/>
<polygon fill="#191970" stroke="#191970" points="199.1714,-158.5001 189.1713,-162 199.1713,-165.5001 199.1714,-158.5001"/>
</g>
<!-- Node63 -->
<g id="node17" class="node">
<title>Node63</title>
<g id="a_node17"><a xlink:href="test__symmetrize__average2_8cpp.html#a0ddf1224851353fc92bfbff6f499fa97" target="_top" xlink:title="main">
<polygon fill="#ffffff" stroke="#000000" points="400,-152.5 400,-171.5 438,-171.5 438,-152.5 400,-152.5"/>
<text text-anchor="middle" x="419" y="-159.5" font-family="Helvetica,sans-Serif" font-size="10.00" fill="#000000">main</text>
</a>
</g>
</g>
<!-- Node62&#45;&gt;Node63 -->
<g id="edge20" class="edge">
<title>Node62&#45;&gt;Node63</title>
<path fill="none" stroke="#191970" d="M374.328,-162C383.3773,-162 392.1737,-162 399.5337,-162"/>
<polygon fill="#191970" stroke="#191970" points="374.0666,-158.5001 364.0666,-162 374.0666,-165.5001 374.0666,-158.5001"/>
</g>
<!-- Node66&#45;&gt;Node49 -->
<g id="edge24" class="edge">
<title>Node66&#45;&gt;Node49</title>
<path fill="none" stroke="#191970" d="M211.1682,-20.2894C239.5411,-27.6489 276.4928,-37.2336 298.6687,-42.9857"/>
<polygon fill="#191970" stroke="#191970" points="211.7049,-16.8128 201.1465,-17.6899 209.9473,-23.5886 211.7049,-16.8128"/>
</g>
<!-- Node67&#45;&gt;Node51 -->
<g id="edge26" class="edge">
<title>Node67&#45;&gt;Node51</title>
<path fill="none" stroke="#191970" d="M208.7265,-583.5679C217.8998,-580.8102 227.5194,-577.3163 236,-573 264.4792,-558.5053 292.9982,-533.7093 307.7331,-519.9449"/>
<polygon fill="#191970" stroke="#191970" points="207.7141,-580.2166 199.0226,-586.2753 209.5953,-586.9591 207.7141,-580.2166"/>
</g>
</g>
</svg>
        <g id="navigator" transform="translate(0 0)" fill="#404254">
                <rect fill="#f2f5e9" fill-opacity="0.5" stroke="#606060" stroke-width=".5" x="0" y="0" width="60" height="60"/>
                <use id="zoomplus" xlink:href="#zoomPlus" x="17" y="9" onmousedown="handleZoom(evt,'in')"/>
                <use id="zoomminus" xlink:href="#zoomMin" x="42" y="9" onmousedown="handleZoom(evt,'out')"/>
                <use id="reset" xlink:href="#resetDef" x="30" y="36" onmousedown="handleReset()"/>
                <g id="arrowUp" xlink:href="#dirArrow" transform="translate(30 24)" onmousedown="handlePan(0,-1)">
                  <use xlink:href="#rim" fill="#404040">
                        <set attributeName="fill" to="#808080" begin="arrowUp.mouseover" end="arrowUp.mouseout"/>
                  </use>
                  <path fill="none" stroke="white" stroke-width="1.5" d="M0,-3.0v7 M-2.5,-0.5L0,-3.0L2.5,-0.5"/>
                </g>
                <g id="arrowRight" xlink:href="#dirArrow" transform="rotate(90) translate(36 -43)" onmousedown="handlePan(1,0)">
                  <use xlink:href="#rim" fill="#404040">
                        <set attributeName="fill" to="#808080" begin="arrowRight.mouseover" end="arrowRight.mouseout"/>
                  </use>
                  <path fill="none" stroke="white" stroke-width="1.5" d="M0,-3.0v7 M-2.5,-0.5L0,-3.0L2.5,-0.5"/>
                </g>
                <g id="arrowDown" xlink:href="#dirArrow" transform="rotate(180) translate(-30 -48)" onmousedown="handlePan(0,1)">
                  <use xlink:href="#rim" fill="#404040">
                        <set attributeName="fill" to="#808080" begin="arrowDown.mouseover" end="arrowDown.mouseout"/>
                  </use>
                  <path fill="none" stroke="white" stroke-width="1.5" d="M0,-3.0v7 M-2.5,-0.5L0,-3.0L2.5,-0.5"/>
                </g>
                <g id="arrowLeft" xlink:href="#dirArrow" transform="rotate(270) translate(-36 17)" onmousedown="handlePan(-1,0)">
                  <use xlink:href="#rim" fill="#404040">
                        <set attributeName="fill" to="#808080" begin="arrowLeft.mouseover" end="arrowLeft.mouseout"/>
                  </use>
                  <path fill="none" stroke="white" stroke-width="1.5" d="M0,-3.0v7 M-2.5,-0.5L0,-3.0L2.5,-0.5"/>
                </g>
        </g>
        <svg viewBox="0 0 15 15" width="100%" height="30px" preserveAspectRatio="xMaxYMin meet">
         <g id="arrow_out" transform="scale(0.3 0.3)">
          <a xlink:href="classlfield_a7eba0ea85f6f0df54a45cf97cd3ad53d_icgraph_org.svg" target="_base">
           <rect id="button" ry="5" rx="5" y="6" x="6" height="38" width="38"
                fill="#f2f5e9" fill-opacity="0.5" stroke="#606060" stroke-width="1.0"/>
           <path id="arrow"
             d="M 11.500037,31.436501 C 11.940474,20.09759 22.043105,11.32322 32.158766,21.979434 L 37.068811,17.246167 C 37.068811,17.246167 37.088388,32 37.088388,32 L 22.160133,31.978069 C 22.160133,31.978069 26.997745,27.140456 26.997745,27.140456 C 18.528582,18.264221 13.291696,25.230495 11.500037,31.436501 z"
             style="fill:#404040;"/>
          </a>
         </g>
        </svg>
</svg>
