<?xml version="1.0" encoding="UTF-8" standalone="no"?>
<!DOCTYPE svg PUBLIC "-//W3C//DTD SVG 1.1//EN"
 "http://www.w3.org/Graphics/SVG/1.1/DTD/svg11.dtd">
<!-- Generated by graphviz version 2.40.1 (20161225.0304)
 -->
<!-- Title: gfield::reduce_hatta Pages: 1 -->
<svg width="250pt" height="142pt"
 viewBox="0.00 0.00 250.00 142.00" xmlns="http://www.w3.org/2000/svg" xmlns:xlink="http://www.w3.org/1999/xlink">
<g id="graph0" class="graph" transform="scale(1 1) rotate(0) translate(4 138)">
<title>gfield::reduce_hatta</title>
<polygon fill="#ffffff" stroke="transparent" points="-4,4 -4,-138 246,-138 246,4 -4,4"/>
<!-- Node56 -->
<g id="node1" class="node">
<title>Node56</title>
<polygon fill="#bfbfbf" stroke="#000000" points="0,-57.5 0,-76.5 102,-76.5 102,-57.5 0,-57.5"/>
<text text-anchor="middle" x="51" y="-64.5" font-family="Helvetica,sans-Serif" font-size="10.00" fill="#000000">gfield::reduce_hatta</text>
</g>
<!-- Node57 -->
<g id="node2" class="node">
<title>Node57</title>
<g id="a_node2"><a xlink:href="classlfield.html#a6525c9ba54e57f27ff551fc3f6169f14" target="_top" xlink:title="lfield::getNxl">
<polygon fill="#ffffff" stroke="#000000" points="154.5,-114.5 154.5,-133.5 225.5,-133.5 225.5,-114.5 154.5,-114.5"/>
<text text-anchor="middle" x="190" y="-121.5" font-family="Helvetica,sans-Serif" font-size="10.00" fill="#000000">lfield::getNxl</text>
</a>
</g>
</g>
<!-- Node56&#45;&gt;Node57 -->
<g id="edge1" class="edge">
<title>Node56&#45;&gt;Node57</title>
<path fill="none" stroke="#191970" d="M71.9433,-76.5794C89.4712,-84.4922 115.2032,-95.8666 138,-105 142.8932,-106.9604 148.0764,-108.9529 153.2008,-110.8737"/>
<polygon fill="#191970" stroke="#191970" points="152.2977,-114.2712 162.891,-114.4519 154.7226,-107.7046 152.2977,-114.2712"/>
</g>
<!-- Node58 -->
<g id="node3" class="node">
<title>Node58</title>
<g id="a_node3"><a xlink:href="classlfield.html#a7eba0ea85f6f0df54a45cf97cd3ad53d" target="_top" xlink:title="lfield::getNyl">
<polygon fill="#ffffff" stroke="#000000" points="154.5,-76.5 154.5,-95.5 225.5,-95.5 225.5,-76.5 154.5,-76.5"/>
<text text-anchor="middle" x="190" y="-83.5" font-family="Helvetica,sans-Serif" font-size="10.00" fill="#000000">lfield::getNyl</text>
</a>
</g>
</g>
<!-- Node56&#45;&gt;Node58 -->
<g id="edge2" class="edge">
<title>Node56&#45;&gt;Node58</title>
<path fill="none" stroke="#191970" d="M102.3635,-74.0209C116.168,-75.9079 130.9988,-77.9351 144.4625,-79.7755"/>
<polygon fill="#191970" stroke="#191970" points="144.0703,-83.2543 154.4522,-81.1409 145.0183,-76.3188 144.0703,-83.2543"/>
</g>
<!-- Node59 -->
<g id="node4" class="node">
<title>Node59</title>
<g id="a_node4"><a xlink:href="classmpi__class.html#ab876ade2f1b994bb1c920d1de9375cf6" target="_top" xlink:title="mpi_class::getPosX">
<polygon fill="#ffffff" stroke="#000000" points="138,-38.5 138,-57.5 242,-57.5 242,-38.5 138,-38.5"/>
<text text-anchor="middle" x="190" y="-45.5" font-family="Helvetica,sans-Serif" font-size="10.00" fill="#000000">mpi_class::getPosX</text>
</a>
</g>
</g>
<!-- Node56&#45;&gt;Node59 -->
<g id="edge3" class="edge">
<title>Node56&#45;&gt;Node59</title>
<path fill="none" stroke="#191970" d="M102.3635,-59.9791C110.7013,-58.8394 119.4135,-57.6485 127.9728,-56.4785"/>
<polygon fill="#191970" stroke="#191970" points="128.4849,-59.9412 137.9187,-55.119 127.5368,-53.0057 128.4849,-59.9412"/>
</g>
<!-- Node60 -->
<g id="node5" class="node">
<title>Node60</title>
<g id="a_node5"><a xlink:href="classmpi__class.html#aa894e45879f0e9a081efd4d4118b2491" target="_top" xlink:title="mpi_class::getPosY">
<polygon fill="#ffffff" stroke="#000000" points="138,-.5 138,-19.5 242,-19.5 242,-.5 138,-.5"/>
<text text-anchor="middle" x="190" y="-7.5" font-family="Helvetica,sans-Serif" font-size="10.00" fill="#000000">mpi_class::getPosY</text>
</a>
</g>
</g>
<!-- Node56&#45;&gt;Node60 -->
<g id="edge4" class="edge">
<title>Node56&#45;&gt;Node60</title>
<path fill="none" stroke="#191970" d="M71.9433,-57.4206C89.4712,-49.5078 115.2032,-38.1334 138,-29 142.8932,-27.0396 148.0764,-25.0471 153.2008,-23.1263"/>
<polygon fill="#191970" stroke="#191970" points="154.7226,-26.2954 162.891,-19.5481 152.2977,-19.7288 154.7226,-26.2954"/>
</g>
</g>
</svg>
