<?xml version="1.0" encoding="UTF-8" standalone="no"?>
<!DOCTYPE svg PUBLIC "-//W3C//DTD SVG 1.1//EN"
 "http://www.w3.org/Graphics/SVG/1.1/DTD/svg11.dtd">
<!-- Generated by graphviz version 2.40.1 (20161225.0304)
 -->
<!-- Title: mpi_class::getPosX Pages: 1 -->
<svg width="481pt" height="508pt"
 viewBox="0.00 0.00 481.00 508.00" xmlns="http://www.w3.org/2000/svg" xmlns:xlink="http://www.w3.org/1999/xlink">
<g id="graph0" class="graph" transform="scale(1 1) rotate(0) translate(4 504)">
<title>mpi_class::getPosX</title>
<polygon fill="#ffffff" stroke="transparent" points="-4,4 -4,-504 477,-504 477,4 -4,4"/>
<!-- Node17 -->
<g id="node1" class="node">
<title>Node17</title>
<polygon fill="#bfbfbf" stroke="#000000" points="0,-240.5 0,-259.5 104,-259.5 104,-240.5 0,-240.5"/>
<text text-anchor="middle" x="52" y="-247.5" font-family="Helvetica,sans-Serif" font-size="10.00" fill="#000000">mpi_class::getPosX</text>
</g>
<!-- Node18 -->
<g id="node2" class="node">
<title>Node18</title>
<g id="a_node2"><a xlink:href="main__explicit_8cpp.html#a0ddf1224851353fc92bfbff6f499fa97" target="_top" xlink:title="main">
<polygon fill="#ffffff" stroke="#000000" points="334,-107.5 334,-126.5 372,-126.5 372,-107.5 334,-107.5"/>
<text text-anchor="middle" x="353" y="-114.5" font-family="Helvetica,sans-Serif" font-size="10.00" fill="#000000">main</text>
</a>
</g>
</g>
<!-- Node17&#45;&gt;Node18 -->
<g id="edge1" class="edge">
<title>Node17&#45;&gt;Node18</title>
<path fill="none" stroke="#191970" d="M63.3748,-231.8245C78.1698,-209.8404 106.1653,-173.4879 140,-155 204.4428,-119.7873 294.6798,-116.1951 333.7316,-116.4639"/>
<polygon fill="#191970" stroke="#191970" points="60.396,-229.9848 57.8637,-240.2726 66.2589,-233.8095 60.396,-229.9848"/>
</g>
<!-- Node19 -->
<g id="node3" class="node">
<title>Node19</title>
<g id="a_node3"><a xlink:href="classmomenta.html#a0e10627cacff2e3f339eac0c017abe94" target="_top" xlink:title="momenta::momenta">
<polygon fill="#ffffff" stroke="#000000" points="153.5,-442.5 153.5,-461.5 257.5,-461.5 257.5,-442.5 153.5,-442.5"/>
<text text-anchor="middle" x="205.5" y="-449.5" font-family="Helvetica,sans-Serif" font-size="10.00" fill="#000000">momenta::momenta</text>
</a>
</g>
</g>
<!-- Node17&#45;&gt;Node19 -->
<g id="edge2" class="edge">
<title>Node17&#45;&gt;Node19</title>
<path fill="none" stroke="#191970" d="M55.9259,-269.7888C64.4153,-307.3249 88.06,-389.0338 140,-433 144.609,-436.9014 149.9812,-440.0025 155.6295,-442.4672"/>
<polygon fill="#191970" stroke="#191970" points="59.2722,-268.6985 53.7633,-259.6485 52.4261,-270.1586 59.2722,-268.6985"/>
</g>
<!-- Node20 -->
<g id="node4" class="node">
<title>Node20</title>
<g id="a_node4"><a xlink:href="classpositions.html#a0eb76de8938a8acd4a959c4dfe0aafab" target="_top" xlink:title="positions::positions">
<polygon fill="#ffffff" stroke="#000000" points="155,-404.5 155,-423.5 256,-423.5 256,-404.5 155,-404.5"/>
<text text-anchor="middle" x="205.5" y="-411.5" font-family="Helvetica,sans-Serif" font-size="10.00" fill="#000000">positions::positions</text>
</a>
</g>
</g>
<!-- Node17&#45;&gt;Node20 -->
<g id="edge3" class="edge">
<title>Node17&#45;&gt;Node20</title>
<path fill="none" stroke="#191970" d="M58.5425,-269.5423C70.0095,-300.7865 96.719,-361.8357 140,-395 145.0751,-398.8889 150.9236,-401.9825 156.9933,-404.4434"/>
<polygon fill="#191970" stroke="#191970" points="61.7442,-268.097 55.12,-259.8284 55.142,-270.4232 61.7442,-268.097"/>
</g>
<!-- Node21 -->
<g id="node5" class="node">
<title>Node21</title>
<g id="a_node5"><a xlink:href="field_8h.html#a775fa9c6bfba32acd280006a6fd3e524" target="_top" xlink:title="prepare_A_local">
<polygon fill="#ffffff" stroke="#000000" points="162.5,-480.5 162.5,-499.5 248.5,-499.5 248.5,-480.5 162.5,-480.5"/>
<text text-anchor="middle" x="205.5" y="-487.5" font-family="Helvetica,sans-Serif" font-size="10.00" fill="#000000">prepare_A_local</text>
</a>
</g>
</g>
<!-- Node17&#45;&gt;Node21 -->
<g id="edge4" class="edge">
<title>Node17&#45;&gt;Node21</title>
<path fill="none" stroke="#191970" d="M54.0783,-269.6452C59.6885,-312.6535 79.0886,-415.7067 140,-471 146.3122,-476.73 154.2549,-480.7398 162.4117,-483.5437"/>
<polygon fill="#191970" stroke="#191970" points="57.5436,-269.1462 52.8848,-259.6307 50.5928,-269.9746 57.5436,-269.1462"/>
</g>
<!-- Node23 -->
<g id="node7" class="node">
<title>Node23</title>
<g id="a_node7"><a xlink:href="classlfield.html#adc12acff8aae699d6672814e537435dd" target="_top" xlink:title="lfield::print">
<polygon fill="#ffffff" stroke="#000000" points="174.5,-328.5 174.5,-347.5 236.5,-347.5 236.5,-328.5 174.5,-328.5"/>
<text text-anchor="middle" x="205.5" y="-335.5" font-family="Helvetica,sans-Serif" font-size="10.00" fill="#000000">lfield::print</text>
</a>
</g>
</g>
<!-- Node17&#45;&gt;Node23 -->
<g id="edge6" class="edge">
<title>Node17&#45;&gt;Node23</title>
<path fill="none" stroke="#191970" d="M69.4132,-266.571C86.2794,-281.8272 113.1743,-304.1323 140,-318 150.6676,-323.5147 163.1132,-327.791 174.2734,-330.9478"/>
<polygon fill="#191970" stroke="#191970" points="71.7063,-263.9246 61.9833,-259.7157 66.9595,-269.0693 71.7063,-263.9246"/>
</g>
<!-- Node24 -->
<g id="node8" class="node">
<title>Node24</title>
<g id="a_node8"><a xlink:href="field_8h.html#a463f2cc1e2cd9fa4d1fc3f800835a2aa" target="_top" xlink:title="print">
<polygon fill="#ffffff" stroke="#000000" points="188,-366.5 188,-385.5 223,-385.5 223,-366.5 188,-366.5"/>
<text text-anchor="middle" x="205.5" y="-373.5" font-family="Helvetica,sans-Serif" font-size="10.00" fill="#000000">print</text>
</a>
</g>
</g>
<!-- Node17&#45;&gt;Node24 -->
<g id="edge7" class="edge">
<title>Node17&#45;&gt;Node24</title>
<path fill="none" stroke="#191970" d="M62.3215,-268.4441C76.6649,-292.3942 104.8684,-333.8608 140,-357 154.5356,-366.5738 173.9751,-371.4175 187.8939,-373.8066"/>
<polygon fill="#191970" stroke="#191970" points="65.2525,-266.5218 57.2003,-259.636 59.201,-270.0403 65.2525,-266.5218"/>
</g>
<!-- Node27 -->
<g id="node11" class="node">
<title>Node27</title>
<g id="a_node11"><a xlink:href="classlfield.html#a4c138bcbb790040be8ebdab268470ba3" target="_top" xlink:title="lfield::printDebug">
<polygon fill="#ffffff" stroke="#000000" points="160.5,-240.5 160.5,-259.5 250.5,-259.5 250.5,-240.5 160.5,-240.5"/>
<text text-anchor="middle" x="205.5" y="-247.5" font-family="Helvetica,sans-Serif" font-size="10.00" fill="#000000">lfield::printDebug</text>
</a>
</g>
</g>
<!-- Node17&#45;&gt;Node27 -->
<g id="edge11" class="edge">
<title>Node17&#45;&gt;Node27</title>
<path fill="none" stroke="#191970" d="M114.7901,-250C130.0226,-250 146.0143,-250 160.2549,-250"/>
<polygon fill="#191970" stroke="#191970" points="114.3967,-246.5001 104.3967,-250 114.3966,-253.5001 114.3967,-246.5001"/>
</g>
<!-- Node28 -->
<g id="node12" class="node">
<title>Node28</title>
<g id="a_node12"><a xlink:href="classgfield.html#a64cb5db1c89298f4726366667fd266a0" target="_top" xlink:title="gfield::reduce">
<polygon fill="#ffffff" stroke="#000000" points="168,-202.5 168,-221.5 243,-221.5 243,-202.5 168,-202.5"/>
<text text-anchor="middle" x="205.5" y="-209.5" font-family="Helvetica,sans-Serif" font-size="10.00" fill="#000000">gfield::reduce</text>
</a>
</g>
</g>
<!-- Node17&#45;&gt;Node28 -->
<g id="edge12" class="edge">
<title>Node17&#45;&gt;Node28</title>
<path fill="none" stroke="#191970" d="M100.4571,-238.0041C122.2254,-232.6152 147.5243,-226.3523 167.8391,-221.3232"/>
<polygon fill="#191970" stroke="#191970" points="99.6004,-234.6104 90.7345,-240.411 101.2826,-241.4053 99.6004,-234.6104"/>
</g>
<!-- Node29 -->
<g id="node13" class="node">
<title>Node29</title>
<g id="a_node13"><a xlink:href="classgfield.html#a16112e9685d6442818f2a308811620f6" target="_top" xlink:title="gfield::reduce_hatta">
<polygon fill="#ffffff" stroke="#000000" points="154.5,-164.5 154.5,-183.5 256.5,-183.5 256.5,-164.5 154.5,-164.5"/>
<text text-anchor="middle" x="205.5" y="-171.5" font-family="Helvetica,sans-Serif" font-size="10.00" fill="#000000">gfield::reduce_hatta</text>
</a>
</g>
</g>
<!-- Node17&#45;&gt;Node29 -->
<g id="edge13" class="edge">
<title>Node17&#45;&gt;Node29</title>
<path fill="none" stroke="#191970" d="M72.3319,-234.3636C89.559,-221.7364 115.3268,-204.2724 140,-193 148.0772,-189.3098 157.0435,-186.151 165.6848,-183.5291"/>
<polygon fill="#191970" stroke="#191970" points="70.0737,-231.6815 64.1527,-240.4675 74.2604,-237.2916 70.0737,-231.6815"/>
</g>
<!-- Node30 -->
<g id="node14" class="node">
<title>Node30</title>
<g id="a_node14"><a xlink:href="classlfield.html#a1370b1b3fd05bfcffb64018dd3bedf70" target="_top" xlink:title="lfield::setKernelPbarX">
<polygon fill="#ffffff" stroke="#000000" points="150,-.5 150,-19.5 261,-19.5 261,-.5 150,-.5"/>
<text text-anchor="middle" x="205.5" y="-7.5" font-family="Helvetica,sans-Serif" font-size="10.00" fill="#000000">lfield::setKernelPbarX</text>
</a>
</g>
</g>
<!-- Node17&#45;&gt;Node30 -->
<g id="edge14" class="edge">
<title>Node17&#45;&gt;Node30</title>
<path fill="none" stroke="#191970" d="M54.0783,-230.3548C59.6885,-187.3465 79.0886,-84.2933 140,-29 144.2958,-25.1004 149.3467,-21.9976 154.7065,-19.5293"/>
<polygon fill="#191970" stroke="#191970" points="50.5928,-230.0254 52.8848,-240.3693 57.5436,-230.8538 50.5928,-230.0254"/>
</g>
<!-- Node31 -->
<g id="node15" class="node">
<title>Node31</title>
<g id="a_node15"><a xlink:href="classlfield.html#a1caeadd397716179bb8d72b60236cffb" target="_top" xlink:title="lfield::setKernelPbarXWith\lCouplingConstant">
<polygon fill="#ffffff" stroke="#000000" points="140,-279 140,-309 271,-309 271,-279 140,-279"/>
<text text-anchor="start" x="148" y="-297" font-family="Helvetica,sans-Serif" font-size="10.00" fill="#000000">lfield::setKernelPbarXWith</text>
<text text-anchor="middle" x="205.5" y="-286" font-family="Helvetica,sans-Serif" font-size="10.00" fill="#000000">CouplingConstant</text>
</a>
</g>
</g>
<!-- Node17&#45;&gt;Node31 -->
<g id="edge16" class="edge">
<title>Node17&#45;&gt;Node31</title>
<path fill="none" stroke="#191970" d="M94.9513,-262.3118C112.9444,-267.4694 134.0344,-273.5148 152.9424,-278.9346"/>
<polygon fill="#191970" stroke="#191970" points="95.8845,-258.9384 85.3072,-259.5473 93.9556,-265.6674 95.8845,-258.9384"/>
</g>
<!-- Node32 -->
<g id="node16" class="node">
<title>Node32</title>
<g id="a_node16"><a xlink:href="classlfield.html#a6b6c5fddce5518d9909f64b89b873a68" target="_top" xlink:title="lfield::setKernelPbarY">
<polygon fill="#ffffff" stroke="#000000" points="150,-88.5 150,-107.5 261,-107.5 261,-88.5 150,-88.5"/>
<text text-anchor="middle" x="205.5" y="-95.5" font-family="Helvetica,sans-Serif" font-size="10.00" fill="#000000">lfield::setKernelPbarY</text>
</a>
</g>
</g>
<!-- Node17&#45;&gt;Node32 -->
<g id="edge18" class="edge">
<title>Node17&#45;&gt;Node32</title>
<path fill="none" stroke="#191970" d="M60.3274,-231.1327C73.447,-203.4561 101.459,-151.9035 140,-122 147.9418,-115.838 157.6191,-111.1489 167.0717,-107.6252"/>
<polygon fill="#191970" stroke="#191970" points="57.0294,-229.9278 56.0375,-240.4761 63.3909,-232.8486 57.0294,-229.9278"/>
</g>
<!-- Node33 -->
<g id="node17" class="node">
<title>Node33</title>
<g id="a_node17"><a xlink:href="classlfield.html#af3c6253e8700837bcc8121ef328f41ef" target="_top" xlink:title="lfield::setKernelPbarYWith\lCouplingConstant">
<polygon fill="#ffffff" stroke="#000000" points="140,-39 140,-69 271,-69 271,-39 140,-39"/>
<text text-anchor="start" x="148" y="-57" font-family="Helvetica,sans-Serif" font-size="10.00" fill="#000000">lfield::setKernelPbarYWith</text>
<text text-anchor="middle" x="205.5" y="-46" font-family="Helvetica,sans-Serif" font-size="10.00" fill="#000000">CouplingConstant</text>
</a>
</g>
</g>
<!-- Node17&#45;&gt;Node33 -->
<g id="edge20" class="edge">
<title>Node17&#45;&gt;Node33</title>
<path fill="none" stroke="#191970" d="M57.0435,-230.4177C67.0467,-195.3151 92.6329,-121.3954 140,-79 144.2627,-75.1848 149.1679,-71.9278 154.3361,-69.1526"/>
<polygon fill="#191970" stroke="#191970" points="53.5862,-229.7933 54.3354,-240.3616 60.3402,-231.6327 53.5862,-229.7933"/>
</g>
<!-- Node22 -->
<g id="node6" class="node">
<title>Node22</title>
<g id="a_node6"><a xlink:href="main__optimized_8cpp.html#a0ddf1224851353fc92bfbff6f499fa97" target="_top" xlink:title="main">
<polygon fill="#ffffff" stroke="#000000" points="334,-480.5 334,-499.5 372,-499.5 372,-480.5 334,-480.5"/>
<text text-anchor="middle" x="353" y="-487.5" font-family="Helvetica,sans-Serif" font-size="10.00" fill="#000000">main</text>
</a>
</g>
</g>
<!-- Node21&#45;&gt;Node22 -->
<g id="edge5" class="edge">
<title>Node21&#45;&gt;Node22</title>
<path fill="none" stroke="#191970" d="M258.751,-490C284.9257,-490 314.8425,-490 333.8186,-490"/>
<polygon fill="#191970" stroke="#191970" points="258.5597,-486.5001 248.5596,-490 258.5596,-493.5001 258.5597,-486.5001"/>
</g>
<!-- Node24&#45;&gt;Node18 -->
<g id="edge8" class="edge">
<title>Node24&#45;&gt;Node18</title>
<path fill="none" stroke="#191970" d="M233.5351,-373.748C246.3879,-371.3691 260.9613,-366.5786 271,-357 340.4473,-290.736 351.0802,-163.2898 352.7066,-126.9142"/>
<polygon fill="#191970" stroke="#191970" points="232.6766,-370.3357 223.2807,-375.2312 233.6788,-377.2636 232.6766,-370.3357"/>
</g>
<!-- Node25 -->
<g id="node9" class="node">
<title>Node25</title>
<g id="a_node9"><a xlink:href="classlfield.html#a6220e9fc7f5d24c493f7ab3382fb36aa" target="_top" xlink:title="lfield::setToFixed">
<polygon fill="#ffffff" stroke="#000000" points="307,-366.5 307,-385.5 399,-385.5 399,-366.5 307,-366.5"/>
<text text-anchor="middle" x="353" y="-373.5" font-family="Helvetica,sans-Serif" font-size="10.00" fill="#000000">lfield::setToFixed</text>
</a>
</g>
</g>
<!-- Node24&#45;&gt;Node25 -->
<g id="edge9" class="edge">
<title>Node24&#45;&gt;Node25</title>
<path fill="none" stroke="#191970" d="M233.298,-376C253.9529,-376 282.6019,-376 306.6937,-376"/>
<polygon fill="#191970" stroke="#191970" points="233.292,-372.5001 223.2919,-376 233.2919,-379.5001 233.292,-372.5001"/>
</g>
<!-- Node26 -->
<g id="node10" class="node">
<title>Node26</title>
<g id="a_node10"><a xlink:href="test__symmetrize__average2_8cpp.html#a0ddf1224851353fc92bfbff6f499fa97" target="_top" xlink:title="main">
<polygon fill="#ffffff" stroke="#000000" points="435,-366.5 435,-385.5 473,-385.5 473,-366.5 435,-366.5"/>
<text text-anchor="middle" x="454" y="-373.5" font-family="Helvetica,sans-Serif" font-size="10.00" fill="#000000">main</text>
</a>
</g>
</g>
<!-- Node25&#45;&gt;Node26 -->
<g id="edge10" class="edge">
<title>Node25&#45;&gt;Node26</title>
<path fill="none" stroke="#191970" d="M409.328,-376C418.3773,-376 427.1737,-376 434.5337,-376"/>
<polygon fill="#191970" stroke="#191970" points="409.0666,-372.5001 399.0666,-376 409.0666,-379.5001 409.0666,-372.5001"/>
</g>
<!-- Node30&#45;&gt;Node18 -->
<g id="edge15" class="edge">
<title>Node30&#45;&gt;Node18</title>
<path fill="none" stroke="#191970" d="M260.1366,-23.3388C263.918,-25.0169 267.5806,-26.8965 271,-29 305.3277,-50.1176 334.5024,-89.4108 346.7828,-107.4715"/>
<polygon fill="#191970" stroke="#191970" points="261.1501,-19.9763 250.563,-19.5697 258.5857,-26.4897 261.1501,-19.9763"/>
</g>
<!-- Node31&#45;&gt;Node18 -->
<g id="edge17" class="edge">
<title>Node31&#45;&gt;Node18</title>
<path fill="none" stroke="#191970" d="M264.8936,-273.7395C267.0323,-272.2638 269.0789,-270.6861 271,-269 317.8736,-227.8603 342.7104,-153.2289 350.3763,-126.6884"/>
<polygon fill="#191970" stroke="#191970" points="263.0197,-270.7822 256.259,-278.9396 266.6312,-276.7787 263.0197,-270.7822"/>
</g>
<!-- Node32&#45;&gt;Node18 -->
<g id="edge19" class="edge">
<title>Node32&#45;&gt;Node18</title>
<path fill="none" stroke="#191970" d="M271.2947,-106.4753C294.1073,-109.4138 317.9471,-112.4847 333.946,-114.5456"/>
<polygon fill="#191970" stroke="#191970" points="271.6287,-102.9894 261.2634,-105.1831 270.7343,-109.9321 271.6287,-102.9894"/>
</g>
<!-- Node33&#45;&gt;Node18 -->
<g id="edge21" class="edge">
<title>Node33&#45;&gt;Node18</title>
<path fill="none" stroke="#191970" d="M255.5761,-72.7022C260.8045,-74.7773 266.0237,-76.9002 271,-79 292.8289,-88.2107 317.4356,-99.7764 333.9486,-107.7145"/>
<polygon fill="#191970" stroke="#191970" points="256.7935,-69.4202 246.2057,-69.0342 254.2419,-75.9386 256.7935,-69.4202"/>
</g>
</g>
</svg>
