<?xml version="1.0" encoding="UTF-8" standalone="no"?>
<!DOCTYPE svg PUBLIC "-//W3C//DTD SVG 1.1//EN"
 "http://www.w3.org/Graphics/SVG/1.1/DTD/svg11.dtd">
<!-- Generated by graphviz version 2.40.1 (20161225.0304)
 -->
<!-- Title: su3_matrix::exponentiate Pages: 1 -->
<svg width="363pt" height="142pt"
 viewBox="0.00 0.00 363.00 142.00" xmlns="http://www.w3.org/2000/svg" xmlns:xlink="http://www.w3.org/1999/xlink">
<g id="graph0" class="graph" transform="scale(1 1) rotate(0) translate(4 138)">
<title>su3_matrix::exponentiate</title>
<polygon fill="#ffffff" stroke="transparent" points="-4,4 -4,-138 359,-138 359,4 -4,4"/>
<!-- Node6 -->
<g id="node1" class="node">
<title>Node6</title>
<polygon fill="#bfbfbf" stroke="#000000" points="0,-57.5 0,-76.5 126,-76.5 126,-57.5 0,-57.5"/>
<text text-anchor="middle" x="63" y="-64.5" font-family="Helvetica,sans-Serif" font-size="10.00" fill="#000000">su3_matrix::exponentiate</text>
</g>
<!-- Node7 -->
<g id="node2" class="node">
<title>Node7</title>
<g id="a_node2"><a xlink:href="classlfield.html#a8299544558cca4ccb188039e6d868aee" target="_top" xlink:title="lfield::exponentiate">
<polygon fill="#ffffff" stroke="#000000" points="172.5,-114.5 172.5,-133.5 270.5,-133.5 270.5,-114.5 172.5,-114.5"/>
<text text-anchor="middle" x="221.5" y="-121.5" font-family="Helvetica,sans-Serif" font-size="10.00" fill="#000000">lfield::exponentiate</text>
</a>
</g>
</g>
<!-- Node6&#45;&gt;Node7 -->
<g id="edge1" class="edge">
<title>Node6&#45;&gt;Node7</title>
<path fill="none" stroke="#191970" d="M96.3288,-80.3409C115.4486,-87.8561 139.9608,-97.2586 162,-105 171.2078,-108.2343 181.2954,-111.5428 190.5061,-114.4736"/>
<polygon fill="#191970" stroke="#191970" points="97.4502,-77.0207 86.8636,-76.6017 94.8782,-83.5311 97.4502,-77.0207"/>
</g>
<!-- Node9 -->
<g id="node4" class="node">
<title>Node9</title>
<g id="a_node4"><a xlink:href="classlfield.html#ad794d8e7e1cb4685d665e0b474f8901b" target="_top" xlink:title="lfield::operator*=">
<polygon fill="#ffffff" stroke="#000000" points="177.5,-76.5 177.5,-95.5 265.5,-95.5 265.5,-76.5 177.5,-76.5"/>
<text text-anchor="middle" x="221.5" y="-83.5" font-family="Helvetica,sans-Serif" font-size="10.00" fill="#000000">lfield::operator*=</text>
</a>
</g>
</g>
<!-- Node6&#45;&gt;Node9 -->
<g id="edge3" class="edge">
<title>Node6&#45;&gt;Node9</title>
<path fill="none" stroke="#191970" d="M136.2091,-75.7759C150.1895,-77.4517 164.4221,-79.1579 177.153,-80.684"/>
<polygon fill="#191970" stroke="#191970" points="136.4443,-72.2791 126.0988,-74.5639 135.6111,-79.2293 136.4443,-72.2791"/>
</g>
<!-- Node10 -->
<g id="node5" class="node">
<title>Node10</title>
<g id="a_node5"><a xlink:href="classsu3__matrix.html#aa149493632baf4843bb12be0f954fda7" target="_top" xlink:title="su3_matrix::su3_matrix">
<polygon fill="#ffffff" stroke="#000000" points="162,-38.5 162,-57.5 281,-57.5 281,-38.5 162,-38.5"/>
<text text-anchor="middle" x="221.5" y="-45.5" font-family="Helvetica,sans-Serif" font-size="10.00" fill="#000000">su3_matrix::su3_matrix</text>
</a>
</g>
</g>
<!-- Node6&#45;&gt;Node10 -->
<g id="edge4" class="edge">
<title>Node6&#45;&gt;Node10</title>
<path fill="none" stroke="#191970" d="M136.1721,-58.2286C144.812,-57.1929 153.5489,-56.1456 161.9687,-55.1362"/>
<polygon fill="#191970" stroke="#191970" points="135.6111,-54.7707 126.0988,-59.4361 136.4443,-61.7209 135.6111,-54.7707"/>
</g>
<!-- Node11 -->
<g id="node6" class="node">
<title>Node11</title>
<g id="a_node6"><a xlink:href="field_8h.html#aea30ef7d1293ae1aa73d254f8eaef4c7" target="_top" xlink:title="update_uf">
<polygon fill="#ffffff" stroke="#000000" points="192,-.5 192,-19.5 251,-19.5 251,-.5 192,-.5"/>
<text text-anchor="middle" x="221.5" y="-7.5" font-family="Helvetica,sans-Serif" font-size="10.00" fill="#000000">update_uf</text>
</a>
</g>
</g>
<!-- Node6&#45;&gt;Node11 -->
<g id="edge5" class="edge">
<title>Node6&#45;&gt;Node11</title>
<path fill="none" stroke="#191970" d="M96.3288,-53.6591C115.4486,-46.1439 139.9608,-36.7414 162,-29 171.6171,-25.6219 182.1938,-22.1629 191.7288,-19.1379"/>
<polygon fill="#191970" stroke="#191970" points="94.8782,-50.4689 86.8636,-57.3983 97.4502,-56.9793 94.8782,-50.4689"/>
</g>
<!-- Node8 -->
<g id="node3" class="node">
<title>Node8</title>
<g id="a_node3"><a xlink:href="main__explicit_8cpp.html#a0ddf1224851353fc92bfbff6f499fa97" target="_top" xlink:title="main">
<polygon fill="#ffffff" stroke="#000000" points="317,-57.5 317,-76.5 355,-76.5 355,-57.5 317,-57.5"/>
<text text-anchor="middle" x="336" y="-64.5" font-family="Helvetica,sans-Serif" font-size="10.00" fill="#000000">main</text>
</a>
</g>
</g>
<!-- Node7&#45;&gt;Node8 -->
<g id="edge2" class="edge">
<title>Node7&#45;&gt;Node8</title>
<path fill="none" stroke="#191970" d="M267.1664,-110.9568C271.9166,-109.1464 276.6086,-107.1585 281,-105 297.0403,-97.1158 313.6854,-84.9659 324.403,-76.5356"/>
<polygon fill="#191970" stroke="#191970" points="265.6639,-107.7761 257.412,-114.4212 268.0068,-114.3724 265.6639,-107.7761"/>
</g>
<!-- Node11&#45;&gt;Node8 -->
<g id="edge6" class="edge">
<title>Node11&#45;&gt;Node8</title>
<path fill="none" stroke="#191970" d="M261.0348,-20.8101C267.832,-23.178 274.7231,-25.9147 281,-29 297.0403,-36.8842 313.6854,-49.0341 324.403,-57.4644"/>
<polygon fill="#191970" stroke="#191970" points="261.8182,-17.384 251.2257,-17.607 259.6452,-24.0383 261.8182,-17.384"/>
</g>
</g>
</svg>
