<?xml version="1.0" encoding="UTF-8" standalone="no"?>
<!DOCTYPE svg PUBLIC "-//W3C//DTD SVG 1.1//EN"
 "http://www.w3.org/Graphics/SVG/1.1/DTD/svg11.dtd">
<!-- Generated by graphviz version 2.40.1 (20161225.0304)
 -->
<!-- Title: mpi_class::getSize Pages: 1 -->
<svg width="429pt" height="104pt"
 viewBox="0.00 0.00 429.00 104.00" xmlns="http://www.w3.org/2000/svg" xmlns:xlink="http://www.w3.org/1999/xlink">
<g id="graph0" class="graph" transform="scale(1 1) rotate(0) translate(4 100)">
<title>mpi_class::getSize</title>
<polygon fill="#ffffff" stroke="transparent" points="-4,4 -4,-100 425,-100 425,4 -4,4"/>
<!-- Node64 -->
<g id="node1" class="node">
<title>Node64</title>
<polygon fill="#bfbfbf" stroke="#000000" points="0,-38.5 0,-57.5 100,-57.5 100,-38.5 0,-38.5"/>
<text text-anchor="middle" x="50" y="-45.5" font-family="Helvetica,sans-Serif" font-size="10.00" fill="#000000">mpi_class::getSize</text>
</g>
<!-- Node65 -->
<g id="node2" class="node">
<title>Node65</title>
<g id="a_node2"><a xlink:href="classgfield.html#a0dcff590c53a428a50567d25d10404e2" target="_top" xlink:title="Specialization of the MPI Allgather function to the lfield class. ">
<polygon fill="#ffffff" stroke="#000000" points="136,-76.5 136,-95.5 219,-95.5 219,-76.5 136,-76.5"/>
<text text-anchor="middle" x="177.5" y="-83.5" font-family="Helvetica,sans-Serif" font-size="10.00" fill="#000000">gfield::allgather</text>
</a>
</g>
</g>
<!-- Node64&#45;&gt;Node65 -->
<g id="edge1" class="edge">
<title>Node64&#45;&gt;Node65</title>
<path fill="none" stroke="#191970" d="M92.0592,-60.5353C109.4041,-65.7048 129.1812,-71.5991 145.3367,-76.4141"/>
<polygon fill="#191970" stroke="#191970" points="92.7568,-57.0911 82.1736,-57.589 90.7574,-63.7995 92.7568,-57.0911"/>
</g>
<!-- Node67 -->
<g id="node4" class="node">
<title>Node67</title>
<g id="a_node4"><a xlink:href="classlfield.html#adc12acff8aae699d6672814e537435dd" target="_top" xlink:title="Simple print function. ">
<polygon fill="#ffffff" stroke="#000000" points="146.5,-38.5 146.5,-57.5 208.5,-57.5 208.5,-38.5 146.5,-38.5"/>
<text text-anchor="middle" x="177.5" y="-45.5" font-family="Helvetica,sans-Serif" font-size="10.00" fill="#000000">lfield::print</text>
</a>
</g>
</g>
<!-- Node64&#45;&gt;Node67 -->
<g id="edge3" class="edge">
<title>Node64&#45;&gt;Node67</title>
<path fill="none" stroke="#191970" d="M110.0313,-48C122.6063,-48 135.375,-48 146.3712,-48"/>
<polygon fill="#191970" stroke="#191970" points="110.0255,-44.5001 100.0254,-48 110.0254,-51.5001 110.0255,-44.5001"/>
</g>
<!-- Node68 -->
<g id="node5" class="node">
<title>Node68</title>
<g id="a_node5"><a xlink:href="field_8h.html#a463f2cc1e2cd9fa4d1fc3f800835a2aa" target="_top" xlink:title="Simple print function. ">
<polygon fill="#ffffff" stroke="#000000" points="160,-.5 160,-19.5 195,-19.5 195,-.5 160,-.5"/>
<text text-anchor="middle" x="177.5" y="-7.5" font-family="Helvetica,sans-Serif" font-size="10.00" fill="#000000">print</text>
</a>
</g>
</g>
<!-- Node64&#45;&gt;Node68 -->
<g id="edge4" class="edge">
<title>Node64&#45;&gt;Node68</title>
<path fill="none" stroke="#191970" d="M91.7662,-35.552C114.874,-28.665 142.3732,-20.4692 159.8805,-15.2513"/>
<polygon fill="#191970" stroke="#191970" points="90.7573,-32.2005 82.1736,-38.411 92.7568,-38.9089 90.7573,-32.2005"/>
</g>
<!-- Node66 -->
<g id="node3" class="node">
<title>Node66</title>
<g id="a_node3"><a xlink:href="main__explicit_8cpp.html#a0ddf1224851353fc92bfbff6f499fa97" target="_top" xlink:title="main">
<polygon fill="#ffffff" stroke="#000000" points="282,-57.5 282,-76.5 320,-76.5 320,-57.5 282,-57.5"/>
<text text-anchor="middle" x="301" y="-64.5" font-family="Helvetica,sans-Serif" font-size="10.00" fill="#000000">main</text>
</a>
</g>
</g>
<!-- Node65&#45;&gt;Node66 -->
<g id="edge2" class="edge">
<title>Node65&#45;&gt;Node66</title>
<path fill="none" stroke="#191970" d="M229.4295,-78.0108C247.9446,-75.1624 267.6685,-72.1279 281.7116,-69.9674"/>
<polygon fill="#191970" stroke="#191970" points="228.663,-74.5875 219.3115,-79.5675 229.7274,-81.5061 228.663,-74.5875"/>
</g>
<!-- Node68&#45;&gt;Node66 -->
<g id="edge5" class="edge">
<title>Node68&#45;&gt;Node66</title>
<path fill="none" stroke="#191970" d="M204.7147,-22.4381C209.4778,-24.6211 214.3848,-26.8741 219,-29 240.5194,-38.9123 265.1817,-50.352 281.7924,-58.0685"/>
<polygon fill="#191970" stroke="#191970" points="205.8292,-19.099 195.2798,-18.1184 202.9152,-25.4636 205.8292,-19.099"/>
</g>
<!-- Node69 -->
<g id="node6" class="node">
<title>Node69</title>
<g id="a_node6"><a xlink:href="classlfield.html#a6220e9fc7f5d24c493f7ab3382fb36aa" target="_top" xlink:title="lfield::setToFixed">
<polygon fill="#ffffff" stroke="#000000" points="255,-.5 255,-19.5 347,-19.5 347,-.5 255,-.5"/>
<text text-anchor="middle" x="301" y="-7.5" font-family="Helvetica,sans-Serif" font-size="10.00" fill="#000000">lfield::setToFixed</text>
</a>
</g>
</g>
<!-- Node68&#45;&gt;Node69 -->
<g id="edge6" class="edge">
<title>Node68&#45;&gt;Node69</title>
<path fill="none" stroke="#191970" d="M205.5397,-10C220.0999,-10 238.2655,-10 254.8307,-10"/>
<polygon fill="#191970" stroke="#191970" points="205.1946,-6.5001 195.1945,-10 205.1945,-13.5001 205.1946,-6.5001"/>
</g>
<!-- Node70 -->
<g id="node7" class="node">
<title>Node70</title>
<g id="a_node7"><a xlink:href="test__symmetrize__average2_8cpp.html#a0ddf1224851353fc92bfbff6f499fa97" target="_top" xlink:title="main">
<polygon fill="#ffffff" stroke="#000000" points="383,-.5 383,-19.5 421,-19.5 421,-.5 383,-.5"/>
<text text-anchor="middle" x="402" y="-7.5" font-family="Helvetica,sans-Serif" font-size="10.00" fill="#000000">main</text>
</a>
</g>
</g>
<!-- Node69&#45;&gt;Node70 -->
<g id="edge7" class="edge">
<title>Node69&#45;&gt;Node70</title>
<path fill="none" stroke="#191970" d="M357.328,-10C366.3773,-10 375.1737,-10 382.5337,-10"/>
<polygon fill="#191970" stroke="#191970" points="357.0666,-6.5001 347.0666,-10 357.0666,-13.5001 357.0666,-6.5001"/>
</g>
</g>
</svg>
