<?xml version="1.0" encoding="UTF-8" standalone="no"?>
<!DOCTYPE svg PUBLIC "-//W3C//DTD SVG 1.1//EN"
 "http://www.w3.org/Graphics/SVG/1.1/DTD/svg11.dtd">
<!-- Generated by graphviz version 2.40.1 (20161225.0304)
 -->
<!-- Title: mpi_class::mpi_exchange_groups Pages: 1 -->
<svg width="285pt" height="66pt"
 viewBox="0.00 0.00 285.00 66.00" xmlns="http://www.w3.org/2000/svg" xmlns:xlink="http://www.w3.org/1999/xlink">
<g id="graph0" class="graph" transform="scale(1 1) rotate(0) translate(4 62)">
<title>mpi_class::mpi_exchange_groups</title>
<polygon fill="#ffffff" stroke="transparent" points="-4,4 -4,-62 281,-62 281,4 -4,4"/>
<!-- Node86 -->
<g id="node1" class="node">
<title>Node86</title>
<polygon fill="#bfbfbf" stroke="#000000" points="0,-14 0,-44 130,-44 130,-14 0,-14"/>
<text text-anchor="start" x="8" y="-32" font-family="Helvetica,sans-Serif" font-size="10.00" fill="#000000">mpi_class::mpi_exchange</text>
<text text-anchor="middle" x="65" y="-21" font-family="Helvetica,sans-Serif" font-size="10.00" fill="#000000">_groups</text>
</g>
<!-- Node87 -->
<g id="node2" class="node">
<title>Node87</title>
<g id="a_node2"><a xlink:href="test__initial__condition__fftw1d_8cpp.html#a0ddf1224851353fc92bfbff6f499fa97" target="_top" xlink:title="main">
<polygon fill="#ffffff" stroke="#000000" points="202.5,-38.5 202.5,-57.5 240.5,-57.5 240.5,-38.5 202.5,-38.5"/>
<text text-anchor="middle" x="221.5" y="-45.5" font-family="Helvetica,sans-Serif" font-size="10.00" fill="#000000">main</text>
</a>
</g>
</g>
<!-- Node86&#45;&gt;Node87 -->
<g id="edge1" class="edge">
<title>Node86&#45;&gt;Node87</title>
<path fill="none" stroke="#191970" d="M140.1531,-38.124C163.11,-40.9111 186.4229,-43.7414 202.1715,-45.6534"/>
<polygon fill="#191970" stroke="#191970" points="140.3595,-34.6235 130.0105,-36.8926 139.5157,-41.5724 140.3595,-34.6235"/>
</g>
<!-- Node88 -->
<g id="node3" class="node">
<title>Node88</title>
<g id="a_node3"><a xlink:href="classmpi__class.html#adde25076ac0bf81585dbf15ba7f6ff57" target="_top" xlink:title="mpi_class::mpi_class">
<polygon fill="#ffffff" stroke="#000000" points="166,-.5 166,-19.5 277,-19.5 277,-.5 166,-.5"/>
<text text-anchor="middle" x="221.5" y="-7.5" font-family="Helvetica,sans-Serif" font-size="10.00" fill="#000000">mpi_class::mpi_class</text>
</a>
</g>
</g>
<!-- Node86&#45;&gt;Node88 -->
<g id="edge2" class="edge">
<title>Node86&#45;&gt;Node88</title>
<path fill="none" stroke="#191970" d="M140.1471,-19.8767C148.8237,-18.8233 157.5513,-17.7637 165.9022,-16.7499"/>
<polygon fill="#191970" stroke="#191970" points="139.5157,-16.4276 130.0105,-21.1074 140.3595,-23.3765 139.5157,-16.4276"/>
</g>
</g>
</svg>
