<?xml version="1.0" encoding="UTF-8" standalone="no"?>
<!DOCTYPE svg PUBLIC "-//W3C//DTD SVG 1.1//EN"
 "http://www.w3.org/Graphics/SVG/1.1/DTD/svg11.dtd">
<!-- Generated by graphviz version 2.40.1 (20161225.0304)
 -->
<!-- Title: positions::xhatY Pages: 1 -->
<svg width="339pt" height="242pt"
 viewBox="0.00 0.00 339.00 242.00" xmlns="http://www.w3.org/2000/svg" xmlns:xlink="http://www.w3.org/1999/xlink">
<g id="graph0" class="graph" transform="scale(1 1) rotate(0) translate(4 238)">
<title>positions::xhatY</title>
<polygon fill="#ffffff" stroke="transparent" points="-4,4 -4,-238 335,-238 335,4 -4,4"/>
<!-- Node35 -->
<g id="node1" class="node">
<title>Node35</title>
<polygon fill="#bfbfbf" stroke="#000000" points="0,-110.5 0,-129.5 87,-129.5 87,-110.5 0,-110.5"/>
<text text-anchor="middle" x="43.5" y="-117.5" font-family="Helvetica,sans-Serif" font-size="10.00" fill="#000000">positions::xhatY</text>
</g>
<!-- Node36 -->
<g id="node2" class="node">
<title>Node36</title>
<g id="a_node2"><a xlink:href="field_8h.html#ae43c2aa5da993ce8ed28c1953c02805a" target="_top" xlink:title="prepare_A_and_B_local">
<polygon fill="#ffffff" stroke="#000000" points="130.5,-214.5 130.5,-233.5 249.5,-233.5 249.5,-214.5 130.5,-214.5"/>
<text text-anchor="middle" x="190" y="-221.5" font-family="Helvetica,sans-Serif" font-size="10.00" fill="#000000">prepare_A_and_B_local</text>
</a>
</g>
</g>
<!-- Node35&#45;&gt;Node36 -->
<g id="edge1" class="edge">
<title>Node35&#45;&gt;Node36</title>
<path fill="none" stroke="#191970" d="M55.7334,-138.0458C69.7715,-157.3911 94.5549,-187.655 123,-205 129.2969,-208.8397 136.3971,-211.9283 143.5602,-214.4058"/>
<polygon fill="#191970" stroke="#191970" points="58.5226,-135.9278 49.9003,-129.7708 52.8012,-139.9608 58.5226,-135.9278"/>
</g>
<!-- Node38 -->
<g id="node4" class="node">
<title>Node38</title>
<g id="a_node4"><a xlink:href="classgfield.html#ad90d3015d279c25b8d55f51a706fd0b8" target="_top" xlink:title="gfield::setKernelXbarX">
<polygon fill="#ffffff" stroke="#000000" points="133,-176.5 133,-195.5 247,-195.5 247,-176.5 133,-176.5"/>
<text text-anchor="middle" x="190" y="-183.5" font-family="Helvetica,sans-Serif" font-size="10.00" fill="#000000">gfield::setKernelXbarX</text>
</a>
</g>
</g>
<!-- Node35&#45;&gt;Node38 -->
<g id="edge3" class="edge">
<title>Node35&#45;&gt;Node38</title>
<path fill="none" stroke="#191970" d="M65.6634,-135.2086C81.1734,-145.3161 102.675,-158.2837 123,-167 131.4451,-170.6216 140.7809,-173.7675 149.7343,-176.4008"/>
<polygon fill="#191970" stroke="#191970" points="67.5449,-132.2567 57.2779,-129.6417 63.6733,-138.0886 67.5449,-132.2567"/>
</g>
<!-- Node40 -->
<g id="node6" class="node">
<title>Node40</title>
<g id="a_node6"><a xlink:href="classgfield.html#aea2227cd08dda6575702afa3dd70033f" target="_top" xlink:title="gfield::setKernelXbarXWith\lCouplingConstant">
<polygon fill="#ffffff" stroke="#000000" points="123,-127 123,-157 257,-157 257,-127 123,-127"/>
<text text-anchor="start" x="131" y="-145" font-family="Helvetica,sans-Serif" font-size="10.00" fill="#000000">gfield::setKernelXbarXWith</text>
<text text-anchor="middle" x="190" y="-134" font-family="Helvetica,sans-Serif" font-size="10.00" fill="#000000">CouplingConstant</text>
</a>
</g>
</g>
<!-- Node35&#45;&gt;Node40 -->
<g id="edge5" class="edge">
<title>Node35&#45;&gt;Node40</title>
<path fill="none" stroke="#191970" d="M97.0341,-128.0393C105.3894,-129.294 114.1145,-130.6042 122.7286,-131.8978"/>
<polygon fill="#191970" stroke="#191970" points="97.4671,-124.5651 87.0582,-126.5412 96.4275,-131.4875 97.4671,-124.5651"/>
</g>
<!-- Node41 -->
<g id="node7" class="node">
<title>Node41</title>
<g id="a_node7"><a xlink:href="classgfield.html#aab4026191433a667c8f1a698d1e887ed" target="_top" xlink:title="gfield::setKernelXbarY">
<polygon fill="#ffffff" stroke="#000000" points="133,-88.5 133,-107.5 247,-107.5 247,-88.5 133,-88.5"/>
<text text-anchor="middle" x="190" y="-95.5" font-family="Helvetica,sans-Serif" font-size="10.00" fill="#000000">gfield::setKernelXbarY</text>
</a>
</g>
</g>
<!-- Node35&#45;&gt;Node41 -->
<g id="edge7" class="edge">
<title>Node35&#45;&gt;Node41</title>
<path fill="none" stroke="#191970" d="M97.0528,-111.9579C108.6721,-110.2131 121.0058,-108.3609 132.761,-106.5956"/>
<polygon fill="#191970" stroke="#191970" points="96.4275,-108.5125 87.0582,-113.4588 97.4671,-115.4349 96.4275,-108.5125"/>
</g>
<!-- Node42 -->
<g id="node8" class="node">
<title>Node42</title>
<g id="a_node8"><a xlink:href="classgfield.html#aa5886f04e2cae1df02e4b83aa642dedc" target="_top" xlink:title="gfield::setKernelXbarYWith\lCouplingConstant">
<polygon fill="#ffffff" stroke="#000000" points="123,-39 123,-69 257,-69 257,-39 123,-39"/>
<text text-anchor="start" x="131" y="-57" font-family="Helvetica,sans-Serif" font-size="10.00" fill="#000000">gfield::setKernelXbarYWith</text>
<text text-anchor="middle" x="190" y="-46" font-family="Helvetica,sans-Serif" font-size="10.00" fill="#000000">CouplingConstant</text>
</a>
</g>
</g>
<!-- Node35&#45;&gt;Node42 -->
<g id="edge9" class="edge">
<title>Node35&#45;&gt;Node42</title>
<path fill="none" stroke="#191970" d="M69.488,-105.6026C84.8361,-97.3519 104.7717,-87.0669 123,-79 130.7202,-75.5834 139.0663,-72.218 147.1612,-69.1176"/>
<polygon fill="#191970" stroke="#191970" points="67.6988,-102.5914 60.5808,-110.4389 71.039,-108.7431 67.6988,-102.5914"/>
</g>
<!-- Node43 -->
<g id="node9" class="node">
<title>Node43</title>
<g id="a_node9"><a xlink:href="classpositions.html#a3ce5c1c38ad0d157a9f0321eafa2937b" target="_top" xlink:title="positions::~positions">
<polygon fill="#ffffff" stroke="#000000" points="136.5,-.5 136.5,-19.5 243.5,-19.5 243.5,-.5 136.5,-.5"/>
<text text-anchor="middle" x="190" y="-7.5" font-family="Helvetica,sans-Serif" font-size="10.00" fill="#000000">positions::~positions</text>
</a>
</g>
</g>
<!-- Node35&#45;&gt;Node43 -->
<g id="edge11" class="edge">
<title>Node35&#45;&gt;Node43</title>
<path fill="none" stroke="#191970" d="M54.6117,-101.9046C68.2222,-81.247 93.1833,-47.8825 123,-29 129.1288,-25.1187 136.0651,-22.0131 143.0938,-19.5328"/>
<polygon fill="#191970" stroke="#191970" points="51.6158,-100.093 49.1803,-110.4042 57.5143,-103.8624 51.6158,-100.093"/>
</g>
<!-- Node37 -->
<g id="node3" class="node">
<title>Node37</title>
<g id="a_node3"><a xlink:href="main__optimized_8cpp.html#a0ddf1224851353fc92bfbff6f499fa97" target="_top" xlink:title="main">
<polygon fill="#ffffff" stroke="#000000" points="293,-214.5 293,-233.5 331,-233.5 331,-214.5 293,-214.5"/>
<text text-anchor="middle" x="312" y="-221.5" font-family="Helvetica,sans-Serif" font-size="10.00" fill="#000000">main</text>
</a>
</g>
</g>
<!-- Node36&#45;&gt;Node37 -->
<g id="edge2" class="edge">
<title>Node36&#45;&gt;Node37</title>
<path fill="none" stroke="#191970" d="M259.8653,-224C272.0385,-224 283.7304,-224 292.9459,-224"/>
<polygon fill="#191970" stroke="#191970" points="259.5705,-220.5001 249.5704,-224 259.5704,-227.5001 259.5705,-220.5001"/>
</g>
<!-- Node39 -->
<g id="node5" class="node">
<title>Node39</title>
<g id="a_node5"><a xlink:href="main__explicit_8cpp.html#a0ddf1224851353fc92bfbff6f499fa97" target="_top" xlink:title="main">
<polygon fill="#ffffff" stroke="#000000" points="293,-110.5 293,-129.5 331,-129.5 331,-110.5 293,-110.5"/>
<text text-anchor="middle" x="312" y="-117.5" font-family="Helvetica,sans-Serif" font-size="10.00" fill="#000000">main</text>
</a>
</g>
</g>
<!-- Node38&#45;&gt;Node39 -->
<g id="edge4" class="edge">
<title>Node38&#45;&gt;Node39</title>
<path fill="none" stroke="#191970" d="M243.5754,-173.0938C248.22,-171.2949 252.7601,-169.2709 257,-167 275.3795,-157.1558 293.049,-140.3161 303.2012,-129.6925"/>
<polygon fill="#191970" stroke="#191970" points="242.2295,-169.857 233.9577,-176.4772 244.5525,-176.4603 242.2295,-169.857"/>
</g>
<!-- Node40&#45;&gt;Node39 -->
<g id="edge6" class="edge">
<title>Node40&#45;&gt;Node39</title>
<path fill="none" stroke="#191970" d="M267.1407,-128.0894C276.6522,-126.3742 285.5996,-124.7607 292.9637,-123.4328"/>
<polygon fill="#191970" stroke="#191970" points="266.2874,-124.6867 257.0672,-129.9059 267.5297,-131.5756 266.2874,-124.6867"/>
</g>
<!-- Node41&#45;&gt;Node39 -->
<g id="edge8" class="edge">
<title>Node41&#45;&gt;Node39</title>
<path fill="none" stroke="#191970" d="M252.8582,-109.3351C267.4111,-111.9594 281.8227,-114.5582 292.776,-116.5334"/>
<polygon fill="#191970" stroke="#191970" points="253.2638,-105.8519 242.8014,-107.5216 252.0215,-112.7407 253.2638,-105.8519"/>
</g>
<!-- Node42&#45;&gt;Node39 -->
<g id="edge10" class="edge">
<title>Node42&#45;&gt;Node39</title>
<path fill="none" stroke="#191970" d="M245.296,-73.1879C249.3175,-75.021 253.2592,-76.9619 257,-79 273.315,-87.8888 290.1697,-101.1692 300.8479,-110.1882"/>
<polygon fill="#191970" stroke="#191970" points="246.3936,-69.85 235.8246,-69.1113 243.6261,-76.2797 246.3936,-69.85"/>
</g>
</g>
</svg>
