<?xml version="1.0" encoding="UTF-8" standalone="no"?>
<!DOCTYPE svg PUBLIC "-//W3C//DTD SVG 1.1//EN"
 "http://www.w3.org/Graphics/SVG/1.1/DTD/svg11.dtd">
<!-- Generated by graphviz version 2.40.1 (20161225.0304)
 -->
<!-- Title: lfield::setToFixed Pages: 1 -->
<svg width="402pt" height="256pt"
 viewBox="0.00 0.00 402.00 256.00" xmlns="http://www.w3.org/2000/svg" xmlns:xlink="http://www.w3.org/1999/xlink">
<g id="graph0" class="graph" transform="scale(1 1) rotate(0) translate(4 252)">
<title>lfield::setToFixed</title>
<polygon fill="#ffffff" stroke="transparent" points="-4,4 -4,-252 398,-252 398,4 -4,4"/>
<!-- Node138 -->
<g id="node1" class="node">
<title>Node138</title>
<polygon fill="#bfbfbf" stroke="#000000" points="0,-114.5 0,-133.5 92,-133.5 92,-114.5 0,-114.5"/>
<text text-anchor="middle" x="46" y="-121.5" font-family="Helvetica,sans-Serif" font-size="10.00" fill="#000000">lfield::setToFixed</text>
</g>
<!-- Node139 -->
<g id="node2" class="node">
<title>Node139</title>
<g id="a_node2"><a xlink:href="classgfield.html#a8a7aa9669d548e51089535f807e0ae4b" target="_top" xlink:title="gfield::hermitian">
<polygon fill="#ffffff" stroke="#000000" points="148,-209.5 148,-228.5 234,-228.5 234,-209.5 148,-209.5"/>
<text text-anchor="middle" x="191" y="-216.5" font-family="Helvetica,sans-Serif" font-size="10.00" fill="#000000">gfield::hermitian</text>
</a>
</g>
</g>
<!-- Node138&#45;&gt;Node139 -->
<g id="edge1" class="edge">
<title>Node138&#45;&gt;Node139</title>
<path fill="none" stroke="#191970" d="M53.7956,-133.6554C67.2676,-149.7224 96.5037,-181.959 128,-200 131.736,-202.14 135.7373,-204.0616 139.845,-205.7829"/>
<polygon fill="#191970" stroke="#191970" points="138.9558,-209.1882 149.5475,-209.4439 141.427,-202.6389 138.9558,-209.1882"/>
</g>
<!-- Node140 -->
<g id="node3" class="node">
<title>Node140</title>
<g id="a_node3"><a xlink:href="classgfield.html#a9d5e1ced7bf2e0c89ce72eefc08e63ad" target="_top" xlink:title="gfield::operator=">
<polygon fill="#ffffff" stroke="#000000" points="147.5,-171.5 147.5,-190.5 234.5,-190.5 234.5,-171.5 147.5,-171.5"/>
<text text-anchor="middle" x="191" y="-178.5" font-family="Helvetica,sans-Serif" font-size="10.00" fill="#000000">gfield::operator=</text>
</a>
</g>
</g>
<!-- Node138&#45;&gt;Node140 -->
<g id="edge2" class="edge">
<title>Node138&#45;&gt;Node140</title>
<path fill="none" stroke="#191970" d="M70.2697,-133.5405C94.1084,-142.9116 130.679,-157.2876 157.3251,-167.7623"/>
<polygon fill="#191970" stroke="#191970" points="156.0638,-171.0271 166.6511,-171.4284 158.6248,-164.5124 156.0638,-171.0271"/>
</g>
<!-- Node143 -->
<g id="node6" class="node">
<title>Node143</title>
<g id="a_node6"><a xlink:href="field_8h.html#a463f2cc1e2cd9fa4d1fc3f800835a2aa" target="_top" xlink:title="print">
<polygon fill="#ffffff" stroke="#000000" points="173.5,-114.5 173.5,-133.5 208.5,-133.5 208.5,-114.5 173.5,-114.5"/>
<text text-anchor="middle" x="191" y="-121.5" font-family="Helvetica,sans-Serif" font-size="10.00" fill="#000000">print</text>
</a>
</g>
</g>
<!-- Node138&#45;&gt;Node143 -->
<g id="edge5" class="edge">
<title>Node138&#45;&gt;Node143</title>
<path fill="none" stroke="#191970" d="M92.2776,-124C115.6022,-124 143.1117,-124 163.1589,-124"/>
<polygon fill="#191970" stroke="#191970" points="163.1771,-127.5001 173.177,-124 163.177,-120.5001 163.1771,-127.5001"/>
</g>
<!-- Node149 -->
<g id="node12" class="node">
<title>Node149</title>
<g id="a_node12"><a xlink:href="classgfield.html#aa7216414b47a54279908e9572ac5f488" target="_top" xlink:title="gfield::printDebug">
<polygon fill="#ffffff" stroke="#000000" points="144.5,-76.5 144.5,-95.5 237.5,-95.5 237.5,-76.5 144.5,-76.5"/>
<text text-anchor="middle" x="191" y="-83.5" font-family="Helvetica,sans-Serif" font-size="10.00" fill="#000000">gfield::printDebug</text>
</a>
</g>
</g>
<!-- Node138&#45;&gt;Node149 -->
<g id="edge11" class="edge">
<title>Node138&#45;&gt;Node149</title>
<path fill="none" stroke="#191970" d="M82.5896,-114.411C101.4654,-109.4642 124.6859,-103.3789 144.7879,-98.1108"/>
<polygon fill="#191970" stroke="#191970" points="145.8875,-101.4409 154.6735,-95.5201 144.1129,-94.6695 145.8875,-101.4409"/>
</g>
<!-- Node150 -->
<g id="node13" class="node">
<title>Node150</title>
<g id="a_node13"><a xlink:href="classgfield.html#a39a5a9c26ecccd46720fd6d2369302b2" target="_top" xlink:title="gfield::setCorrelationsFor\lCouplingConstant">
<polygon fill="#ffffff" stroke="#000000" points="128,-27 128,-57 254,-57 254,-27 128,-27"/>
<text text-anchor="start" x="136" y="-45" font-family="Helvetica,sans-Serif" font-size="10.00" fill="#000000">gfield::setCorrelationsFor</text>
<text text-anchor="middle" x="191" y="-34" font-family="Helvetica,sans-Serif" font-size="10.00" fill="#000000">CouplingConstant</text>
</a>
</g>
</g>
<!-- Node138&#45;&gt;Node150 -->
<g id="edge12" class="edge">
<title>Node138&#45;&gt;Node150</title>
<path fill="none" stroke="#191970" d="M57.9355,-114.3834C73.4153,-102.2288 101.572,-81.1849 128,-67 131.7325,-64.9966 135.6611,-63.0623 139.6568,-61.2172"/>
<polygon fill="#191970" stroke="#191970" points="141.3007,-64.3177 149.0413,-57.0836 138.4789,-57.9116 141.3007,-64.3177"/>
</g>
<!-- Node141 -->
<g id="node4" class="node">
<title>Node141</title>
<g id="a_node4"><a xlink:href="classgfield.html#abc5227b4d044f39bb8f6ceebd4552861" target="_top" xlink:title="gfield::getNxg">
<polygon fill="#ffffff" stroke="#000000" points="303.5,-228.5 303.5,-247.5 380.5,-247.5 380.5,-228.5 303.5,-228.5"/>
<text text-anchor="middle" x="342" y="-235.5" font-family="Helvetica,sans-Serif" font-size="10.00" fill="#000000">gfield::getNxg</text>
</a>
</g>
</g>
<!-- Node140&#45;&gt;Node141 -->
<g id="edge3" class="edge">
<title>Node140&#45;&gt;Node141</title>
<path fill="none" stroke="#191970" d="M227.0679,-190.5741C235.9881,-193.2966 245.4388,-196.4882 254,-200 270.7382,-206.866 273.4657,-211.6565 290,-219 294.4854,-220.9921 299.2503,-222.9455 304.0047,-224.7962"/>
<polygon fill="#191970" stroke="#191970" points="303.0644,-228.182 313.6563,-228.4307 305.5313,-221.6311 303.0644,-228.182"/>
</g>
<!-- Node142 -->
<g id="node5" class="node">
<title>Node142</title>
<g id="a_node5"><a xlink:href="classgfield.html#a963fa744ca9d2464463cfe4195a0ba90" target="_top" xlink:title="gfield::getNyg">
<polygon fill="#ffffff" stroke="#000000" points="303.5,-190.5 303.5,-209.5 380.5,-209.5 380.5,-190.5 303.5,-190.5"/>
<text text-anchor="middle" x="342" y="-197.5" font-family="Helvetica,sans-Serif" font-size="10.00" fill="#000000">gfield::getNyg</text>
</a>
</g>
</g>
<!-- Node140&#45;&gt;Node142 -->
<g id="edge4" class="edge">
<title>Node140&#45;&gt;Node142</title>
<path fill="none" stroke="#191970" d="M234.6755,-186.4956C252.975,-188.7982 274.3276,-191.4849 293.1465,-193.8529"/>
<polygon fill="#191970" stroke="#191970" points="292.9465,-197.3552 303.3052,-195.1311 293.8205,-190.41 292.9465,-197.3552"/>
</g>
<!-- Node144 -->
<g id="node7" class="node">
<title>Node144</title>
<g id="a_node7"><a xlink:href="classmpi__class.html#ab876ade2f1b994bb1c920d1de9375cf6" target="_top" xlink:title="mpi_class::getPosX">
<polygon fill="#ffffff" stroke="#000000" points="290,-152.5 290,-171.5 394,-171.5 394,-152.5 290,-152.5"/>
<text text-anchor="middle" x="342" y="-159.5" font-family="Helvetica,sans-Serif" font-size="10.00" fill="#000000">mpi_class::getPosX</text>
</a>
</g>
</g>
<!-- Node143&#45;&gt;Node144 -->
<g id="edge6" class="edge">
<title>Node143&#45;&gt;Node144</title>
<path fill="none" stroke="#191970" d="M208.6171,-128.4335C229.4251,-133.6699 264.8926,-142.5955 294.0252,-149.9269"/>
<polygon fill="#191970" stroke="#191970" points="293.4793,-153.3986 304.0311,-152.4449 295.1877,-146.6102 293.4793,-153.3986"/>
</g>
<!-- Node145 -->
<g id="node8" class="node">
<title>Node145</title>
<g id="a_node8"><a xlink:href="classmpi__class.html#aa894e45879f0e9a081efd4d4118b2491" target="_top" xlink:title="mpi_class::getPosY">
<polygon fill="#ffffff" stroke="#000000" points="290,-114.5 290,-133.5 394,-133.5 394,-114.5 290,-114.5"/>
<text text-anchor="middle" x="342" y="-121.5" font-family="Helvetica,sans-Serif" font-size="10.00" fill="#000000">mpi_class::getPosY</text>
</a>
</g>
</g>
<!-- Node143&#45;&gt;Node145 -->
<g id="edge7" class="edge">
<title>Node143&#45;&gt;Node145</title>
<path fill="none" stroke="#191970" d="M208.6171,-124C226.1306,-124 254.029,-124 279.7944,-124"/>
<polygon fill="#191970" stroke="#191970" points="279.913,-127.5001 289.913,-124 279.9129,-120.5001 279.913,-127.5001"/>
</g>
<!-- Node146 -->
<g id="node9" class="node">
<title>Node146</title>
<g id="a_node9"><a xlink:href="classmpi__class.html#a6ba81c7f035bcbbb4c5c1273d0850aba" target="_top" xlink:title="mpi_class::getRank">
<polygon fill="#ffffff" stroke="#000000" points="290,-76.5 290,-95.5 394,-95.5 394,-76.5 290,-76.5"/>
<text text-anchor="middle" x="342" y="-83.5" font-family="Helvetica,sans-Serif" font-size="10.00" fill="#000000">mpi_class::getRank</text>
</a>
</g>
</g>
<!-- Node143&#45;&gt;Node146 -->
<g id="edge8" class="edge">
<title>Node143&#45;&gt;Node146</title>
<path fill="none" stroke="#191970" d="M208.6171,-119.5665C229.4251,-114.3301 264.8926,-105.4045 294.0252,-98.0731"/>
<polygon fill="#191970" stroke="#191970" points="295.1877,-101.3898 304.0311,-95.5551 293.4793,-94.6014 295.1877,-101.3898"/>
</g>
<!-- Node147 -->
<g id="node10" class="node">
<title>Node147</title>
<g id="a_node10"><a xlink:href="classmpi__class.html#af78626438bee67b2eacf5bd583d4e4ce" target="_top" xlink:title="mpi_class::getSize">
<polygon fill="#ffffff" stroke="#000000" points="292,-38.5 292,-57.5 392,-57.5 392,-38.5 292,-38.5"/>
<text text-anchor="middle" x="342" y="-45.5" font-family="Helvetica,sans-Serif" font-size="10.00" fill="#000000">mpi_class::getSize</text>
</a>
</g>
</g>
<!-- Node143&#45;&gt;Node147 -->
<g id="edge9" class="edge">
<title>Node143&#45;&gt;Node147</title>
<path fill="none" stroke="#191970" d="M208.5845,-121.2309C221.815,-118.5681 239.9984,-113.6359 254,-105 273.801,-92.7871 270.5576,-79.7761 290,-67 292.9406,-65.0676 296.1037,-63.2994 299.3653,-61.6878"/>
<polygon fill="#191970" stroke="#191970" points="300.9844,-64.7989 308.7158,-57.5549 298.1544,-58.3965 300.9844,-64.7989"/>
</g>
<!-- Node148 -->
<g id="node11" class="node">
<title>Node148</title>
<g id="a_node11"><a xlink:href="classmomenta.html#a5b2ec8b44c4874d8e18036c8927461db" target="_top" xlink:title="momenta::phat2">
<polygon fill="#ffffff" stroke="#000000" points="298.5,-.5 298.5,-19.5 385.5,-19.5 385.5,-.5 298.5,-.5"/>
<text text-anchor="middle" x="342" y="-7.5" font-family="Helvetica,sans-Serif" font-size="10.00" fill="#000000">momenta::phat2</text>
</a>
</g>
</g>
<!-- Node143&#45;&gt;Node148 -->
<g id="edge10" class="edge">
<title>Node143&#45;&gt;Node148</title>
<path fill="none" stroke="#191970" d="M208.6154,-122.5578C222.3884,-120.5937 241.2718,-115.955 254,-105 282.328,-80.6184 262.3833,-54.1845 290,-29 291.7311,-27.4214 293.604,-25.9711 295.5759,-24.6391"/>
<polygon fill="#191970" stroke="#191970" points="297.7033,-27.4596 304.7238,-19.5246 294.2873,-21.3497 297.7033,-27.4596"/>
</g>
</g>
</svg>
