<?xml version="1.0" encoding="UTF-8" standalone="no"?>
<!DOCTYPE svg PUBLIC "-//W3C//DTD SVG 1.1//EN"
 "http://www.w3.org/Graphics/SVG/1.1/DTD/svg11.dtd">
<!-- Generated by graphviz version 2.40.1 (20161225.0304)
 -->
<!-- Title: lfield::setMVModel Pages: 1 -->
<svg width="237pt" height="104pt"
 viewBox="0.00 0.00 237.00 104.00" xmlns="http://www.w3.org/2000/svg" xmlns:xlink="http://www.w3.org/1999/xlink">
<g id="graph0" class="graph" transform="scale(1 1) rotate(0) translate(4 100)">
<title>lfield::setMVModel</title>
<polygon fill="#ffffff" stroke="transparent" points="-4,4 -4,-100 233,-100 233,4 -4,4"/>
<!-- Node157 -->
<g id="node1" class="node">
<title>Node157</title>
<polygon fill="#bfbfbf" stroke="#000000" points="0,-38.5 0,-57.5 98,-57.5 98,-38.5 0,-38.5"/>
<text text-anchor="middle" x="49" y="-45.5" font-family="Helvetica,sans-Serif" font-size="10.00" fill="#000000">lfield::setMVModel</text>
</g>
<!-- Node158 -->
<g id="node2" class="node">
<title>Node158</title>
<g id="a_node2"><a xlink:href="classMV__class.html#a191e58941f9dd9fd71bc411833b4b3b6" target="_top" xlink:title="MV_class::gGet">
<polygon fill="#ffffff" stroke="#000000" points="138,-76.5 138,-95.5 225,-95.5 225,-76.5 138,-76.5"/>
<text text-anchor="middle" x="181.5" y="-83.5" font-family="Helvetica,sans-Serif" font-size="10.00" fill="#000000">MV_class::gGet</text>
</a>
</g>
</g>
<!-- Node157&#45;&gt;Node158 -->
<g id="edge1" class="edge">
<title>Node157&#45;&gt;Node158</title>
<path fill="none" stroke="#191970" d="M82.4353,-57.589C99.3829,-62.4494 120.1634,-68.4091 138.3075,-73.6127"/>
<polygon fill="#191970" stroke="#191970" points="137.4979,-77.0216 148.0754,-76.4141 139.4278,-70.2928 137.4979,-77.0216"/>
</g>
<!-- Node159 -->
<g id="node3" class="node">
<title>Node159</title>
<g id="a_node3"><a xlink:href="classMV__class.html#ae17d5e3746cda12cb9b8ea5f6278a1a2" target="_top" xlink:title="MV_class::muGet">
<polygon fill="#ffffff" stroke="#000000" points="134,-38.5 134,-57.5 229,-57.5 229,-38.5 134,-38.5"/>
<text text-anchor="middle" x="181.5" y="-45.5" font-family="Helvetica,sans-Serif" font-size="10.00" fill="#000000">MV_class::muGet</text>
</a>
</g>
</g>
<!-- Node157&#45;&gt;Node159 -->
<g id="edge2" class="edge">
<title>Node157&#45;&gt;Node159</title>
<path fill="none" stroke="#191970" d="M98.3381,-48C106.6029,-48 115.2441,-48 123.6986,-48"/>
<polygon fill="#191970" stroke="#191970" points="123.8809,-51.5001 133.8809,-48 123.8809,-44.5001 123.8809,-51.5001"/>
</g>
<!-- Node160 -->
<g id="node4" class="node">
<title>Node160</title>
<g id="a_node4"><a xlink:href="classMV__class.html#a01e071bdc58b1b0ff4ec57870b34f073" target="_top" xlink:title="MV_class::NyGet">
<polygon fill="#ffffff" stroke="#000000" points="134,-.5 134,-19.5 229,-19.5 229,-.5 134,-.5"/>
<text text-anchor="middle" x="181.5" y="-7.5" font-family="Helvetica,sans-Serif" font-size="10.00" fill="#000000">MV_class::NyGet</text>
</a>
</g>
</g>
<!-- Node157&#45;&gt;Node160 -->
<g id="edge3" class="edge">
<title>Node157&#45;&gt;Node160</title>
<path fill="none" stroke="#191970" d="M82.4353,-38.411C99.3829,-33.5506 120.1634,-27.5909 138.3075,-22.3873"/>
<polygon fill="#191970" stroke="#191970" points="139.4278,-25.7072 148.0754,-19.5859 137.4979,-18.9784 139.4278,-25.7072"/>
</g>
</g>
</svg>
