<?xml version="1.0" encoding="UTF-8" standalone="no"?>
<!DOCTYPE svg PUBLIC "-//W3C//DTD SVG 1.1//EN"
 "http://www.w3.org/Graphics/SVG/1.1/DTD/svg11.dtd">
<!-- Generated by graphviz version 2.40.1 (20161225.0304)
 -->
<!-- Title: MV_class::NyGet Pages: 1 -->
<svg width="311pt" height="47pt"
 viewBox="0.00 0.00 311.00 47.00" xmlns="http://www.w3.org/2000/svg" xmlns:xlink="http://www.w3.org/1999/xlink">
<g id="graph0" class="graph" transform="scale(1 1) rotate(0) translate(4 43)">
<title>MV_class::NyGet</title>
<polygon fill="#ffffff" stroke="transparent" points="-4,4 -4,-43 307,-43 307,4 -4,4"/>
<!-- Node11 -->
<g id="node1" class="node">
<title>Node11</title>
<polygon fill="#bfbfbf" stroke="#000000" points="0,-19.5 0,-38.5 95,-38.5 95,-19.5 0,-19.5"/>
<text text-anchor="middle" x="47.5" y="-26.5" font-family="Helvetica,sans-Serif" font-size="10.00" fill="#000000">MV_class::NyGet</text>
</g>
<!-- Node12 -->
<g id="node2" class="node">
<title>Node12</title>
<g id="a_node2"><a xlink:href="main__explicit_8cpp.html#a0ddf1224851353fc92bfbff6f499fa97" target="_top" xlink:title="main">
<polygon fill="#ffffff" stroke="#000000" points="265,-19.5 265,-38.5 303,-38.5 303,-19.5 265,-19.5"/>
<text text-anchor="middle" x="284" y="-26.5" font-family="Helvetica,sans-Serif" font-size="10.00" fill="#000000">main</text>
</a>
</g>
</g>
<!-- Node11&#45;&gt;Node12 -->
<g id="edge1" class="edge">
<title>Node11&#45;&gt;Node12</title>
<path fill="none" stroke="#191970" d="M105.1577,-29C157.0857,-29 230.3742,-29 264.766,-29"/>
<polygon fill="#191970" stroke="#191970" points="105.0748,-25.5001 95.0748,-29 105.0748,-32.5001 105.0748,-25.5001"/>
</g>
<!-- Node13 -->
<g id="node3" class="node">
<title>Node13</title>
<g id="a_node3"><a xlink:href="classlfield.html#a751b066f2c88db69b0315de9354e082b" target="_top" xlink:title="Method to set the values of lfield object according to the McLerran&#45;Venugopalan model. ">
<polygon fill="#ffffff" stroke="#000000" points="131,-.5 131,-19.5 229,-19.5 229,-.5 131,-.5"/>
<text text-anchor="middle" x="180" y="-7.5" font-family="Helvetica,sans-Serif" font-size="10.00" fill="#000000">lfield::setMVModel</text>
</a>
</g>
</g>
<!-- Node11&#45;&gt;Node13 -->
<g id="edge2" class="edge">
<title>Node11&#45;&gt;Node13</title>
<path fill="none" stroke="#191970" d="M105.2506,-20.7188C113.8016,-19.4926 122.5447,-18.2389 130.8972,-17.0412"/>
<polygon fill="#191970" stroke="#191970" points="104.7375,-17.2565 95.3355,-22.1406 105.7311,-24.1856 104.7375,-17.2565"/>
</g>
<!-- Node13&#45;&gt;Node12 -->
<g id="edge3" class="edge">
<title>Node13&#45;&gt;Node12</title>
<path fill="none" stroke="#191970" d="M239.2897,-20.8318C248.4732,-22.5095 257.3472,-24.1307 264.7353,-25.4805"/>
<polygon fill="#191970" stroke="#191970" points="239.7252,-17.3535 229.2589,-18.9992 238.4671,-24.2395 239.7252,-17.3535"/>
</g>
</g>
</svg>
