<?xml version="1.0" encoding="UTF-8" standalone="no"?>
<!DOCTYPE svg PUBLIC "-//W3C//DTD SVG 1.1//EN"
 "http://www.w3.org/Graphics/SVG/1.1/DTD/svg11.dtd">
<!-- Generated by graphviz version 2.40.1 (20161225.0304)
 -->
<!-- Title: lmatrix&lt; T &gt; Pages: 1 -->
<svg width="105pt" height="321pt"
 viewBox="0.00 0.00 105.00 321.00" xmlns="http://www.w3.org/2000/svg" xmlns:xlink="http://www.w3.org/1999/xlink">
<g id="graph0" class="graph" transform="scale(1 1) rotate(0) translate(4 317)">
<title>lmatrix&lt; T &gt;</title>
<polygon fill="#ffffff" stroke="transparent" points="-4,4 -4,-317 101,-317 101,4 -4,4"/>
<!-- Node2 -->
<g id="node1" class="node">
<title>Node2</title>
<polygon fill="#bfbfbf" stroke="#000000" points="12,-.5 12,-90.5 85,-90.5 85,-.5 12,-.5"/>
<text text-anchor="middle" x="48.5" y="-78.5" font-family="Helvetica,sans-Serif" font-size="10.00" fill="#000000">lmatrix&lt; T &gt;</text>
<polyline fill="none" stroke="#000000" points="12,-71.5 85,-71.5 "/>
<text text-anchor="start" x="20" y="-59.5" font-family="Helvetica,sans-Serif" font-size="10.00" fill="#000000">+ Nxl</text>
<text text-anchor="start" x="20" y="-48.5" font-family="Helvetica,sans-Serif" font-size="10.00" fill="#000000">+ Nyl</text>
<text text-anchor="start" x="20" y="-37.5" font-family="Helvetica,sans-Serif" font-size="10.00" fill="#000000">+ Nyl</text>
<polyline fill="none" stroke="#000000" points="12,-30.5 85,-30.5 "/>
<text text-anchor="start" x="20" y="-18.5" font-family="Helvetica,sans-Serif" font-size="10.00" fill="#000000">+ lmatrix()</text>
<text text-anchor="start" x="20" y="-7.5" font-family="Helvetica,sans-Serif" font-size="10.00" fill="#000000">+ operator=()</text>
</g>
<!-- Node3 -->
<g id="node2" class="node">
<title>Node3</title>
<g id="a_node2"><a xlink:href="classmatrix.html" target="_top" xlink:title="{matrix\&lt; T \&gt;\n|+ Nxl\l+ Nyl\l|+ matrix()\l+ ~matrix()\l}">
<polygon fill="#ffffff" stroke="#000000" points="14.5,-128.5 14.5,-207.5 82.5,-207.5 82.5,-128.5 14.5,-128.5"/>
<text text-anchor="middle" x="48.5" y="-195.5" font-family="Helvetica,sans-Serif" font-size="10.00" fill="#000000">matrix&lt; T &gt;</text>
<polyline fill="none" stroke="#000000" points="14.5,-188.5 82.5,-188.5 "/>
<text text-anchor="start" x="22.5" y="-176.5" font-family="Helvetica,sans-Serif" font-size="10.00" fill="#000000">+ Nxl</text>
<text text-anchor="start" x="22.5" y="-165.5" font-family="Helvetica,sans-Serif" font-size="10.00" fill="#000000">+ Nyl</text>
<polyline fill="none" stroke="#000000" points="14.5,-158.5 82.5,-158.5 "/>
<text text-anchor="start" x="22.5" y="-146.5" font-family="Helvetica,sans-Serif" font-size="10.00" fill="#000000">+ matrix()</text>
<text text-anchor="start" x="22.5" y="-135.5" font-family="Helvetica,sans-Serif" font-size="10.00" fill="#000000">+ ~matrix()</text>
</a>
</g>
</g>
<!-- Node3&#45;&gt;Node2 -->
<g id="edge1" class="edge">
<title>Node3&#45;&gt;Node2</title>
<path fill="none" stroke="#191970" d="M48.5,-118.1325C48.5,-109.02 48.5,-99.5591 48.5,-90.5953"/>
<polygon fill="none" stroke="#191970" points="45.0001,-118.2277 48.5,-128.2278 52.0001,-118.2278 45.0001,-118.2277"/>
</g>
<!-- Node4 -->
<g id="node3" class="node">
<title>Node4</title>
<polygon fill="#ffffff" stroke="#bfbfbf" points="0,-255.5 0,-312.5 97,-312.5 97,-255.5 0,-255.5"/>
<text text-anchor="middle" x="48.5" y="-300.5" font-family="Helvetica,sans-Serif" font-size="10.00" fill="#000000">std::complex&lt; T &gt;</text>
<polyline fill="none" stroke="#bfbfbf" points="0,-293.5 97,-293.5 "/>
<text text-anchor="middle" x="48.5" y="-281.5" font-family="Helvetica,sans-Serif" font-size="10.00" fill="#000000"> </text>
<polyline fill="none" stroke="#bfbfbf" points="0,-274.5 97,-274.5 "/>
<text text-anchor="middle" x="48.5" y="-262.5" font-family="Helvetica,sans-Serif" font-size="10.00" fill="#000000"> </text>
</g>
<!-- Node4&#45;&gt;Node3 -->
<g id="edge2" class="edge">
<title>Node4&#45;&gt;Node3</title>
<path fill="none" stroke="#404040" d="M48.5,-255.3258C48.5,-244.5576 48.5,-231.9593 48.5,-219.7364"/>
<polygon fill="none" stroke="#404040" points="48.5001,-219.7203 44.5,-213.7203 48.5,-207.7203 52.5,-213.7203 48.5001,-219.7203"/>
<text text-anchor="middle" x="56" y="-229" font-family="Helvetica,sans-Serif" font-size="10.00" fill="#000000"> +u</text>
</g>
</g>
</svg>
