<?xml version="1.0" encoding="UTF-8" standalone="no"?>
<!DOCTYPE svg PUBLIC "-//W3C//DTD SVG 1.1//EN"
 "http://www.w3.org/Graphics/SVG/1.1/DTD/svg11.dtd">
<!-- Generated by graphviz version 2.40.1 (20161225.0304)
 -->
<!-- Title: update_uf Pages: 1 -->
<svg width="358pt" height="104pt"
 viewBox="0.00 0.00 358.00 104.00" xmlns="http://www.w3.org/2000/svg" xmlns:xlink="http://www.w3.org/1999/xlink">
<g id="graph0" class="graph" transform="scale(1 1) rotate(0) translate(4 100)">
<title>update_uf</title>
<polygon fill="#ffffff" stroke="transparent" points="-4,4 -4,-100 354,-100 354,4 -4,4"/>
<!-- Node73 -->
<g id="node1" class="node">
<title>Node73</title>
<polygon fill="#bfbfbf" stroke="#000000" points="0,-38.5 0,-57.5 59,-57.5 59,-38.5 0,-38.5"/>
<text text-anchor="middle" x="29.5" y="-45.5" font-family="Helvetica,sans-Serif" font-size="10.00" fill="#000000">update_uf</text>
</g>
<!-- Node74 -->
<g id="node2" class="node">
<title>Node74</title>
<g id="a_node2"><a xlink:href="classsu3__matrix.html#aedf511a4b74bf6f2a4a5ba681c1df72e" target="_top" xlink:title="su3_matrix::exponentiate">
<polygon fill="#ffffff" stroke="#000000" points="95,-76.5 95,-95.5 221,-95.5 221,-76.5 95,-76.5"/>
<text text-anchor="middle" x="158" y="-83.5" font-family="Helvetica,sans-Serif" font-size="10.00" fill="#000000">su3_matrix::exponentiate</text>
</a>
</g>
</g>
<!-- Node73&#45;&gt;Node74 -->
<g id="edge1" class="edge">
<title>Node73&#45;&gt;Node74</title>
<path fill="none" stroke="#191970" d="M59.3035,-56.8135C76.1462,-61.7942 97.4728,-68.1009 115.9886,-73.5764"/>
<polygon fill="#191970" stroke="#191970" points="115.0749,-76.956 125.657,-76.4355 117.0601,-70.2433 115.0749,-76.956"/>
</g>
<!-- Node76 -->
<g id="node4" class="node">
<title>Node76</title>
<g id="a_node4"><a xlink:href="classlfield.html#a6525c9ba54e57f27ff551fc3f6169f14" target="_top" xlink:title="lfield::getNxl">
<polygon fill="#ffffff" stroke="#000000" points="122.5,-38.5 122.5,-57.5 193.5,-57.5 193.5,-38.5 122.5,-38.5"/>
<text text-anchor="middle" x="158" y="-45.5" font-family="Helvetica,sans-Serif" font-size="10.00" fill="#000000">lfield::getNxl</text>
</a>
</g>
</g>
<!-- Node73&#45;&gt;Node76 -->
<g id="edge3" class="edge">
<title>Node73&#45;&gt;Node76</title>
<path fill="none" stroke="#191970" d="M59.3035,-48C75.0457,-48 94.7049,-48 112.3251,-48"/>
<polygon fill="#191970" stroke="#191970" points="112.4189,-51.5001 122.4189,-48 112.4188,-44.5001 112.4189,-51.5001"/>
</g>
<!-- Node77 -->
<g id="node5" class="node">
<title>Node77</title>
<g id="a_node5"><a xlink:href="classlfield.html#a7eba0ea85f6f0df54a45cf97cd3ad53d" target="_top" xlink:title="lfield::getNyl">
<polygon fill="#ffffff" stroke="#000000" points="122.5,-.5 122.5,-19.5 193.5,-19.5 193.5,-.5 122.5,-.5"/>
<text text-anchor="middle" x="158" y="-7.5" font-family="Helvetica,sans-Serif" font-size="10.00" fill="#000000">lfield::getNyl</text>
</a>
</g>
</g>
<!-- Node73&#45;&gt;Node77 -->
<g id="edge4" class="edge">
<title>Node73&#45;&gt;Node77</title>
<path fill="none" stroke="#191970" d="M59.3035,-39.1865C76.1462,-34.2058 97.4728,-27.8991 115.9886,-22.4236"/>
<polygon fill="#191970" stroke="#191970" points="117.0601,-25.7567 125.657,-19.5645 115.0749,-19.044 117.0601,-25.7567"/>
</g>
<!-- Node75 -->
<g id="node3" class="node">
<title>Node75</title>
<g id="a_node3"><a xlink:href="su3__matrix_8h.html#ab226771af05ad43c66ee5a218eee0bdd" target="_top" xlink:title=" Calculates the eigenvalues and normalized eigenvectors of a hermitian 3x3 matrix A using Cardano&#39;s m...">
<polygon fill="#ffffff" stroke="#000000" points="257,-76.5 257,-95.5 350,-95.5 350,-76.5 257,-76.5"/>
<text text-anchor="middle" x="303.5" y="-83.5" font-family="Helvetica,sans-Serif" font-size="10.00" fill="#000000">function_zheevh3</text>
</a>
</g>
</g>
<!-- Node74&#45;&gt;Node75 -->
<g id="edge2" class="edge">
<title>Node74&#45;&gt;Node75</title>
<path fill="none" stroke="#191970" d="M221.3952,-86C229.8884,-86 238.5547,-86 246.9204,-86"/>
<polygon fill="#191970" stroke="#191970" points="246.944,-89.5001 256.9439,-86 246.9439,-82.5001 246.944,-89.5001"/>
</g>
</g>
</svg>
