<?xml version="1.0" encoding="UTF-8" standalone="no"?>
<!DOCTYPE svg PUBLIC "-//W3C//DTD SVG 1.1//EN"
 "http://www.w3.org/Graphics/SVG/1.1/DTD/svg11.dtd">
<!-- Generated by graphviz version 2.40.1 (20161225.0304)
 -->
<!-- Title: prepare_A_local Pages: 1 -->
<svg width="201pt" height="66pt"
 viewBox="0.00 0.00 201.00 66.00" xmlns="http://www.w3.org/2000/svg" xmlns:xlink="http://www.w3.org/1999/xlink">
<g id="graph0" class="graph" transform="scale(1 1) rotate(0) translate(4 62)">
<title>prepare_A_local</title>
<polygon fill="#ffffff" stroke="transparent" points="-4,4 -4,-62 197,-62 197,4 -4,4"/>
<!-- Node48 -->
<g id="node1" class="node">
<title>Node48</title>
<polygon fill="#bfbfbf" stroke="#000000" points="0,-19.5 0,-38.5 86,-38.5 86,-19.5 0,-19.5"/>
<text text-anchor="middle" x="43" y="-26.5" font-family="Helvetica,sans-Serif" font-size="10.00" fill="#000000">prepare_A_local</text>
</g>
<!-- Node49 -->
<g id="node2" class="node">
<title>Node49</title>
<g id="a_node2"><a xlink:href="classlfield.html#a6525c9ba54e57f27ff551fc3f6169f14" target="_top" xlink:title="lfield::getNxl">
<polygon fill="#ffffff" stroke="#000000" points="122,-38.5 122,-57.5 193,-57.5 193,-38.5 122,-38.5"/>
<text text-anchor="middle" x="157.5" y="-45.5" font-family="Helvetica,sans-Serif" font-size="10.00" fill="#000000">lfield::getNxl</text>
</a>
</g>
</g>
<!-- Node48&#45;&gt;Node49 -->
<g id="edge1" class="edge">
<title>Node48&#45;&gt;Node49</title>
<path fill="none" stroke="#191970" d="M86.2875,-36.1831C94.6618,-37.5727 103.4605,-39.0328 111.9059,-40.4342"/>
<polygon fill="#191970" stroke="#191970" points="111.5418,-43.9215 121.9798,-42.1058 112.6877,-37.016 111.5418,-43.9215"/>
</g>
<!-- Node50 -->
<g id="node3" class="node">
<title>Node50</title>
<g id="a_node3"><a xlink:href="classlfield.html#a7eba0ea85f6f0df54a45cf97cd3ad53d" target="_top" xlink:title="lfield::getNyl">
<polygon fill="#ffffff" stroke="#000000" points="122,-.5 122,-19.5 193,-19.5 193,-.5 122,-.5"/>
<text text-anchor="middle" x="157.5" y="-7.5" font-family="Helvetica,sans-Serif" font-size="10.00" fill="#000000">lfield::getNyl</text>
</a>
</g>
</g>
<!-- Node48&#45;&gt;Node50 -->
<g id="edge2" class="edge">
<title>Node48&#45;&gt;Node50</title>
<path fill="none" stroke="#191970" d="M86.2875,-21.8169C94.6618,-20.4273 103.4605,-18.9672 111.9059,-17.5658"/>
<polygon fill="#191970" stroke="#191970" points="112.6877,-20.984 121.9798,-15.8942 111.5418,-14.0785 112.6877,-20.984"/>
</g>
</g>
</svg>
