<?xml version="1.0" encoding="UTF-8" standalone="no"?>
<!DOCTYPE svg PUBLIC "-//W3C//DTD SVG 1.1//EN"
 "http://www.w3.org/Graphics/SVG/1.1/DTD/svg11.dtd">
<!-- Generated by graphviz version 2.40.1 (20161225.0304)
 -->
<!-- Title: operator* Pages: 1 -->
<svg width="187pt" height="104pt"
 viewBox="0.00 0.00 187.00 104.00" xmlns="http://www.w3.org/2000/svg" xmlns:xlink="http://www.w3.org/1999/xlink">
<g id="graph0" class="graph" transform="scale(1 1) rotate(0) translate(4 100)">
<title>operator*</title>
<polygon fill="#ffffff" stroke="transparent" points="-4,4 -4,-100 183,-100 183,4 -4,4"/>
<!-- Node11 -->
<g id="node1" class="node">
<title>Node11</title>
<polygon fill="#bfbfbf" stroke="#000000" points="0,-38.5 0,-57.5 56,-57.5 56,-38.5 0,-38.5"/>
<text text-anchor="middle" x="28" y="-45.5" font-family="Helvetica,sans-Serif" font-size="10.00" fill="#000000">operator*</text>
</g>
<!-- Node12 -->
<g id="node2" class="node">
<title>Node12</title>
<g id="a_node2"><a xlink:href="classlfield.html#a6525c9ba54e57f27ff551fc3f6169f14" target="_top" xlink:title="lfield::getNxl">
<polygon fill="#ffffff" stroke="#000000" points="100,-76.5 100,-95.5 171,-95.5 171,-76.5 100,-76.5"/>
<text text-anchor="middle" x="135.5" y="-83.5" font-family="Helvetica,sans-Serif" font-size="10.00" fill="#000000">lfield::getNxl</text>
</a>
</g>
</g>
<!-- Node11&#45;&gt;Node12 -->
<g id="edge1" class="edge">
<title>Node11&#45;&gt;Node12</title>
<path fill="none" stroke="#191970" d="M55.1268,-57.589C68.3674,-62.2694 84.4917,-67.9692 98.8129,-73.0315"/>
<polygon fill="#191970" stroke="#191970" points="97.7871,-76.3811 108.3819,-76.4141 100.1201,-69.7813 97.7871,-76.3811"/>
</g>
<!-- Node13 -->
<g id="node3" class="node">
<title>Node13</title>
<g id="a_node3"><a xlink:href="classlfield.html#a7eba0ea85f6f0df54a45cf97cd3ad53d" target="_top" xlink:title="lfield::getNyl">
<polygon fill="#ffffff" stroke="#000000" points="100,-38.5 100,-57.5 171,-57.5 171,-38.5 100,-38.5"/>
<text text-anchor="middle" x="135.5" y="-45.5" font-family="Helvetica,sans-Serif" font-size="10.00" fill="#000000">lfield::getNyl</text>
</a>
</g>
</g>
<!-- Node11&#45;&gt;Node13 -->
<g id="edge2" class="edge">
<title>Node11&#45;&gt;Node13</title>
<path fill="none" stroke="#191970" d="M56.2444,-48C66.4367,-48 78.222,-48 89.5369,-48"/>
<polygon fill="#191970" stroke="#191970" points="89.7368,-51.5001 99.7367,-48 89.7367,-44.5001 89.7368,-51.5001"/>
</g>
<!-- Node14 -->
<g id="node4" class="node">
<title>Node14</title>
<g id="a_node4"><a xlink:href="classlfield.html#ad980584011ceafb6abbaf0a450bda309" target="_top" xlink:title="lfield::setToZero">
<polygon fill="#ffffff" stroke="#000000" points="92,-.5 92,-19.5 179,-19.5 179,-.5 92,-.5"/>
<text text-anchor="middle" x="135.5" y="-7.5" font-family="Helvetica,sans-Serif" font-size="10.00" fill="#000000">lfield::setToZero</text>
</a>
</g>
</g>
<!-- Node11&#45;&gt;Node14 -->
<g id="edge3" class="edge">
<title>Node11&#45;&gt;Node14</title>
<path fill="none" stroke="#191970" d="M55.1268,-38.411C68.3674,-33.7306 84.4917,-28.0308 98.8129,-22.9685"/>
<polygon fill="#191970" stroke="#191970" points="100.1201,-26.2187 108.3819,-19.5859 97.7871,-19.6189 100.1201,-26.2187"/>
</g>
</g>
</svg>
