<?xml version="1.0" encoding="UTF-8" standalone="no"?>
<!DOCTYPE svg PUBLIC "-//W3C//DTD SVG 1.1//EN"
 "http://www.w3.org/Graphics/SVG/1.1/DTD/svg11.dtd">
<!-- Generated by graphviz version 2.40.1 (20161225.0304)
 -->
<!-- Title: prepare_A_local Pages: 1 -->
<svg width="234pt" height="180pt"
 viewBox="0.00 0.00 234.00 180.00" xmlns="http://www.w3.org/2000/svg" xmlns:xlink="http://www.w3.org/1999/xlink">
<g id="graph0" class="graph" transform="scale(1 1) rotate(0) translate(4 176)">
<title>prepare_A_local</title>
<polygon fill="#ffffff" stroke="transparent" points="-4,4 -4,-176 230,-176 230,4 -4,4"/>
<!-- Node33 -->
<g id="node1" class="node">
<title>Node33</title>
<polygon fill="#bfbfbf" stroke="#000000" points="0,-76.5 0,-95.5 86,-95.5 86,-76.5 0,-76.5"/>
<text text-anchor="middle" x="43" y="-83.5" font-family="Helvetica,sans-Serif" font-size="10.00" fill="#000000">prepare_A_local</text>
</g>
<!-- Node34 -->
<g id="node2" class="node">
<title>Node34</title>
<g id="a_node2"><a xlink:href="classmpi__class.html#ab876ade2f1b994bb1c920d1de9375cf6" target="_top" xlink:title="mpi_class::getPosX">
<polygon fill="#ffffff" stroke="#000000" points="122,-152.5 122,-171.5 226,-171.5 226,-152.5 122,-152.5"/>
<text text-anchor="middle" x="174" y="-159.5" font-family="Helvetica,sans-Serif" font-size="10.00" fill="#000000">mpi_class::getPosX</text>
</a>
</g>
</g>
<!-- Node33&#45;&gt;Node34 -->
<g id="edge1" class="edge">
<title>Node33&#45;&gt;Node34</title>
<path fill="none" stroke="#191970" d="M54.1217,-95.5539C68.8493,-107.8339 96.0025,-129.211 122,-143 125.7732,-145.0013 129.8034,-146.8803 133.8875,-148.6192"/>
<polygon fill="#191970" stroke="#191970" points="132.8343,-151.967 143.4197,-152.4139 135.4233,-145.4634 132.8343,-151.967"/>
</g>
<!-- Node35 -->
<g id="node3" class="node">
<title>Node35</title>
<g id="a_node3"><a xlink:href="classmpi__class.html#aa894e45879f0e9a081efd4d4118b2491" target="_top" xlink:title="mpi_class::getPosY">
<polygon fill="#ffffff" stroke="#000000" points="122,-114.5 122,-133.5 226,-133.5 226,-114.5 122,-114.5"/>
<text text-anchor="middle" x="174" y="-121.5" font-family="Helvetica,sans-Serif" font-size="10.00" fill="#000000">mpi_class::getPosY</text>
</a>
</g>
</g>
<!-- Node33&#45;&gt;Node35 -->
<g id="edge2" class="edge">
<title>Node33&#45;&gt;Node35</title>
<path fill="none" stroke="#191970" d="M76.0568,-95.589C92.8125,-100.4494 113.3577,-106.4091 131.2965,-111.6127"/>
<polygon fill="#191970" stroke="#191970" points="130.3745,-114.9895 140.9537,-114.4141 132.3247,-108.2666 130.3745,-114.9895"/>
</g>
<!-- Node36 -->
<g id="node4" class="node">
<title>Node36</title>
<g id="a_node4"><a xlink:href="classmomenta.html#a98078c7de442771358e691a2b0b037ce" target="_top" xlink:title="momenta::pbarX">
<polygon fill="#ffffff" stroke="#000000" points="129.5,-76.5 129.5,-95.5 218.5,-95.5 218.5,-76.5 129.5,-76.5"/>
<text text-anchor="middle" x="174" y="-83.5" font-family="Helvetica,sans-Serif" font-size="10.00" fill="#000000">momenta::pbarX</text>
</a>
</g>
</g>
<!-- Node33&#45;&gt;Node36 -->
<g id="edge3" class="edge">
<title>Node33&#45;&gt;Node36</title>
<path fill="none" stroke="#191970" d="M86.2574,-86C96.8703,-86 108.3674,-86 119.4357,-86"/>
<polygon fill="#191970" stroke="#191970" points="119.4423,-89.5001 129.4423,-86 119.4423,-82.5001 119.4423,-89.5001"/>
</g>
<!-- Node37 -->
<g id="node5" class="node">
<title>Node37</title>
<g id="a_node5"><a xlink:href="classmomenta.html#adf9462fd94288b5cd635a555d689434b" target="_top" xlink:title="momenta::pbarY">
<polygon fill="#ffffff" stroke="#000000" points="129.5,-38.5 129.5,-57.5 218.5,-57.5 218.5,-38.5 129.5,-38.5"/>
<text text-anchor="middle" x="174" y="-45.5" font-family="Helvetica,sans-Serif" font-size="10.00" fill="#000000">momenta::pbarY</text>
</a>
</g>
</g>
<!-- Node33&#45;&gt;Node37 -->
<g id="edge4" class="edge">
<title>Node33&#45;&gt;Node37</title>
<path fill="none" stroke="#191970" d="M76.0568,-76.411C92.8125,-71.5506 113.3577,-65.5909 131.2965,-60.3873"/>
<polygon fill="#191970" stroke="#191970" points="132.3247,-63.7334 140.9537,-57.5859 130.3745,-57.0105 132.3247,-63.7334"/>
</g>
<!-- Node38 -->
<g id="node6" class="node">
<title>Node38</title>
<g id="a_node6"><a xlink:href="classmomenta.html#a5b2ec8b44c4874d8e18036c8927461db" target="_top" xlink:title="momenta::phat2">
<polygon fill="#ffffff" stroke="#000000" points="130.5,-.5 130.5,-19.5 217.5,-19.5 217.5,-.5 130.5,-.5"/>
<text text-anchor="middle" x="174" y="-7.5" font-family="Helvetica,sans-Serif" font-size="10.00" fill="#000000">momenta::phat2</text>
</a>
</g>
</g>
<!-- Node33&#45;&gt;Node38 -->
<g id="edge5" class="edge">
<title>Node33&#45;&gt;Node38</title>
<path fill="none" stroke="#191970" d="M54.1217,-76.4461C68.8493,-64.1661 96.0025,-42.789 122,-29 125.7732,-26.9987 129.8034,-25.1197 133.8875,-23.3808"/>
<polygon fill="#191970" stroke="#191970" points="135.4233,-26.5366 143.4197,-19.5861 132.8343,-20.033 135.4233,-26.5366"/>
</g>
</g>
</svg>
