<?xml version="1.0" encoding="UTF-8" standalone="no"?>
<!DOCTYPE svg PUBLIC "-//W3C//DTD SVG 1.1//EN"
 "http://www.w3.org/Graphics/SVG/1.1/DTD/svg11.dtd">
<!-- Generated by graphviz version 2.40.1 (20161225.0304)
 -->
<!-- Title: print Pages: 1 -->
<svg width="183pt" height="256pt"
 viewBox="0.00 0.00 183.00 256.00" xmlns="http://www.w3.org/2000/svg" xmlns:xlink="http://www.w3.org/1999/xlink">
<g id="graph0" class="graph" transform="scale(1 1) rotate(0) translate(4 252)">
<title>print</title>
<polygon fill="#ffffff" stroke="transparent" points="-4,4 -4,-252 179,-252 179,4 -4,4"/>
<!-- Node64 -->
<g id="node1" class="node">
<title>Node64</title>
<polygon fill="#bfbfbf" stroke="#000000" points="0,-114.5 0,-133.5 35,-133.5 35,-114.5 0,-114.5"/>
<text text-anchor="middle" x="17.5" y="-121.5" font-family="Helvetica,sans-Serif" font-size="10.00" fill="#000000">print</text>
</g>
<!-- Node65 -->
<g id="node2" class="node">
<title>Node65</title>
<g id="a_node2"><a xlink:href="classlfield.html#a6525c9ba54e57f27ff551fc3f6169f14" target="_top" xlink:title="lfield::getNxl">
<polygon fill="#ffffff" stroke="#000000" points="87.5,-228.5 87.5,-247.5 158.5,-247.5 158.5,-228.5 87.5,-228.5"/>
<text text-anchor="middle" x="123" y="-235.5" font-family="Helvetica,sans-Serif" font-size="10.00" fill="#000000">lfield::getNxl</text>
</a>
</g>
</g>
<!-- Node64&#45;&gt;Node65 -->
<g id="edge1" class="edge">
<title>Node64&#45;&gt;Node65</title>
<path fill="none" stroke="#191970" d="M20.3733,-133.5412C26.5514,-152.4924 42.8671,-195.1056 71,-219 73.2321,-220.8958 75.6694,-222.6095 78.2316,-224.1575"/>
<polygon fill="#191970" stroke="#191970" points="76.8108,-227.3621 87.3067,-228.8066 80.0024,-221.1321 76.8108,-227.3621"/>
</g>
<!-- Node66 -->
<g id="node3" class="node">
<title>Node66</title>
<g id="a_node3"><a xlink:href="classlfield.html#a7eba0ea85f6f0df54a45cf97cd3ad53d" target="_top" xlink:title="lfield::getNyl">
<polygon fill="#ffffff" stroke="#000000" points="87.5,-190.5 87.5,-209.5 158.5,-209.5 158.5,-190.5 87.5,-190.5"/>
<text text-anchor="middle" x="123" y="-197.5" font-family="Helvetica,sans-Serif" font-size="10.00" fill="#000000">lfield::getNyl</text>
</a>
</g>
</g>
<!-- Node64&#45;&gt;Node66 -->
<g id="edge2" class="edge">
<title>Node64&#45;&gt;Node66</title>
<path fill="none" stroke="#191970" d="M24.3855,-133.7923C33.6606,-146.33 51.2946,-167.9855 71,-181 73.9361,-182.9392 77.096,-184.7123 80.3554,-186.3272"/>
<polygon fill="#191970" stroke="#191970" points="79.1413,-189.6173 89.7021,-190.4659 81.9755,-183.2167 79.1413,-189.6173"/>
</g>
<!-- Node67 -->
<g id="node4" class="node">
<title>Node67</title>
<g id="a_node4"><a xlink:href="classmpi__class.html#ab876ade2f1b994bb1c920d1de9375cf6" target="_top" xlink:title="mpi_class::getPosX">
<polygon fill="#ffffff" stroke="#000000" points="71,-152.5 71,-171.5 175,-171.5 175,-152.5 71,-152.5"/>
<text text-anchor="middle" x="123" y="-159.5" font-family="Helvetica,sans-Serif" font-size="10.00" fill="#000000">mpi_class::getPosX</text>
</a>
</g>
</g>
<!-- Node64&#45;&gt;Node67 -->
<g id="edge3" class="edge">
<title>Node64&#45;&gt;Node67</title>
<path fill="none" stroke="#191970" d="M35.3966,-130.4462C49.3534,-135.4732 69.202,-142.6225 86.4779,-148.8451"/>
<polygon fill="#191970" stroke="#191970" points="85.694,-152.2828 96.2884,-152.3788 88.0662,-145.697 85.694,-152.2828"/>
</g>
<!-- Node68 -->
<g id="node5" class="node">
<title>Node68</title>
<g id="a_node5"><a xlink:href="classmpi__class.html#aa894e45879f0e9a081efd4d4118b2491" target="_top" xlink:title="mpi_class::getPosY">
<polygon fill="#ffffff" stroke="#000000" points="71,-114.5 71,-133.5 175,-133.5 175,-114.5 71,-114.5"/>
<text text-anchor="middle" x="123" y="-121.5" font-family="Helvetica,sans-Serif" font-size="10.00" fill="#000000">mpi_class::getPosY</text>
</a>
</g>
</g>
<!-- Node64&#45;&gt;Node68 -->
<g id="edge4" class="edge">
<title>Node64&#45;&gt;Node68</title>
<path fill="none" stroke="#191970" d="M35.3966,-124C42.6496,-124 51.4939,-124 60.7413,-124"/>
<polygon fill="#191970" stroke="#191970" points="60.8778,-127.5001 70.8778,-124 60.8778,-120.5001 60.8778,-127.5001"/>
</g>
<!-- Node69 -->
<g id="node6" class="node">
<title>Node69</title>
<g id="a_node6"><a xlink:href="classmpi__class.html#a6ba81c7f035bcbbb4c5c1273d0850aba" target="_top" xlink:title="mpi_class::getRank">
<polygon fill="#ffffff" stroke="#000000" points="71,-76.5 71,-95.5 175,-95.5 175,-76.5 71,-76.5"/>
<text text-anchor="middle" x="123" y="-83.5" font-family="Helvetica,sans-Serif" font-size="10.00" fill="#000000">mpi_class::getRank</text>
</a>
</g>
</g>
<!-- Node64&#45;&gt;Node69 -->
<g id="edge5" class="edge">
<title>Node64&#45;&gt;Node69</title>
<path fill="none" stroke="#191970" d="M35.3966,-117.5538C49.3534,-112.5268 69.202,-105.3775 86.4779,-99.1549"/>
<polygon fill="#191970" stroke="#191970" points="88.0662,-102.303 96.2884,-95.6212 85.694,-95.7172 88.0662,-102.303"/>
</g>
<!-- Node70 -->
<g id="node7" class="node">
<title>Node70</title>
<g id="a_node7"><a xlink:href="classmpi__class.html#af78626438bee67b2eacf5bd583d4e4ce" target="_top" xlink:title="mpi_class::getSize">
<polygon fill="#ffffff" stroke="#000000" points="73,-38.5 73,-57.5 173,-57.5 173,-38.5 73,-38.5"/>
<text text-anchor="middle" x="123" y="-45.5" font-family="Helvetica,sans-Serif" font-size="10.00" fill="#000000">mpi_class::getSize</text>
</a>
</g>
</g>
<!-- Node64&#45;&gt;Node70 -->
<g id="edge6" class="edge">
<title>Node64&#45;&gt;Node70</title>
<path fill="none" stroke="#191970" d="M24.3855,-114.2077C33.6606,-101.67 51.2946,-80.0145 71,-67 73.9361,-65.0608 77.096,-63.2877 80.3554,-61.6728"/>
<polygon fill="#191970" stroke="#191970" points="81.9755,-64.7833 89.7021,-57.5341 79.1413,-58.3827 81.9755,-64.7833"/>
</g>
<!-- Node71 -->
<g id="node8" class="node">
<title>Node71</title>
<g id="a_node8"><a xlink:href="classmomenta.html#a5b2ec8b44c4874d8e18036c8927461db" target="_top" xlink:title="momenta::phat2">
<polygon fill="#ffffff" stroke="#000000" points="79.5,-.5 79.5,-19.5 166.5,-19.5 166.5,-.5 79.5,-.5"/>
<text text-anchor="middle" x="123" y="-7.5" font-family="Helvetica,sans-Serif" font-size="10.00" fill="#000000">momenta::phat2</text>
</a>
</g>
</g>
<!-- Node64&#45;&gt;Node71 -->
<g id="edge7" class="edge">
<title>Node64&#45;&gt;Node71</title>
<path fill="none" stroke="#191970" d="M20.3733,-114.4588C26.5514,-95.5076 42.8671,-52.8944 71,-29 72.9871,-27.3123 75.1369,-25.7689 77.3927,-24.3582"/>
<polygon fill="#191970" stroke="#191970" points="79.2893,-27.3147 86.4979,-19.5503 76.0207,-21.1247 79.2893,-27.3147"/>
</g>
</g>
</svg>
