<?xml version="1.0" encoding="UTF-8" standalone="no"?>
<!DOCTYPE svg PUBLIC "-//W3C//DTD SVG 1.1//EN"
 "http://www.w3.org/Graphics/SVG/1.1/DTD/svg11.dtd">
<!-- Generated by graphviz version 2.40.1 (20161225.0304)
 -->
<!-- Title: operator* Pages: 1 -->
<svg width="190pt" height="104pt"
 viewBox="0.00 0.00 190.00 104.00" xmlns="http://www.w3.org/2000/svg" xmlns:xlink="http://www.w3.org/1999/xlink">
<g id="graph0" class="graph" transform="scale(1 1) rotate(0) translate(4 100)">
<title>operator*</title>
<polygon fill="#ffffff" stroke="transparent" points="-4,4 -4,-100 186,-100 186,4 -4,4"/>
<!-- Node12 -->
<g id="node1" class="node">
<title>Node12</title>
<polygon fill="#bfbfbf" stroke="#000000" points="0,-38.5 0,-57.5 56,-57.5 56,-38.5 0,-38.5"/>
<text text-anchor="middle" x="28" y="-45.5" font-family="Helvetica,sans-Serif" font-size="10.00" fill="#000000">operator*</text>
</g>
<!-- Node13 -->
<g id="node2" class="node">
<title>Node13</title>
<g id="a_node2"><a xlink:href="classgfield.html#abc5227b4d044f39bb8f6ceebd4552861" target="_top" xlink:title="gfield::getNxg">
<polygon fill="#ffffff" stroke="#000000" points="98.5,-76.5 98.5,-95.5 175.5,-95.5 175.5,-76.5 98.5,-76.5"/>
<text text-anchor="middle" x="137" y="-83.5" font-family="Helvetica,sans-Serif" font-size="10.00" fill="#000000">gfield::getNxg</text>
</a>
</g>
</g>
<!-- Node12&#45;&gt;Node13 -->
<g id="edge1" class="edge">
<title>Node12&#45;&gt;Node13</title>
<path fill="none" stroke="#191970" d="M55.5053,-57.589C68.9307,-62.2694 85.28,-67.9692 99.801,-73.0315"/>
<polygon fill="#191970" stroke="#191970" points="98.9087,-76.427 109.5035,-76.4141 101.2131,-69.8172 98.9087,-76.427"/>
</g>
<!-- Node14 -->
<g id="node3" class="node">
<title>Node14</title>
<g id="a_node3"><a xlink:href="classgfield.html#a963fa744ca9d2464463cfe4195a0ba90" target="_top" xlink:title="gfield::getNyg">
<polygon fill="#ffffff" stroke="#000000" points="98.5,-38.5 98.5,-57.5 175.5,-57.5 175.5,-38.5 98.5,-38.5"/>
<text text-anchor="middle" x="137" y="-45.5" font-family="Helvetica,sans-Serif" font-size="10.00" fill="#000000">gfield::getNyg</text>
</a>
</g>
</g>
<!-- Node12&#45;&gt;Node14 -->
<g id="edge2" class="edge">
<title>Node12&#45;&gt;Node14</title>
<path fill="none" stroke="#191970" d="M56.0702,-48C65.9222,-48 77.2946,-48 88.3429,-48"/>
<polygon fill="#191970" stroke="#191970" points="88.3454,-51.5001 98.3453,-48 88.3453,-44.5001 88.3454,-51.5001"/>
</g>
<!-- Node15 -->
<g id="node4" class="node">
<title>Node15</title>
<g id="a_node4"><a xlink:href="classgfield.html#a97edc5f1bc25f08f1cca0a1ab91b5f98" target="_top" xlink:title="gfield::setToZero">
<polygon fill="#ffffff" stroke="#000000" points="92,-.5 92,-19.5 182,-19.5 182,-.5 92,-.5"/>
<text text-anchor="middle" x="137" y="-7.5" font-family="Helvetica,sans-Serif" font-size="10.00" fill="#000000">gfield::setToZero</text>
</a>
</g>
</g>
<!-- Node12&#45;&gt;Node15 -->
<g id="edge3" class="edge">
<title>Node12&#45;&gt;Node15</title>
<path fill="none" stroke="#191970" d="M55.5053,-38.411C68.9307,-33.7306 85.28,-28.0308 99.801,-22.9685"/>
<polygon fill="#191970" stroke="#191970" points="101.2131,-26.1828 109.5035,-19.5859 98.9087,-19.573 101.2131,-26.1828"/>
</g>
</g>
</svg>
