<?xml version="1.0" encoding="UTF-8" standalone="no"?>
<!DOCTYPE svg PUBLIC "-//W3C//DTD SVG 1.1//EN"
 "http://www.w3.org/Graphics/SVG/1.1/DTD/svg11.dtd">
<!-- Generated by graphviz version 2.40.1 (20161225.0304)
 -->
<!-- Title: field.h Pages: 1 -->
<svg width="3130pt" height="162pt"
 viewBox="0.00 0.00 3130.00 162.00" xmlns="http://www.w3.org/2000/svg" xmlns:xlink="http://www.w3.org/1999/xlink">
<g id="graph0" class="graph" transform="scale(1 1) rotate(0) translate(4 158)">
<title>field.h</title>
<polygon fill="#ffffff" stroke="transparent" points="-4,4 -4,-158 3126,-158 3126,4 -4,4"/>
<!-- Node19 -->
<g id="node1" class="node">
<title>Node19</title>
<polygon fill="#bfbfbf" stroke="#000000" points="1478.5,-134.5 1478.5,-153.5 1521.5,-153.5 1521.5,-134.5 1478.5,-134.5"/>
<text text-anchor="middle" x="1500" y="-141.5" font-family="Helvetica,sans-Serif" font-size="10.00" fill="#000000">field.h</text>
</g>
<!-- Node20 -->
<g id="node2" class="node">
<title>Node20</title>
<g id="a_node2"><a xlink:href="$main__explicit_8cpp.html" xlink:title="main_explicit.cpp">
<polygon fill="#ffffff" stroke="#000000" points="98,-11.5 98,-30.5 190,-30.5 190,-11.5 98,-11.5"/>
<text text-anchor="middle" x="144" y="-18.5" font-family="Helvetica,sans-Serif" font-size="10.00" fill="#000000">main_explicit.cpp</text>
</a>
</g>
</g>
<!-- Node19&#45;&gt;Node20 -->
<g id="edge1" class="edge">
<title>Node19&#45;&gt;Node20</title>
<path fill="none" stroke="#191970" d="M1468.2308,-143.8664C1285.8538,-142.9611 376.0328,-136.5309 258,-98 214.6349,-83.8438 172.5199,-47.9488 153.929,-30.6335"/>
<polygon fill="#191970" stroke="#191970" points="1468.4676,-147.3675 1478.4842,-143.9152 1468.501,-140.3676 1468.4676,-147.3675"/>
</g>
<!-- Node21 -->
<g id="node3" class="node">
<title>Node21</title>
<g id="a_node3"><a xlink:href="$matrix_8h.html" xlink:title="matrix.h">
<polygon fill="#ffffff" stroke="#000000" points="267,-78.5 267,-97.5 319,-97.5 319,-78.5 267,-78.5"/>
<text text-anchor="middle" x="293" y="-85.5" font-family="Helvetica,sans-Serif" font-size="10.00" fill="#000000">matrix.h</text>
</a>
</g>
</g>
<!-- Node19&#45;&gt;Node21 -->
<g id="edge2" class="edge">
<title>Node19&#45;&gt;Node21</title>
<path fill="none" stroke="#191970" d="M1468.3692,-143.1638C1337.8379,-139.6076 828.2625,-124.6877 410,-98 378.8719,-96.0138 343.16,-92.8298 319.4621,-90.5892"/>
<polygon fill="#191970" stroke="#191970" points="1468.3778,-146.6652 1478.4687,-143.4368 1468.567,-139.6678 1468.3778,-146.6652"/>
</g>
<!-- Node22 -->
<g id="node4" class="node">
<title>Node22</title>
<g id="a_node4"><a xlink:href="$main__omp_8cpp.html" xlink:title="main_omp.cpp">
<polygon fill="#ffffff" stroke="#000000" points="0,-11.5 0,-30.5 80,-30.5 80,-11.5 0,-11.5"/>
<text text-anchor="middle" x="40" y="-18.5" font-family="Helvetica,sans-Serif" font-size="10.00" fill="#000000">main_omp.cpp</text>
</a>
</g>
</g>
<!-- Node19&#45;&gt;Node22 -->
<g id="edge31" class="edge">
<title>Node19&#45;&gt;Node22</title>
<path fill="none" stroke="#191970" d="M1468.0766,-143.5822C1281.8256,-141.0481 339.4767,-126.8756 214,-98 152.5121,-83.85 85.9176,-47.9519 56.064,-30.6347"/>
<polygon fill="#191970" stroke="#191970" points="1468.2483,-147.0847 1478.2946,-143.7198 1468.3426,-140.0853 1468.2483,-147.0847"/>
</g>
<!-- Node23 -->
<g id="node5" class="node">
<title>Node23</title>
<g id="a_node5"><a xlink:href="$test__noise__vectors__and__cholesky__decomposition_8cpp.html" xlink:title="tests/test_noise_vectors\l_and_cholesky_decomposition.cpp">
<polygon fill="#ffffff" stroke="#000000" points="208.5,-6 208.5,-36 377.5,-36 377.5,-6 208.5,-6"/>
<text text-anchor="start" x="216.5" y="-24" font-family="Helvetica,sans-Serif" font-size="10.00" fill="#000000">tests/test_noise_vectors</text>
<text text-anchor="middle" x="293" y="-13" font-family="Helvetica,sans-Serif" font-size="10.00" fill="#000000">_and_cholesky_decomposition.cpp</text>
</a>
</g>
</g>
<!-- Node19&#45;&gt;Node23 -->
<g id="edge47" class="edge">
<title>Node19&#45;&gt;Node23</title>
<path fill="none" stroke="#191970" d="M1468.3582,-143.8093C1358.088,-142.8121 980.6537,-136.6047 672,-98 557.9068,-83.7299 426.8599,-54.0951 352.5969,-36.0375"/>
<polygon fill="#191970" stroke="#191970" points="1468.4444,-147.3101 1478.4729,-143.8926 1468.5021,-140.3103 1468.4444,-147.3101"/>
</g>
<!-- Node24 -->
<g id="node6" class="node">
<title>Node24</title>
<g id="a_node6"><a xlink:href="$test__position__evolution__coupling__noise_8cpp.html" xlink:title="tests/test_position\l_evolution_coupling\l_noise.cpp">
<polygon fill="#ffffff" stroke="#000000" points="395,-.5 395,-41.5 497,-41.5 497,-.5 395,-.5"/>
<text text-anchor="start" x="403" y="-29.5" font-family="Helvetica,sans-Serif" font-size="10.00" fill="#000000">tests/test_position</text>
<text text-anchor="start" x="403" y="-18.5" font-family="Helvetica,sans-Serif" font-size="10.00" fill="#000000">_evolution_coupling</text>
<text text-anchor="middle" x="446" y="-7.5" font-family="Helvetica,sans-Serif" font-size="10.00" fill="#000000">_noise.cpp</text>
</a>
</g>
</g>
<!-- Node19&#45;&gt;Node24 -->
<g id="edge50" class="edge">
<title>Node19&#45;&gt;Node24</title>
<path fill="none" stroke="#191970" d="M1468.308,-142.9079C1372.7064,-139.376 1078.8786,-126.7813 837,-98 688.8435,-80.3707 650.4842,-79.2218 506,-42 503.1144,-41.2566 500.1701,-40.4365 497.2115,-39.564"/>
<polygon fill="#191970" stroke="#191970" points="1468.3434,-146.4113 1478.4638,-143.2762 1468.5972,-139.4159 1468.3434,-146.4113"/>
</g>
<!-- Node25 -->
<g id="node7" class="node">
<title>Node25</title>
<g id="a_node7"><a xlink:href="$mpi__fftw__class_8h.html" xlink:title="mpi_fftw_class.h">
<polygon fill="#ffffff" stroke="#000000" points="1417.5,-78.5 1417.5,-97.5 1508.5,-97.5 1508.5,-78.5 1417.5,-78.5"/>
<text text-anchor="middle" x="1463" y="-85.5" font-family="Helvetica,sans-Serif" font-size="10.00" fill="#000000">mpi_fftw_class.h</text>
</a>
</g>
</g>
<!-- Node19&#45;&gt;Node25 -->
<g id="edge7" class="edge">
<title>Node19&#45;&gt;Node25</title>
<path fill="none" stroke="#191970" d="M1487.8624,-125.6296C1481.6907,-116.2887 1474.4434,-105.3197 1469.3711,-97.6427"/>
<polygon fill="#191970" stroke="#191970" points="1485.1223,-127.8316 1493.5551,-134.2455 1490.9627,-123.9728 1485.1223,-127.8316"/>
</g>
<!-- Node26 -->
<g id="node8" class="node">
<title>Node26</title>
<g id="a_node8"><a xlink:href="$test__accumulation_8cpp.html" xlink:title="tests/test_accumulation.cpp">
<polygon fill="#ffffff" stroke="#000000" points="515,-11.5 515,-30.5 655,-30.5 655,-11.5 515,-11.5"/>
<text text-anchor="middle" x="585" y="-18.5" font-family="Helvetica,sans-Serif" font-size="10.00" fill="#000000">tests/test_accumulation.cpp</text>
</a>
</g>
</g>
<!-- Node19&#45;&gt;Node26 -->
<g id="edge33" class="edge">
<title>Node19&#45;&gt;Node26</title>
<path fill="none" stroke="#191970" d="M1468.3301,-142.217C1386.5724,-137.3982 1161.8237,-122.7817 976,-98 836.3538,-79.3766 801.5266,-72.5667 664,-42 648.8997,-38.6438 632.3363,-34.3385 618.2933,-30.5008"/>
<polygon fill="#191970" stroke="#191970" points="1468.2746,-145.7196 1478.4611,-142.8068 1468.6815,-138.7314 1468.2746,-145.7196"/>
</g>
<!-- Node27 -->
<g id="node9" class="node">
<title>Node27</title>
<g id="a_node9"><a xlink:href="$test__exponentiate_8cpp.html" xlink:title="tests/test_exponentiate.cpp">
<polygon fill="#ffffff" stroke="#000000" points="673.5,-11.5 673.5,-30.5 810.5,-30.5 810.5,-11.5 673.5,-11.5"/>
<text text-anchor="middle" x="742" y="-18.5" font-family="Helvetica,sans-Serif" font-size="10.00" fill="#000000">tests/test_exponentiate.cpp</text>
</a>
</g>
</g>
<!-- Node19&#45;&gt;Node27 -->
<g id="edge34" class="edge">
<title>Node19&#45;&gt;Node27</title>
<path fill="none" stroke="#191970" d="M1468.2732,-141.3519C1399.8337,-135.4301 1233.3293,-119.8969 1095,-98 971.8033,-78.4986 941.3906,-70.6716 820,-42 805.3963,-38.5507 789.3739,-34.3162 775.6701,-30.5553"/>
<polygon fill="#191970" stroke="#191970" points="1468.1337,-144.8526 1478.396,-142.2192 1468.7314,-137.8782 1468.1337,-144.8526"/>
</g>
<!-- Node28 -->
<g id="node10" class="node">
<title>Node28</title>
<g id="a_node10"><a xlink:href="$test__hermitian_8cpp.html" xlink:title="tests/test_hermitian.cpp">
<polygon fill="#ffffff" stroke="#000000" points="829,-11.5 829,-30.5 951,-30.5 951,-11.5 829,-11.5"/>
<text text-anchor="middle" x="890" y="-18.5" font-family="Helvetica,sans-Serif" font-size="10.00" fill="#000000">tests/test_hermitian.cpp</text>
</a>
</g>
</g>
<!-- Node19&#45;&gt;Node28 -->
<g id="edge35" class="edge">
<title>Node19&#45;&gt;Node28</title>
<path fill="none" stroke="#191970" d="M1468.1047,-140.2144C1411.8689,-133.3259 1291.518,-117.6246 1191,-98 1087.3171,-77.7575 1061.9626,-69.6322 960,-42 947.0191,-38.4821 932.7866,-34.2771 920.5647,-30.5571"/>
<polygon fill="#191970" stroke="#191970" points="1467.8073,-143.7039 1478.1564,-141.4352 1468.6513,-136.755 1467.8073,-143.7039"/>
</g>
<!-- Node29 -->
<g id="node11" class="node">
<title>Node29</title>
<g id="a_node11"><a xlink:href="$test__initial__condition_8cpp.html" xlink:title="tests/test_initial\l_condition.cpp">
<polygon fill="#ffffff" stroke="#000000" points="969,-6 969,-36 1055,-36 1055,-6 969,-6"/>
<text text-anchor="start" x="977" y="-24" font-family="Helvetica,sans-Serif" font-size="10.00" fill="#000000">tests/test_initial</text>
<text text-anchor="middle" x="1012" y="-13" font-family="Helvetica,sans-Serif" font-size="10.00" fill="#000000">_condition.cpp</text>
</a>
</g>
</g>
<!-- Node19&#45;&gt;Node29 -->
<g id="edge36" class="edge">
<title>Node19&#45;&gt;Node29</title>
<path fill="none" stroke="#191970" d="M1468.4732,-138.4546C1396.0219,-125.3163 1212.4708,-89.7762 1064,-42 1058.5318,-40.2404 1052.8221,-38.1764 1047.2726,-36.0419"/>
<polygon fill="#191970" stroke="#191970" points="1467.8774,-141.9036 1478.3391,-140.2293 1469.1168,-135.0142 1467.8774,-141.9036"/>
</g>
<!-- Node30 -->
<g id="node12" class="node">
<title>Node30</title>
<g id="a_node12"><a xlink:href="$test__initial__condition__fftw1d_8cpp.html" xlink:title="tests/test_initial\l_condition_fftw1d.cpp">
<polygon fill="#ffffff" stroke="#000000" points="1073,-6 1073,-36 1185,-36 1185,-6 1073,-6"/>
<text text-anchor="start" x="1081" y="-24" font-family="Helvetica,sans-Serif" font-size="10.00" fill="#000000">tests/test_initial</text>
<text text-anchor="middle" x="1129" y="-13" font-family="Helvetica,sans-Serif" font-size="10.00" fill="#000000">_condition_fftw1d.cpp</text>
</a>
</g>
</g>
<!-- Node19&#45;&gt;Node30 -->
<g id="edge37" class="edge">
<title>Node19&#45;&gt;Node30</title>
<path fill="none" stroke="#191970" d="M1468.1742,-134.3206C1438.3449,-125.1822 1392.546,-110.9817 1353,-98 1289.7048,-77.2223 1216.8164,-51.9066 1171.8229,-36.1168"/>
<polygon fill="#191970" stroke="#191970" points="1467.4365,-137.7549 1478.0228,-137.3316 1469.4831,-131.0608 1467.4365,-137.7549"/>
</g>
<!-- Node31 -->
<g id="node13" class="node">
<title>Node31</title>
<g id="a_node13"><a xlink:href="$test__momentum__coupling_8cpp.html" xlink:title="tests/test_momentum\l_coupling.cpp">
<polygon fill="#ffffff" stroke="#000000" points="1203,-6 1203,-36 1315,-36 1315,-6 1203,-6"/>
<text text-anchor="start" x="1211" y="-24" font-family="Helvetica,sans-Serif" font-size="10.00" fill="#000000">tests/test_momentum</text>
<text text-anchor="middle" x="1259" y="-13" font-family="Helvetica,sans-Serif" font-size="10.00" fill="#000000">_coupling.cpp</text>
</a>
</g>
</g>
<!-- Node19&#45;&gt;Node31 -->
<g id="edge38" class="edge">
<title>Node19&#45;&gt;Node31</title>
<path fill="none" stroke="#191970" d="M1468.6357,-131.4435C1447.3177,-122.6534 1418.6259,-110.3205 1394,-98 1354.4262,-78.201 1310.1523,-52.1686 1283.4414,-36.0149"/>
<polygon fill="#191970" stroke="#191970" points="1467.583,-134.7943 1478.1639,-135.3391 1470.2321,-128.3149 1467.583,-134.7943"/>
</g>
<!-- Node32 -->
<g id="node14" class="node">
<title>Node32</title>
<g id="a_node14"><a xlink:href="$test__momentum__coupling__fft_8cpp.html" xlink:title="tests/test_momentum\l_coupling_fft.cpp">
<polygon fill="#ffffff" stroke="#000000" points="1333,-6 1333,-36 1445,-36 1445,-6 1333,-6"/>
<text text-anchor="start" x="1341" y="-24" font-family="Helvetica,sans-Serif" font-size="10.00" fill="#000000">tests/test_momentum</text>
<text text-anchor="middle" x="1389" y="-13" font-family="Helvetica,sans-Serif" font-size="10.00" fill="#000000">_coupling_fft.cpp</text>
</a>
</g>
</g>
<!-- Node19&#45;&gt;Node32 -->
<g id="edge39" class="edge">
<title>Node19&#45;&gt;Node32</title>
<path fill="none" stroke="#191970" d="M1468.6928,-135.7888C1448.5067,-128.9159 1423.2651,-117.0895 1408,-98 1393.7253,-80.1491 1389.9741,-53.0723 1389.1009,-36.2402"/>
<polygon fill="#191970" stroke="#191970" points="1467.8288,-139.1863 1478.4186,-138.8593 1469.9363,-132.511 1467.8288,-139.1863"/>
</g>
<!-- Node33 -->
<g id="node15" class="node">
<title>Node33</title>
<g id="a_node15"><a xlink:href="$test__momentum__evolution_8cpp.html" xlink:title="tests/test_momentum\l_evolution.cpp">
<polygon fill="#ffffff" stroke="#000000" points="1463,-6 1463,-36 1575,-36 1575,-6 1463,-6"/>
<text text-anchor="start" x="1471" y="-24" font-family="Helvetica,sans-Serif" font-size="10.00" fill="#000000">tests/test_momentum</text>
<text text-anchor="middle" x="1519" y="-13" font-family="Helvetica,sans-Serif" font-size="10.00" fill="#000000">_evolution.cpp</text>
</a>
</g>
</g>
<!-- Node19&#45;&gt;Node33 -->
<g id="edge40" class="edge">
<title>Node19&#45;&gt;Node33</title>
<path fill="none" stroke="#191970" d="M1508.5834,-125.0848C1511.8632,-116.9277 1515.2364,-107.1708 1517,-98 1521.0657,-76.8575 1520.8086,-51.8531 1520.0578,-36.2066"/>
<polygon fill="#191970" stroke="#191970" points="1505.3153,-123.8259 1504.6073,-134.3971 1511.753,-126.5747 1505.3153,-123.8259"/>
</g>
<!-- Node34 -->
<g id="node16" class="node">
<title>Node34</title>
<g id="a_node16"><a xlink:href="$test__momentum__evolution__coupling_8cpp.html" xlink:title="tests/test_momentum\l_evolution_coupling.cpp">
<polygon fill="#ffffff" stroke="#000000" points="1593.5,-6 1593.5,-36 1714.5,-36 1714.5,-6 1593.5,-6"/>
<text text-anchor="start" x="1601.5" y="-24" font-family="Helvetica,sans-Serif" font-size="10.00" fill="#000000">tests/test_momentum</text>
<text text-anchor="middle" x="1654" y="-13" font-family="Helvetica,sans-Serif" font-size="10.00" fill="#000000">_evolution_coupling.cpp</text>
</a>
</g>
</g>
<!-- Node19&#45;&gt;Node34 -->
<g id="edge41" class="edge">
<title>Node19&#45;&gt;Node34</title>
<path fill="none" stroke="#191970" d="M1520.1485,-127.9074C1550.111,-103.9763 1606.0046,-59.334 1635.1792,-36.0322"/>
<polygon fill="#191970" stroke="#191970" points="1517.7135,-125.3728 1512.0841,-134.3484 1522.0821,-130.8424 1517.7135,-125.3728"/>
</g>
<!-- Node35 -->
<g id="node17" class="node">
<title>Node35</title>
<g id="a_node17"><a xlink:href="$test__momentum__evolution__coupling2_8cpp.html" xlink:title="tests/test_momentum\l_evolution_coupling2.cpp">
<polygon fill="#ffffff" stroke="#000000" points="1733,-6 1733,-36 1859,-36 1859,-6 1733,-6"/>
<text text-anchor="start" x="1741" y="-24" font-family="Helvetica,sans-Serif" font-size="10.00" fill="#000000">tests/test_momentum</text>
<text text-anchor="middle" x="1796" y="-13" font-family="Helvetica,sans-Serif" font-size="10.00" fill="#000000">_evolution_coupling2.cpp</text>
</a>
</g>
</g>
<!-- Node19&#45;&gt;Node35 -->
<g id="edge42" class="edge">
<title>Node19&#45;&gt;Node35</title>
<path fill="none" stroke="#191970" d="M1527.308,-129.7974C1554.6853,-115.8089 1598.2254,-94.2376 1637,-78 1674.462,-62.3121 1717.9279,-46.9152 1749.9363,-36.0863"/>
<polygon fill="#191970" stroke="#191970" points="1525.6285,-126.7253 1518.3327,-134.4079 1528.827,-132.9518 1525.6285,-126.7253"/>
</g>
<!-- Node36 -->
<g id="node18" class="node">
<title>Node36</title>
<g id="a_node18"><a xlink:href="$test__momentum__evolution__coupling__lambda_8cpp.html" xlink:title="tests/test_momentum\l_evolution_coupling\l_lambda.cpp">
<polygon fill="#ffffff" stroke="#000000" points="1877,-.5 1877,-41.5 1989,-41.5 1989,-.5 1877,-.5"/>
<text text-anchor="start" x="1885" y="-29.5" font-family="Helvetica,sans-Serif" font-size="10.00" fill="#000000">tests/test_momentum</text>
<text text-anchor="start" x="1885" y="-18.5" font-family="Helvetica,sans-Serif" font-size="10.00" fill="#000000">_evolution_coupling</text>
<text text-anchor="middle" x="1933" y="-7.5" font-family="Helvetica,sans-Serif" font-size="10.00" fill="#000000">_lambda.cpp</text>
</a>
</g>
</g>
<!-- Node19&#45;&gt;Node36 -->
<g id="edge43" class="edge">
<title>Node19&#45;&gt;Node36</title>
<path fill="none" stroke="#191970" d="M1531.3251,-133.6823C1557.8163,-124.7744 1596.6716,-111.2793 1630,-98 1650.3319,-89.899 1654.0997,-84.4954 1675,-78 1758.326,-52.104 1783.422,-63.4568 1868,-42 1870.8737,-41.271 1873.8061,-40.484 1876.7582,-39.6575"/>
<polygon fill="#191970" stroke="#191970" points="1530.189,-130.3716 1521.8147,-136.8617 1532.4085,-137.0104 1530.189,-130.3716"/>
</g>
<!-- Node37 -->
<g id="node19" class="node">
<title>Node37</title>
<g id="a_node19"><a xlink:href="$test__momentum__evolution__coupling__lambda__noise_8cpp.html" xlink:title="tests/test_momentum\l_evolution_coupling\l_lambda_noise.cpp">
<polygon fill="#ffffff" stroke="#000000" points="2007,-.5 2007,-41.5 2119,-41.5 2119,-.5 2007,-.5"/>
<text text-anchor="start" x="2015" y="-29.5" font-family="Helvetica,sans-Serif" font-size="10.00" fill="#000000">tests/test_momentum</text>
<text text-anchor="start" x="2015" y="-18.5" font-family="Helvetica,sans-Serif" font-size="10.00" fill="#000000">_evolution_coupling</text>
<text text-anchor="middle" x="2063" y="-7.5" font-family="Helvetica,sans-Serif" font-size="10.00" fill="#000000">_lambda_noise.cpp</text>
</a>
</g>
</g>
<!-- Node19&#45;&gt;Node37 -->
<g id="edge44" class="edge">
<title>Node19&#45;&gt;Node37</title>
<path fill="none" stroke="#191970" d="M1531.4455,-136.7472C1565.3229,-128.6084 1620.6145,-114.3798 1667,-98 1688.0211,-90.5769 1691.5019,-83.9009 1713,-78 1836.1193,-44.2054 1873.3782,-69.7463 1998,-42 2000.8939,-41.3557 2003.8425,-40.6369 2006.8075,-39.8645"/>
<polygon fill="#191970" stroke="#191970" points="1530.5734,-133.3569 1521.6529,-139.0731 1532.1911,-140.1674 1530.5734,-133.3569"/>
</g>
<!-- Node38 -->
<g id="node20" class="node">
<title>Node38</title>
<g id="a_node20"><a xlink:href="$test__multiplication_8cpp.html" xlink:title="tests/test_multiplication.cpp">
<polygon fill="#ffffff" stroke="#000000" points="2137.5,-11.5 2137.5,-30.5 2276.5,-30.5 2276.5,-11.5 2137.5,-11.5"/>
<text text-anchor="middle" x="2207" y="-18.5" font-family="Helvetica,sans-Serif" font-size="10.00" fill="#000000">tests/test_multiplication.cpp</text>
</a>
</g>
</g>
<!-- Node19&#45;&gt;Node38 -->
<g id="edge45" class="edge">
<title>Node19&#45;&gt;Node38</title>
<path fill="none" stroke="#191970" d="M1531.8733,-138.6574C1572.4281,-131.4418 1644.3699,-117.2361 1704,-98 1725.6051,-91.0304 1728.9973,-83.5892 1751,-78 1914.1366,-36.5595 1962.3271,-71.7211 2128,-42 2143.9242,-39.1433 2161.3318,-34.6664 2175.7439,-30.5789"/>
<polygon fill="#191970" stroke="#191970" points="1531.0312,-135.2515 1521.7843,-140.423 1532.2379,-142.1467 1531.0312,-135.2515"/>
</g>
<!-- Node39 -->
<g id="node21" class="node">
<title>Node39</title>
<g id="a_node21"><a xlink:href="$test__noise__vectors_8cpp.html" xlink:title="tests/test_noise_vectors.cpp">
<polygon fill="#ffffff" stroke="#000000" points="2294.5,-11.5 2294.5,-30.5 2437.5,-30.5 2437.5,-11.5 2294.5,-11.5"/>
<text text-anchor="middle" x="2366" y="-18.5" font-family="Helvetica,sans-Serif" font-size="10.00" fill="#000000">tests/test_noise_vectors.cpp</text>
</a>
</g>
</g>
<!-- Node19&#45;&gt;Node39 -->
<g id="edge46" class="edge">
<title>Node19&#45;&gt;Node39</title>
<path fill="none" stroke="#191970" d="M1531.8633,-140.1618C1578.6475,-134.031 1668.356,-120.3845 1742,-98 1763.7203,-91.398 1766.9348,-83.337 1789,-78 2004.2605,-25.9344 2067.5224,-78.2692 2286,-42 2302.4321,-39.2721 2320.3983,-34.7046 2335.1346,-30.5248"/>
<polygon fill="#191970" stroke="#191970" points="1531.2142,-136.7162 1521.7398,-141.4582 1532.1034,-143.6595 1531.2142,-136.7162"/>
</g>
<!-- Node40 -->
<g id="node22" class="node">
<title>Node40</title>
<g id="a_node22"><a xlink:href="$test__position__evolution_8cpp.html" xlink:title="tests/test_position\l_evolution.cpp">
<polygon fill="#ffffff" stroke="#000000" points="2455.5,-6 2455.5,-36 2552.5,-36 2552.5,-6 2455.5,-6"/>
<text text-anchor="start" x="2463.5" y="-24" font-family="Helvetica,sans-Serif" font-size="10.00" fill="#000000">tests/test_position</text>
<text text-anchor="middle" x="2504" y="-13" font-family="Helvetica,sans-Serif" font-size="10.00" fill="#000000">_evolution.cpp</text>
</a>
</g>
</g>
<!-- Node19&#45;&gt;Node40 -->
<g id="edge48" class="edge">
<title>Node19&#45;&gt;Node40</title>
<path fill="none" stroke="#191970" d="M1531.8678,-141.2697C1584.4089,-136.2149 1692.1443,-123.5085 1780,-98 1801.8012,-91.6701 1804.8971,-83.179 1827,-78 2095.741,-15.0307 2176.7877,-98.3223 2447,-42 2453.9172,-40.5582 2461.118,-38.4327 2467.9801,-36.08"/>
<polygon fill="#191970" stroke="#191970" points="1531.4507,-137.7933 1521.819,-142.2071 1532.1009,-144.763 1531.4507,-137.7933"/>
</g>
<!-- Node41 -->
<g id="node23" class="node">
<title>Node41</title>
<g id="a_node23"><a xlink:href="$test__position__evolution__coupling_8cpp.html" xlink:title="tests/test_position\l_evolution_coupling.cpp">
<polygon fill="#ffffff" stroke="#000000" points="2570.5,-6 2570.5,-36 2691.5,-36 2691.5,-6 2570.5,-6"/>
<text text-anchor="start" x="2578.5" y="-24" font-family="Helvetica,sans-Serif" font-size="10.00" fill="#000000">tests/test_position</text>
<text text-anchor="middle" x="2631" y="-13" font-family="Helvetica,sans-Serif" font-size="10.00" fill="#000000">_evolution_coupling.cpp</text>
</a>
</g>
</g>
<!-- Node19&#45;&gt;Node41 -->
<g id="edge49" class="edge">
<title>Node19&#45;&gt;Node41</title>
<path fill="none" stroke="#191970" d="M1531.9408,-142.1172C1589.8893,-138.1019 1715.8087,-126.6114 1818,-98 1839.8608,-91.8794 1842.8807,-83.1083 1865,-78 2167.2357,-8.2012 2256.4675,-95.5553 2562,-42 2570.2635,-40.5515 2578.9279,-38.4228 2587.2173,-36.0691"/>
<polygon fill="#191970" stroke="#191970" points="1531.3543,-138.6483 1521.6081,-142.803 1531.818,-145.633 1531.3543,-138.6483"/>
</g>
<!-- Node42 -->
<g id="node24" class="node">
<title>Node42</title>
<g id="a_node24"><a xlink:href="$test__position__evolution__hatta__coupling_8cpp.html" xlink:title="tests/test_position\l_evolution_hatta_coupling.cpp">
<polygon fill="#ffffff" stroke="#000000" points="2710,-6 2710,-36 2858,-36 2858,-6 2710,-6"/>
<text text-anchor="start" x="2718" y="-24" font-family="Helvetica,sans-Serif" font-size="10.00" fill="#000000">tests/test_position</text>
<text text-anchor="middle" x="2784" y="-13" font-family="Helvetica,sans-Serif" font-size="10.00" fill="#000000">_evolution_hatta_coupling.cpp</text>
</a>
</g>
</g>
<!-- Node19&#45;&gt;Node42 -->
<g id="edge51" class="edge">
<title>Node19&#45;&gt;Node42</title>
<path fill="none" stroke="#191970" d="M1531.7452,-142.805C1594.6568,-139.8048 1739.1764,-129.7555 1856,-98 1877.9066,-92.0453 1880.8642,-83.0361 1903,-78 2249.1812,.7595 2349.7729,-93.807 2701,-42 2710.8521,-40.5468 2721.2325,-38.4158 2731.1898,-36.0614"/>
<polygon fill="#191970" stroke="#191970" points="1531.5,-139.3124 1521.6672,-143.2578 1531.8142,-146.3053 1531.5,-139.3124"/>
</g>
<!-- Node43 -->
<g id="node25" class="node">
<title>Node43</title>
<g id="a_node25"><a xlink:href="$test__symmetrize__average_8cpp.html" xlink:title="tests/test_symmetrize\l_average.cpp">
<polygon fill="#ffffff" stroke="#000000" points="2876,-6 2876,-36 2990,-36 2990,-6 2876,-6"/>
<text text-anchor="start" x="2884" y="-24" font-family="Helvetica,sans-Serif" font-size="10.00" fill="#000000">tests/test_symmetrize</text>
<text text-anchor="middle" x="2933" y="-13" font-family="Helvetica,sans-Serif" font-size="10.00" fill="#000000">_average.cpp</text>
</a>
</g>
</g>
<!-- Node19&#45;&gt;Node43 -->
<g id="edge52" class="edge">
<title>Node19&#45;&gt;Node43</title>
<path fill="none" stroke="#191970" d="M1531.7891,-143.3524C1599.5145,-141.3103 1762.5745,-132.8597 1894,-98 1915.9427,-92.1798 1918.8486,-82.9672 1941,-78 2342.8864,12.1183 2461.3139,-113.0826 2867,-42 2875.0539,-40.5888 2883.4859,-38.4457 2891.5269,-36.0589"/>
<polygon fill="#191970" stroke="#191970" points="1531.6575,-139.8546 1521.7575,-143.6282 1531.85,-146.852 1531.6575,-139.8546"/>
</g>
<!-- Node44 -->
<g id="node26" class="node">
<title>Node44</title>
<g id="a_node26"><a xlink:href="$test__symmetrize__average2_8cpp.html" xlink:title="tests/test_symmetrize\l_average2.cpp">
<polygon fill="#ffffff" stroke="#000000" points="3008,-6 3008,-36 3122,-36 3122,-6 3008,-6"/>
<text text-anchor="start" x="3016" y="-24" font-family="Helvetica,sans-Serif" font-size="10.00" fill="#000000">tests/test_symmetrize</text>
<text text-anchor="middle" x="3065" y="-13" font-family="Helvetica,sans-Serif" font-size="10.00" fill="#000000">_average2.cpp</text>
</a>
</g>
</g>
<!-- Node19&#45;&gt;Node44 -->
<g id="edge53" class="edge">
<title>Node19&#45;&gt;Node44</title>
<path fill="none" stroke="#191970" d="M1531.7231,-141.9345C1617.9972,-136.1076 1855.4749,-118.616 1931,-98 1951.7228,-92.3433 1954.089,-82.9157 1975,-78 2196.6541,-25.8943 2774.648,-80.8806 2999,-42 3007.0565,-40.6038 3015.4897,-38.4676 3023.5311,-36.0831"/>
<polygon fill="#191970" stroke="#191970" points="1531.4838,-138.4426 1521.7397,-142.6021 1531.951,-145.427 1531.4838,-138.4426"/>
</g>
<!-- Node45 -->
<g id="node27" class="node">
<title>Node45</title>
<g id="a_node27"><a xlink:href="$mpi__exchange__boundaries_8cpp.html" xlink:title="mpi_exchange_boundaries.cpp">
<polygon fill="#ffffff" stroke="#000000" points="1983.5,-78.5 1983.5,-97.5 2134.5,-97.5 2134.5,-78.5 1983.5,-78.5"/>
<text text-anchor="middle" x="2059" y="-85.5" font-family="Helvetica,sans-Serif" font-size="10.00" fill="#000000">mpi_exchange_boundaries.cpp</text>
</a>
</g>
</g>
<!-- Node19&#45;&gt;Node45 -->
<g id="edge32" class="edge">
<title>Node19&#45;&gt;Node45</title>
<path fill="none" stroke="#191970" d="M1531.7894,-141.0246C1607.5266,-133.9048 1804.5808,-115.1969 1969,-98 1973.6908,-97.5094 1978.5181,-96.9964 1983.3855,-96.4731"/>
<polygon fill="#191970" stroke="#191970" points="1531.1427,-137.5699 1521.5137,-141.9894 1531.7971,-144.5392 1531.1427,-137.5699"/>
</g>
<!-- Node21&#45;&gt;Node20 -->
<g id="edge3" class="edge">
<title>Node21&#45;&gt;Node20</title>
<path fill="none" stroke="#191970" d="M262.4047,-74.2424C233.4498,-61.2224 190.7387,-42.0167 165.3085,-30.5817"/>
<polygon fill="#191970" stroke="#191970" points="261.0962,-77.4915 271.6519,-78.4005 263.967,-71.1072 261.0962,-77.4915"/>
</g>
<!-- Node21&#45;&gt;Node22 -->
<g id="edge4" class="edge">
<title>Node21&#45;&gt;Node22</title>
<path fill="none" stroke="#191970" d="M256.7224,-81.897C215.5078,-74.4876 146.5081,-60.6332 89,-42 79.3149,-38.8619 68.906,-34.5434 60.1835,-30.6382"/>
<polygon fill="#191970" stroke="#191970" points="256.3712,-85.3891 266.828,-83.6843 257.5904,-78.4961 256.3712,-85.3891"/>
</g>
<!-- Node21&#45;&gt;Node23 -->
<g id="edge5" class="edge">
<title>Node21&#45;&gt;Node23</title>
<path fill="none" stroke="#191970" d="M293,-68.2758C293,-57.9641 293,-45.5437 293,-36.0218"/>
<polygon fill="#191970" stroke="#191970" points="289.5001,-68.4005 293,-78.4005 296.5001,-68.4006 289.5001,-68.4005"/>
</g>
<!-- Node21&#45;&gt;Node24 -->
<g id="edge6" class="edge">
<title>Node21&#45;&gt;Node24</title>
<path fill="none" stroke="#191970" d="M324.223,-74.3272C345.7019,-64.9214 374.6197,-52.2581 398.8857,-41.6318"/>
<polygon fill="#191970" stroke="#191970" points="322.6774,-71.1831 314.9212,-78.4005 325.4854,-77.5952 322.6774,-71.1831"/>
</g>
<!-- Node25&#45;&gt;Node20 -->
<g id="edge8" class="edge">
<title>Node25&#45;&gt;Node20</title>
<path fill="none" stroke="#191970" d="M1407.103,-87.0439C1178.1177,-82.9804 318.2112,-66.2343 199,-42 187.0808,-39.577 174.3584,-34.8689 164.155,-30.5238"/>
<polygon fill="#191970" stroke="#191970" points="1407.1488,-90.5452 1417.209,-87.2222 1407.2724,-83.5462 1407.1488,-90.5452"/>
</g>
<!-- Node25&#45;&gt;Node22 -->
<g id="edge9" class="edge">
<title>Node25&#45;&gt;Node22</title>
<path fill="none" stroke="#191970" d="M1407.0578,-87.3485C1165.5817,-84.371 218.9125,-70.939 89,-42 78.34,-39.6254 67.0965,-34.9782 58.0723,-30.6579"/>
<polygon fill="#191970" stroke="#191970" points="1407.3127,-90.8518 1417.3548,-87.4744 1407.3983,-83.8524 1407.3127,-90.8518"/>
</g>
<!-- Node25&#45;&gt;Node23 -->
<g id="edge24" class="edge">
<title>Node25&#45;&gt;Node23</title>
<path fill="none" stroke="#191970" d="M1407.0769,-86.9372C1215.4897,-83.0888 586.3766,-68.6826 386,-42 375.007,-40.5361 363.3979,-38.4001 352.2483,-36.044"/>
<polygon fill="#191970" stroke="#191970" points="1407.1343,-90.439 1417.2021,-87.1389 1407.2738,-83.4404 1407.1343,-90.439"/>
</g>
<!-- Node25&#45;&gt;Node24 -->
<g id="edge27" class="edge">
<title>Node25&#45;&gt;Node24</title>
<path fill="none" stroke="#191970" d="M1407.3386,-87.4278C1230.1077,-85.2756 680.3883,-75.9639 506,-42 503.0752,-41.4304 500.0999,-40.7473 497.1173,-39.981"/>
<polygon fill="#191970" stroke="#191970" points="1407.4399,-90.9292 1417.4807,-87.5481 1407.523,-83.9297 1407.4399,-90.9292"/>
</g>
<!-- Node25&#45;&gt;Node26 -->
<g id="edge10" class="edge">
<title>Node25&#45;&gt;Node26</title>
<path fill="none" stroke="#191970" d="M1407.0282,-86.2518C1250.0116,-81.1133 807.5064,-64.9619 664,-42 647.6044,-39.3766 629.6941,-34.7647 615.0783,-30.5299"/>
<polygon fill="#191970" stroke="#191970" points="1407.2838,-89.7619 1417.3922,-86.5886 1407.5112,-82.7656 1407.2838,-89.7619"/>
</g>
<!-- Node25&#45;&gt;Node27 -->
<g id="edge11" class="edge">
<title>Node25&#45;&gt;Node27</title>
<path fill="none" stroke="#191970" d="M1407.0312,-85.376C1272.1996,-78.8319 932.2599,-60.9475 820,-42 803.9592,-39.2926 786.4402,-34.727 772.0762,-30.5431"/>
<polygon fill="#191970" stroke="#191970" points="1406.9867,-88.8778 1417.1439,-85.8642 1407.3243,-81.886 1406.9867,-88.8778"/>
</g>
<!-- Node25&#45;&gt;Node28 -->
<g id="edge12" class="edge">
<title>Node25&#45;&gt;Node28</title>
<path fill="none" stroke="#191970" d="M1407.4244,-86.5467C1314.1555,-83.3009 1120.5663,-73.1011 960,-42 945.6752,-39.2253 930.0945,-34.7058 917.277,-30.5689"/>
<polygon fill="#191970" stroke="#191970" points="1407.3722,-90.0468 1417.4836,-86.8831 1407.6062,-83.0507 1407.3722,-90.0468"/>
</g>
<!-- Node25&#45;&gt;Node29 -->
<g id="edge13" class="edge">
<title>Node25&#45;&gt;Node29</title>
<path fill="none" stroke="#191970" d="M1407.3296,-86.2925C1329.4255,-82.8457 1183.9637,-72.5423 1064,-42 1057.8671,-40.4386 1051.4963,-38.3163 1045.4036,-36.0185"/>
<polygon fill="#191970" stroke="#191970" points="1407.2675,-89.7929 1417.4058,-86.7165 1407.5619,-82.7991 1407.2675,-89.7929"/>
</g>
<!-- Node25&#45;&gt;Node30 -->
<g id="edge14" class="edge">
<title>Node25&#45;&gt;Node30</title>
<path fill="none" stroke="#191970" d="M1407.1889,-80.8334C1352.4485,-73.248 1266.8342,-59.8954 1194,-42 1187.0901,-40.3022 1179.8486,-38.2467 1172.8106,-36.0944"/>
<polygon fill="#191970" stroke="#191970" points="1406.9942,-84.3393 1417.3765,-82.2279 1407.9435,-77.404 1406.9942,-84.3393"/>
</g>
<!-- Node25&#45;&gt;Node31 -->
<g id="edge15" class="edge">
<title>Node25&#45;&gt;Node31</title>
<path fill="none" stroke="#191970" d="M1424.1772,-75.2494C1390.1571,-64.0761 1340.6696,-47.8229 1304.7379,-36.0218"/>
<polygon fill="#191970" stroke="#191970" points="1423.1789,-78.6054 1433.7718,-78.4005 1425.3632,-71.9549 1423.1789,-78.6054"/>
</g>
<!-- Node25&#45;&gt;Node32 -->
<g id="edge16" class="edge">
<title>Node25&#45;&gt;Node32</title>
<path fill="none" stroke="#191970" d="M1444.7641,-71.4892C1432.781,-60.6395 1417.2267,-46.5566 1405.5912,-36.0218"/>
<polygon fill="#191970" stroke="#191970" points="1442.6355,-74.2833 1452.3976,-78.4005 1447.3337,-69.0942 1442.6355,-74.2833"/>
</g>
<!-- Node25&#45;&gt;Node33 -->
<g id="edge17" class="edge">
<title>Node25&#45;&gt;Node33</title>
<path fill="none" stroke="#191970" d="M1477.5915,-70.5423C1486.5451,-59.83 1497.8932,-46.2528 1506.4445,-36.0218"/>
<polygon fill="#191970" stroke="#191970" points="1474.7511,-68.4831 1471.0234,-78.4005 1480.1221,-72.9723 1474.7511,-68.4831"/>
</g>
<!-- Node25&#45;&gt;Node34 -->
<g id="edge18" class="edge">
<title>Node25&#45;&gt;Node34</title>
<path fill="none" stroke="#191970" d="M1500.1722,-74.9605C1531.9954,-63.7974 1577.8236,-47.7216 1611.1768,-36.0218"/>
<polygon fill="#191970" stroke="#191970" points="1498.6434,-71.7877 1490.3656,-78.4005 1500.9605,-78.3931 1498.6434,-71.7877"/>
</g>
<!-- Node25&#45;&gt;Node35 -->
<g id="edge19" class="edge">
<title>Node25&#45;&gt;Node35</title>
<path fill="none" stroke="#191970" d="M1519.0383,-79.8277C1571.9279,-71.7043 1653.2922,-58.1459 1723,-42 1730.58,-40.2443 1738.5436,-38.1824 1746.3112,-36.0488"/>
<polygon fill="#191970" stroke="#191970" points="1518.2109,-76.4133 1508.8519,-81.3791 1519.2649,-83.3335 1518.2109,-76.4133"/>
</g>
<!-- Node25&#45;&gt;Node36 -->
<g id="edge20" class="edge">
<title>Node25&#45;&gt;Node36</title>
<path fill="none" stroke="#191970" d="M1518.9002,-85.1813C1597.5568,-80.4188 1745.0402,-68.5673 1868,-42 1870.8979,-41.3739 1873.8497,-40.6698 1876.8172,-39.9089"/>
<polygon fill="#191970" stroke="#191970" points="1518.5071,-81.6983 1508.7303,-85.7805 1518.9189,-88.6861 1518.5071,-81.6983"/>
</g>
<!-- Node25&#45;&gt;Node37 -->
<g id="edge21" class="edge">
<title>Node25&#45;&gt;Node37</title>
<path fill="none" stroke="#191970" d="M1518.9686,-84.8002C1636.9024,-77.7943 1907.5207,-60.2592 1998,-42 2000.9062,-41.4135 2003.8646,-40.7413 2006.8374,-40.0057"/>
<polygon fill="#191970" stroke="#191970" points="1518.4932,-81.3221 1508.7169,-85.4055 1518.9058,-88.3099 1518.4932,-81.3221"/>
</g>
<!-- Node25&#45;&gt;Node38 -->
<g id="edge22" class="edge">
<title>Node25&#45;&gt;Node38</title>
<path fill="none" stroke="#191970" d="M1518.8902,-85.5089C1656.9408,-79.1343 2011.3083,-61.3635 2128,-42 2144.2402,-39.3052 2161.9831,-34.7407 2176.5325,-30.5544"/>
<polygon fill="#191970" stroke="#191970" points="1518.378,-82.0286 1508.5491,-85.9837 1518.6992,-89.0212 1518.378,-82.0286"/>
</g>
<!-- Node25&#45;&gt;Node39 -->
<g id="edge23" class="edge">
<title>Node25&#45;&gt;Node39</title>
<path fill="none" stroke="#191970" d="M1518.7288,-85.5356C1691.4535,-77.8066 2210.7603,-53.8545 2286,-42 2302.5958,-39.3852 2320.7322,-34.7741 2335.5345,-30.5376"/>
<polygon fill="#191970" stroke="#191970" points="1518.4178,-82.0459 1508.5839,-85.9887 1518.7302,-89.0389 1518.4178,-82.0459"/>
</g>
<!-- Node25&#45;&gt;Node40 -->
<g id="edge25" class="edge">
<title>Node25&#45;&gt;Node40</title>
<path fill="none" stroke="#191970" d="M1518.5726,-86.3946C1713.0429,-80.6396 2356.123,-60.4077 2447,-42 2454.0286,-40.5763 2461.345,-38.4273 2468.3003,-36.0387"/>
<polygon fill="#191970" stroke="#191970" points="1518.463,-82.8962 1508.5705,-86.6895 1518.6693,-89.8931 1518.463,-82.8962"/>
</g>
<!-- Node25&#45;&gt;Node41 -->
<g id="edge26" class="edge">
<title>Node25&#45;&gt;Node41</title>
<path fill="none" stroke="#191970" d="M1518.98,-86.4891C1728.4019,-80.7228 2458.9628,-59.5424 2562,-42 2570.394,-40.5709 2579.197,-38.4193 2587.5996,-36.0299"/>
<polygon fill="#191970" stroke="#191970" points="1518.725,-82.9947 1508.8248,-86.7679 1518.9171,-89.9921 1518.725,-82.9947"/>
</g>
<!-- Node25&#45;&gt;Node42 -->
<g id="edge28" class="edge">
<title>Node25&#45;&gt;Node42</title>
<path fill="none" stroke="#191970" d="M1519.1444,-86.6107C1745.338,-80.9185 2583.3116,-58.8821 2701,-42 2711.005,-40.5648 2721.551,-38.4104 2731.6447,-36.0201"/>
<polygon fill="#191970" stroke="#191970" points="1518.75,-83.1194 1508.841,-86.8693 1518.9257,-90.1172 1518.75,-83.1194"/>
</g>
<!-- Node25&#45;&gt;Node43 -->
<g id="edge29" class="edge">
<title>Node25&#45;&gt;Node43</title>
<path fill="none" stroke="#191970" d="M1518.8495,-86.5997C1771.6711,-80.2061 2799.5853,-53.6001 2867,-42 2875.0581,-40.6134 2883.4921,-38.4818 2891.5338,-36.0987"/>
<polygon fill="#191970" stroke="#191970" points="1518.6959,-83.1024 1508.7875,-86.8539 1518.8727,-90.1002 1518.6959,-83.1024"/>
</g>
<!-- Node25&#45;&gt;Node44 -->
<g id="edge30" class="edge">
<title>Node25&#45;&gt;Node44</title>
<path fill="none" stroke="#191970" d="M1518.7809,-86.7639C1785.9301,-80.7885 2924.7534,-54.6682 2999,-42 3007.1786,-40.6045 3015.7432,-38.4357 3023.8914,-36.0118"/>
<polygon fill="#191970" stroke="#191970" points="1518.4644,-83.27 1508.5451,-86.9925 1518.6208,-90.2682 1518.4644,-83.27"/>
</g>
</g>
</svg>
