<?xml version="1.0" encoding="UTF-8" standalone="no"?>
<!DOCTYPE svg PUBLIC "-//W3C//DTD SVG 1.1//EN"
 "http://www.w3.org/Graphics/SVG/1.1/DTD/svg11.dtd">
<!-- Generated by graphviz version 2.40.1 (20161225.0304)
 -->
<!-- Title: prepare_A_and_B_local Pages: 1 -->
<svg width="250pt" height="142pt"
 viewBox="0.00 0.00 250.00 142.00" xmlns="http://www.w3.org/2000/svg" xmlns:xlink="http://www.w3.org/1999/xlink">
<g id="graph0" class="graph" transform="scale(1 1) rotate(0) translate(4 138)">
<title>prepare_A_and_B_local</title>
<polygon fill="#ffffff" stroke="transparent" points="-4,4 -4,-138 246,-138 246,4 -4,4"/>
<!-- Node31 -->
<g id="node1" class="node">
<title>Node31</title>
<polygon fill="#bfbfbf" stroke="#000000" points="0,-57.5 0,-76.5 119,-76.5 119,-57.5 0,-57.5"/>
<text text-anchor="middle" x="59.5" y="-64.5" font-family="Helvetica,sans-Serif" font-size="10.00" fill="#000000">prepare_A_and_B_local</text>
</g>
<!-- Node32 -->
<g id="node2" class="node">
<title>Node32</title>
<g id="a_node2"><a xlink:href="classlfield.html#a7eba0ea85f6f0df54a45cf97cd3ad53d" target="_top" xlink:title="lfield::getNyl">
<polygon fill="#ffffff" stroke="#000000" points="163,-114.5 163,-133.5 234,-133.5 234,-114.5 163,-114.5"/>
<text text-anchor="middle" x="198.5" y="-121.5" font-family="Helvetica,sans-Serif" font-size="10.00" fill="#000000">lfield::getNyl</text>
</a>
</g>
</g>
<!-- Node31&#45;&gt;Node32 -->
<g id="edge1" class="edge">
<title>Node31&#45;&gt;Node32</title>
<path fill="none" stroke="#191970" d="M82.7655,-76.5405C105.5174,-85.8705 140.3678,-100.1616 165.8819,-110.6242"/>
<polygon fill="#191970" stroke="#191970" points="164.5784,-113.8725 175.1586,-114.4284 167.2343,-107.3959 164.5784,-113.8725"/>
</g>
<!-- Node33 -->
<g id="node3" class="node">
<title>Node33</title>
<g id="a_node3"><a xlink:href="classpositions.html#a6dbe3d67f866039efa6736ed9a7fb210" target="_top" xlink:title="positions::xbar2">
<polygon fill="#ffffff" stroke="#000000" points="155.5,-76.5 155.5,-95.5 241.5,-95.5 241.5,-76.5 155.5,-76.5"/>
<text text-anchor="middle" x="198.5" y="-83.5" font-family="Helvetica,sans-Serif" font-size="10.00" fill="#000000">positions::xbar2</text>
</a>
</g>
</g>
<!-- Node31&#45;&gt;Node33 -->
<g id="edge2" class="edge">
<title>Node31&#45;&gt;Node33</title>
<path fill="none" stroke="#191970" d="M119.2552,-75.168C127.8343,-76.3407 136.6156,-77.541 145.062,-78.6955"/>
<polygon fill="#191970" stroke="#191970" points="144.7807,-82.1895 155.1626,-80.0762 145.7288,-75.254 144.7807,-82.1895"/>
</g>
<!-- Node34 -->
<g id="node4" class="node">
<title>Node34</title>
<g id="a_node4"><a xlink:href="classpositions.html#a77d78afe9d418da5a6f5ba15e123e402" target="_top" xlink:title="positions::xhatX">
<polygon fill="#ffffff" stroke="#000000" points="155,-38.5 155,-57.5 242,-57.5 242,-38.5 155,-38.5"/>
<text text-anchor="middle" x="198.5" y="-45.5" font-family="Helvetica,sans-Serif" font-size="10.00" fill="#000000">positions::xhatX</text>
</a>
</g>
</g>
<!-- Node31&#45;&gt;Node34 -->
<g id="edge3" class="edge">
<title>Node31&#45;&gt;Node34</title>
<path fill="none" stroke="#191970" d="M119.2552,-58.832C127.7297,-57.6736 136.4015,-56.4883 144.7529,-55.3467"/>
<polygon fill="#191970" stroke="#191970" points="145.3122,-58.8029 154.7461,-53.9808 144.3642,-51.8674 145.3122,-58.8029"/>
</g>
<!-- Node35 -->
<g id="node5" class="node">
<title>Node35</title>
<g id="a_node5"><a xlink:href="classpositions.html#a7c323a6022ee85bf1312d56d9726c308" target="_top" xlink:title="positions::xhatY">
<polygon fill="#ffffff" stroke="#000000" points="155,-.5 155,-19.5 242,-19.5 242,-.5 155,-.5"/>
<text text-anchor="middle" x="198.5" y="-7.5" font-family="Helvetica,sans-Serif" font-size="10.00" fill="#000000">positions::xhatY</text>
</a>
</g>
</g>
<!-- Node31&#45;&gt;Node35 -->
<g id="edge4" class="edge">
<title>Node31&#45;&gt;Node35</title>
<path fill="none" stroke="#191970" d="M82.7655,-57.4595C105.5174,-48.1295 140.3678,-33.8384 165.8819,-23.3758"/>
<polygon fill="#191970" stroke="#191970" points="167.2343,-26.6041 175.1586,-19.5716 164.5784,-20.1275 167.2343,-26.6041"/>
</g>
</g>
</svg>
