<?xml version="1.0" encoding="UTF-8" standalone="no"?>
<!DOCTYPE svg PUBLIC "-//W3C//DTD SVG 1.1//EN"
 "http://www.w3.org/Graphics/SVG/1.1/DTD/svg11.dtd">
<!-- Generated by graphviz version 2.40.1 (20161225.0304)
 -->
<!-- Title: field.h Pages: 1 -->
<svg width="1053pt" height="252pt"
 viewBox="0.00 0.00 1052.93 252.00" xmlns="http://www.w3.org/2000/svg" xmlns:xlink="http://www.w3.org/1999/xlink">
<g id="graph0" class="graph" transform="scale(1 1) rotate(0) translate(4 248)">
<title>field.h</title>
<polygon fill="#ffffff" stroke="transparent" points="-4,4 -4,-248 1048.9345,-248 1048.9345,4 -4,4"/>
<!-- Node0 -->
<g id="node1" class="node">
<title>Node0</title>
<polygon fill="#bfbfbf" stroke="#000000" points="503.4345,-224.5 503.4345,-243.5 546.4345,-243.5 546.4345,-224.5 503.4345,-224.5"/>
<text text-anchor="middle" x="524.9345" y="-231.5" font-family="Helvetica,sans-Serif" font-size="10.00" fill="#000000">field.h</text>
</g>
<!-- Node1 -->
<g id="node2" class="node">
<title>Node1</title>
<polygon fill="#ffffff" stroke="#bfbfbf" points="533.9345,-.5 533.9345,-19.5 587.9345,-19.5 587.9345,-.5 533.9345,-.5"/>
<text text-anchor="middle" x="560.9345" y="-7.5" font-family="Helvetica,sans-Serif" font-size="10.00" fill="#000000">iostream</text>
</g>
<!-- Node0&#45;&gt;Node1 -->
<g id="edge1" class="edge">
<title>Node0&#45;&gt;Node1</title>
<path fill="none" stroke="#191970" d="M503.2211,-233.2388C399.0244,-229.1114 -42.8093,-205.9934 3.9345,-112 22.3002,-75.0698 39.5014,-70.9679 77.9345,-56 159.2514,-24.3309 425.3445,-13.7921 523.8372,-10.925"/>
<polygon fill="#191970" stroke="#191970" points="524.0214,-14.4213 533.919,-10.6415 523.8245,-7.424 524.0214,-14.4213"/>
</g>
<!-- Node2 -->
<g id="node3" class="node">
<title>Node2</title>
<polygon fill="#ffffff" stroke="#bfbfbf" points="758.9345,-.5 758.9345,-19.5 806.9345,-19.5 806.9345,-.5 758.9345,-.5"/>
<text text-anchor="middle" x="782.9345" y="-7.5" font-family="Helvetica,sans-Serif" font-size="10.00" fill="#000000">stdlib.h</text>
</g>
<!-- Node0&#45;&gt;Node2 -->
<g id="edge2" class="edge">
<title>Node0&#45;&gt;Node2</title>
<path fill="none" stroke="#191970" d="M546.6402,-233.2712C592.8536,-231.0731 703.708,-222.34 788.9345,-188 830.2099,-171.3691 851.0456,-171.2925 871.9345,-132 881.9062,-113.243 868.2544,-68.855 858.9345,-56 848.2889,-41.3164 831.3872,-30.4166 816.2231,-22.9225"/>
<polygon fill="#191970" stroke="#191970" points="817.6229,-19.7138 807.0773,-18.6932 814.6848,-26.0673 817.6229,-19.7138"/>
</g>
<!-- Node3 -->
<g id="node4" class="node">
<title>Node3</title>
<polygon fill="#ffffff" stroke="#bfbfbf" points="137.4345,-112.5 137.4345,-131.5 190.4345,-131.5 190.4345,-112.5 137.4345,-112.5"/>
<text text-anchor="middle" x="163.9345" y="-119.5" font-family="Helvetica,sans-Serif" font-size="10.00" fill="#000000">complex</text>
</g>
<!-- Node0&#45;&gt;Node3 -->
<g id="edge3" class="edge">
<title>Node0&#45;&gt;Node3</title>
<path fill="none" stroke="#191970" d="M503.3882,-232.667C430.6826,-227.9688 197.6084,-211.2038 173.9345,-188 161.9309,-176.2349 160.3185,-156.6173 161.1761,-141.8206"/>
<polygon fill="#191970" stroke="#191970" points="164.6802,-141.9513 162.1822,-131.6552 157.7142,-141.2618 164.6802,-141.9513"/>
</g>
<!-- Node4 -->
<g id="node5" class="node">
<title>Node4</title>
<polygon fill="#ffffff" stroke="#bfbfbf" points="183.4345,-168.5 183.4345,-187.5 242.4345,-187.5 242.4345,-168.5 183.4345,-168.5"/>
<text text-anchor="middle" x="212.9345" y="-175.5" font-family="Helvetica,sans-Serif" font-size="10.00" fill="#000000">ccomplex</text>
</g>
<!-- Node0&#45;&gt;Node4 -->
<g id="edge4" class="edge">
<title>Node0&#45;&gt;Node4</title>
<path fill="none" stroke="#191970" d="M503.2296,-230.9765C458.3556,-224.5913 351.9505,-208.7574 252.5849,-187.9932"/>
<polygon fill="#191970" stroke="#191970" points="253.1917,-184.5443 242.6843,-185.9027 251.7454,-191.3932 253.1917,-184.5443"/>
</g>
<!-- Node5 -->
<g id="node6" class="node">
<title>Node5</title>
<g id="a_node6"><a xlink:href="$config_8h.html" xlink:title="config.h">
<polygon fill="#ffffff" stroke="#000000" points="665.4345,-56.5 665.4345,-75.5 716.4345,-75.5 716.4345,-56.5 665.4345,-56.5"/>
<text text-anchor="middle" x="690.9345" y="-63.5" font-family="Helvetica,sans-Serif" font-size="10.00" fill="#000000">config.h</text>
</a>
</g>
</g>
<!-- Node0&#45;&gt;Node5 -->
<g id="edge5" class="edge">
<title>Node0&#45;&gt;Node5</title>
<path fill="none" stroke="#191970" d="M546.6042,-229.6206C587.3926,-220.0772 674.7202,-193.1616 710.9345,-132 719.7567,-117.1002 712.2277,-97.971 704.0067,-84.1464"/>
<polygon fill="#191970" stroke="#191970" points="706.7899,-82.0066 698.3972,-75.5403 700.9256,-85.829 706.7899,-82.0066"/>
</g>
<!-- Node7 -->
<g id="node8" class="node">
<title>Node7</title>
<polygon fill="#ffffff" stroke="#bfbfbf" points="246.9345,-112.5 246.9345,-131.5 290.9345,-131.5 290.9345,-112.5 246.9345,-112.5"/>
<text text-anchor="middle" x="268.9345" y="-119.5" font-family="Helvetica,sans-Serif" font-size="10.00" fill="#000000">omp.h</text>
</g>
<!-- Node0&#45;&gt;Node7 -->
<g id="edge9" class="edge">
<title>Node0&#45;&gt;Node7</title>
<path fill="none" stroke="#191970" d="M503.2357,-228.7817C474.3764,-221.4701 422.1009,-206.9223 379.9345,-188 362.6597,-180.2479 319.8595,-153.994 292.7369,-137.0276"/>
<polygon fill="#191970" stroke="#191970" points="294.53,-134.0208 284.1993,-131.6699 290.8092,-139.95 294.53,-134.0208"/>
</g>
<!-- Node8 -->
<g id="node9" class="node">
<title>Node8</title>
<polygon fill="#ffffff" stroke="#bfbfbf" points="491.4345,-56.5 491.4345,-75.5 532.4345,-75.5 532.4345,-56.5 491.4345,-56.5"/>
<text text-anchor="middle" x="511.9345" y="-63.5" font-family="Helvetica,sans-Serif" font-size="10.00" fill="#000000">mpi.h</text>
</g>
<!-- Node0&#45;&gt;Node8 -->
<g id="edge10" class="edge">
<title>Node0&#45;&gt;Node8</title>
<path fill="none" stroke="#191970" d="M503.4236,-233.5193C434.2502,-231.6341 218.6221,-223.0163 159.9345,-188 127.1553,-168.4421 94.5654,-140.5201 119.9345,-112 143.8703,-85.0912 392.8566,-71.3561 481.1208,-67.3049"/>
<polygon fill="#191970" stroke="#191970" points="481.4652,-70.7931 491.2983,-66.8483 481.1514,-63.8001 481.4652,-70.7931"/>
</g>
<!-- Node9 -->
<g id="node10" class="node">
<title>Node9</title>
<polygon fill="#ffffff" stroke="#bfbfbf" points="475.4345,-168.5 475.4345,-187.5 522.4345,-187.5 522.4345,-168.5 475.4345,-168.5"/>
<text text-anchor="middle" x="498.9345" y="-175.5" font-family="Helvetica,sans-Serif" font-size="10.00" fill="#000000">math.h</text>
</g>
<!-- Node0&#45;&gt;Node9 -->
<g id="edge11" class="edge">
<title>Node0&#45;&gt;Node9</title>
<path fill="none" stroke="#191970" d="M520.4056,-224.2455C516.9011,-216.6973 511.9418,-206.0158 507.6722,-196.8197"/>
<polygon fill="#191970" stroke="#191970" points="510.7971,-195.2389 503.4114,-187.6427 504.4481,-198.1867 510.7971,-195.2389"/>
</g>
<!-- Node10 -->
<g id="node11" class="node">
<title>Node10</title>
<g id="a_node11"><a xlink:href="$mpi__class_8h.html" xlink:title="mpi_class.h">
<polygon fill="#ffffff" stroke="#000000" points="533.4345,-112.5 533.4345,-131.5 602.4345,-131.5 602.4345,-112.5 533.4345,-112.5"/>
<text text-anchor="middle" x="567.9345" y="-119.5" font-family="Helvetica,sans-Serif" font-size="10.00" fill="#000000">mpi_class.h</text>
</a>
</g>
</g>
<!-- Node0&#45;&gt;Node10 -->
<g id="edge12" class="edge">
<title>Node0&#45;&gt;Node10</title>
<path fill="none" stroke="#191970" d="M536.796,-224.4521C546.3182,-215.9985 559.0376,-202.7389 564.9345,-188 570.793,-173.357 571.2236,-155.4037 570.367,-141.9204"/>
<polygon fill="#191970" stroke="#191970" points="573.8389,-141.453 569.4356,-131.8165 566.8684,-142.0956 573.8389,-141.453"/>
</g>
<!-- Node11 -->
<g id="node12" class="node">
<title>Node11</title>
<g id="a_node12"><a xlink:href="$MV__class_8h.html" xlink:title="MV_class.h">
<polygon fill="#ffffff" stroke="#000000" points="388.9345,-168.5 388.9345,-187.5 456.9345,-187.5 456.9345,-168.5 388.9345,-168.5"/>
<text text-anchor="middle" x="422.9345" y="-175.5" font-family="Helvetica,sans-Serif" font-size="10.00" fill="#000000">MV_class.h</text>
</a>
</g>
</g>
<!-- Node0&#45;&gt;Node11 -->
<g id="edge17" class="edge">
<title>Node0&#45;&gt;Node11</title>
<path fill="none" stroke="#191970" d="M507.1674,-224.2455C491.225,-215.4928 467.6086,-202.527 449.4356,-192.5496"/>
<polygon fill="#191970" stroke="#191970" points="450.9481,-189.3873 440.4979,-187.6427 447.5793,-195.5233 450.9481,-189.3873"/>
</g>
<!-- Node13 -->
<g id="node14" class="node">
<title>Node13</title>
<polygon fill="#ffffff" stroke="#bfbfbf" points="389.4345,-112.5 389.4345,-131.5 438.4345,-131.5 438.4345,-112.5 389.4345,-112.5"/>
<text text-anchor="middle" x="413.9345" y="-119.5" font-family="Helvetica,sans-Serif" font-size="10.00" fill="#000000">random</text>
</g>
<!-- Node0&#45;&gt;Node13 -->
<g id="edge47" class="edge">
<title>Node0&#45;&gt;Node13</title>
<path fill="none" stroke="#191970" d="M529.7112,-224.0684C535.6027,-210.2269 543.5077,-184.9331 531.9345,-168 522.1386,-153.6674 479.5301,-139.5141 448.3163,-130.7723"/>
<polygon fill="#191970" stroke="#191970" points="449.2071,-127.3875 438.6383,-128.1308 447.3639,-134.1405 449.2071,-127.3875"/>
</g>
<!-- Node14 -->
<g id="node15" class="node">
<title>Node14</title>
<g id="a_node15"><a xlink:href="$rand__class_8h.html" xlink:title="rand_class.h">
<polygon fill="#ffffff" stroke="#000000" points="260.9345,-168.5 260.9345,-187.5 332.9345,-187.5 332.9345,-168.5 260.9345,-168.5"/>
<text text-anchor="middle" x="296.9345" y="-175.5" font-family="Helvetica,sans-Serif" font-size="10.00" fill="#000000">rand_class.h</text>
</a>
</g>
</g>
<!-- Node0&#45;&gt;Node14 -->
<g id="edge27" class="edge">
<title>Node0&#45;&gt;Node14</title>
<path fill="none" stroke="#191970" d="M503.0729,-228.6305C466.4449,-219.6342 391.914,-201.3283 343.2252,-189.3697"/>
<polygon fill="#191970" stroke="#191970" points="343.797,-185.9061 333.2508,-186.9198 342.1273,-192.7041 343.797,-185.9061"/>
</g>
<!-- Node15 -->
<g id="node16" class="node">
<title>Node15</title>
<g id="a_node16"><a xlink:href="$momenta_8h.html" xlink:title="momenta.h">
<polygon fill="#ffffff" stroke="#000000" points="779.4345,-112.5 779.4345,-131.5 844.4345,-131.5 844.4345,-112.5 779.4345,-112.5"/>
<text text-anchor="middle" x="811.9345" y="-119.5" font-family="Helvetica,sans-Serif" font-size="10.00" fill="#000000">momenta.h</text>
</a>
</g>
</g>
<!-- Node0&#45;&gt;Node15 -->
<g id="edge37" class="edge">
<title>Node0&#45;&gt;Node15</title>
<path fill="none" stroke="#191970" d="M546.4921,-231.9318C598.3785,-226.6319 728.6074,-211.3191 764.9345,-188 782.6078,-176.6551 795.6525,-156.0953 803.4565,-140.9273"/>
<polygon fill="#191970" stroke="#191970" points="806.6242,-142.416 807.8239,-131.8893 800.3215,-139.3703 806.6242,-142.416"/>
</g>
<!-- Node16 -->
<g id="node17" class="node">
<title>Node16</title>
<g id="a_node17"><a xlink:href="$positions_8h.html" xlink:title="positions.h">
<polygon fill="#ffffff" stroke="#000000" points="620.9345,-112.5 620.9345,-131.5 684.9345,-131.5 684.9345,-112.5 620.9345,-112.5"/>
<text text-anchor="middle" x="652.9345" y="-119.5" font-family="Helvetica,sans-Serif" font-size="10.00" fill="#000000">positions.h</text>
</a>
</g>
</g>
<!-- Node0&#45;&gt;Node16 -->
<g id="edge42" class="edge">
<title>Node0&#45;&gt;Node16</title>
<path fill="none" stroke="#191970" d="M537.1081,-224.3158C548.5591,-215.1325 566.1114,-200.8653 580.9345,-188 599.7758,-171.6472 620.7413,-152.2915 635.1665,-138.7856"/>
<polygon fill="#191970" stroke="#191970" points="637.9477,-140.975 642.8385,-131.5765 633.1542,-135.8737 637.9477,-140.975"/>
</g>
<!-- Node17 -->
<g id="node18" class="node">
<title>Node17</title>
<polygon fill="#ffffff" stroke="#bfbfbf" points="938.9345,-168.5 938.9345,-187.5 982.9345,-187.5 982.9345,-168.5 938.9345,-168.5"/>
<text text-anchor="middle" x="960.9345" y="-175.5" font-family="Helvetica,sans-Serif" font-size="10.00" fill="#000000">time.h</text>
</g>
<!-- Node0&#45;&gt;Node17 -->
<g id="edge48" class="edge">
<title>Node0&#45;&gt;Node17</title>
<path fill="none" stroke="#191970" d="M546.7976,-232.692C607.3577,-228.8102 782.2298,-215.8479 924.9345,-188 926.1879,-187.7554 927.4614,-187.4893 928.7446,-187.2064"/>
<polygon fill="#191970" stroke="#191970" points="929.7178,-190.5715 938.5952,-184.7886 928.0492,-183.7733 929.7178,-190.5715"/>
</g>
<!-- Node18 -->
<g id="node19" class="node">
<title>Node18</title>
<polygon fill="#ffffff" stroke="#bfbfbf" points="1000.9345,-168.5 1000.9345,-187.5 1044.9345,-187.5 1044.9345,-168.5 1000.9345,-168.5"/>
<text text-anchor="middle" x="1022.9345" y="-175.5" font-family="Helvetica,sans-Serif" font-size="10.00" fill="#000000">thread</text>
</g>
<!-- Node0&#45;&gt;Node18 -->
<g id="edge49" class="edge">
<title>Node0&#45;&gt;Node18</title>
<path fill="none" stroke="#191970" d="M546.5936,-233.508C612.302,-231.6735 815.1233,-223.4897 990.8028,-187.8403"/>
<polygon fill="#191970" stroke="#191970" points="991.6511,-191.2391 1000.7365,-185.7888 990.2353,-184.3837 991.6511,-191.2391"/>
</g>
<!-- Node5&#45;&gt;Node1 -->
<g id="edge6" class="edge">
<title>Node5&#45;&gt;Node1</title>
<path fill="none" stroke="#191970" d="M668.5867,-56.3733C647.5311,-47.3032 615.7849,-33.6279 592.217,-23.4755"/>
<polygon fill="#191970" stroke="#191970" points="593.5595,-20.243 582.9906,-19.5011 590.7901,-26.6719 593.5595,-20.243"/>
</g>
<!-- Node5&#45;&gt;Node2 -->
<g id="edge7" class="edge">
<title>Node5&#45;&gt;Node2</title>
<path fill="none" stroke="#191970" d="M706.9596,-56.2455C721.0753,-47.6534 741.8608,-35.0014 758.1244,-25.1018"/>
<polygon fill="#191970" stroke="#191970" points="760.3708,-27.8319 767.0929,-19.6427 756.7311,-21.8525 760.3708,-27.8319"/>
</g>
<!-- Node6 -->
<g id="node7" class="node">
<title>Node6</title>
<polygon fill="#ffffff" stroke="#bfbfbf" points="666.4345,-.5 666.4345,-19.5 715.4345,-19.5 715.4345,-.5 666.4345,-.5"/>
<text text-anchor="middle" x="690.9345" y="-7.5" font-family="Helvetica,sans-Serif" font-size="10.00" fill="#000000">string.h</text>
</g>
<!-- Node5&#45;&gt;Node6 -->
<g id="edge8" class="edge">
<title>Node5&#45;&gt;Node6</title>
<path fill="none" stroke="#191970" d="M690.9345,-56.2455C690.9345,-48.9382 690.9345,-38.6944 690.9345,-29.7046"/>
<polygon fill="#191970" stroke="#191970" points="694.4346,-29.6426 690.9345,-19.6427 687.4346,-29.6427 694.4346,-29.6426"/>
</g>
<!-- Node10&#45;&gt;Node1 -->
<g id="edge14" class="edge">
<title>Node10&#45;&gt;Node1</title>
<path fill="none" stroke="#191970" d="M567.3376,-112.4509C566.196,-94.184 563.6817,-53.9553 562.1656,-29.6976"/>
<polygon fill="#191970" stroke="#191970" points="565.6468,-29.2871 561.5298,-19.5249 558.6605,-29.7238 565.6468,-29.2871"/>
</g>
<!-- Node10&#45;&gt;Node2 -->
<g id="edge13" class="edge">
<title>Node10&#45;&gt;Node2</title>
<path fill="none" stroke="#191970" d="M578.7488,-112.3445C594.8339,-98.3786 626.4497,-72.4197 656.9345,-56 686.618,-40.0118 723.0273,-27.3949 749.0606,-19.4498"/>
<polygon fill="#191970" stroke="#191970" points="750.2554,-22.7459 758.8394,-16.5358 748.2563,-16.0374 750.2554,-22.7459"/>
</g>
<!-- Node10&#45;&gt;Node5 -->
<g id="edge15" class="edge">
<title>Node10&#45;&gt;Node5</title>
<path fill="none" stroke="#191970" d="M589.0789,-112.3733C608.8236,-103.3838 638.5043,-89.8706 660.7399,-79.7471"/>
<polygon fill="#191970" stroke="#191970" points="662.4151,-82.8302 670.0659,-75.5011 659.5145,-76.4594 662.4151,-82.8302"/>
</g>
<!-- Node10&#45;&gt;Node8 -->
<g id="edge16" class="edge">
<title>Node10&#45;&gt;Node8</title>
<path fill="none" stroke="#191970" d="M558.18,-112.2455C550.0697,-104.1352 538.342,-92.4075 528.7264,-82.7919"/>
<polygon fill="#191970" stroke="#191970" points="531.1231,-80.2389 521.5771,-75.6427 526.1734,-85.1887 531.1231,-80.2389"/>
</g>
<!-- Node11&#45;&gt;Node1 -->
<g id="edge18" class="edge">
<title>Node11&#45;&gt;Node1</title>
<path fill="none" stroke="#191970" d="M428.2258,-168.2011C433.1857,-158.9369 440.7436,-144.6148 446.9345,-132 463.3181,-98.616 456.927,-83.5234 481.9345,-56 494.3082,-42.3814 511.6772,-31.6634 526.9792,-24.0119"/>
<polygon fill="#191970" stroke="#191970" points="528.6439,-27.096 536.1765,-19.6455 525.6418,-20.7724 528.6439,-27.096"/>
</g>
<!-- Node11&#45;&gt;Node2 -->
<g id="edge19" class="edge">
<title>Node11&#45;&gt;Node2</title>
<path fill="none" stroke="#191970" d="M457.1187,-169.6082C460.0904,-169.0131 463.0594,-168.4655 465.9345,-168 508.6742,-161.0804 824.7678,-163.9981 853.9345,-132 884.1144,-98.8903 834.9839,-50.8541 804.4255,-26.0942"/>
<polygon fill="#191970" stroke="#191970" points="806.4023,-23.1961 796.3803,-19.7597 802.0719,-28.6959 806.4023,-23.1961"/>
</g>
<!-- Node11&#45;&gt;Node3 -->
<g id="edge20" class="edge">
<title>Node11&#45;&gt;Node3</title>
<path fill="none" stroke="#191970" d="M388.8084,-170.6214C340.0768,-160.0848 250.9128,-140.8061 200.7444,-129.9589"/>
<polygon fill="#191970" stroke="#191970" points="201.1733,-126.4708 190.6595,-127.7784 199.6939,-133.3127 201.1733,-126.4708"/>
</g>
<!-- Node11&#45;&gt;Node5 -->
<g id="edge22" class="edge">
<title>Node11&#45;&gt;Node5</title>
<path fill="none" stroke="#191970" d="M457.1544,-169.8081C460.1183,-169.1696 463.0758,-168.5573 465.9345,-168 516.2809,-158.1842 660.6121,-170.9966 693.9345,-132 704.7273,-119.3693 702.3467,-99.9032 698.2445,-85.3799"/>
<polygon fill="#191970" stroke="#191970" points="701.5599,-84.2574 695.117,-75.8467 694.9087,-86.4395 701.5599,-84.2574"/>
</g>
<!-- Node11&#45;&gt;Node7 -->
<g id="edge23" class="edge">
<title>Node11&#45;&gt;Node7</title>
<path fill="none" stroke="#191970" d="M396.4609,-168.3733C369.8439,-158.6944 328.8054,-143.7712 300.5078,-133.4812"/>
<polygon fill="#191970" stroke="#191970" points="301.6685,-130.1791 291.0744,-130.0509 299.2763,-136.7577 301.6685,-130.1791"/>
</g>
<!-- Node11&#45;&gt;Node8 -->
<g id="edge24" class="edge">
<title>Node11&#45;&gt;Node8</title>
<path fill="none" stroke="#191970" d="M438.6319,-168.4778C451.3497,-160.1332 469.0476,-147.0133 480.9345,-132 492.0809,-117.9219 500.3924,-99.1824 505.5885,-85.2691"/>
<polygon fill="#191970" stroke="#191970" points="508.9283,-86.3221 508.9502,-75.7273 502.3261,-83.9961 508.9283,-86.3221"/>
</g>
<!-- Node11&#45;&gt;Node10 -->
<g id="edge25" class="edge">
<title>Node11&#45;&gt;Node10</title>
<path fill="none" stroke="#191970" d="M447.8609,-168.3733C471.5546,-159.2226 507.3856,-145.3844 533.7413,-135.2057"/>
<polygon fill="#191970" stroke="#191970" points="535.2658,-138.3689 543.3333,-131.5011 532.7439,-131.8389 535.2658,-138.3689"/>
</g>
<!-- Node12 -->
<g id="node13" class="node">
<title>Node12</title>
<polygon fill="#ffffff" stroke="#bfbfbf" points="308.9345,-112.5 308.9345,-131.5 370.9345,-131.5 370.9345,-112.5 308.9345,-112.5"/>
<text text-anchor="middle" x="339.9345" y="-119.5" font-family="Helvetica,sans-Serif" font-size="10.00" fill="#000000">complex.h</text>
</g>
<!-- Node11&#45;&gt;Node12 -->
<g id="edge21" class="edge">
<title>Node11&#45;&gt;Node12</title>
<path fill="none" stroke="#191970" d="M408.477,-168.2455C395.8612,-159.7337 377.34,-147.2375 362.7299,-137.3801"/>
<polygon fill="#191970" stroke="#191970" points="364.4735,-134.3343 354.2263,-131.6427 360.5584,-140.1371 364.4735,-134.3343"/>
</g>
<!-- Node11&#45;&gt;Node13 -->
<g id="edge26" class="edge">
<title>Node11&#45;&gt;Node13</title>
<path fill="none" stroke="#191970" d="M421.3668,-168.2455C420.1924,-160.9382 418.5461,-150.6944 417.1013,-141.7046"/>
<polygon fill="#191970" stroke="#191970" points="420.5267,-140.9606 415.4842,-131.6427 413.6154,-142.0714 420.5267,-140.9606"/>
</g>
<!-- Node14&#45;&gt;Node1 -->
<g id="edge28" class="edge">
<title>Node14&#45;&gt;Node1</title>
<path fill="none" stroke="#191970" d="M260.8167,-169.9336C257.4809,-169.2535 254.1483,-168.5981 250.9345,-168 146.6526,-148.5923 -48.7799,-193.6463 18.9345,-112 83.6258,-33.9987 411.8869,-15.2528 523.6286,-11.0996"/>
<polygon fill="#191970" stroke="#191970" points="523.8802,-14.5929 533.7502,-10.7417 523.6328,-7.5973 523.8802,-14.5929"/>
</g>
<!-- Node14&#45;&gt;Node2 -->
<g id="edge29" class="edge">
<title>Node14&#45;&gt;Node2</title>
<path fill="none" stroke="#191970" d="M260.5528,-169.7388C210.0354,-158.097 124.3046,-137.6511 119.9345,-132 114.4967,-124.9684 114.1494,-118.7488 119.9345,-112 208.4389,-8.7515 590.6578,-41.5189 724.9345,-20 732.6512,-18.7633 740.9341,-17.373 748.756,-16.0312"/>
<polygon fill="#191970" stroke="#191970" points="749.4304,-19.4666 758.6869,-14.3123 748.2364,-12.5692 749.4304,-19.4666"/>
</g>
<!-- Node14&#45;&gt;Node3 -->
<g id="edge30" class="edge">
<title>Node14&#45;&gt;Node3</title>
<path fill="none" stroke="#191970" d="M274.0709,-168.3733C252.5295,-159.3032 220.0507,-145.6279 195.9389,-135.4755"/>
<polygon fill="#191970" stroke="#191970" points="197.0742,-132.156 186.4996,-131.5011 194.3578,-138.6075 197.0742,-132.156"/>
</g>
<!-- Node14&#45;&gt;Node5 -->
<g id="edge32" class="edge">
<title>Node14&#45;&gt;Node5</title>
<path fill="none" stroke="#191970" d="M277.5365,-168.3525C254.0942,-155.4703 219.9022,-131.956 237.9345,-112 251.913,-96.5301 550.5978,-75.3113 655.1644,-68.33"/>
<polygon fill="#191970" stroke="#191970" points="655.4854,-71.8165 665.2317,-67.662 655.0218,-64.8319 655.4854,-71.8165"/>
</g>
<!-- Node14&#45;&gt;Node7 -->
<g id="edge33" class="edge">
<title>Node14&#45;&gt;Node7</title>
<path fill="none" stroke="#191970" d="M292.0572,-168.2455C288.2831,-160.6973 282.9423,-150.0158 278.3443,-140.8197"/>
<polygon fill="#191970" stroke="#191970" points="281.3585,-139.0217 273.7558,-131.6427 275.0975,-142.1522 281.3585,-139.0217"/>
</g>
<!-- Node14&#45;&gt;Node8 -->
<g id="edge34" class="edge">
<title>Node14&#45;&gt;Node8</title>
<path fill="none" stroke="#191970" d="M260.572,-169.2883C212.1425,-157.515 132.0426,-137.3757 127.9345,-132 122.5372,-124.9373 121.9803,-118.6 127.9345,-112 180.1605,-54.1096 400.3785,-90.7664 476.9345,-76 478.4082,-75.7157 479.9097,-75.3982 481.4212,-75.0559"/>
<polygon fill="#191970" stroke="#191970" points="482.5228,-78.3872 491.3515,-72.5301 480.7973,-71.6032 482.5228,-78.3872"/>
</g>
<!-- Node14&#45;&gt;Node10 -->
<g id="edge35" class="edge">
<title>Node14&#45;&gt;Node10</title>
<path fill="none" stroke="#191970" d="M333.2015,-170.5057C382.3866,-160.342 470.1867,-142.1988 523.342,-131.2147"/>
<polygon fill="#191970" stroke="#191970" points="524.0834,-134.6355 533.1682,-129.1842 522.6668,-127.7803 524.0834,-134.6355"/>
</g>
<!-- Node14&#45;&gt;Node12 -->
<g id="edge31" class="edge">
<title>Node14&#45;&gt;Node12</title>
<path fill="none" stroke="#191970" d="M304.4245,-168.2455C310.4671,-160.3761 319.1248,-149.101 326.3786,-139.6542"/>
<polygon fill="#191970" stroke="#191970" points="329.216,-141.7058 332.5303,-131.6427 323.6639,-137.4426 329.216,-141.7058"/>
</g>
<!-- Node14&#45;&gt;Node13 -->
<g id="edge36" class="edge">
<title>Node14&#45;&gt;Node13</title>
<path fill="none" stroke="#191970" d="M317.0475,-168.3733C335.7448,-159.4241 363.8089,-145.9917 384.9279,-135.8835"/>
<polygon fill="#191970" stroke="#191970" points="386.5749,-138.9755 394.0839,-131.5011 383.5528,-132.6614 386.5749,-138.9755"/>
</g>
<!-- Node15&#45;&gt;Node1 -->
<g id="edge39" class="edge">
<title>Node15&#45;&gt;Node1</title>
<path fill="none" stroke="#191970" d="M802.2126,-112.4806C787.1175,-98.2072 756.5781,-71.3058 725.9345,-56 684.5856,-35.3473 632.6265,-22.8166 598.1812,-16.1583"/>
<polygon fill="#191970" stroke="#191970" points="598.5565,-12.6681 588.0847,-14.278 597.2748,-19.5498 598.5565,-12.6681"/>
</g>
<!-- Node15&#45;&gt;Node2 -->
<g id="edge38" class="edge">
<title>Node15&#45;&gt;Node2</title>
<path fill="none" stroke="#191970" d="M809.918,-112.1059C807.2245,-99.1501 802.18,-75.7616 796.9345,-56 794.6114,-47.2483 791.7436,-37.6547 789.2096,-29.5038"/>
<polygon fill="#191970" stroke="#191970" points="792.4971,-28.2911 786.1448,-19.8118 785.8228,-30.4017 792.4971,-28.2911"/>
</g>
<!-- Node15&#45;&gt;Node5 -->
<g id="edge40" class="edge">
<title>Node15&#45;&gt;Node5</title>
<path fill="none" stroke="#191970" d="M791.1338,-112.3733C771.7102,-103.3838 742.5121,-89.8706 720.638,-79.7471"/>
<polygon fill="#191970" stroke="#191970" points="722.0089,-76.5249 711.4637,-75.5011 719.0688,-82.8776 722.0089,-76.5249"/>
</g>
<!-- Node15&#45;&gt;Node8 -->
<g id="edge41" class="edge">
<title>Node15&#45;&gt;Node8</title>
<path fill="none" stroke="#191970" d="M779.2581,-115.9004C720.9072,-105.0082 599.5818,-82.3608 542.6646,-71.7363"/>
<polygon fill="#191970" stroke="#191970" points="542.969,-68.2327 532.4965,-69.8383 541.6845,-75.1139 542.969,-68.2327"/>
</g>
<!-- Node16&#45;&gt;Node1 -->
<g id="edge44" class="edge">
<title>Node16&#45;&gt;Node1</title>
<path fill="none" stroke="#191970" d="M645.0906,-112.4509C629.6103,-93.6054 594.9292,-51.3849 575.2617,-27.4419"/>
<polygon fill="#191970" stroke="#191970" points="577.8105,-25.0306 568.7585,-19.5249 572.4014,-29.4738 577.8105,-25.0306"/>
</g>
<!-- Node16&#45;&gt;Node2 -->
<g id="edge43" class="edge">
<title>Node16&#45;&gt;Node2</title>
<path fill="none" stroke="#191970" d="M671.3551,-112.4079C686.7648,-103.9272 708.8994,-90.6528 725.9345,-76 742.6942,-61.584 758.8789,-42.1415 769.6922,-28.0963"/>
<polygon fill="#191970" stroke="#191970" points="772.7551,-29.8471 775.9744,-19.7532 767.1631,-25.6364 772.7551,-29.8471"/>
</g>
<!-- Node16&#45;&gt;Node5 -->
<g id="edge45" class="edge">
<title>Node16&#45;&gt;Node5</title>
<path fill="none" stroke="#191970" d="M659.5536,-112.2455C664.839,-104.4564 672.3886,-93.3308 678.7582,-83.9439"/>
<polygon fill="#191970" stroke="#191970" points="681.6723,-85.8827 684.3912,-75.6427 675.88,-81.9522 681.6723,-85.8827"/>
</g>
<!-- Node16&#45;&gt;Node8 -->
<g id="edge46" class="edge">
<title>Node16&#45;&gt;Node8</title>
<path fill="none" stroke="#191970" d="M628.6957,-112.3733C604.6781,-102.8343 567.8355,-88.2018 541.9739,-77.9306"/>
<polygon fill="#191970" stroke="#191970" points="543.2353,-74.6657 532.6495,-74.2273 540.6514,-81.1713 543.2353,-74.6657"/>
</g>
</g>
</svg>
