<?xml version="1.0" encoding="UTF-8" standalone="no"?>
<!DOCTYPE svg PUBLIC "-//W3C//DTD SVG 1.1//EN"
 "http://www.w3.org/Graphics/SVG/1.1/DTD/svg11.dtd">
<!-- Generated by graphviz version 2.40.1 (20161225.0304)
 -->
<!-- Title: uxiulocal Pages: 1 -->
<svg width="170pt" height="66pt"
 viewBox="0.00 0.00 170.00 66.00" xmlns="http://www.w3.org/2000/svg" xmlns:xlink="http://www.w3.org/1999/xlink">
<g id="graph0" class="graph" transform="scale(1 1) rotate(0) translate(4 62)">
<title>uxiulocal</title>
<polygon fill="#ffffff" stroke="transparent" points="-4,4 -4,-62 166,-62 166,4 -4,4"/>
<!-- Node80 -->
<g id="node1" class="node">
<title>Node80</title>
<polygon fill="#bfbfbf" stroke="#000000" points="0,-19.5 0,-38.5 55,-38.5 55,-19.5 0,-19.5"/>
<text text-anchor="middle" x="27.5" y="-26.5" font-family="Helvetica,sans-Serif" font-size="10.00" fill="#000000">uxiulocal</text>
</g>
<!-- Node81 -->
<g id="node2" class="node">
<title>Node81</title>
<g id="a_node2"><a xlink:href="classlfield.html#a6525c9ba54e57f27ff551fc3f6169f14" target="_top" xlink:title="lfield::getNxl">
<polygon fill="#ffffff" stroke="#000000" points="91,-38.5 91,-57.5 162,-57.5 162,-38.5 91,-38.5"/>
<text text-anchor="middle" x="126.5" y="-45.5" font-family="Helvetica,sans-Serif" font-size="10.00" fill="#000000">lfield::getNxl</text>
</a>
</g>
</g>
<!-- Node80&#45;&gt;Node81 -->
<g id="edge1" class="edge">
<title>Node80&#45;&gt;Node81</title>
<path fill="none" stroke="#191970" d="M55.077,-34.2926C63.1414,-35.8403 72.1787,-37.5747 81.042,-39.2757"/>
<polygon fill="#191970" stroke="#191970" points="80.4334,-42.7227 90.9139,-41.1703 81.7528,-35.8482 80.4334,-42.7227"/>
</g>
<!-- Node82 -->
<g id="node3" class="node">
<title>Node82</title>
<g id="a_node3"><a xlink:href="classlfield.html#a7eba0ea85f6f0df54a45cf97cd3ad53d" target="_top" xlink:title="lfield::getNyl">
<polygon fill="#ffffff" stroke="#000000" points="91,-.5 91,-19.5 162,-19.5 162,-.5 91,-.5"/>
<text text-anchor="middle" x="126.5" y="-7.5" font-family="Helvetica,sans-Serif" font-size="10.00" fill="#000000">lfield::getNyl</text>
</a>
</g>
</g>
<!-- Node80&#45;&gt;Node82 -->
<g id="edge2" class="edge">
<title>Node80&#45;&gt;Node82</title>
<path fill="none" stroke="#191970" d="M55.077,-23.7074C63.1414,-22.1597 72.1787,-20.4253 81.042,-18.7243"/>
<polygon fill="#191970" stroke="#191970" points="81.7528,-22.1518 90.9139,-16.8297 80.4334,-15.2773 81.7528,-22.1518"/>
</g>
</g>
</svg>
