<?xml version="1.0" encoding="UTF-8" standalone="no"?>
<!DOCTYPE svg PUBLIC "-//W3C//DTD SVG 1.1//EN"
 "http://www.w3.org/Graphics/SVG/1.1/DTD/svg11.dtd">
<!-- Generated by graphviz version 2.40.1 (20161225.0304)
 -->
<!-- Title: operator+ Pages: 1 -->
<svg width="192pt" height="104pt"
 viewBox="0.00 0.00 192.00 104.00" xmlns="http://www.w3.org/2000/svg" xmlns:xlink="http://www.w3.org/1999/xlink">
<g id="graph0" class="graph" transform="scale(1 1) rotate(0) translate(4 100)">
<title>operator+</title>
<polygon fill="#ffffff" stroke="transparent" points="-4,4 -4,-100 188,-100 188,4 -4,4"/>
<!-- Node26 -->
<g id="node1" class="node">
<title>Node26</title>
<polygon fill="#bfbfbf" stroke="#000000" points="0,-38.5 0,-57.5 58,-57.5 58,-38.5 0,-38.5"/>
<text text-anchor="middle" x="29" y="-45.5" font-family="Helvetica,sans-Serif" font-size="10.00" fill="#000000">operator+</text>
</g>
<!-- Node27 -->
<g id="node2" class="node">
<title>Node27</title>
<g id="a_node2"><a xlink:href="classgfield.html#a53fa88cad304f3381b70aef740e903b4" target="_top" xlink:title="gfield::getNxg">
<polygon fill="#ffffff" stroke="#000000" points="100.5,-76.5 100.5,-95.5 177.5,-95.5 177.5,-76.5 100.5,-76.5"/>
<text text-anchor="middle" x="139" y="-83.5" font-family="Helvetica,sans-Serif" font-size="10.00" fill="#000000">gfield::getNxg</text>
</a>
</g>
</g>
<!-- Node26&#45;&gt;Node27 -->
<g id="edge1" class="edge">
<title>Node26&#45;&gt;Node27</title>
<path fill="none" stroke="#191970" d="M56.7576,-57.589C70.3062,-62.2694 86.8055,-67.9692 101.4597,-73.0315"/>
<polygon fill="#191970" stroke="#191970" points="100.6565,-76.457 111.2512,-76.4141 102.9422,-69.8406 100.6565,-76.457"/>
</g>
<!-- Node28 -->
<g id="node3" class="node">
<title>Node28</title>
<g id="a_node3"><a xlink:href="classgfield.html#a12884fdf0eca769d389e04c4200263d2" target="_top" xlink:title="gfield::getNyg">
<polygon fill="#ffffff" stroke="#000000" points="100.5,-38.5 100.5,-57.5 177.5,-57.5 177.5,-38.5 100.5,-38.5"/>
<text text-anchor="middle" x="139" y="-45.5" font-family="Helvetica,sans-Serif" font-size="10.00" fill="#000000">gfield::getNyg</text>
</a>
</g>
</g>
<!-- Node26&#45;&gt;Node28 -->
<g id="edge2" class="edge">
<title>Node26&#45;&gt;Node28</title>
<path fill="none" stroke="#191970" d="M58.1892,-48C67.9324,-48 79.0732,-48 89.9049,-48"/>
<polygon fill="#191970" stroke="#191970" points="90.1396,-51.5001 100.1395,-48 90.1395,-44.5001 90.1396,-51.5001"/>
</g>
<!-- Node29 -->
<g id="node4" class="node">
<title>Node29</title>
<g id="a_node4"><a xlink:href="classgfield.html#a97edc5f1bc25f08f1cca0a1ab91b5f98" target="_top" xlink:title="gfield::setToZero">
<polygon fill="#ffffff" stroke="#000000" points="94,-.5 94,-19.5 184,-19.5 184,-.5 94,-.5"/>
<text text-anchor="middle" x="139" y="-7.5" font-family="Helvetica,sans-Serif" font-size="10.00" fill="#000000">gfield::setToZero</text>
</a>
</g>
</g>
<!-- Node26&#45;&gt;Node29 -->
<g id="edge3" class="edge">
<title>Node26&#45;&gt;Node29</title>
<path fill="none" stroke="#191970" d="M56.7576,-38.411C70.3062,-33.7306 86.8055,-28.0308 101.4597,-22.9685"/>
<polygon fill="#191970" stroke="#191970" points="102.9422,-26.1594 111.2512,-19.5859 100.6565,-19.543 102.9422,-26.1594"/>
</g>
</g>
</svg>
