<?xml version="1.0" encoding="UTF-8" standalone="no"?>
<!DOCTYPE svg PUBLIC "-//W3C//DTD SVG 1.1//EN"
 "http://www.w3.org/Graphics/SVG/1.1/DTD/svg11.dtd">
<!-- Generated by graphviz version 2.40.1 (20161225.0304)
 -->
<!-- Title: print Pages: 1 -->
<svg width="183pt" height="180pt"
 viewBox="0.00 0.00 183.00 180.00" xmlns="http://www.w3.org/2000/svg" xmlns:xlink="http://www.w3.org/1999/xlink">
<g id="graph0" class="graph" transform="scale(1 1) rotate(0) translate(4 176)">
<title>print</title>
<polygon fill="#ffffff" stroke="transparent" points="-4,4 -4,-176 179,-176 179,4 -4,4"/>
<!-- Node46 -->
<g id="node1" class="node">
<title>Node46</title>
<polygon fill="#bfbfbf" stroke="#000000" points="0,-76.5 0,-95.5 35,-95.5 35,-76.5 0,-76.5"/>
<text text-anchor="middle" x="17.5" y="-83.5" font-family="Helvetica,sans-Serif" font-size="10.00" fill="#000000">print</text>
</g>
<!-- Node47 -->
<g id="node2" class="node">
<title>Node47</title>
<g id="a_node2"><a xlink:href="classmpi__class.html#ab876ade2f1b994bb1c920d1de9375cf6" target="_top" xlink:title="mpi_class::getPosX">
<polygon fill="#ffffff" stroke="#000000" points="71,-152.5 71,-171.5 175,-171.5 175,-152.5 71,-152.5"/>
<text text-anchor="middle" x="123" y="-159.5" font-family="Helvetica,sans-Serif" font-size="10.00" fill="#000000">mpi_class::getPosX</text>
</a>
</g>
</g>
<!-- Node46&#45;&gt;Node47 -->
<g id="edge1" class="edge">
<title>Node46&#45;&gt;Node47</title>
<path fill="none" stroke="#191970" d="M24.3855,-95.7923C33.6606,-108.33 51.2946,-129.9855 71,-143 73.9361,-144.9392 77.096,-146.7123 80.3554,-148.3272"/>
<polygon fill="#191970" stroke="#191970" points="79.1413,-151.6173 89.7021,-152.4659 81.9755,-145.2167 79.1413,-151.6173"/>
</g>
<!-- Node48 -->
<g id="node3" class="node">
<title>Node48</title>
<g id="a_node3"><a xlink:href="classmpi__class.html#aa894e45879f0e9a081efd4d4118b2491" target="_top" xlink:title="mpi_class::getPosY">
<polygon fill="#ffffff" stroke="#000000" points="71,-114.5 71,-133.5 175,-133.5 175,-114.5 71,-114.5"/>
<text text-anchor="middle" x="123" y="-121.5" font-family="Helvetica,sans-Serif" font-size="10.00" fill="#000000">mpi_class::getPosY</text>
</a>
</g>
</g>
<!-- Node46&#45;&gt;Node48 -->
<g id="edge2" class="edge">
<title>Node46&#45;&gt;Node48</title>
<path fill="none" stroke="#191970" d="M35.3966,-92.4462C49.3534,-97.4732 69.202,-104.6225 86.4779,-110.8451"/>
<polygon fill="#191970" stroke="#191970" points="85.694,-114.2828 96.2884,-114.3788 88.0662,-107.697 85.694,-114.2828"/>
</g>
<!-- Node49 -->
<g id="node4" class="node">
<title>Node49</title>
<g id="a_node4"><a xlink:href="classmpi__class.html#a6ba81c7f035bcbbb4c5c1273d0850aba" target="_top" xlink:title="mpi_class::getRank">
<polygon fill="#ffffff" stroke="#000000" points="71,-76.5 71,-95.5 175,-95.5 175,-76.5 71,-76.5"/>
<text text-anchor="middle" x="123" y="-83.5" font-family="Helvetica,sans-Serif" font-size="10.00" fill="#000000">mpi_class::getRank</text>
</a>
</g>
</g>
<!-- Node46&#45;&gt;Node49 -->
<g id="edge3" class="edge">
<title>Node46&#45;&gt;Node49</title>
<path fill="none" stroke="#191970" d="M35.3966,-86C42.6496,-86 51.4939,-86 60.7413,-86"/>
<polygon fill="#191970" stroke="#191970" points="60.8778,-89.5001 70.8778,-86 60.8778,-82.5001 60.8778,-89.5001"/>
</g>
<!-- Node50 -->
<g id="node5" class="node">
<title>Node50</title>
<g id="a_node5"><a xlink:href="classmpi__class.html#af78626438bee67b2eacf5bd583d4e4ce" target="_top" xlink:title="mpi_class::getSize">
<polygon fill="#ffffff" stroke="#000000" points="73,-38.5 73,-57.5 173,-57.5 173,-38.5 73,-38.5"/>
<text text-anchor="middle" x="123" y="-45.5" font-family="Helvetica,sans-Serif" font-size="10.00" fill="#000000">mpi_class::getSize</text>
</a>
</g>
</g>
<!-- Node46&#45;&gt;Node50 -->
<g id="edge4" class="edge">
<title>Node46&#45;&gt;Node50</title>
<path fill="none" stroke="#191970" d="M35.3966,-79.5538C49.3534,-74.5268 69.202,-67.3775 86.4779,-61.1549"/>
<polygon fill="#191970" stroke="#191970" points="88.0662,-64.303 96.2884,-57.6212 85.694,-57.7172 88.0662,-64.303"/>
</g>
<!-- Node51 -->
<g id="node6" class="node">
<title>Node51</title>
<g id="a_node6"><a xlink:href="classmomenta.html#a5b2ec8b44c4874d8e18036c8927461db" target="_top" xlink:title="momenta::phat2">
<polygon fill="#ffffff" stroke="#000000" points="79.5,-.5 79.5,-19.5 166.5,-19.5 166.5,-.5 79.5,-.5"/>
<text text-anchor="middle" x="123" y="-7.5" font-family="Helvetica,sans-Serif" font-size="10.00" fill="#000000">momenta::phat2</text>
</a>
</g>
</g>
<!-- Node46&#45;&gt;Node51 -->
<g id="edge5" class="edge">
<title>Node46&#45;&gt;Node51</title>
<path fill="none" stroke="#191970" d="M24.3855,-76.2077C33.6606,-63.67 51.2946,-42.0145 71,-29 73.9361,-27.0608 77.096,-25.2877 80.3554,-23.6728"/>
<polygon fill="#191970" stroke="#191970" points="81.9755,-26.7833 89.7021,-19.5341 79.1413,-20.3827 81.9755,-26.7833"/>
</g>
</g>
</svg>
