<?xml version="1.0" encoding="UTF-8" standalone="no"?>
<!DOCTYPE svg PUBLIC "-//W3C//DTD SVG 1.1//EN"
 "http://www.w3.org/Graphics/SVG/1.1/DTD/svg11.dtd">
<!-- Generated by graphviz version 2.40.1 (20161225.0304)
 -->
<!-- Title: prepare_A_local Pages: 1 -->
<svg width="234pt" height="256pt"
 viewBox="0.00 0.00 234.00 256.00" xmlns="http://www.w3.org/2000/svg" xmlns:xlink="http://www.w3.org/1999/xlink">
<g id="graph0" class="graph" transform="scale(1 1) rotate(0) translate(4 252)">
<title>prepare_A_local</title>
<polygon fill="#ffffff" stroke="transparent" points="-4,4 -4,-252 230,-252 230,4 -4,4"/>
<!-- Node38 -->
<g id="node1" class="node">
<title>Node38</title>
<polygon fill="#bfbfbf" stroke="#000000" points="0,-114.5 0,-133.5 86,-133.5 86,-114.5 0,-114.5"/>
<text text-anchor="middle" x="43" y="-121.5" font-family="Helvetica,sans-Serif" font-size="10.00" fill="#000000">prepare_A_local</text>
</g>
<!-- Node39 -->
<g id="node2" class="node">
<title>Node39</title>
<g id="a_node2"><a xlink:href="classlfield.html#a6525c9ba54e57f27ff551fc3f6169f14" target="_top" xlink:title="lfield::getNxl">
<polygon fill="#ffffff" stroke="#000000" points="138.5,-228.5 138.5,-247.5 209.5,-247.5 209.5,-228.5 138.5,-228.5"/>
<text text-anchor="middle" x="174" y="-235.5" font-family="Helvetica,sans-Serif" font-size="10.00" fill="#000000">lfield::getNxl</text>
</a>
</g>
</g>
<!-- Node38&#45;&gt;Node39 -->
<g id="edge1" class="edge">
<title>Node38&#45;&gt;Node39</title>
<path fill="none" stroke="#191970" d="M48.4941,-133.508C59.8665,-152.3995 87.8042,-194.9108 122,-219 124.6716,-220.882 127.5508,-222.5992 130.5353,-224.1623"/>
<polygon fill="#191970" stroke="#191970" points="129.1568,-227.3809 139.7026,-228.3994 132.0937,-221.0267 129.1568,-227.3809"/>
</g>
<!-- Node40 -->
<g id="node3" class="node">
<title>Node40</title>
<g id="a_node3"><a xlink:href="classlfield.html#a7eba0ea85f6f0df54a45cf97cd3ad53d" target="_top" xlink:title="lfield::getNyl">
<polygon fill="#ffffff" stroke="#000000" points="138.5,-190.5 138.5,-209.5 209.5,-209.5 209.5,-190.5 138.5,-190.5"/>
<text text-anchor="middle" x="174" y="-197.5" font-family="Helvetica,sans-Serif" font-size="10.00" fill="#000000">lfield::getNyl</text>
</a>
</g>
</g>
<!-- Node38&#45;&gt;Node40 -->
<g id="edge2" class="edge">
<title>Node38&#45;&gt;Node40</title>
<path fill="none" stroke="#191970" d="M54.1217,-133.5539C68.8493,-145.8339 96.0025,-167.211 122,-181 125.7732,-183.0013 129.8034,-184.8803 133.8875,-186.6192"/>
<polygon fill="#191970" stroke="#191970" points="132.8343,-189.967 143.4197,-190.4139 135.4233,-183.4634 132.8343,-189.967"/>
</g>
<!-- Node41 -->
<g id="node4" class="node">
<title>Node41</title>
<g id="a_node4"><a xlink:href="classmpi__class.html#ab876ade2f1b994bb1c920d1de9375cf6" target="_top" xlink:title="mpi_class::getPosX">
<polygon fill="#ffffff" stroke="#000000" points="122,-152.5 122,-171.5 226,-171.5 226,-152.5 122,-152.5"/>
<text text-anchor="middle" x="174" y="-159.5" font-family="Helvetica,sans-Serif" font-size="10.00" fill="#000000">mpi_class::getPosX</text>
</a>
</g>
</g>
<!-- Node38&#45;&gt;Node41 -->
<g id="edge3" class="edge">
<title>Node38&#45;&gt;Node41</title>
<path fill="none" stroke="#191970" d="M76.0568,-133.589C92.8125,-138.4494 113.3577,-144.4091 131.2965,-149.6127"/>
<polygon fill="#191970" stroke="#191970" points="130.3745,-152.9895 140.9537,-152.4141 132.3247,-146.2666 130.3745,-152.9895"/>
</g>
<!-- Node42 -->
<g id="node5" class="node">
<title>Node42</title>
<g id="a_node5"><a xlink:href="classmpi__class.html#aa894e45879f0e9a081efd4d4118b2491" target="_top" xlink:title="mpi_class::getPosY">
<polygon fill="#ffffff" stroke="#000000" points="122,-114.5 122,-133.5 226,-133.5 226,-114.5 122,-114.5"/>
<text text-anchor="middle" x="174" y="-121.5" font-family="Helvetica,sans-Serif" font-size="10.00" fill="#000000">mpi_class::getPosY</text>
</a>
</g>
</g>
<!-- Node38&#45;&gt;Node42 -->
<g id="edge4" class="edge">
<title>Node38&#45;&gt;Node42</title>
<path fill="none" stroke="#191970" d="M86.2574,-124C94.3993,-124 103.0616,-124 111.6515,-124"/>
<polygon fill="#191970" stroke="#191970" points="111.6665,-127.5001 121.6665,-124 111.6664,-120.5001 111.6665,-127.5001"/>
</g>
<!-- Node43 -->
<g id="node6" class="node">
<title>Node43</title>
<g id="a_node6"><a xlink:href="classmomenta.html#a98078c7de442771358e691a2b0b037ce" target="_top" xlink:title="momenta::pbarX">
<polygon fill="#ffffff" stroke="#000000" points="129.5,-76.5 129.5,-95.5 218.5,-95.5 218.5,-76.5 129.5,-76.5"/>
<text text-anchor="middle" x="174" y="-83.5" font-family="Helvetica,sans-Serif" font-size="10.00" fill="#000000">momenta::pbarX</text>
</a>
</g>
</g>
<!-- Node38&#45;&gt;Node43 -->
<g id="edge5" class="edge">
<title>Node38&#45;&gt;Node43</title>
<path fill="none" stroke="#191970" d="M76.0568,-114.411C92.8125,-109.5506 113.3577,-103.5909 131.2965,-98.3873"/>
<polygon fill="#191970" stroke="#191970" points="132.3247,-101.7334 140.9537,-95.5859 130.3745,-95.0105 132.3247,-101.7334"/>
</g>
<!-- Node44 -->
<g id="node7" class="node">
<title>Node44</title>
<g id="a_node7"><a xlink:href="classmomenta.html#adf9462fd94288b5cd635a555d689434b" target="_top" xlink:title="momenta::pbarY">
<polygon fill="#ffffff" stroke="#000000" points="129.5,-38.5 129.5,-57.5 218.5,-57.5 218.5,-38.5 129.5,-38.5"/>
<text text-anchor="middle" x="174" y="-45.5" font-family="Helvetica,sans-Serif" font-size="10.00" fill="#000000">momenta::pbarY</text>
</a>
</g>
</g>
<!-- Node38&#45;&gt;Node44 -->
<g id="edge6" class="edge">
<title>Node38&#45;&gt;Node44</title>
<path fill="none" stroke="#191970" d="M54.1217,-114.4461C68.8493,-102.1661 96.0025,-80.789 122,-67 125.7732,-64.9987 129.8034,-63.1197 133.8875,-61.3808"/>
<polygon fill="#191970" stroke="#191970" points="135.4233,-64.5366 143.4197,-57.5861 132.8343,-58.033 135.4233,-64.5366"/>
</g>
<!-- Node45 -->
<g id="node8" class="node">
<title>Node45</title>
<g id="a_node8"><a xlink:href="classmomenta.html#a5b2ec8b44c4874d8e18036c8927461db" target="_top" xlink:title="momenta::phat2">
<polygon fill="#ffffff" stroke="#000000" points="130.5,-.5 130.5,-19.5 217.5,-19.5 217.5,-.5 130.5,-.5"/>
<text text-anchor="middle" x="174" y="-7.5" font-family="Helvetica,sans-Serif" font-size="10.00" fill="#000000">momenta::phat2</text>
</a>
</g>
</g>
<!-- Node38&#45;&gt;Node45 -->
<g id="edge7" class="edge">
<title>Node38&#45;&gt;Node45</title>
<path fill="none" stroke="#191970" d="M48.4941,-114.492C59.8665,-95.6005 87.8042,-53.0892 122,-29 124.6716,-27.118 127.5508,-25.4008 130.5353,-23.8377"/>
<polygon fill="#191970" stroke="#191970" points="132.0937,-26.9733 139.7026,-19.6006 129.1568,-20.6191 132.0937,-26.9733"/>
</g>
</g>
</svg>
