<?xml version="1.0" encoding="UTF-8" standalone="no"?>
<!DOCTYPE svg PUBLIC "-//W3C//DTD SVG 1.1//EN"
 "http://www.w3.org/Graphics/SVG/1.1/DTD/svg11.dtd">
<!-- Generated by graphviz version 2.40.1 (20161225.0304)
 -->
<!-- Title: field.h Pages: 1 -->
<!--zoomable 162 -->
<svg id="main" version="1.1" xmlns="http://www.w3.org/2000/svg" xmlns:xlink="http://www.w3.org/1999/xlink" xml:space="preserve" onload="init(evt)">
<style type="text/css"><![CDATA[
.edge:hover path { stroke: red; }
.edge:hover polygon { stroke: red; fill: red; }
]]></style>
<script type="text/javascript"><![CDATA[
var edges = document.getElementsByTagName('g');
if (edges && edges.length) {
  for (var i=0;i<edges.length;i++) {
    if (edges[i].id.substr(0,4)=='edge') {
      edges[i].setAttribute('class','edge');
    }
  }
}
]]></script>
        <defs>
                <circle id="rim" cx="0" cy="0" r="7"/>
                <circle id="rim2" cx="0" cy="0" r="3.5"/>
                <g id="zoomPlus">
                        <use xlink:href="#rim" fill="#404040">
                                <set attributeName="fill" to="#808080" begin="zoomplus.mouseover" end="zoomplus.mouseout"/>
                        </use>
                        <path d="M-4,0h8M0,-4v8" fill="none" stroke="white" stroke-width="1.5" pointer-events="none"/>
                </g>
                <g id="zoomMin">
                        <use xlink:href="#rim" fill="#404040">
                                <set attributeName="fill" to="#808080" begin="zoomminus.mouseover" end="zoomminus.mouseout"/>
                        </use>
                        <path d="M-4,0h8" fill="none" stroke="white" stroke-width="1.5" pointer-events="none"/>
                </g>
                <g id="dirArrow">
                        <path fill="none" stroke="white" stroke-width="1.5" d="M0,-3.0v7 M-2.5,-0.5L0,-3.0L2.5,-0.5"/>
                </g>
               <g id="resetDef">
                       <use xlink:href="#rim2" fill="#404040">
                               <set attributeName="fill" to="#808080" begin="reset.mouseover" end="reset.mouseout"/>
                       </use>
               </g>
        </defs>

<script type="text/javascript">
var viewWidth = 3032;
var viewHeight = 162;
var sectionId = 'dynsection-1';
</script>
<script xlink:href="svgpan.js"/>
<svg id="graph" class="graph">
<g id="viewport">
<title>field.h</title>
<polygon fill="#ffffff" stroke="transparent" points="-4,4 -4,-158 3028,-158 3028,4 -4,4"/>
<!-- Node19 -->
<g id="node1" class="node">
<title>Node19</title>
<polygon fill="#bfbfbf" stroke="#000000" points="1460.5,-134.5 1460.5,-153.5 1503.5,-153.5 1503.5,-134.5 1460.5,-134.5"/>
<text text-anchor="middle" x="1482" y="-141.5" font-family="Helvetica,sans-Serif" font-size="10.00" fill="#000000">field.h</text>
</g>
<!-- Node20 -->
<g id="node2" class="node">
<title>Node20</title>
<g id="a_node2"><a xlink:href="main__explicit_8cpp.html" target="_top" xlink:title="main_explicit.cpp">
<polygon fill="#ffffff" stroke="#000000" points="0,-11.5 0,-30.5 92,-30.5 92,-11.5 0,-11.5"/>
<text text-anchor="middle" x="46" y="-18.5" font-family="Helvetica,sans-Serif" font-size="10.00" fill="#000000">main_explicit.cpp</text>
</a>
</g>
</g>
<!-- Node19&#45;&gt;Node20 -->
<g id="edge1" class="edge">
<title>Node19&#45;&gt;Node20</title>
<path fill="none" stroke="#191970" d="M1450.3101,-143.4258C1269.3604,-140.0662 370.6837,-122.2645 250,-98 179.1144,-83.7478 100.4456,-47.9001 65.0665,-30.6149"/>
<polygon fill="#191970" stroke="#191970" points="1450.4255,-146.9285 1460.4883,-143.6136 1450.5546,-139.9296 1450.4255,-146.9285"/>
</g>
<!-- Node21 -->
<g id="node3" class="node">
<title>Node21</title>
<g id="a_node3"><a xlink:href="matrix_8h.html" target="_top" xlink:title="matrix.h">
<polygon fill="#ffffff" stroke="#000000" points="297,-78.5 297,-97.5 349,-97.5 349,-78.5 297,-78.5"/>
<text text-anchor="middle" x="323" y="-85.5" font-family="Helvetica,sans-Serif" font-size="10.00" fill="#000000">matrix.h</text>
</a>
</g>
</g>
<!-- Node19&#45;&gt;Node21 -->
<g id="edge2" class="edge">
<title>Node19&#45;&gt;Node21</title>
<path fill="none" stroke="#191970" d="M1449.9634,-142.9881C1322.9776,-138.8898 842.7113,-122.5606 448,-98 413.8859,-95.8773 374.6007,-92.5971 349.3178,-90.3775"/>
<polygon fill="#191970" stroke="#191970" points="1450.0483,-146.4926 1460.1555,-143.3152 1450.2729,-139.4962 1450.0483,-146.4926"/>
</g>
<!-- Node22 -->
<g id="node4" class="node">
<title>Node22</title>
<g id="a_node4"><a xlink:href="test__noise__vectors__and__cholesky__decomposition_8cpp.html" target="_top" xlink:title="tests/test_noise_vectors\l_and_cholesky_decomposition.cpp">
<polygon fill="#ffffff" stroke="#000000" points="110.5,-6 110.5,-36 279.5,-36 279.5,-6 110.5,-6"/>
<text text-anchor="start" x="118.5" y="-24" font-family="Helvetica,sans-Serif" font-size="10.00" fill="#000000">tests/test_noise_vectors</text>
<text text-anchor="middle" x="195" y="-13" font-family="Helvetica,sans-Serif" font-size="10.00" fill="#000000">_and_cholesky_decomposition.cpp</text>
</a>
</g>
</g>
<!-- Node19&#45;&gt;Node22 -->
<g id="edge44" class="edge">
<title>Node19&#45;&gt;Node22</title>
<path fill="none" stroke="#191970" d="M1450.2666,-143.3523C1266.3829,-139.5273 343.8103,-119.3284 288,-98 254.3214,-85.1294 223.9167,-54.7947 207.5897,-36.2732"/>
<polygon fill="#191970" stroke="#191970" points="1450.2932,-146.8535 1460.3636,-143.5613 1450.4381,-139.855 1450.2932,-146.8535"/>
</g>
<!-- Node23 -->
<g id="node5" class="node">
<title>Node23</title>
<g id="a_node5"><a xlink:href="test__position__evolution__coupling__noise_8cpp.html" target="_top" xlink:title="tests/test_position\l_evolution_coupling\l_noise.cpp">
<polygon fill="#ffffff" stroke="#000000" points="297,-.5 297,-41.5 399,-41.5 399,-.5 297,-.5"/>
<text text-anchor="start" x="305" y="-29.5" font-family="Helvetica,sans-Serif" font-size="10.00" fill="#000000">tests/test_position</text>
<text text-anchor="start" x="305" y="-18.5" font-family="Helvetica,sans-Serif" font-size="10.00" fill="#000000">_evolution_coupling</text>
<text text-anchor="middle" x="348" y="-7.5" font-family="Helvetica,sans-Serif" font-size="10.00" fill="#000000">_noise.cpp</text>
</a>
</g>
</g>
<!-- Node19&#45;&gt;Node23 -->
<g id="edge47" class="edge">
<title>Node19&#45;&gt;Node23</title>
<path fill="none" stroke="#191970" d="M1450.302,-143.2362C1347.38,-140.5003 1013.355,-129.6113 739,-98 590.779,-80.9219 552.4842,-79.2218 408,-42 405.1144,-41.2566 402.1701,-40.4365 399.2115,-39.564"/>
<polygon fill="#191970" stroke="#191970" points="1450.2604,-146.7362 1460.3478,-143.4966 1450.4419,-139.7385 1450.2604,-146.7362"/>
</g>
<!-- Node24 -->
<g id="node6" class="node">
<title>Node24</title>
<g id="a_node6"><a xlink:href="mpi__fftw__class_8h.html" target="_top" xlink:title="mpi_fftw_class.h">
<polygon fill="#ffffff" stroke="#000000" points="1436.5,-78.5 1436.5,-97.5 1527.5,-97.5 1527.5,-78.5 1436.5,-78.5"/>
<text text-anchor="middle" x="1482" y="-85.5" font-family="Helvetica,sans-Serif" font-size="10.00" fill="#000000">mpi_fftw_class.h</text>
</a>
</g>
</g>
<!-- Node19&#45;&gt;Node24 -->
<g id="edge6" class="edge">
<title>Node19&#45;&gt;Node24</title>
<path fill="none" stroke="#191970" d="M1482,-124.1575C1482,-115.155 1482,-104.9199 1482,-97.6427"/>
<polygon fill="#191970" stroke="#191970" points="1478.5001,-124.2455 1482,-134.2455 1485.5001,-124.2456 1478.5001,-124.2455"/>
</g>
<!-- Node25 -->
<g id="node7" class="node">
<title>Node25</title>
<g id="a_node7"><a xlink:href="test__accumulation_8cpp.html" target="_top" xlink:title="tests/test_accumulation.cpp">
<polygon fill="#ffffff" stroke="#000000" points="417,-11.5 417,-30.5 557,-30.5 557,-11.5 417,-11.5"/>
<text text-anchor="middle" x="487" y="-18.5" font-family="Helvetica,sans-Serif" font-size="10.00" fill="#000000">tests/test_accumulation.cpp</text>
</a>
</g>
</g>
<!-- Node19&#45;&gt;Node25 -->
<g id="edge30" class="edge">
<title>Node19&#45;&gt;Node25</title>
<path fill="none" stroke="#191970" d="M1450.1944,-142.706C1360.2419,-138.8026 1096.4306,-125.6723 879,-98 738.8107,-80.1582 703.9622,-72.6233 566,-42 550.8987,-38.648 534.3352,-34.3433 520.2924,-30.505"/>
<polygon fill="#191970" stroke="#191970" points="1450.1474,-146.2071 1460.2876,-143.1366 1450.4459,-139.2134 1450.1474,-146.2071"/>
</g>
<!-- Node26 -->
<g id="node8" class="node">
<title>Node26</title>
<g id="a_node8"><a xlink:href="test__exponentiate_8cpp.html" target="_top" xlink:title="tests/test_exponentiate.cpp">
<polygon fill="#ffffff" stroke="#000000" points="575.5,-11.5 575.5,-30.5 712.5,-30.5 712.5,-11.5 575.5,-11.5"/>
<text text-anchor="middle" x="644" y="-18.5" font-family="Helvetica,sans-Serif" font-size="10.00" fill="#000000">tests/test_exponentiate.cpp</text>
</a>
</g>
</g>
<!-- Node19&#45;&gt;Node26 -->
<g id="edge31" class="edge">
<title>Node19&#45;&gt;Node26</title>
<path fill="none" stroke="#191970" d="M1450.095,-142.1355C1372.4237,-137.343 1167.447,-123.1709 998,-98 874.1924,-79.6087 843.8246,-70.7286 722,-42 707.3951,-38.5559 691.3725,-34.3222 677.6688,-30.5606"/>
<polygon fill="#191970" stroke="#191970" points="1449.9988,-145.6361 1460.1929,-142.7497 1450.4239,-138.649 1449.9988,-145.6361"/>
</g>
<!-- Node27 -->
<g id="node9" class="node">
<title>Node27</title>
<g id="a_node9"><a xlink:href="test__hermitian_8cpp.html" target="_top" xlink:title="tests/test_hermitian.cpp">
<polygon fill="#ffffff" stroke="#000000" points="731,-11.5 731,-30.5 853,-30.5 853,-11.5 731,-11.5"/>
<text text-anchor="middle" x="792" y="-18.5" font-family="Helvetica,sans-Serif" font-size="10.00" fill="#000000">tests/test_hermitian.cpp</text>
</a>
</g>
</g>
<!-- Node19&#45;&gt;Node27 -->
<g id="edge32" class="edge">
<title>Node19&#45;&gt;Node27</title>
<path fill="none" stroke="#191970" d="M1450.3839,-141.3452C1385.0051,-135.5982 1230.3185,-120.6679 1102,-98 994.1382,-78.9459 967.8408,-70.195 862,-42 848.8815,-38.5054 834.5004,-34.2634 822.2039,-30.5093"/>
<polygon fill="#191970" stroke="#191970" points="1450.1872,-144.8412 1460.4525,-142.2194 1450.7928,-137.8675 1450.1872,-144.8412"/>
</g>
<!-- Node28 -->
<g id="node10" class="node">
<title>Node28</title>
<g id="a_node10"><a xlink:href="test__initial__condition_8cpp.html" target="_top" xlink:title="tests/test_initial\l_condition.cpp">
<polygon fill="#ffffff" stroke="#000000" points="871,-6 871,-36 957,-36 957,-6 871,-6"/>
<text text-anchor="start" x="879" y="-24" font-family="Helvetica,sans-Serif" font-size="10.00" fill="#000000">tests/test_initial</text>
<text text-anchor="middle" x="914" y="-13" font-family="Helvetica,sans-Serif" font-size="10.00" fill="#000000">_condition.cpp</text>
</a>
</g>
</g>
<!-- Node19&#45;&gt;Node28 -->
<g id="edge33" class="edge">
<title>Node19&#45;&gt;Node28</title>
<path fill="none" stroke="#191970" d="M1450.3774,-140.0235C1368.8364,-129.2842 1145.2827,-96.7562 966,-42 960.4131,-40.2936 954.5886,-38.2336 948.9448,-36.0793"/>
<polygon fill="#191970" stroke="#191970" points="1450.1169,-143.519 1460.4848,-141.3383 1451.0199,-136.5775 1450.1169,-143.519"/>
</g>
<!-- Node29 -->
<g id="node11" class="node">
<title>Node29</title>
<g id="a_node11"><a xlink:href="test__initial__condition__fftw1d_8cpp.html" target="_top" xlink:title="tests/test_initial\l_condition_fftw1d.cpp">
<polygon fill="#ffffff" stroke="#000000" points="975,-6 975,-36 1087,-36 1087,-6 975,-6"/>
<text text-anchor="start" x="983" y="-24" font-family="Helvetica,sans-Serif" font-size="10.00" fill="#000000">tests/test_initial</text>
<text text-anchor="middle" x="1031" y="-13" font-family="Helvetica,sans-Serif" font-size="10.00" fill="#000000">_condition_fftw1d.cpp</text>
</a>
</g>
</g>
<!-- Node19&#45;&gt;Node29 -->
<g id="edge34" class="edge">
<title>Node19&#45;&gt;Node29</title>
<path fill="none" stroke="#191970" d="M1450.3058,-136.2431C1384.1546,-119.9175 1226.6843,-80.3466 1096,-42 1089.6276,-40.1302 1082.9328,-38.0735 1076.3615,-36.0012"/>
<polygon fill="#191970" stroke="#191970" points="1449.5737,-139.6673 1460.1205,-138.6599 1451.2474,-132.8703 1449.5737,-139.6673"/>
</g>
<!-- Node30 -->
<g id="node12" class="node">
<title>Node30</title>
<g id="a_node12"><a xlink:href="test__momentum__coupling_8cpp.html" target="_top" xlink:title="tests/test_momentum\l_coupling.cpp">
<polygon fill="#ffffff" stroke="#000000" points="1105,-6 1105,-36 1217,-36 1217,-6 1105,-6"/>
<text text-anchor="start" x="1113" y="-24" font-family="Helvetica,sans-Serif" font-size="10.00" fill="#000000">tests/test_momentum</text>
<text text-anchor="middle" x="1161" y="-13" font-family="Helvetica,sans-Serif" font-size="10.00" fill="#000000">_coupling.cpp</text>
</a>
</g>
</g>
<!-- Node19&#45;&gt;Node30 -->
<g id="edge35" class="edge">
<title>Node19&#45;&gt;Node30</title>
<path fill="none" stroke="#191970" d="M1450.9601,-132.1062C1392.2271,-109.601 1264.9461,-60.8298 1200.3345,-36.0721"/>
<polygon fill="#191970" stroke="#191970" points="1449.8495,-135.4288 1460.4398,-135.7386 1452.3542,-128.8922 1449.8495,-135.4288"/>
</g>
<!-- Node31 -->
<g id="node13" class="node">
<title>Node31</title>
<g id="a_node13"><a xlink:href="test__momentum__coupling__fft_8cpp.html" target="_top" xlink:title="tests/test_momentum\l_coupling_fft.cpp">
<polygon fill="#ffffff" stroke="#000000" points="1235,-6 1235,-36 1347,-36 1347,-6 1235,-6"/>
<text text-anchor="start" x="1243" y="-24" font-family="Helvetica,sans-Serif" font-size="10.00" fill="#000000">tests/test_momentum</text>
<text text-anchor="middle" x="1291" y="-13" font-family="Helvetica,sans-Serif" font-size="10.00" fill="#000000">_coupling_fft.cpp</text>
</a>
</g>
</g>
<!-- Node19&#45;&gt;Node31 -->
<g id="edge36" class="edge">
<title>Node19&#45;&gt;Node31</title>
<path fill="none" stroke="#191970" d="M1458.4299,-128.8214C1421.64,-105.1294 1350.9926,-59.634 1314.3427,-36.0322"/>
<polygon fill="#191970" stroke="#191970" points="1456.71,-131.8767 1467.0126,-134.3484 1460.5,-125.9915 1456.71,-131.8767"/>
</g>
<!-- Node32 -->
<g id="node14" class="node">
<title>Node32</title>
<g id="a_node14"><a xlink:href="test__momentum__evolution_8cpp.html" target="_top" xlink:title="tests/test_momentum\l_evolution.cpp">
<polygon fill="#ffffff" stroke="#000000" points="1365,-6 1365,-36 1477,-36 1477,-6 1365,-6"/>
<text text-anchor="start" x="1373" y="-24" font-family="Helvetica,sans-Serif" font-size="10.00" fill="#000000">tests/test_momentum</text>
<text text-anchor="middle" x="1421" y="-13" font-family="Helvetica,sans-Serif" font-size="10.00" fill="#000000">_evolution.cpp</text>
</a>
</g>
</g>
<!-- Node19&#45;&gt;Node32 -->
<g id="edge37" class="edge">
<title>Node19&#45;&gt;Node32</title>
<path fill="none" stroke="#191970" d="M1455.9011,-128.8072C1445.0444,-121.0455 1433.4814,-110.5716 1427,-98 1416.9232,-78.4546 1417.2949,-52.3509 1418.8635,-36.1132"/>
<polygon fill="#191970" stroke="#191970" points="1454.0844,-131.8026 1464.3461,-134.4387 1457.9681,-125.9787 1454.0844,-131.8026"/>
</g>
<!-- Node33 -->
<g id="node15" class="node">
<title>Node33</title>
<g id="a_node15"><a xlink:href="test__momentum__evolution__coupling_8cpp.html" target="_top" xlink:title="tests/test_momentum\l_evolution_coupling.cpp">
<polygon fill="#ffffff" stroke="#000000" points="1495.5,-6 1495.5,-36 1616.5,-36 1616.5,-6 1495.5,-6"/>
<text text-anchor="start" x="1503.5" y="-24" font-family="Helvetica,sans-Serif" font-size="10.00" fill="#000000">tests/test_momentum</text>
<text text-anchor="middle" x="1556" y="-13" font-family="Helvetica,sans-Serif" font-size="10.00" fill="#000000">_evolution_coupling.cpp</text>
</a>
</g>
</g>
<!-- Node19&#45;&gt;Node33 -->
<g id="edge38" class="edge">
<title>Node19&#45;&gt;Node33</title>
<path fill="none" stroke="#191970" d="M1506.5147,-128.2364C1517.01,-120.3321 1528.5422,-109.904 1536,-98 1548.0257,-78.8049 1552.8515,-52.6027 1554.7669,-36.2489"/>
<polygon fill="#191970" stroke="#191970" points="1504.1712,-125.6084 1498.0547,-134.2593 1508.231,-131.3108 1504.1712,-125.6084"/>
</g>
<!-- Node34 -->
<g id="node16" class="node">
<title>Node34</title>
<g id="a_node16"><a xlink:href="test__momentum__evolution__coupling2_8cpp.html" target="_top" xlink:title="tests/test_momentum\l_evolution_coupling2.cpp">
<polygon fill="#ffffff" stroke="#000000" points="1635,-6 1635,-36 1761,-36 1761,-6 1635,-6"/>
<text text-anchor="start" x="1643" y="-24" font-family="Helvetica,sans-Serif" font-size="10.00" fill="#000000">tests/test_momentum</text>
<text text-anchor="middle" x="1698" y="-13" font-family="Helvetica,sans-Serif" font-size="10.00" fill="#000000">_evolution_coupling2.cpp</text>
</a>
</g>
</g>
<!-- Node19&#45;&gt;Node34 -->
<g id="edge39" class="edge">
<title>Node19&#45;&gt;Node34</title>
<path fill="none" stroke="#191970" d="M1507.8665,-129.2705C1549.2434,-105.7086 1629.8915,-59.784 1671.602,-36.0322"/>
<polygon fill="#191970" stroke="#191970" points="1505.9071,-126.3585 1498.9492,-134.3484 1509.371,-132.4414 1505.9071,-126.3585"/>
</g>
<!-- Node35 -->
<g id="node17" class="node">
<title>Node35</title>
<g id="a_node17"><a xlink:href="test__momentum__evolution__coupling__lambda_8cpp.html" target="_top" xlink:title="tests/test_momentum\l_evolution_coupling\l_lambda.cpp">
<polygon fill="#ffffff" stroke="#000000" points="1779,-.5 1779,-41.5 1891,-41.5 1891,-.5 1779,-.5"/>
<text text-anchor="start" x="1787" y="-29.5" font-family="Helvetica,sans-Serif" font-size="10.00" fill="#000000">tests/test_momentum</text>
<text text-anchor="start" x="1787" y="-18.5" font-family="Helvetica,sans-Serif" font-size="10.00" fill="#000000">_evolution_coupling</text>
<text text-anchor="middle" x="1835" y="-7.5" font-family="Helvetica,sans-Serif" font-size="10.00" fill="#000000">_lambda.cpp</text>
</a>
</g>
</g>
<!-- Node19&#45;&gt;Node35 -->
<g id="edge40" class="edge">
<title>Node19&#45;&gt;Node35</title>
<path fill="none" stroke="#191970" d="M1513.1163,-131.5869C1547.7792,-117.9021 1605.5816,-95.5071 1656,-78 1706.1931,-60.5711 1719.3865,-58.1674 1770,-42 1772.9371,-41.0618 1775.9482,-40.0975 1778.9877,-39.1222"/>
<polygon fill="#191970" stroke="#191970" points="1511.5663,-128.4362 1503.5571,-135.3718 1514.1433,-134.9446 1511.5663,-128.4362"/>
</g>
<!-- Node36 -->
<g id="node18" class="node">
<title>Node36</title>
<g id="a_node18"><a xlink:href="test__momentum__evolution__coupling__lambda__noise_8cpp.html" target="_top" xlink:title="tests/test_momentum\l_evolution_coupling\l_lambda_noise.cpp">
<polygon fill="#ffffff" stroke="#000000" points="1909,-.5 1909,-41.5 2021,-41.5 2021,-.5 1909,-.5"/>
<text text-anchor="start" x="1917" y="-29.5" font-family="Helvetica,sans-Serif" font-size="10.00" fill="#000000">tests/test_momentum</text>
<text text-anchor="start" x="1917" y="-18.5" font-family="Helvetica,sans-Serif" font-size="10.00" fill="#000000">_evolution_coupling</text>
<text text-anchor="middle" x="1965" y="-7.5" font-family="Helvetica,sans-Serif" font-size="10.00" fill="#000000">_lambda_noise.cpp</text>
</a>
</g>
</g>
<!-- Node19&#45;&gt;Node36 -->
<g id="edge41" class="edge">
<title>Node19&#45;&gt;Node36</title>
<path fill="none" stroke="#191970" d="M1513.6457,-136.0552C1546.5191,-127.5602 1599.3033,-113.2392 1644,-98 1666.6536,-90.2763 1670.9767,-84.5397 1694,-78 1783.4063,-52.6043 1809.782,-64.3411 1900,-42 1902.8778,-41.2873 1905.8135,-40.5136 1908.7682,-39.6975"/>
<polygon fill="#191970" stroke="#191970" points="1512.5255,-132.7291 1503.7076,-138.6024 1514.2635,-139.5099 1512.5255,-132.7291"/>
</g>
<!-- Node37 -->
<g id="node19" class="node">
<title>Node37</title>
<g id="a_node19"><a xlink:href="test__multiplication_8cpp.html" target="_top" xlink:title="tests/test_multiplication.cpp">
<polygon fill="#ffffff" stroke="#000000" points="2039.5,-11.5 2039.5,-30.5 2178.5,-30.5 2178.5,-11.5 2039.5,-11.5"/>
<text text-anchor="middle" x="2109" y="-18.5" font-family="Helvetica,sans-Serif" font-size="10.00" fill="#000000">tests/test_multiplication.cpp</text>
</a>
</g>
</g>
<!-- Node19&#45;&gt;Node37 -->
<g id="edge42" class="edge">
<title>Node19&#45;&gt;Node37</title>
<path fill="none" stroke="#191970" d="M1513.6753,-138.4036C1553.6408,-130.9673 1624.2517,-116.5762 1683,-98 1705.4275,-90.9084 1709.232,-83.9077 1732,-78 1861.1313,-44.4941 1898.9938,-67.1976 2030,-42 2045.7478,-38.9711 2062.9856,-34.5245 2077.3297,-30.5019"/>
<polygon fill="#191970" stroke="#191970" points="1512.9301,-134.9819 1503.7257,-140.2286 1514.193,-141.867 1512.9301,-134.9819"/>
</g>
<!-- Node38 -->
<g id="node20" class="node">
<title>Node38</title>
<g id="a_node20"><a xlink:href="test__noise__vectors_8cpp.html" target="_top" xlink:title="tests/test_noise_vectors.cpp">
<polygon fill="#ffffff" stroke="#000000" points="2196.5,-11.5 2196.5,-30.5 2339.5,-30.5 2339.5,-11.5 2196.5,-11.5"/>
<text text-anchor="middle" x="2268" y="-18.5" font-family="Helvetica,sans-Serif" font-size="10.00" fill="#000000">tests/test_noise_vectors.cpp</text>
</a>
</g>
</g>
<!-- Node19&#45;&gt;Node38 -->
<g id="edge43" class="edge">
<title>Node19&#45;&gt;Node38</title>
<path fill="none" stroke="#191970" d="M1513.5768,-140.0565C1559.9455,-133.7947 1648.8771,-119.9866 1722,-98 1744.1323,-91.3453 1747.5532,-83.5015 1770,-78 1951.1054,-33.613 2004.2639,-73.7875 2188,-42 2204.2716,-39.1849 2222.068,-34.6613 2236.7357,-30.5322"/>
<polygon fill="#191970" stroke="#191970" points="1512.9986,-136.6024 1503.5435,-141.3828 1513.916,-143.5421 1512.9986,-136.6024"/>
</g>
<!-- Node39 -->
<g id="node21" class="node">
<title>Node39</title>
<g id="a_node21"><a xlink:href="test__position__evolution_8cpp.html" target="_top" xlink:title="tests/test_position\l_evolution.cpp">
<polygon fill="#ffffff" stroke="#000000" points="2357.5,-6 2357.5,-36 2454.5,-36 2454.5,-6 2357.5,-6"/>
<text text-anchor="start" x="2365.5" y="-24" font-family="Helvetica,sans-Serif" font-size="10.00" fill="#000000">tests/test_position</text>
<text text-anchor="middle" x="2406" y="-13" font-family="Helvetica,sans-Serif" font-size="10.00" fill="#000000">_evolution.cpp</text>
</a>
</g>
</g>
<!-- Node19&#45;&gt;Node39 -->
<g id="edge45" class="edge">
<title>Node19&#45;&gt;Node39</title>
<path fill="none" stroke="#191970" d="M1513.6183,-141.1666C1565.7528,-135.9646 1672.675,-123.0527 1760,-98 1782.215,-91.6267 1785.5007,-83.2827 1808,-78 2042.5964,-22.9178 2113.3037,-92.1674 2349,-42 2355.9111,-40.529 2363.1089,-38.3895 2369.9701,-36.0323"/>
<polygon fill="#191970" stroke="#191970" points="1513.263,-137.6845 1503.6475,-142.1334 1513.9386,-144.6518 1513.263,-137.6845"/>
</g>
<!-- Node40 -->
<g id="node22" class="node">
<title>Node40</title>
<g id="a_node22"><a xlink:href="test__position__evolution__coupling_8cpp.html" target="_top" xlink:title="tests/test_position\l_evolution_coupling.cpp">
<polygon fill="#ffffff" stroke="#000000" points="2472.5,-6 2472.5,-36 2593.5,-36 2593.5,-6 2472.5,-6"/>
<text text-anchor="start" x="2480.5" y="-24" font-family="Helvetica,sans-Serif" font-size="10.00" fill="#000000">tests/test_position</text>
<text text-anchor="middle" x="2533" y="-13" font-family="Helvetica,sans-Serif" font-size="10.00" fill="#000000">_evolution_coupling.cpp</text>
</a>
</g>
</g>
<!-- Node19&#45;&gt;Node40 -->
<g id="edge46" class="edge">
<title>Node19&#45;&gt;Node40</title>
<path fill="none" stroke="#191970" d="M1514.1462,-141.9845C1571.8865,-137.7801 1696.5954,-126.0288 1798,-98 1820.2758,-91.8428 1823.4791,-83.1898 1846,-78 2114.1056,-16.217 2193.1573,-90.3941 2464,-42 2472.2587,-40.5243 2480.9208,-38.3827 2489.2094,-36.0247"/>
<polygon fill="#191970" stroke="#191970" points="1513.5722,-138.5161 1503.841,-142.7057 1514.0609,-145.499 1513.5722,-138.5161"/>
</g>
<!-- Node41 -->
<g id="node23" class="node">
<title>Node41</title>
<g id="a_node23"><a xlink:href="test__position__evolution__hatta__coupling_8cpp.html" target="_top" xlink:title="tests/test_position\l_evolution_hatta_coupling.cpp">
<polygon fill="#ffffff" stroke="#000000" points="2612,-6 2612,-36 2760,-36 2760,-6 2612,-6"/>
<text text-anchor="start" x="2620" y="-24" font-family="Helvetica,sans-Serif" font-size="10.00" fill="#000000">tests/test_position</text>
<text text-anchor="middle" x="2686" y="-13" font-family="Helvetica,sans-Serif" font-size="10.00" fill="#000000">_evolution_hatta_coupling.cpp</text>
</a>
</g>
</g>
<!-- Node19&#45;&gt;Node41 -->
<g id="edge48" class="edge">
<title>Node19&#45;&gt;Node41</title>
<path fill="none" stroke="#191970" d="M1513.5463,-142.7053C1576.0683,-139.5293 1719.715,-129.1841 1836,-98 1858.3224,-92.0138 1861.4581,-83.0979 1884,-78 2196.075,-7.424 2286.5854,-89.4718 2603,-42 2612.8485,-40.5224 2623.2272,-38.3798 2633.1839,-36.0215"/>
<polygon fill="#191970" stroke="#191970" points="1513.3511,-139.2106 1503.5309,-143.1872 1513.6876,-146.2025 1513.3511,-139.2106"/>
</g>
<!-- Node42 -->
<g id="node24" class="node">
<title>Node42</title>
<g id="a_node24"><a xlink:href="test__symmetrize__average_8cpp.html" target="_top" xlink:title="tests/test_symmetrize\l_average.cpp">
<polygon fill="#ffffff" stroke="#000000" points="2778,-6 2778,-36 2892,-36 2892,-6 2778,-6"/>
<text text-anchor="start" x="2786" y="-24" font-family="Helvetica,sans-Serif" font-size="10.00" fill="#000000">tests/test_symmetrize</text>
<text text-anchor="middle" x="2835" y="-13" font-family="Helvetica,sans-Serif" font-size="10.00" fill="#000000">_average.cpp</text>
</a>
</g>
</g>
<!-- Node19&#45;&gt;Node42 -->
<g id="edge49" class="edge">
<title>Node19&#45;&gt;Node42</title>
<path fill="none" stroke="#191970" d="M1514.0244,-143.2399C1581.6178,-140.9864 1743.3824,-132.1606 1874,-98 1896.3591,-92.1524 1899.4391,-83.0127 1922,-78 2289.8148,3.7232 2397.9879,-107.6996 2769,-42 2777.0513,-40.5743 2785.4821,-38.4243 2793.5227,-36.0353"/>
<polygon fill="#191970" stroke="#191970" points="1513.5208,-139.7535 1503.6328,-143.5583 1513.7353,-146.7503 1513.5208,-139.7535"/>
</g>
<!-- Node43 -->
<g id="node25" class="node">
<title>Node43</title>
<g id="a_node25"><a xlink:href="test__symmetrize__average2_8cpp.html" target="_top" xlink:title="tests/test_symmetrize\l_average2.cpp">
<polygon fill="#ffffff" stroke="#000000" points="2910,-6 2910,-36 3024,-36 3024,-6 2910,-6"/>
<text text-anchor="start" x="2918" y="-24" font-family="Helvetica,sans-Serif" font-size="10.00" fill="#000000">tests/test_symmetrize</text>
<text text-anchor="middle" x="2967" y="-13" font-family="Helvetica,sans-Serif" font-size="10.00" fill="#000000">_average2.cpp</text>
</a>
</g>
</g>
<!-- Node19&#45;&gt;Node43 -->
<g id="edge50" class="edge">
<title>Node19&#45;&gt;Node43</title>
<path fill="none" stroke="#191970" d="M1513.9127,-141.9126C1600.2055,-136.0577 1836.7273,-118.557 1912,-98 1932.7221,-92.3408 1935.0963,-82.9464 1956,-78 2160.505,-29.6088 2693.987,-78.1887 2901,-42 2909.0544,-40.592 2917.4867,-38.4503 2925.5277,-36.064"/>
<polygon fill="#191970" stroke="#191970" points="1513.4322,-138.4369 1503.6893,-142.5993 1513.9014,-145.4212 1513.4322,-138.4369"/>
</g>
<!-- Node44 -->
<g id="node26" class="node">
<title>Node44</title>
<g id="a_node26"><a xlink:href="mpi__exchange__boundaries_8cpp.html" target="_top" xlink:title="mpi_exchange_boundaries.cpp">
<polygon fill="#ffffff" stroke="#000000" points="1964.5,-78.5 1964.5,-97.5 2115.5,-97.5 2115.5,-78.5 1964.5,-78.5"/>
<text text-anchor="middle" x="2040" y="-85.5" font-family="Helvetica,sans-Serif" font-size="10.00" fill="#000000">mpi_exchange_boundaries.cpp</text>
</a>
</g>
</g>
<!-- Node19&#45;&gt;Node44 -->
<g id="edge29" class="edge">
<title>Node19&#45;&gt;Node44</title>
<path fill="none" stroke="#191970" d="M1514.2582,-140.9714C1590.224,-133.8083 1786.3168,-115.1371 1950,-98 1954.6907,-97.5089 1959.518,-96.9956 1964.3854,-96.472"/>
<polygon fill="#191970" stroke="#191970" points="1513.5676,-137.5209 1503.9399,-141.9432 1514.2241,-144.4901 1513.5676,-137.5209"/>
</g>
<!-- Node21&#45;&gt;Node20 -->
<g id="edge3" class="edge">
<title>Node21&#45;&gt;Node20</title>
<path fill="none" stroke="#191970" d="M286.6841,-82.3177C242.3575,-74.9616 165.3523,-60.8205 101,-42 90.1109,-38.8154 78.3245,-34.4443 68.4661,-30.5144"/>
<polygon fill="#191970" stroke="#191970" points="286.2576,-85.7944 296.6915,-83.955 287.3879,-78.8862 286.2576,-85.7944"/>
</g>
<!-- Node21&#45;&gt;Node22 -->
<g id="edge4" class="edge">
<title>Node21&#45;&gt;Node22</title>
<path fill="none" stroke="#191970" d="M295.5544,-73.6339C274.3818,-62.5514 245.1793,-47.2657 223.6983,-36.0218"/>
<polygon fill="#191970" stroke="#191970" points="294.1779,-76.8639 304.6607,-78.4005 297.4242,-70.6621 294.1779,-76.8639"/>
</g>
<!-- Node21&#45;&gt;Node23 -->
<g id="edge5" class="edge">
<title>Node21&#45;&gt;Node23</title>
<path fill="none" stroke="#191970" d="M330.1057,-68.9567C333.2895,-60.4241 337.051,-50.3434 340.3016,-41.6318"/>
<polygon fill="#191970" stroke="#191970" points="326.7987,-67.8079 326.5819,-78.4005 333.357,-70.2551 326.7987,-67.8079"/>
</g>
<!-- Node24&#45;&gt;Node20 -->
<g id="edge7" class="edge">
<title>Node24&#45;&gt;Node20</title>
<path fill="none" stroke="#191970" d="M1425.8006,-87.2248C1183.2104,-83.7298 232.1335,-68.4477 101,-42 89.0771,-39.5953 76.3544,-34.8886 66.1518,-30.5396"/>
<polygon fill="#191970" stroke="#191970" points="1426.0959,-90.7293 1436.145,-87.3729 1426.1962,-83.73 1426.0959,-90.7293"/>
</g>
<!-- Node24&#45;&gt;Node22 -->
<g id="edge22" class="edge">
<title>Node24&#45;&gt;Node22</title>
<path fill="none" stroke="#191970" d="M1426.2862,-87.211C1221.7377,-84.103 512.4108,-71.4061 288,-42 277.0039,-40.5591 265.3934,-38.434 254.2433,-36.0815"/>
<polygon fill="#191970" stroke="#191970" points="1426.4411,-90.7136 1436.4926,-87.3645 1426.5464,-83.7144 1426.4411,-90.7136"/>
</g>
<!-- Node24&#45;&gt;Node23 -->
<g id="edge25" class="edge">
<title>Node24&#45;&gt;Node23</title>
<path fill="none" stroke="#191970" d="M1426.0971,-87.7665C1234.6004,-86.6292 605.9656,-80.0193 408,-42 405.0737,-41.438 402.0972,-40.761 399.1137,-39.9994"/>
<polygon fill="#191970" stroke="#191970" points="1426.198,-91.267 1436.2177,-87.8239 1426.2378,-84.2671 1426.198,-91.267"/>
</g>
<!-- Node24&#45;&gt;Node25 -->
<g id="edge8" class="edge">
<title>Node24&#45;&gt;Node25</title>
<path fill="none" stroke="#191970" d="M1426.2036,-86.7311C1254.1198,-82.5757 733.178,-68.1213 566,-42 549.5949,-39.4367 531.6838,-34.83 517.0698,-30.5831"/>
<polygon fill="#191970" stroke="#191970" points="1426.2262,-90.2325 1436.3071,-86.9729 1426.3937,-83.2345 1426.2262,-90.2325"/>
</g>
<!-- Node24&#45;&gt;Node26 -->
<g id="edge9" class="edge">
<title>Node24&#45;&gt;Node26</title>
<path fill="none" stroke="#191970" d="M1426.3778,-86.0968C1274.974,-80.683 857.7406,-64.1459 722,-42 705.8062,-39.358 688.1221,-34.7445 673.6924,-30.5135"/>
<polygon fill="#191970" stroke="#191970" points="1426.2685,-89.5951 1436.3865,-86.4523 1426.5171,-82.5995 1426.2685,-89.5951"/>
</g>
<!-- Node24&#45;&gt;Node27 -->
<g id="edge10" class="edge">
<title>Node24&#45;&gt;Node27</title>
<path fill="none" stroke="#191970" d="M1426.194,-85.4164C1294.9043,-79.0866 969.4722,-61.863 862,-42 847.5272,-39.3251 831.7978,-34.7626 818.9222,-30.5723"/>
<polygon fill="#191970" stroke="#191970" points="1426.2691,-88.9239 1436.4251,-85.9065 1426.6041,-81.9319 1426.2691,-88.9239"/>
</g>
<!-- Node24&#45;&gt;Node28 -->
<g id="edge11" class="edge">
<title>Node24&#45;&gt;Node28</title>
<path fill="none" stroke="#191970" d="M1426.2262,-85.107C1311.4016,-78.811 1052.1494,-62.7506 966,-42 959.7528,-40.4953 953.2705,-38.3706 947.0896,-36.0456"/>
<polygon fill="#191970" stroke="#191970" points="1426.0441,-88.6021 1436.2194,-85.6502 1426.4241,-81.6125 1426.0441,-88.6021"/>
</g>
<!-- Node24&#45;&gt;Node29 -->
<g id="edge12" class="edge">
<title>Node24&#45;&gt;Node29</title>
<path fill="none" stroke="#191970" d="M1426.1246,-84.7506C1350.5449,-79.5835 1211.8552,-67.3669 1096,-42 1088.7017,-40.402 1081.059,-38.3187 1073.6834,-36.0858"/>
<polygon fill="#191970" stroke="#191970" points="1426.1506,-88.26 1436.3614,-85.4335 1426.6166,-81.2756 1426.1506,-88.26"/>
</g>
<!-- Node24&#45;&gt;Node30 -->
<g id="edge13" class="edge">
<title>Node24&#45;&gt;Node30</title>
<path fill="none" stroke="#191970" d="M1426.2359,-80.1961C1374.0662,-72.3738 1294.1734,-59.0551 1226,-42 1219.0973,-40.2731 1211.8597,-38.2022 1204.8233,-36.0433"/>
<polygon fill="#191970" stroke="#191970" points="1425.8833,-83.682 1436.2886,-81.6867 1426.9101,-76.7577 1425.8833,-83.682"/>
</g>
<!-- Node24&#45;&gt;Node31 -->
<g id="edge14" class="edge">
<title>Node24&#45;&gt;Node31</title>
<path fill="none" stroke="#191970" d="M1444.8278,-74.9605C1413.0046,-63.7974 1367.1764,-47.7216 1333.8232,-36.0218"/>
<polygon fill="#191970" stroke="#191970" points="1444.0395,-78.3931 1454.6344,-78.4005 1446.3566,-71.7877 1444.0395,-78.3931"/>
</g>
<!-- Node24&#45;&gt;Node32 -->
<g id="edge15" class="edge">
<title>Node24&#45;&gt;Node32</title>
<path fill="none" stroke="#191970" d="M1466.3946,-70.8597C1456.5978,-60.0992 1444.0835,-46.3541 1434.6765,-36.0218"/>
<polygon fill="#191970" stroke="#191970" points="1463.9399,-73.3624 1473.2602,-78.4005 1469.116,-68.6498 1463.9399,-73.3624"/>
</g>
<!-- Node24&#45;&gt;Node33 -->
<g id="edge16" class="edge">
<title>Node24&#45;&gt;Node33</title>
<path fill="none" stroke="#191970" d="M1500.2359,-71.4892C1512.219,-60.6395 1527.7733,-46.5566 1539.4088,-36.0218"/>
<polygon fill="#191970" stroke="#191970" points="1497.6663,-69.0942 1492.6024,-78.4005 1502.3645,-74.2833 1497.6663,-69.0942"/>
</g>
<!-- Node24&#45;&gt;Node34 -->
<g id="edge17" class="edge">
<title>Node24&#45;&gt;Node34</title>
<path fill="none" stroke="#191970" d="M1522.6436,-75.393C1558.6777,-64.2157 1611.363,-47.8735 1649.5716,-36.0218"/>
<polygon fill="#191970" stroke="#191970" points="1521.4617,-72.095 1512.9475,-78.4005 1523.5355,-78.7807 1521.4617,-72.095"/>
</g>
<!-- Node24&#45;&gt;Node35 -->
<g id="edge18" class="edge">
<title>Node24&#45;&gt;Node35</title>
<path fill="none" stroke="#191970" d="M1537.6878,-81.6909C1596.0679,-74.4761 1690.2254,-61.1369 1770,-42 1772.883,-41.3084 1775.8228,-40.5516 1778.7807,-39.749"/>
<polygon fill="#191970" stroke="#191970" points="1537.0729,-78.2399 1527.5699,-82.9242 1537.92,-85.1884 1537.0729,-78.2399"/>
</g>
<!-- Node24&#45;&gt;Node36 -->
<g id="edge19" class="edge">
<title>Node24&#45;&gt;Node36</title>
<path fill="none" stroke="#191970" d="M1538.0658,-85.4462C1618.8272,-80.9538 1772.2412,-69.371 1900,-42 1902.899,-41.3789 1905.8516,-40.6789 1908.8199,-39.9212"/>
<polygon fill="#191970" stroke="#191970" points="1537.4327,-81.9752 1527.636,-86.0092 1537.8101,-88.965 1537.4327,-81.9752"/>
</g>
<!-- Node24&#45;&gt;Node37 -->
<g id="edge20" class="edge">
<title>Node24&#45;&gt;Node37</title>
<path fill="none" stroke="#191970" d="M1537.5717,-84.5836C1657.3197,-77.018 1936.4249,-58.2343 2030,-42 2046.0801,-39.2103 2063.6553,-34.6892 2078.1373,-30.5552"/>
<polygon fill="#191970" stroke="#191970" points="1537.2764,-81.0952 1527.5159,-85.2162 1537.716,-88.0814 1537.2764,-81.0952"/>
</g>
<!-- Node24&#45;&gt;Node38 -->
<g id="edge21" class="edge">
<title>Node24&#45;&gt;Node38</title>
<path fill="none" stroke="#191970" d="M1538.3016,-85.7272C1682.6279,-79.6771 2063.2114,-62.2518 2188,-42 2204.4418,-39.3317 2222.409,-34.7698 2237.1434,-30.5782"/>
<polygon fill="#191970" stroke="#191970" points="1537.7635,-82.2465 1527.9179,-86.1599 1538.055,-89.2404 1537.7635,-82.2465"/>
</g>
<!-- Node24&#45;&gt;Node39 -->
<g id="edge23" class="edge">
<title>Node24&#45;&gt;Node39</title>
<path fill="none" stroke="#191970" d="M1537.7387,-86.0132C1716.7454,-79.4977 2269.9793,-58.2651 2349,-42 2356.0241,-40.5542 2363.3383,-38.3948 2370.293,-36.0029"/>
<polygon fill="#191970" stroke="#191970" points="1537.6095,-82.5155 1527.7431,-86.3759 1537.8634,-89.5109 1537.6095,-82.5155"/>
</g>
<!-- Node24&#45;&gt;Node40 -->
<g id="edge24" class="edge">
<title>Node24&#45;&gt;Node40</title>
<path fill="none" stroke="#191970" d="M1537.7552,-86.198C1732.1109,-79.8045 2372.8687,-57.7489 2464,-42 2472.267,-40.5713 2480.933,-38.4521 2489.2229,-36.1015"/>
<polygon fill="#191970" stroke="#191970" points="1537.6369,-82.6999 1527.7571,-86.526 1537.8665,-89.6961 1537.6369,-82.6999"/>
</g>
<!-- Node24&#45;&gt;Node41 -->
<g id="edge26" class="edge">
<title>Node24&#45;&gt;Node41</title>
<path fill="none" stroke="#191970" d="M1538.0011,-86.3822C1750.0879,-80.1622 2497.3235,-57.3679 2603,-42 2612.8551,-40.5668 2623.2369,-38.4454 2633.1946,-36.0942"/>
<polygon fill="#191970" stroke="#191970" points="1537.6163,-82.8919 1527.723,-86.683 1537.8211,-89.8889 1537.6163,-82.8919"/>
</g>
<!-- Node24&#45;&gt;Node42 -->
<g id="edge27" class="edge">
<title>Node24&#45;&gt;Node42</title>
<path fill="none" stroke="#191970" d="M1537.7896,-86.4295C1777.124,-79.6377 2707.6131,-52.6569 2769,-42 2777.0561,-40.6014 2785.4891,-38.4642 2793.5304,-36.0793"/>
<polygon fill="#191970" stroke="#191970" points="1537.4758,-82.9369 1527.579,-86.7189 1537.6742,-89.9341 1537.4758,-82.9369"/>
</g>
<!-- Node24&#45;&gt;Node43 -->
<g id="edge28" class="edge">
<title>Node24&#45;&gt;Node43</title>
<path fill="none" stroke="#191970" d="M1538.0256,-86.6153C1792.8266,-80.2629 2832.8264,-53.7186 2901,-42 2909.0584,-40.6148 2917.4925,-38.4838 2925.5341,-36.101"/>
<polygon fill="#191970" stroke="#191970" points="1537.797,-83.1199 1527.8872,-86.8678 1537.9713,-90.1177 1537.797,-83.1199"/>
</g>
</g>
</svg>
        <g id="navigator" transform="translate(0 0)" fill="#404254">
                <rect fill="#f2f5e9" fill-opacity="0.5" stroke="#606060" stroke-width=".5" x="0" y="0" width="60" height="60"/>
                <use id="zoomplus" xlink:href="#zoomPlus" x="17" y="9" onmousedown="handleZoom(evt,'in')"/>
                <use id="zoomminus" xlink:href="#zoomMin" x="42" y="9" onmousedown="handleZoom(evt,'out')"/>
                <use id="reset" xlink:href="#resetDef" x="30" y="36" onmousedown="handleReset()"/>
                <g id="arrowUp" xlink:href="#dirArrow" transform="translate(30 24)" onmousedown="handlePan(0,-1)">
                  <use xlink:href="#rim" fill="#404040">
                        <set attributeName="fill" to="#808080" begin="arrowUp.mouseover" end="arrowUp.mouseout"/>
                  </use>
                  <path fill="none" stroke="white" stroke-width="1.5" d="M0,-3.0v7 M-2.5,-0.5L0,-3.0L2.5,-0.5"/>
                </g>
                <g id="arrowRight" xlink:href="#dirArrow" transform="rotate(90) translate(36 -43)" onmousedown="handlePan(1,0)">
                  <use xlink:href="#rim" fill="#404040">
                        <set attributeName="fill" to="#808080" begin="arrowRight.mouseover" end="arrowRight.mouseout"/>
                  </use>
                  <path fill="none" stroke="white" stroke-width="1.5" d="M0,-3.0v7 M-2.5,-0.5L0,-3.0L2.5,-0.5"/>
                </g>
                <g id="arrowDown" xlink:href="#dirArrow" transform="rotate(180) translate(-30 -48)" onmousedown="handlePan(0,1)">
                  <use xlink:href="#rim" fill="#404040">
                        <set attributeName="fill" to="#808080" begin="arrowDown.mouseover" end="arrowDown.mouseout"/>
                  </use>
                  <path fill="none" stroke="white" stroke-width="1.5" d="M0,-3.0v7 M-2.5,-0.5L0,-3.0L2.5,-0.5"/>
                </g>
                <g id="arrowLeft" xlink:href="#dirArrow" transform="rotate(270) translate(-36 17)" onmousedown="handlePan(-1,0)">
                  <use xlink:href="#rim" fill="#404040">
                        <set attributeName="fill" to="#808080" begin="arrowLeft.mouseover" end="arrowLeft.mouseout"/>
                  </use>
                  <path fill="none" stroke="white" stroke-width="1.5" d="M0,-3.0v7 M-2.5,-0.5L0,-3.0L2.5,-0.5"/>
                </g>
        </g>
        <svg viewBox="0 0 15 15" width="100%" height="30px" preserveAspectRatio="xMaxYMin meet">
         <g id="arrow_out" transform="scale(0.3 0.3)">
          <a xlink:href="field_8h__dep__incl_org.svg" target="_base">
           <rect id="button" ry="5" rx="5" y="6" x="6" height="38" width="38"
                fill="#f2f5e9" fill-opacity="0.5" stroke="#606060" stroke-width="1.0"/>
           <path id="arrow"
             d="M 11.500037,31.436501 C 11.940474,20.09759 22.043105,11.32322 32.158766,21.979434 L 37.068811,17.246167 C 37.068811,17.246167 37.088388,32 37.088388,32 L 22.160133,31.978069 C 22.160133,31.978069 26.997745,27.140456 26.997745,27.140456 C 18.528582,18.264221 13.291696,25.230495 11.500037,31.436501 z"
             style="fill:#404040;"/>
          </a>
         </g>
        </svg>
</svg>
