<?xml version="1.0" encoding="UTF-8" standalone="no"?>
<!DOCTYPE svg PUBLIC "-//W3C//DTD SVG 1.1//EN"
 "http://www.w3.org/Graphics/SVG/1.1/DTD/svg11.dtd">
<!-- Generated by graphviz version 2.40.1 (20161225.0304)
 -->
<!-- Title: Graphical Class Hierarchy Pages: 1 -->
<svg width="185pt" height="66pt"
 viewBox="0.00 0.00 185.00 66.00" xmlns="http://www.w3.org/2000/svg" xmlns:xlink="http://www.w3.org/1999/xlink">
<g id="graph0" class="graph" transform="scale(1 1) rotate(0) translate(4 62)">
<title>Graphical Class Hierarchy</title>
<polygon fill="#ffffff" stroke="transparent" points="-4,4 -4,-62 181,-62 181,4 -4,4"/>
<!-- Node0 -->
<g id="node1" class="node">
<title>Node0</title>
<g id="a_node1"><a xlink:href="classfield.html" target="_top" xlink:title="Definition of the main class of type field. ">
<polygon fill="#ffffff" stroke="#000000" points="0,-19.5 0,-38.5 68,-38.5 68,-19.5 0,-19.5"/>
<text text-anchor="middle" x="34" y="-26.5" font-family="Helvetica,sans-Serif" font-size="10.00" fill="#000000">field&lt; T, t &gt;</text>
</a>
</g>
</g>
<!-- Node1 -->
<g id="node2" class="node">
<title>Node1</title>
<g id="a_node2"><a xlink:href="classgfield.html" target="_top" xlink:title="Derived class gfield. ">
<polygon fill="#ffffff" stroke="#000000" points="104,-38.5 104,-57.5 177,-57.5 177,-38.5 104,-38.5"/>
<text text-anchor="middle" x="140.5" y="-45.5" font-family="Helvetica,sans-Serif" font-size="10.00" fill="#000000">gfield&lt; T, t &gt;</text>
</a>
</g>
</g>
<!-- Node0&#45;&gt;Node1 -->
<g id="edge1" class="edge">
<title>Node0&#45;&gt;Node1</title>
<path fill="none" stroke="#191970" d="M78.3616,-36.9143C86.7968,-38.4191 95.5382,-39.9786 103.7066,-41.4359"/>
<polygon fill="#191970" stroke="#191970" points="78.7428,-33.4271 68.2835,-35.1163 77.5133,-40.3183 78.7428,-33.4271"/>
</g>
<!-- Node2 -->
<g id="node3" class="node">
<title>Node2</title>
<g id="a_node3"><a xlink:href="classlfield.html" target="_top" xlink:title="lfield\&lt; T, t \&gt;">
<polygon fill="#ffffff" stroke="#000000" points="105.5,-.5 105.5,-19.5 175.5,-19.5 175.5,-.5 105.5,-.5"/>
<text text-anchor="middle" x="140.5" y="-7.5" font-family="Helvetica,sans-Serif" font-size="10.00" fill="#000000">lfield&lt; T, t &gt;</text>
</a>
</g>
</g>
<!-- Node0&#45;&gt;Node2 -->
<g id="edge2" class="edge">
<title>Node0&#45;&gt;Node2</title>
<path fill="none" stroke="#191970" d="M78.2241,-21.1103C87.2118,-19.5068 96.553,-17.8403 105.1827,-16.3007"/>
<polygon fill="#191970" stroke="#191970" points="77.5133,-17.6817 68.2835,-22.8837 78.7428,-24.5729 77.5133,-17.6817"/>
</g>
</g>
</svg>
