<?xml version="1.0" encoding="UTF-8" standalone="no"?>
<!DOCTYPE svg PUBLIC "-//W3C//DTD SVG 1.1//EN"
 "http://www.w3.org/Graphics/SVG/1.1/DTD/svg11.dtd">
<!-- Generated by graphviz version 2.40.1 (20161225.0304)
 -->
<!-- Title: main_optimized.cpp Pages: 1 -->
<svg width="1585pt" height="84pt"
 viewBox="0.00 0.00 1584.50 84.00" xmlns="http://www.w3.org/2000/svg" xmlns:xlink="http://www.w3.org/1999/xlink">
<g id="graph0" class="graph" transform="scale(1 1) rotate(0) translate(4 80)">
<title>main_optimized.cpp</title>
<polygon fill="#ffffff" stroke="transparent" points="-4,4 -4,-80 1580.5,-80 1580.5,4 -4,4"/>
<!-- Node0 -->
<g id="node1" class="node">
<title>Node0</title>
<polygon fill="#bfbfbf" stroke="#000000" points="671,-56.5 671,-75.5 775,-75.5 775,-56.5 671,-56.5"/>
<text text-anchor="middle" x="723" y="-63.5" font-family="Helvetica,sans-Serif" font-size="10.00" fill="#000000">main_optimized.cpp</text>
</g>
<!-- Node1 -->
<g id="node2" class="node">
<title>Node1</title>
<polygon fill="#ffffff" stroke="#bfbfbf" points="0,-.5 0,-19.5 46,-19.5 46,-.5 0,-.5"/>
<text text-anchor="middle" x="23" y="-7.5" font-family="Helvetica,sans-Serif" font-size="10.00" fill="#000000">stdio.h</text>
</g>
<!-- Node0&#45;&gt;Node1 -->
<g id="edge1" class="edge">
<title>Node0&#45;&gt;Node1</title>
<path fill="none" stroke="#191970" d="M670.9637,-63.9928C538.7093,-58.6455 191.2109,-42.9972 56.3578,-19.7893"/>
<polygon fill="#191970" stroke="#191970" points="56.7224,-16.2985 46.2587,-17.9601 55.4748,-23.1864 56.7224,-16.2985"/>
</g>
<!-- Node2 -->
<g id="node3" class="node">
<title>Node2</title>
<polygon fill="#ffffff" stroke="#bfbfbf" points="64,-.5 64,-19.5 112,-19.5 112,-.5 64,-.5"/>
<text text-anchor="middle" x="88" y="-7.5" font-family="Helvetica,sans-Serif" font-size="10.00" fill="#000000">stdlib.h</text>
</g>
<!-- Node0&#45;&gt;Node2 -->
<g id="edge2" class="edge">
<title>Node0&#45;&gt;Node2</title>
<path fill="none" stroke="#191970" d="M670.6557,-63.4682C547.9758,-57.3044 243.718,-40.6257 122.1547,-19.7679"/>
<polygon fill="#191970" stroke="#191970" points="122.4631,-16.267 112.0001,-17.9336 121.2187,-23.1555 122.4631,-16.267"/>
</g>
<!-- Node3 -->
<g id="node4" class="node">
<title>Node3</title>
<polygon fill="#ffffff" stroke="#bfbfbf" points="130.5,-.5 130.5,-19.5 171.5,-19.5 171.5,-.5 130.5,-.5"/>
<text text-anchor="middle" x="151" y="-7.5" font-family="Helvetica,sans-Serif" font-size="10.00" fill="#000000">mpi.h</text>
</g>
<!-- Node0&#45;&gt;Node3 -->
<g id="edge3" class="edge">
<title>Node0&#45;&gt;Node3</title>
<path fill="none" stroke="#191970" d="M670.5859,-63.2167C556.9802,-56.9235 290.1682,-40.6713 181.7246,-19.8663"/>
<polygon fill="#191970" stroke="#191970" points="182.2312,-16.3979 171.7348,-17.8389 180.8389,-23.258 182.2312,-16.3979"/>
</g>
<!-- Node4 -->
<g id="node5" class="node">
<title>Node4</title>
<polygon fill="#ffffff" stroke="#bfbfbf" points="189.5,-.5 189.5,-19.5 230.5,-19.5 230.5,-.5 189.5,-.5"/>
<text text-anchor="middle" x="210" y="-7.5" font-family="Helvetica,sans-Serif" font-size="10.00" fill="#000000">ctime</text>
</g>
<!-- Node0&#45;&gt;Node4 -->
<g id="edge4" class="edge">
<title>Node0&#45;&gt;Node4</title>
<path fill="none" stroke="#191970" d="M670.9516,-64.8991C583.6234,-62.2155 402.1622,-53.0554 240.9143,-19.7343"/>
<polygon fill="#191970" stroke="#191970" points="241.3201,-16.2431 230.8137,-17.6094 239.8789,-23.0931 241.3201,-16.2431"/>
</g>
<!-- Node5 -->
<g id="node6" class="node">
<title>Node5</title>
<polygon fill="#ffffff" stroke="#bfbfbf" points="249,-.5 249,-19.5 311,-19.5 311,-.5 249,-.5"/>
<text text-anchor="middle" x="280" y="-7.5" font-family="Helvetica,sans-Serif" font-size="10.00" fill="#000000">complex.h</text>
</g>
<!-- Node0&#45;&gt;Node5 -->
<g id="edge5" class="edge">
<title>Node0&#45;&gt;Node5</title>
<path fill="none" stroke="#191970" d="M670.8327,-62.2473C595.6623,-56.3561 452.4065,-43.3229 321.5583,-20.0898"/>
<polygon fill="#191970" stroke="#191970" points="321.8203,-16.5808 311.3583,-18.2532 320.5798,-23.47 321.8203,-16.5808"/>
</g>
<!-- Node6 -->
<g id="node7" class="node">
<title>Node6</title>
<polygon fill="#ffffff" stroke="#bfbfbf" points="329,-.5 329,-19.5 411,-19.5 411,-.5 329,-.5"/>
<text text-anchor="middle" x="370" y="-7.5" font-family="Helvetica,sans-Serif" font-size="10.00" fill="#000000">../su3_matrix.h</text>
</g>
<!-- Node0&#45;&gt;Node6 -->
<g id="edge6" class="edge">
<title>Node0&#45;&gt;Node6</title>
<path fill="none" stroke="#191970" d="M670.8721,-58.8413C612.4709,-50.6522 514.7418,-36.4448 421.0968,-20.1324"/>
<polygon fill="#191970" stroke="#191970" points="421.6261,-16.6719 411.172,-18.3928 420.4176,-23.5668 421.6261,-16.6719"/>
</g>
<!-- Node7 -->
<g id="node8" class="node">
<title>Node7</title>
<polygon fill="#ffffff" stroke="#bfbfbf" points="429.5,-.5 429.5,-19.5 490.5,-19.5 490.5,-.5 429.5,-.5"/>
<text text-anchor="middle" x="460" y="-7.5" font-family="Helvetica,sans-Serif" font-size="10.00" fill="#000000">../matrix.h</text>
</g>
<!-- Node0&#45;&gt;Node7 -->
<g id="edge7" class="edge">
<title>Node0&#45;&gt;Node7</title>
<path fill="none" stroke="#191970" d="M673.7131,-56.4442C630.6521,-47.9577 566.2176,-34.9283 500.6478,-20.076"/>
<polygon fill="#191970" stroke="#191970" points="501.0711,-16.5829 490.5436,-17.7747 499.5166,-23.4081 501.0711,-16.5829"/>
</g>
<!-- Node8 -->
<g id="node9" class="node">
<title>Node8</title>
<polygon fill="#ffffff" stroke="#bfbfbf" points="509,-.5 509,-19.5 569,-19.5 569,-.5 509,-.5"/>
<text text-anchor="middle" x="539" y="-7.5" font-family="Helvetica,sans-Serif" font-size="10.00" fill="#000000">../config.h</text>
</g>
<!-- Node0&#45;&gt;Node8 -->
<g id="edge8" class="edge">
<title>Node0&#45;&gt;Node8</title>
<path fill="none" stroke="#191970" d="M691.3693,-56.3733C660.3611,-46.936 612.9715,-32.5131 579.284,-22.2604"/>
<polygon fill="#191970" stroke="#191970" points="579.8883,-18.7858 569.3025,-19.2225 577.8502,-25.4825 579.8883,-18.7858"/>
</g>
<!-- Node9 -->
<g id="node10" class="node">
<title>Node9</title>
<polygon fill="#ffffff" stroke="#bfbfbf" points="587.5,-.5 587.5,-19.5 634.5,-19.5 634.5,-.5 587.5,-.5"/>
<text text-anchor="middle" x="611" y="-7.5" font-family="Helvetica,sans-Serif" font-size="10.00" fill="#000000">fftw3.h</text>
</g>
<!-- Node0&#45;&gt;Node9 -->
<g id="edge9" class="edge">
<title>Node0&#45;&gt;Node9</title>
<path fill="none" stroke="#191970" d="M703.7465,-56.3733C685.9288,-47.4644 659.2253,-34.1127 639.0406,-24.0203"/>
<polygon fill="#191970" stroke="#191970" points="640.5118,-20.8428 630.0022,-19.5011 637.3813,-27.1038 640.5118,-20.8428"/>
</g>
<!-- Node10 -->
<g id="node11" class="node">
<title>Node10</title>
<polygon fill="#ffffff" stroke="#bfbfbf" points="652.5,-.5 652.5,-19.5 717.5,-19.5 717.5,-.5 652.5,-.5"/>
<text text-anchor="middle" x="685" y="-7.5" font-family="Helvetica,sans-Serif" font-size="10.00" fill="#000000">fftw3&#45;mpi.h</text>
</g>
<!-- Node0&#45;&gt;Node10 -->
<g id="edge10" class="edge">
<title>Node0&#45;&gt;Node10</title>
<path fill="none" stroke="#191970" d="M716.3809,-56.2455C711.0954,-48.4564 703.5459,-37.3308 697.1762,-27.9439"/>
<polygon fill="#191970" stroke="#191970" points="700.0545,-25.9522 691.5432,-19.6427 694.2621,-29.8827 700.0545,-25.9522"/>
</g>
<!-- Node11 -->
<g id="node12" class="node">
<title>Node11</title>
<polygon fill="#ffffff" stroke="#bfbfbf" points="736,-.5 736,-19.5 788,-19.5 788,-.5 736,-.5"/>
<text text-anchor="middle" x="762" y="-7.5" font-family="Helvetica,sans-Serif" font-size="10.00" fill="#000000">../field.h</text>
</g>
<!-- Node0&#45;&gt;Node11 -->
<g id="edge11" class="edge">
<title>Node0&#45;&gt;Node11</title>
<path fill="none" stroke="#191970" d="M729.7933,-56.2455C735.2178,-48.4564 742.9661,-37.3308 749.5033,-27.9439"/>
<polygon fill="#191970" stroke="#191970" points="752.4417,-29.849 755.2846,-19.6427 746.6975,-25.8485 752.4417,-29.849"/>
</g>
<!-- Node12 -->
<g id="node13" class="node">
<title>Node12</title>
<polygon fill="#ffffff" stroke="#bfbfbf" points="806,-.5 806,-19.5 906,-19.5 906,-.5 806,-.5"/>
<text text-anchor="middle" x="856" y="-7.5" font-family="Helvetica,sans-Serif" font-size="10.00" fill="#000000">../mpi_fftw_class.h</text>
</g>
<!-- Node0&#45;&gt;Node12 -->
<g id="edge12" class="edge">
<title>Node0&#45;&gt;Node12</title>
<path fill="none" stroke="#191970" d="M745.8635,-56.3733C767.405,-47.3032 799.8838,-33.6279 823.9956,-23.4755"/>
<polygon fill="#191970" stroke="#191970" points="825.5767,-26.6075 833.4348,-19.5011 822.8603,-20.156 825.5767,-26.6075"/>
</g>
<!-- Node13 -->
<g id="node14" class="node">
<title>Node13</title>
<polygon fill="#ffffff" stroke="#bfbfbf" points="924,-.5 924,-19.5 968,-19.5 968,-.5 924,-.5"/>
<text text-anchor="middle" x="946" y="-7.5" font-family="Helvetica,sans-Serif" font-size="10.00" fill="#000000">omp.h</text>
</g>
<!-- Node0&#45;&gt;Node13 -->
<g id="edge13" class="edge">
<title>Node0&#45;&gt;Node13</title>
<path fill="none" stroke="#191970" d="M767.095,-56.4487C804.0348,-48.22 858.3319,-35.5987 914.033,-20.1293"/>
<polygon fill="#191970" stroke="#191970" points="915.0271,-23.4856 923.7111,-17.4162 913.1376,-16.7454 915.0271,-23.4856"/>
</g>
<!-- Node14 -->
<g id="node15" class="node">
<title>Node14</title>
<polygon fill="#ffffff" stroke="#bfbfbf" points="986.5,-.5 986.5,-19.5 1033.5,-19.5 1033.5,-.5 986.5,-.5"/>
<text text-anchor="middle" x="1010" y="-7.5" font-family="Helvetica,sans-Serif" font-size="10.00" fill="#000000">math.h</text>
</g>
<!-- Node0&#45;&gt;Node14 -->
<g id="edge14" class="edge">
<title>Node0&#45;&gt;Node14</title>
<path fill="none" stroke="#191970" d="M775.4184,-58.3133C824.8179,-50.6643 901.05,-37.8201 976.1854,-19.9733"/>
<polygon fill="#191970" stroke="#191970" points="977.3934,-23.2826 986.2965,-17.5392 975.755,-16.477 977.3934,-23.2826"/>
</g>
<!-- Node15 -->
<g id="node16" class="node">
<title>Node15</title>
<polygon fill="#ffffff" stroke="#bfbfbf" points="1052,-.5 1052,-19.5 1130,-19.5 1130,-.5 1052,-.5"/>
<text text-anchor="middle" x="1091" y="-7.5" font-family="Helvetica,sans-Serif" font-size="10.00" fill="#000000">../mpi_class.h</text>
</g>
<!-- Node0&#45;&gt;Node15 -->
<g id="edge15" class="edge">
<title>Node0&#45;&gt;Node15</title>
<path fill="none" stroke="#191970" d="M775.2605,-59.5093C836.7025,-51.6505 941.9677,-37.4774 1041.7932,-20.1302"/>
<polygon fill="#191970" stroke="#191970" points="1042.4997,-23.5598 1051.7458,-18.3868 1041.2919,-16.6648 1042.4997,-23.5598"/>
</g>
<!-- Node16 -->
<g id="node17" class="node">
<title>Node16</title>
<polygon fill="#ffffff" stroke="#bfbfbf" points="1148,-.5 1148,-19.5 1222,-19.5 1222,-.5 1148,-.5"/>
<text text-anchor="middle" x="1185" y="-7.5" font-family="Helvetica,sans-Serif" font-size="10.00" fill="#000000">../momenta.h</text>
</g>
<!-- Node0&#45;&gt;Node16 -->
<g id="edge16" class="edge">
<title>Node0&#45;&gt;Node16</title>
<path fill="none" stroke="#191970" d="M775.1195,-61.9878C852.2113,-55.6684 1001.3376,-41.974 1137.6946,-20.0702"/>
<polygon fill="#191970" stroke="#191970" points="1138.5974,-23.4695 1147.9063,-18.4104 1137.4742,-16.5602 1138.5974,-23.4695"/>
</g>
<!-- Node17 -->
<g id="node18" class="node">
<title>Node17</title>
<polygon fill="#ffffff" stroke="#bfbfbf" points="1240.5,-.5 1240.5,-19.5 1313.5,-19.5 1313.5,-.5 1240.5,-.5"/>
<text text-anchor="middle" x="1277" y="-7.5" font-family="Helvetica,sans-Serif" font-size="10.00" fill="#000000">../positions.h</text>
</g>
<!-- Node0&#45;&gt;Node17 -->
<g id="edge17" class="edge">
<title>Node0&#45;&gt;Node17</title>
<path fill="none" stroke="#191970" d="M775.18,-63.4105C865.7566,-58.45 1058.0603,-45.8641 1230.4043,-19.907"/>
<polygon fill="#191970" stroke="#191970" points="1231.0597,-23.3476 1240.4178,-18.3802 1230.0045,-16.4276 1231.0597,-23.3476"/>
</g>
<!-- Node18 -->
<g id="node19" class="node">
<title>Node18</title>
<polygon fill="#ffffff" stroke="#bfbfbf" points="1331.5,-.5 1331.5,-19.5 1412.5,-19.5 1412.5,-.5 1331.5,-.5"/>
<text text-anchor="middle" x="1372" y="-7.5" font-family="Helvetica,sans-Serif" font-size="10.00" fill="#000000">../rand_class.h</text>
</g>
<!-- Node0&#45;&gt;Node18 -->
<g id="edge18" class="edge">
<title>Node0&#45;&gt;Node18</title>
<path fill="none" stroke="#191970" d="M775.0002,-64.1986C877.6607,-60.1688 1113.732,-48.5556 1321.2533,-20.0984"/>
<polygon fill="#191970" stroke="#191970" points="1322.0016,-23.5282 1331.4255,-18.6867 1321.0392,-16.5946 1322.0016,-23.5282"/>
</g>
<!-- Node19 -->
<g id="node20" class="node">
<title>Node19</title>
<polygon fill="#ffffff" stroke="#bfbfbf" points="1430.5,-.5 1430.5,-19.5 1507.5,-19.5 1507.5,-.5 1430.5,-.5"/>
<text text-anchor="middle" x="1469" y="-7.5" font-family="Helvetica,sans-Serif" font-size="10.00" fill="#000000">../MV_class.h</text>
</g>
<!-- Node0&#45;&gt;Node19 -->
<g id="edge19" class="edge">
<title>Node0&#45;&gt;Node19</title>
<path fill="none" stroke="#191970" d="M775.4347,-65.1235C890.5437,-62.645 1174.079,-53.5112 1420.1392,-20.0882"/>
<polygon fill="#191970" stroke="#191970" points="1420.9193,-23.5139 1430.3492,-18.6842 1419.9657,-16.5792 1420.9193,-23.5139"/>
</g>
<!-- Node20 -->
<g id="node21" class="node">
<title>Node20</title>
<polygon fill="#ffffff" stroke="#bfbfbf" points="1525.5,-.5 1525.5,-19.5 1576.5,-19.5 1576.5,-.5 1525.5,-.5"/>
<text text-anchor="middle" x="1551" y="-7.5" font-family="Helvetica,sans-Serif" font-size="10.00" fill="#000000">numeric</text>
</g>
<!-- Node0&#45;&gt;Node20 -->
<g id="edge20" class="edge">
<title>Node0&#45;&gt;Node20</title>
<path fill="none" stroke="#191970" d="M775.2153,-64.5301C924.9194,-60.0748 1354.6409,-45.5403 1514.9891,-19.963"/>
<polygon fill="#191970" stroke="#191970" points="1515.8701,-23.3643 1525.1556,-18.2622 1514.7151,-16.4602 1515.8701,-23.3643"/>
</g>
</g>
</svg>
