<?xml version="1.0" encoding="UTF-8" standalone="no"?>
<!DOCTYPE svg PUBLIC "-//W3C//DTD SVG 1.1//EN"
 "http://www.w3.org/Graphics/SVG/1.1/DTD/svg11.dtd">
<!-- Generated by graphviz version 2.40.1 (20161225.0304)
 -->
<!-- Title: main Pages: 1 -->
<!--zoomable 994 -->
<svg id="main" version="1.1" xmlns="http://www.w3.org/2000/svg" xmlns:xlink="http://www.w3.org/1999/xlink" xml:space="preserve" onload="init(evt)">
<style type="text/css"><![CDATA[
.edge:hover path { stroke: red; }
.edge:hover polygon { stroke: red; fill: red; }
]]></style>
<script type="text/javascript"><![CDATA[
var edges = document.getElementsByTagName('g');
if (edges && edges.length) {
  for (var i=0;i<edges.length;i++) {
    if (edges[i].id.substr(0,4)=='edge') {
      edges[i].setAttribute('class','edge');
    }
  }
}
]]></script>
        <defs>
                <circle id="rim" cx="0" cy="0" r="7"/>
                <circle id="rim2" cx="0" cy="0" r="3.5"/>
                <g id="zoomPlus">
                        <use xlink:href="#rim" fill="#404040">
                                <set attributeName="fill" to="#808080" begin="zoomplus.mouseover" end="zoomplus.mouseout"/>
                        </use>
                        <path d="M-4,0h8M0,-4v8" fill="none" stroke="white" stroke-width="1.5" pointer-events="none"/>
                </g>
                <g id="zoomMin">
                        <use xlink:href="#rim" fill="#404040">
                                <set attributeName="fill" to="#808080" begin="zoomminus.mouseover" end="zoomminus.mouseout"/>
                        </use>
                        <path d="M-4,0h8" fill="none" stroke="white" stroke-width="1.5" pointer-events="none"/>
                </g>
                <g id="dirArrow">
                        <path fill="none" stroke="white" stroke-width="1.5" d="M0,-3.0v7 M-2.5,-0.5L0,-3.0L2.5,-0.5"/>
                </g>
               <g id="resetDef">
                       <use xlink:href="#rim2" fill="#404040">
                               <set attributeName="fill" to="#808080" begin="reset.mouseover" end="reset.mouseout"/>
                       </use>
               </g>
        </defs>

<script type="text/javascript">
var viewWidth = 524;
var viewHeight = 994;
var sectionId = 'dynsection-1';
</script>
<script xlink:href="svgpan.js"/>
<svg id="graph" class="graph">
<g id="viewport">
<title>main</title>
<polygon fill="#ffffff" stroke="transparent" points="-4,4 -4,-990 520,-990 520,4 -4,4"/>
<!-- Node0 -->
<g id="node1" class="node">
<title>Node0</title>
<polygon fill="#bfbfbf" stroke="#000000" points="0,-491.5 0,-510.5 38,-510.5 38,-491.5 0,-491.5"/>
<text text-anchor="middle" x="19" y="-498.5" font-family="Helvetica,sans-Serif" font-size="10.00" fill="#000000">main</text>
</g>
<!-- Node1 -->
<g id="node2" class="node">
<title>Node1</title>
<g id="a_node2"><a xlink:href="classgfield.html#a0dcff590c53a428a50567d25d10404e2" target="_top" xlink:title="gfield::allgather">
<polygon fill="#ffffff" stroke="#000000" points="108,-947.5 108,-966.5 191,-966.5 191,-947.5 108,-947.5"/>
<text text-anchor="middle" x="149.5" y="-954.5" font-family="Helvetica,sans-Serif" font-size="10.00" fill="#000000">gfield::allgather</text>
</a>
</g>
</g>
<!-- Node0&#45;&gt;Node1 -->
<g id="edge1" class="edge">
<title>Node0&#45;&gt;Node1</title>
<path fill="none" stroke="#191970" d="M19.5604,-510.5301C23.2246,-571.4388 44.5351,-904.7241 74,-938 80.3843,-945.2101 89.0632,-949.8785 98.265,-952.8616"/>
<polygon fill="#191970" stroke="#191970" points="97.4092,-956.2554 107.9691,-955.396 99.1782,-949.4826 97.4092,-956.2554"/>
</g>
<!-- Node5 -->
<g id="node6" class="node">
<title>Node5</title>
<g id="a_node6"><a xlink:href="classgmatrix.html#a0de07e5d50c35e6eb9e17981d5094730" target="_top" xlink:title="gmatrix::decompose">
<polygon fill="#ffffff" stroke="#000000" points="97,-909.5 97,-928.5 202,-928.5 202,-909.5 97,-909.5"/>
<text text-anchor="middle" x="149.5" y="-916.5" font-family="Helvetica,sans-Serif" font-size="10.00" fill="#000000">gmatrix::decompose</text>
</a>
</g>
</g>
<!-- Node0&#45;&gt;Node5 -->
<g id="edge5" class="edge">
<title>Node0&#45;&gt;Node5</title>
<path fill="none" stroke="#191970" d="M19.7001,-510.8118C23.9543,-569.2505 47.0517,-869.925 74,-900 77.7771,-904.2153 82.3386,-907.56 87.3269,-910.206"/>
<polygon fill="#191970" stroke="#191970" points="86.1214,-913.4979 96.6894,-914.2516 88.898,-907.0721 86.1214,-913.4979"/>
</g>
<!-- Node6 -->
<g id="node7" class="node">
<title>Node6</title>
<g id="a_node7"><a xlink:href="classfftw2D.html#a083ad6c7e788b6f2180f657fdfba2ee8" target="_top" xlink:title="fftw2D::execute2D">
<polygon fill="#ffffff" stroke="#000000" points="100,-871.5 100,-890.5 199,-890.5 199,-871.5 100,-871.5"/>
<text text-anchor="middle" x="149.5" y="-878.5" font-family="Helvetica,sans-Serif" font-size="10.00" fill="#000000">fftw2D::execute2D</text>
</a>
</g>
</g>
<!-- Node0&#45;&gt;Node6 -->
<g id="edge6" class="edge">
<title>Node0&#45;&gt;Node6</title>
<path fill="none" stroke="#191970" d="M19.0811,-510.7467C19.7151,-562.8775 25.2825,-808.4012 74,-862 78.5811,-867.0401 84.284,-870.8322 90.4896,-873.6723"/>
<polygon fill="#191970" stroke="#191970" points="89.2767,-876.9554 99.869,-877.1867 91.7329,-870.4005 89.2767,-876.9554"/>
</g>
<!-- Node7 -->
<g id="node8" class="node">
<title>Node7</title>
<g id="a_node8"><a xlink:href="field_8h.html#a87926e17588c01dfa811c26d05bf8792" target="_top" xlink:title="generate_gaussian">
<polygon fill="#ffffff" stroke="#000000" points="100.5,-833.5 100.5,-852.5 198.5,-852.5 198.5,-833.5 100.5,-833.5"/>
<text text-anchor="middle" x="149.5" y="-840.5" font-family="Helvetica,sans-Serif" font-size="10.00" fill="#000000">generate_gaussian</text>
</a>
</g>
</g>
<!-- Node0&#45;&gt;Node7 -->
<g id="edge7" class="edge">
<title>Node0&#45;&gt;Node7</title>
<path fill="none" stroke="#191970" d="M19.3614,-510.7898C21.3343,-559.0447 32.2976,-771.1772 74,-819 78.6158,-824.2932 84.3941,-828.4297 90.6874,-831.6603"/>
<polygon fill="#191970" stroke="#191970" points="89.6332,-835.0176 100.2009,-835.7745 92.4117,-828.5927 89.6332,-835.0176"/>
</g>
<!-- Node8 -->
<g id="node9" class="node">
<title>Node8</title>
<g id="a_node9"><a xlink:href="field_8h.html#ab1991c064deb041673a7fd9e56ddcc0b" target="_top" xlink:title="generate_gaussian_with\l_noise_coupling_constant">
<polygon fill="#ffffff" stroke="#000000" points="85,-442 85,-472 214,-472 214,-442 85,-442"/>
<text text-anchor="start" x="93" y="-460" font-family="Helvetica,sans-Serif" font-size="10.00" fill="#000000">generate_gaussian_with</text>
<text text-anchor="middle" x="149.5" y="-449" font-family="Helvetica,sans-Serif" font-size="10.00" fill="#000000">_noise_coupling_constant</text>
</a>
</g>
</g>
<!-- Node0&#45;&gt;Node8 -->
<g id="edge8" class="edge">
<title>Node0&#45;&gt;Node8</title>
<path fill="none" stroke="#191970" d="M38.0696,-494.3448C48.6446,-490.6712 62.038,-486.0464 74,-482 80.4151,-479.8299 87.1434,-477.5737 93.8294,-475.3441"/>
<polygon fill="#191970" stroke="#191970" points="95.1695,-478.5869 103.5535,-472.1094 92.96,-471.9448 95.1695,-478.5869"/>
</g>
<!-- Node10 -->
<g id="node11" class="node">
<title>Node10</title>
<g id="a_node11"><a xlink:href="classmpi__class.html#ab876ade2f1b994bb1c920d1de9375cf6" target="_top" xlink:title="mpi_class::getPosX">
<polygon fill="#ffffff" stroke="#000000" points="272,-795.5 272,-814.5 376,-814.5 376,-795.5 272,-795.5"/>
<text text-anchor="middle" x="324" y="-802.5" font-family="Helvetica,sans-Serif" font-size="10.00" fill="#000000">mpi_class::getPosX</text>
</a>
</g>
</g>
<!-- Node0&#45;&gt;Node10 -->
<g id="edge10" class="edge">
<title>Node0&#45;&gt;Node10</title>
<path fill="none" stroke="#191970" d="M19.3499,-510.5625C21.2183,-555.8565 31.5859,-748.1949 74,-786 100.7954,-809.8836 196.8282,-810.8794 261.7651,-808.5652"/>
<polygon fill="#191970" stroke="#191970" points="262.0493,-812.0568 271.9047,-808.1683 261.7755,-805.0622 262.0493,-812.0568"/>
</g>
<!-- Node11 -->
<g id="node12" class="node">
<title>Node11</title>
<g id="a_node12"><a xlink:href="classmpi__class.html#aa894e45879f0e9a081efd4d4118b2491" target="_top" xlink:title="mpi_class::getPosY">
<polygon fill="#ffffff" stroke="#000000" points="272,-719.5 272,-738.5 376,-738.5 376,-719.5 272,-719.5"/>
<text text-anchor="middle" x="324" y="-726.5" font-family="Helvetica,sans-Serif" font-size="10.00" fill="#000000">mpi_class::getPosY</text>
</a>
</g>
</g>
<!-- Node0&#45;&gt;Node11 -->
<g id="edge11" class="edge">
<title>Node0&#45;&gt;Node11</title>
<path fill="none" stroke="#191970" d="M20.0759,-510.6694C24.4632,-548.2177 42.2919,-683.5806 74,-710 130.1949,-756.822 220.3346,-750.3617 275.6427,-740.3948"/>
<polygon fill="#191970" stroke="#191970" points="276.3816,-743.8171 285.5486,-738.505 275.0698,-736.9411 276.3816,-743.8171"/>
</g>
<!-- Node12 -->
<g id="node13" class="node">
<title>Node12</title>
<g id="a_node13"><a xlink:href="classfftw2D.html#a63f6a1404cba25536f52b693f1f85a50" target="_top" xlink:title="fftw2D::init2D">
<polygon fill="#ffffff" stroke="#000000" points="111,-681.5 111,-700.5 188,-700.5 188,-681.5 111,-681.5"/>
<text text-anchor="middle" x="149.5" y="-688.5" font-family="Helvetica,sans-Serif" font-size="10.00" fill="#000000">fftw2D::init2D</text>
</a>
</g>
</g>
<!-- Node0&#45;&gt;Node12 -->
<g id="edge12" class="edge">
<title>Node0&#45;&gt;Node12</title>
<path fill="none" stroke="#191970" d="M20.8089,-510.5328C27.1657,-543.0648 49.4273,-648.9667 74,-672 81.47,-679.002 91.1298,-683.5238 101.0293,-686.4201"/>
<polygon fill="#191970" stroke="#191970" points="100.395,-689.8674 110.9366,-688.8063 102.0342,-683.062 100.395,-689.8674"/>
</g>
<!-- Node13 -->
<g id="node14" class="node">
<title>Node13</title>
<g id="a_node14"><a xlink:href="classmpi__class.html#a995c216b811090aa6255523e0e2a8e8a" target="_top" xlink:title="mpi_class::mpi_exchange_grid">
<polygon fill="#ffffff" stroke="#000000" points="74,-643.5 74,-662.5 225,-662.5 225,-643.5 74,-643.5"/>
<text text-anchor="middle" x="149.5" y="-650.5" font-family="Helvetica,sans-Serif" font-size="10.00" fill="#000000">mpi_class::mpi_exchange_grid</text>
</a>
</g>
</g>
<!-- Node0&#45;&gt;Node13 -->
<g id="edge13" class="edge">
<title>Node0&#45;&gt;Node13</title>
<path fill="none" stroke="#191970" d="M20.0641,-510.7449C23.2885,-535.37 35.2418,-600.5101 74,-634 75.9687,-635.7011 78.0683,-637.2539 80.2679,-638.6709"/>
<polygon fill="#191970" stroke="#191970" points="78.7213,-641.8135 89.1825,-643.4906 82.0505,-635.6558 78.7213,-641.8135"/>
</g>
<!-- Node14 -->
<g id="node15" class="node">
<title>Node14</title>
<g id="a_node15"><a xlink:href="classmpi__class.html#a0326e6a2416b3aacd64a3dcc84ddb79b" target="_top" xlink:title="mpi_class::mpi_init">
<polygon fill="#ffffff" stroke="#000000" points="99,-605.5 99,-624.5 200,-624.5 200,-605.5 99,-605.5"/>
<text text-anchor="middle" x="149.5" y="-612.5" font-family="Helvetica,sans-Serif" font-size="10.00" fill="#000000">mpi_class::mpi_init</text>
</a>
</g>
</g>
<!-- Node0&#45;&gt;Node14 -->
<g id="edge14" class="edge">
<title>Node0&#45;&gt;Node14</title>
<path fill="none" stroke="#191970" d="M21.7333,-510.5024C27.7817,-529.7685 44.1796,-573.5055 74,-596 78.5186,-599.4085 83.579,-602.2103 88.8831,-604.5126"/>
<polygon fill="#191970" stroke="#191970" points="88.0366,-607.9321 98.6294,-608.1407 90.4787,-601.3719 88.0366,-607.9321"/>
</g>
<!-- Node15 -->
<g id="node16" class="node">
<title>Node15</title>
<g id="a_node16"><a xlink:href="classgfield.html#af2d8ebec3637f4c70324937be433ed21" target="_top" xlink:title="gfield::multiplyByCholesky">
<polygon fill="#ffffff" stroke="#000000" points="83,-567.5 83,-586.5 216,-586.5 216,-567.5 83,-567.5"/>
<text text-anchor="middle" x="149.5" y="-574.5" font-family="Helvetica,sans-Serif" font-size="10.00" fill="#000000">gfield::multiplyByCholesky</text>
</a>
</g>
</g>
<!-- Node0&#45;&gt;Node15 -->
<g id="edge15" class="edge">
<title>Node0&#45;&gt;Node15</title>
<path fill="none" stroke="#191970" d="M25.6203,-510.667C34.9137,-523.4783 53.0556,-545.8715 74,-558 77.8544,-560.232 81.9676,-562.2042 86.2089,-563.9466"/>
<polygon fill="#191970" stroke="#191970" points="85.0545,-567.2511 95.6482,-567.4052 87.4628,-560.6784 85.0545,-567.2511"/>
</g>
<!-- Node16 -->
<g id="node17" class="node">
<title>Node16</title>
<g id="a_node17"><a xlink:href="field_8h.html#ae43c2aa5da993ce8ed28c1953c02805a" target="_top" xlink:title="prepare_A_and_B_local">
<polygon fill="#ffffff" stroke="#000000" points="90,-114.5 90,-133.5 209,-133.5 209,-114.5 90,-114.5"/>
<text text-anchor="middle" x="149.5" y="-121.5" font-family="Helvetica,sans-Serif" font-size="10.00" fill="#000000">prepare_A_and_B_local</text>
</a>
</g>
</g>
<!-- Node0&#45;&gt;Node16 -->
<g id="edge16" class="edge">
<title>Node0&#45;&gt;Node16</title>
<path fill="none" stroke="#191970" d="M19.0937,-491.3336C19.793,-439.6324 25.645,-196.1334 74,-143 76.0896,-140.704 78.4119,-138.667 80.9085,-136.861"/>
<polygon fill="#191970" stroke="#191970" points="83.1069,-139.6308 89.983,-131.5704 79.5811,-133.5835 83.1069,-139.6308"/>
</g>
<!-- Node20 -->
<g id="node21" class="node">
<title>Node20</title>
<g id="a_node21"><a xlink:href="field_8h.html#a775fa9c6bfba32acd280006a6fd3e524" target="_top" xlink:title="prepare_A_local">
<polygon fill="#ffffff" stroke="#000000" points="106.5,-529.5 106.5,-548.5 192.5,-548.5 192.5,-529.5 106.5,-529.5"/>
<text text-anchor="middle" x="149.5" y="-536.5" font-family="Helvetica,sans-Serif" font-size="10.00" fill="#000000">prepare_A_local</text>
</a>
</g>
</g>
<!-- Node0&#45;&gt;Node20 -->
<g id="edge20" class="edge">
<title>Node0&#45;&gt;Node20</title>
<path fill="none" stroke="#191970" d="M38.2131,-508.0921C48.7155,-511.8534 61.9947,-516.423 74,-520 82.1,-522.4134 90.7476,-524.7815 99.192,-526.9823"/>
<polygon fill="#191970" stroke="#191970" points="98.4113,-530.3952 108.9667,-529.4817 100.1455,-523.6134 98.4113,-530.3952"/>
</g>
<!-- Node23 -->
<g id="node24" class="node">
<title>Node23</title>
<g id="a_node24"><a xlink:href="field_8h.html#a463f2cc1e2cd9fa4d1fc3f800835a2aa" target="_top" xlink:title="print">
<polygon fill="#ffffff" stroke="#000000" points="132,-757.5 132,-776.5 167,-776.5 167,-757.5 132,-757.5"/>
<text text-anchor="middle" x="149.5" y="-764.5" font-family="Helvetica,sans-Serif" font-size="10.00" fill="#000000">print</text>
</a>
</g>
</g>
<!-- Node0&#45;&gt;Node23 -->
<g id="edge26" class="edge">
<title>Node0&#45;&gt;Node23</title>
<path fill="none" stroke="#191970" d="M19.9127,-510.5346C23.9639,-550.9555 41.565,-707.7086 74,-743 86.2155,-756.2913 105.751,-762.2624 121.8897,-764.9256"/>
<polygon fill="#191970" stroke="#191970" points="121.5225,-768.4074 131.8936,-766.2418 122.4356,-761.4672 121.5225,-768.4074"/>
</g>
<!-- Node25 -->
<g id="node26" class="node">
<title>Node25</title>
<g id="a_node26"><a xlink:href="classconfig.html#a3db5cd0b2853fec8841e85403af5548f" target="_top" xlink:title="config::read_config\l_from_file">
<polygon fill="#ffffff" stroke="#000000" points="100,-393 100,-423 199,-423 199,-393 100,-393"/>
<text text-anchor="start" x="108" y="-411" font-family="Helvetica,sans-Serif" font-size="10.00" fill="#000000">config::read_config</text>
<text text-anchor="middle" x="149.5" y="-400" font-family="Helvetica,sans-Serif" font-size="10.00" fill="#000000">_from_file</text>
</a>
</g>
</g>
<!-- Node0&#45;&gt;Node25 -->
<g id="edge32" class="edge">
<title>Node0&#45;&gt;Node25</title>
<path fill="none" stroke="#191970" d="M24.4334,-491.1804C33.0629,-476.4591 51.2742,-448.7227 74,-433 78.9465,-429.5778 84.3957,-426.5964 90.0334,-424.0048"/>
<polygon fill="#191970" stroke="#191970" points="91.7578,-427.0781 99.6436,-420.0025 89.0666,-420.6161 91.7578,-427.0781"/>
</g>
<!-- Node26 -->
<g id="node27" class="node">
<title>Node26</title>
<g id="a_node27"><a xlink:href="classmomenta.html#ad86512de264263c1d6aef474b8829999" target="_top" xlink:title="momenta::set">
<polygon fill="#ffffff" stroke="#000000" points="111,-354.5 111,-373.5 188,-373.5 188,-354.5 111,-354.5"/>
<text text-anchor="middle" x="149.5" y="-361.5" font-family="Helvetica,sans-Serif" font-size="10.00" fill="#000000">momenta::set</text>
</a>
</g>
</g>
<!-- Node0&#45;&gt;Node26 -->
<g id="edge33" class="edge">
<title>Node0&#45;&gt;Node26</title>
<path fill="none" stroke="#191970" d="M20.6616,-491.455C25.0671,-469.0977 39.1821,-413.0398 74,-384 81.7318,-377.5513 91.3298,-373.1609 101.0611,-370.1773"/>
<polygon fill="#191970" stroke="#191970" points="101.983,-373.554 110.7726,-367.6385 100.2125,-366.7816 101.983,-373.554"/>
</g>
<!-- Node27 -->
<g id="node28" class="node">
<title>Node27</title>
<g id="a_node28"><a xlink:href="classpositions.html#a47352568d81e13ce66741116baf75473" target="_top" xlink:title="positions::set">
<polygon fill="#ffffff" stroke="#000000" points="112,-316.5 112,-335.5 187,-335.5 187,-316.5 112,-316.5"/>
<text text-anchor="middle" x="149.5" y="-323.5" font-family="Helvetica,sans-Serif" font-size="10.00" fill="#000000">positions::set</text>
</a>
</g>
</g>
<!-- Node0&#45;&gt;Node27 -->
<g id="edge34" class="edge">
<title>Node0&#45;&gt;Node27</title>
<path fill="none" stroke="#191970" d="M19.3957,-491.2447C21.0548,-463.8239 29.6449,-385.4342 74,-345 81.7967,-337.8925 91.8578,-333.3529 102.0776,-330.4759"/>
<polygon fill="#191970" stroke="#191970" points="102.9111,-333.8755 111.8559,-328.1975 101.3225,-327.0582 102.9111,-333.8755"/>
</g>
<!-- Node28 -->
<g id="node29" class="node">
<title>Node28</title>
<g id="a_node29"><a xlink:href="classlfield.html#a14cbafc22e451ce6ecaea0744b56dff6" target="_top" xlink:title="lfield::setCorrelationsFor\lCouplingConstant">
<polygon fill="#ffffff" stroke="#000000" points="88,-267 88,-297 211,-297 211,-267 88,-267"/>
<text text-anchor="start" x="96" y="-285" font-family="Helvetica,sans-Serif" font-size="10.00" fill="#000000">lfield::setCorrelationsFor</text>
<text text-anchor="middle" x="149.5" y="-274" font-family="Helvetica,sans-Serif" font-size="10.00" fill="#000000">CouplingConstant</text>
</a>
</g>
</g>
<!-- Node0&#45;&gt;Node28 -->
<g id="edge35" class="edge">
<title>Node0&#45;&gt;Node28</title>
<path fill="none" stroke="#191970" d="M20.5315,-491.2673C26.2821,-455.8635 47.611,-334.5628 74,-307 75.6293,-305.2983 77.3767,-303.7123 79.2194,-302.2343"/>
<polygon fill="#191970" stroke="#191970" points="81.5046,-304.9147 87.8372,-296.4207 77.5898,-299.1117 81.5046,-304.9147"/>
</g>
<!-- Node29 -->
<g id="node30" class="node">
<title>Node29</title>
<g id="a_node30"><a xlink:href="classlfield.html#a751b066f2c88db69b0315de9354e082b" target="_top" xlink:title="lfield::setMVModel">
<polygon fill="#ffffff" stroke="#000000" points="100.5,-228.5 100.5,-247.5 198.5,-247.5 198.5,-228.5 100.5,-228.5"/>
<text text-anchor="middle" x="149.5" y="-235.5" font-family="Helvetica,sans-Serif" font-size="10.00" fill="#000000">lfield::setMVModel</text>
</a>
</g>
</g>
<!-- Node0&#45;&gt;Node29 -->
<g id="edge37" class="edge">
<title>Node0&#45;&gt;Node29</title>
<path fill="none" stroke="#191970" d="M19.863,-491.3851C23.7107,-450.6293 40.5978,-292.6396 74,-258 78.7429,-253.0814 84.5439,-249.3242 90.8027,-246.4619"/>
<polygon fill="#191970" stroke="#191970" points="92.127,-249.7029 100.2302,-242.8773 89.6391,-243.1599 92.127,-249.7029"/>
</g>
<!-- Node30 -->
<g id="node31" class="node">
<title>Node30</title>
<g id="a_node31"><a xlink:href="classlfield.html#a150f51189f23b793ba04f077a1d3c063" target="_top" xlink:title="lfield::setToUnit">
<polygon fill="#ffffff" stroke="#000000" points="106.5,-190.5 106.5,-209.5 192.5,-209.5 192.5,-190.5 106.5,-190.5"/>
<text text-anchor="middle" x="149.5" y="-197.5" font-family="Helvetica,sans-Serif" font-size="10.00" fill="#000000">lfield::setToUnit</text>
</a>
</g>
</g>
<!-- Node0&#45;&gt;Node30 -->
<g id="edge38" class="edge">
<title>Node0&#45;&gt;Node30</title>
<path fill="none" stroke="#191970" d="M19.5263,-491.388C22.1664,-446.7038 35.4041,-259.7351 74,-219 80.1465,-212.5128 88.1542,-208.1092 96.6517,-205.1455"/>
<polygon fill="#191970" stroke="#191970" points="97.7205,-208.4804 106.3807,-202.377 95.8046,-201.7477 97.7205,-208.4804"/>
</g>
<!-- Node31 -->
<g id="node32" class="node">
<title>Node31</title>
<g id="a_node32"><a xlink:href="classlfield.html#ad980584011ceafb6abbaf0a450bda309" target="_top" xlink:title="lfield::setToZero">
<polygon fill="#ffffff" stroke="#000000" points="106,-152.5 106,-171.5 193,-171.5 193,-152.5 106,-152.5"/>
<text text-anchor="middle" x="149.5" y="-159.5" font-family="Helvetica,sans-Serif" font-size="10.00" fill="#000000">lfield::setToZero</text>
</a>
</g>
</g>
<!-- Node0&#45;&gt;Node31 -->
<g id="edge39" class="edge">
<title>Node0&#45;&gt;Node31</title>
<path fill="none" stroke="#191970" d="M19.2835,-491.4179C20.9038,-443.2399 30.5182,-227.9339 74,-181 80.0067,-174.5164 87.8708,-170.1054 96.2516,-167.1312"/>
<polygon fill="#191970" stroke="#191970" points="97.2291,-170.492 105.8618,-164.3498 95.2829,-163.7679 97.2291,-170.492"/>
</g>
<!-- Node32 -->
<g id="node33" class="node">
<title>Node32</title>
<g id="a_node33"><a xlink:href="classlfield.html#a5b407bbd988e3b009ef8364bbe705beb" target="_top" xlink:title="lfield::solvePoisson">
<polygon fill="#ffffff" stroke="#000000" points="99,-491.5 99,-510.5 200,-510.5 200,-491.5 99,-491.5"/>
<text text-anchor="middle" x="149.5" y="-498.5" font-family="Helvetica,sans-Serif" font-size="10.00" fill="#000000">lfield::solvePoisson</text>
</a>
</g>
</g>
<!-- Node0&#45;&gt;Node32 -->
<g id="edge40" class="edge">
<title>Node0&#45;&gt;Node32</title>
<path fill="none" stroke="#191970" d="M38.2557,-501C51.7156,-501 70.4883,-501 88.7834,-501"/>
<polygon fill="#191970" stroke="#191970" points="88.8615,-504.5001 98.8614,-501 88.8614,-497.5001 88.8615,-504.5001"/>
</g>
<!-- Node33 -->
<g id="node34" class="node">
<title>Node33</title>
<g id="a_node34"><a xlink:href="classlfield.html#aa00604913a5b5456eaad72fcc36a6b42" target="_top" xlink:title="lfield::trace">
<polygon fill="#ffffff" stroke="#000000" points="117,-76.5 117,-95.5 182,-95.5 182,-76.5 117,-76.5"/>
<text text-anchor="middle" x="149.5" y="-83.5" font-family="Helvetica,sans-Serif" font-size="10.00" fill="#000000">lfield::trace</text>
</a>
</g>
</g>
<!-- Node0&#45;&gt;Node33 -->
<g id="edge42" class="edge">
<title>Node0&#45;&gt;Node33</title>
<path fill="none" stroke="#191970" d="M19.7054,-491.2617C23.9902,-433.2608 47.2352,-134.8394 74,-105 82.32,-95.7243 94.4384,-90.6652 106.5407,-87.9887"/>
<polygon fill="#191970" stroke="#191970" points="107.3544,-91.4004 116.6191,-86.2606 106.1714,-84.501 107.3544,-91.4004"/>
</g>
<!-- Node34 -->
<g id="node35" class="node">
<title>Node34</title>
<g id="a_node35"><a xlink:href="field_8h.html#aea30ef7d1293ae1aa73d254f8eaef4c7" target="_top" xlink:title="update_uf">
<polygon fill="#ffffff" stroke="#000000" points="120,-38.5 120,-57.5 179,-57.5 179,-38.5 120,-38.5"/>
<text text-anchor="middle" x="149.5" y="-45.5" font-family="Helvetica,sans-Serif" font-size="10.00" fill="#000000">update_uf</text>
</a>
</g>
</g>
<!-- Node0&#45;&gt;Node34 -->
<g id="edge43" class="edge">
<title>Node0&#45;&gt;Node34</title>
<path fill="none" stroke="#191970" d="M19.5892,-491.1411C23.3509,-429.6209 44.7831,-99.9675 74,-67 83.0726,-56.7628 96.7712,-51.6502 110.0204,-49.2105"/>
<polygon fill="#191970" stroke="#191970" points="110.558,-52.6695 119.9805,-47.8251 109.5936,-45.7362 110.558,-52.6695"/>
</g>
<!-- Node37 -->
<g id="node38" class="node">
<title>Node37</title>
<g id="a_node38"><a xlink:href="field_8h.html#a127febd6e7d0a0da0fc2d4fee0081bd4" target="_top" xlink:title="uxiulocal">
<polygon fill="#ffffff" stroke="#000000" points="122,-.5 122,-19.5 177,-19.5 177,-.5 122,-.5"/>
<text text-anchor="middle" x="149.5" y="-7.5" font-family="Helvetica,sans-Serif" font-size="10.00" fill="#000000">uxiulocal</text>
</a>
</g>
</g>
<!-- Node0&#45;&gt;Node37 -->
<g id="edge46" class="edge">
<title>Node0&#45;&gt;Node37</title>
<path fill="none" stroke="#191970" d="M19.4846,-491.1296C22.7442,-426.4885 42.3081,-65.1243 74,-29 83.3762,-18.3124 97.7939,-13.1999 111.5271,-10.8854"/>
<polygon fill="#191970" stroke="#191970" points="112.3059,-14.3158 121.8007,-9.6148 111.4467,-7.3687 112.3059,-14.3158"/>
</g>
<!-- Node2 -->
<g id="node3" class="node">
<title>Node2</title>
<g id="a_node3"><a xlink:href="classlfield.html#a3182dddf09856d6c2f715412b1e93dcc" target="_top" xlink:title="lfield::getNxl">
<polygon fill="#ffffff" stroke="#000000" points="288.5,-928.5 288.5,-947.5 359.5,-947.5 359.5,-928.5 288.5,-928.5"/>
<text text-anchor="middle" x="324" y="-935.5" font-family="Helvetica,sans-Serif" font-size="10.00" fill="#000000">lfield::getNxl</text>
</a>
</g>
</g>
<!-- Node1&#45;&gt;Node2 -->
<g id="edge2" class="edge">
<title>Node1&#45;&gt;Node2</title>
<path fill="none" stroke="#191970" d="M191.2971,-952.449C217.5827,-949.587 251.5044,-945.8935 278.4714,-942.9573"/>
<polygon fill="#191970" stroke="#191970" points="278.8735,-946.4343 288.4359,-941.8723 278.1157,-939.4754 278.8735,-946.4343"/>
</g>
<!-- Node3 -->
<g id="node4" class="node">
<title>Node3</title>
<g id="a_node4"><a xlink:href="classlfield.html#a0d5c1f786c377cd838c0122b3148ed6e" target="_top" xlink:title="lfield::getNyl">
<polygon fill="#ffffff" stroke="#000000" points="288.5,-966.5 288.5,-985.5 359.5,-985.5 359.5,-966.5 288.5,-966.5"/>
<text text-anchor="middle" x="324" y="-973.5" font-family="Helvetica,sans-Serif" font-size="10.00" fill="#000000">lfield::getNyl</text>
</a>
</g>
</g>
<!-- Node1&#45;&gt;Node3 -->
<g id="edge3" class="edge">
<title>Node1&#45;&gt;Node3</title>
<path fill="none" stroke="#191970" d="M191.2971,-961.551C217.5827,-964.413 251.5044,-968.1065 278.4714,-971.0427"/>
<polygon fill="#191970" stroke="#191970" points="278.1157,-974.5246 288.4359,-972.1277 278.8735,-967.5657 278.1157,-974.5246"/>
</g>
<!-- Node4 -->
<g id="node5" class="node">
<title>Node4</title>
<g id="a_node5"><a xlink:href="classmpi__class.html#af78626438bee67b2eacf5bd583d4e4ce" target="_top" xlink:title="mpi_class::getSize">
<polygon fill="#ffffff" stroke="#000000" points="274,-871.5 274,-890.5 374,-890.5 374,-871.5 274,-871.5"/>
<text text-anchor="middle" x="324" y="-878.5" font-family="Helvetica,sans-Serif" font-size="10.00" fill="#000000">mpi_class::getSize</text>
</a>
</g>
</g>
<!-- Node1&#45;&gt;Node4 -->
<g id="edge4" class="edge">
<title>Node1&#45;&gt;Node4</title>
<path fill="none" stroke="#191970" d="M191.3011,-948.6609C202.4486,-945.8513 214.3498,-942.3091 225,-938 232.6473,-934.9059 272.173,-911.7562 298.9091,-895.9274"/>
<polygon fill="#191970" stroke="#191970" points="300.9436,-898.7902 307.7594,-890.6788 297.3729,-892.7693 300.9436,-898.7902"/>
</g>
<!-- Node9 -->
<g id="node10" class="node">
<title>Node9</title>
<g id="a_node10"><a xlink:href="classmomenta.html#a5b2ec8b44c4874d8e18036c8927461db" target="_top" xlink:title="momenta::phat2">
<polygon fill="#ffffff" stroke="#000000" points="280.5,-491.5 280.5,-510.5 367.5,-510.5 367.5,-491.5 280.5,-491.5"/>
<text text-anchor="middle" x="324" y="-498.5" font-family="Helvetica,sans-Serif" font-size="10.00" fill="#000000">momenta::phat2</text>
</a>
</g>
</g>
<!-- Node8&#45;&gt;Node9 -->
<g id="edge9" class="edge">
<title>Node8&#45;&gt;Node9</title>
<path fill="none" stroke="#191970" d="M209.0649,-472.0192C231.0408,-477.5604 255.6307,-483.7607 276.4088,-488.9999"/>
<polygon fill="#191970" stroke="#191970" points="275.7223,-492.4363 286.2746,-491.4876 277.4339,-485.6488 275.7223,-492.4363"/>
</g>
<!-- Node17 -->
<g id="node18" class="node">
<title>Node17</title>
<g id="a_node18"><a xlink:href="classpositions.html#a6dbe3d67f866039efa6736ed9a7fb210" target="_top" xlink:title="positions::xbar2">
<polygon fill="#ffffff" stroke="#000000" points="281,-152.5 281,-171.5 367,-171.5 367,-152.5 281,-152.5"/>
<text text-anchor="middle" x="324" y="-159.5" font-family="Helvetica,sans-Serif" font-size="10.00" fill="#000000">positions::xbar2</text>
</a>
</g>
</g>
<!-- Node16&#45;&gt;Node17 -->
<g id="edge17" class="edge">
<title>Node16&#45;&gt;Node17</title>
<path fill="none" stroke="#191970" d="M193.5337,-133.589C217.0495,-138.7099 246.1688,-145.0511 270.9271,-150.4426"/>
<polygon fill="#191970" stroke="#191970" points="270.3704,-153.9033 280.8862,-152.6113 271.8599,-147.0636 270.3704,-153.9033"/>
</g>
<!-- Node18 -->
<g id="node19" class="node">
<title>Node18</title>
<g id="a_node19"><a xlink:href="classpositions.html#a77d78afe9d418da5a6f5ba15e123e402" target="_top" xlink:title="positions::xhatX">
<polygon fill="#ffffff" stroke="#000000" points="280.5,-114.5 280.5,-133.5 367.5,-133.5 367.5,-114.5 280.5,-114.5"/>
<text text-anchor="middle" x="324" y="-121.5" font-family="Helvetica,sans-Serif" font-size="10.00" fill="#000000">positions::xhatX</text>
</a>
</g>
</g>
<!-- Node16&#45;&gt;Node18 -->
<g id="edge18" class="edge">
<title>Node16&#45;&gt;Node18</title>
<path fill="none" stroke="#191970" d="M209.0649,-124C228.8999,-124 250.8644,-124 270.2336,-124"/>
<polygon fill="#191970" stroke="#191970" points="270.398,-127.5001 280.398,-124 270.3979,-120.5001 270.398,-127.5001"/>
</g>
<!-- Node19 -->
<g id="node20" class="node">
<title>Node19</title>
<g id="a_node20"><a xlink:href="classpositions.html#a7c323a6022ee85bf1312d56d9726c308" target="_top" xlink:title="positions::xhatY">
<polygon fill="#ffffff" stroke="#000000" points="280.5,-76.5 280.5,-95.5 367.5,-95.5 367.5,-76.5 280.5,-76.5"/>
<text text-anchor="middle" x="324" y="-83.5" font-family="Helvetica,sans-Serif" font-size="10.00" fill="#000000">positions::xhatY</text>
</a>
</g>
</g>
<!-- Node16&#45;&gt;Node19 -->
<g id="edge19" class="edge">
<title>Node16&#45;&gt;Node19</title>
<path fill="none" stroke="#191970" d="M193.5337,-114.411C216.8721,-109.3287 245.7296,-103.0446 270.3658,-97.6797"/>
<polygon fill="#191970" stroke="#191970" points="271.2567,-101.0678 280.2829,-95.5201 269.7672,-94.2281 271.2567,-101.0678"/>
</g>
<!-- Node20&#45;&gt;Node9 -->
<g id="edge25" class="edge">
<title>Node20&#45;&gt;Node9</title>
<path fill="none" stroke="#191970" d="M192.6348,-529.6067C216.1417,-524.4878 245.4461,-518.1063 270.409,-512.6702"/>
<polygon fill="#191970" stroke="#191970" points="271.427,-516.0307 280.4533,-510.483 269.9375,-509.191 271.427,-516.0307"/>
</g>
<!-- Node20&#45;&gt;Node10 -->
<g id="edge21" class="edge">
<title>Node20&#45;&gt;Node10</title>
<path fill="none" stroke="#191970" d="M192.8213,-541.189C204.7639,-543.8952 216.7024,-548.9205 225,-558 294.207,-633.7287 193.5675,-708.687 261,-786 262.1616,-787.3318 263.4128,-788.572 264.7386,-789.7268"/>
<polygon fill="#191970" stroke="#191970" points="262.8224,-792.6569 273.0422,-795.4506 266.7952,-786.8934 262.8224,-792.6569"/>
</g>
<!-- Node20&#45;&gt;Node11 -->
<g id="edge22" class="edge">
<title>Node20&#45;&gt;Node11</title>
<path fill="none" stroke="#191970" d="M192.8865,-543.7472C204.1547,-546.5587 215.7201,-550.9999 225,-558 252.2085,-578.5243 296.8231,-670.2083 315.431,-710.2208"/>
<polygon fill="#191970" stroke="#191970" points="312.3046,-711.7991 319.6706,-719.4143 318.6612,-708.8677 312.3046,-711.7991"/>
</g>
<!-- Node21 -->
<g id="node22" class="node">
<title>Node21</title>
<g id="a_node22"><a xlink:href="classmomenta.html#a98078c7de442771358e691a2b0b037ce" target="_top" xlink:title="momenta::pbarX">
<polygon fill="#ffffff" stroke="#000000" points="279.5,-529.5 279.5,-548.5 368.5,-548.5 368.5,-529.5 279.5,-529.5"/>
<text text-anchor="middle" x="324" y="-536.5" font-family="Helvetica,sans-Serif" font-size="10.00" fill="#000000">momenta::pbarX</text>
</a>
</g>
</g>
<!-- Node20&#45;&gt;Node21 -->
<g id="edge23" class="edge">
<title>Node20&#45;&gt;Node21</title>
<path fill="none" stroke="#191970" d="M192.6348,-539C215.684,-539 244.3071,-539 268.946,-539"/>
<polygon fill="#191970" stroke="#191970" points="269.2337,-542.5001 279.2337,-539 269.2336,-535.5001 269.2337,-542.5001"/>
</g>
<!-- Node22 -->
<g id="node23" class="node">
<title>Node22</title>
<g id="a_node23"><a xlink:href="classmomenta.html#adf9462fd94288b5cd635a555d689434b" target="_top" xlink:title="momenta::pbarY">
<polygon fill="#ffffff" stroke="#000000" points="279.5,-567.5 279.5,-586.5 368.5,-586.5 368.5,-567.5 279.5,-567.5"/>
<text text-anchor="middle" x="324" y="-574.5" font-family="Helvetica,sans-Serif" font-size="10.00" fill="#000000">momenta::pbarY</text>
</a>
</g>
</g>
<!-- Node20&#45;&gt;Node22 -->
<g id="edge24" class="edge">
<title>Node20&#45;&gt;Node22</title>
<path fill="none" stroke="#191970" d="M192.6348,-548.3933C216.053,-553.4929 245.225,-559.8456 270.1262,-565.2682"/>
<polygon fill="#191970" stroke="#191970" points="269.6336,-568.7428 280.1493,-567.4509 271.1231,-561.9031 269.6336,-568.7428"/>
</g>
<!-- Node23&#45;&gt;Node4 -->
<g id="edge30" class="edge">
<title>Node23&#45;&gt;Node4</title>
<path fill="none" stroke="#191970" d="M164.0776,-776.5235C194.2829,-796.2565 263.9329,-841.7584 300.5424,-865.6753"/>
<polygon fill="#191970" stroke="#191970" points="298.8079,-868.7228 309.094,-871.262 302.6364,-862.8625 298.8079,-868.7228"/>
</g>
<!-- Node23&#45;&gt;Node9 -->
<g id="edge31" class="edge">
<title>Node23&#45;&gt;Node9</title>
<path fill="none" stroke="#191970" d="M167.212,-758.5577C184.7852,-749.217 211.051,-732.4636 225,-710 270.3394,-636.9849 203.5203,-583.898 261,-520 263.9224,-516.7513 267.3779,-514.0492 271.1421,-511.803"/>
<polygon fill="#191970" stroke="#191970" points="272.8938,-514.8439 280.3794,-507.3462 269.852,-508.5394 272.8938,-514.8439"/>
</g>
<!-- Node23&#45;&gt;Node10 -->
<g id="edge27" class="edge">
<title>Node23&#45;&gt;Node10</title>
<path fill="none" stroke="#191970" d="M167.1923,-770.8528C191.0874,-776.0563 234.7344,-785.5611 269.923,-793.2239"/>
<polygon fill="#191970" stroke="#191970" points="269.5535,-796.7254 280.0693,-795.4334 271.043,-789.8857 269.5535,-796.7254"/>
</g>
<!-- Node23&#45;&gt;Node11 -->
<g id="edge28" class="edge">
<title>Node23&#45;&gt;Node11</title>
<path fill="none" stroke="#191970" d="M167.1923,-763.1472C191.0874,-757.9437 234.7344,-748.4389 269.923,-740.7761"/>
<polygon fill="#191970" stroke="#191970" points="271.043,-744.1143 280.0693,-738.5666 269.5535,-737.2746 271.043,-744.1143"/>
</g>
<!-- Node24 -->
<g id="node25" class="node">
<title>Node24</title>
<g id="a_node25"><a xlink:href="classmpi__class.html#a6ba81c7f035bcbbb4c5c1273d0850aba" target="_top" xlink:title="mpi_class::getRank">
<polygon fill="#ffffff" stroke="#000000" points="272,-757.5 272,-776.5 376,-776.5 376,-757.5 272,-757.5"/>
<text text-anchor="middle" x="324" y="-764.5" font-family="Helvetica,sans-Serif" font-size="10.00" fill="#000000">mpi_class::getRank</text>
</a>
</g>
</g>
<!-- Node23&#45;&gt;Node24 -->
<g id="edge29" class="edge">
<title>Node23&#45;&gt;Node24</title>
<path fill="none" stroke="#191970" d="M167.1923,-767C189.2573,-767 228.1646,-767 261.7018,-767"/>
<polygon fill="#191970" stroke="#191970" points="261.9129,-770.5001 271.9129,-767 261.9129,-763.5001 261.9129,-770.5001"/>
</g>
<!-- Node28&#45;&gt;Node9 -->
<g id="edge36" class="edge">
<title>Node28&#45;&gt;Node9</title>
<path fill="none" stroke="#191970" d="M209.9689,-297.0895C215.3731,-299.8595 220.4949,-303.1328 225,-307 280.8837,-354.9704 309.0389,-442.2462 319.3099,-481.2491"/>
<polygon fill="#191970" stroke="#191970" points="316.0052,-482.4594 321.8382,-491.304 322.7939,-480.7523 316.0052,-482.4594"/>
</g>
<!-- Node32&#45;&gt;Node9 -->
<g id="edge41" class="edge">
<title>Node32&#45;&gt;Node9</title>
<path fill="none" stroke="#191970" d="M200.4417,-501C222.3265,-501 247.9205,-501 270.1208,-501"/>
<polygon fill="#191970" stroke="#191970" points="270.3848,-504.5001 280.3848,-501 270.3848,-497.5001 270.3848,-504.5001"/>
</g>
<!-- Node35 -->
<g id="node36" class="node">
<title>Node35</title>
<g id="a_node36"><a xlink:href="classsu3__matrix.html#aedf511a4b74bf6f2a4a5ba681c1df72e" target="_top" xlink:title="su3_matrix::exponentiate">
<polygon fill="#ffffff" stroke="#000000" points="261,-38.5 261,-57.5 387,-57.5 387,-38.5 261,-38.5"/>
<text text-anchor="middle" x="324" y="-45.5" font-family="Helvetica,sans-Serif" font-size="10.00" fill="#000000">su3_matrix::exponentiate</text>
</a>
</g>
</g>
<!-- Node34&#45;&gt;Node35 -->
<g id="edge44" class="edge">
<title>Node34&#45;&gt;Node35</title>
<path fill="none" stroke="#191970" d="M179.1015,-48C198.758,-48 225.4802,-48 250.6246,-48"/>
<polygon fill="#191970" stroke="#191970" points="250.9052,-51.5001 260.9051,-48 250.9051,-44.5001 250.9052,-51.5001"/>
</g>
<!-- Node36 -->
<g id="node37" class="node">
<title>Node36</title>
<g id="a_node37"><a xlink:href="su3__matrix_8h.html#ab226771af05ad43c66ee5a218eee0bdd" target="_top" xlink:title="function_zheevh3">
<polygon fill="#ffffff" stroke="#000000" points="423,-38.5 423,-57.5 516,-57.5 516,-38.5 423,-38.5"/>
<text text-anchor="middle" x="469.5" y="-45.5" font-family="Helvetica,sans-Serif" font-size="10.00" fill="#000000">function_zheevh3</text>
</a>
</g>
</g>
<!-- Node35&#45;&gt;Node36 -->
<g id="edge45" class="edge">
<title>Node35&#45;&gt;Node36</title>
<path fill="none" stroke="#191970" d="M387.3952,-48C395.8884,-48 404.5547,-48 412.9204,-48"/>
<polygon fill="#191970" stroke="#191970" points="412.944,-51.5001 422.9439,-48 412.9439,-44.5001 412.944,-51.5001"/>
</g>
</g>
</svg>
        <g id="navigator" transform="translate(0 0)" fill="#404254">
                <rect fill="#f2f5e9" fill-opacity="0.5" stroke="#606060" stroke-width=".5" x="0" y="0" width="60" height="60"/>
                <use id="zoomplus" xlink:href="#zoomPlus" x="17" y="9" onmousedown="handleZoom(evt,'in')"/>
                <use id="zoomminus" xlink:href="#zoomMin" x="42" y="9" onmousedown="handleZoom(evt,'out')"/>
                <use id="reset" xlink:href="#resetDef" x="30" y="36" onmousedown="handleReset()"/>
                <g id="arrowUp" xlink:href="#dirArrow" transform="translate(30 24)" onmousedown="handlePan(0,-1)">
                  <use xlink:href="#rim" fill="#404040">
                        <set attributeName="fill" to="#808080" begin="arrowUp.mouseover" end="arrowUp.mouseout"/>
                  </use>
                  <path fill="none" stroke="white" stroke-width="1.5" d="M0,-3.0v7 M-2.5,-0.5L0,-3.0L2.5,-0.5"/>
                </g>
                <g id="arrowRight" xlink:href="#dirArrow" transform="rotate(90) translate(36 -43)" onmousedown="handlePan(1,0)">
                  <use xlink:href="#rim" fill="#404040">
                        <set attributeName="fill" to="#808080" begin="arrowRight.mouseover" end="arrowRight.mouseout"/>
                  </use>
                  <path fill="none" stroke="white" stroke-width="1.5" d="M0,-3.0v7 M-2.5,-0.5L0,-3.0L2.5,-0.5"/>
                </g>
                <g id="arrowDown" xlink:href="#dirArrow" transform="rotate(180) translate(-30 -48)" onmousedown="handlePan(0,1)">
                  <use xlink:href="#rim" fill="#404040">
                        <set attributeName="fill" to="#808080" begin="arrowDown.mouseover" end="arrowDown.mouseout"/>
                  </use>
                  <path fill="none" stroke="white" stroke-width="1.5" d="M0,-3.0v7 M-2.5,-0.5L0,-3.0L2.5,-0.5"/>
                </g>
                <g id="arrowLeft" xlink:href="#dirArrow" transform="rotate(270) translate(-36 17)" onmousedown="handlePan(-1,0)">
                  <use xlink:href="#rim" fill="#404040">
                        <set attributeName="fill" to="#808080" begin="arrowLeft.mouseover" end="arrowLeft.mouseout"/>
                  </use>
                  <path fill="none" stroke="white" stroke-width="1.5" d="M0,-3.0v7 M-2.5,-0.5L0,-3.0L2.5,-0.5"/>
                </g>
        </g>
        <svg viewBox="0 0 15 15" width="100%" height="30px" preserveAspectRatio="xMaxYMin meet">
         <g id="arrow_out" transform="scale(0.3 0.3)">
          <a xlink:href="main__optimized_8cpp_a0ddf1224851353fc92bfbff6f499fa97_cgraph_org.svg" target="_base">
           <rect id="button" ry="5" rx="5" y="6" x="6" height="38" width="38"
                fill="#f2f5e9" fill-opacity="0.5" stroke="#606060" stroke-width="1.0"/>
           <path id="arrow"
             d="M 11.500037,31.436501 C 11.940474,20.09759 22.043105,11.32322 32.158766,21.979434 L 37.068811,17.246167 C 37.068811,17.246167 37.088388,32 37.088388,32 L 22.160133,31.978069 C 22.160133,31.978069 26.997745,27.140456 26.997745,27.140456 C 18.528582,18.264221 13.291696,25.230495 11.500037,31.436501 z"
             style="fill:#404040;"/>
          </a>
         </g>
        </svg>
</svg>
