<?xml version="1.0" encoding="UTF-8" standalone="no"?>
<!DOCTYPE svg PUBLIC "-//W3C//DTD SVG 1.1//EN"
 "http://www.w3.org/Graphics/SVG/1.1/DTD/svg11.dtd">
<!-- Generated by graphviz version 2.40.1 (20161225.0304)
 -->
<!-- Title: main Pages: 1 -->
<svg width="524pt" height="1163pt"
 viewBox="0.00 0.00 524.00 1163.00" xmlns="http://www.w3.org/2000/svg" xmlns:xlink="http://www.w3.org/1999/xlink">
<g id="graph0" class="graph" transform="scale(1 1) rotate(0) translate(4 1159)">
<title>main</title>
<polygon fill="#ffffff" stroke="transparent" points="-4,4 -4,-1159 520,-1159 520,4 -4,4"/>
<!-- Node0 -->
<g id="node1" class="node">
<title>Node0</title>
<polygon fill="#bfbfbf" stroke="#000000" points="0,-549.5 0,-568.5 38,-568.5 38,-549.5 0,-549.5"/>
<text text-anchor="middle" x="19" y="-556.5" font-family="Helvetica,sans-Serif" font-size="10.00" fill="#000000">main</text>
</g>
<!-- Node1 -->
<g id="node2" class="node">
<title>Node1</title>
<g id="a_node2"><a xlink:href="classgfield.html#a0dcff590c53a428a50567d25d10404e2" target="_top" xlink:title="gfield::allgather">
<polygon fill="#ffffff" stroke="#000000" points="108,-1097.5 108,-1116.5 191,-1116.5 191,-1097.5 108,-1097.5"/>
<text text-anchor="middle" x="149.5" y="-1104.5" font-family="Helvetica,sans-Serif" font-size="10.00" fill="#000000">gfield::allgather</text>
</a>
</g>
</g>
<!-- Node0&#45;&gt;Node1 -->
<g id="edge1" class="edge">
<title>Node0&#45;&gt;Node1</title>
<path fill="none" stroke="#191970" d="M19.3486,-568.7013C21.8966,-637.2522 38.5542,-1047.0876 74,-1088 80.3061,-1095.2786 88.9503,-1099.9774 98.1427,-1102.9686"/>
<polygon fill="#191970" stroke="#191970" points="97.2856,-1106.3621 107.8456,-1105.5042 99.0554,-1099.5895 97.2856,-1106.3621"/>
</g>
<!-- Node5 -->
<g id="node6" class="node">
<title>Node5</title>
<g id="a_node6"><a xlink:href="classgmatrix.html#a0de07e5d50c35e6eb9e17981d5094730" target="_top" xlink:title="gmatrix::decompose">
<polygon fill="#ffffff" stroke="#000000" points="97,-1059.5 97,-1078.5 202,-1078.5 202,-1059.5 97,-1059.5"/>
<text text-anchor="middle" x="149.5" y="-1066.5" font-family="Helvetica,sans-Serif" font-size="10.00" fill="#000000">gmatrix::decompose</text>
</a>
</g>
</g>
<!-- Node0&#45;&gt;Node5 -->
<g id="edge5" class="edge">
<title>Node0&#45;&gt;Node5</title>
<path fill="none" stroke="#191970" d="M19.4366,-568.8379C22.4533,-634.8864 41.0623,-1012.2866 74,-1050 77.7787,-1054.3266 82.3837,-1057.7403 87.4364,-1060.425"/>
<polygon fill="#191970" stroke="#191970" points="86.3638,-1063.7736 96.933,-1064.5098 89.1297,-1057.3432 86.3638,-1063.7736"/>
</g>
<!-- Node6 -->
<g id="node7" class="node">
<title>Node6</title>
<g id="a_node7"><a xlink:href="classlfield.html#a8299544558cca4ccb188039e6d868aee" target="_top" xlink:title="lfield::exponentiate">
<polygon fill="#ffffff" stroke="#000000" points="100.5,-1021.5 100.5,-1040.5 198.5,-1040.5 198.5,-1021.5 100.5,-1021.5"/>
<text text-anchor="middle" x="149.5" y="-1028.5" font-family="Helvetica,sans-Serif" font-size="10.00" fill="#000000">lfield::exponentiate</text>
</a>
</g>
</g>
<!-- Node0&#45;&gt;Node6 -->
<g id="edge6" class="edge">
<title>Node0&#45;&gt;Node6</title>
<path fill="none" stroke="#191970" d="M19.5355,-568.8778C23.0435,-632.0089 43.5484,-977.4577 74,-1012 78.6241,-1017.2453 84.4627,-1021.1466 90.836,-1024.0328"/>
<polygon fill="#191970" stroke="#191970" points="89.8834,-1027.4115 100.477,-1027.5734 92.2966,-1020.8406 89.8834,-1027.4115"/>
</g>
<!-- Node9 -->
<g id="node10" class="node">
<title>Node9</title>
<g id="a_node10"><a xlink:href="classmpi__class.html#a9988290cf6944a7efcd1b1144adff7a7" target="_top" xlink:title="mpi_class::getColComm">
<polygon fill="#ffffff" stroke="#000000" points="87,-983.5 87,-1002.5 212,-1002.5 212,-983.5 87,-983.5"/>
<text text-anchor="middle" x="149.5" y="-990.5" font-family="Helvetica,sans-Serif" font-size="10.00" fill="#000000">mpi_class::getColComm</text>
</a>
</g>
</g>
<!-- Node0&#45;&gt;Node9 -->
<g id="edge9" class="edge">
<title>Node0&#45;&gt;Node9</title>
<path fill="none" stroke="#191970" d="M19.6807,-568.6721C23.9094,-627.6271 47.281,-937.1609 74,-969 77.1498,-972.7533 80.885,-975.9268 84.9817,-978.6091"/>
<polygon fill="#191970" stroke="#191970" points="83.3748,-981.7196 93.8268,-983.4536 86.7374,-975.5801 83.3748,-981.7196"/>
</g>
<!-- Node10 -->
<g id="node11" class="node">
<title>Node10</title>
<g id="a_node11"><a xlink:href="classmpi__class.html#ab876ade2f1b994bb1c920d1de9375cf6" target="_top" xlink:title="mpi_class::getPosX">
<polygon fill="#ffffff" stroke="#000000" points="272,-863.5 272,-882.5 376,-882.5 376,-863.5 272,-863.5"/>
<text text-anchor="middle" x="324" y="-870.5" font-family="Helvetica,sans-Serif" font-size="10.00" fill="#000000">mpi_class::getPosX</text>
</a>
</g>
</g>
<!-- Node0&#45;&gt;Node10 -->
<g id="edge10" class="edge">
<title>Node0&#45;&gt;Node10</title>
<path fill="none" stroke="#191970" d="M19.6702,-568.7345C23.6675,-625.3982 45.1684,-911.0694 74,-936 124.7646,-979.896 163.8625,-963.6787 225,-936 247.0912,-925.9987 240.8919,-908.5541 261,-895 265.9234,-891.6813 271.4004,-888.8097 277.0121,-886.3392"/>
<polygon fill="#191970" stroke="#191970" points="278.517,-889.5071 286.5093,-882.5519 275.9241,-883.005 278.517,-889.5071"/>
</g>
<!-- Node11 -->
<g id="node12" class="node">
<title>Node11</title>
<g id="a_node12"><a xlink:href="classmpi__class.html#aa894e45879f0e9a081efd4d4118b2491" target="_top" xlink:title="mpi_class::getPosY">
<polygon fill="#ffffff" stroke="#000000" points="272,-819.5 272,-838.5 376,-838.5 376,-819.5 272,-819.5"/>
<text text-anchor="middle" x="324" y="-826.5" font-family="Helvetica,sans-Serif" font-size="10.00" fill="#000000">mpi_class::getPosY</text>
</a>
</g>
</g>
<!-- Node0&#45;&gt;Node11 -->
<g id="edge11" class="edge">
<title>Node0&#45;&gt;Node11</title>
<path fill="none" stroke="#191970" d="M19.6149,-568.5279C22.5245,-610.382 36.3724,-777.2985 74,-810 129.6726,-858.3841 221.1795,-851.0395 276.6886,-840.5436"/>
<polygon fill="#191970" stroke="#191970" points="277.4973,-843.9513 286.6177,-838.5598 276.1257,-837.0869 277.4973,-843.9513"/>
</g>
<!-- Node12 -->
<g id="node13" class="node">
<title>Node12</title>
<g id="a_node13"><a xlink:href="classmpi__class.html#aeaf1450d343b4bf5b4dc4af51475212d" target="_top" xlink:title="mpi_class::getRowComm">
<polygon fill="#ffffff" stroke="#000000" points="84.5,-606.5 84.5,-625.5 214.5,-625.5 214.5,-606.5 84.5,-606.5"/>
<text text-anchor="middle" x="149.5" y="-613.5" font-family="Helvetica,sans-Serif" font-size="10.00" fill="#000000">mpi_class::getRowComm</text>
</a>
</g>
</g>
<!-- Node0&#45;&gt;Node12 -->
<g id="edge12" class="edge">
<title>Node0&#45;&gt;Node12</title>
<path fill="none" stroke="#191970" d="M30.4833,-568.7764C41.1244,-577.3687 57.721,-589.6213 74,-597 79.3629,-599.4308 85.0868,-601.5845 90.8936,-603.485"/>
<polygon fill="#191970" stroke="#191970" points="90.1102,-606.9046 100.6952,-606.4486 92.1362,-600.2042 90.1102,-606.9046"/>
</g>
<!-- Node13 -->
<g id="node14" class="node">
<title>Node13</title>
<g id="a_node14"><a xlink:href="classgfield.html#a8a7aa9669d548e51089535f807e0ae4b" target="_top" xlink:title="gfield::hermitian">
<polygon fill="#ffffff" stroke="#000000" points="106.5,-568.5 106.5,-587.5 192.5,-587.5 192.5,-568.5 106.5,-568.5"/>
<text text-anchor="middle" x="149.5" y="-575.5" font-family="Helvetica,sans-Serif" font-size="10.00" fill="#000000">gfield::hermitian</text>
</a>
</g>
</g>
<!-- Node0&#45;&gt;Node13 -->
<g id="edge13" class="edge">
<title>Node0&#45;&gt;Node13</title>
<path fill="none" stroke="#191970" d="M38.2557,-561.8035C53.61,-564.039 75.8777,-567.281 96.4635,-570.2782"/>
<polygon fill="#191970" stroke="#191970" points="95.9965,-573.747 106.3964,-571.7244 97.0051,-566.8201 95.9965,-573.747"/>
</g>
<!-- Node14 -->
<g id="node15" class="node">
<title>Node14</title>
<g id="a_node15"><a xlink:href="classlfield.html#af3e84687383d85efd4a7dd90c74afae8" target="_top" xlink:title="lfield::hermitian">
<polygon fill="#ffffff" stroke="#000000" points="108,-530.5 108,-549.5 191,-549.5 191,-530.5 108,-530.5"/>
<text text-anchor="middle" x="149.5" y="-537.5" font-family="Helvetica,sans-Serif" font-size="10.00" fill="#000000">lfield::hermitian</text>
</a>
</g>
</g>
<!-- Node0&#45;&gt;Node14 -->
<g id="edge14" class="edge">
<title>Node0&#45;&gt;Node14</title>
<path fill="none" stroke="#191970" d="M38.2557,-556.1965C53.9146,-553.9166 76.7641,-550.5899 97.6868,-547.5437"/>
<polygon fill="#191970" stroke="#191970" points="98.3718,-550.9809 107.7632,-546.0766 97.3632,-544.054 98.3718,-550.9809"/>
</g>
<!-- Node15 -->
<g id="node16" class="node">
<title>Node15</title>
<g id="a_node16"><a xlink:href="classmpi__class.html#a995c216b811090aa6255523e0e2a8e8a" target="_top" xlink:title="mpi_class::mpi_exchange_grid">
<polygon fill="#ffffff" stroke="#000000" points="74,-492.5 74,-511.5 225,-511.5 225,-492.5 74,-492.5"/>
<text text-anchor="middle" x="149.5" y="-499.5" font-family="Helvetica,sans-Serif" font-size="10.00" fill="#000000">mpi_class::mpi_exchange_grid</text>
</a>
</g>
</g>
<!-- Node0&#45;&gt;Node15 -->
<g id="edge15" class="edge">
<title>Node0&#45;&gt;Node15</title>
<path fill="none" stroke="#191970" d="M30.4833,-549.2236C41.1244,-540.6313 57.721,-528.3787 74,-521 79.3629,-518.5692 85.0868,-516.4155 90.8936,-514.515"/>
<polygon fill="#191970" stroke="#191970" points="92.1362,-517.7958 100.6952,-511.5514 90.1102,-511.0954 92.1362,-517.7958"/>
</g>
<!-- Node16 -->
<g id="node17" class="node">
<title>Node16</title>
<g id="a_node17"><a xlink:href="classmpi__class.html#a20929c3a4bb045fb41696ba09cee4680" target="_top" xlink:title="mpi_class::mpi_exchange\l_groups">
<polygon fill="#ffffff" stroke="#000000" points="84.5,-443 84.5,-473 214.5,-473 214.5,-443 84.5,-443"/>
<text text-anchor="start" x="92.5" y="-461" font-family="Helvetica,sans-Serif" font-size="10.00" fill="#000000">mpi_class::mpi_exchange</text>
<text text-anchor="middle" x="149.5" y="-450" font-family="Helvetica,sans-Serif" font-size="10.00" fill="#000000">_groups</text>
</a>
</g>
</g>
<!-- Node0&#45;&gt;Node16 -->
<g id="edge16" class="edge">
<title>Node0&#45;&gt;Node16</title>
<path fill="none" stroke="#191970" d="M23.4774,-549.3344C31.4065,-533.2524 49.427,-500.9941 74,-483 76.5361,-481.1429 79.2182,-479.4184 82.0003,-477.8175"/>
<polygon fill="#191970" stroke="#191970" points="83.8687,-480.7928 91.1695,-473.115 80.6743,-474.5642 83.8687,-480.7928"/>
</g>
<!-- Node17 -->
<g id="node18" class="node">
<title>Node17</title>
<g id="a_node18"><a xlink:href="classmpi__class.html#a0326e6a2416b3aacd64a3dcc84ddb79b" target="_top" xlink:title="mpi_class::mpi_init">
<polygon fill="#ffffff" stroke="#000000" points="99,-404.5 99,-423.5 200,-423.5 200,-404.5 99,-404.5"/>
<text text-anchor="middle" x="149.5" y="-411.5" font-family="Helvetica,sans-Serif" font-size="10.00" fill="#000000">mpi_class::mpi_init</text>
</a>
</g>
</g>
<!-- Node0&#45;&gt;Node17 -->
<g id="edge17" class="edge">
<title>Node0&#45;&gt;Node17</title>
<path fill="none" stroke="#191970" d="M20.3932,-549.1681C24.272,-525.5541 37.4258,-465.2856 74,-434 78.5548,-430.1038 83.7876,-426.9569 89.3285,-424.4166"/>
<polygon fill="#191970" stroke="#191970" points="90.8361,-427.5854 98.8791,-420.6889 88.2909,-421.0645 90.8361,-427.5854"/>
</g>
<!-- Node18 -->
<g id="node19" class="node">
<title>Node18</title>
<g id="a_node19"><a xlink:href="classgfield.html#af2d8ebec3637f4c70324937be433ed21" target="_top" xlink:title="gfield::multiplyByCholesky">
<polygon fill="#ffffff" stroke="#000000" points="83,-366.5 83,-385.5 216,-385.5 216,-366.5 83,-366.5"/>
<text text-anchor="middle" x="149.5" y="-373.5" font-family="Helvetica,sans-Serif" font-size="10.00" fill="#000000">gfield::multiplyByCholesky</text>
</a>
</g>
</g>
<!-- Node0&#45;&gt;Node18 -->
<g id="edge18" class="edge">
<title>Node0&#45;&gt;Node18</title>
<path fill="none" stroke="#191970" d="M20.9574,-549.4152C27.6183,-517.7003 50.3103,-416.9315 74,-395 75.6923,-393.4333 77.4945,-391.991 79.3843,-390.6635"/>
<polygon fill="#191970" stroke="#191970" points="81.2844,-393.6072 88.1628,-385.5487 77.7604,-387.5589 81.2844,-393.6072"/>
</g>
<!-- Node19 -->
<g id="node20" class="node">
<title>Node19</title>
<g id="a_node20"><a xlink:href="classlfield.html#ad624c0368bcb52153abf6568d1bce971" target="_top" xlink:title="lfield::reduceAndSet">
<polygon fill="#ffffff" stroke="#000000" points="97.5,-328.5 97.5,-347.5 201.5,-347.5 201.5,-328.5 97.5,-328.5"/>
<text text-anchor="middle" x="149.5" y="-335.5" font-family="Helvetica,sans-Serif" font-size="10.00" fill="#000000">lfield::reduceAndSet</text>
</a>
</g>
</g>
<!-- Node0&#45;&gt;Node19 -->
<g id="edge19" class="edge">
<title>Node0&#45;&gt;Node19</title>
<path fill="none" stroke="#191970" d="M20.3341,-549.3073C25.5366,-512.885 45.5876,-384.8693 74,-357 78.0406,-353.0366 82.7795,-349.8615 87.88,-347.3227"/>
<polygon fill="#191970" stroke="#191970" points="89.4673,-350.4542 97.379,-343.4075 86.7997,-343.9824 89.4673,-350.4542"/>
</g>
<!-- Node20 -->
<g id="node21" class="node">
<title>Node20</title>
<g id="a_node21"><a xlink:href="classmomenta.html#ad86512de264263c1d6aef474b8829999" target="_top" xlink:title="momenta::set">
<polygon fill="#ffffff" stroke="#000000" points="111,-290.5 111,-309.5 188,-309.5 188,-290.5 111,-290.5"/>
<text text-anchor="middle" x="149.5" y="-297.5" font-family="Helvetica,sans-Serif" font-size="10.00" fill="#000000">momenta::set</text>
</a>
</g>
</g>
<!-- Node0&#45;&gt;Node20 -->
<g id="edge20" class="edge">
<title>Node0&#45;&gt;Node20</title>
<path fill="none" stroke="#191970" d="M19.8699,-549.492C23.7459,-509.1912 40.7323,-352.9826 74,-319 81.2333,-311.6112 90.8857,-306.9417 100.8653,-304.0261"/>
<polygon fill="#191970" stroke="#191970" points="101.9501,-307.3662 110.8766,-301.6594 100.3396,-300.554 101.9501,-307.3662"/>
</g>
<!-- Node21 -->
<g id="node22" class="node">
<title>Node21</title>
<g id="a_node22"><a xlink:href="classlfield.html#a14cbafc22e451ce6ecaea0744b56dff6" target="_top" xlink:title="lfield::setCorrelationsFor\lCouplingConstant">
<polygon fill="#ffffff" stroke="#000000" points="88,-683 88,-713 211,-713 211,-683 88,-683"/>
<text text-anchor="start" x="96" y="-701" font-family="Helvetica,sans-Serif" font-size="10.00" fill="#000000">lfield::setCorrelationsFor</text>
<text text-anchor="middle" x="149.5" y="-690" font-family="Helvetica,sans-Serif" font-size="10.00" fill="#000000">CouplingConstant</text>
</a>
</g>
</g>
<!-- Node0&#45;&gt;Node21 -->
<g id="edge21" class="edge">
<title>Node0&#45;&gt;Node21</title>
<path fill="none" stroke="#191970" d="M21.003,-568.816C25.9817,-590.7338 40.9738,-644.0032 74,-673 75.7704,-674.5544 77.6402,-676.0126 79.5882,-677.3806"/>
<polygon fill="#191970" stroke="#191970" points="78.199,-680.6311 88.5655,-682.819 81.826,-674.644 78.199,-680.6311"/>
</g>
<!-- Node23 -->
<g id="node24" class="node">
<title>Node23</title>
<g id="a_node24"><a xlink:href="classlfield.html#a6f7ec82c0653a48437f83bda21e94a40" target="_top" xlink:title="lfield::setGaussian">
<polygon fill="#ffffff" stroke="#000000" points="100.5,-252.5 100.5,-271.5 198.5,-271.5 198.5,-252.5 100.5,-252.5"/>
<text text-anchor="middle" x="149.5" y="-259.5" font-family="Helvetica,sans-Serif" font-size="10.00" fill="#000000">lfield::setGaussian</text>
</a>
</g>
</g>
<!-- Node0&#45;&gt;Node23 -->
<g id="edge23" class="edge">
<title>Node0&#45;&gt;Node23</title>
<path fill="none" stroke="#191970" d="M19.5655,-549.2272C22.3415,-504.6481 35.9618,-321.038 74,-281 78.6912,-276.0622 84.4608,-272.3321 90.7026,-269.5256"/>
<polygon fill="#191970" stroke="#191970" points="91.9517,-272.7954 100.1147,-266.0416 89.5216,-266.2308 91.9517,-272.7954"/>
</g>
<!-- Node24 -->
<g id="node25" class="node">
<title>Node24</title>
<g id="a_node25"><a xlink:href="classlfield.html#a1370b1b3fd05bfcffb64018dd3bedf70" target="_top" xlink:title="lfield::setKernelPbarX">
<polygon fill="#ffffff" stroke="#000000" points="94,-907.5 94,-926.5 205,-926.5 205,-907.5 94,-907.5"/>
<text text-anchor="middle" x="149.5" y="-914.5" font-family="Helvetica,sans-Serif" font-size="10.00" fill="#000000">lfield::setKernelPbarX</text>
</a>
</g>
</g>
<!-- Node0&#45;&gt;Node24 -->
<g id="edge24" class="edge">
<title>Node0&#45;&gt;Node24</title>
<path fill="none" stroke="#191970" d="M19.1881,-568.8113C20.3536,-619.1533 28.1409,-848.0324 74,-898 77.1174,-901.3966 80.7444,-904.2255 84.6898,-906.5775"/>
<polygon fill="#191970" stroke="#191970" points="83.2392,-909.764 93.7617,-911.0001 86.3067,-903.4719 83.2392,-909.764"/>
</g>
<!-- Node26 -->
<g id="node27" class="node">
<title>Node26</title>
<g id="a_node27"><a xlink:href="classlfield.html#a1caeadd397716179bb8d72b60236cffb" target="_top" xlink:title="lfield::setKernelPbarXWith\lCouplingConstant">
<polygon fill="#ffffff" stroke="#000000" points="84,-858 84,-888 215,-888 215,-858 84,-858"/>
<text text-anchor="start" x="92" y="-876" font-family="Helvetica,sans-Serif" font-size="10.00" fill="#000000">lfield::setKernelPbarXWith</text>
<text text-anchor="middle" x="149.5" y="-865" font-family="Helvetica,sans-Serif" font-size="10.00" fill="#000000">CouplingConstant</text>
</a>
</g>
</g>
<!-- Node0&#45;&gt;Node26 -->
<g id="edge29" class="edge">
<title>Node0&#45;&gt;Node26</title>
<path fill="none" stroke="#191970" d="M19.6384,-568.571C22.7834,-613.0803 37.9518,-799.4948 74,-843 76.9134,-846.5161 80.2975,-849.6227 83.9865,-852.3672"/>
<polygon fill="#191970" stroke="#191970" points="82.1777,-855.365 92.4853,-857.815 85.9553,-849.4718 82.1777,-855.365"/>
</g>
<!-- Node27 -->
<g id="node28" class="node">
<title>Node27</title>
<g id="a_node28"><a xlink:href="classlfield.html#a6b6c5fddce5518d9909f64b89b873a68" target="_top" xlink:title="lfield::setKernelPbarY">
<polygon fill="#ffffff" stroke="#000000" points="94,-781.5 94,-800.5 205,-800.5 205,-781.5 94,-781.5"/>
<text text-anchor="middle" x="149.5" y="-788.5" font-family="Helvetica,sans-Serif" font-size="10.00" fill="#000000">lfield::setKernelPbarY</text>
</a>
</g>
</g>
<!-- Node0&#45;&gt;Node27 -->
<g id="edge34" class="edge">
<title>Node0&#45;&gt;Node27</title>
<path fill="none" stroke="#191970" d="M20.1892,-568.6949C25.0005,-606.3649 44.2022,-742.3852 74,-772 77.1277,-775.1085 80.6845,-777.7333 84.5101,-779.9472"/>
<polygon fill="#191970" stroke="#191970" points="83.3164,-783.2555 93.8491,-784.4014 86.3299,-776.9374 83.3164,-783.2555"/>
</g>
<!-- Node29 -->
<g id="node30" class="node">
<title>Node29</title>
<g id="a_node30"><a xlink:href="classlfield.html#af3c6253e8700837bcc8121ef328f41ef" target="_top" xlink:title="lfield::setKernelPbarYWith\lCouplingConstant">
<polygon fill="#ffffff" stroke="#000000" points="84,-732 84,-762 215,-762 215,-732 84,-732"/>
<text text-anchor="start" x="92" y="-750" font-family="Helvetica,sans-Serif" font-size="10.00" fill="#000000">lfield::setKernelPbarYWith</text>
<text text-anchor="middle" x="149.5" y="-739" font-family="Helvetica,sans-Serif" font-size="10.00" fill="#000000">CouplingConstant</text>
</a>
</g>
</g>
<!-- Node0&#45;&gt;Node29 -->
<g id="edge39" class="edge">
<title>Node0&#45;&gt;Node29</title>
<path fill="none" stroke="#191970" d="M19.3358,-568.6974C20.838,-596.7437 29.0558,-678.7603 74,-723 75.1027,-724.0854 76.2543,-725.1218 77.4484,-726.1114"/>
<polygon fill="#191970" stroke="#191970" points="75.6721,-729.1395 85.8774,-731.986 79.6746,-723.3967 75.6721,-729.1395"/>
</g>
<!-- Node30 -->
<g id="node31" class="node">
<title>Node30</title>
<g id="a_node31"><a xlink:href="classgfield.html#ad90d3015d279c25b8d55f51a706fd0b8" target="_top" xlink:title="gfield::setKernelXbarX">
<polygon fill="#ffffff" stroke="#000000" points="92.5,-126.5 92.5,-145.5 206.5,-145.5 206.5,-126.5 92.5,-126.5"/>
<text text-anchor="middle" x="149.5" y="-133.5" font-family="Helvetica,sans-Serif" font-size="10.00" fill="#000000">gfield::setKernelXbarX</text>
</a>
</g>
</g>
<!-- Node0&#45;&gt;Node30 -->
<g id="edge44" class="edge">
<title>Node0&#45;&gt;Node30</title>
<path fill="none" stroke="#191970" d="M19.6712,-549.4746C23.8437,-491.4159 46.9377,-186.6236 74,-156 76.7499,-152.8883 79.9223,-150.2348 83.3768,-147.9745"/>
<polygon fill="#191970" stroke="#191970" points="85.2876,-150.9222 92.4649,-143.1288 81.9941,-144.7454 85.2876,-150.9222"/>
</g>
<!-- Node34 -->
<g id="node35" class="node">
<title>Node34</title>
<g id="a_node35"><a xlink:href="classgfield.html#aea2227cd08dda6575702afa3dd70033f" target="_top" xlink:title="gfield::setKernelXbarXWith\lCouplingConstant">
<polygon fill="#ffffff" stroke="#000000" points="82.5,-77 82.5,-107 216.5,-107 216.5,-77 82.5,-77"/>
<text text-anchor="start" x="90.5" y="-95" font-family="Helvetica,sans-Serif" font-size="10.00" fill="#000000">gfield::setKernelXbarXWith</text>
<text text-anchor="middle" x="149.5" y="-84" font-family="Helvetica,sans-Serif" font-size="10.00" fill="#000000">CouplingConstant</text>
</a>
</g>
</g>
<!-- Node0&#45;&gt;Node34 -->
<g id="edge48" class="edge">
<title>Node0&#45;&gt;Node34</title>
<path fill="none" stroke="#191970" d="M19.5843,-549.3883C23.398,-487.954 45.4793,-151.7389 74,-117 74.9857,-115.7994 76.0305,-114.6561 77.1274,-113.5673"/>
<polygon fill="#191970" stroke="#191970" points="79.4853,-116.1615 85.0474,-107.1441 75.076,-110.7247 79.4853,-116.1615"/>
</g>
<!-- Node35 -->
<g id="node36" class="node">
<title>Node35</title>
<g id="a_node36"><a xlink:href="classgfield.html#aab4026191433a667c8f1a698d1e887ed" target="_top" xlink:title="gfield::setKernelXbarY">
<polygon fill="#ffffff" stroke="#000000" points="92.5,-214.5 92.5,-233.5 206.5,-233.5 206.5,-214.5 92.5,-214.5"/>
<text text-anchor="middle" x="149.5" y="-221.5" font-family="Helvetica,sans-Serif" font-size="10.00" fill="#000000">gfield::setKernelXbarY</text>
</a>
</g>
</g>
<!-- Node0&#45;&gt;Node35 -->
<g id="edge52" class="edge">
<title>Node0&#45;&gt;Node35</title>
<path fill="none" stroke="#191970" d="M19.3134,-549.2198C21.0564,-501.0195 31.0918,-289.2168 74,-243 76.7661,-240.0206 79.9244,-237.4791 83.3447,-235.3136"/>
<polygon fill="#191970" stroke="#191970" points="85.041,-238.3767 92.3116,-230.6702 81.8221,-232.1606 85.041,-238.3767"/>
</g>
<!-- Node36 -->
<g id="node37" class="node">
<title>Node36</title>
<g id="a_node37"><a xlink:href="classgfield.html#aa5886f04e2cae1df02e4b83aa642dedc" target="_top" xlink:title="gfield::setKernelXbarYWith\lCouplingConstant">
<polygon fill="#ffffff" stroke="#000000" points="82.5,-165 82.5,-195 216.5,-195 216.5,-165 82.5,-165"/>
<text text-anchor="start" x="90.5" y="-183" font-family="Helvetica,sans-Serif" font-size="10.00" fill="#000000">gfield::setKernelXbarYWith</text>
<text text-anchor="middle" x="149.5" y="-172" font-family="Helvetica,sans-Serif" font-size="10.00" fill="#000000">CouplingConstant</text>
</a>
</g>
</g>
<!-- Node0&#45;&gt;Node36 -->
<g id="edge56" class="edge">
<title>Node0&#45;&gt;Node36</title>
<path fill="none" stroke="#191970" d="M19.1856,-549.1638C20.3508,-497.6342 28.183,-259.1114 74,-205 75.1348,-203.6598 76.3432,-202.391 77.6151,-201.1899"/>
<polygon fill="#191970" stroke="#191970" points="79.7889,-203.9331 85.5234,-195.0243 75.4849,-198.4126 79.7889,-203.9331"/>
</g>
<!-- Node37 -->
<g id="node38" class="node">
<title>Node37</title>
<g id="a_node38"><a xlink:href="classlfield.html#a751b066f2c88db69b0315de9354e082b" target="_top" xlink:title="lfield::setMVModel">
<polygon fill="#ffffff" stroke="#000000" points="100.5,-38.5 100.5,-57.5 198.5,-57.5 198.5,-38.5 100.5,-38.5"/>
<text text-anchor="middle" x="149.5" y="-45.5" font-family="Helvetica,sans-Serif" font-size="10.00" fill="#000000">lfield::setMVModel</text>
</a>
</g>
</g>
<!-- Node0&#45;&gt;Node37 -->
<g id="edge60" class="edge">
<title>Node0&#45;&gt;Node37</title>
<path fill="none" stroke="#191970" d="M19.4352,-549.1421C22.4424,-482.9595 41.0003,-104.7929 74,-67 78.5992,-61.7328 84.4229,-57.8185 90.7883,-54.9254"/>
<polygon fill="#191970" stroke="#191970" points="92.2473,-58.118 100.4225,-51.3788 89.8291,-51.549 92.2473,-58.118"/>
</g>
<!-- Node38 -->
<g id="node39" class="node">
<title>Node38</title>
<g id="a_node39"><a xlink:href="classlfield.html#a5b407bbd988e3b009ef8364bbe705beb" target="_top" xlink:title="lfield::solvePoisson">
<polygon fill="#ffffff" stroke="#000000" points="99,-644.5 99,-663.5 200,-663.5 200,-644.5 99,-644.5"/>
<text text-anchor="middle" x="149.5" y="-651.5" font-family="Helvetica,sans-Serif" font-size="10.00" fill="#000000">lfield::solvePoisson</text>
</a>
</g>
</g>
<!-- Node0&#45;&gt;Node38 -->
<g id="edge61" class="edge">
<title>Node0&#45;&gt;Node38</title>
<path fill="none" stroke="#191970" d="M23.2144,-568.603C30.8709,-584.8891 48.6499,-617.8261 74,-635 78.6159,-638.1272 83.7046,-640.7398 88.9938,-642.9227"/>
<polygon fill="#191970" stroke="#191970" points="88.0776,-646.3127 98.672,-646.4058 90.448,-639.7262 88.0776,-646.3127"/>
</g>
<!-- Node39 -->
<g id="node40" class="node">
<title>Node39</title>
<g id="a_node40"><a xlink:href="classlfield.html#aa00604913a5b5456eaad72fcc36a6b42" target="_top" xlink:title="lfield::trace">
<polygon fill="#ffffff" stroke="#000000" points="117,-.5 117,-19.5 182,-19.5 182,-.5 117,-.5"/>
<text text-anchor="middle" x="149.5" y="-7.5" font-family="Helvetica,sans-Serif" font-size="10.00" fill="#000000">lfield::trace</text>
</a>
</g>
</g>
<!-- Node0&#45;&gt;Node39 -->
<g id="edge63" class="edge">
<title>Node0&#45;&gt;Node39</title>
<path fill="none" stroke="#191970" d="M19.3473,-549.2805C21.8861,-480.6003 38.4919,-69.9923 74,-29 82.2274,-19.5019 94.4363,-14.3967 106.6499,-11.7463"/>
<polygon fill="#191970" stroke="#191970" points="107.5326,-15.1477 116.8231,-10.0548 106.3845,-8.2424 107.5326,-15.1477"/>
</g>
<!-- Node2 -->
<g id="node3" class="node">
<title>Node2</title>
<g id="a_node3"><a xlink:href="classlfield.html#a3182dddf09856d6c2f715412b1e93dcc" target="_top" xlink:title="lfield::getNxl">
<polygon fill="#ffffff" stroke="#000000" points="288.5,-1135.5 288.5,-1154.5 359.5,-1154.5 359.5,-1135.5 288.5,-1135.5"/>
<text text-anchor="middle" x="324" y="-1142.5" font-family="Helvetica,sans-Serif" font-size="10.00" fill="#000000">lfield::getNxl</text>
</a>
</g>
</g>
<!-- Node1&#45;&gt;Node2 -->
<g id="edge2" class="edge">
<title>Node1&#45;&gt;Node2</title>
<path fill="none" stroke="#191970" d="M191.2971,-1116.1019C217.5827,-1121.826 251.5044,-1129.213 278.4714,-1135.0855"/>
<polygon fill="#191970" stroke="#191970" points="277.9201,-1138.5474 288.4359,-1137.2554 279.4096,-1131.7077 277.9201,-1138.5474"/>
</g>
<!-- Node3 -->
<g id="node4" class="node">
<title>Node3</title>
<g id="a_node4"><a xlink:href="classlfield.html#a0d5c1f786c377cd838c0122b3148ed6e" target="_top" xlink:title="lfield::getNyl">
<polygon fill="#ffffff" stroke="#000000" points="288.5,-1097.5 288.5,-1116.5 359.5,-1116.5 359.5,-1097.5 288.5,-1097.5"/>
<text text-anchor="middle" x="324" y="-1104.5" font-family="Helvetica,sans-Serif" font-size="10.00" fill="#000000">lfield::getNyl</text>
</a>
</g>
</g>
<!-- Node1&#45;&gt;Node3 -->
<g id="edge3" class="edge">
<title>Node1&#45;&gt;Node3</title>
<path fill="none" stroke="#191970" d="M191.2971,-1107C217.4669,-1107 251.2057,-1107 278.1146,-1107"/>
<polygon fill="#191970" stroke="#191970" points="278.4359,-1110.5001 288.4359,-1107 278.4358,-1103.5001 278.4359,-1110.5001"/>
</g>
<!-- Node4 -->
<g id="node5" class="node">
<title>Node4</title>
<g id="a_node5"><a xlink:href="classmpi__class.html#af78626438bee67b2eacf5bd583d4e4ce" target="_top" xlink:title="mpi_class::getSize">
<polygon fill="#ffffff" stroke="#000000" points="274,-1059.5 274,-1078.5 374,-1078.5 374,-1059.5 274,-1059.5"/>
<text text-anchor="middle" x="324" y="-1066.5" font-family="Helvetica,sans-Serif" font-size="10.00" fill="#000000">mpi_class::getSize</text>
</a>
</g>
</g>
<!-- Node1&#45;&gt;Node4 -->
<g id="edge4" class="edge">
<title>Node1&#45;&gt;Node4</title>
<path fill="none" stroke="#191970" d="M191.2971,-1097.8981C214.9745,-1092.7419 244.8479,-1086.2366 270.2529,-1080.7042"/>
<polygon fill="#191970" stroke="#191970" points="271.0826,-1084.1057 280.1089,-1078.558 269.5931,-1077.266 271.0826,-1084.1057"/>
</g>
<!-- Node7 -->
<g id="node8" class="node">
<title>Node7</title>
<g id="a_node8"><a xlink:href="classsu3__matrix.html#aedf511a4b74bf6f2a4a5ba681c1df72e" target="_top" xlink:title="su3_matrix::exponentiate">
<polygon fill="#ffffff" stroke="#000000" points="261,-1021.5 261,-1040.5 387,-1040.5 387,-1021.5 261,-1021.5"/>
<text text-anchor="middle" x="324" y="-1028.5" font-family="Helvetica,sans-Serif" font-size="10.00" fill="#000000">su3_matrix::exponentiate</text>
</a>
</g>
</g>
<!-- Node6&#45;&gt;Node7 -->
<g id="edge7" class="edge">
<title>Node6&#45;&gt;Node7</title>
<path fill="none" stroke="#191970" d="M198.5724,-1031C214.7517,-1031 233.1129,-1031 250.698,-1031"/>
<polygon fill="#191970" stroke="#191970" points="250.9399,-1034.5001 260.9398,-1031 250.9398,-1027.5001 250.9399,-1034.5001"/>
</g>
<!-- Node8 -->
<g id="node9" class="node">
<title>Node8</title>
<g id="a_node9"><a xlink:href="su3__matrix_8h.html#ab226771af05ad43c66ee5a218eee0bdd" target="_top" xlink:title="function_zheevh3">
<polygon fill="#ffffff" stroke="#000000" points="423,-1021.5 423,-1040.5 516,-1040.5 516,-1021.5 423,-1021.5"/>
<text text-anchor="middle" x="469.5" y="-1028.5" font-family="Helvetica,sans-Serif" font-size="10.00" fill="#000000">function_zheevh3</text>
</a>
</g>
</g>
<!-- Node7&#45;&gt;Node8 -->
<g id="edge8" class="edge">
<title>Node7&#45;&gt;Node8</title>
<path fill="none" stroke="#191970" d="M387.3952,-1031C395.8884,-1031 404.5547,-1031 412.9204,-1031"/>
<polygon fill="#191970" stroke="#191970" points="412.944,-1034.5001 422.9439,-1031 412.9439,-1027.5001 412.944,-1034.5001"/>
</g>
<!-- Node22 -->
<g id="node23" class="node">
<title>Node22</title>
<g id="a_node23"><a xlink:href="classmomenta.html#a5b2ec8b44c4874d8e18036c8927461db" target="_top" xlink:title="momenta::phat2">
<polygon fill="#ffffff" stroke="#000000" points="280.5,-738.5 280.5,-757.5 367.5,-757.5 367.5,-738.5 280.5,-738.5"/>
<text text-anchor="middle" x="324" y="-745.5" font-family="Helvetica,sans-Serif" font-size="10.00" fill="#000000">momenta::phat2</text>
</a>
</g>
</g>
<!-- Node21&#45;&gt;Node22 -->
<g id="edge22" class="edge">
<title>Node21&#45;&gt;Node22</title>
<path fill="none" stroke="#191970" d="M201.8558,-713.0016C227.0664,-720.2253 256.9306,-728.7824 280.8186,-735.6271"/>
<polygon fill="#191970" stroke="#191970" points="280.0821,-739.0569 290.6594,-738.4468 282.0103,-732.3276 280.0821,-739.0569"/>
</g>
<!-- Node24&#45;&gt;Node10 -->
<g id="edge25" class="edge">
<title>Node24&#45;&gt;Node10</title>
<path fill="none" stroke="#191970" d="M187.523,-907.4377C199.5143,-904.4204 212.8112,-901.0727 225,-898 241.7971,-893.7656 260.1957,-889.1212 276.5257,-884.9968"/>
<polygon fill="#191970" stroke="#191970" points="277.555,-888.3468 286.3933,-882.5043 275.8407,-881.56 277.555,-888.3468"/>
</g>
<!-- Node24&#45;&gt;Node11 -->
<g id="edge26" class="edge">
<title>Node24&#45;&gt;Node11</title>
<path fill="none" stroke="#191970" d="M204.8306,-907.4882C211.9173,-905.0204 218.8386,-901.9128 225,-898 246.3293,-884.4546 240.6047,-868.9148 261,-854 267.1383,-849.5111 274.1923,-845.6954 281.3085,-842.4991"/>
<polygon fill="#191970" stroke="#191970" points="283.0573,-845.5641 290.9707,-838.5193 280.3913,-839.0917 283.0573,-845.5641"/>
</g>
<!-- Node24&#45;&gt;Node22 -->
<g id="edge28" class="edge">
<title>Node24&#45;&gt;Node22</title>
<path fill="none" stroke="#191970" d="M205.055,-910.3039C212.4406,-907.4396 219.3861,-903.4719 225,-898 267.6253,-856.4525 219.9669,-812.1207 261,-769 263.9953,-765.8523 267.474,-763.1763 271.229,-760.9013"/>
<polygon fill="#191970" stroke="#191970" points="273.036,-763.9102 280.3943,-756.2874 269.8884,-757.6577 273.036,-763.9102"/>
</g>
<!-- Node25 -->
<g id="node26" class="node">
<title>Node25</title>
<g id="a_node26"><a xlink:href="classmomenta.html#a98078c7de442771358e691a2b0b037ce" target="_top" xlink:title="momenta::pbarX">
<polygon fill="#ffffff" stroke="#000000" points="279.5,-904.5 279.5,-923.5 368.5,-923.5 368.5,-904.5 279.5,-904.5"/>
<text text-anchor="middle" x="324" y="-911.5" font-family="Helvetica,sans-Serif" font-size="10.00" fill="#000000">momenta::pbarX</text>
</a>
</g>
</g>
<!-- Node24&#45;&gt;Node25 -->
<g id="edge27" class="edge">
<title>Node24&#45;&gt;Node25</title>
<path fill="none" stroke="#191970" d="M205.1927,-916.0425C225.6712,-915.6905 248.8304,-915.2923 269.2273,-914.9417"/>
<polygon fill="#191970" stroke="#191970" points="269.3643,-918.4399 279.3027,-914.7684 269.2439,-911.4409 269.3643,-918.4399"/>
</g>
<!-- Node26&#45;&gt;Node10 -->
<g id="edge30" class="edge">
<title>Node26&#45;&gt;Node10</title>
<path fill="none" stroke="#191970" d="M215.471,-873C230.6056,-873 246.65,-873 261.6272,-873"/>
<polygon fill="#191970" stroke="#191970" points="261.8013,-876.5001 271.8012,-873 261.8012,-869.5001 261.8013,-876.5001"/>
</g>
<!-- Node26&#45;&gt;Node11 -->
<g id="edge31" class="edge">
<title>Node26&#45;&gt;Node11</title>
<path fill="none" stroke="#191970" d="M209.0649,-857.9808C231.0408,-852.4396 255.6307,-846.2393 276.4088,-841.0001"/>
<polygon fill="#191970" stroke="#191970" points="277.4339,-844.3512 286.2746,-838.5124 275.7223,-837.5637 277.4339,-844.3512"/>
</g>
<!-- Node26&#45;&gt;Node22 -->
<g id="edge32" class="edge">
<title>Node26&#45;&gt;Node22</title>
<path fill="none" stroke="#191970" d="M169.1348,-857.9909C184.8057,-845.6925 207.0331,-827.5203 225,-810 242.3615,-793.07 240.7961,-782.4108 261,-769 265.3315,-766.1248 270.0919,-763.611 274.9955,-761.4204"/>
<polygon fill="#191970" stroke="#191970" points="276.5495,-764.5682 284.5271,-757.5961 273.9429,-758.0716 276.5495,-764.5682"/>
</g>
<!-- Node26&#45;&gt;Node25 -->
<g id="edge33" class="edge">
<title>Node26&#45;&gt;Node25</title>
<path fill="none" stroke="#191970" d="M213.4865,-888.0341C233.2749,-892.6835 254.7855,-897.7376 273.5257,-902.1407"/>
<polygon fill="#191970" stroke="#191970" points="272.7998,-905.5654 283.3352,-904.4455 274.4009,-898.751 272.7998,-905.5654"/>
</g>
<!-- Node27&#45;&gt;Node10 -->
<g id="edge35" class="edge">
<title>Node27&#45;&gt;Node10</title>
<path fill="none" stroke="#191970" d="M167.0133,-800.6073C188.7614,-812.3847 227.1337,-832.6657 261,-848 269.8955,-852.0278 279.6439,-856.0713 288.7574,-859.697"/>
<polygon fill="#191970" stroke="#191970" points="287.7394,-863.0572 298.3271,-863.4469 290.2933,-856.5397 287.7394,-863.0572"/>
</g>
<!-- Node27&#45;&gt;Node11 -->
<g id="edge36" class="edge">
<title>Node27&#45;&gt;Node11</title>
<path fill="none" stroke="#191970" d="M193.5337,-800.589C216.8721,-805.6713 245.7296,-811.9554 270.3658,-817.3203"/>
<polygon fill="#191970" stroke="#191970" points="269.7672,-820.7719 280.2829,-819.4799 271.2567,-813.9322 269.7672,-820.7719"/>
</g>
<!-- Node27&#45;&gt;Node22 -->
<g id="edge38" class="edge">
<title>Node27&#45;&gt;Node22</title>
<path fill="none" stroke="#191970" d="M188.2272,-781.4569C213.982,-775.1105 248.0076,-766.7259 275.5532,-759.9382"/>
<polygon fill="#191970" stroke="#191970" points="276.5089,-763.3074 285.3811,-757.5164 274.8341,-756.5108 276.5089,-763.3074"/>
</g>
<!-- Node28 -->
<g id="node29" class="node">
<title>Node28</title>
<g id="a_node29"><a xlink:href="classmomenta.html#adf9462fd94288b5cd635a555d689434b" target="_top" xlink:title="momenta::pbarY">
<polygon fill="#ffffff" stroke="#000000" points="279.5,-778.5 279.5,-797.5 368.5,-797.5 368.5,-778.5 279.5,-778.5"/>
<text text-anchor="middle" x="324" y="-785.5" font-family="Helvetica,sans-Serif" font-size="10.00" fill="#000000">momenta::pbarY</text>
</a>
</g>
</g>
<!-- Node27&#45;&gt;Node28 -->
<g id="edge37" class="edge">
<title>Node27&#45;&gt;Node28</title>
<path fill="none" stroke="#191970" d="M205.1927,-790.0425C225.6712,-789.6905 248.8304,-789.2923 269.2273,-788.9417"/>
<polygon fill="#191970" stroke="#191970" points="269.3643,-792.4399 279.3027,-788.7684 269.2439,-785.4409 269.3643,-792.4399"/>
</g>
<!-- Node29&#45;&gt;Node10 -->
<g id="edge40" class="edge">
<title>Node29&#45;&gt;Node10</title>
<path fill="none" stroke="#191970" d="M210.4632,-762.1484C215.7049,-764.9043 220.6558,-768.1583 225,-772 252.9981,-796.7597 233.7316,-822.4388 261,-848 265.7325,-852.4362 271.3481,-856.1211 277.247,-859.1726"/>
<polygon fill="#191970" stroke="#191970" points="276.1125,-862.5018 286.6637,-863.4632 279.015,-856.1319 276.1125,-862.5018"/>
</g>
<!-- Node29&#45;&gt;Node11 -->
<g id="edge41" class="edge">
<title>Node29&#45;&gt;Node11</title>
<path fill="none" stroke="#191970" d="M204.8308,-762.0661C211.8427,-764.9064 218.7442,-768.2028 225,-772 244.0762,-783.579 242.0182,-795.2669 261,-807 266.4323,-810.3579 272.4463,-813.2897 278.5396,-815.8233"/>
<polygon fill="#191970" stroke="#191970" points="277.5172,-819.1795 288.1078,-819.4809 280.0167,-812.6409 277.5172,-819.1795"/>
</g>
<!-- Node29&#45;&gt;Node22 -->
<g id="edge42" class="edge">
<title>Node29&#45;&gt;Node22</title>
<path fill="none" stroke="#191970" d="M215.471,-747.3781C233.4543,-747.4811 252.7221,-747.5915 269.9577,-747.6903"/>
<polygon fill="#191970" stroke="#191970" points="270.3772,-751.1927 280.3971,-747.7501 270.4174,-744.1928 270.3772,-751.1927"/>
</g>
<!-- Node29&#45;&gt;Node28 -->
<g id="edge43" class="edge">
<title>Node29&#45;&gt;Node28</title>
<path fill="none" stroke="#191970" d="M213.4865,-762.0341C233.2749,-766.6835 254.7855,-771.7376 273.5257,-776.1407"/>
<polygon fill="#191970" stroke="#191970" points="272.7998,-779.5654 283.3352,-778.4455 274.4009,-772.751 272.7998,-779.5654"/>
</g>
<!-- Node31 -->
<g id="node32" class="node">
<title>Node31</title>
<g id="a_node32"><a xlink:href="classpositions.html#a77d78afe9d418da5a6f5ba15e123e402" target="_top" xlink:title="positions::xhatX">
<polygon fill="#ffffff" stroke="#000000" points="280.5,-186.5 280.5,-205.5 367.5,-205.5 367.5,-186.5 280.5,-186.5"/>
<text text-anchor="middle" x="324" y="-193.5" font-family="Helvetica,sans-Serif" font-size="10.00" fill="#000000">positions::xhatX</text>
</a>
</g>
</g>
<!-- Node30&#45;&gt;Node31 -->
<g id="edge45" class="edge">
<title>Node30&#45;&gt;Node31</title>
<path fill="none" stroke="#191970" d="M193.6794,-145.5711C204.1294,-148.4156 215.1066,-151.8926 225,-156 242.1075,-163.1025 244.0156,-169.6081 261,-177 266.3013,-179.3072 271.9688,-181.4448 277.6504,-183.3896"/>
<polygon fill="#191970" stroke="#191970" points="276.5714,-186.719 287.1635,-186.4765 278.732,-180.0608 276.5714,-186.719"/>
</g>
<!-- Node32 -->
<g id="node33" class="node">
<title>Node32</title>
<g id="a_node33"><a xlink:href="classpositions.html#a7c323a6022ee85bf1312d56d9726c308" target="_top" xlink:title="positions::xhatY">
<polygon fill="#ffffff" stroke="#000000" points="280.5,-148.5 280.5,-167.5 367.5,-167.5 367.5,-148.5 280.5,-148.5"/>
<text text-anchor="middle" x="324" y="-155.5" font-family="Helvetica,sans-Serif" font-size="10.00" fill="#000000">positions::xhatY</text>
</a>
</g>
</g>
<!-- Node30&#45;&gt;Node32 -->
<g id="edge46" class="edge">
<title>Node30&#45;&gt;Node32</title>
<path fill="none" stroke="#191970" d="M206.6378,-143.2036C227.1304,-145.7872 250.1491,-148.6893 270.3367,-151.2344"/>
<polygon fill="#191970" stroke="#191970" points="269.9412,-154.7122 280.3005,-152.4906 270.8169,-147.7672 269.9412,-154.7122"/>
</g>
<!-- Node33 -->
<g id="node34" class="node">
<title>Node33</title>
<g id="a_node34"><a xlink:href="classpositions.html#a6dbe3d67f866039efa6736ed9a7fb210" target="_top" xlink:title="positions::xbar2">
<polygon fill="#ffffff" stroke="#000000" points="281,-110.5 281,-129.5 367,-129.5 367,-110.5 281,-110.5"/>
<text text-anchor="middle" x="324" y="-117.5" font-family="Helvetica,sans-Serif" font-size="10.00" fill="#000000">positions::xbar2</text>
</a>
</g>
</g>
<!-- Node30&#45;&gt;Node33 -->
<g id="edge47" class="edge">
<title>Node30&#45;&gt;Node33</title>
<path fill="none" stroke="#191970" d="M206.6378,-130.761C227.3005,-128.8664 250.5313,-126.7364 270.8387,-124.8744"/>
<polygon fill="#191970" stroke="#191970" points="271.216,-128.3546 280.8547,-123.956 270.5768,-121.3838 271.216,-128.3546"/>
</g>
<!-- Node34&#45;&gt;Node31 -->
<g id="edge49" class="edge">
<title>Node34&#45;&gt;Node31</title>
<path fill="none" stroke="#191970" d="M208.936,-107.0404C214.6713,-109.8265 220.1494,-113.1169 225,-117 249.2774,-136.435 236.4639,-157.8927 261,-177 264.1054,-179.4183 267.516,-181.5298 271.0935,-183.3733"/>
<polygon fill="#191970" stroke="#191970" points="269.6898,-186.5795 280.2508,-187.4258 272.5226,-180.1783 269.6898,-186.5795"/>
</g>
<!-- Node34&#45;&gt;Node32 -->
<g id="edge50" class="edge">
<title>Node34&#45;&gt;Node32</title>
<path fill="none" stroke="#191970" d="M200.4793,-107.1072C208.8005,-110.0759 217.2335,-113.399 225,-117 242.0115,-124.8876 243.8841,-131.3415 261,-139 266.0836,-141.2746 271.5156,-143.372 276.979,-145.277"/>
<polygon fill="#191970" stroke="#191970" points="276.1858,-148.7004 286.7787,-148.4952 278.3699,-142.0498 276.1858,-148.7004"/>
</g>
<!-- Node34&#45;&gt;Node33 -->
<g id="edge51" class="edge">
<title>Node34&#45;&gt;Node33</title>
<path fill="none" stroke="#191970" d="M216.9663,-102.8255C234.757,-105.6802 253.7061,-108.7208 270.639,-111.4378"/>
<polygon fill="#191970" stroke="#191970" points="270.4649,-114.9545 280.8932,-113.0831 271.574,-108.0429 270.4649,-114.9545"/>
</g>
<!-- Node35&#45;&gt;Node31 -->
<g id="edge53" class="edge">
<title>Node35&#45;&gt;Node31</title>
<path fill="none" stroke="#191970" d="M206.6378,-214.8318C227.1304,-211.5435 250.1491,-207.85 270.3367,-204.6107"/>
<polygon fill="#191970" stroke="#191970" points="270.9813,-208.0522 280.3005,-203.012 269.8723,-201.1406 270.9813,-208.0522"/>
</g>
<!-- Node35&#45;&gt;Node32 -->
<g id="edge54" class="edge">
<title>Node35&#45;&gt;Node32</title>
<path fill="none" stroke="#191970" d="M199.6828,-214.4844C208.3497,-211.9719 217.1036,-208.8514 225,-205 243.2183,-196.1142 242.9926,-186.3058 261,-177 265.2784,-174.789 269.8562,-172.791 274.5186,-170.9957"/>
<polygon fill="#191970" stroke="#191970" points="275.879,-174.2271 284.1391,-167.5922 273.5443,-167.6279 275.879,-174.2271"/>
</g>
<!-- Node35&#45;&gt;Node33 -->
<g id="edge55" class="edge">
<title>Node35&#45;&gt;Node33</title>
<path fill="none" stroke="#191970" d="M206.7202,-215.0818C213.2751,-212.5142 219.5501,-209.2209 225,-205 251.4168,-184.5404 235.0647,-160.0666 261,-139 264.1521,-136.4397 267.6435,-134.224 271.3192,-132.3067"/>
<polygon fill="#191970" stroke="#191970" points="273.0227,-135.3801 280.7474,-128.1289 270.1868,-128.9803 273.0227,-135.3801"/>
</g>
<!-- Node36&#45;&gt;Node31 -->
<g id="edge57" class="edge">
<title>Node36&#45;&gt;Node31</title>
<path fill="none" stroke="#191970" d="M216.9663,-186.186C234.5981,-187.8027 253.3678,-189.5237 270.1849,-191.0657"/>
<polygon fill="#191970" stroke="#191970" points="270.0982,-194.5723 280.376,-192.0001 270.7374,-187.6016 270.0982,-194.5723"/>
</g>
<!-- Node36&#45;&gt;Node32 -->
<g id="edge58" class="edge">
<title>Node36&#45;&gt;Node32</title>
<path fill="none" stroke="#191970" d="M216.9663,-171.4942C234.5981,-169.2713 253.3678,-166.9049 270.1849,-164.7847"/>
<polygon fill="#191970" stroke="#191970" points="270.8924,-168.2233 280.376,-163.4999 270.0167,-161.2783 270.8924,-168.2233"/>
</g>
<!-- Node36&#45;&gt;Node33 -->
<g id="edge59" class="edge">
<title>Node36&#45;&gt;Node33</title>
<path fill="none" stroke="#191970" d="M197.2779,-164.9701C206.5333,-161.8363 216.1141,-158.4362 225,-155 241.3306,-148.6849 244.5861,-145.0953 261,-139 266.9739,-136.7816 273.3356,-134.6278 279.6324,-132.6159"/>
<polygon fill="#191970" stroke="#191970" points="280.8955,-135.8887 289.409,-129.5821 278.8209,-129.2032 280.8955,-135.8887"/>
</g>
<!-- Node38&#45;&gt;Node22 -->
<g id="edge62" class="edge">
<title>Node38&#45;&gt;Node22</title>
<path fill="none" stroke="#191970" d="M196.8211,-663.5567C206.3932,-666.3082 216.2107,-669.7498 225,-674 256.3,-689.1358 287.6364,-714.7546 306.4254,-731.524"/>
<polygon fill="#191970" stroke="#191970" points="304.149,-734.1847 313.9015,-738.3247 308.8593,-729.0066 304.149,-734.1847"/>
</g>
</g>
</svg>
