<?xml version="1.0" encoding="UTF-8" standalone="no"?>
<!DOCTYPE svg PUBLIC "-//W3C//DTD SVG 1.1//EN"
 "http://www.w3.org/Graphics/SVG/1.1/DTD/svg11.dtd">
<!-- Generated by graphviz version 2.40.1 (20161225.0304)
 -->
<!-- Title: main_explicit.cpp Pages: 1 -->
<svg width="2204pt" height="364pt"
 viewBox="0.00 0.00 2203.50 364.00" xmlns="http://www.w3.org/2000/svg" xmlns:xlink="http://www.w3.org/1999/xlink">
<g id="graph0" class="graph" transform="scale(1 1) rotate(0) translate(4 360)">
<title>main_explicit.cpp</title>
<polygon fill="#ffffff" stroke="transparent" points="-4,4 -4,-360 2199.5,-360 2199.5,4 -4,4"/>
<!-- Node0 -->
<g id="node1" class="node">
<title>Node0</title>
<polygon fill="#bfbfbf" stroke="#000000" points="874,-336.5 874,-355.5 966,-355.5 966,-336.5 874,-336.5"/>
<text text-anchor="middle" x="920" y="-343.5" font-family="Helvetica,sans-Serif" font-size="10.00" fill="#000000">main_explicit.cpp</text>
</g>
<!-- Node1 -->
<g id="node2" class="node">
<title>Node1</title>
<polygon fill="#ffffff" stroke="#bfbfbf" points="534,-168.5 534,-187.5 580,-187.5 580,-168.5 534,-168.5"/>
<text text-anchor="middle" x="557" y="-175.5" font-family="Helvetica,sans-Serif" font-size="10.00" fill="#000000">stdio.h</text>
</g>
<!-- Node0&#45;&gt;Node1 -->
<g id="edge1" class="edge">
<title>Node0&#45;&gt;Node1</title>
<path fill="none" stroke="#191970" d="M873.7631,-344.6891C764.7105,-341.1214 498.5863,-329.4559 472,-300 449.3682,-274.9254 454.7097,-253.017 472,-224 483.2849,-205.0615 505.3757,-193.4459 524.2081,-186.6252"/>
<polygon fill="#191970" stroke="#191970" points="525.5699,-189.8613 533.9645,-183.3976 523.3713,-183.2155 525.5699,-189.8613"/>
</g>
<!-- Node2 -->
<g id="node3" class="node">
<title>Node2</title>
<polygon fill="#ffffff" stroke="#bfbfbf" points="995,-.5 995,-19.5 1043,-19.5 1043,-.5 995,-.5"/>
<text text-anchor="middle" x="1019" y="-7.5" font-family="Helvetica,sans-Serif" font-size="10.00" fill="#000000">stdlib.h</text>
</g>
<!-- Node0&#45;&gt;Node2 -->
<g id="edge2" class="edge">
<title>Node0&#45;&gt;Node2</title>
<path fill="none" stroke="#191970" d="M873.7466,-345.2888C687.1862,-341.8192 0,-322.9986 0,-234 0,-234 0,-234 0,-122 0,23.2157 176.0969,-75.4807 320,-56 573.7479,-21.6492 882.9303,-12.6865 984.7185,-10.5867"/>
<polygon fill="#191970" stroke="#191970" points="984.8054,-14.0858 994.7343,-10.3888 984.667,-7.0872 984.8054,-14.0858"/>
</g>
<!-- Node3 -->
<g id="node4" class="node">
<title>Node3</title>
<polygon fill="#ffffff" stroke="#bfbfbf" points="1393.5,-56.5 1393.5,-75.5 1434.5,-75.5 1434.5,-56.5 1393.5,-56.5"/>
<text text-anchor="middle" x="1414" y="-63.5" font-family="Helvetica,sans-Serif" font-size="10.00" fill="#000000">mpi.h</text>
</g>
<!-- Node0&#45;&gt;Node3 -->
<g id="edge3" class="edge">
<title>Node0&#45;&gt;Node3</title>
<path fill="none" stroke="#191970" d="M966.2601,-345.3199C1125.2169,-342.7171 1648.3004,-331.8792 1813,-300 1888.2048,-285.4434 1931.4963,-306.3464 1976,-244 2010.2755,-195.9825 2006.2862,-150.9773 1962,-112 1923.0288,-77.7005 1554.6884,-68.4786 1444.8,-66.4809"/>
<polygon fill="#191970" stroke="#191970" points="1444.7633,-62.9798 1434.7037,-66.3046 1444.6411,-69.9787 1444.7633,-62.9798"/>
</g>
<!-- Node4 -->
<g id="node5" class="node">
<title>Node4</title>
<polygon fill="#ffffff" stroke="#bfbfbf" points="383,-112.5 383,-131.5 445,-131.5 445,-112.5 383,-112.5"/>
<text text-anchor="middle" x="414" y="-119.5" font-family="Helvetica,sans-Serif" font-size="10.00" fill="#000000">complex.h</text>
</g>
<!-- Node0&#45;&gt;Node4 -->
<g id="edge4" class="edge">
<title>Node0&#45;&gt;Node4</title>
<path fill="none" stroke="#191970" d="M873.8232,-344.8303C717.0827,-339.7309 210.3839,-313.619 125,-188 120.0032,-180.6485 119.2297,-174.7614 125,-168 140.8873,-149.3839 296.5863,-132.7314 372.6284,-125.6331"/>
<polygon fill="#191970" stroke="#191970" points="373.1699,-129.0982 382.8068,-124.6958 372.5279,-122.1277 373.1699,-129.0982"/>
</g>
<!-- Node5 -->
<g id="node6" class="node">
<title>Node5</title>
<g id="a_node6"><a xlink:href="$su3__matrix_8h.html" xlink:title="su3_matrix.h">
<polygon fill="#ffffff" stroke="#000000" points="346.5,-224.5 346.5,-243.5 419.5,-243.5 419.5,-224.5 346.5,-224.5"/>
<text text-anchor="middle" x="383" y="-231.5" font-family="Helvetica,sans-Serif" font-size="10.00" fill="#000000">su3_matrix.h</text>
</a>
</g>
</g>
<!-- Node0&#45;&gt;Node5 -->
<g id="edge5" class="edge">
<title>Node0&#45;&gt;Node5</title>
<path fill="none" stroke="#191970" d="M873.9332,-343.7247C760.1013,-337.8086 471.9958,-320.9371 434,-300 414.8571,-289.4516 400.5585,-268.3984 392.0464,-252.8946"/>
<polygon fill="#191970" stroke="#191970" points="394.9871,-250.9603 387.2956,-243.674 388.7645,-254.1665 394.9871,-250.9603"/>
</g>
<!-- Node6 -->
<g id="node7" class="node">
<title>Node6</title>
<polygon fill="#ffffff" stroke="#bfbfbf" points="674.5,-168.5 674.5,-187.5 721.5,-187.5 721.5,-168.5 674.5,-168.5"/>
<text text-anchor="middle" x="698" y="-175.5" font-family="Helvetica,sans-Serif" font-size="10.00" fill="#000000">math.h</text>
</g>
<!-- Node0&#45;&gt;Node6 -->
<g id="edge93" class="edge">
<title>Node0&#45;&gt;Node6</title>
<path fill="none" stroke="#191970" d="M873.6845,-340.9677C781.3733,-329.8183 580.2005,-299.526 544,-244 539.1454,-236.5538 538.6897,-231.1283 544,-224 558.4147,-204.6502 623.6375,-190.4506 664.441,-183.2737"/>
<polygon fill="#191970" stroke="#191970" points="665.2224,-186.691 674.492,-181.5603 664.046,-179.7906 665.2224,-186.691"/>
</g>
<!-- Node11 -->
<g id="node12" class="node">
<title>Node11</title>
<g id="a_node12"><a xlink:href="$config_8h.html" xlink:title="config.h">
<polygon fill="#ffffff" stroke="#000000" points="1085.5,-56.5 1085.5,-75.5 1136.5,-75.5 1136.5,-56.5 1085.5,-56.5"/>
<text text-anchor="middle" x="1111" y="-63.5" font-family="Helvetica,sans-Serif" font-size="10.00" fill="#000000">config.h</text>
</a>
</g>
</g>
<!-- Node0&#45;&gt;Node11 -->
<g id="edge16" class="edge">
<title>Node0&#45;&gt;Node11</title>
<path fill="none" stroke="#191970" d="M873.8802,-343.2143C795.3894,-337.8723 639.6096,-324.4883 591,-300 553.7633,-281.2411 513.0796,-258.8299 536,-224 573.9891,-166.2716 875.0568,-115.1938 889,-112 954.5329,-96.9891 1031.4455,-81.5311 1075.3789,-72.9052"/>
<polygon fill="#191970" stroke="#191970" points="1076.1449,-76.3217 1085.2864,-70.966 1074.8003,-69.4521 1076.1449,-76.3217"/>
</g>
<!-- Node13 -->
<g id="node14" class="node">
<title>Node13</title>
<polygon fill="#ffffff" stroke="#bfbfbf" points="552.5,-224.5 552.5,-243.5 599.5,-243.5 599.5,-224.5 552.5,-224.5"/>
<text text-anchor="middle" x="576" y="-231.5" font-family="Helvetica,sans-Serif" font-size="10.00" fill="#000000">fftw3.h</text>
</g>
<!-- Node0&#45;&gt;Node13 -->
<g id="edge20" class="edge">
<title>Node0&#45;&gt;Node13</title>
<path fill="none" stroke="#191970" d="M873.8722,-337.522C834.1453,-329.6403 775.5539,-316.6232 726,-300 682.3783,-285.3668 634.0101,-262.8835 604.3001,-248.3077"/>
<polygon fill="#191970" stroke="#191970" points="605.4883,-244.9905 594.9736,-243.6905 602.3826,-251.2639 605.4883,-244.9905"/>
</g>
<!-- Node14 -->
<g id="node15" class="node">
<title>Node14</title>
<polygon fill="#ffffff" stroke="#bfbfbf" points="846.5,-224.5 846.5,-243.5 911.5,-243.5 911.5,-224.5 846.5,-224.5"/>
<text text-anchor="middle" x="879" y="-231.5" font-family="Helvetica,sans-Serif" font-size="10.00" fill="#000000">fftw3&#45;mpi.h</text>
</g>
<!-- Node0&#45;&gt;Node14 -->
<g id="edge21" class="edge">
<title>Node0&#45;&gt;Node14</title>
<path fill="none" stroke="#191970" d="M916.5044,-336.4509C909.7568,-318.0186 894.8236,-277.2254 885.9711,-253.043"/>
<polygon fill="#191970" stroke="#191970" points="889.2112,-251.7123 882.4868,-243.5249 882.6378,-254.1187 889.2112,-251.7123"/>
</g>
<!-- Node15 -->
<g id="node16" class="node">
<title>Node15</title>
<g id="a_node16"><a xlink:href="$field_8h.html" xlink:title="field.h">
<polygon fill="#ffffff" stroke="#000000" points="1292.5,-224.5 1292.5,-243.5 1335.5,-243.5 1335.5,-224.5 1292.5,-224.5"/>
<text text-anchor="middle" x="1314" y="-231.5" font-family="Helvetica,sans-Serif" font-size="10.00" fill="#000000">field.h</text>
</a>
</g>
</g>
<!-- Node0&#45;&gt;Node15 -->
<g id="edge22" class="edge">
<title>Node0&#45;&gt;Node15</title>
<path fill="none" stroke="#191970" d="M966.297,-343.1607C1061.0746,-336.9445 1270.3924,-320.9922 1295,-300 1308.1563,-288.7767 1312.5039,-269.087 1313.801,-254.1261"/>
<polygon fill="#191970" stroke="#191970" points="1317.3118,-253.9814 1314.2936,-243.8256 1310.3198,-253.6469 1317.3118,-253.9814"/>
</g>
<!-- Node18 -->
<g id="node19" class="node">
<title>Node18</title>
<polygon fill="#ffffff" stroke="#bfbfbf" points="1885,-112.5 1885,-131.5 1929,-131.5 1929,-112.5 1885,-112.5"/>
<text text-anchor="middle" x="1907" y="-119.5" font-family="Helvetica,sans-Serif" font-size="10.00" fill="#000000">omp.h</text>
</g>
<!-- Node0&#45;&gt;Node18 -->
<g id="edge92" class="edge">
<title>Node0&#45;&gt;Node18</title>
<path fill="none" stroke="#191970" d="M966.2119,-345.0316C1158.8858,-340.5256 1891.3958,-318.5659 1959,-244 1966.3468,-235.8966 1974.6003,-206.2382 1957,-168 1951.3746,-155.7784 1940.8361,-145.3157 1930.8793,-137.4707"/>
<polygon fill="#191970" stroke="#191970" points="1932.9043,-134.6154 1922.773,-131.5155 1928.7599,-140.2567 1932.9043,-134.6154"/>
</g>
<!-- Node19 -->
<g id="node20" class="node">
<title>Node19</title>
<g id="a_node20"><a xlink:href="$mpi__class_8h.html" xlink:title="mpi_class.h">
<polygon fill="#ffffff" stroke="#000000" points="1169.5,-112.5 1169.5,-131.5 1238.5,-131.5 1238.5,-112.5 1169.5,-112.5"/>
<text text-anchor="middle" x="1204" y="-119.5" font-family="Helvetica,sans-Serif" font-size="10.00" fill="#000000">mpi_class.h</text>
</a>
</g>
</g>
<!-- Node0&#45;&gt;Node19 -->
<g id="edge94" class="edge">
<title>Node0&#45;&gt;Node19</title>
<path fill="none" stroke="#191970" d="M923.1333,-336.4845C934.3458,-302.9825 973.3298,-191.2558 1002,-168 1025.8305,-148.6699 1107.6287,-134.6725 1159.537,-127.4863"/>
<polygon fill="#191970" stroke="#191970" points="1160.0532,-130.9484 1169.4941,-126.1403 1159.1154,-124.0115 1160.0532,-130.9484"/>
</g>
<!-- Node20 -->
<g id="node21" class="node">
<title>Node20</title>
<g id="a_node21"><a xlink:href="$MV__class_8h.html" xlink:title="MV_class.h">
<polygon fill="#ffffff" stroke="#000000" points="1272,-168.5 1272,-187.5 1340,-187.5 1340,-168.5 1272,-168.5"/>
<text text-anchor="middle" x="1306" y="-175.5" font-family="Helvetica,sans-Serif" font-size="10.00" fill="#000000">MV_class.h</text>
</a>
</g>
</g>
<!-- Node0&#45;&gt;Node20 -->
<g id="edge97" class="edge">
<title>Node0&#45;&gt;Node20</title>
<path fill="none" stroke="#191970" d="M956.8047,-336.4656C987.1302,-328.1595 1031.0059,-315.0991 1068,-300 1148.3323,-267.2123 1238.2003,-217.2865 1280.8796,-192.7126"/>
<polygon fill="#191970" stroke="#191970" points="1282.8275,-195.6293 1289.7289,-187.5905 1279.3208,-189.5709 1282.8275,-195.6293"/>
</g>
<!-- Node23 -->
<g id="node24" class="node">
<title>Node23</title>
<g id="a_node24"><a xlink:href="$momenta_8h.html" xlink:title="momenta.h">
<polygon fill="#ffffff" stroke="#000000" points="1047.5,-112.5 1047.5,-131.5 1112.5,-131.5 1112.5,-112.5 1047.5,-112.5"/>
<text text-anchor="middle" x="1080" y="-119.5" font-family="Helvetica,sans-Serif" font-size="10.00" fill="#000000">momenta.h</text>
</a>
</g>
</g>
<!-- Node0&#45;&gt;Node23 -->
<g id="edge95" class="edge">
<title>Node0&#45;&gt;Node23</title>
<path fill="none" stroke="#191970" d="M919.5055,-336.1235C918.5779,-306.7089 919.822,-218.5942 964,-168 982.6606,-146.6292 1012.5849,-135.0854 1037.3658,-128.907"/>
<polygon fill="#191970" stroke="#191970" points="1038.3016,-132.2836 1047.2727,-126.6472 1036.7447,-125.4589 1038.3016,-132.2836"/>
</g>
<!-- Node24 -->
<g id="node25" class="node">
<title>Node24</title>
<g id="a_node25"><a xlink:href="$positions_8h.html" xlink:title="positions.h">
<polygon fill="#ffffff" stroke="#000000" points="1295,-112.5 1295,-131.5 1359,-131.5 1359,-112.5 1295,-112.5"/>
<text text-anchor="middle" x="1327" y="-119.5" font-family="Helvetica,sans-Serif" font-size="10.00" fill="#000000">positions.h</text>
</a>
</g>
</g>
<!-- Node0&#45;&gt;Node24 -->
<g id="edge96" class="edge">
<title>Node0&#45;&gt;Node24</title>
<path fill="none" stroke="#191970" d="M937.4883,-336.375C1001.5438,-301.1209 1223.6091,-178.9031 1300.5277,-136.5695"/>
<polygon fill="#191970" stroke="#191970" points="1302.5037,-139.4771 1309.5769,-131.5891 1299.1285,-133.3446 1302.5037,-139.4771"/>
</g>
<!-- Node27 -->
<g id="node28" class="node">
<title>Node27</title>
<g id="a_node28"><a xlink:href="$matrix_8h.html" xlink:title="matrix.h">
<polygon fill="#ffffff" stroke="#000000" points="1234,-280.5 1234,-299.5 1286,-299.5 1286,-280.5 1234,-280.5"/>
<text text-anchor="middle" x="1260" y="-287.5" font-family="Helvetica,sans-Serif" font-size="10.00" fill="#000000">matrix.h</text>
</a>
</g>
</g>
<!-- Node0&#45;&gt;Node27 -->
<g id="edge69" class="edge">
<title>Node0&#45;&gt;Node27</title>
<path fill="none" stroke="#191970" d="M966.2318,-340.2667C1025.3527,-332.6249 1130.7631,-317.9558 1220,-300 1221.2632,-299.7458 1222.5464,-299.478 1223.8408,-299.1996"/>
<polygon fill="#191970" stroke="#191970" points="1224.8624,-302.5563 1233.8289,-296.9125 1223.3,-295.7329 1224.8624,-302.5563"/>
</g>
<!-- Node28 -->
<g id="node29" class="node">
<title>Node28</title>
<g id="a_node29"><a xlink:href="$mpi__fftw__class_8h.html" xlink:title="mpi_fftw_class.h">
<polygon fill="#ffffff" stroke="#000000" points="734.5,-280.5 734.5,-299.5 825.5,-299.5 825.5,-280.5 734.5,-280.5"/>
<text text-anchor="middle" x="780" y="-287.5" font-family="Helvetica,sans-Serif" font-size="10.00" fill="#000000">mpi_fftw_class.h</text>
</a>
</g>
</g>
<!-- Node0&#45;&gt;Node28 -->
<g id="edge79" class="edge">
<title>Node0&#45;&gt;Node28</title>
<path fill="none" stroke="#191970" d="M895.9331,-336.3733C873.1572,-327.2629 838.7656,-313.5062 813.351,-303.3404"/>
<polygon fill="#191970" stroke="#191970" points="814.3375,-299.9654 803.7528,-299.5011 811.7377,-306.4648 814.3375,-299.9654"/>
</g>
<!-- Node29 -->
<g id="node30" class="node">
<title>Node29</title>
<polygon fill="#ffffff" stroke="#bfbfbf" points="2144.5,-280.5 2144.5,-299.5 2195.5,-299.5 2195.5,-280.5 2144.5,-280.5"/>
<text text-anchor="middle" x="2170" y="-287.5" font-family="Helvetica,sans-Serif" font-size="10.00" fill="#000000">numeric</text>
</g>
<!-- Node0&#45;&gt;Node29 -->
<g id="edge98" class="edge">
<title>Node0&#45;&gt;Node29</title>
<path fill="none" stroke="#191970" d="M966.1361,-345.5226C1158.6998,-343.3332 1898.9863,-332.9056 2130,-300 2131.4616,-299.7918 2132.9474,-299.5523 2134.4439,-299.2877"/>
<polygon fill="#191970" stroke="#191970" points="2135.2475,-302.6957 2144.3344,-297.2478 2133.8335,-295.84 2135.2475,-302.6957"/>
</g>
<!-- Node5&#45;&gt;Node1 -->
<g id="edge6" class="edge">
<title>Node5&#45;&gt;Node1</title>
<path fill="none" stroke="#191970" d="M412.9117,-224.3733C443.8618,-214.4123 492.07,-198.897 524.084,-188.5937"/>
<polygon fill="#191970" stroke="#191970" points="525.4199,-191.8406 533.8668,-185.4452 523.2753,-185.1772 525.4199,-191.8406"/>
</g>
<!-- Node5&#45;&gt;Node2 -->
<g id="edge8" class="edge">
<title>Node5&#45;&gt;Node2</title>
<path fill="none" stroke="#191970" d="M346.4382,-233.032C282.1047,-230.4739 152.8247,-221.2245 125,-188 119.2928,-181.1853 119.4468,-174.9408 125,-168 234.9813,-30.5368 833.7584,-12.6683 984.5277,-10.3466"/>
<polygon fill="#191970" stroke="#191970" points="984.6463,-13.8453 994.596,-10.2048 984.5477,-6.846 984.6463,-13.8453"/>
</g>
<!-- Node5&#45;&gt;Node4 -->
<g id="edge10" class="edge">
<title>Node5&#45;&gt;Node4</title>
<path fill="none" stroke="#191970" d="M346.075,-232.782C283.2343,-229.8471 159.688,-220.0466 133,-188 127.3117,-181.1695 127.2447,-174.7741 133,-168 148.3298,-149.9567 298.0841,-133.1575 372.484,-125.8451"/>
<polygon fill="#191970" stroke="#191970" points="373.2739,-129.285 382.8893,-124.836 372.5981,-122.3177 373.2739,-129.285"/>
</g>
<!-- Node5&#45;&gt;Node6 -->
<g id="edge7" class="edge">
<title>Node5&#45;&gt;Node6</title>
<path fill="none" stroke="#191970" d="M419.751,-227.4665C481.4502,-216.4977 604.9343,-194.545 664.4318,-183.9677"/>
<polygon fill="#191970" stroke="#191970" points="665.1965,-187.3867 674.4295,-182.1903 663.9712,-180.4948 665.1965,-187.3867"/>
</g>
<!-- Node7 -->
<g id="node8" class="node">
<title>Node7</title>
<polygon fill="#ffffff" stroke="#bfbfbf" points="1300,-.5 1300,-19.5 1354,-19.5 1354,-.5 1300,-.5"/>
<text text-anchor="middle" x="1327" y="-7.5" font-family="Helvetica,sans-Serif" font-size="10.00" fill="#000000">iostream</text>
</g>
<!-- Node5&#45;&gt;Node7 -->
<g id="edge9" class="edge">
<title>Node5&#45;&gt;Node7</title>
<path fill="none" stroke="#191970" d="M405.9265,-224.3909C427.1366,-215.3761 459.4511,-201.3232 487,-188 504.1815,-179.6907 507.0222,-174.4066 525,-168 808.8921,-66.8322 1173.6935,-24.7825 1289.7932,-13.388"/>
<polygon fill="#191970" stroke="#191970" points="1290.312,-16.8543 1299.9294,-12.4096 1289.6394,-9.8866 1290.312,-16.8543"/>
</g>
<!-- Node8 -->
<g id="node9" class="node">
<title>Node8</title>
<polygon fill="#ffffff" stroke="#bfbfbf" points="142,-168.5 142,-187.5 186,-187.5 186,-168.5 142,-168.5"/>
<text text-anchor="middle" x="164" y="-175.5" font-family="Helvetica,sans-Serif" font-size="10.00" fill="#000000">float.h</text>
</g>
<!-- Node5&#45;&gt;Node8 -->
<g id="edge11" class="edge">
<title>Node5&#45;&gt;Node8</title>
<path fill="none" stroke="#191970" d="M346.4041,-225.8686C310.3745,-217.681 253.5986,-204.2949 195.9288,-188.1286"/>
<polygon fill="#191970" stroke="#191970" points="196.8676,-184.7569 186.2925,-185.4032 194.9625,-191.4927 196.8676,-184.7569"/>
</g>
<!-- Node9 -->
<g id="node10" class="node">
<title>Node9</title>
<g id="a_node10"><a xlink:href="$zheevc3_8h.html" xlink:title="zheevh3&#45;C&#45;1.1/zheevc3.h">
<polygon fill="#ffffff" stroke="#000000" points="204,-168.5 204,-187.5 332,-187.5 332,-168.5 204,-168.5"/>
<text text-anchor="middle" x="268" y="-175.5" font-family="Helvetica,sans-Serif" font-size="10.00" fill="#000000">zheevh3&#45;C&#45;1.1/zheevc3.h</text>
</a>
</g>
</g>
<!-- Node5&#45;&gt;Node9 -->
<g id="edge12" class="edge">
<title>Node5&#45;&gt;Node9</title>
<path fill="none" stroke="#191970" d="M363.2308,-224.3733C344.8531,-215.4241 317.2688,-201.9917 296.5107,-191.8835"/>
<polygon fill="#191970" stroke="#191970" points="298.0343,-188.7325 287.5112,-187.5011 294.9696,-195.026 298.0343,-188.7325"/>
</g>
<!-- Node10 -->
<g id="node11" class="node">
<title>Node10</title>
<g id="a_node11"><a xlink:href="$zheevq3_8h.html" xlink:title="zheevh3&#45;C&#45;1.1/zheevq3.h">
<polygon fill="#ffffff" stroke="#000000" points="350,-168.5 350,-187.5 478,-187.5 478,-168.5 350,-168.5"/>
<text text-anchor="middle" x="414" y="-175.5" font-family="Helvetica,sans-Serif" font-size="10.00" fill="#000000">zheevh3&#45;C&#45;1.1/zheevq3.h</text>
</a>
</g>
</g>
<!-- Node5&#45;&gt;Node10 -->
<g id="edge14" class="edge">
<title>Node5&#45;&gt;Node10</title>
<path fill="none" stroke="#191970" d="M388.3998,-224.2455C392.6227,-216.617 398.6173,-205.7881 403.7441,-196.5267"/>
<polygon fill="#191970" stroke="#191970" points="406.881,-198.0867 408.6621,-187.6427 400.7568,-194.6965 406.881,-198.0867"/>
</g>
<!-- Node9&#45;&gt;Node4 -->
<g id="edge13" class="edge">
<title>Node9&#45;&gt;Node4</title>
<path fill="none" stroke="#191970" d="M293.0983,-168.3733C316.9555,-159.2226 353.0335,-145.3844 379.571,-135.2057"/>
<polygon fill="#191970" stroke="#191970" points="381.1459,-138.3503 389.2292,-131.5011 378.639,-131.8145 381.1459,-138.3503"/>
</g>
<!-- Node10&#45;&gt;Node4 -->
<g id="edge15" class="edge">
<title>Node10&#45;&gt;Node4</title>
<path fill="none" stroke="#191970" d="M414,-168.2455C414,-160.9382 414,-150.6944 414,-141.7046"/>
<polygon fill="#191970" stroke="#191970" points="417.5001,-141.6426 414,-131.6427 410.5001,-141.6427 417.5001,-141.6426"/>
</g>
<!-- Node11&#45;&gt;Node2 -->
<g id="edge18" class="edge">
<title>Node11&#45;&gt;Node2</title>
<path fill="none" stroke="#191970" d="M1094.9748,-56.2455C1080.8592,-47.6534 1060.0737,-35.0014 1043.8101,-25.1018"/>
<polygon fill="#191970" stroke="#191970" points="1045.2034,-21.8525 1034.8415,-19.6427 1041.5637,-27.8319 1045.2034,-21.8525"/>
</g>
<!-- Node11&#45;&gt;Node7 -->
<g id="edge17" class="edge">
<title>Node11&#45;&gt;Node7</title>
<path fill="none" stroke="#191970" d="M1136.6263,-59.3562C1174.6748,-49.4917 1246.3063,-30.9206 1290.0298,-19.5849"/>
<polygon fill="#191970" stroke="#191970" points="1290.9086,-22.9728 1299.7102,-17.0751 1289.1518,-16.1968 1290.9086,-22.9728"/>
</g>
<!-- Node12 -->
<g id="node13" class="node">
<title>Node12</title>
<polygon fill="#ffffff" stroke="#bfbfbf" points="1086.5,-.5 1086.5,-19.5 1135.5,-19.5 1135.5,-.5 1086.5,-.5"/>
<text text-anchor="middle" x="1111" y="-7.5" font-family="Helvetica,sans-Serif" font-size="10.00" fill="#000000">string.h</text>
</g>
<!-- Node11&#45;&gt;Node12 -->
<g id="edge19" class="edge">
<title>Node11&#45;&gt;Node12</title>
<path fill="none" stroke="#191970" d="M1111,-56.2455C1111,-48.9382 1111,-38.6944 1111,-29.7046"/>
<polygon fill="#191970" stroke="#191970" points="1114.5001,-29.6426 1111,-19.6427 1107.5001,-29.6427 1114.5001,-29.6426"/>
</g>
<!-- Node15&#45;&gt;Node2 -->
<g id="edge24" class="edge">
<title>Node15&#45;&gt;Node2</title>
<path fill="none" stroke="#191970" d="M1292.43,-231.0691C1243.6366,-224.1977 1126.2902,-206.246 1091,-188 1036.4307,-159.7862 1020.9609,-136.4457 1010,-76 1007.1951,-60.5319 1009.9067,-42.8813 1013.0672,-29.7275"/>
<polygon fill="#191970" stroke="#191970" points="1016.4976,-30.4486 1015.7163,-19.8826 1009.738,-28.6296 1016.4976,-30.4486"/>
</g>
<!-- Node15&#45;&gt;Node3 -->
<g id="edge29" class="edge">
<title>Node15&#45;&gt;Node3</title>
<path fill="none" stroke="#191970" d="M1335.9182,-233.1547C1405.3882,-230.1829 1619.7035,-218.6855 1681,-188 1711.9176,-172.5224 1722.0595,-164.0624 1735,-132 1738.3268,-123.7572 1740.8226,-118.7164 1735,-112 1716.1074,-90.2071 1521.7764,-73.8285 1444.9811,-68.1603"/>
<polygon fill="#191970" stroke="#191970" points="1444.7655,-64.6355 1434.5383,-67.4023 1444.2587,-71.6171 1444.7655,-64.6355"/>
</g>
<!-- Node15&#45;&gt;Node6 -->
<g id="edge30" class="edge">
<title>Node15&#45;&gt;Node6</title>
<path fill="none" stroke="#191970" d="M1292.4374,-232.0398C1200.8447,-223.7132 843.621,-191.2383 731.7144,-181.0649"/>
<polygon fill="#191970" stroke="#191970" points="731.9436,-177.5714 721.6677,-180.1516 731.3098,-184.5427 731.9436,-177.5714"/>
</g>
<!-- Node15&#45;&gt;Node7 -->
<g id="edge23" class="edge">
<title>Node15&#45;&gt;Node7</title>
<path fill="none" stroke="#191970" d="M1335.7065,-232.5085C1413.7987,-227.0027 1677.5507,-207.1477 1710,-188 1736.3419,-172.4561 1740.6658,-161.127 1750,-132 1788.939,-10.4923 1666.4653,-90.7801 1522,-56 1467.0538,-42.7717 1403.3031,-27.8049 1364.0583,-18.6352"/>
<polygon fill="#191970" stroke="#191970" points="1364.6821,-15.1868 1354.1481,-16.3212 1363.0903,-22.0034 1364.6821,-15.1868"/>
</g>
<!-- Node15&#45;&gt;Node11 -->
<g id="edge27" class="edge">
<title>Node15&#45;&gt;Node11</title>
<path fill="none" stroke="#191970" d="M1292.1788,-229.3122C1232.4408,-215.9864 1068.7068,-175.9952 1039,-132 1024.864,-111.0648 1051.5603,-92.1456 1076.3541,-79.9851"/>
<polygon fill="#191970" stroke="#191970" points="1078.0733,-83.046 1085.6744,-75.6653 1075.1297,-76.695 1078.0733,-83.046"/>
</g>
<!-- Node16 -->
<g id="node17" class="node">
<title>Node16</title>
<polygon fill="#ffffff" stroke="#bfbfbf" points="1672.5,-112.5 1672.5,-131.5 1725.5,-131.5 1725.5,-112.5 1672.5,-112.5"/>
<text text-anchor="middle" x="1699" y="-119.5" font-family="Helvetica,sans-Serif" font-size="10.00" fill="#000000">complex</text>
</g>
<!-- Node15&#45;&gt;Node16 -->
<g id="edge25" class="edge">
<title>Node15&#45;&gt;Node16</title>
<path fill="none" stroke="#191970" d="M1335.765,-233.4776C1402.7031,-231.5078 1604.2379,-222.7586 1658,-188 1674.9353,-177.0509 1686.0732,-156.3815 1692.4094,-141.0789"/>
<polygon fill="#191970" stroke="#191970" points="1695.7584,-142.1187 1696.041,-131.5276 1689.2154,-139.6308 1695.7584,-142.1187"/>
</g>
<!-- Node17 -->
<g id="node18" class="node">
<title>Node17</title>
<polygon fill="#ffffff" stroke="#bfbfbf" points="1448.5,-168.5 1448.5,-187.5 1507.5,-187.5 1507.5,-168.5 1448.5,-168.5"/>
<text text-anchor="middle" x="1478" y="-175.5" font-family="Helvetica,sans-Serif" font-size="10.00" fill="#000000">ccomplex</text>
</g>
<!-- Node15&#45;&gt;Node17 -->
<g id="edge26" class="edge">
<title>Node15&#45;&gt;Node17</title>
<path fill="none" stroke="#191970" d="M1335.7779,-226.5636C1362.4673,-217.4502 1408.1265,-201.8592 1440.5048,-190.8033"/>
<polygon fill="#191970" stroke="#191970" points="1441.7586,-194.0736 1450.0911,-187.5299 1439.4966,-187.4491 1441.7586,-194.0736"/>
</g>
<!-- Node15&#45;&gt;Node18 -->
<g id="edge28" class="edge">
<title>Node15&#45;&gt;Node18</title>
<path fill="none" stroke="#191970" d="M1335.5492,-233.7321C1420.8798,-232.4173 1734.8692,-225.104 1826,-188 1852.3243,-177.282 1876.7685,-154.9594 1891.7726,-139.2527"/>
<polygon fill="#191970" stroke="#191970" points="1894.5005,-141.4578 1898.7182,-131.7387 1889.3601,-136.7063 1894.5005,-141.4578"/>
</g>
<!-- Node15&#45;&gt;Node19 -->
<g id="edge31" class="edge">
<title>Node15&#45;&gt;Node19</title>
<path fill="none" stroke="#191970" d="M1299.8889,-224.2431C1287.6525,-215.4581 1269.791,-201.8355 1256,-188 1240.9629,-172.9144 1226.1624,-153.5662 1216.2205,-139.7256"/>
<polygon fill="#191970" stroke="#191970" points="1219.0601,-137.6791 1210.4352,-131.5259 1213.3404,-141.7146 1219.0601,-137.6791"/>
</g>
<!-- Node15&#45;&gt;Node20 -->
<g id="edge36" class="edge">
<title>Node15&#45;&gt;Node20</title>
<path fill="none" stroke="#191970" d="M1312.6065,-224.2455C1311.5626,-216.9382 1310.0992,-206.6944 1308.8149,-197.7046"/>
<polygon fill="#191970" stroke="#191970" points="1312.2566,-197.0472 1307.3775,-187.6427 1305.327,-198.0372 1312.2566,-197.0472"/>
</g>
<!-- Node21 -->
<g id="node22" class="node">
<title>Node21</title>
<polygon fill="#ffffff" stroke="#bfbfbf" points="1605.5,-112.5 1605.5,-131.5 1654.5,-131.5 1654.5,-112.5 1605.5,-112.5"/>
<text text-anchor="middle" x="1630" y="-119.5" font-family="Helvetica,sans-Serif" font-size="10.00" fill="#000000">random</text>
</g>
<!-- Node15&#45;&gt;Node21 -->
<g id="edge66" class="edge">
<title>Node15&#45;&gt;Node21</title>
<path fill="none" stroke="#191970" d="M1335.8923,-232.5611C1405.893,-227.7403 1620.8792,-211.1493 1641,-188 1652.1449,-175.1775 1646.9658,-155.4652 1640.4768,-140.9202"/>
<polygon fill="#191970" stroke="#191970" points="1643.5423,-139.2238 1635.9596,-131.8242 1637.2728,-142.3374 1643.5423,-139.2238"/>
</g>
<!-- Node22 -->
<g id="node23" class="node">
<title>Node22</title>
<g id="a_node23"><a xlink:href="$rand__class_8h.html" xlink:title="rand_class.h">
<polygon fill="#ffffff" stroke="#000000" points="1358,-168.5 1358,-187.5 1430,-187.5 1430,-168.5 1358,-168.5"/>
<text text-anchor="middle" x="1394" y="-175.5" font-family="Helvetica,sans-Serif" font-size="10.00" fill="#000000">rand_class.h</text>
</a>
</g>
</g>
<!-- Node15&#45;&gt;Node22 -->
<g id="edge46" class="edge">
<title>Node15&#45;&gt;Node22</title>
<path fill="none" stroke="#191970" d="M1327.9349,-224.2455C1340.0947,-215.7337 1357.9464,-203.2375 1372.0285,-193.3801"/>
<polygon fill="#191970" stroke="#191970" points="1374.0395,-196.2447 1380.2248,-187.6427 1370.0253,-190.51 1374.0395,-196.2447"/>
</g>
<!-- Node15&#45;&gt;Node23 -->
<g id="edge56" class="edge">
<title>Node15&#45;&gt;Node23</title>
<path fill="none" stroke="#191970" d="M1294.0493,-224.4509C1252.6895,-204.6548 1157.4421,-159.0663 1109.1743,-135.9638"/>
<polygon fill="#191970" stroke="#191970" points="1110.4313,-132.6852 1099.9002,-131.5249 1107.4092,-138.9992 1110.4313,-132.6852"/>
</g>
<!-- Node15&#45;&gt;Node24 -->
<g id="edge61" class="edge">
<title>Node15&#45;&gt;Node24</title>
<path fill="none" stroke="#191970" d="M1297.1296,-224.2908C1278.2526,-212.0801 1251.7019,-190.0342 1263,-168 1269.933,-154.4789 1282.8936,-144.0326 1295.3481,-136.5377"/>
<polygon fill="#191970" stroke="#191970" points="1297.1928,-139.5168 1304.234,-131.6001 1293.7928,-133.3979 1297.1928,-139.5168"/>
</g>
<!-- Node25 -->
<g id="node26" class="node">
<title>Node25</title>
<polygon fill="#ffffff" stroke="#bfbfbf" points="1526,-168.5 1526,-187.5 1570,-187.5 1570,-168.5 1526,-168.5"/>
<text text-anchor="middle" x="1548" y="-175.5" font-family="Helvetica,sans-Serif" font-size="10.00" fill="#000000">time.h</text>
</g>
<!-- Node15&#45;&gt;Node25 -->
<g id="edge67" class="edge">
<title>Node15&#45;&gt;Node25</title>
<path fill="none" stroke="#191970" d="M1335.7888,-229.728C1371.4538,-222.5941 1444.6811,-207.3567 1515.7158,-188.1809"/>
<polygon fill="#191970" stroke="#191970" points="1516.9953,-191.4598 1525.7204,-185.4494 1515.1516,-184.7069 1516.9953,-191.4598"/>
</g>
<!-- Node26 -->
<g id="node27" class="node">
<title>Node26</title>
<polygon fill="#ffffff" stroke="#bfbfbf" points="1588,-168.5 1588,-187.5 1632,-187.5 1632,-168.5 1588,-168.5"/>
<text text-anchor="middle" x="1610" y="-175.5" font-family="Helvetica,sans-Serif" font-size="10.00" fill="#000000">thread</text>
</g>
<!-- Node15&#45;&gt;Node26 -->
<g id="edge68" class="edge">
<title>Node15&#45;&gt;Node26</title>
<path fill="none" stroke="#191970" d="M1335.5078,-231.3084C1379.3993,-225.5959 1482.5365,-211.0504 1577.9553,-187.9933"/>
<polygon fill="#191970" stroke="#191970" points="1578.8789,-191.3705 1587.7563,-185.5876 1577.2102,-184.5723 1578.8789,-191.3705"/>
</g>
<!-- Node19&#45;&gt;Node2 -->
<g id="edge32" class="edge">
<title>Node19&#45;&gt;Node2</title>
<path fill="none" stroke="#191970" d="M1197.697,-112.0943C1188.1419,-97.8167 1168.6822,-71.4733 1146,-56 1117.4852,-36.5478 1079.7747,-24.2571 1052.8703,-17.3235"/>
<polygon fill="#191970" stroke="#191970" points="1053.6766,-13.9175 1043.1297,-14.9246 1052.0026,-20.7145 1053.6766,-13.9175"/>
</g>
<!-- Node19&#45;&gt;Node3 -->
<g id="edge35" class="edge">
<title>Node19&#45;&gt;Node3</title>
<path fill="none" stroke="#191970" d="M1238.6772,-112.7527C1278.9284,-102.0191 1344.6962,-84.481 1383.2111,-74.2104"/>
<polygon fill="#191970" stroke="#191970" points="1384.5472,-77.4765 1393.3077,-71.5179 1382.7435,-70.7128 1384.5472,-77.4765"/>
</g>
<!-- Node19&#45;&gt;Node7 -->
<g id="edge33" class="edge">
<title>Node19&#45;&gt;Node7</title>
<path fill="none" stroke="#191970" d="M1214.4869,-112.4509C1235.4557,-93.3574 1282.7752,-50.2697 1308.8725,-26.5063"/>
<polygon fill="#191970" stroke="#191970" points="1311.5021,-28.8455 1316.5396,-19.5249 1306.7892,-23.6697 1311.5021,-28.8455"/>
</g>
<!-- Node19&#45;&gt;Node11 -->
<g id="edge34" class="edge">
<title>Node19&#45;&gt;Node11</title>
<path fill="none" stroke="#191970" d="M1187.8006,-112.2455C1173.3982,-103.5731 1152.1268,-90.7645 1135.6201,-80.825"/>
<polygon fill="#191970" stroke="#191970" points="1137.386,-77.8028 1127.0137,-75.6427 1133.775,-83.7996 1137.386,-77.8028"/>
</g>
<!-- Node20&#45;&gt;Node2 -->
<g id="edge38" class="edge">
<title>Node20&#45;&gt;Node2</title>
<path fill="none" stroke="#191970" d="M1271.7581,-176.8908C1207.192,-174.0571 1071.0484,-164.3097 1039,-132 1012.1518,-104.9329 1012.9323,-56.6929 1015.9266,-29.6923"/>
<polygon fill="#191970" stroke="#191970" points="1019.4272,-29.9178 1017.2713,-19.5446 1012.4879,-28.9981 1019.4272,-29.9178"/>
</g>
<!-- Node20&#45;&gt;Node3 -->
<g id="edge43" class="edge">
<title>Node20&#45;&gt;Node3</title>
<path fill="none" stroke="#191970" d="M1340.4073,-169.7104C1361.0515,-162.9581 1386.1117,-151.2959 1401,-132 1411.1327,-118.8676 1414.0236,-99.9914 1414.5892,-85.7873"/>
<polygon fill="#191970" stroke="#191970" points="1418.09,-85.6132 1414.6384,-75.5964 1411.0901,-85.5794 1418.09,-85.6132"/>
</g>
<!-- Node20&#45;&gt;Node4 -->
<g id="edge40" class="edge">
<title>Node20&#45;&gt;Node4</title>
<path fill="none" stroke="#191970" d="M1271.8509,-175.8561C1132.5109,-167.1083 607.1966,-134.1289 455.3461,-124.5957"/>
<polygon fill="#191970" stroke="#191970" points="455.2684,-121.084 445.0687,-123.9505 454.8297,-128.0703 455.2684,-121.084"/>
</g>
<!-- Node20&#45;&gt;Node7 -->
<g id="edge37" class="edge">
<title>Node20&#45;&gt;Node7</title>
<path fill="none" stroke="#191970" d="M1336.6156,-168.4154C1365.7246,-158.8044 1406.8203,-143.7809 1419,-132 1438.5913,-113.0502 1438.3197,-102.658 1444,-76 1445.8525,-67.3063 1449.0051,-63.3458 1444,-56 1434.6147,-42.2255 1394.7817,-28.5134 1364.1731,-19.6923"/>
<polygon fill="#191970" stroke="#191970" points="1364.7774,-16.2268 1354.2037,-16.8953 1362.8864,-22.9665 1364.7774,-16.2268"/>
</g>
<!-- Node20&#45;&gt;Node11 -->
<g id="edge41" class="edge">
<title>Node20&#45;&gt;Node11</title>
<path fill="none" stroke="#191970" d="M1271.7141,-173.1956C1240.5414,-167.495 1194.439,-155.6125 1161,-132 1143.4686,-119.6205 1129.3799,-99.2328 1120.6811,-84.388"/>
<polygon fill="#191970" stroke="#191970" points="1123.691,-82.5992 1115.761,-75.5731 1117.5786,-86.0109 1123.691,-82.5992"/>
</g>
<!-- Node20&#45;&gt;Node16 -->
<g id="edge39" class="edge">
<title>Node20&#45;&gt;Node16</title>
<path fill="none" stroke="#191970" d="M1340.1954,-169.6747C1343.1647,-169.0651 1346.13,-168.496 1349,-168 1484.5983,-144.5639 1523.9543,-158.746 1662.2282,-132.0917"/>
<polygon fill="#191970" stroke="#191970" points="1663.2202,-135.4638 1672.3575,-130.101 1661.8703,-128.5952 1663.2202,-135.4638"/>
</g>
<!-- Node20&#45;&gt;Node18 -->
<g id="edge42" class="edge">
<title>Node20&#45;&gt;Node18</title>
<path fill="none" stroke="#191970" d="M1340.1792,-169.5761C1343.1519,-168.988 1346.1226,-168.4507 1349,-168 1451.605,-151.9283 1771.7062,-130.6366 1874.7172,-124.0374"/>
<polygon fill="#191970" stroke="#191970" points="1875.062,-127.5226 1884.8188,-123.3928 1874.6162,-120.5368 1875.062,-127.5226"/>
</g>
<!-- Node20&#45;&gt;Node19 -->
<g id="edge44" class="edge">
<title>Node20&#45;&gt;Node19</title>
<path fill="none" stroke="#191970" d="M1288.233,-168.2455C1272.2905,-159.4928 1248.6741,-146.527 1230.5011,-136.5496"/>
<polygon fill="#191970" stroke="#191970" points="1232.0137,-133.3873 1221.5634,-131.6427 1228.6448,-139.5233 1232.0137,-133.3873"/>
</g>
<!-- Node20&#45;&gt;Node21 -->
<g id="edge45" class="edge">
<title>Node20&#45;&gt;Node21</title>
<path fill="none" stroke="#191970" d="M1340.2234,-169.8257C1343.1866,-169.1833 1346.1429,-168.5654 1349,-168 1437.4249,-150.5004 1542.4466,-134.5922 1595.5602,-126.8867"/>
<polygon fill="#191970" stroke="#191970" points="1596.0728,-130.3491 1605.4705,-125.457 1595.0732,-123.4208 1596.0728,-130.3491"/>
</g>
<!-- Node22&#45;&gt;Node2 -->
<g id="edge48" class="edge">
<title>Node22&#45;&gt;Node2</title>
<path fill="none" stroke="#191970" d="M1414.7852,-168.3756C1428.687,-160.6917 1445.8691,-148.4793 1454,-132 1463.3059,-113.1393 1455.5729,-66.6965 1444,-56 1383.9835,-.5282 1159.0044,-30.8351 1078,-20 1069.8908,-18.9153 1061.1875,-17.5517 1053.0231,-16.1834"/>
<polygon fill="#191970" stroke="#191970" points="1053.5037,-12.7147 1043.055,-14.4683 1052.3167,-19.6133 1053.5037,-12.7147"/>
</g>
<!-- Node22&#45;&gt;Node3 -->
<g id="edge53" class="edge">
<title>Node22&#45;&gt;Node3</title>
<path fill="none" stroke="#191970" d="M1408.3737,-168.1853C1419.0705,-159.9414 1432.8409,-147.1035 1439,-132 1445.541,-115.96 1437.2331,-97.5077 1428.482,-84.1992"/>
<polygon fill="#191970" stroke="#191970" points="1431.2021,-81.9864 1422.5297,-75.9003 1425.5139,-86.0662 1431.2021,-81.9864"/>
</g>
<!-- Node22&#45;&gt;Node4 -->
<g id="edge50" class="edge">
<title>Node22&#45;&gt;Node4</title>
<path fill="none" stroke="#191970" d="M1357.7456,-169.3899C1354.7975,-168.8589 1351.8553,-168.3847 1349,-168 1172.4593,-144.2165 612.6721,-127.4351 455.4362,-123.1033"/>
<polygon fill="#191970" stroke="#191970" points="455.3369,-119.5993 445.2448,-122.8245 455.1454,-126.5967 455.3369,-119.5993"/>
</g>
<!-- Node22&#45;&gt;Node7 -->
<g id="edge47" class="edge">
<title>Node22&#45;&gt;Node7</title>
<path fill="none" stroke="#191970" d="M1430.1776,-169.9402C1474.7342,-159.652 1545.489,-141.992 1553,-132 1558.3411,-124.8947 1557.3917,-119.7282 1553,-112 1514.618,-44.4572 1418.0376,-21.4536 1364.3879,-13.7591"/>
<polygon fill="#191970" stroke="#191970" points="1364.6337,-10.2611 1354.2603,-12.4156 1363.7132,-17.2003 1364.6337,-10.2611"/>
</g>
<!-- Node22&#45;&gt;Node11 -->
<g id="edge51" class="edge">
<title>Node22&#45;&gt;Node11</title>
<path fill="none" stroke="#191970" d="M1370.1559,-168.4999C1348.1054,-159.5604 1314.5319,-145.5568 1286,-132 1268.7617,-123.8093 1265.5473,-119.5061 1248,-112 1214.3066,-97.5872 1174.4629,-84.6465 1146.4555,-76.1898"/>
<polygon fill="#191970" stroke="#191970" points="1147.289,-72.7861 1136.7058,-73.2827 1145.2887,-79.4943 1147.289,-72.7861"/>
</g>
<!-- Node22&#45;&gt;Node16 -->
<g id="edge49" class="edge">
<title>Node22&#45;&gt;Node16</title>
<path fill="none" stroke="#191970" d="M1430.1213,-169.9521C1433.4563,-169.2681 1436.7878,-168.6068 1440,-168 1535.9844,-149.8679 1563.8449,-153.6241 1662.5525,-132.1336"/>
<polygon fill="#191970" stroke="#191970" points="1663.3211,-135.5482 1672.3307,-129.9734 1661.8111,-128.713 1663.3211,-135.5482"/>
</g>
<!-- Node22&#45;&gt;Node18 -->
<g id="edge52" class="edge">
<title>Node22&#45;&gt;Node18</title>
<path fill="none" stroke="#191970" d="M1430.0849,-169.7417C1433.4275,-169.1019 1436.7707,-168.5083 1440,-168 1601.8486,-142.5245 1797.6111,-128.6867 1874.1196,-123.9239"/>
<polygon fill="#191970" stroke="#191970" points="1874.7568,-127.3915 1884.5242,-123.2867 1874.3289,-120.4046 1874.7568,-127.3915"/>
</g>
<!-- Node22&#45;&gt;Node19 -->
<g id="edge54" class="edge">
<title>Node22&#45;&gt;Node19</title>
<path fill="none" stroke="#191970" d="M1361.3378,-168.3733C1329.4702,-158.9807 1280.8469,-144.6496 1246.093,-134.4064"/>
<polygon fill="#191970" stroke="#191970" points="1246.8175,-130.9711 1236.236,-131.5011 1244.8385,-137.6855 1246.8175,-130.9711"/>
</g>
<!-- Node22&#45;&gt;Node21 -->
<g id="edge55" class="edge">
<title>Node22&#45;&gt;Node21</title>
<path fill="none" stroke="#191970" d="M1430.0036,-169.8388C1469.5432,-160.8187 1534.8839,-145.7443 1591,-132 1592.4427,-131.6466 1593.9146,-131.283 1595.401,-130.9133"/>
<polygon fill="#191970" stroke="#191970" points="1596.4208,-134.2658 1605.2627,-128.4287 1594.7106,-127.478 1596.4208,-134.2658"/>
</g>
<!-- Node23&#45;&gt;Node2 -->
<g id="edge57" class="edge">
<title>Node23&#45;&gt;Node2</title>
<path fill="none" stroke="#191970" d="M1074.7992,-112.4509C1064.6701,-93.8533 1042.1429,-52.4919 1029.0195,-28.3964"/>
<polygon fill="#191970" stroke="#191970" points="1032.0444,-26.6328 1024.1877,-19.5249 1025.8971,-29.9809 1032.0444,-26.6328"/>
</g>
<!-- Node23&#45;&gt;Node3 -->
<g id="edge60" class="edge">
<title>Node23&#45;&gt;Node3</title>
<path fill="none" stroke="#191970" d="M1112.6335,-116.5285C1177.1841,-105.7057 1320.3603,-81.7001 1383.3027,-71.1468"/>
<polygon fill="#191970" stroke="#191970" points="1384.1067,-74.561 1393.3903,-69.4555 1382.9492,-67.6574 1384.1067,-74.561"/>
</g>
<!-- Node23&#45;&gt;Node7 -->
<g id="edge58" class="edge">
<title>Node23&#45;&gt;Node7</title>
<path fill="none" stroke="#191970" d="M1101.0591,-112.4509C1144.8989,-92.5722 1246.0961,-46.6852 1296.8405,-23.6756"/>
<polygon fill="#191970" stroke="#191970" points="1298.3322,-26.8422 1305.9942,-19.5249 1295.4414,-20.467 1298.3322,-26.8422"/>
</g>
<!-- Node23&#45;&gt;Node11 -->
<g id="edge59" class="edge">
<title>Node23&#45;&gt;Node11</title>
<path fill="none" stroke="#191970" d="M1085.3998,-112.2455C1089.6227,-104.617 1095.6173,-93.7881 1100.7441,-84.5267"/>
<polygon fill="#191970" stroke="#191970" points="1103.881,-86.0867 1105.6621,-75.6427 1097.7568,-82.6965 1103.881,-86.0867"/>
</g>
<!-- Node24&#45;&gt;Node2 -->
<g id="edge62" class="edge">
<title>Node24&#45;&gt;Node2</title>
<path fill="none" stroke="#191970" d="M1306.1926,-112.4485C1276.3828,-98.95 1219.6353,-73.9401 1170,-56 1130.2886,-41.6468 1083.6787,-27.9074 1052.8604,-19.2425"/>
<polygon fill="#191970" stroke="#191970" points="1053.6199,-15.8208 1043.0472,-16.505 1051.739,-22.5634 1053.6199,-15.8208"/>
</g>
<!-- Node24&#45;&gt;Node3 -->
<g id="edge65" class="edge">
<title>Node24&#45;&gt;Node3</title>
<path fill="none" stroke="#191970" d="M1342.1542,-112.2455C1355.5027,-103.6534 1375.1586,-91.0014 1390.5383,-81.1018"/>
<polygon fill="#191970" stroke="#191970" points="1392.5051,-83.9982 1399.0194,-75.6427 1388.7164,-78.1121 1392.5051,-83.9982"/>
</g>
<!-- Node24&#45;&gt;Node7 -->
<g id="edge63" class="edge">
<title>Node24&#45;&gt;Node7</title>
<path fill="none" stroke="#191970" d="M1327,-112.4509C1327,-94.184 1327,-53.9553 1327,-29.6976"/>
<polygon fill="#191970" stroke="#191970" points="1330.5001,-29.5249 1327,-19.5249 1323.5001,-29.5249 1330.5001,-29.5249"/>
</g>
<!-- Node24&#45;&gt;Node11 -->
<g id="edge64" class="edge">
<title>Node24&#45;&gt;Node11</title>
<path fill="none" stroke="#191970" d="M1294.6626,-113.6162C1254.9536,-103.3213 1187.8204,-85.9164 1146.6527,-75.2433"/>
<polygon fill="#191970" stroke="#191970" points="1147.3366,-71.8049 1136.7782,-72.6832 1145.5798,-78.5809 1147.3366,-71.8049"/>
</g>
<!-- Node27&#45;&gt;Node2 -->
<g id="edge71" class="edge">
<title>Node27&#45;&gt;Node2</title>
<path fill="none" stroke="#191970" d="M1233.6771,-282.472C1191.4443,-269.2893 1107.8402,-238.5178 1054,-188 1014.2466,-150.6996 1008.8102,-130.3002 1004,-76 1003.2156,-67.1458 1002.6048,-64.7787 1004,-56 1005.4301,-47.0016 1008.3412,-37.3703 1011.2216,-29.2579"/>
<polygon fill="#191970" stroke="#191970" points="1014.592,-30.2407 1014.8632,-19.6493 1008.0463,-27.7599 1014.592,-30.2407"/>
</g>
<!-- Node27&#45;&gt;Node3 -->
<g id="edge76" class="edge">
<title>Node27&#45;&gt;Node3</title>
<path fill="none" stroke="#191970" d="M1286.4039,-289.2623C1411.0535,-285.6546 1935.5693,-269.0233 1959,-244 1999.6027,-200.6375 1984.7233,-148.6855 1938,-112 1899.1122,-81.4666 1551.03,-69.6737 1444.7069,-66.7648"/>
<polygon fill="#191970" stroke="#191970" points="1444.7199,-63.264 1434.6302,-66.4962 1444.5333,-70.2615 1444.7199,-63.264"/>
</g>
<!-- Node27&#45;&gt;Node4 -->
<g id="edge73" class="edge">
<title>Node27&#45;&gt;Node4</title>
<path fill="none" stroke="#191970" d="M1233.9158,-283.26C1186.2088,-270.9981 1081.6402,-244.4231 993,-224 876.9655,-197.2651 848.2071,-189.006 731,-168 632.4249,-150.3333 515.6714,-134.7593 455.0929,-127.0759"/>
<polygon fill="#191970" stroke="#191970" points="455.5171,-123.6017 445.1577,-125.8227 454.6411,-130.5467 455.5171,-123.6017"/>
</g>
<!-- Node27&#45;&gt;Node6 -->
<g id="edge77" class="edge">
<title>Node27&#45;&gt;Node6</title>
<path fill="none" stroke="#191970" d="M1233.6474,-284.7482C1141.5428,-266.3929 834.062,-205.1156 731.5693,-184.69"/>
<polygon fill="#191970" stroke="#191970" points="732.243,-181.2555 721.7518,-182.7334 730.8748,-188.1205 732.243,-181.2555"/>
</g>
<!-- Node27&#45;&gt;Node7 -->
<g id="edge70" class="edge">
<title>Node27&#45;&gt;Node7</title>
<path fill="none" stroke="#191970" d="M1286.218,-289.1769C1412.4474,-285.1066 1952.6299,-266.4263 1980,-244 1999.9304,-227.6696 1991.6379,-213.546 1995,-188 1999.805,-151.4903 1992.2206,-133.042 1962,-112 1863.8239,-43.6421 1485.097,-18.2559 1364.2708,-11.7973"/>
<polygon fill="#191970" stroke="#191970" points="1364.2194,-8.29 1354.0504,-11.2636 1363.8542,-15.2805 1364.2194,-8.29"/>
</g>
<!-- Node27&#45;&gt;Node11 -->
<g id="edge74" class="edge">
<title>Node27&#45;&gt;Node11</title>
<path fill="none" stroke="#191970" d="M1243.2027,-280.4582C1206.1126,-259.2934 1118.3444,-208.6572 1091,-188 1061.8947,-166.0125 1045.5378,-165.4547 1031,-132 1020.199,-107.1444 1049.7539,-88.7013 1075.9438,-77.7224"/>
<polygon fill="#191970" stroke="#191970" points="1077.3357,-80.936 1085.3595,-74.0172 1074.7724,-74.4221 1077.3357,-80.936"/>
</g>
<!-- Node27&#45;&gt;Node15 -->
<g id="edge78" class="edge">
<title>Node27&#45;&gt;Node15</title>
<path fill="none" stroke="#191970" d="M1269.4061,-280.2455C1277.1493,-272.2155 1288.312,-260.6394 1297.5318,-251.0781"/>
<polygon fill="#191970" stroke="#191970" points="1300.2798,-253.2706 1304.7017,-243.6427 1295.2409,-248.4117 1300.2798,-253.2706"/>
</g>
<!-- Node27&#45;&gt;Node16 -->
<g id="edge72" class="edge">
<title>Node27&#45;&gt;Node16</title>
<path fill="none" stroke="#191970" d="M1286.1063,-289.5562C1383.0681,-287.642 1718.5411,-278.5505 1750,-244 1772.7409,-219.0242 1763.7254,-198.8634 1750,-168 1744.5492,-155.7432 1734.0401,-145.3755 1723.9711,-137.6036"/>
<polygon fill="#191970" stroke="#191970" points="1725.904,-134.6828 1715.7373,-131.7012 1721.8256,-140.3721 1725.904,-134.6828"/>
</g>
<!-- Node27&#45;&gt;Node18 -->
<g id="edge75" class="edge">
<title>Node27&#45;&gt;Node18</title>
<path fill="none" stroke="#191970" d="M1286.0918,-289.2219C1408.0831,-285.4602 1917.2509,-268.34 1940,-244 1963.0644,-219.3226 1950.3412,-200.1558 1940,-168 1936.6054,-157.4445 1929.7942,-147.2592 1923.2369,-139.1676"/>
<polygon fill="#191970" stroke="#191970" points="1925.8431,-136.8307 1916.6492,-131.5654 1920.553,-141.4149 1925.8431,-136.8307"/>
</g>
<!-- Node28&#45;&gt;Node1 -->
<g id="edge80" class="edge">
<title>Node28&#45;&gt;Node1</title>
<path fill="none" stroke="#191970" d="M746.1116,-280.4888C719.7102,-272.4532 682.537,-259.7466 652,-244 624.2638,-229.6977 595.197,-208.441 576.6342,-193.9421"/>
<polygon fill="#191970" stroke="#191970" points="578.6633,-191.0843 568.6521,-187.6164 574.3156,-196.5705 578.6633,-191.0843"/>
</g>
<!-- Node28&#45;&gt;Node2 -->
<g id="edge81" class="edge">
<title>Node28&#45;&gt;Node2</title>
<path fill="none" stroke="#191970" d="M757.9126,-280.445C719.1445,-262.1359 644.8712,-219.3346 666,-168 692.6743,-103.1919 715.1261,-88.9124 777,-56 812.5446,-37.0929 926.7079,-21.1147 984.6192,-13.9845"/>
<polygon fill="#191970" stroke="#191970" points="985.2399,-17.435 994.7462,-12.7574 984.3978,-10.4858 985.2399,-17.435"/>
</g>
<!-- Node28&#45;&gt;Node3 -->
<g id="edge82" class="edge">
<title>Node28&#45;&gt;Node3</title>
<path fill="none" stroke="#191970" d="M785.6664,-280.0464C794.6839,-265.2057 813.782,-237.5735 838,-224 942.2775,-165.5552 1267.1662,-196.2038 1368,-132 1385.4216,-120.9072 1398.065,-100.6077 1405.6374,-85.4392"/>
<polygon fill="#191970" stroke="#191970" points="1409.0154,-86.4764 1410.0661,-75.9337 1402.6703,-83.5201 1409.0154,-86.4764"/>
</g>
<!-- Node28&#45;&gt;Node5 -->
<g id="edge84" class="edge">
<title>Node28&#45;&gt;Node5</title>
<path fill="none" stroke="#191970" d="M734.4591,-283.5761C658.4987,-272.8613 506.7129,-251.4507 429.8749,-240.6121"/>
<polygon fill="#191970" stroke="#191970" points="429.9368,-237.0862 419.5459,-239.1551 428.959,-244.0176 429.9368,-237.0862"/>
</g>
<!-- Node28&#45;&gt;Node6 -->
<g id="edge90" class="edge">
<title>Node28&#45;&gt;Node6</title>
<path fill="none" stroke="#191970" d="M766.1651,-280.3491C754.7531,-271.8325 738.7476,-258.5385 728,-244 717.3871,-229.6437 709.3249,-210.9343 704.245,-197.1031"/>
<polygon fill="#191970" stroke="#191970" points="707.5408,-195.9245 700.9488,-187.6301 700.9295,-198.2249 707.5408,-195.9245"/>
</g>
<!-- Node28&#45;&gt;Node11 -->
<g id="edge85" class="edge">
<title>Node28&#45;&gt;Node11</title>
<path fill="none" stroke="#191970" d="M778.5696,-280.2233C777.0869,-266.5659 776.286,-241.4894 787,-224 850.5894,-120.1981 1004.6006,-82.92 1074.9124,-71.0012"/>
<polygon fill="#191970" stroke="#191970" points="1075.7426,-74.4125 1085.0554,-69.3606 1074.6248,-67.5023 1075.7426,-74.4125"/>
</g>
<!-- Node28&#45;&gt;Node13 -->
<g id="edge87" class="edge">
<title>Node28&#45;&gt;Node13</title>
<path fill="none" stroke="#191970" d="M744.9311,-280.3733C707.0281,-269.9685 647.0484,-253.5035 609.6909,-243.2485"/>
<polygon fill="#191970" stroke="#191970" points="610.3611,-239.803 599.7913,-240.5309 608.508,-246.5533 610.3611,-239.803"/>
</g>
<!-- Node28&#45;&gt;Node14 -->
<g id="edge88" class="edge">
<title>Node28&#45;&gt;Node14</title>
<path fill="none" stroke="#191970" d="M797.2445,-280.2455C812.5761,-271.5731 835.2199,-258.7645 852.7916,-248.825"/>
<polygon fill="#191970" stroke="#191970" points="854.9724,-251.6126 861.9531,-243.6427 851.5259,-245.5198 854.9724,-251.6126"/>
</g>
<!-- Node28&#45;&gt;Node15 -->
<g id="edge91" class="edge">
<title>Node28&#45;&gt;Node15</title>
<path fill="none" stroke="#191970" d="M825.5285,-285.2255C931.3216,-274.1311 1191.6126,-246.8346 1282.2579,-237.3288"/>
<polygon fill="#191970" stroke="#191970" points="1282.869,-240.784 1292.4494,-236.26 1282.1389,-233.8221 1282.869,-240.784"/>
</g>
<!-- Node28&#45;&gt;Node16 -->
<g id="edge83" class="edge">
<title>Node28&#45;&gt;Node16</title>
<path fill="none" stroke="#191970" d="M825.5186,-287.9173C999.631,-279.5419 1616.871,-245.9523 1681,-188 1693.7799,-176.451 1697.8566,-156.8047 1698.9896,-141.9425"/>
<polygon fill="#191970" stroke="#191970" points="1702.4956,-141.8488 1699.3776,-131.7231 1695.5006,-141.5831 1702.4956,-141.8488"/>
</g>
<!-- Node28&#45;&gt;Node18 -->
<g id="edge89" class="edge">
<title>Node28&#45;&gt;Node18</title>
<path fill="none" stroke="#191970" d="M825.8086,-288.5843C940.2897,-284.721 1247.989,-272.3336 1503,-244 1660.443,-226.5069 1718.3716,-268.1685 1855,-188 1873.9902,-176.8572 1888.6638,-155.9106 1897.5095,-140.5943"/>
<polygon fill="#191970" stroke="#191970" points="1900.7528,-141.9572 1902.4675,-131.502 1894.6071,-138.6059 1900.7528,-141.9572"/>
</g>
<!-- Node28&#45;&gt;Node19 -->
<g id="edge86" class="edge">
<title>Node28&#45;&gt;Node19</title>
<path fill="none" stroke="#191970" d="M780.9619,-280.0813C782.8652,-265.7875 788.388,-239.4242 804,-224 854.4294,-174.177 1065.7969,-140.4447 1159.2439,-127.6881"/>
<polygon fill="#191970" stroke="#191970" points="1159.7977,-131.1452 1169.2413,-126.3421 1158.8637,-124.2077 1159.7977,-131.1452"/>
</g>
</g>
</svg>
