<?xml version="1.0" encoding="UTF-8" standalone="no"?>
<!DOCTYPE svg PUBLIC "-//W3C//DTD SVG 1.1//EN"
 "http://www.w3.org/Graphics/SVG/1.1/DTD/svg11.dtd">
<!-- Generated by graphviz version 2.40.1 (20161225.0304)
 -->
<!-- Title: main Pages: 1 -->
<svg width="524pt" height="1090pt"
 viewBox="0.00 0.00 524.00 1090.00" xmlns="http://www.w3.org/2000/svg" xmlns:xlink="http://www.w3.org/1999/xlink">
<g id="graph0" class="graph" transform="scale(1 1) rotate(0) translate(4 1086)">
<title>main</title>
<polygon fill="#ffffff" stroke="transparent" points="-4,4 -4,-1086 520,-1086 520,4 -4,4"/>
<!-- Node0 -->
<g id="node1" class="node">
<title>Node0</title>
<polygon fill="#bfbfbf" stroke="#000000" points="0,-525.5 0,-544.5 38,-544.5 38,-525.5 0,-525.5"/>
<text text-anchor="middle" x="19" y="-532.5" font-family="Helvetica,sans-Serif" font-size="10.00" fill="#000000">main</text>
</g>
<!-- Node1 -->
<g id="node2" class="node">
<title>Node1</title>
<g id="a_node2"><a xlink:href="classgfield.html#a0dcff590c53a428a50567d25d10404e2" target="_top" xlink:title="Specialization of the MPI Allgather function to the lfield class. ">
<polygon fill="#ffffff" stroke="#000000" points="108,-948.5 108,-967.5 191,-967.5 191,-948.5 108,-948.5"/>
<text text-anchor="middle" x="149.5" y="-955.5" font-family="Helvetica,sans-Serif" font-size="10.00" fill="#000000">gfield::allgather</text>
</a>
</g>
</g>
<!-- Node0&#45;&gt;Node1 -->
<g id="edge1" class="edge">
<title>Node0&#45;&gt;Node1</title>
<path fill="none" stroke="#191970" d="M19.6643,-544.5536C23.7957,-602.7835 46.6867,-908.4663 74,-939 80.2869,-946.0282 88.7544,-950.6368 97.7471,-953.6226"/>
<polygon fill="#191970" stroke="#191970" points="97.0683,-957.064 107.6329,-956.2634 98.8749,-950.3011 97.0683,-957.064"/>
</g>
<!-- Node5 -->
<g id="node6" class="node">
<title>Node5</title>
<g id="a_node6"><a xlink:href="classgmatrix.html#a0de07e5d50c35e6eb9e17981d5094730" target="_top" xlink:title="gmatrix::decompose">
<polygon fill="#ffffff" stroke="#000000" points="97,-582.5 97,-601.5 202,-601.5 202,-582.5 97,-582.5"/>
<text text-anchor="middle" x="149.5" y="-589.5" font-family="Helvetica,sans-Serif" font-size="10.00" fill="#000000">gmatrix::decompose</text>
</a>
</g>
</g>
<!-- Node0&#45;&gt;Node5 -->
<g id="edge5" class="edge">
<title>Node0&#45;&gt;Node5</title>
<path fill="none" stroke="#191970" d="M30.4833,-544.7764C41.1244,-553.3687 57.721,-565.6213 74,-573 79.3629,-575.4308 85.0868,-577.5845 90.8936,-579.485"/>
<polygon fill="#191970" stroke="#191970" points="90.1102,-582.9046 100.6952,-582.4486 92.1362,-576.2042 90.1102,-582.9046"/>
</g>
<!-- Node6 -->
<g id="node7" class="node">
<title>Node6</title>
<g id="a_node7"><a xlink:href="classfftw2D.html#a083ad6c7e788b6f2180f657fdfba2ee8" target="_top" xlink:title="fftw2D::execute2D">
<polygon fill="#ffffff" stroke="#000000" points="100,-544.5 100,-563.5 199,-563.5 199,-544.5 100,-544.5"/>
<text text-anchor="middle" x="149.5" y="-551.5" font-family="Helvetica,sans-Serif" font-size="10.00" fill="#000000">fftw2D::execute2D</text>
</a>
</g>
</g>
<!-- Node0&#45;&gt;Node6 -->
<g id="edge6" class="edge">
<title>Node0&#45;&gt;Node6</title>
<path fill="none" stroke="#191970" d="M38.2557,-537.8035C52.0183,-539.8073 71.3354,-542.6197 90.017,-545.3396"/>
<polygon fill="#191970" stroke="#191970" points="89.592,-548.8146 99.992,-546.7919 90.6006,-541.8876 89.592,-548.8146"/>
</g>
<!-- Node7 -->
<g id="node8" class="node">
<title>Node7</title>
<g id="a_node8"><a xlink:href="field_8h.html#a87926e17588c01dfa811c26d05bf8792" target="_top" xlink:title="Method for generation of the noise vectors with a gaussian distribution in the Lie algebra...">
<polygon fill="#ffffff" stroke="#000000" points="100.5,-986.5 100.5,-1005.5 198.5,-1005.5 198.5,-986.5 100.5,-986.5"/>
<text text-anchor="middle" x="149.5" y="-993.5" font-family="Helvetica,sans-Serif" font-size="10.00" fill="#000000">generate_gaussian</text>
</a>
</g>
</g>
<!-- Node0&#45;&gt;Node7 -->
<g id="edge7" class="edge">
<title>Node0&#45;&gt;Node7</title>
<path fill="none" stroke="#191970" d="M19.5526,-544.6387C23.168,-606.242 44.2268,-943.3284 74,-977 78.6319,-982.2384 84.4751,-986.1356 90.8509,-989.0196"/>
<polygon fill="#191970" stroke="#191970" points="89.9004,-992.399 100.494,-992.5584 92.312,-985.8275 89.9004,-992.399"/>
</g>
<!-- Node8 -->
<g id="node9" class="node">
<title>Node8</title>
<g id="a_node9"><a xlink:href="field_8h.html#ab1991c064deb041673a7fd9e56ddcc0b" target="_top" xlink:title="Method for generation of the noise vectors with a gaussian distribution rescaled by the coupling cons...">
<polygon fill="#ffffff" stroke="#000000" points="85,-899 85,-929 214,-929 214,-899 85,-899"/>
<text text-anchor="start" x="93" y="-917" font-family="Helvetica,sans-Serif" font-size="10.00" fill="#000000">generate_gaussian_with</text>
<text text-anchor="middle" x="149.5" y="-906" font-family="Helvetica,sans-Serif" font-size="10.00" fill="#000000">_noise_coupling_constant</text>
</a>
</g>
</g>
<!-- Node0&#45;&gt;Node8 -->
<g id="edge10" class="edge">
<title>Node0&#45;&gt;Node8</title>
<path fill="none" stroke="#191970" d="M19.1856,-544.8362C20.3508,-596.3658 28.183,-834.8886 74,-889 75.1348,-890.3402 76.3432,-891.609 77.6151,-892.8101"/>
<polygon fill="#191970" stroke="#191970" points="75.4849,-895.5874 85.5234,-898.9757 79.7889,-890.0669 75.4849,-895.5874"/>
</g>
<!-- Node10 -->
<g id="node11" class="node">
<title>Node10</title>
<g id="a_node11"><a xlink:href="classmpi__class.html#ab876ade2f1b994bb1c920d1de9375cf6" target="_top" xlink:title="mpi_class::getPosX">
<polygon fill="#ffffff" stroke="#000000" points="272,-772.5 272,-791.5 376,-791.5 376,-772.5 272,-772.5"/>
<text text-anchor="middle" x="324" y="-779.5" font-family="Helvetica,sans-Serif" font-size="10.00" fill="#000000">mpi_class::getPosX</text>
</a>
</g>
</g>
<!-- Node0&#45;&gt;Node10 -->
<g id="edge14" class="edge">
<title>Node0&#45;&gt;Node10</title>
<path fill="none" stroke="#191970" d="M20.4766,-544.6179C26.0357,-579.5918 46.7811,-699.3055 74,-725 81.0723,-731.6762 195.0183,-755.8053 266.6093,-770.444"/>
<polygon fill="#191970" stroke="#191970" points="265.9167,-773.8748 276.4144,-772.4438 267.3156,-767.016 265.9167,-773.8748"/>
</g>
<!-- Node11 -->
<g id="node12" class="node">
<title>Node11</title>
<g id="a_node12"><a xlink:href="classmpi__class.html#aa894e45879f0e9a081efd4d4118b2491" target="_top" xlink:title="mpi_class::getPosY">
<polygon fill="#ffffff" stroke="#000000" points="272,-658.5 272,-677.5 376,-677.5 376,-658.5 272,-658.5"/>
<text text-anchor="middle" x="324" y="-665.5" font-family="Helvetica,sans-Serif" font-size="10.00" fill="#000000">mpi_class::getPosY</text>
</a>
</g>
</g>
<!-- Node0&#45;&gt;Node11 -->
<g id="edge15" class="edge">
<title>Node0&#45;&gt;Node11</title>
<path fill="none" stroke="#191970" d="M20.4141,-544.7386C24.2851,-567.4697 37.3285,-623.9887 74,-649 130.4177,-687.4789 211.5798,-685.9305 265.9679,-678.9641"/>
<polygon fill="#191970" stroke="#191970" points="266.7095,-682.395 276.1362,-677.5589 265.7512,-675.4609 266.7095,-682.395"/>
</g>
<!-- Node12 -->
<g id="node13" class="node">
<title>Node12</title>
<g id="a_node13"><a xlink:href="classMV__class.html#a191e58941f9dd9fd71bc411833b4b3b6" target="_top" xlink:title="MV_class::gGet">
<polygon fill="#ffffff" stroke="#000000" points="280.5,-502.5 280.5,-521.5 367.5,-521.5 367.5,-502.5 280.5,-502.5"/>
<text text-anchor="middle" x="324" y="-509.5" font-family="Helvetica,sans-Serif" font-size="10.00" fill="#000000">MV_class::gGet</text>
</a>
</g>
</g>
<!-- Node0&#45;&gt;Node12 -->
<g id="edge16" class="edge">
<title>Node0&#45;&gt;Node12</title>
<path fill="none" stroke="#191970" d="M38.0791,-533.5612C83.7281,-530.1189 200.5956,-521.3059 269.9682,-516.0745"/>
<polygon fill="#191970" stroke="#191970" points="270.5519,-519.5405 280.2604,-515.2984 270.0255,-512.5604 270.5519,-519.5405"/>
</g>
<!-- Node13 -->
<g id="node14" class="node">
<title>Node13</title>
<g id="a_node14"><a xlink:href="classfftw2D.html#a63f6a1404cba25536f52b693f1f85a50" target="_top" xlink:title="fftw2D::init2D">
<polygon fill="#ffffff" stroke="#000000" points="111,-354.5 111,-373.5 188,-373.5 188,-354.5 111,-354.5"/>
<text text-anchor="middle" x="149.5" y="-361.5" font-family="Helvetica,sans-Serif" font-size="10.00" fill="#000000">fftw2D::init2D</text>
</a>
</g>
</g>
<!-- Node0&#45;&gt;Node13 -->
<g id="edge17" class="edge">
<title>Node0&#45;&gt;Node13</title>
<path fill="none" stroke="#191970" d="M19.7813,-525.1772C22.3928,-498.9919 33.1265,-426.8697 74,-388 81.4751,-380.8914 91.0504,-375.8881 100.8539,-372.3666"/>
<polygon fill="#191970" stroke="#191970" points="102.1543,-375.6275 110.664,-369.3159 100.0757,-368.9433 102.1543,-375.6275"/>
</g>
<!-- Node14 -->
<g id="node15" class="node">
<title>Node14</title>
<g id="a_node15"><a xlink:href="classmpi__class.html#a995c216b811090aa6255523e0e2a8e8a" target="_top" xlink:title="mpi_class::mpi_exchange_grid">
<polygon fill="#ffffff" stroke="#000000" points="74,-316.5 74,-335.5 225,-335.5 225,-316.5 74,-316.5"/>
<text text-anchor="middle" x="149.5" y="-323.5" font-family="Helvetica,sans-Serif" font-size="10.00" fill="#000000">mpi_class::mpi_exchange_grid</text>
</a>
</g>
</g>
<!-- Node0&#45;&gt;Node14 -->
<g id="edge18" class="edge">
<title>Node0&#45;&gt;Node14</title>
<path fill="none" stroke="#191970" d="M20.4957,-525.4021C26.1215,-490.4981 47.0701,-370.9973 74,-345 75.4951,-343.5567 77.083,-342.2181 78.7471,-340.9771"/>
<polygon fill="#191970" stroke="#191970" points="80.9192,-343.7515 87.6259,-335.5497 77.2683,-337.7789 80.9192,-343.7515"/>
</g>
<!-- Node15 -->
<g id="node16" class="node">
<title>Node15</title>
<g id="a_node16"><a xlink:href="classmpi__class.html#a0326e6a2416b3aacd64a3dcc84ddb79b" target="_top" xlink:title="mpi_class::mpi_init">
<polygon fill="#ffffff" stroke="#000000" points="99,-278.5 99,-297.5 200,-297.5 200,-278.5 99,-278.5"/>
<text text-anchor="middle" x="149.5" y="-285.5" font-family="Helvetica,sans-Serif" font-size="10.00" fill="#000000">mpi_class::mpi_init</text>
</a>
</g>
</g>
<!-- Node0&#45;&gt;Node15 -->
<g id="edge19" class="edge">
<title>Node0&#45;&gt;Node15</title>
<path fill="none" stroke="#191970" d="M19.9986,-525.4394C24.2729,-486.3246 42.2694,-339.044 74,-307 78.3257,-302.6315 83.4977,-299.2156 89.0787,-296.5516"/>
<polygon fill="#191970" stroke="#191970" points="90.7507,-299.6553 98.7799,-292.7428 88.1925,-293.1395 90.7507,-299.6553"/>
</g>
<!-- Node16 -->
<g id="node17" class="node">
<title>Node16</title>
<g id="a_node17"><a xlink:href="classMV__class.html#ae17d5e3746cda12cb9b8ea5f6278a1a2" target="_top" xlink:title="MV_class::muGet">
<polygon fill="#ffffff" stroke="#000000" points="276.5,-459.5 276.5,-478.5 371.5,-478.5 371.5,-459.5 276.5,-459.5"/>
<text text-anchor="middle" x="324" y="-466.5" font-family="Helvetica,sans-Serif" font-size="10.00" fill="#000000">MV_class::muGet</text>
</a>
</g>
</g>
<!-- Node0&#45;&gt;Node16 -->
<g id="edge20" class="edge">
<title>Node0&#45;&gt;Node16</title>
<path fill="none" stroke="#191970" d="M22.5867,-525.2567C29.4933,-508.1213 46.4406,-473.0748 74,-459 142.1816,-424.1793 234.9803,-442.045 286.1815,-456.5555"/>
<polygon fill="#191970" stroke="#191970" points="285.2663,-459.9345 295.8475,-459.3963 287.2401,-453.2185 285.2663,-459.9345"/>
</g>
<!-- Node17 -->
<g id="node18" class="node">
<title>Node17</title>
<g id="a_node18"><a xlink:href="classgfield.html#af2d8ebec3637f4c70324937be433ed21" target="_top" xlink:title="The method multiplies the global gfield object by the Cholesky decomposition of the correation matrix...">
<polygon fill="#ffffff" stroke="#000000" points="83,-240.5 83,-259.5 216,-259.5 216,-240.5 83,-240.5"/>
<text text-anchor="middle" x="149.5" y="-247.5" font-family="Helvetica,sans-Serif" font-size="10.00" fill="#000000">gfield::multiplyByCholesky</text>
</a>
</g>
</g>
<!-- Node0&#45;&gt;Node17 -->
<g id="edge21" class="edge">
<title>Node0&#45;&gt;Node17</title>
<path fill="none" stroke="#191970" d="M19.6504,-525.3579C22.7551,-482.1899 37.458,-307.1345 74,-269 75.2537,-267.6917 76.5831,-266.4683 77.9769,-265.3245"/>
<polygon fill="#191970" stroke="#191970" points="80.191,-268.0557 86.5844,-259.6073 76.318,-262.2247 80.191,-268.0557"/>
</g>
<!-- Node18 -->
<g id="node19" class="node">
<title>Node18</title>
<g id="a_node19"><a xlink:href="classMV__class.html#a01e071bdc58b1b0ff4ec57870b34f073" target="_top" xlink:title="MV_class::NyGet">
<polygon fill="#ffffff" stroke="#000000" points="276.5,-402.5 276.5,-421.5 371.5,-421.5 371.5,-402.5 276.5,-402.5"/>
<text text-anchor="middle" x="324" y="-409.5" font-family="Helvetica,sans-Serif" font-size="10.00" fill="#000000">MV_class::NyGet</text>
</a>
</g>
</g>
<!-- Node0&#45;&gt;Node18 -->
<g id="edge22" class="edge">
<title>Node0&#45;&gt;Node18</title>
<path fill="none" stroke="#191970" d="M21.1365,-525.2367C26.2277,-504.5603 41.1813,-456.4946 74,-435 131.2044,-397.534 212.1889,-397.3514 266.3216,-402.8258"/>
<polygon fill="#191970" stroke="#191970" points="266.1154,-406.3243 276.4399,-403.9463 266.8859,-399.3668 266.1154,-406.3243"/>
</g>
<!-- Node19 -->
<g id="node20" class="node">
<title>Node19</title>
<g id="a_node20"><a xlink:href="field_8h.html#ae43c2aa5da993ce8ed28c1953c02805a" target="_top" xlink:title="Optimized method for the evaluation of the A and B matrices. ">
<polygon fill="#ffffff" stroke="#000000" points="90,-620.5 90,-639.5 209,-639.5 209,-620.5 90,-620.5"/>
<text text-anchor="middle" x="149.5" y="-627.5" font-family="Helvetica,sans-Serif" font-size="10.00" fill="#000000">prepare_A_and_B_local</text>
</a>
</g>
</g>
<!-- Node0&#45;&gt;Node19 -->
<g id="edge23" class="edge">
<title>Node0&#45;&gt;Node19</title>
<path fill="none" stroke="#191970" d="M23.2144,-544.603C30.8709,-560.8891 48.6499,-593.8261 74,-611 76.9427,-612.9936 80.0774,-614.778 83.3338,-616.3754"/>
<polygon fill="#191970" stroke="#191970" points="82.2027,-619.6979 92.7743,-620.3996 84.9477,-613.2585 82.2027,-619.6979"/>
</g>
<!-- Node23 -->
<g id="node24" class="node">
<title>Node23</title>
<g id="a_node24"><a xlink:href="field_8h.html#a775fa9c6bfba32acd280006a6fd3e524" target="_top" xlink:title="Optimized method for the evaluation of the A and B matrices. ">
<polygon fill="#ffffff" stroke="#000000" points="106.5,-696.5 106.5,-715.5 192.5,-715.5 192.5,-696.5 106.5,-696.5"/>
<text text-anchor="middle" x="149.5" y="-703.5" font-family="Helvetica,sans-Serif" font-size="10.00" fill="#000000">prepare_A_local</text>
</a>
</g>
</g>
<!-- Node0&#45;&gt;Node23 -->
<g id="edge28" class="edge">
<title>Node0&#45;&gt;Node23</title>
<path fill="none" stroke="#191970" d="M19.7813,-544.8228C22.3928,-571.0081 33.1265,-643.1303 74,-682 80.4449,-688.129 88.4511,-692.6929 96.8186,-696.0915"/>
<polygon fill="#191970" stroke="#191970" points="95.7606,-699.4296 106.3554,-699.4546 98.0887,-692.828 95.7606,-699.4296"/>
</g>
<!-- Node26 -->
<g id="node27" class="node">
<title>Node26</title>
<g id="a_node27"><a xlink:href="field_8h.html#a463f2cc1e2cd9fa4d1fc3f800835a2aa" target="_top" xlink:title="Simple print function. ">
<polygon fill="#ffffff" stroke="#000000" points="132,-860.5 132,-879.5 167,-879.5 167,-860.5 132,-860.5"/>
<text text-anchor="middle" x="149.5" y="-867.5" font-family="Helvetica,sans-Serif" font-size="10.00" fill="#000000">print</text>
</a>
</g>
</g>
<!-- Node0&#45;&gt;Node26 -->
<g id="edge36" class="edge">
<title>Node0&#45;&gt;Node26</title>
<path fill="none" stroke="#191970" d="M19.3134,-544.7802C21.0564,-592.9805 31.0918,-804.7832 74,-851 86.0702,-864.0009 105.6094,-868.6651 121.7862,-870.1236"/>
<polygon fill="#191970" stroke="#191970" points="121.642,-873.6208 131.8189,-870.6745 122.0258,-866.6314 121.642,-873.6208"/>
</g>
<!-- Node28 -->
<g id="node29" class="node">
<title>Node28</title>
<g id="a_node29"><a xlink:href="classconfig.html#a3db5cd0b2853fec8841e85403af5548f" target="_top" xlink:title="config::read_config\l_from_file">
<polygon fill="#ffffff" stroke="#000000" points="100,-191 100,-221 199,-221 199,-191 100,-191"/>
<text text-anchor="start" x="108" y="-209" font-family="Helvetica,sans-Serif" font-size="10.00" fill="#000000">config::read_config</text>
<text text-anchor="middle" x="149.5" y="-198" font-family="Helvetica,sans-Serif" font-size="10.00" fill="#000000">_from_file</text>
</a>
</g>
</g>
<!-- Node0&#45;&gt;Node28 -->
<g id="edge44" class="edge">
<title>Node0&#45;&gt;Node28</title>
<path fill="none" stroke="#191970" d="M19.4519,-525.3395C21.8223,-478.6507 34.2645,-276.7636 74,-231 78.5616,-225.7463 84.2527,-221.5923 90.4519,-218.3085"/>
<polygon fill="#191970" stroke="#191970" points="92.1407,-221.3867 99.8256,-214.0934 89.2698,-215.0025 92.1407,-221.3867"/>
</g>
<!-- Node29 -->
<g id="node30" class="node">
<title>Node29</title>
<g id="a_node30"><a xlink:href="classmomenta.html#ad86512de264263c1d6aef474b8829999" target="_top" xlink:title="momenta::set">
<polygon fill="#ffffff" stroke="#000000" points="111,-152.5 111,-171.5 188,-171.5 188,-152.5 111,-152.5"/>
<text text-anchor="middle" x="149.5" y="-159.5" font-family="Helvetica,sans-Serif" font-size="10.00" fill="#000000">momenta::set</text>
</a>
</g>
</g>
<!-- Node0&#45;&gt;Node29 -->
<g id="edge45" class="edge">
<title>Node0&#45;&gt;Node29</title>
<path fill="none" stroke="#191970" d="M19.1104,-525.4406C19.8968,-474.3124 26.1282,-233.513 74,-181 81.1076,-173.2034 90.8998,-168.3948 101.0787,-165.477"/>
<polygon fill="#191970" stroke="#191970" points="101.9201,-168.8749 110.8815,-163.223 100.3514,-162.053 101.9201,-168.8749"/>
</g>
<!-- Node30 -->
<g id="node31" class="node">
<title>Node30</title>
<g id="a_node31"><a xlink:href="classpositions.html#a47352568d81e13ce66741116baf75473" target="_top" xlink:title="positions::set">
<polygon fill="#ffffff" stroke="#000000" points="112,-114.5 112,-133.5 187,-133.5 187,-114.5 112,-114.5"/>
<text text-anchor="middle" x="149.5" y="-121.5" font-family="Helvetica,sans-Serif" font-size="10.00" fill="#000000">positions::set</text>
</a>
</g>
</g>
<!-- Node0&#45;&gt;Node30 -->
<g id="edge46" class="edge">
<title>Node0&#45;&gt;Node30</title>
<path fill="none" stroke="#191970" d="M19.7124,-525.3597C24.038,-467.9426 47.4799,-172.5253 74,-143 81.2553,-134.9226 91.391,-130.0435 101.8853,-127.151"/>
<polygon fill="#191970" stroke="#191970" points="102.9518,-130.5006 111.9743,-124.9468 101.4576,-123.6619 102.9518,-130.5006"/>
</g>
<!-- Node31 -->
<g id="node32" class="node">
<title>Node31</title>
<g id="a_node32"><a xlink:href="classlfield.html#a14cbafc22e451ce6ecaea0744b56dff6" target="_top" xlink:title="The method creates a one&#45;element lfield object with the value of the coupling constant evaluated for ...">
<polygon fill="#ffffff" stroke="#000000" points="88,-811 88,-841 211,-841 211,-811 88,-811"/>
<text text-anchor="start" x="96" y="-829" font-family="Helvetica,sans-Serif" font-size="10.00" fill="#000000">lfield::setCorrelationsFor</text>
<text text-anchor="middle" x="149.5" y="-818" font-family="Helvetica,sans-Serif" font-size="10.00" fill="#000000">CouplingConstant</text>
</a>
</g>
</g>
<!-- Node0&#45;&gt;Node31 -->
<g id="edge47" class="edge">
<title>Node0&#45;&gt;Node31</title>
<path fill="none" stroke="#191970" d="M19.717,-544.5806C23.1102,-587.4821 38.8784,-761.5535 74,-801 75.7273,-802.94 77.6085,-804.7299 79.6115,-806.3813"/>
<polygon fill="#191970" stroke="#191970" points="77.6571,-809.285 87.8744,-812.0884 81.6353,-803.5253 77.6571,-809.285"/>
</g>
<!-- Node32 -->
<g id="node33" class="node">
<title>Node32</title>
<g id="a_node33"><a xlink:href="classlfield.html#a751b066f2c88db69b0315de9354e082b" target="_top" xlink:title="Method to set the values of lfield object according to the McLerran&#45;Venugopalan model. ">
<polygon fill="#ffffff" stroke="#000000" points="100.5,-468.5 100.5,-487.5 198.5,-487.5 198.5,-468.5 100.5,-468.5"/>
<text text-anchor="middle" x="149.5" y="-475.5" font-family="Helvetica,sans-Serif" font-size="10.00" fill="#000000">lfield::setMVModel</text>
</a>
</g>
</g>
<!-- Node0&#45;&gt;Node32 -->
<g id="edge49" class="edge">
<title>Node0&#45;&gt;Node32</title>
<path fill="none" stroke="#191970" d="M32.9787,-525.3666C43.8099,-518.2151 59.3854,-508.5985 74,-502 83.4016,-497.7552 93.7747,-493.9376 103.7431,-490.6613"/>
<polygon fill="#191970" stroke="#191970" points="105.0452,-493.9205 113.5256,-487.5696 102.9357,-487.2459 105.0452,-493.9205"/>
</g>
<!-- Node33 -->
<g id="node34" class="node">
<title>Node33</title>
<g id="a_node34"><a xlink:href="classlfield.html#a150f51189f23b793ba04f077a1d3c063" target="_top" xlink:title="lfield::setToUnit">
<polygon fill="#ffffff" stroke="#000000" points="106.5,-76.5 106.5,-95.5 192.5,-95.5 192.5,-76.5 106.5,-76.5"/>
<text text-anchor="middle" x="149.5" y="-83.5" font-family="Helvetica,sans-Serif" font-size="10.00" fill="#000000">lfield::setToUnit</text>
</a>
</g>
</g>
<!-- Node0&#45;&gt;Node33 -->
<g id="edge53" class="edge">
<title>Node0&#45;&gt;Node33</title>
<path fill="none" stroke="#191970" d="M19.5957,-525.2317C23.3971,-464.2765 45.0291,-137.6516 74,-105 79.9963,-98.2419 88.0086,-93.7176 96.5754,-90.7213"/>
<polygon fill="#191970" stroke="#191970" points="97.7301,-94.0323 106.4052,-87.9501 95.8306,-87.2949 97.7301,-94.0323"/>
</g>
<!-- Node34 -->
<g id="node35" class="node">
<title>Node34</title>
<g id="a_node35"><a xlink:href="classlfield.html#ad980584011ceafb6abbaf0a450bda309" target="_top" xlink:title="lfield::setToZero">
<polygon fill="#ffffff" stroke="#000000" points="106,-38.5 106,-57.5 193,-57.5 193,-38.5 106,-38.5"/>
<text text-anchor="middle" x="149.5" y="-45.5" font-family="Helvetica,sans-Serif" font-size="10.00" fill="#000000">lfield::setToZero</text>
</a>
</g>
</g>
<!-- Node0&#45;&gt;Node34 -->
<g id="edge54" class="edge">
<title>Node0&#45;&gt;Node34</title>
<path fill="none" stroke="#191970" d="M19.4906,-525.2129C22.7887,-461.1179 42.5555,-102.8069 74,-67 79.8968,-60.2851 87.7838,-55.7713 96.2397,-52.7696"/>
<polygon fill="#191970" stroke="#191970" points="97.3035,-56.1057 105.9525,-49.9864 95.3752,-49.3765 97.3035,-56.1057"/>
</g>
<!-- Node35 -->
<g id="node36" class="node">
<title>Node35</title>
<g id="a_node36"><a xlink:href="classlfield.html#a5b407bbd988e3b009ef8364bbe705beb" target="_top" xlink:title="Implements the solution of the Poisson equation in momentum space, Eq. ">
<polygon fill="#ffffff" stroke="#000000" points="99,-772.5 99,-791.5 200,-791.5 200,-772.5 99,-772.5"/>
<text text-anchor="middle" x="149.5" y="-779.5" font-family="Helvetica,sans-Serif" font-size="10.00" fill="#000000">lfield::solvePoisson</text>
</a>
</g>
</g>
<!-- Node0&#45;&gt;Node35 -->
<g id="edge55" class="edge">
<title>Node0&#45;&gt;Node35</title>
<path fill="none" stroke="#191970" d="M20.1145,-544.5614C24.7772,-583.0125 43.8877,-725.8327 74,-758 78.3796,-762.6785 83.666,-766.4489 89.384,-769.487"/>
<polygon fill="#191970" stroke="#191970" points="88.103,-772.7489 98.6565,-773.6833 90.9891,-766.3716 88.103,-772.7489"/>
</g>
<!-- Node36 -->
<g id="node37" class="node">
<title>Node36</title>
<g id="a_node37"><a xlink:href="classlfield.html#aa00604913a5b5456eaad72fcc36a6b42" target="_top" xlink:title="For all sites of the local lfield, the method computes the trace and stores it in the one element lfi...">
<polygon fill="#ffffff" stroke="#000000" points="117,-.5 117,-19.5 182,-19.5 182,-.5 117,-.5"/>
<text text-anchor="middle" x="149.5" y="-7.5" font-family="Helvetica,sans-Serif" font-size="10.00" fill="#000000">lfield::trace</text>
</a>
</g>
</g>
<!-- Node0&#45;&gt;Node36 -->
<g id="edge57" class="edge">
<title>Node0&#45;&gt;Node36</title>
<path fill="none" stroke="#191970" d="M19.3968,-525.2953C22.2134,-458.4697 40.0596,-67.9904 74,-29 82.2505,-19.522 94.4657,-14.4222 106.678,-11.7707"/>
<polygon fill="#191970" stroke="#191970" points="107.5594,-15.1722 116.8485,-10.0769 106.4094,-8.2673 107.5594,-15.1722"/>
</g>
<!-- Node37 -->
<g id="node38" class="node">
<title>Node37</title>
<g id="a_node38"><a xlink:href="field_8h.html#aea30ef7d1293ae1aa73d254f8eaef4c7" target="_top" xlink:title="Main method for the advance of the Wilson lines in rapidity according to the Langevin equation...">
<polygon fill="#ffffff" stroke="#000000" points="120,-1062.5 120,-1081.5 179,-1081.5 179,-1062.5 120,-1062.5"/>
<text text-anchor="middle" x="149.5" y="-1069.5" font-family="Helvetica,sans-Serif" font-size="10.00" fill="#000000">update_uf</text>
</a>
</g>
</g>
<!-- Node0&#45;&gt;Node37 -->
<g id="edge58" class="edge">
<title>Node0&#45;&gt;Node37</title>
<path fill="none" stroke="#191970" d="M19.3631,-544.5001C22.0117,-611.6299 39.2396,-1012.9671 74,-1053 82.9684,-1063.3287 96.6452,-1068.4604 109.9061,-1070.8898"/>
<polygon fill="#191970" stroke="#191970" points="109.4971,-1074.3665 119.8808,-1072.2623 110.4513,-1067.4318 109.4971,-1074.3665"/>
</g>
<!-- Node40 -->
<g id="node41" class="node">
<title>Node40</title>
<g id="a_node41"><a xlink:href="field_8h.html#a127febd6e7d0a0da0fc2d4fee0081bd4" target="_top" xlink:title="Optimized method to compute the product of Wilson line U, noise vector xi and hermitian conjugate of ...">
<polygon fill="#ffffff" stroke="#000000" points="122,-1024.5 122,-1043.5 177,-1043.5 177,-1024.5 122,-1024.5"/>
<text text-anchor="middle" x="149.5" y="-1031.5" font-family="Helvetica,sans-Serif" font-size="10.00" fill="#000000">uxiulocal</text>
</a>
</g>
</g>
<!-- Node0&#45;&gt;Node40 -->
<g id="edge63" class="edge">
<title>Node0&#45;&gt;Node40</title>
<path fill="none" stroke="#191970" d="M19.4524,-544.6182C22.5732,-609.1916 41.7443,-978.1618 74,-1015 83.3659,-1025.6965 97.7818,-1030.8107 111.5164,-1033.124"/>
<polygon fill="#191970" stroke="#191970" points="111.438,-1036.6408 121.7916,-1034.3931 112.2961,-1029.6936 111.438,-1036.6408"/>
</g>
<!-- Node2 -->
<g id="node3" class="node">
<title>Node2</title>
<g id="a_node3"><a xlink:href="classlfield.html#a6525c9ba54e57f27ff551fc3f6169f14" target="_top" xlink:title="lfield::getNxl">
<polygon fill="#ffffff" stroke="#000000" points="288.5,-971.5 288.5,-990.5 359.5,-990.5 359.5,-971.5 288.5,-971.5"/>
<text text-anchor="middle" x="324" y="-978.5" font-family="Helvetica,sans-Serif" font-size="10.00" fill="#000000">lfield::getNxl</text>
</a>
</g>
</g>
<!-- Node1&#45;&gt;Node2 -->
<g id="edge2" class="edge">
<title>Node1&#45;&gt;Node2</title>
<path fill="none" stroke="#191970" d="M191.2971,-963.5091C217.5827,-966.9736 251.5044,-971.4447 278.4714,-974.9991"/>
<polygon fill="#191970" stroke="#191970" points="278.0642,-978.4756 288.4359,-976.3125 278.979,-971.5356 278.0642,-978.4756"/>
</g>
<!-- Node3 -->
<g id="node4" class="node">
<title>Node3</title>
<g id="a_node4"><a xlink:href="classlfield.html#a7eba0ea85f6f0df54a45cf97cd3ad53d" target="_top" xlink:title="lfield::getNyl">
<polygon fill="#ffffff" stroke="#000000" points="288.5,-933.5 288.5,-952.5 359.5,-952.5 359.5,-933.5 288.5,-933.5"/>
<text text-anchor="middle" x="324" y="-940.5" font-family="Helvetica,sans-Serif" font-size="10.00" fill="#000000">lfield::getNyl</text>
</a>
</g>
</g>
<!-- Node1&#45;&gt;Node3 -->
<g id="edge3" class="edge">
<title>Node1&#45;&gt;Node3</title>
<path fill="none" stroke="#191970" d="M191.2971,-954.4071C217.5827,-952.1476 251.5044,-949.2317 278.4714,-946.9136"/>
<polygon fill="#191970" stroke="#191970" points="278.7724,-950.4008 288.4359,-946.0571 278.1728,-943.4265 278.7724,-950.4008"/>
</g>
<!-- Node4 -->
<g id="node5" class="node">
<title>Node4</title>
<g id="a_node5"><a xlink:href="classmpi__class.html#af78626438bee67b2eacf5bd583d4e4ce" target="_top" xlink:title="mpi_class::getSize">
<polygon fill="#ffffff" stroke="#000000" points="274,-895.5 274,-914.5 374,-914.5 374,-895.5 274,-895.5"/>
<text text-anchor="middle" x="324" y="-902.5" font-family="Helvetica,sans-Serif" font-size="10.00" fill="#000000">mpi_class::getSize</text>
</a>
</g>
</g>
<!-- Node1&#45;&gt;Node4 -->
<g id="edge4" class="edge">
<title>Node1&#45;&gt;Node4</title>
<path fill="none" stroke="#191970" d="M191.3562,-948.6409C202.3923,-945.8545 214.225,-942.5787 225,-939 241.4498,-933.5366 244.6813,-929.8433 261,-924 267.1406,-921.8012 273.6758,-919.6381 280.1242,-917.6042"/>
<polygon fill="#191970" stroke="#191970" points="281.5892,-920.8153 290.1166,-914.5277 279.5294,-914.1252 281.5892,-920.8153"/>
</g>
<!-- Node7&#45;&gt;Node2 -->
<g id="edge8" class="edge">
<title>Node7&#45;&gt;Node2</title>
<path fill="none" stroke="#191970" d="M198.5724,-991.7817C223.5345,-989.636 253.6899,-987.0438 278.1763,-984.939"/>
<polygon fill="#191970" stroke="#191970" points="278.6283,-988.4131 288.2918,-984.0695 278.0287,-981.4389 278.6283,-988.4131"/>
</g>
<!-- Node7&#45;&gt;Node3 -->
<g id="edge9" class="edge">
<title>Node7&#45;&gt;Node3</title>
<path fill="none" stroke="#191970" d="M192.1458,-986.441C202.9552,-983.6983 214.4816,-980.4934 225,-977 241.4498,-971.5366 244.6813,-967.8433 261,-962 267.1406,-959.8012 273.6758,-957.6381 280.1242,-955.6042"/>
<polygon fill="#191970" stroke="#191970" points="281.5892,-958.8153 290.1166,-952.5277 279.5294,-952.1252 281.5892,-958.8153"/>
</g>
<!-- Node8&#45;&gt;Node2 -->
<g id="edge11" class="edge">
<title>Node8&#45;&gt;Node2</title>
<path fill="none" stroke="#191970" d="M200.9443,-929.1186C209.1269,-932.0671 217.3946,-935.3809 225,-939 242.1446,-947.1583 243.7475,-954.0726 261,-962 266.6542,-964.5981 272.7544,-966.9507 278.8548,-969.0447"/>
<polygon fill="#191970" stroke="#191970" points="277.7855,-972.3773 288.3773,-972.1206 279.9372,-965.7162 277.7855,-972.3773"/>
</g>
<!-- Node8&#45;&gt;Node3 -->
<g id="edge12" class="edge">
<title>Node8&#45;&gt;Node3</title>
<path fill="none" stroke="#191970" d="M214.4774,-924.7985C235.6689,-928.3203 258.7392,-932.1544 278.2168,-935.3913"/>
<polygon fill="#191970" stroke="#191970" points="277.9002,-938.8866 288.3387,-937.0735 279.0478,-931.9814 277.9002,-938.8866"/>
</g>
<!-- Node9 -->
<g id="node10" class="node">
<title>Node9</title>
<g id="a_node10"><a xlink:href="classmomenta.html#a5b2ec8b44c4874d8e18036c8927461db" target="_top" xlink:title="momenta::phat2">
<polygon fill="#ffffff" stroke="#000000" points="280.5,-816.5 280.5,-835.5 367.5,-835.5 367.5,-816.5 280.5,-816.5"/>
<text text-anchor="middle" x="324" y="-823.5" font-family="Helvetica,sans-Serif" font-size="10.00" fill="#000000">momenta::phat2</text>
</a>
</g>
</g>
<!-- Node8&#45;&gt;Node9 -->
<g id="edge13" class="edge">
<title>Node8&#45;&gt;Node9</title>
<path fill="none" stroke="#191970" d="M206.3038,-898.8941C212.8567,-896.089 219.2443,-892.8123 225,-889 245.2173,-875.6093 240.8919,-861.5541 261,-848 265.9234,-844.6813 271.4004,-841.8097 277.0121,-839.3392"/>
<polygon fill="#191970" stroke="#191970" points="278.517,-842.5071 286.5093,-835.5519 275.9241,-836.005 278.517,-842.5071"/>
</g>
<!-- Node19&#45;&gt;Node3 -->
<g id="edge24" class="edge">
<title>Node19&#45;&gt;Node3</title>
<path fill="none" stroke="#191970" d="M169.7396,-639.5883C187.3602,-649.0594 212.0519,-665.2731 225,-687 279.5423,-778.5218 191.2046,-843.5033 261,-924 265.6763,-929.3933 271.823,-933.2857 278.4438,-936.0886"/>
<polygon fill="#191970" stroke="#191970" points="277.7727,-939.5572 288.3671,-939.4635 280.0267,-932.93 277.7727,-939.5572"/>
</g>
<!-- Node20 -->
<g id="node21" class="node">
<title>Node20</title>
<g id="a_node21"><a xlink:href="classpositions.html#a6dbe3d67f866039efa6736ed9a7fb210" target="_top" xlink:title="positions::xbar2">
<polygon fill="#ffffff" stroke="#000000" points="281,-620.5 281,-639.5 367,-639.5 367,-620.5 281,-620.5"/>
<text text-anchor="middle" x="324" y="-627.5" font-family="Helvetica,sans-Serif" font-size="10.00" fill="#000000">positions::xbar2</text>
</a>
</g>
</g>
<!-- Node19&#45;&gt;Node20 -->
<g id="edge25" class="edge">
<title>Node19&#45;&gt;Node20</title>
<path fill="none" stroke="#191970" d="M209.0649,-630C229.0672,-630 251.2352,-630 270.7234,-630"/>
<polygon fill="#191970" stroke="#191970" points="270.9431,-633.5001 280.943,-630 270.943,-626.5001 270.9431,-633.5001"/>
</g>
<!-- Node21 -->
<g id="node22" class="node">
<title>Node21</title>
<g id="a_node22"><a xlink:href="classpositions.html#a77d78afe9d418da5a6f5ba15e123e402" target="_top" xlink:title="positions::xhatX">
<polygon fill="#ffffff" stroke="#000000" points="280.5,-582.5 280.5,-601.5 367.5,-601.5 367.5,-582.5 280.5,-582.5"/>
<text text-anchor="middle" x="324" y="-589.5" font-family="Helvetica,sans-Serif" font-size="10.00" fill="#000000">positions::xhatX</text>
</a>
</g>
</g>
<!-- Node19&#45;&gt;Node21 -->
<g id="edge26" class="edge">
<title>Node19&#45;&gt;Node21</title>
<path fill="none" stroke="#191970" d="M193.5337,-620.411C216.8721,-615.3287 245.7296,-609.0446 270.3658,-603.6797"/>
<polygon fill="#191970" stroke="#191970" points="271.2567,-607.0678 280.2829,-601.5201 269.7672,-600.2281 271.2567,-607.0678"/>
</g>
<!-- Node22 -->
<g id="node23" class="node">
<title>Node22</title>
<g id="a_node23"><a xlink:href="classpositions.html#a7c323a6022ee85bf1312d56d9726c308" target="_top" xlink:title="positions::xhatY">
<polygon fill="#ffffff" stroke="#000000" points="280.5,-544.5 280.5,-563.5 367.5,-563.5 367.5,-544.5 280.5,-544.5"/>
<text text-anchor="middle" x="324" y="-551.5" font-family="Helvetica,sans-Serif" font-size="10.00" fill="#000000">positions::xhatY</text>
</a>
</g>
</g>
<!-- Node19&#45;&gt;Node22 -->
<g id="edge27" class="edge">
<title>Node19&#45;&gt;Node22</title>
<path fill="none" stroke="#191970" d="M203.384,-620.4605C210.9193,-617.9917 218.3506,-614.8913 225,-611 245.0789,-599.2495 241.199,-585.2129 261,-573 264.4032,-570.901 268.0534,-569.0208 271.8195,-567.3388"/>
<polygon fill="#191970" stroke="#191970" points="273.3439,-570.4993 281.345,-563.5543 270.7593,-563.9939 273.3439,-570.4993"/>
</g>
<!-- Node23&#45;&gt;Node2 -->
<g id="edge29" class="edge">
<title>Node23&#45;&gt;Node2</title>
<path fill="none" stroke="#191970" d="M169.5942,-715.6763C187.117,-725.2067 211.7466,-741.458 225,-763 272.0976,-839.5522 201.1672,-894.9295 261,-962 265.7008,-967.2695 271.8045,-971.102 278.3595,-973.8842"/>
<polygon fill="#191970" stroke="#191970" points="277.5809,-977.3173 288.1755,-977.2541 279.8538,-970.6966 277.5809,-977.3173"/>
</g>
<!-- Node23&#45;&gt;Node3 -->
<g id="edge30" class="edge">
<title>Node23&#45;&gt;Node3</title>
<path fill="none" stroke="#191970" d="M169.0475,-715.6214C186.448,-725.2153 211.2187,-741.5962 225,-763 264.6939,-824.6489 211.0777,-870.2974 261,-924 265.8079,-929.172 271.9669,-932.954 278.5443,-935.7159"/>
<polygon fill="#191970" stroke="#191970" points="277.7772,-939.1524 288.3717,-939.0754 280.0415,-932.5288 277.7772,-939.1524"/>
</g>
<!-- Node23&#45;&gt;Node9 -->
<g id="edge35" class="edge">
<title>Node23&#45;&gt;Node9</title>
<path fill="none" stroke="#191970" d="M163.6798,-715.6398C179.2736,-726.4798 204.7982,-744.9376 225,-763 242.3431,-778.5065 241.7348,-787.9583 261,-801 267.646,-805.499 275.2224,-809.3753 282.7617,-812.6413"/>
<polygon fill="#191970" stroke="#191970" points="281.6355,-815.9609 292.219,-816.4527 284.2522,-809.4683 281.6355,-815.9609"/>
</g>
<!-- Node23&#45;&gt;Node10 -->
<g id="edge31" class="edge">
<title>Node23&#45;&gt;Node10</title>
<path fill="none" stroke="#191970" d="M190.8366,-715.606C202.3311,-719.2038 214.5257,-723.935 225,-730 243.7834,-740.8763 242.1362,-752.2636 261,-763 264.8458,-765.1888 268.9701,-767.1503 273.2006,-768.903"/>
<polygon fill="#191970" stroke="#191970" points="271.9723,-772.1804 282.5646,-772.414 274.4299,-765.626 271.9723,-772.1804"/>
</g>
<!-- Node23&#45;&gt;Node11 -->
<g id="edge32" class="edge">
<title>Node23&#45;&gt;Node11</title>
<path fill="none" stroke="#191970" d="M192.6348,-696.6067C216.053,-691.5071 245.225,-685.1544 270.1262,-679.7318"/>
<polygon fill="#191970" stroke="#191970" points="271.1231,-683.0969 280.1493,-677.5491 269.6336,-676.2572 271.1231,-683.0969"/>
</g>
<!-- Node24 -->
<g id="node25" class="node">
<title>Node24</title>
<g id="a_node25"><a xlink:href="classmomenta.html#a98078c7de442771358e691a2b0b037ce" target="_top" xlink:title="momenta::pbarX">
<polygon fill="#ffffff" stroke="#000000" points="279.5,-734.5 279.5,-753.5 368.5,-753.5 368.5,-734.5 279.5,-734.5"/>
<text text-anchor="middle" x="324" y="-741.5" font-family="Helvetica,sans-Serif" font-size="10.00" fill="#000000">momenta::pbarX</text>
</a>
</g>
</g>
<!-- Node23&#45;&gt;Node24 -->
<g id="edge33" class="edge">
<title>Node23&#45;&gt;Node24</title>
<path fill="none" stroke="#191970" d="M192.6348,-715.3933C216.053,-720.4929 245.225,-726.8456 270.1262,-732.2682"/>
<polygon fill="#191970" stroke="#191970" points="269.6336,-735.7428 280.1493,-734.4509 271.1231,-728.9031 269.6336,-735.7428"/>
</g>
<!-- Node25 -->
<g id="node26" class="node">
<title>Node25</title>
<g id="a_node26"><a xlink:href="classmomenta.html#adf9462fd94288b5cd635a555d689434b" target="_top" xlink:title="momenta::pbarY">
<polygon fill="#ffffff" stroke="#000000" points="279.5,-696.5 279.5,-715.5 368.5,-715.5 368.5,-696.5 279.5,-696.5"/>
<text text-anchor="middle" x="324" y="-703.5" font-family="Helvetica,sans-Serif" font-size="10.00" fill="#000000">momenta::pbarY</text>
</a>
</g>
</g>
<!-- Node23&#45;&gt;Node25 -->
<g id="edge34" class="edge">
<title>Node23&#45;&gt;Node25</title>
<path fill="none" stroke="#191970" d="M192.6348,-706C215.684,-706 244.3071,-706 268.946,-706"/>
<polygon fill="#191970" stroke="#191970" points="269.2337,-709.5001 279.2337,-706 269.2336,-702.5001 269.2337,-709.5001"/>
</g>
<!-- Node26&#45;&gt;Node2 -->
<g id="edge37" class="edge">
<title>Node26&#45;&gt;Node2</title>
<path fill="none" stroke="#191970" d="M167.2319,-870.6313C183.8319,-872.0853 208.4873,-876.5633 225,-890 252.7505,-912.5811 233.6369,-938.9509 261,-962 266.2247,-966.401 272.4459,-969.7826 278.913,-972.381"/>
<polygon fill="#191970" stroke="#191970" points="277.8821,-975.7274 288.4767,-975.655 280.1493,-969.1048 277.8821,-975.7274"/>
</g>
<!-- Node26&#45;&gt;Node3 -->
<g id="edge38" class="edge">
<title>Node26&#45;&gt;Node3</title>
<path fill="none" stroke="#191970" d="M167.2164,-872.1583C183.1384,-874.6696 206.7539,-879.8443 225,-890 244.2298,-900.7033 241.9547,-912.9718 261,-924 266.5147,-927.1933 272.6173,-929.897 278.7897,-932.173"/>
<polygon fill="#191970" stroke="#191970" points="277.8786,-935.5587 288.4723,-935.4063 280.0957,-928.9191 277.8786,-935.5587"/>
</g>
<!-- Node26&#45;&gt;Node4 -->
<g id="edge42" class="edge">
<title>Node26&#45;&gt;Node4</title>
<path fill="none" stroke="#191970" d="M167.1923,-873.5486C190.2988,-878.1831 231.8749,-886.5222 266.4124,-893.4495"/>
<polygon fill="#191970" stroke="#191970" points="265.9168,-896.9197 276.4099,-895.4547 267.2935,-890.0564 265.9168,-896.9197"/>
</g>
<!-- Node26&#45;&gt;Node9 -->
<g id="edge43" class="edge">
<title>Node26&#45;&gt;Node9</title>
<path fill="none" stroke="#191970" d="M167.1967,-865.5509C182.498,-861.7029 205.2095,-855.989 225,-851 241.7971,-846.7656 260.1957,-842.1212 276.5257,-837.9968"/>
<polygon fill="#191970" stroke="#191970" points="277.555,-841.3468 286.3933,-835.5043 275.8407,-834.56 277.555,-841.3468"/>
</g>
<!-- Node26&#45;&gt;Node10 -->
<g id="edge39" class="edge">
<title>Node26&#45;&gt;Node10</title>
<path fill="none" stroke="#191970" d="M167.2244,-868.7059C183.3674,-866.8275 207.3146,-862.2313 225,-851 246.3293,-837.4546 240.6047,-821.9148 261,-807 267.1383,-802.5111 274.1923,-798.6954 281.3085,-795.4991"/>
<polygon fill="#191970" stroke="#191970" points="283.0573,-798.5641 290.9707,-791.5193 280.3913,-792.0917 283.0573,-798.5641"/>
</g>
<!-- Node26&#45;&gt;Node11 -->
<g id="edge40" class="edge">
<title>Node26&#45;&gt;Node11</title>
<path fill="none" stroke="#191970" d="M167.0363,-870.5371C184.2148,-870.0641 209.9426,-866.523 225,-851 276.9579,-797.4354 210.2981,-741.7549 261,-687 262.2273,-685.6745 263.5434,-684.4403 264.9326,-683.2912"/>
<polygon fill="#191970" stroke="#191970" points="267.1531,-686.0197 273.5792,-677.5961 263.3027,-680.1738 267.1531,-686.0197"/>
</g>
<!-- Node27 -->
<g id="node28" class="node">
<title>Node27</title>
<g id="a_node28"><a xlink:href="classmpi__class.html#a6ba81c7f035bcbbb4c5c1273d0850aba" target="_top" xlink:title="mpi_class::getRank">
<polygon fill="#ffffff" stroke="#000000" points="272,-857.5 272,-876.5 376,-876.5 376,-857.5 272,-857.5"/>
<text text-anchor="middle" x="324" y="-864.5" font-family="Helvetica,sans-Serif" font-size="10.00" fill="#000000">mpi_class::getRank</text>
</a>
</g>
</g>
<!-- Node26&#45;&gt;Node27 -->
<g id="edge41" class="edge">
<title>Node26&#45;&gt;Node27</title>
<path fill="none" stroke="#191970" d="M167.1923,-869.6958C189.2573,-869.3165 228.1646,-868.6476 261.7018,-868.071"/>
<polygon fill="#191970" stroke="#191970" points="261.9746,-871.567 271.9129,-867.8955 261.8542,-864.568 261.9746,-871.567"/>
</g>
<!-- Node31&#45;&gt;Node9 -->
<g id="edge48" class="edge">
<title>Node31&#45;&gt;Node9</title>
<path fill="none" stroke="#191970" d="M211.0222,-826C230.3128,-826 251.4461,-826 270.163,-826"/>
<polygon fill="#191970" stroke="#191970" points="270.2856,-829.5001 280.2856,-826 270.2855,-822.5001 270.2856,-829.5001"/>
</g>
<!-- Node32&#45;&gt;Node12 -->
<g id="edge50" class="edge">
<title>Node32&#45;&gt;Node12</title>
<path fill="none" stroke="#191970" d="M198.5724,-487.5614C220.9643,-491.9243 247.5352,-497.1014 270.4444,-501.5651"/>
<polygon fill="#191970" stroke="#191970" points="269.864,-505.0178 280.3488,-503.4949 271.2028,-498.147 269.864,-505.0178"/>
</g>
<!-- Node32&#45;&gt;Node16 -->
<g id="edge51" class="edge">
<title>Node32&#45;&gt;Node16</title>
<path fill="none" stroke="#191970" d="M198.5724,-475.469C219.6322,-474.3829 244.3885,-473.106 266.3184,-471.975"/>
<polygon fill="#191970" stroke="#191970" points="266.6926,-475.4604 276.499,-471.4499 266.332,-468.4697 266.6926,-475.4604"/>
</g>
<!-- Node32&#45;&gt;Node18 -->
<g id="edge52" class="edge">
<title>Node32&#45;&gt;Node18</title>
<path fill="none" stroke="#191970" d="M174.8738,-468.403C205.0714,-456.9816 255.6429,-437.8543 289.407,-425.0839"/>
<polygon fill="#191970" stroke="#191970" points="290.7635,-428.3129 298.8787,-421.5015 288.2871,-421.7655 290.7635,-428.3129"/>
</g>
<!-- Node35&#45;&gt;Node9 -->
<g id="edge56" class="edge">
<title>Node35&#45;&gt;Node9</title>
<path fill="none" stroke="#191970" d="M187.3639,-791.5473C213.432,-798.1204 248.2701,-806.9048 276.2435,-813.9583"/>
<polygon fill="#191970" stroke="#191970" points="275.6577,-817.42 286.21,-816.4713 277.3693,-810.6325 275.6577,-817.42"/>
</g>
<!-- Node37&#45;&gt;Node2 -->
<g id="edge61" class="edge">
<title>Node37&#45;&gt;Node2</title>
<path fill="none" stroke="#191970" d="M179.0714,-1067.2819C193.3845,-1064.3246 210.5541,-1059.7597 225,-1053 256.0204,-1038.4845 287.217,-1013.7125 306.0754,-997.349"/>
<polygon fill="#191970" stroke="#191970" points="308.4243,-999.9441 313.5964,-990.6974 303.7869,-994.7005 308.4243,-999.9441"/>
</g>
<!-- Node37&#45;&gt;Node3 -->
<g id="edge62" class="edge">
<title>Node37&#45;&gt;Node3</title>
<path fill="none" stroke="#191970" d="M179.3428,-1070.8234C194.5873,-1068.7807 212.5046,-1063.9662 225,-1053 257.6903,-1024.3104 228.9836,-991.4399 261,-962 266.085,-957.3242 272.2828,-953.7972 278.7839,-951.1372"/>
<polygon fill="#191970" stroke="#191970" points="280.1085,-954.3832 288.4316,-947.8276 277.837,-947.7619 280.1085,-954.3832"/>
</g>
<!-- Node38 -->
<g id="node39" class="node">
<title>Node38</title>
<g id="a_node39"><a xlink:href="classsu3__matrix.html#aedf511a4b74bf6f2a4a5ba681c1df72e" target="_top" xlink:title="su3_matrix::exponentiate">
<polygon fill="#ffffff" stroke="#000000" points="261,-1062.5 261,-1081.5 387,-1081.5 387,-1062.5 261,-1062.5"/>
<text text-anchor="middle" x="324" y="-1069.5" font-family="Helvetica,sans-Serif" font-size="10.00" fill="#000000">su3_matrix::exponentiate</text>
</a>
</g>
</g>
<!-- Node37&#45;&gt;Node38 -->
<g id="edge59" class="edge">
<title>Node37&#45;&gt;Node38</title>
<path fill="none" stroke="#191970" d="M179.1015,-1072C198.758,-1072 225.4802,-1072 250.6246,-1072"/>
<polygon fill="#191970" stroke="#191970" points="250.9052,-1075.5001 260.9051,-1072 250.9051,-1068.5001 250.9052,-1075.5001"/>
</g>
<!-- Node39 -->
<g id="node40" class="node">
<title>Node39</title>
<g id="a_node40"><a xlink:href="su3__matrix_8h.html#ab226771af05ad43c66ee5a218eee0bdd" target="_top" xlink:title=" Calculates the eigenvalues and normalized eigenvectors of a hermitian 3x3 matrix A using Cardano&#39;s m...">
<polygon fill="#ffffff" stroke="#000000" points="423,-1062.5 423,-1081.5 516,-1081.5 516,-1062.5 423,-1062.5"/>
<text text-anchor="middle" x="469.5" y="-1069.5" font-family="Helvetica,sans-Serif" font-size="10.00" fill="#000000">function_zheevh3</text>
</a>
</g>
</g>
<!-- Node38&#45;&gt;Node39 -->
<g id="edge60" class="edge">
<title>Node38&#45;&gt;Node39</title>
<path fill="none" stroke="#191970" d="M387.3952,-1072C395.8884,-1072 404.5547,-1072 412.9204,-1072"/>
<polygon fill="#191970" stroke="#191970" points="412.944,-1075.5001 422.9439,-1072 412.9439,-1068.5001 412.944,-1075.5001"/>
</g>
<!-- Node40&#45;&gt;Node2 -->
<g id="edge64" class="edge">
<title>Node40&#45;&gt;Node2</title>
<path fill="none" stroke="#191970" d="M177.2638,-1027.6058C191.5976,-1024.1552 209.322,-1019.6559 225,-1015 246.2644,-1008.6851 269.7579,-1000.6625 288.5204,-993.9963"/>
<polygon fill="#191970" stroke="#191970" points="289.9039,-997.2186 298.1378,-990.5513 287.5433,-990.6286 289.9039,-997.2186"/>
</g>
<!-- Node40&#45;&gt;Node3 -->
<g id="edge65" class="edge">
<title>Node40&#45;&gt;Node3</title>
<path fill="none" stroke="#191970" d="M177.3382,-1031.8286C192.5364,-1029.5162 211.0442,-1024.761 225,-1015 248.3345,-998.6794 238.0501,-978.8573 261,-962 266.2567,-958.1388 272.3023,-955.0548 278.5233,-952.5934"/>
<polygon fill="#191970" stroke="#191970" points="280.0352,-955.7749 288.3556,-949.2158 277.761,-949.1546 280.0352,-955.7749"/>
</g>
</g>
</svg>
