<?xml version="1.0" encoding="UTF-8" standalone="no"?>
<!DOCTYPE svg PUBLIC "-//W3C//DTD SVG 1.1//EN"
 "http://www.w3.org/Graphics/SVG/1.1/DTD/svg11.dtd">
<!-- Generated by graphviz version 2.40.1 (20161225.0304)
 -->
<!-- Title: main_omp.cpp Pages: 1 -->
<svg width="2166pt" height="364pt"
 viewBox="0.00 0.00 2165.50 364.00" xmlns="http://www.w3.org/2000/svg" xmlns:xlink="http://www.w3.org/1999/xlink">
<g id="graph0" class="graph" transform="scale(1 1) rotate(0) translate(4 360)">
<title>main_omp.cpp</title>
<polygon fill="#ffffff" stroke="transparent" points="-4,4 -4,-360 2161.5,-360 2161.5,4 -4,4"/>
<!-- Node0 -->
<g id="node1" class="node">
<title>Node0</title>
<polygon fill="#bfbfbf" stroke="#000000" points="1322,-336.5 1322,-355.5 1402,-355.5 1402,-336.5 1322,-336.5"/>
<text text-anchor="middle" x="1362" y="-343.5" font-family="Helvetica,sans-Serif" font-size="10.00" fill="#000000">main_omp.cpp</text>
</g>
<!-- Node1 -->
<g id="node2" class="node">
<title>Node1</title>
<polygon fill="#ffffff" stroke="#bfbfbf" points="534,-168.5 534,-187.5 580,-187.5 580,-168.5 534,-168.5"/>
<text text-anchor="middle" x="557" y="-175.5" font-family="Helvetica,sans-Serif" font-size="10.00" fill="#000000">stdio.h</text>
</g>
<!-- Node0&#45;&gt;Node1 -->
<g id="edge1" class="edge">
<title>Node0&#45;&gt;Node1</title>
<path fill="none" stroke="#191970" d="M1321.8961,-344.8614C1168.0562,-340.332 622.8026,-322.7291 594,-300 562.8474,-275.4165 557.1824,-225.4238 556.5844,-197.673"/>
<polygon fill="#191970" stroke="#191970" points="560.0844,-197.5897 556.5723,-187.594 553.0844,-197.5982 560.0844,-197.5897"/>
</g>
<!-- Node2 -->
<g id="node3" class="node">
<title>Node2</title>
<polygon fill="#ffffff" stroke="#bfbfbf" points="774,-.5 774,-19.5 822,-19.5 822,-.5 774,-.5"/>
<text text-anchor="middle" x="798" y="-7.5" font-family="Helvetica,sans-Serif" font-size="10.00" fill="#000000">stdlib.h</text>
</g>
<!-- Node0&#45;&gt;Node2 -->
<g id="edge2" class="edge">
<title>Node0&#45;&gt;Node2</title>
<path fill="none" stroke="#191970" d="M1321.6925,-345.1949C1127.2708,-341.2096 291.0551,-322.8656 177,-300 94.6803,-283.4967 0,-317.9577 0,-234 0,-234 0,-234 0,-122 0,-43.6993 610.2977,-16.6937 763.4588,-11.1493"/>
<polygon fill="#191970" stroke="#191970" points="763.8121,-14.639 773.6817,-10.7867 763.5639,-7.6434 763.8121,-14.639"/>
</g>
<!-- Node3 -->
<g id="node4" class="node">
<title>Node3</title>
<polygon fill="#ffffff" stroke="#bfbfbf" points="979.5,-56.5 979.5,-75.5 1020.5,-75.5 1020.5,-56.5 979.5,-56.5"/>
<text text-anchor="middle" x="1000" y="-63.5" font-family="Helvetica,sans-Serif" font-size="10.00" fill="#000000">mpi.h</text>
</g>
<!-- Node0&#45;&gt;Node3 -->
<g id="edge3" class="edge">
<title>Node0&#45;&gt;Node3</title>
<path fill="none" stroke="#191970" d="M1321.6772,-341.9124C1267.4153,-335.8177 1168.2099,-322.5771 1086,-300 1019.7825,-281.8148 999.1655,-282.0469 942,-244 881.173,-203.5161 800.2458,-170.5187 844,-112 859.01,-91.925 928.2346,-77.5699 969.2547,-70.6566"/>
<polygon fill="#191970" stroke="#191970" points="969.966,-74.0869 979.2715,-69.0216 968.8382,-67.1784 969.966,-74.0869"/>
</g>
<!-- Node4 -->
<g id="node5" class="node">
<title>Node4</title>
<polygon fill="#ffffff" stroke="#bfbfbf" points="283,-112.5 283,-131.5 345,-131.5 345,-112.5 283,-112.5"/>
<text text-anchor="middle" x="314" y="-119.5" font-family="Helvetica,sans-Serif" font-size="10.00" fill="#000000">complex.h</text>
</g>
<!-- Node0&#45;&gt;Node4 -->
<g id="edge4" class="edge">
<title>Node0&#45;&gt;Node4</title>
<path fill="none" stroke="#191970" d="M1321.9786,-344.943C1173.6354,-340.8604 655.328,-325.0876 492,-300 294.6755,-269.6905 179.3071,-345.7865 57,-188 51.5543,-180.9746 51.2951,-174.8166 57,-168 84.0057,-135.7314 207.0185,-126.073 272.5754,-123.2016"/>
<polygon fill="#191970" stroke="#191970" points="273.1127,-126.6828 282.9634,-122.7824 272.8304,-119.6885 273.1127,-126.6828"/>
</g>
<!-- Node5 -->
<g id="node6" class="node">
<title>Node5</title>
<g id="a_node6"><a xlink:href="$su3__matrix_8h.html" xlink:title="su3_matrix.h">
<polygon fill="#ffffff" stroke="#000000" points="430.5,-224.5 430.5,-243.5 503.5,-243.5 503.5,-224.5 430.5,-224.5"/>
<text text-anchor="middle" x="467" y="-231.5" font-family="Helvetica,sans-Serif" font-size="10.00" fill="#000000">su3_matrix.h</text>
</a>
</g>
</g>
<!-- Node0&#45;&gt;Node5 -->
<g id="edge5" class="edge">
<title>Node0&#45;&gt;Node5</title>
<path fill="none" stroke="#191970" d="M1321.9426,-345.7618C1164.0136,-344.56 589.6141,-337.6185 518,-300 498.6504,-289.8358 484.3888,-268.7138 475.9419,-253.0887"/>
<polygon fill="#191970" stroke="#191970" points="478.8728,-251.1286 471.2358,-243.7851 472.6264,-254.2883 478.8728,-251.1286"/>
</g>
<!-- Node6 -->
<g id="node7" class="node">
<title>Node6</title>
<polygon fill="#ffffff" stroke="#bfbfbf" points="1660.5,-168.5 1660.5,-187.5 1707.5,-187.5 1707.5,-168.5 1660.5,-168.5"/>
<text text-anchor="middle" x="1684" y="-175.5" font-family="Helvetica,sans-Serif" font-size="10.00" fill="#000000">math.h</text>
</g>
<!-- Node0&#45;&gt;Node6 -->
<g id="edge93" class="edge">
<title>Node0&#45;&gt;Node6</title>
<path fill="none" stroke="#191970" d="M1402.2398,-339.0775C1480.211,-324.7648 1647.1984,-289.4207 1681,-244 1690.7261,-230.9307 1690.5833,-212.0476 1688.5286,-197.8248"/>
<polygon fill="#191970" stroke="#191970" points="1691.8988,-196.8053 1686.6229,-187.6175 1685.0177,-198.0901 1691.8988,-196.8053"/>
</g>
<!-- Node11 -->
<g id="node12" class="node">
<title>Node11</title>
<g id="a_node12"><a xlink:href="$config_8h.html" xlink:title="config.h">
<polygon fill="#ffffff" stroke="#000000" points="1461.5,-56.5 1461.5,-75.5 1512.5,-75.5 1512.5,-56.5 1461.5,-56.5"/>
<text text-anchor="middle" x="1487" y="-63.5" font-family="Helvetica,sans-Serif" font-size="10.00" fill="#000000">config.h</text>
</a>
</g>
</g>
<!-- Node0&#45;&gt;Node11 -->
<g id="edge16" class="edge">
<title>Node0&#45;&gt;Node11</title>
<path fill="none" stroke="#191970" d="M1402.2909,-345.0623C1504.5465,-342.2344 1771.8334,-331.9184 1854,-300 1917.3191,-275.4031 1941.4638,-253.8853 1958,-188 1970.5802,-137.8766 1918.6655,-129.3864 1870,-112 1806.4094,-89.2814 1605.3414,-73.811 1522.8478,-68.267"/>
<polygon fill="#191970" stroke="#191970" points="1522.9145,-64.7639 1512.7051,-67.5954 1522.4519,-71.7486 1522.9145,-64.7639"/>
</g>
<!-- Node13 -->
<g id="node14" class="node">
<title>Node13</title>
<polygon fill="#ffffff" stroke="#bfbfbf" points="1541.5,-224.5 1541.5,-243.5 1588.5,-243.5 1588.5,-224.5 1541.5,-224.5"/>
<text text-anchor="middle" x="1565" y="-231.5" font-family="Helvetica,sans-Serif" font-size="10.00" fill="#000000">fftw3.h</text>
</g>
<!-- Node0&#45;&gt;Node13 -->
<g id="edge20" class="edge">
<title>Node0&#45;&gt;Node13</title>
<path fill="none" stroke="#191970" d="M1382.3185,-336.3665C1401.1071,-327.335 1429.7099,-313.2711 1454,-300 1484.4716,-283.3516 1518.6999,-262.691 1540.9868,-248.9662"/>
<polygon fill="#191970" stroke="#191970" points="1543.0967,-251.7767 1549.7615,-243.5407 1539.4153,-245.8229 1543.0967,-251.7767"/>
</g>
<!-- Node14 -->
<g id="node15" class="node">
<title>Node14</title>
<polygon fill="#ffffff" stroke="#bfbfbf" points="1606.5,-224.5 1606.5,-243.5 1671.5,-243.5 1671.5,-224.5 1606.5,-224.5"/>
<text text-anchor="middle" x="1639" y="-231.5" font-family="Helvetica,sans-Serif" font-size="10.00" fill="#000000">fftw3&#45;mpi.h</text>
</g>
<!-- Node0&#45;&gt;Node14 -->
<g id="edge21" class="edge">
<title>Node0&#45;&gt;Node14</title>
<path fill="none" stroke="#191970" d="M1388.3014,-336.4457C1413.093,-327.3544 1451.2271,-313.1492 1484,-300 1527.2311,-282.6547 1576.6629,-261.3468 1607.8481,-247.72"/>
<polygon fill="#191970" stroke="#191970" points="1609.5449,-250.7979 1617.301,-243.5803 1606.7368,-244.3857 1609.5449,-250.7979"/>
</g>
<!-- Node15 -->
<g id="node16" class="node">
<title>Node15</title>
<g id="a_node16"><a xlink:href="$field_8h.html" xlink:title="field.h">
<polygon fill="#ffffff" stroke="#000000" points="1327.5,-224.5 1327.5,-243.5 1370.5,-243.5 1370.5,-224.5 1327.5,-224.5"/>
<text text-anchor="middle" x="1349" y="-231.5" font-family="Helvetica,sans-Serif" font-size="10.00" fill="#000000">field.h</text>
</a>
</g>
</g>
<!-- Node0&#45;&gt;Node15 -->
<g id="edge22" class="edge">
<title>Node0&#45;&gt;Node15</title>
<path fill="none" stroke="#191970" d="M1357.3151,-336.4115C1353.1398,-327.2959 1347.3386,-313.0744 1345,-300 1342.2799,-284.7927 1343.5251,-267.3347 1345.3182,-254.195"/>
<polygon fill="#191970" stroke="#191970" points="1348.8374,-254.35 1346.9492,-243.9248 1341.924,-253.2521 1348.8374,-254.35"/>
</g>
<!-- Node18 -->
<g id="node19" class="node">
<title>Node18</title>
<polygon fill="#ffffff" stroke="#bfbfbf" points="1515,-112.5 1515,-131.5 1559,-131.5 1559,-112.5 1515,-112.5"/>
<text text-anchor="middle" x="1537" y="-119.5" font-family="Helvetica,sans-Serif" font-size="10.00" fill="#000000">omp.h</text>
</g>
<!-- Node0&#45;&gt;Node18 -->
<g id="edge92" class="edge">
<title>Node0&#45;&gt;Node18</title>
<path fill="none" stroke="#191970" d="M1402.062,-344.6465C1504.9462,-340.7776 1772.3407,-328.0939 1800,-300 1842.2788,-257.0569 1818.8186,-201.9074 1769,-168 1752.6284,-156.8572 1629.182,-136.3857 1569.3372,-126.9732"/>
<polygon fill="#191970" stroke="#191970" points="1569.7031,-123.488 1559.2825,-125.4018 1568.6221,-130.404 1569.7031,-123.488"/>
</g>
<!-- Node19 -->
<g id="node20" class="node">
<title>Node19</title>
<g id="a_node20"><a xlink:href="$mpi__class_8h.html" xlink:title="mpi_class.h">
<polygon fill="#ffffff" stroke="#000000" points="864.5,-112.5 864.5,-131.5 933.5,-131.5 933.5,-112.5 864.5,-112.5"/>
<text text-anchor="middle" x="899" y="-119.5" font-family="Helvetica,sans-Serif" font-size="10.00" fill="#000000">mpi_class.h</text>
</a>
</g>
</g>
<!-- Node0&#45;&gt;Node19 -->
<g id="edge94" class="edge">
<title>Node0&#45;&gt;Node19</title>
<path fill="none" stroke="#191970" d="M1321.7021,-338.4407C1218.5626,-318.1886 949.5855,-259.3731 899,-188 889.4963,-174.5908 890.6425,-155.488 893.4878,-141.2816"/>
<polygon fill="#191970" stroke="#191970" points="896.893,-142.0908 895.8467,-131.5477 890.0899,-140.4421 896.893,-142.0908"/>
</g>
<!-- Node20 -->
<g id="node21" class="node">
<title>Node20</title>
<g id="a_node21"><a xlink:href="$MV__class_8h.html" xlink:title="MV_class.h">
<polygon fill="#ffffff" stroke="#000000" points="1068,-168.5 1068,-187.5 1136,-187.5 1136,-168.5 1068,-168.5"/>
<text text-anchor="middle" x="1102" y="-175.5" font-family="Helvetica,sans-Serif" font-size="10.00" fill="#000000">MV_class.h</text>
</a>
</g>
</g>
<!-- Node0&#45;&gt;Node20 -->
<g id="edge97" class="edge">
<title>Node0&#45;&gt;Node20</title>
<path fill="none" stroke="#191970" d="M1347.2763,-336.4862C1304.2068,-308.6567 1178.1895,-227.2301 1125.5405,-193.2108"/>
<polygon fill="#191970" stroke="#191970" points="1127.1832,-190.1051 1116.8845,-187.6177 1123.3841,-195.9846 1127.1832,-190.1051"/>
</g>
<!-- Node22 -->
<g id="node23" class="node">
<title>Node22</title>
<g id="a_node23"><a xlink:href="$rand__class_8h.html" xlink:title="rand_class.h">
<polygon fill="#ffffff" stroke="#000000" points="978,-168.5 978,-187.5 1050,-187.5 1050,-168.5 978,-168.5"/>
<text text-anchor="middle" x="1014" y="-175.5" font-family="Helvetica,sans-Serif" font-size="10.00" fill="#000000">rand_class.h</text>
</a>
</g>
</g>
<!-- Node0&#45;&gt;Node22 -->
<g id="edge96" class="edge">
<title>Node0&#45;&gt;Node22</title>
<path fill="none" stroke="#191970" d="M1340.2367,-336.3254C1319.7201,-327.149 1288.1552,-312.8863 1261,-300 1180.9254,-262.0012 1087.3471,-215.0852 1041.7774,-192.075"/>
<polygon fill="#191970" stroke="#191970" points="1043.3077,-188.9268 1032.8041,-187.5395 1040.15,-195.1742 1043.3077,-188.9268"/>
</g>
<!-- Node23 -->
<g id="node24" class="node">
<title>Node23</title>
<g id="a_node24"><a xlink:href="$momenta_8h.html" xlink:title="momenta.h">
<polygon fill="#ffffff" stroke="#000000" points="1615.5,-112.5 1615.5,-131.5 1680.5,-131.5 1680.5,-112.5 1615.5,-112.5"/>
<text text-anchor="middle" x="1648" y="-119.5" font-family="Helvetica,sans-Serif" font-size="10.00" fill="#000000">momenta.h</text>
</a>
</g>
</g>
<!-- Node0&#45;&gt;Node23 -->
<g id="edge95" class="edge">
<title>Node0&#45;&gt;Node23</title>
<path fill="none" stroke="#191970" d="M1402.2785,-345.2608C1499.937,-342.9467 1746.754,-333.8259 1821,-300 1887.0935,-269.8883 1911.1927,-254.6723 1940,-188 1943.5256,-179.8402 1945.7757,-174.7568 1940,-168 1924.0165,-149.3014 1768.1831,-132.8087 1690.9474,-125.7063"/>
<polygon fill="#191970" stroke="#191970" points="1690.8688,-122.1849 1680.5935,-124.7672 1690.2364,-129.1563 1690.8688,-122.1849"/>
</g>
<!-- Node27 -->
<g id="node28" class="node">
<title>Node27</title>
<g id="a_node28"><a xlink:href="$matrix_8h.html" xlink:title="matrix.h">
<polygon fill="#ffffff" stroke="#000000" points="1739,-280.5 1739,-299.5 1791,-299.5 1791,-280.5 1739,-280.5"/>
<text text-anchor="middle" x="1765" y="-287.5" font-family="Helvetica,sans-Serif" font-size="10.00" fill="#000000">matrix.h</text>
</a>
</g>
</g>
<!-- Node0&#45;&gt;Node27 -->
<g id="edge69" class="edge">
<title>Node0&#45;&gt;Node27</title>
<path fill="none" stroke="#191970" d="M1402.2417,-341.5858C1467.7565,-334.2099 1601.472,-318.3657 1714,-300 1718.8115,-299.2147 1723.8638,-298.3155 1728.8409,-297.3853"/>
<polygon fill="#191970" stroke="#191970" points="1729.6919,-300.7859 1738.8504,-295.4593 1728.3692,-293.912 1729.6919,-300.7859"/>
</g>
<!-- Node28 -->
<g id="node29" class="node">
<title>Node28</title>
<g id="a_node29"><a xlink:href="$mpi__fftw__class_8h.html" xlink:title="mpi_fftw_class.h">
<polygon fill="#ffffff" stroke="#000000" points="1353.5,-280.5 1353.5,-299.5 1444.5,-299.5 1444.5,-280.5 1353.5,-280.5"/>
<text text-anchor="middle" x="1399" y="-287.5" font-family="Helvetica,sans-Serif" font-size="10.00" fill="#000000">mpi_fftw_class.h</text>
</a>
</g>
</g>
<!-- Node0&#45;&gt;Node28 -->
<g id="edge79" class="edge">
<title>Node0&#45;&gt;Node28</title>
<path fill="none" stroke="#191970" d="M1368.4449,-336.2455C1373.5382,-328.5367 1380.7908,-317.5598 1386.952,-308.2348"/>
<polygon fill="#191970" stroke="#191970" points="1390.0365,-309.9155 1392.6289,-299.6427 1384.1962,-306.0566 1390.0365,-309.9155"/>
</g>
<!-- Node29 -->
<g id="node30" class="node">
<title>Node29</title>
<polygon fill="#ffffff" stroke="#bfbfbf" points="2106.5,-280.5 2106.5,-299.5 2157.5,-299.5 2157.5,-280.5 2106.5,-280.5"/>
<text text-anchor="middle" x="2132" y="-287.5" font-family="Helvetica,sans-Serif" font-size="10.00" fill="#000000">numeric</text>
</g>
<!-- Node0&#45;&gt;Node29 -->
<g id="edge98" class="edge">
<title>Node0&#45;&gt;Node29</title>
<path fill="none" stroke="#191970" d="M1402.2575,-344.4305C1534.8782,-339.1085 1957.2599,-320.9093 2092,-300 2093.4589,-299.7736 2094.9424,-299.5188 2096.437,-299.2416"/>
<polygon fill="#191970" stroke="#191970" points="2097.2606,-302.6449 2106.32,-297.1515 2095.8122,-295.7964 2097.2606,-302.6449"/>
</g>
<!-- Node5&#45;&gt;Node1 -->
<g id="edge6" class="edge">
<title>Node5&#45;&gt;Node1</title>
<path fill="none" stroke="#191970" d="M482.6768,-224.2455C496.4856,-215.6534 516.8193,-203.0014 532.7292,-193.1018"/>
<polygon fill="#191970" stroke="#191970" points="534.8613,-195.8974 541.5028,-187.6427 531.1632,-189.954 534.8613,-195.8974"/>
</g>
<!-- Node5&#45;&gt;Node2 -->
<g id="edge8" class="edge">
<title>Node5&#45;&gt;Node2</title>
<path fill="none" stroke="#191970" d="M469.4939,-224.0772C473.1342,-210.6829 480.721,-186.3802 492,-168 527.2137,-110.6159 535.8057,-89.858 594,-56 622.5647,-39.3808 713.6684,-23.1357 763.918,-15.1373"/>
<polygon fill="#191970" stroke="#191970" points="764.6466,-18.5659 773.9834,-13.5585 763.5618,-11.6504 764.6466,-18.5659"/>
</g>
<!-- Node5&#45;&gt;Node4 -->
<g id="edge10" class="edge">
<title>Node5&#45;&gt;Node4</title>
<path fill="none" stroke="#191970" d="M430.3666,-231.9991C372.6044,-227.9932 264.496,-216.7601 241,-188 224.5374,-167.8491 253.4983,-148.3156 279.6634,-135.7966"/>
<polygon fill="#191970" stroke="#191970" points="281.4316,-138.8376 289.0873,-131.5136 278.5352,-132.4648 281.4316,-138.8376"/>
</g>
<!-- Node5&#45;&gt;Node6 -->
<g id="edge7" class="edge">
<title>Node5&#45;&gt;Node6</title>
<path fill="none" stroke="#191970" d="M503.754,-232.3088C684.3462,-223.9989 1475.961,-187.5729 1650.0587,-179.5618"/>
<polygon fill="#191970" stroke="#191970" points="1650.3422,-183.0526 1660.1707,-179.0965 1650.0203,-176.06 1650.3422,-183.0526"/>
</g>
<!-- Node7 -->
<g id="node8" class="node">
<title>Node7</title>
<polygon fill="#ffffff" stroke="#bfbfbf" points="1302,-.5 1302,-19.5 1356,-19.5 1356,-.5 1302,-.5"/>
<text text-anchor="middle" x="1329" y="-7.5" font-family="Helvetica,sans-Serif" font-size="10.00" fill="#000000">iostream</text>
</g>
<!-- Node5&#45;&gt;Node7 -->
<g id="edge9" class="edge">
<title>Node5&#45;&gt;Node7</title>
<path fill="none" stroke="#191970" d="M472.831,-224.3248C482.0636,-209.8477 501.4387,-182.684 525,-168 686.4056,-67.4082 751.2719,-92.098 938,-56 1066.6192,-31.1355 1221.812,-17.7182 1291.6951,-12.5445"/>
<polygon fill="#191970" stroke="#191970" points="1292.0479,-16.0282 1301.7678,-11.8125 1291.5404,-9.0466 1292.0479,-16.0282"/>
</g>
<!-- Node8 -->
<g id="node9" class="node">
<title>Node8</title>
<polygon fill="#ffffff" stroke="#bfbfbf" points="396,-168.5 396,-187.5 440,-187.5 440,-168.5 396,-168.5"/>
<text text-anchor="middle" x="418" y="-175.5" font-family="Helvetica,sans-Serif" font-size="10.00" fill="#000000">float.h</text>
</g>
<!-- Node5&#45;&gt;Node8 -->
<g id="edge11" class="edge">
<title>Node5&#45;&gt;Node8</title>
<path fill="none" stroke="#191970" d="M458.4649,-224.2455C451.5088,-216.2958 441.5117,-204.8706 433.1949,-195.3656"/>
<polygon fill="#191970" stroke="#191970" points="435.6564,-192.8637 426.4373,-187.6427 430.3884,-197.4732 435.6564,-192.8637"/>
</g>
<!-- Node9 -->
<g id="node10" class="node">
<title>Node9</title>
<g id="a_node10"><a xlink:href="$zheevc3_8h.html" xlink:title="zheevh3&#45;C&#45;1.1/zheevc3.h">
<polygon fill="#ffffff" stroke="#000000" points="66,-168.5 66,-187.5 194,-187.5 194,-168.5 66,-168.5"/>
<text text-anchor="middle" x="130" y="-175.5" font-family="Helvetica,sans-Serif" font-size="10.00" fill="#000000">zheevh3&#45;C&#45;1.1/zheevc3.h</text>
</a>
</g>
</g>
<!-- Node5&#45;&gt;Node9 -->
<g id="edge12" class="edge">
<title>Node5&#45;&gt;Node9</title>
<path fill="none" stroke="#191970" d="M430.2936,-227.9004C374.5234,-218.633 267.5421,-200.8557 197.4862,-189.2143"/>
<polygon fill="#191970" stroke="#191970" points="197.867,-185.7297 187.4285,-187.543 196.7195,-192.635 197.867,-185.7297"/>
</g>
<!-- Node10 -->
<g id="node11" class="node">
<title>Node10</title>
<g id="a_node11"><a xlink:href="$zheevq3_8h.html" xlink:title="zheevh3&#45;C&#45;1.1/zheevq3.h">
<polygon fill="#ffffff" stroke="#000000" points="250,-168.5 250,-187.5 378,-187.5 378,-168.5 250,-168.5"/>
<text text-anchor="middle" x="314" y="-175.5" font-family="Helvetica,sans-Serif" font-size="10.00" fill="#000000">zheevh3&#45;C&#45;1.1/zheevq3.h</text>
</a>
</g>
</g>
<!-- Node5&#45;&gt;Node10 -->
<g id="edge14" class="edge">
<title>Node5&#45;&gt;Node10</title>
<path fill="none" stroke="#191970" d="M440.6984,-224.3733C415.5872,-215.1822 377.5562,-201.2624 349.7128,-191.0713"/>
<polygon fill="#191970" stroke="#191970" points="350.5522,-187.6516 339.9584,-187.5011 348.1462,-194.2251 350.5522,-187.6516"/>
</g>
<!-- Node9&#45;&gt;Node4 -->
<g id="edge13" class="edge">
<title>Node9&#45;&gt;Node4</title>
<path fill="none" stroke="#191970" d="M161.6307,-168.3733C192.3596,-159.021 239.176,-144.7725 272.8022,-134.5385"/>
<polygon fill="#191970" stroke="#191970" points="274.2344,-137.7612 282.782,-131.5011 272.1962,-131.0644 274.2344,-137.7612"/>
</g>
<!-- Node10&#45;&gt;Node4 -->
<g id="edge15" class="edge">
<title>Node10&#45;&gt;Node4</title>
<path fill="none" stroke="#191970" d="M314,-168.2455C314,-160.9382 314,-150.6944 314,-141.7046"/>
<polygon fill="#191970" stroke="#191970" points="317.5001,-141.6426 314,-131.6427 310.5001,-141.6427 317.5001,-141.6426"/>
</g>
<!-- Node11&#45;&gt;Node2 -->
<g id="edge18" class="edge">
<title>Node11&#45;&gt;Node2</title>
<path fill="none" stroke="#191970" d="M1461.4527,-60.0167C1454.2278,-58.505 1446.3347,-57.0225 1439,-56 1208.6732,-23.89 928.4753,-13.5735 832.3071,-10.8484"/>
<polygon fill="#191970" stroke="#191970" points="832.3723,-7.349 822.28,-10.5732 832.1801,-14.3463 832.3723,-7.349"/>
</g>
<!-- Node11&#45;&gt;Node7 -->
<g id="edge17" class="edge">
<title>Node11&#45;&gt;Node7</title>
<path fill="none" stroke="#191970" d="M1461.2629,-56.878C1435.2587,-47.6613 1394.8423,-33.3365 1365.5284,-22.9468"/>
<polygon fill="#191970" stroke="#191970" points="1366.6444,-19.629 1356.0496,-19.5872 1364.3059,-26.2269 1366.6444,-19.629"/>
</g>
<!-- Node12 -->
<g id="node13" class="node">
<title>Node12</title>
<polygon fill="#ffffff" stroke="#bfbfbf" points="1462.5,-.5 1462.5,-19.5 1511.5,-19.5 1511.5,-.5 1462.5,-.5"/>
<text text-anchor="middle" x="1487" y="-7.5" font-family="Helvetica,sans-Serif" font-size="10.00" fill="#000000">string.h</text>
</g>
<!-- Node11&#45;&gt;Node12 -->
<g id="edge19" class="edge">
<title>Node11&#45;&gt;Node12</title>
<path fill="none" stroke="#191970" d="M1487,-56.2455C1487,-48.9382 1487,-38.6944 1487,-29.7046"/>
<polygon fill="#191970" stroke="#191970" points="1490.5001,-29.6426 1487,-19.6427 1483.5001,-29.6427 1490.5001,-29.6426"/>
</g>
<!-- Node15&#45;&gt;Node2 -->
<g id="edge24" class="edge">
<title>Node15&#45;&gt;Node2</title>
<path fill="none" stroke="#191970" d="M1327.4277,-233.1443C1250.6667,-229.8798 991.2607,-216.9085 914,-188 849.2344,-163.7668 825.9153,-142.2209 806,-76 801.475,-60.9539 799.5003,-43.2477 798.6431,-29.9647"/>
<polygon fill="#191970" stroke="#191970" points="802.1213,-29.4273 798.1415,-19.6083 795.1295,-29.766 802.1213,-29.4273"/>
</g>
<!-- Node15&#45;&gt;Node3 -->
<g id="edge29" class="edge">
<title>Node15&#45;&gt;Node3</title>
<path fill="none" stroke="#191970" d="M1327.4275,-233.0266C1250.5064,-229.3383 992.9664,-215.0425 969,-188 942.8089,-158.4472 969.0359,-109.8317 986.732,-83.7876"/>
<polygon fill="#191970" stroke="#191970" points="989.6169,-85.7699 992.5356,-75.585 983.9026,-81.7268 989.6169,-85.7699"/>
</g>
<!-- Node15&#45;&gt;Node6 -->
<g id="edge30" class="edge">
<title>Node15&#45;&gt;Node6</title>
<path fill="none" stroke="#191970" d="M1370.7222,-230.3688C1427.6787,-220.8477 1581.6549,-195.1084 1650.2443,-183.6427"/>
<polygon fill="#191970" stroke="#191970" points="1650.8215,-187.0949 1660.1076,-181.994 1649.6674,-180.1907 1650.8215,-187.0949"/>
</g>
<!-- Node15&#45;&gt;Node7 -->
<g id="edge23" class="edge">
<title>Node15&#45;&gt;Node7</title>
<path fill="none" stroke="#191970" d="M1364.0426,-224.3031C1381.2137,-211.9297 1405.6343,-189.5409 1395,-168 1383.3521,-144.4061 1361.4339,-154.6247 1348,-132 1329.0187,-100.0328 1327.0358,-55.3834 1327.7311,-29.9086"/>
<polygon fill="#191970" stroke="#191970" points="1331.2387,-29.8137 1328.1876,-19.6677 1324.2457,-29.5019 1331.2387,-29.8137"/>
</g>
<!-- Node15&#45;&gt;Node11 -->
<g id="edge27" class="edge">
<title>Node15&#45;&gt;Node11</title>
<path fill="none" stroke="#191970" d="M1370.9363,-230.9606C1440.2221,-220.8575 1652.0452,-185.951 1690,-132 1695.1145,-124.7299 1695.5476,-118.9453 1690,-112 1669.481,-86.3112 1575.5697,-73.9007 1522.9669,-68.871"/>
<polygon fill="#191970" stroke="#191970" points="1522.9976,-65.3594 1512.7206,-67.9347 1522.3605,-72.3303 1522.9976,-65.3594"/>
</g>
<!-- Node16 -->
<g id="node17" class="node">
<title>Node16</title>
<polygon fill="#ffffff" stroke="#bfbfbf" points="1247.5,-112.5 1247.5,-131.5 1300.5,-131.5 1300.5,-112.5 1247.5,-112.5"/>
<text text-anchor="middle" x="1274" y="-119.5" font-family="Helvetica,sans-Serif" font-size="10.00" fill="#000000">complex</text>
</g>
<!-- Node15&#45;&gt;Node16 -->
<g id="edge25" class="edge">
<title>Node15&#45;&gt;Node16</title>
<path fill="none" stroke="#191970" d="M1359.7709,-224.1499C1372.9869,-210.8381 1392.2229,-186.6284 1380,-168 1371.8647,-155.6013 1337.7725,-142.1814 1310.4176,-133.0551"/>
<polygon fill="#191970" stroke="#191970" points="1311.2971,-129.6607 1300.7049,-129.8968 1309.1325,-136.3176 1311.2971,-129.6607"/>
</g>
<!-- Node17 -->
<g id="node18" class="node">
<title>Node17</title>
<polygon fill="#ffffff" stroke="#bfbfbf" points="1154.5,-168.5 1154.5,-187.5 1213.5,-187.5 1213.5,-168.5 1154.5,-168.5"/>
<text text-anchor="middle" x="1184" y="-175.5" font-family="Helvetica,sans-Serif" font-size="10.00" fill="#000000">ccomplex</text>
</g>
<!-- Node15&#45;&gt;Node17 -->
<g id="edge26" class="edge">
<title>Node15&#45;&gt;Node17</title>
<path fill="none" stroke="#191970" d="M1327.4291,-226.679C1300.6715,-217.5976 1254.5937,-201.9591 1221.8901,-190.8597"/>
<polygon fill="#191970" stroke="#191970" points="1222.8007,-187.4727 1212.2063,-187.573 1220.5509,-194.1013 1222.8007,-187.4727"/>
</g>
<!-- Node15&#45;&gt;Node18 -->
<g id="edge28" class="edge">
<title>Node15&#45;&gt;Node18</title>
<path fill="none" stroke="#191970" d="M1370.556,-228.8587C1395.9829,-222.1435 1438.8547,-208.7396 1471,-188 1491.4885,-174.7811 1510.6932,-154.3004 1523.045,-139.6611"/>
<polygon fill="#191970" stroke="#191970" points="1525.8451,-141.7663 1529.4836,-131.8158 1520.434,-137.3255 1525.8451,-141.7663"/>
</g>
<!-- Node15&#45;&gt;Node19 -->
<g id="edge31" class="edge">
<title>Node15&#45;&gt;Node19</title>
<path fill="none" stroke="#191970" d="M1327.4007,-232.7463C1247.1249,-227.9311 968.885,-209.7992 936,-188 919.6314,-177.1494 909.7624,-156.4635 904.384,-141.13"/>
<polygon fill="#191970" stroke="#191970" points="907.7082,-140.0337 901.3532,-131.5564 901.0346,-142.1464 907.7082,-140.0337"/>
</g>
<!-- Node15&#45;&gt;Node20 -->
<g id="edge36" class="edge">
<title>Node15&#45;&gt;Node20</title>
<path fill="none" stroke="#191970" d="M1327.3677,-229.1029C1290.2586,-220.701 1212.0759,-202.9951 1146,-188 1145.8997,-187.9772 1145.7993,-187.9545 1145.6988,-187.9316"/>
<polygon fill="#191970" stroke="#191970" points="1146.636,-184.5554 1136.1093,-185.7544 1145.0861,-191.3817 1146.636,-184.5554"/>
</g>
<!-- Node21 -->
<g id="node22" class="node">
<title>Node21</title>
<polygon fill="#ffffff" stroke="#bfbfbf" points="1180.5,-112.5 1180.5,-131.5 1229.5,-131.5 1229.5,-112.5 1180.5,-112.5"/>
<text text-anchor="middle" x="1205" y="-119.5" font-family="Helvetica,sans-Serif" font-size="10.00" fill="#000000">random</text>
</g>
<!-- Node15&#45;&gt;Node21 -->
<g id="edge66" class="edge">
<title>Node15&#45;&gt;Node21</title>
<path fill="none" stroke="#191970" d="M1351.8511,-224.3664C1355.3438,-210.4278 1359.3874,-184.5025 1347,-168 1345.3158,-165.7563 1280.8988,-145.4887 1239.4141,-132.6155"/>
<polygon fill="#191970" stroke="#191970" points="1240.2562,-129.2124 1229.6683,-129.5963 1238.1847,-135.8988 1240.2562,-129.2124"/>
</g>
<!-- Node15&#45;&gt;Node22 -->
<g id="edge46" class="edge">
<title>Node15&#45;&gt;Node22</title>
<path fill="none" stroke="#191970" d="M1327.457,-231.0444C1280.6779,-224.5287 1166.1251,-208.0448 1060.2024,-188.1431"/>
<polygon fill="#191970" stroke="#191970" points="1060.7864,-184.6916 1050.3098,-186.2694 1059.4837,-191.5693 1060.7864,-184.6916"/>
</g>
<!-- Node15&#45;&gt;Node23 -->
<g id="edge56" class="edge">
<title>Node15&#45;&gt;Node23</title>
<path fill="none" stroke="#191970" d="M1370.5732,-228.1064C1399.6152,-219.989 1452.7508,-204.4892 1497,-188 1540.06,-171.9539 1588.5277,-150.0623 1618.6671,-135.9767"/>
<polygon fill="#191970" stroke="#191970" points="1620.2165,-139.1158 1627.7785,-131.695 1617.2394,-132.7804 1620.2165,-139.1158"/>
</g>
<!-- Node24 -->
<g id="node25" class="node">
<title>Node24</title>
<g id="a_node25"><a xlink:href="$positions_8h.html" xlink:title="positions.h">
<polygon fill="#ffffff" stroke="#000000" points="1357,-112.5 1357,-131.5 1421,-131.5 1421,-112.5 1357,-112.5"/>
<text text-anchor="middle" x="1389" y="-119.5" font-family="Helvetica,sans-Serif" font-size="10.00" fill="#000000">positions.h</text>
</a>
</g>
</g>
<!-- Node15&#45;&gt;Node24 -->
<g id="edge61" class="edge">
<title>Node15&#45;&gt;Node24</title>
<path fill="none" stroke="#191970" d="M1370.7119,-231.6334C1396.1123,-227.5732 1437.0933,-216.7079 1456,-188 1469.3986,-167.6555 1444.4235,-148.6075 1421.2518,-136.2548"/>
<polygon fill="#191970" stroke="#191970" points="1422.7189,-133.0749 1412.2134,-131.7021 1419.5699,-139.3266 1422.7189,-133.0749"/>
</g>
<!-- Node25 -->
<g id="node26" class="node">
<title>Node25</title>
<polygon fill="#ffffff" stroke="#bfbfbf" points="1232,-168.5 1232,-187.5 1276,-187.5 1276,-168.5 1232,-168.5"/>
<text text-anchor="middle" x="1254" y="-175.5" font-family="Helvetica,sans-Serif" font-size="10.00" fill="#000000">time.h</text>
</g>
<!-- Node15&#45;&gt;Node25 -->
<g id="edge67" class="edge">
<title>Node15&#45;&gt;Node25</title>
<path fill="none" stroke="#191970" d="M1332.4523,-224.2455C1317.7401,-215.5731 1296.0112,-202.7645 1279.1495,-192.825"/>
<polygon fill="#191970" stroke="#191970" points="1280.7502,-189.7057 1270.3581,-187.6427 1277.1954,-195.736 1280.7502,-189.7057"/>
</g>
<!-- Node26 -->
<g id="node27" class="node">
<title>Node26</title>
<polygon fill="#ffffff" stroke="#bfbfbf" points="1294,-168.5 1294,-187.5 1338,-187.5 1338,-168.5 1294,-168.5"/>
<text text-anchor="middle" x="1316" y="-175.5" font-family="Helvetica,sans-Serif" font-size="10.00" fill="#000000">thread</text>
</g>
<!-- Node15&#45;&gt;Node26 -->
<g id="edge68" class="edge">
<title>Node15&#45;&gt;Node26</title>
<path fill="none" stroke="#191970" d="M1343.2518,-224.2455C1338.7565,-216.617 1332.3752,-205.7881 1326.9175,-196.5267"/>
<polygon fill="#191970" stroke="#191970" points="1329.7747,-194.4811 1321.6823,-187.6427 1323.7439,-198.035 1329.7747,-194.4811"/>
</g>
<!-- Node19&#45;&gt;Node2 -->
<g id="edge32" class="edge">
<title>Node19&#45;&gt;Node2</title>
<path fill="none" stroke="#191970" d="M890.3888,-112.4509C873.3196,-93.5227 834.9859,-51.014 813.4457,-27.1279"/>
<polygon fill="#191970" stroke="#191970" points="815.8856,-24.6073 806.5894,-19.5249 810.6872,-29.2952 815.8856,-24.6073"/>
</g>
<!-- Node19&#45;&gt;Node3 -->
<g id="edge35" class="edge">
<title>Node19&#45;&gt;Node3</title>
<path fill="none" stroke="#191970" d="M916.5929,-112.2455C932.379,-103.4928 955.7639,-90.527 973.7587,-80.5496"/>
<polygon fill="#191970" stroke="#191970" points="975.5603,-83.5528 982.6087,-75.6427 972.1659,-77.4308 975.5603,-83.5528"/>
</g>
<!-- Node19&#45;&gt;Node7 -->
<g id="edge33" class="edge">
<title>Node19&#45;&gt;Node7</title>
<path fill="none" stroke="#191970" d="M906.0353,-112.3924C917.5483,-97.4862 941.9592,-69.1387 970,-56 1026.5648,-29.4961 1211.8125,-16.4141 1291.7397,-11.8926"/>
<polygon fill="#191970" stroke="#191970" points="1292.0553,-15.3806 1301.8473,-11.3349 1291.6696,-8.3912 1292.0553,-15.3806"/>
</g>
<!-- Node19&#45;&gt;Node11 -->
<g id="edge34" class="edge">
<title>Node19&#45;&gt;Node11</title>
<path fill="none" stroke="#191970" d="M933.5869,-118.706C1037.4741,-108.812 1346.0729,-79.4216 1451.3469,-69.3955"/>
<polygon fill="#191970" stroke="#191970" points="1451.8342,-72.865 1461.4573,-68.4326 1451.1705,-65.8966 1451.8342,-72.865"/>
</g>
<!-- Node20&#45;&gt;Node2 -->
<g id="edge38" class="edge">
<title>Node20&#45;&gt;Node2</title>
<path fill="none" stroke="#191970" d="M1099.3387,-168.4528C1092.2616,-144.9878 1070.6144,-84.3486 1029,-56 997.4098,-34.4801 888.7652,-19.8591 832.4557,-13.5375"/>
<polygon fill="#191970" stroke="#191970" points="832.5771,-10.03 822.2552,-12.4191 831.8141,-16.9882 832.5771,-10.03"/>
</g>
<!-- Node20&#45;&gt;Node3 -->
<g id="edge43" class="edge">
<title>Node20&#45;&gt;Node3</title>
<path fill="none" stroke="#191970" d="M1093.3035,-168.4509C1076.0653,-149.5227 1037.3521,-107.014 1015.5986,-83.1279"/>
<polygon fill="#191970" stroke="#191970" points="1017.9955,-80.5617 1008.6745,-75.5249 1012.8201,-85.275 1017.9955,-80.5617"/>
</g>
<!-- Node20&#45;&gt;Node4 -->
<g id="edge40" class="edge">
<title>Node20&#45;&gt;Node4</title>
<path fill="none" stroke="#191970" d="M1067.8306,-169.5116C1064.8557,-168.9375 1061.8819,-168.4211 1059,-168 921.5153,-147.9124 491.6078,-129.2007 355.654,-123.655"/>
<polygon fill="#191970" stroke="#191970" points="355.4007,-120.1419 345.2671,-123.2336 355.1169,-127.1362 355.4007,-120.1419"/>
</g>
<!-- Node20&#45;&gt;Node7 -->
<g id="edge37" class="edge">
<title>Node20&#45;&gt;Node7</title>
<path fill="none" stroke="#191970" d="M1111.0249,-168.4688C1123.913,-155.1031 1148.6239,-130.3709 1172,-112 1215.9623,-77.4508 1271.732,-43.2775 1303.5913,-24.5745"/>
<polygon fill="#191970" stroke="#191970" points="1305.4157,-27.5623 1312.2927,-19.5026 1301.8906,-21.5146 1305.4157,-27.5623"/>
</g>
<!-- Node20&#45;&gt;Node11 -->
<g id="edge41" class="edge">
<title>Node20&#45;&gt;Node11</title>
<path fill="none" stroke="#191970" d="M1136.0357,-169.8744C1139.3927,-169.1905 1142.7563,-168.5511 1146,-168 1215.8958,-156.1258 1407.3216,-175.8901 1463,-132 1477.0231,-120.9459 1482.8562,-100.9391 1485.2805,-85.8408"/>
<polygon fill="#191970" stroke="#191970" points="1488.7543,-86.2673 1486.5116,-75.9126 1481.8075,-85.4058 1488.7543,-86.2673"/>
</g>
<!-- Node20&#45;&gt;Node16 -->
<g id="edge39" class="edge">
<title>Node20&#45;&gt;Node16</title>
<path fill="none" stroke="#191970" d="M1131.5679,-168.3733C1160.9489,-158.8073 1206.0632,-144.119 1237.6236,-133.8435"/>
<polygon fill="#191970" stroke="#191970" points="1238.932,-137.0984 1247.3571,-130.6744 1236.7648,-130.4423 1238.932,-137.0984"/>
</g>
<!-- Node20&#45;&gt;Node18 -->
<g id="edge42" class="edge">
<title>Node20&#45;&gt;Node18</title>
<path fill="none" stroke="#191970" d="M1136.0289,-169.8335C1139.3872,-169.1579 1142.7531,-168.5316 1146,-168 1302.5036,-142.3789 1345.1485,-161.3282 1501,-132 1502.255,-131.7638 1503.5299,-131.5048 1504.8142,-131.2279"/>
<polygon fill="#191970" stroke="#191970" points="1505.7775,-134.5959 1514.6699,-128.836 1504.1265,-127.7933 1505.7775,-134.5959"/>
</g>
<!-- Node20&#45;&gt;Node19 -->
<g id="edge44" class="edge">
<title>Node20&#45;&gt;Node19</title>
<path fill="none" stroke="#191970" d="M1067.5638,-168.5004C1033.4426,-159.0876 981.0194,-144.626 943.7021,-134.3316"/>
<polygon fill="#191970" stroke="#191970" points="944.1758,-130.8316 933.6051,-131.5462 942.3143,-137.5796 944.1758,-130.8316"/>
</g>
<!-- Node20&#45;&gt;Node21 -->
<g id="edge45" class="edge">
<title>Node20&#45;&gt;Node21</title>
<path fill="none" stroke="#191970" d="M1119.9412,-168.2455C1136.04,-159.4928 1159.8879,-146.527 1178.2391,-136.5496"/>
<polygon fill="#191970" stroke="#191970" points="1180.1507,-139.4942 1187.2644,-131.6427 1176.8071,-133.3444 1180.1507,-139.4942"/>
</g>
<!-- Node22&#45;&gt;Node2 -->
<g id="edge48" class="edge">
<title>Node22&#45;&gt;Node2</title>
<path fill="none" stroke="#191970" d="M977.784,-171.142C936.8344,-162.7759 873.4514,-147.7849 855,-132 823.3047,-104.8851 808.1024,-56.306 801.7991,-29.3521"/>
<polygon fill="#191970" stroke="#191970" points="805.2152,-28.5896 799.6807,-19.5553 798.3734,-30.0692 805.2152,-28.5896"/>
</g>
<!-- Node22&#45;&gt;Node3 -->
<g id="edge53" class="edge">
<title>Node22&#45;&gt;Node3</title>
<path fill="none" stroke="#191970" d="M1012.8064,-168.4509C1010.523,-150.184 1005.4944,-109.9553 1002.4622,-85.6976"/>
<polygon fill="#191970" stroke="#191970" points="1005.904,-85.0135 1001.1906,-75.5249 998.9581,-85.8818 1005.904,-85.0135"/>
</g>
<!-- Node22&#45;&gt;Node4 -->
<g id="edge50" class="edge">
<title>Node22&#45;&gt;Node4</title>
<path fill="none" stroke="#191970" d="M977.839,-175.1071C858.9772,-165.5982 480.7746,-135.342 355.0677,-125.2854"/>
<polygon fill="#191970" stroke="#191970" points="355.3233,-121.7948 345.076,-124.4861 354.765,-128.7725 355.3233,-121.7948"/>
</g>
<!-- Node22&#45;&gt;Node7 -->
<g id="edge47" class="edge">
<title>Node22&#45;&gt;Node7</title>
<path fill="none" stroke="#191970" d="M1028.4292,-168.3631C1061.2287,-146.6846 1144.2637,-93.0781 1218,-56 1242.5653,-43.6474 1271.2613,-31.8201 1293.3217,-23.2519"/>
<polygon fill="#191970" stroke="#191970" points="1294.8709,-26.4063 1302.9519,-19.5544 1292.3618,-19.8714 1294.8709,-26.4063"/>
</g>
<!-- Node22&#45;&gt;Node11 -->
<g id="edge51" class="edge">
<title>Node22&#45;&gt;Node11</title>
<path fill="none" stroke="#191970" d="M1050.2765,-169.5401C1053.2197,-168.9754 1056.1546,-168.4525 1059,-168 1140.8038,-154.9915 1356.4366,-170.0724 1430,-132 1450.4883,-121.3964 1466.7807,-100.0331 1476.6136,-84.4754"/>
<polygon fill="#191970" stroke="#191970" points="1479.7421,-86.0636 1481.8809,-75.6869 1473.7379,-82.465 1479.7421,-86.0636"/>
</g>
<!-- Node22&#45;&gt;Node16 -->
<g id="edge49" class="edge">
<title>Node22&#45;&gt;Node16</title>
<path fill="none" stroke="#191970" d="M1050.3349,-169.856C1053.265,-169.2205 1056.181,-168.595 1059,-168 1135.7071,-151.8082 1157.9908,-151.2424 1237.3391,-132.2742"/>
<polygon fill="#191970" stroke="#191970" points="1238.407,-135.617 1247.3061,-129.8674 1236.7639,-128.8125 1238.407,-135.617"/>
</g>
<!-- Node22&#45;&gt;Node18 -->
<g id="edge52" class="edge">
<title>Node22&#45;&gt;Node18</title>
<path fill="none" stroke="#191970" d="M1050.2726,-169.5154C1053.2166,-168.9562 1056.1529,-168.4413 1059,-168 1237.1399,-140.3892 1283.8543,-152.0757 1463,-132 1476.5879,-130.4773 1491.54,-128.5119 1504.4259,-126.7271"/>
<polygon fill="#191970" stroke="#191970" points="1505.2736,-130.1424 1514.6888,-125.284 1504.2988,-123.2106 1505.2736,-130.1424"/>
</g>
<!-- Node22&#45;&gt;Node19 -->
<g id="edge54" class="edge">
<title>Node22&#45;&gt;Node19</title>
<path fill="none" stroke="#191970" d="M994.2308,-168.3733C975.8531,-159.4241 948.2688,-145.9917 927.5107,-135.8835"/>
<polygon fill="#191970" stroke="#191970" points="929.0343,-132.7325 918.5112,-131.5011 925.9696,-139.026 929.0343,-132.7325"/>
</g>
<!-- Node22&#45;&gt;Node21 -->
<g id="edge55" class="edge">
<title>Node22&#45;&gt;Node21</title>
<path fill="none" stroke="#191970" d="M1046.8341,-168.3733C1081.3935,-158.2407 1135.5554,-142.3607 1170.6686,-132.0658"/>
<polygon fill="#191970" stroke="#191970" points="1171.8616,-135.3634 1180.4729,-129.1912 1169.8921,-128.6462 1171.8616,-135.3634"/>
</g>
<!-- Node23&#45;&gt;Node2 -->
<g id="edge57" class="edge">
<title>Node23&#45;&gt;Node2</title>
<path fill="none" stroke="#191970" d="M1615.4459,-114.7395C1610.6141,-113.7591 1605.6852,-112.8126 1601,-112 1304.8949,-60.6454 943.1457,-23.9118 832.0538,-13.2081"/>
<polygon fill="#191970" stroke="#191970" points="832.3844,-9.7238 822.0961,-12.2539 831.7166,-16.6919 832.3844,-9.7238"/>
</g>
<!-- Node23&#45;&gt;Node3 -->
<g id="edge60" class="edge">
<title>Node23&#45;&gt;Node3</title>
<path fill="none" stroke="#191970" d="M1615.4847,-114.4951C1610.6474,-113.5494 1605.7066,-112.6777 1601,-112 1383.9941,-80.7516 1119.6442,-69.8407 1030.7908,-66.9084"/>
<polygon fill="#191970" stroke="#191970" points="1030.7118,-63.4042 1020.6049,-66.5823 1030.4877,-70.4006 1030.7118,-63.4042"/>
</g>
<!-- Node23&#45;&gt;Node7 -->
<g id="edge58" class="edge">
<title>Node23&#45;&gt;Node7</title>
<path fill="none" stroke="#191970" d="M1632.6711,-112.3602C1609.5133,-98.1758 1563.8591,-71.6721 1522,-56 1469.4379,-36.3207 1405.5993,-23.0574 1366.1322,-16.015"/>
<polygon fill="#191970" stroke="#191970" points="1366.6137,-12.5463 1356.161,-14.276 1365.4109,-19.4422 1366.6137,-12.5463"/>
</g>
<!-- Node23&#45;&gt;Node11 -->
<g id="edge59" class="edge">
<title>Node23&#45;&gt;Node11</title>
<path fill="none" stroke="#191970" d="M1620.3231,-112.3733C1593.1825,-102.933 1551.6993,-88.5041 1522.2211,-78.2508"/>
<polygon fill="#191970" stroke="#191970" points="1523.3172,-74.9264 1512.7224,-74.9469 1521.0175,-81.5379 1523.3172,-74.9264"/>
</g>
<!-- Node24&#45;&gt;Node2 -->
<g id="edge62" class="edge">
<title>Node24&#45;&gt;Node2</title>
<path fill="none" stroke="#191970" d="M1356.7054,-112.6205C1307.6506,-98.6501 1211.2544,-72.2785 1128,-56 1020.8899,-35.057 892.4144,-19.9982 832.245,-13.5259"/>
<polygon fill="#191970" stroke="#191970" points="832.4793,-10.0312 822.1651,-12.4535 831.7387,-16.9919 832.4793,-10.0312"/>
</g>
<!-- Node24&#45;&gt;Node3 -->
<g id="edge65" class="edge">
<title>Node24&#45;&gt;Node3</title>
<path fill="none" stroke="#191970" d="M1356.8355,-117.3696C1283.2502,-106.7764 1103.4173,-80.8878 1030.9837,-70.4604"/>
<polygon fill="#191970" stroke="#191970" points="1031.1033,-66.9416 1020.7066,-68.9809 1030.1058,-73.8702 1031.1033,-66.9416"/>
</g>
<!-- Node24&#45;&gt;Node7 -->
<g id="edge63" class="edge">
<title>Node24&#45;&gt;Node7</title>
<path fill="none" stroke="#191970" d="M1383.8844,-112.4509C1373.9214,-93.8533 1351.7635,-52.4919 1338.8552,-28.3964"/>
<polygon fill="#191970" stroke="#191970" points="1341.9101,-26.6869 1334.1026,-19.5249 1335.7397,-29.9925 1341.9101,-26.6869"/>
</g>
<!-- Node24&#45;&gt;Node11 -->
<g id="edge64" class="edge">
<title>Node24&#45;&gt;Node11</title>
<path fill="none" stroke="#191970" d="M1406.0703,-112.2455C1421.247,-103.5731 1443.6621,-90.7645 1461.0563,-80.825"/>
<polygon fill="#191970" stroke="#191970" points="1463.1794,-83.643 1470.1253,-75.6427 1459.7064,-77.5653 1463.1794,-83.643"/>
</g>
<!-- Node27&#45;&gt;Node2 -->
<g id="edge71" class="edge">
<title>Node27&#45;&gt;Node2</title>
<path fill="none" stroke="#191970" d="M1738.7102,-288.6348C1612.7156,-281.8227 1070.3443,-249.3722 914,-188 849.631,-162.7323 825.9153,-142.2209 806,-76 801.475,-60.9539 799.5003,-43.2477 798.6431,-29.9647"/>
<polygon fill="#191970" stroke="#191970" points="802.1213,-29.4273 798.1415,-19.6083 795.1295,-29.766 802.1213,-29.4273"/>
</g>
<!-- Node27&#45;&gt;Node3 -->
<g id="edge76" class="edge">
<title>Node27&#45;&gt;Node3</title>
<path fill="none" stroke="#191970" d="M1777.4212,-280.18C1787.0016,-271.7529 1799.5135,-258.6707 1805,-244 1818.092,-208.9923 1799.6549,-189.3826 1769,-168 1708.5062,-125.804 1676.3788,-157.0316 1607,-132 1588.6765,-125.389 1586.7353,-117.3333 1568,-112 1516.201,-97.2546 1141.5783,-74.313 1030.7841,-67.7864"/>
<polygon fill="#191970" stroke="#191970" points="1030.803,-64.2816 1020.6152,-67.19 1030.393,-71.2696 1030.803,-64.2816"/>
</g>
<!-- Node27&#45;&gt;Node4 -->
<g id="edge73" class="edge">
<title>Node27&#45;&gt;Node4</title>
<path fill="none" stroke="#191970" d="M1738.8236,-289.1397C1596.0426,-284.3916 914.2882,-260.9864 822,-244 714.8743,-224.2827 694.7897,-193.9467 589,-168 507.2415,-147.9474 409.6573,-133.9111 355.4786,-126.971"/>
<polygon fill="#191970" stroke="#191970" points="355.5988,-123.4585 345.2391,-125.6779 354.7218,-130.4033 355.5988,-123.4585"/>
</g>
<!-- Node27&#45;&gt;Node6 -->
<g id="edge77" class="edge">
<title>Node27&#45;&gt;Node6</title>
<path fill="none" stroke="#191970" d="M1758.094,-280.4509C1744.5244,-261.688 1714.1976,-219.7548 1696.8428,-195.758"/>
<polygon fill="#191970" stroke="#191970" points="1699.5848,-193.5768 1690.8885,-187.5249 1693.9127,-197.679 1699.5848,-193.5768"/>
</g>
<!-- Node27&#45;&gt;Node7 -->
<g id="edge70" class="edge">
<title>Node27&#45;&gt;Node7</title>
<path fill="none" stroke="#191970" d="M1791.1377,-285.3859C1832.0591,-277.7294 1908.7762,-261.4995 1930,-244 1957.7738,-221.0998 1975.3222,-199.5554 1958,-168 1899.5621,-61.5452 1493.0028,-22.3105 1366.4883,-12.5981"/>
<polygon fill="#191970" stroke="#191970" points="1366.3892,-9.0809 1356.1555,-11.8232 1365.8657,-16.0613 1366.3892,-9.0809"/>
</g>
<!-- Node27&#45;&gt;Node11 -->
<g id="edge74" class="edge">
<title>Node27&#45;&gt;Node11</title>
<path fill="none" stroke="#191970" d="M1791.1248,-283.9501C1850.1628,-269.0698 1985.3243,-227.5206 1940,-168 1889.0491,-101.0905 1620.2357,-75.4916 1522.5336,-68.3107"/>
<polygon fill="#191970" stroke="#191970" points="1522.778,-64.8194 1512.554,-67.598 1522.2793,-71.8016 1522.778,-64.8194"/>
</g>
<!-- Node27&#45;&gt;Node15 -->
<g id="edge78" class="edge">
<title>Node27&#45;&gt;Node15</title>
<path fill="none" stroke="#191970" d="M1738.9773,-286.4969C1666.2663,-276.7089 1461.079,-249.0876 1381.2971,-238.3477"/>
<polygon fill="#191970" stroke="#191970" points="1381.2762,-234.8134 1370.8987,-236.9479 1380.3423,-241.7508 1381.2762,-234.8134"/>
</g>
<!-- Node27&#45;&gt;Node16 -->
<g id="edge72" class="edge">
<title>Node27&#45;&gt;Node16</title>
<path fill="none" stroke="#191970" d="M1764.4503,-280.4065C1762.5358,-256.8358 1754.0592,-195.9745 1717,-168 1651.2423,-118.3621 1429.8377,-141.5183 1348,-132 1335.8492,-130.5868 1322.6021,-128.8567 1310.7177,-127.2355"/>
<polygon fill="#191970" stroke="#191970" points="1311.0715,-123.7512 1300.6865,-125.8494 1310.1133,-130.6853 1311.0715,-123.7512"/>
</g>
<!-- Node27&#45;&gt;Node18 -->
<g id="edge75" class="edge">
<title>Node27&#45;&gt;Node18</title>
<path fill="none" stroke="#191970" d="M1773.3599,-280.1662C1783.2545,-267.2757 1797.4988,-243.9576 1790,-224 1778.3678,-193.0416 1769.5088,-184.7624 1741,-168 1675.1737,-129.2959 1647.1545,-150.227 1573,-132 1571.7244,-131.6865 1570.4254,-131.36 1569.1146,-131.0245"/>
<polygon fill="#191970" stroke="#191970" points="1569.5934,-127.5303 1559.0299,-128.3442 1567.7953,-134.2955 1569.5934,-127.5303"/>
</g>
<!-- Node28&#45;&gt;Node1 -->
<g id="edge80" class="edge">
<title>Node28&#45;&gt;Node1</title>
<path fill="none" stroke="#191970" d="M1353.3897,-288.3479C1203.9838,-282.7664 735.1261,-263.848 670,-244 634.6637,-233.2308 598.6294,-209.5165 577.0388,-193.6456"/>
<polygon fill="#191970" stroke="#191970" points="579.0737,-190.7966 568.9768,-187.5866 574.8681,-196.3925 579.0737,-190.7966"/>
</g>
<!-- Node28&#45;&gt;Node2 -->
<g id="edge81" class="edge">
<title>Node28&#45;&gt;Node2</title>
<path fill="none" stroke="#191970" d="M1353.4179,-288.5735C1235.3676,-284.5274 921.9302,-271.45 822,-244 767.5666,-229.0476 737.8463,-235.9142 708,-188 672.5746,-131.1293 742.1121,-58.5426 778.1846,-26.4843"/>
<polygon fill="#191970" stroke="#191970" points="780.8803,-28.7795 786.1437,-19.5845 776.2951,-23.4903 780.8803,-28.7795"/>
</g>
<!-- Node28&#45;&gt;Node3 -->
<g id="edge82" class="edge">
<title>Node28&#45;&gt;Node3</title>
<path fill="none" stroke="#191970" d="M1353.2578,-287.6772C1259.8141,-282.4879 1050.1708,-268.4482 983,-244 940.8369,-228.6539 931.9396,-218.4666 899,-188 870.3468,-161.498 831.9489,-143.4961 855,-112 868.58,-93.4448 930.7717,-78.8494 969.1617,-71.4117"/>
<polygon fill="#191970" stroke="#191970" points="970.117,-74.7935 979.2983,-69.5064 968.8238,-67.914 970.117,-74.7935"/>
</g>
<!-- Node28&#45;&gt;Node5 -->
<g id="edge84" class="edge">
<title>Node28&#45;&gt;Node5</title>
<path fill="none" stroke="#191970" d="M1353.2466,-288.4271C1226.4423,-283.8683 859.8149,-269.3364 556,-244 542.2943,-242.857 527.4347,-241.3101 513.8547,-239.7747"/>
<polygon fill="#191970" stroke="#191970" points="514.095,-236.2793 503.7597,-238.6098 513.2925,-243.2332 514.095,-236.2793"/>
</g>
<!-- Node28&#45;&gt;Node6 -->
<g id="edge90" class="edge">
<title>Node28&#45;&gt;Node6</title>
<path fill="none" stroke="#191970" d="M1405.2676,-280.1103C1415.1817,-265.353 1435.951,-237.8283 1461,-224 1534.3322,-183.517 1564.3423,-206.6687 1646,-188 1647.4547,-187.6674 1648.9383,-187.3187 1650.4352,-186.9589"/>
<polygon fill="#191970" stroke="#191970" points="1651.4906,-190.3028 1660.3421,-184.4804 1649.7916,-183.5121 1651.4906,-190.3028"/>
</g>
<!-- Node28&#45;&gt;Node11 -->
<g id="edge85" class="edge">
<title>Node28&#45;&gt;Node11</title>
<path fill="none" stroke="#191970" d="M1419.7088,-280.3524C1439.2258,-271.1951 1469.239,-256.9454 1495,-244 1512.0532,-235.4305 1514.9318,-230.147 1533,-224 1621.8194,-193.7826 1680.5812,-259.7742 1741,-188 1805.1253,-111.8227 1606.7062,-79.6563 1522.6999,-69.6726"/>
<polygon fill="#191970" stroke="#191970" points="1522.9122,-66.1741 1512.5785,-68.5116 1522.1145,-73.1285 1522.9122,-66.1741"/>
</g>
<!-- Node28&#45;&gt;Node13 -->
<g id="edge87" class="edge">
<title>Node28&#45;&gt;Node13</title>
<path fill="none" stroke="#191970" d="M1427.5364,-280.3733C1456.436,-270.624 1501.1078,-255.554 1531.6295,-245.2575"/>
<polygon fill="#191970" stroke="#191970" points="1533.038,-248.4762 1541.3946,-241.9633 1530.8004,-241.8435 1533.038,-248.4762"/>
</g>
<!-- Node28&#45;&gt;Node14 -->
<g id="edge88" class="edge">
<title>Node28&#45;&gt;Node14</title>
<path fill="none" stroke="#191970" d="M1440.9629,-280.4547C1479.1353,-271.737 1537.2976,-258.3681 1596.4499,-244.351"/>
<polygon fill="#191970" stroke="#191970" points="1597.4135,-247.7196 1606.3349,-242.0047 1595.7969,-240.9089 1597.4135,-247.7196"/>
</g>
<!-- Node28&#45;&gt;Node15 -->
<g id="edge91" class="edge">
<title>Node28&#45;&gt;Node15</title>
<path fill="none" stroke="#191970" d="M1390.2907,-280.2455C1383.1927,-272.2958 1372.9916,-260.8706 1364.505,-251.3656"/>
<polygon fill="#191970" stroke="#191970" points="1366.8805,-248.771 1357.6095,-243.6427 1361.6589,-253.4331 1366.8805,-248.771"/>
</g>
<!-- Node28&#45;&gt;Node16 -->
<g id="edge83" class="edge">
<title>Node28&#45;&gt;Node16</title>
<path fill="none" stroke="#191970" d="M1401.9533,-280.326C1408.1026,-258.1042 1419.7545,-202.6643 1395,-168 1384.8353,-153.7661 1342.2984,-139.8354 1310.5133,-131.1014"/>
<polygon fill="#191970" stroke="#191970" points="1311.1909,-127.6596 1300.626,-128.4545 1309.3807,-134.4215 1311.1909,-127.6596"/>
</g>
<!-- Node28&#45;&gt;Node18 -->
<g id="edge89" class="edge">
<title>Node28&#45;&gt;Node18</title>
<path fill="none" stroke="#191970" d="M1412.2028,-280.2779C1434.9141,-263.7284 1480.698,-231.1728 1499,-224 1590.4301,-188.1672 1653.4695,-262.8822 1717,-188 1781.4777,-112.0014 1850.9035,-205.3224 1573,-132 1571.7299,-131.6649 1570.4355,-131.3202 1569.1286,-130.9696"/>
<polygon fill="#191970" stroke="#191970" points="1569.6286,-127.4783 1559.0602,-128.2254 1567.7878,-134.2319 1569.6286,-127.4783"/>
</g>
<!-- Node28&#45;&gt;Node19 -->
<g id="edge86" class="edge">
<title>Node28&#45;&gt;Node19</title>
<path fill="none" stroke="#191970" d="M1353.2482,-286.5707C1244.7441,-277.4999 976.2523,-249.2526 914,-188 901.8524,-176.0475 898.6544,-156.4548 898.1644,-141.715"/>
<polygon fill="#191970" stroke="#191970" points="901.6649,-141.6133 898.2142,-131.5962 894.6649,-141.5788 901.6649,-141.6133"/>
</g>
</g>
</svg>
