<?xml version="1.0" encoding="UTF-8" standalone="no"?>
<!DOCTYPE svg PUBLIC "-//W3C//DTD SVG 1.1//EN"
 "http://www.w3.org/Graphics/SVG/1.1/DTD/svg11.dtd">
<!-- Generated by graphviz version 2.40.1 (20161225.0304)
 -->
<!-- Title: matrix.h Pages: 1 -->
<svg width="1147pt" height="308pt"
 viewBox="0.00 0.00 1147.00 308.00" xmlns="http://www.w3.org/2000/svg" xmlns:xlink="http://www.w3.org/1999/xlink">
<g id="graph0" class="graph" transform="scale(1 1) rotate(0) translate(4 304)">
<title>matrix.h</title>
<polygon fill="#ffffff" stroke="transparent" points="-4,4 -4,-304 1143,-304 1143,4 -4,4"/>
<!-- Node0 -->
<g id="node1" class="node">
<title>Node0</title>
<polygon fill="#bfbfbf" stroke="#000000" points="151,-280.5 151,-299.5 203,-299.5 203,-280.5 151,-280.5"/>
<text text-anchor="middle" x="177" y="-287.5" font-family="Helvetica,sans-Serif" font-size="10.00" fill="#000000">matrix.h</text>
</g>
<!-- Node1 -->
<g id="node2" class="node">
<title>Node1</title>
<polygon fill="#ffffff" stroke="#bfbfbf" points="760,-.5 760,-19.5 814,-19.5 814,-.5 760,-.5"/>
<text text-anchor="middle" x="787" y="-7.5" font-family="Helvetica,sans-Serif" font-size="10.00" fill="#000000">iostream</text>
</g>
<!-- Node0&#45;&gt;Node1 -->
<g id="edge1" class="edge">
<title>Node0&#45;&gt;Node1</title>
<path fill="none" stroke="#191970" d="M203.2301,-289.7771C357.4108,-288.13 1139,-274.9969 1139,-178 1139,-178 1139,-178 1139,-122 1139,-56.457 914.5843,-24.1764 824.1286,-13.8272"/>
<polygon fill="#191970" stroke="#191970" points="824.363,-10.3317 814.0364,-12.7003 823.5862,-17.2885 824.363,-10.3317"/>
</g>
<!-- Node2 -->
<g id="node3" class="node">
<title>Node2</title>
<polygon fill="#ffffff" stroke="#bfbfbf" points="503,-.5 503,-19.5 551,-19.5 551,-.5 503,-.5"/>
<text text-anchor="middle" x="527" y="-7.5" font-family="Helvetica,sans-Serif" font-size="10.00" fill="#000000">stdlib.h</text>
</g>
<!-- Node0&#45;&gt;Node2 -->
<g id="edge2" class="edge">
<title>Node0&#45;&gt;Node2</title>
<path fill="none" stroke="#191970" d="M150.883,-285.8878C101.6475,-276.4905 0,-248.5469 0,-178 0,-178 0,-178 0,-122 0,-40.5356 92.0365,-76.0303 171,-56 286.6331,-26.6679 428.3893,-15.4819 492.546,-11.705"/>
<polygon fill="#191970" stroke="#191970" points="493.0945,-15.1797 502.8814,-11.1218 492.7001,-8.1909 493.0945,-15.1797"/>
</g>
<!-- Node3 -->
<g id="node4" class="node">
<title>Node3</title>
<polygon fill="#ffffff" stroke="#bfbfbf" points="436.5,-112.5 436.5,-131.5 489.5,-131.5 489.5,-112.5 436.5,-112.5"/>
<text text-anchor="middle" x="463" y="-119.5" font-family="Helvetica,sans-Serif" font-size="10.00" fill="#000000">complex</text>
</g>
<!-- Node0&#45;&gt;Node3 -->
<g id="edge3" class="edge">
<title>Node0&#45;&gt;Node3</title>
<path fill="none" stroke="#191970" d="M175.2725,-280.4566C171.7231,-257.5261 166.3261,-198.9435 197,-168 205.0223,-159.9072 354.4235,-137.5554 425.7263,-127.2854"/>
<polygon fill="#191970" stroke="#191970" points="426.6585,-130.6876 436.0601,-125.8029 425.6644,-123.7585 426.6585,-130.6876"/>
</g>
<!-- Node4 -->
<g id="node5" class="node">
<title>Node4</title>
<polygon fill="#ffffff" stroke="#bfbfbf" points="318,-112.5 318,-131.5 380,-131.5 380,-112.5 318,-112.5"/>
<text text-anchor="middle" x="349" y="-119.5" font-family="Helvetica,sans-Serif" font-size="10.00" fill="#000000">complex.h</text>
</g>
<!-- Node0&#45;&gt;Node4 -->
<g id="edge4" class="edge">
<title>Node0&#45;&gt;Node4</title>
<path fill="none" stroke="#191970" d="M171.6813,-280.1984C160.2806,-257.7083 136.5854,-201.743 163,-168 180.6115,-145.5024 258.3376,-132.4851 307.5721,-126.3552"/>
<polygon fill="#191970" stroke="#191970" points="308.1019,-129.8168 317.6139,-125.1507 307.2682,-122.8666 308.1019,-129.8168"/>
</g>
<!-- Node5 -->
<g id="node6" class="node">
<title>Node5</title>
<g id="a_node6"><a xlink:href="$config_8h.html" xlink:title="config.h">
<polygon fill="#ffffff" stroke="#000000" points="555.5,-56.5 555.5,-75.5 606.5,-75.5 606.5,-56.5 555.5,-56.5"/>
<text text-anchor="middle" x="581" y="-63.5" font-family="Helvetica,sans-Serif" font-size="10.00" fill="#000000">config.h</text>
</a>
</g>
</g>
<!-- Node0&#45;&gt;Node5 -->
<g id="edge5" class="edge">
<title>Node0&#45;&gt;Node5</title>
<path fill="none" stroke="#191970" d="M154.234,-280.3999C139.5403,-272.8573 121.6158,-260.8029 113,-244 86.213,-191.7585 77.066,-154.0847 118,-112 147.646,-81.5206 441.7161,-70.0612 545.2021,-66.9528"/>
<polygon fill="#191970" stroke="#191970" points="545.5592,-70.444 555.4528,-66.6537 545.3549,-63.447 545.5592,-70.444"/>
</g>
<!-- Node7 -->
<g id="node8" class="node">
<title>Node7</title>
<polygon fill="#ffffff" stroke="#bfbfbf" points="142,-112.5 142,-131.5 186,-131.5 186,-112.5 142,-112.5"/>
<text text-anchor="middle" x="164" y="-119.5" font-family="Helvetica,sans-Serif" font-size="10.00" fill="#000000">omp.h</text>
</g>
<!-- Node0&#45;&gt;Node7 -->
<g id="edge9" class="edge">
<title>Node0&#45;&gt;Node7</title>
<path fill="none" stroke="#191970" d="M159.9433,-280.377C147.6911,-272.4014 132.1292,-259.8248 125,-244 111.1259,-213.2031 113.3664,-199.7112 125,-168 129.0568,-156.9418 137.0797,-146.7193 144.7994,-138.7335"/>
<polygon fill="#191970" stroke="#191970" points="147.4872,-141.0041 152.26,-131.5451 142.6302,-135.9632 147.4872,-141.0041"/>
</g>
<!-- Node8 -->
<g id="node9" class="node">
<title>Node8</title>
<polygon fill="#ffffff" stroke="#bfbfbf" points="853.5,-56.5 853.5,-75.5 894.5,-75.5 894.5,-56.5 853.5,-56.5"/>
<text text-anchor="middle" x="874" y="-63.5" font-family="Helvetica,sans-Serif" font-size="10.00" fill="#000000">mpi.h</text>
</g>
<!-- Node0&#45;&gt;Node8 -->
<g id="edge10" class="edge">
<title>Node0&#45;&gt;Node8</title>
<path fill="none" stroke="#191970" d="M203.0727,-289.0953C345.1611,-283.9032 1021.9327,-255.7179 1082,-188 1138.2833,-124.5481 975.206,-85.1173 904.7227,-71.428"/>
<polygon fill="#191970" stroke="#191970" points="905.1182,-67.9409 894.6422,-69.5235 903.8186,-74.8192 905.1182,-67.9409"/>
</g>
<!-- Node9 -->
<g id="node10" class="node">
<title>Node9</title>
<polygon fill="#ffffff" stroke="#bfbfbf" points="205.5,-168.5 205.5,-187.5 252.5,-187.5 252.5,-168.5 205.5,-168.5"/>
<text text-anchor="middle" x="229" y="-175.5" font-family="Helvetica,sans-Serif" font-size="10.00" fill="#000000">math.h</text>
</g>
<!-- Node0&#45;&gt;Node9 -->
<g id="edge11" class="edge">
<title>Node0&#45;&gt;Node9</title>
<path fill="none" stroke="#191970" d="M181.4335,-280.4509C190.0297,-261.936 209.1011,-220.8591 220.3092,-196.7187"/>
<polygon fill="#191970" stroke="#191970" points="223.5411,-198.0689 224.5777,-187.5249 217.192,-195.1211 223.5411,-198.0689"/>
</g>
<!-- Node10 -->
<g id="node11" class="node">
<title>Node10</title>
<g id="a_node11"><a xlink:href="$field_8h.html" xlink:title="field.h">
<polygon fill="#ffffff" stroke="#000000" points="563.5,-224.5 563.5,-243.5 606.5,-243.5 606.5,-224.5 563.5,-224.5"/>
<text text-anchor="middle" x="585" y="-231.5" font-family="Helvetica,sans-Serif" font-size="10.00" fill="#000000">field.h</text>
</a>
</g>
</g>
<!-- Node0&#45;&gt;Node10 -->
<g id="edge12" class="edge">
<title>Node0&#45;&gt;Node10</title>
<path fill="none" stroke="#191970" d="M203.1429,-286.4118C274.8695,-276.5669 474.5998,-249.153 552.9122,-238.4042"/>
<polygon fill="#191970" stroke="#191970" points="553.6995,-241.829 563.1307,-237.0017 552.7476,-234.8941 553.6995,-241.829"/>
</g>
<!-- Node5&#45;&gt;Node1 -->
<g id="edge6" class="edge">
<title>Node5&#45;&gt;Node1</title>
<path fill="none" stroke="#191970" d="M606.6735,-59.0208C642.7431,-49.2155 708.6273,-31.3052 749.9891,-20.0612"/>
<polygon fill="#191970" stroke="#191970" points="750.958,-23.4249 759.6897,-17.4242 749.1217,-16.6701 750.958,-23.4249"/>
</g>
<!-- Node5&#45;&gt;Node2 -->
<g id="edge7" class="edge">
<title>Node5&#45;&gt;Node2</title>
<path fill="none" stroke="#191970" d="M571.5939,-56.2455C563.8507,-48.2155 552.688,-36.6394 543.4682,-27.0781"/>
<polygon fill="#191970" stroke="#191970" points="545.7591,-24.4117 536.2983,-19.6427 540.7202,-29.2706 545.7591,-24.4117"/>
</g>
<!-- Node6 -->
<g id="node7" class="node">
<title>Node6</title>
<polygon fill="#ffffff" stroke="#bfbfbf" points="569.5,-.5 569.5,-19.5 618.5,-19.5 618.5,-.5 569.5,-.5"/>
<text text-anchor="middle" x="594" y="-7.5" font-family="Helvetica,sans-Serif" font-size="10.00" fill="#000000">string.h</text>
</g>
<!-- Node5&#45;&gt;Node6 -->
<g id="edge8" class="edge">
<title>Node5&#45;&gt;Node6</title>
<path fill="none" stroke="#191970" d="M583.2644,-56.2455C584.9794,-48.8579 587.3912,-38.4689 589.4944,-29.4087"/>
<polygon fill="#191970" stroke="#191970" points="592.9095,-30.1751 591.7615,-19.6427 586.0908,-28.5922 592.9095,-30.1751"/>
</g>
<!-- Node10&#45;&gt;Node1 -->
<g id="edge13" class="edge">
<title>Node10&#45;&gt;Node1</title>
<path fill="none" stroke="#191970" d="M606.5279,-232.9309C674.775,-229.2841 885.4299,-215.9783 947,-188 981.1065,-172.5015 994.6532,-166.175 1010,-132 1045.3232,-53.3407 896.819,-23.6838 824.5207,-14.05"/>
<polygon fill="#191970" stroke="#191970" points="824.7987,-10.5573 814.4376,-12.7705 823.9174,-17.5016 824.7987,-10.5573"/>
</g>
<!-- Node10&#45;&gt;Node2 -->
<g id="edge14" class="edge">
<title>Node10&#45;&gt;Node2</title>
<path fill="none" stroke="#191970" d="M563.1834,-233.393C513.8856,-231.4165 390.7341,-223.0637 295,-188 278.8961,-182.1018 277.8299,-174.5982 262,-168 201.1082,-142.6191 158.5986,-183.9977 118,-132 69.3449,-69.6837 385.9942,-26.487 492.7414,-13.8347"/>
<polygon fill="#191970" stroke="#191970" points="493.1597,-17.3097 502.6859,-12.6728 492.3472,-10.357 493.1597,-17.3097"/>
</g>
<!-- Node10&#45;&gt;Node3 -->
<g id="edge15" class="edge">
<title>Node10&#45;&gt;Node3</title>
<path fill="none" stroke="#191970" d="M573.2243,-224.3437C562.1562,-215.1802 545.2131,-200.9263 531,-188 513.0932,-171.7144 493.3092,-152.3487 479.72,-138.8221"/>
<polygon fill="#191970" stroke="#191970" points="482.0424,-136.1948 472.4957,-131.6 477.0934,-141.1453 482.0424,-136.1948"/>
</g>
<!-- Node10&#45;&gt;Node5 -->
<g id="edge17" class="edge">
<title>Node10&#45;&gt;Node5</title>
<path fill="none" stroke="#191970" d="M563.1989,-232.2621C518.809,-228.2412 415.1821,-216.3805 333,-188 314.9602,-181.7702 312.9178,-174.5725 295,-168 223.4794,-141.7653 81.9575,-168.5519 133,-112 160.4801,-81.5538 443.8744,-70.1144 545.2138,-66.9782"/>
<polygon fill="#191970" stroke="#191970" points="545.3791,-70.4749 555.2694,-66.676 545.1687,-63.4781 545.3791,-70.4749"/>
</g>
<!-- Node10&#45;&gt;Node7 -->
<g id="edge18" class="edge">
<title>Node10&#45;&gt;Node7</title>
<path fill="none" stroke="#191970" d="M563.2154,-230.8178C524.7371,-224.8438 442.5212,-210.4881 376,-188 356.0329,-181.25 352.8004,-175.2243 333,-168 275.4713,-147.0103 259.058,-148.1951 200,-132 198.7332,-131.6526 197.4416,-131.2976 196.137,-130.9384"/>
<polygon fill="#191970" stroke="#191970" points="196.6495,-127.4488 186.0784,-128.1577 194.7842,-134.1958 196.6495,-127.4488"/>
</g>
<!-- Node10&#45;&gt;Node8 -->
<g id="edge19" class="edge">
<title>Node10&#45;&gt;Node8</title>
<path fill="none" stroke="#191970" d="M606.6004,-231.9337C645.069,-227.6623 727.3774,-215.8265 791,-188 831.0984,-170.4622 851.0907,-170.4481 872,-132 879.6923,-117.8554 879.5459,-99.3648 877.8467,-85.5547"/>
<polygon fill="#191970" stroke="#191970" points="881.2995,-84.9807 876.2712,-75.6551 874.3865,-86.081 881.2995,-84.9807"/>
</g>
<!-- Node10&#45;&gt;Node9 -->
<g id="edge20" class="edge">
<title>Node10&#45;&gt;Node9</title>
<path fill="none" stroke="#191970" d="M563.2612,-231.7187C511.5784,-226.1076 377.4244,-210.4406 267,-188 265.5376,-187.7028 264.0477,-187.3834 262.5456,-187.0477"/>
<polygon fill="#191970" stroke="#191970" points="263.1605,-183.5959 252.6192,-184.6598 261.5232,-190.4017 263.1605,-183.5959"/>
</g>
<!-- Node11 -->
<g id="node12" class="node">
<title>Node11</title>
<polygon fill="#ffffff" stroke="#bfbfbf" points="1013.5,-168.5 1013.5,-187.5 1072.5,-187.5 1072.5,-168.5 1013.5,-168.5"/>
<text text-anchor="middle" x="1043" y="-175.5" font-family="Helvetica,sans-Serif" font-size="10.00" fill="#000000">ccomplex</text>
</g>
<!-- Node10&#45;&gt;Node11 -->
<g id="edge16" class="edge">
<title>Node10&#45;&gt;Node11</title>
<path fill="none" stroke="#191970" d="M606.6689,-232.4593C668.3359,-227.8887 849.9612,-213.1337 999,-188 1000.4484,-187.7557 1001.9206,-187.4936 1003.4054,-187.2176"/>
<polygon fill="#191970" stroke="#191970" points="1004.1543,-190.6371 1013.2685,-185.2351 1002.7748,-183.7744 1004.1543,-190.6371"/>
</g>
<!-- Node12 -->
<g id="node13" class="node">
<title>Node12</title>
<g id="a_node13"><a xlink:href="$mpi__class_8h.html" xlink:title="mpi_class.h">
<polygon fill="#ffffff" stroke="#000000" points="651.5,-112.5 651.5,-131.5 720.5,-131.5 720.5,-112.5 651.5,-112.5"/>
<text text-anchor="middle" x="686" y="-119.5" font-family="Helvetica,sans-Serif" font-size="10.00" fill="#000000">mpi_class.h</text>
</a>
</g>
</g>
<!-- Node10&#45;&gt;Node12 -->
<g id="edge21" class="edge">
<title>Node10&#45;&gt;Node12</title>
<path fill="none" stroke="#191970" d="M606.5309,-231.2957C647.533,-225.6566 734.323,-211.2045 752,-188 766.824,-168.5407 741.2143,-149.0808 717.7028,-136.3877"/>
<polygon fill="#191970" stroke="#191970" points="719.0471,-133.1441 708.5502,-131.7065 715.8595,-139.3762 719.0471,-133.1441"/>
</g>
<!-- Node13 -->
<g id="node14" class="node">
<title>Node13</title>
<g id="a_node14"><a xlink:href="$MV__class_8h.html" xlink:title="MV_class.h">
<polygon fill="#ffffff" stroke="#000000" points="551,-168.5 551,-187.5 619,-187.5 619,-168.5 551,-168.5"/>
<text text-anchor="middle" x="585" y="-175.5" font-family="Helvetica,sans-Serif" font-size="10.00" fill="#000000">MV_class.h</text>
</a>
</g>
</g>
<!-- Node10&#45;&gt;Node13 -->
<g id="edge26" class="edge">
<title>Node10&#45;&gt;Node13</title>
<path fill="none" stroke="#191970" d="M585,-224.2455C585,-216.9382 585,-206.6944 585,-197.7046"/>
<polygon fill="#191970" stroke="#191970" points="588.5001,-197.6426 585,-187.6427 581.5001,-197.6427 588.5001,-197.6426"/>
</g>
<!-- Node14 -->
<g id="node15" class="node">
<title>Node14</title>
<polygon fill="#ffffff" stroke="#bfbfbf" points="507.5,-112.5 507.5,-131.5 556.5,-131.5 556.5,-112.5 507.5,-112.5"/>
<text text-anchor="middle" x="532" y="-119.5" font-family="Helvetica,sans-Serif" font-size="10.00" fill="#000000">random</text>
</g>
<!-- Node10&#45;&gt;Node14 -->
<g id="edge56" class="edge">
<title>Node10&#45;&gt;Node14</title>
<path fill="none" stroke="#191970" d="M572.6648,-224.462C562.6822,-216.0144 549.1479,-202.7581 542,-188 535.0539,-173.6585 532.6846,-155.6828 531.9794,-142.1142"/>
<polygon fill="#191970" stroke="#191970" points="535.4735,-141.8352 531.7146,-131.9296 528.4758,-142.0172 535.4735,-141.8352"/>
</g>
<!-- Node15 -->
<g id="node16" class="node">
<title>Node15</title>
<g id="a_node16"><a xlink:href="$rand__class_8h.html" xlink:title="rand_class.h">
<polygon fill="#ffffff" stroke="#000000" points="385,-168.5 385,-187.5 457,-187.5 457,-168.5 385,-168.5"/>
<text text-anchor="middle" x="421" y="-175.5" font-family="Helvetica,sans-Serif" font-size="10.00" fill="#000000">rand_class.h</text>
</a>
</g>
</g>
<!-- Node10&#45;&gt;Node15 -->
<g id="edge36" class="edge">
<title>Node10&#45;&gt;Node15</title>
<path fill="none" stroke="#191970" d="M563.2221,-226.5636C536.5327,-217.4502 490.8735,-201.8592 458.4952,-190.8033"/>
<polygon fill="#191970" stroke="#191970" points="459.5034,-187.4491 448.9089,-187.5299 457.2414,-194.0736 459.5034,-187.4491"/>
</g>
<!-- Node16 -->
<g id="node17" class="node">
<title>Node16</title>
<g id="a_node17"><a xlink:href="$momenta_8h.html" xlink:title="momenta.h">
<polygon fill="#ffffff" stroke="#000000" points="777.5,-112.5 777.5,-131.5 842.5,-131.5 842.5,-112.5 777.5,-112.5"/>
<text text-anchor="middle" x="810" y="-119.5" font-family="Helvetica,sans-Serif" font-size="10.00" fill="#000000">momenta.h</text>
</a>
</g>
</g>
<!-- Node10&#45;&gt;Node16 -->
<g id="edge46" class="edge">
<title>Node10&#45;&gt;Node16</title>
<path fill="none" stroke="#191970" d="M606.8079,-230.5933C649.478,-223.598 742.1008,-206.6924 768,-188 784.2854,-176.2463 795.7706,-156.0495 802.5673,-141.0855"/>
<polygon fill="#191970" stroke="#191970" points="805.8523,-142.3033 806.525,-131.7298 799.4055,-139.576 805.8523,-142.3033"/>
</g>
<!-- Node17 -->
<g id="node18" class="node">
<title>Node17</title>
<g id="a_node18"><a xlink:href="$positions_8h.html" xlink:title="positions.h">
<polygon fill="#ffffff" stroke="#000000" points="937,-112.5 937,-131.5 1001,-131.5 1001,-112.5 937,-112.5"/>
<text text-anchor="middle" x="969" y="-119.5" font-family="Helvetica,sans-Serif" font-size="10.00" fill="#000000">positions.h</text>
</a>
</g>
</g>
<!-- Node10&#45;&gt;Node17 -->
<g id="edge51" class="edge">
<title>Node10&#45;&gt;Node17</title>
<path fill="none" stroke="#191970" d="M606.7756,-233.2921C672.7913,-230.8012 869.4399,-220.7412 923,-188 940.9867,-177.0048 953.7543,-156.0317 961.2046,-140.6689"/>
<polygon fill="#191970" stroke="#191970" points="964.3994,-142.0982 965.334,-131.5447 958.0221,-139.212 964.3994,-142.0982"/>
</g>
<!-- Node18 -->
<g id="node19" class="node">
<title>Node18</title>
<polygon fill="#ffffff" stroke="#bfbfbf" points="637,-168.5 637,-187.5 681,-187.5 681,-168.5 637,-168.5"/>
<text text-anchor="middle" x="659" y="-175.5" font-family="Helvetica,sans-Serif" font-size="10.00" fill="#000000">time.h</text>
</g>
<!-- Node10&#45;&gt;Node18 -->
<g id="edge57" class="edge">
<title>Node10&#45;&gt;Node18</title>
<path fill="none" stroke="#191970" d="M597.8898,-224.2455C608.9254,-215.8943 625.0292,-203.7076 637.9353,-193.9408"/>
<polygon fill="#191970" stroke="#191970" points="640.3959,-196.4681 646.2579,-187.6427 636.1717,-190.8862 640.3959,-196.4681"/>
</g>
<!-- Node19 -->
<g id="node20" class="node">
<title>Node19</title>
<polygon fill="#ffffff" stroke="#bfbfbf" points="699,-168.5 699,-187.5 743,-187.5 743,-168.5 699,-168.5"/>
<text text-anchor="middle" x="721" y="-175.5" font-family="Helvetica,sans-Serif" font-size="10.00" fill="#000000">thread</text>
</g>
<!-- Node10&#45;&gt;Node19 -->
<g id="edge58" class="edge">
<title>Node10&#45;&gt;Node19</title>
<path fill="none" stroke="#191970" d="M606.5496,-225.1266C628.7665,-215.9785 663.6552,-201.6126 689.076,-191.1452"/>
<polygon fill="#191970" stroke="#191970" points="690.733,-194.2481 698.6471,-187.2041 688.0677,-187.7753 690.733,-194.2481"/>
</g>
<!-- Node12&#45;&gt;Node1 -->
<g id="edge23" class="edge">
<title>Node12&#45;&gt;Node1</title>
<path fill="none" stroke="#191970" d="M692.3889,-112.1135C701.2248,-98.7604 718.0159,-74.5042 735,-56 744.8059,-45.3165 756.8802,-34.5147 766.9249,-26.0655"/>
<polygon fill="#191970" stroke="#191970" points="769.3046,-28.6397 774.7907,-19.5758 764.8497,-23.2402 769.3046,-28.6397"/>
</g>
<!-- Node12&#45;&gt;Node2 -->
<g id="edge22" class="edge">
<title>Node12&#45;&gt;Node2</title>
<path fill="none" stroke="#191970" d="M677.2205,-112.14C664.624,-98.3837 640.2574,-73.1904 616,-56 598.1592,-43.3568 576.3772,-32.0378 558.8277,-23.7914"/>
<polygon fill="#191970" stroke="#191970" points="560.1135,-20.5305 549.5653,-19.5374 557.1919,-26.8917 560.1135,-20.5305"/>
</g>
<!-- Node12&#45;&gt;Node5 -->
<g id="edge24" class="edge">
<title>Node12&#45;&gt;Node5</title>
<path fill="none" stroke="#191970" d="M667.7104,-112.2455C651.2238,-103.4527 626.7648,-90.4079 608.0235,-80.4125"/>
<polygon fill="#191970" stroke="#191970" points="609.5506,-77.2604 599.08,-75.6427 606.2565,-83.4368 609.5506,-77.2604"/>
</g>
<!-- Node12&#45;&gt;Node8 -->
<g id="edge25" class="edge">
<title>Node12&#45;&gt;Node8</title>
<path fill="none" stroke="#191970" d="M718.3184,-112.3733C753.4258,-101.9157 809.0852,-85.3363 843.4737,-75.0929"/>
<polygon fill="#191970" stroke="#191970" points="844.8321,-78.3404 853.4168,-72.1312 842.8337,-71.6317 844.8321,-78.3404"/>
</g>
<!-- Node13&#45;&gt;Node1 -->
<g id="edge27" class="edge">
<title>Node13&#45;&gt;Node1</title>
<path fill="none" stroke="#191970" d="M619.1834,-168.7149C659.3071,-157.5762 721.4905,-139.4703 730,-132 761.1915,-104.6175 776.5343,-56.5382 783.0091,-29.6389"/>
<polygon fill="#191970" stroke="#191970" points="786.4345,-30.3587 785.1986,-19.8362 779.6028,-28.8328 786.4345,-30.3587"/>
</g>
<!-- Node13&#45;&gt;Node2 -->
<g id="edge28" class="edge">
<title>Node13&#45;&gt;Node2</title>
<path fill="none" stroke="#191970" d="M582.8906,-168.3952C579.8815,-155.3613 573.8417,-131.4655 566,-112 559.2397,-95.2188 553.877,-92.7336 547,-76 540.7422,-60.773 535.4369,-42.8631 531.8662,-29.545"/>
<polygon fill="#191970" stroke="#191970" points="535.1857,-28.4017 529.292,-19.5975 528.409,-30.1555 535.1857,-28.4017"/>
</g>
<!-- Node13&#45;&gt;Node3 -->
<g id="edge29" class="edge">
<title>Node13&#45;&gt;Node3</title>
<path fill="none" stroke="#191970" d="M564.0275,-168.3733C544.4433,-159.3838 515.0039,-145.8706 492.949,-135.7471"/>
<polygon fill="#191970" stroke="#191970" points="494.2473,-132.4919 483.6989,-131.5011 491.3271,-138.8538 494.2473,-132.4919"/>
</g>
<!-- Node13&#45;&gt;Node4 -->
<g id="edge30" class="edge">
<title>Node13&#45;&gt;Node4</title>
<path fill="none" stroke="#191970" d="M550.9356,-169.9169C508.3322,-159.8076 435.463,-142.5166 389.8905,-131.7028"/>
<polygon fill="#191970" stroke="#191970" points="390.5818,-128.2697 380.0438,-129.3663 388.9656,-135.0806 390.5818,-128.2697"/>
</g>
<!-- Node13&#45;&gt;Node5 -->
<g id="edge31" class="edge">
<title>Node13&#45;&gt;Node5</title>
<path fill="none" stroke="#191970" d="M589.5522,-168.1878C594.9532,-155.3206 602.779,-132.0277 599,-112 597.2559,-102.7566 593.7019,-92.9893 590.2091,-84.844"/>
<polygon fill="#191970" stroke="#191970" points="593.3024,-83.1923 585.9585,-75.5556 586.9372,-86.1052 593.3024,-83.1923"/>
</g>
<!-- Node13&#45;&gt;Node7 -->
<g id="edge32" class="edge">
<title>Node13&#45;&gt;Node7</title>
<path fill="none" stroke="#191970" d="M550.9044,-173.4647C471.2597,-162.8706 273.8741,-136.6151 196.1681,-126.2789"/>
<polygon fill="#191970" stroke="#191970" points="196.3967,-122.7786 186.0225,-124.9294 195.4736,-129.7174 196.3967,-122.7786"/>
</g>
<!-- Node13&#45;&gt;Node8 -->
<g id="edge33" class="edge">
<title>Node13&#45;&gt;Node8</title>
<path fill="none" stroke="#191970" d="M619.2216,-169.8166C622.1852,-169.1763 625.1421,-168.5613 628,-168 726.943,-148.5684 775.152,-197.2817 852,-132 865.3503,-120.659 870.635,-100.985 872.708,-86.0597"/>
<polygon fill="#191970" stroke="#191970" points="876.2227,-86.0902 873.7476,-75.7886 869.2582,-85.3853 876.2227,-86.0902"/>
</g>
<!-- Node13&#45;&gt;Node12 -->
<g id="edge34" class="edge">
<title>Node13&#45;&gt;Node12</title>
<path fill="none" stroke="#191970" d="M602.5929,-168.2455C618.379,-159.4928 641.7639,-146.527 659.7587,-136.5496"/>
<polygon fill="#191970" stroke="#191970" points="661.5603,-139.5528 668.6087,-131.6427 658.1659,-133.4308 661.5603,-139.5528"/>
</g>
<!-- Node13&#45;&gt;Node14 -->
<g id="edge35" class="edge">
<title>Node13&#45;&gt;Node14</title>
<path fill="none" stroke="#191970" d="M575.7681,-168.2455C568.1683,-160.2155 557.2123,-148.6394 548.1632,-139.0781"/>
<polygon fill="#191970" stroke="#191970" points="550.542,-136.4998 541.1261,-131.6427 545.4579,-141.3115 550.542,-136.4998"/>
</g>
<!-- Node15&#45;&gt;Node1 -->
<g id="edge37" class="edge">
<title>Node15&#45;&gt;Node1</title>
<path fill="none" stroke="#191970" d="M384.7677,-170.7996C342.9726,-160.9425 283.1234,-141.0883 309,-112 354.655,-60.6785 549.3208,-92.4971 616,-76 667.5916,-63.2357 724.6481,-39.0351 758.0805,-23.753"/>
<polygon fill="#191970" stroke="#191970" points="759.6545,-26.8813 767.2625,-19.5077 756.7168,-20.5276 759.6545,-26.8813"/>
</g>
<!-- Node15&#45;&gt;Node2 -->
<g id="edge38" class="edge">
<title>Node15&#45;&gt;Node2</title>
<path fill="none" stroke="#191970" d="M384.831,-169.5908C341.6124,-159.1811 274.1888,-141.65 267,-132 261.6897,-124.8717 261.9922,-119.344 267,-112 293.3942,-73.2927 428.0895,-34.9022 492.5437,-18.4057"/>
<polygon fill="#191970" stroke="#191970" points="493.7869,-21.7016 502.6244,-15.8579 492.0716,-14.915 493.7869,-21.7016"/>
</g>
<!-- Node15&#45;&gt;Node3 -->
<g id="edge39" class="edge">
<title>Node15&#45;&gt;Node3</title>
<path fill="none" stroke="#191970" d="M428.3158,-168.2455C434.2179,-160.3761 442.6742,-149.101 449.7594,-139.6542"/>
<polygon fill="#191970" stroke="#191970" points="452.568,-141.7427 455.768,-131.6427 446.9679,-137.5427 452.568,-141.7427"/>
</g>
<!-- Node15&#45;&gt;Node4 -->
<g id="edge40" class="edge">
<title>Node15&#45;&gt;Node4</title>
<path fill="none" stroke="#191970" d="M408.4586,-168.2455C397.7213,-159.8943 382.0527,-147.7076 369.4953,-137.9408"/>
<polygon fill="#191970" stroke="#191970" points="371.4401,-135.0194 361.3977,-131.6427 367.1425,-140.5449 371.4401,-135.0194"/>
</g>
<!-- Node15&#45;&gt;Node5 -->
<g id="edge41" class="edge">
<title>Node15&#45;&gt;Node5</title>
<path fill="none" stroke="#191970" d="M384.7872,-168.8868C344.033,-158.2688 282.6095,-141.031 276,-132 270.7502,-124.827 270.2022,-118.7378 276,-112 293.3885,-91.7923 468.2733,-75.1889 545.111,-68.8096"/>
<polygon fill="#191970" stroke="#191970" points="545.5945,-72.2819 555.2758,-67.978 545.0236,-65.3052 545.5945,-72.2819"/>
</g>
<!-- Node15&#45;&gt;Node7 -->
<g id="edge42" class="edge">
<title>Node15&#45;&gt;Node7</title>
<path fill="none" stroke="#191970" d="M384.9649,-170.7995C331.7367,-160.1123 234.6573,-140.4107 200,-132 198.7235,-131.6902 197.4237,-131.3669 196.1123,-131.034"/>
<polygon fill="#191970" stroke="#191970" points="196.5875,-127.5394 186.0248,-128.3649 194.7968,-134.3065 196.5875,-127.5394"/>
</g>
<!-- Node15&#45;&gt;Node8 -->
<g id="edge43" class="edge">
<title>Node15&#45;&gt;Node8</title>
<path fill="none" stroke="#191970" d="M418.694,-168.3557C415.8767,-153.919 413.1498,-126.8074 428,-112 457.3577,-82.727 746.723,-70.3186 843.0156,-66.9784"/>
<polygon fill="#191970" stroke="#191970" points="843.3864,-70.468 853.2625,-66.6322 843.15,-63.4719 843.3864,-70.468"/>
</g>
<!-- Node15&#45;&gt;Node12 -->
<g id="edge44" class="edge">
<title>Node15&#45;&gt;Node12</title>
<path fill="none" stroke="#191970" d="M457.0149,-170.3893C504.909,-160.2683 589.5377,-142.3845 641.4105,-131.4227"/>
<polygon fill="#191970" stroke="#191970" points="642.2674,-134.819 651.3277,-129.327 640.8201,-127.9702 642.2674,-134.819"/>
</g>
<!-- Node15&#45;&gt;Node14 -->
<g id="edge45" class="edge">
<title>Node15&#45;&gt;Node14</title>
<path fill="none" stroke="#191970" d="M440.0816,-168.3733C457.7402,-159.4644 484.2053,-146.1127 504.2098,-136.0203"/>
<polygon fill="#191970" stroke="#191970" points="505.8158,-139.1303 513.1674,-131.5011 502.6628,-132.8806 505.8158,-139.1303"/>
</g>
<!-- Node16&#45;&gt;Node1 -->
<g id="edge48" class="edge">
<title>Node16&#45;&gt;Node1</title>
<path fill="none" stroke="#191970" d="M809.1457,-112.0736C807.9141,-99.0829 805.3025,-75.6567 801,-56 799.0639,-47.1547 796.2551,-37.5467 793.6607,-29.4104"/>
<polygon fill="#191970" stroke="#191970" points="796.9287,-28.1449 790.4651,-19.7501 790.2829,-30.3434 796.9287,-28.1449"/>
</g>
<!-- Node16&#45;&gt;Node2 -->
<g id="edge47" class="edge">
<title>Node16&#45;&gt;Node2</title>
<path fill="none" stroke="#191970" d="M785.8716,-112.4509C735.3289,-92.4482 618.2466,-46.1117 560.4741,-23.2477"/>
<polygon fill="#191970" stroke="#191970" points="561.6536,-19.9504 551.0673,-19.5249 559.0777,-26.4592 561.6536,-19.9504"/>
</g>
<!-- Node16&#45;&gt;Node5 -->
<g id="edge49" class="edge">
<title>Node16&#45;&gt;Node5</title>
<path fill="none" stroke="#191970" d="M777.1899,-113.9766C734.5981,-103.5611 660.5395,-85.4507 616.616,-74.7096"/>
<polygon fill="#191970" stroke="#191970" points="617.21,-71.2518 606.6648,-72.2761 615.5472,-78.0514 617.21,-71.2518"/>
</g>
<!-- Node16&#45;&gt;Node8 -->
<g id="edge50" class="edge">
<title>Node16&#45;&gt;Node8</title>
<path fill="none" stroke="#191970" d="M821.1479,-112.2455C830.5087,-104.0549 844.0858,-92.1749 855.1349,-82.5069"/>
<polygon fill="#191970" stroke="#191970" points="857.7588,-84.8618 862.9798,-75.6427 853.1492,-79.5937 857.7588,-84.8618"/>
</g>
<!-- Node17&#45;&gt;Node1 -->
<g id="edge53" class="edge">
<title>Node17&#45;&gt;Node1</title>
<path fill="none" stroke="#191970" d="M967.2498,-112.426C964.128,-98.0812 956.2368,-71.0879 939,-56 921.8605,-40.9972 863.5228,-26.1977 824.3098,-17.5893"/>
<polygon fill="#191970" stroke="#191970" points="824.8112,-14.1172 814.2986,-15.4341 823.338,-20.9604 824.8112,-14.1172"/>
</g>
<!-- Node17&#45;&gt;Node2 -->
<g id="edge52" class="edge">
<title>Node17&#45;&gt;Node2</title>
<path fill="none" stroke="#191970" d="M962.7941,-112.3214C952.5758,-97.3178 930.6608,-68.8393 904,-56 765.8981,10.507 711.3675,-49.7479 561,-20 560.8981,-19.9798 560.7962,-19.9595 560.694,-19.939"/>
<polygon fill="#191970" stroke="#191970" points="561.549,-16.5448 551.0118,-17.6485 559.9374,-23.3567 561.549,-16.5448"/>
</g>
<!-- Node17&#45;&gt;Node5 -->
<g id="edge54" class="edge">
<title>Node17&#45;&gt;Node5</title>
<path fill="none" stroke="#191970" d="M936.9182,-117.3696C865.1281,-107.0082 691.9506,-82.0135 616.7984,-71.1668"/>
<polygon fill="#191970" stroke="#191970" points="617.2629,-67.6976 606.8654,-69.7332 616.2629,-74.6258 617.2629,-67.6976"/>
</g>
<!-- Node17&#45;&gt;Node8 -->
<g id="edge55" class="edge">
<title>Node17&#45;&gt;Node8</title>
<path fill="none" stroke="#191970" d="M952.4523,-112.2455C937.7401,-103.5731 916.0112,-90.7645 899.1495,-80.825"/>
<polygon fill="#191970" stroke="#191970" points="900.7502,-77.7057 890.3581,-75.6427 897.1954,-83.736 900.7502,-77.7057"/>
</g>
</g>
</svg>
