<?xml version="1.0" encoding="UTF-8" standalone="no"?>
<!DOCTYPE svg PUBLIC "-//W3C//DTD SVG 1.1//EN"
 "http://www.w3.org/Graphics/SVG/1.1/DTD/svg11.dtd">
<!-- Generated by graphviz version 2.40.1 (20161225.0304)
 -->
<!-- Title: matrix.h Pages: 1 -->
<svg width="505pt" height="106pt"
 viewBox="0.00 0.00 505.00 106.00" xmlns="http://www.w3.org/2000/svg" xmlns:xlink="http://www.w3.org/1999/xlink">
<g id="graph0" class="graph" transform="scale(1 1) rotate(0) translate(4 102)">
<title>matrix.h</title>
<polygon fill="#ffffff" stroke="transparent" points="-4,4 -4,-102 501,-102 501,4 -4,4"/>
<!-- Node20 -->
<g id="node1" class="node">
<title>Node20</title>
<polygon fill="#bfbfbf" stroke="#000000" points="195,-78.5 195,-97.5 247,-97.5 247,-78.5 195,-78.5"/>
<text text-anchor="middle" x="221" y="-85.5" font-family="Helvetica,sans-Serif" font-size="10.00" fill="#000000">matrix.h</text>
</g>
<!-- Node21 -->
<g id="node2" class="node">
<title>Node21</title>
<g id="a_node2"><a xlink:href="$main__explicit_8cpp.html" xlink:title="main_explicit.cpp">
<polygon fill="#ffffff" stroke="#000000" points="0,-11.5 0,-30.5 92,-30.5 92,-11.5 0,-11.5"/>
<text text-anchor="middle" x="46" y="-18.5" font-family="Helvetica,sans-Serif" font-size="10.00" fill="#000000">main_explicit.cpp</text>
</a>
</g>
</g>
<!-- Node20&#45;&gt;Node21 -->
<g id="edge1" class="edge">
<title>Node20&#45;&gt;Node21</title>
<path fill="none" stroke="#191970" d="M186.3883,-74.7487C152.3706,-61.7247 101.284,-42.1659 71.0267,-30.5817"/>
<polygon fill="#191970" stroke="#191970" points="185.3364,-78.0936 195.9268,-78.4005 187.8393,-71.5564 185.3364,-78.0936"/>
</g>
<!-- Node22 -->
<g id="node3" class="node">
<title>Node22</title>
<g id="a_node3"><a xlink:href="$main__omp_8cpp.html" xlink:title="main_omp.cpp">
<polygon fill="#ffffff" stroke="#000000" points="110,-11.5 110,-30.5 190,-30.5 190,-11.5 110,-11.5"/>
<text text-anchor="middle" x="150" y="-18.5" font-family="Helvetica,sans-Serif" font-size="10.00" fill="#000000">main_omp.cpp</text>
</a>
</g>
</g>
<!-- Node20&#45;&gt;Node22 -->
<g id="edge2" class="edge">
<title>Node20&#45;&gt;Node22</title>
<path fill="none" stroke="#191970" d="M203.4514,-71.44C189.832,-58.5879 171.4285,-41.2212 160.1537,-30.5817"/>
<polygon fill="#191970" stroke="#191970" points="201.1523,-74.0828 210.8274,-78.4005 205.9566,-68.9917 201.1523,-74.0828"/>
</g>
<!-- Node23 -->
<g id="node4" class="node">
<title>Node23</title>
<g id="a_node4"><a xlink:href="$test__noise__vectors__and__cholesky__decomposition_8cpp.html" xlink:title="tests/test_noise_vectors\l_and_cholesky_decomposition.cpp">
<polygon fill="#ffffff" stroke="#000000" points="208.5,-6 208.5,-36 377.5,-36 377.5,-6 208.5,-6"/>
<text text-anchor="start" x="216.5" y="-24" font-family="Helvetica,sans-Serif" font-size="10.00" fill="#000000">tests/test_noise_vectors</text>
<text text-anchor="middle" x="293" y="-13" font-family="Helvetica,sans-Serif" font-size="10.00" fill="#000000">_and_cholesky_decomposition.cpp</text>
</a>
</g>
</g>
<!-- Node20&#45;&gt;Node23 -->
<g id="edge3" class="edge">
<title>Node20&#45;&gt;Node23</title>
<path fill="none" stroke="#191970" d="M238.743,-71.4892C250.4023,-60.6395 265.5361,-46.5566 276.8572,-36.0218"/>
<polygon fill="#191970" stroke="#191970" points="236.2522,-69.0259 231.3158,-78.4005 241.0209,-74.1504 236.2522,-69.0259"/>
</g>
<!-- Node24 -->
<g id="node5" class="node">
<title>Node24</title>
<g id="a_node5"><a xlink:href="$test__position__evolution__coupling__noise_8cpp.html" xlink:title="tests/test_position\l_evolution_coupling\l_noise.cpp">
<polygon fill="#ffffff" stroke="#000000" points="395,-.5 395,-41.5 497,-41.5 497,-.5 395,-.5"/>
<text text-anchor="start" x="403" y="-29.5" font-family="Helvetica,sans-Serif" font-size="10.00" fill="#000000">tests/test_position</text>
<text text-anchor="start" x="403" y="-18.5" font-family="Helvetica,sans-Serif" font-size="10.00" fill="#000000">_evolution_coupling</text>
<text text-anchor="middle" x="446" y="-7.5" font-family="Helvetica,sans-Serif" font-size="10.00" fill="#000000">_noise.cpp</text>
</a>
</g>
</g>
<!-- Node20&#45;&gt;Node24 -->
<g id="edge4" class="edge">
<title>Node20&#45;&gt;Node24</title>
<path fill="none" stroke="#191970" d="M256.9183,-78.8415C290.6884,-70.0435 342.5522,-56.0488 387,-42 389.5918,-41.1808 392.24,-40.3214 394.9089,-39.4373"/>
<polygon fill="#191970" stroke="#191970" points="255.8494,-75.5028 247.0471,-81.3994 257.6054,-82.279 255.8494,-75.5028"/>
</g>
</g>
</svg>
