<?xml version="1.0" encoding="UTF-8" standalone="no"?>
<!DOCTYPE svg PUBLIC "-//W3C//DTD SVG 1.1//EN"
 "http://www.w3.org/Graphics/SVG/1.1/DTD/svg11.dtd">
<!-- Generated by graphviz version 2.40.1 (20161225.0304)
 -->
<!-- Title: matrix.h Pages: 1 -->
<svg width="407pt" height="106pt"
 viewBox="0.00 0.00 407.00 106.00" xmlns="http://www.w3.org/2000/svg" xmlns:xlink="http://www.w3.org/1999/xlink">
<g id="graph0" class="graph" transform="scale(1 1) rotate(0) translate(4 102)">
<title>matrix.h</title>
<polygon fill="#ffffff" stroke="transparent" points="-4,4 -4,-102 403,-102 403,4 -4,4"/>
<!-- Node20 -->
<g id="node1" class="node">
<title>Node20</title>
<polygon fill="#bfbfbf" stroke="#000000" points="169,-78.5 169,-97.5 221,-97.5 221,-78.5 169,-78.5"/>
<text text-anchor="middle" x="195" y="-85.5" font-family="Helvetica,sans-Serif" font-size="10.00" fill="#000000">matrix.h</text>
</g>
<!-- Node21 -->
<g id="node2" class="node">
<title>Node21</title>
<g id="a_node2"><a xlink:href="main__explicit_8cpp.html" target="_top" xlink:title="main_explicit.cpp">
<polygon fill="#ffffff" stroke="#000000" points="0,-11.5 0,-30.5 92,-30.5 92,-11.5 0,-11.5"/>
<text text-anchor="middle" x="46" y="-18.5" font-family="Helvetica,sans-Serif" font-size="10.00" fill="#000000">main_explicit.cpp</text>
</a>
</g>
</g>
<!-- Node20&#45;&gt;Node21 -->
<g id="edge1" class="edge">
<title>Node20&#45;&gt;Node21</title>
<path fill="none" stroke="#191970" d="M164.4047,-74.2424C135.4498,-61.2224 92.7387,-42.0167 67.3085,-30.5817"/>
<polygon fill="#191970" stroke="#191970" points="163.0962,-77.4915 173.6519,-78.4005 165.967,-71.1072 163.0962,-77.4915"/>
</g>
<!-- Node22 -->
<g id="node3" class="node">
<title>Node22</title>
<g id="a_node3"><a xlink:href="test__noise__vectors__and__cholesky__decomposition_8cpp.html" target="_top" xlink:title="tests/test_noise_vectors\l_and_cholesky_decomposition.cpp">
<polygon fill="#ffffff" stroke="#000000" points="110.5,-6 110.5,-36 279.5,-36 279.5,-6 110.5,-6"/>
<text text-anchor="start" x="118.5" y="-24" font-family="Helvetica,sans-Serif" font-size="10.00" fill="#000000">tests/test_noise_vectors</text>
<text text-anchor="middle" x="195" y="-13" font-family="Helvetica,sans-Serif" font-size="10.00" fill="#000000">_and_cholesky_decomposition.cpp</text>
</a>
</g>
</g>
<!-- Node20&#45;&gt;Node22 -->
<g id="edge2" class="edge">
<title>Node20&#45;&gt;Node22</title>
<path fill="none" stroke="#191970" d="M195,-68.2758C195,-57.9641 195,-45.5437 195,-36.0218"/>
<polygon fill="#191970" stroke="#191970" points="191.5001,-68.4005 195,-78.4005 198.5001,-68.4006 191.5001,-68.4005"/>
</g>
<!-- Node23 -->
<g id="node4" class="node">
<title>Node23</title>
<g id="a_node4"><a xlink:href="test__position__evolution__coupling__noise_8cpp.html" target="_top" xlink:title="tests/test_position\l_evolution_coupling\l_noise.cpp">
<polygon fill="#ffffff" stroke="#000000" points="297,-.5 297,-41.5 399,-41.5 399,-.5 297,-.5"/>
<text text-anchor="start" x="305" y="-29.5" font-family="Helvetica,sans-Serif" font-size="10.00" fill="#000000">tests/test_position</text>
<text text-anchor="start" x="305" y="-18.5" font-family="Helvetica,sans-Serif" font-size="10.00" fill="#000000">_evolution_coupling</text>
<text text-anchor="middle" x="348" y="-7.5" font-family="Helvetica,sans-Serif" font-size="10.00" fill="#000000">_noise.cpp</text>
</a>
</g>
</g>
<!-- Node20&#45;&gt;Node23 -->
<g id="edge3" class="edge">
<title>Node20&#45;&gt;Node23</title>
<path fill="none" stroke="#191970" d="M226.223,-74.3272C247.7019,-64.9214 276.6197,-52.2581 300.8857,-41.6318"/>
<polygon fill="#191970" stroke="#191970" points="224.6774,-71.1831 216.9212,-78.4005 227.4854,-77.5952 224.6774,-71.1831"/>
</g>
</g>
</svg>
