<?xml version="1.0" encoding="UTF-8" standalone="no"?>
<!DOCTYPE svg PUBLIC "-//W3C//DTD SVG 1.1//EN"
 "http://www.w3.org/Graphics/SVG/1.1/DTD/svg11.dtd">
<!-- Generated by graphviz version 2.40.1 (20161225.0304)
 -->
<!-- Title: momenta.h Pages: 1 -->
<!--zoomable 218 -->
<svg id="main" version="1.1" xmlns="http://www.w3.org/2000/svg" xmlns:xlink="http://www.w3.org/1999/xlink" xml:space="preserve" onload="init(evt)">
<style type="text/css"><![CDATA[
.edge:hover path { stroke: red; }
.edge:hover polygon { stroke: red; fill: red; }
]]></style>
<script type="text/javascript"><![CDATA[
var edges = document.getElementsByTagName('g');
if (edges && edges.length) {
  for (var i=0;i<edges.length;i++) {
    if (edges[i].id.substr(0,4)=='edge') {
      edges[i].setAttribute('class','edge');
    }
  }
}
]]></script>
        <defs>
                <circle id="rim" cx="0" cy="0" r="7"/>
                <circle id="rim2" cx="0" cy="0" r="3.5"/>
                <g id="zoomPlus">
                        <use xlink:href="#rim" fill="#404040">
                                <set attributeName="fill" to="#808080" begin="zoomplus.mouseover" end="zoomplus.mouseout"/>
                        </use>
                        <path d="M-4,0h8M0,-4v8" fill="none" stroke="white" stroke-width="1.5" pointer-events="none"/>
                </g>
                <g id="zoomMin">
                        <use xlink:href="#rim" fill="#404040">
                                <set attributeName="fill" to="#808080" begin="zoomminus.mouseover" end="zoomminus.mouseout"/>
                        </use>
                        <path d="M-4,0h8" fill="none" stroke="white" stroke-width="1.5" pointer-events="none"/>
                </g>
                <g id="dirArrow">
                        <path fill="none" stroke="white" stroke-width="1.5" d="M0,-3.0v7 M-2.5,-0.5L0,-3.0L2.5,-0.5"/>
                </g>
               <g id="resetDef">
                       <use xlink:href="#rim2" fill="#404040">
                               <set attributeName="fill" to="#808080" begin="reset.mouseover" end="reset.mouseout"/>
                       </use>
               </g>
        </defs>

<script type="text/javascript">
var viewWidth = 3032;
var viewHeight = 218;
var sectionId = 'dynsection-1';
</script>
<script xlink:href="svgpan.js"/>
<svg id="graph" class="graph">
<g id="viewport">
<title>momenta.h</title>
<polygon fill="#ffffff" stroke="transparent" points="-4,4 -4,-214 3028,-214 3028,4 -4,4"/>
<!-- Node6 -->
<g id="node1" class="node">
<title>Node6</title>
<polygon fill="#bfbfbf" stroke="#000000" points="1395.5,-190.5 1395.5,-209.5 1460.5,-209.5 1460.5,-190.5 1395.5,-190.5"/>
<text text-anchor="middle" x="1428" y="-197.5" font-family="Helvetica,sans-Serif" font-size="10.00" fill="#000000">momenta.h</text>
</g>
<!-- Node7 -->
<g id="node2" class="node">
<title>Node7</title>
<g id="a_node2"><a xlink:href="field_8h.html" target="_top" xlink:title="field.h">
<polygon fill="#ffffff" stroke="#000000" points="1406.5,-134.5 1406.5,-153.5 1449.5,-153.5 1449.5,-134.5 1406.5,-134.5"/>
<text text-anchor="middle" x="1428" y="-141.5" font-family="Helvetica,sans-Serif" font-size="10.00" fill="#000000">field.h</text>
</a>
</g>
</g>
<!-- Node6&#45;&gt;Node7 -->
<g id="edge1" class="edge">
<title>Node6&#45;&gt;Node7</title>
<path fill="none" stroke="#191970" d="M1428,-180.1575C1428,-171.155 1428,-160.9199 1428,-153.6427"/>
<polygon fill="#191970" stroke="#191970" points="1424.5001,-180.2455 1428,-190.2455 1431.5001,-180.2456 1424.5001,-180.2455"/>
</g>
<!-- Node8 -->
<g id="node3" class="node">
<title>Node8</title>
<g id="a_node3"><a xlink:href="main__explicit_8cpp.html" target="_top" xlink:title="main_explicit.cpp">
<polygon fill="#ffffff" stroke="#000000" points="0,-11.5 0,-30.5 92,-30.5 92,-11.5 0,-11.5"/>
<text text-anchor="middle" x="46" y="-18.5" font-family="Helvetica,sans-Serif" font-size="10.00" fill="#000000">main_explicit.cpp</text>
</a>
</g>
</g>
<!-- Node6&#45;&gt;Node8 -->
<g id="edge52" class="edge">
<title>Node6&#45;&gt;Node8</title>
<path fill="none" stroke="#191970" d="M1385.249,-199.0562C1223.164,-195.3074 646.5298,-180.376 465,-154 361.7392,-138.9964 336.3066,-130.0329 237,-98 173.7107,-77.585 101.5611,-46.1878 66.8363,-30.5438"/>
<polygon fill="#191970" stroke="#191970" points="1385.2395,-202.5568 1395.3171,-199.287 1385.4,-195.5586 1385.2395,-202.5568"/>
</g>
<!-- Node10 -->
<g id="node5" class="node">
<title>Node10</title>
<g id="a_node5"><a xlink:href="test__noise__vectors__and__cholesky__decomposition_8cpp.html" target="_top" xlink:title="tests/test_noise_vectors\l_and_cholesky_decomposition.cpp">
<polygon fill="#ffffff" stroke="#000000" points="110.5,-6 110.5,-36 279.5,-36 279.5,-6 110.5,-6"/>
<text text-anchor="start" x="118.5" y="-24" font-family="Helvetica,sans-Serif" font-size="10.00" fill="#000000">tests/test_noise_vectors</text>
<text text-anchor="middle" x="195" y="-13" font-family="Helvetica,sans-Serif" font-size="10.00" fill="#000000">_and_cholesky_decomposition.cpp</text>
</a>
</g>
</g>
<!-- Node6&#45;&gt;Node10 -->
<g id="edge67" class="edge">
<title>Node6&#45;&gt;Node10</title>
<path fill="none" stroke="#191970" d="M1385.136,-198.158C1187.3324,-189.4006 368.0485,-150.2246 267,-98 239.1976,-83.631 216.4124,-54.102 204.3466,-36.0771"/>
<polygon fill="#191970" stroke="#191970" points="1385.2703,-201.6672 1395.4146,-198.6103 1385.5782,-194.6739 1385.2703,-201.6672"/>
</g>
<!-- Node11 -->
<g id="node6" class="node">
<title>Node11</title>
<g id="a_node6"><a xlink:href="test__position__evolution__coupling__noise_8cpp.html" target="_top" xlink:title="tests/test_position\l_evolution_coupling\l_noise.cpp">
<polygon fill="#ffffff" stroke="#000000" points="297,-.5 297,-41.5 399,-41.5 399,-.5 297,-.5"/>
<text text-anchor="start" x="305" y="-29.5" font-family="Helvetica,sans-Serif" font-size="10.00" fill="#000000">tests/test_position</text>
<text text-anchor="start" x="305" y="-18.5" font-family="Helvetica,sans-Serif" font-size="10.00" fill="#000000">_evolution_coupling</text>
<text text-anchor="middle" x="348" y="-7.5" font-family="Helvetica,sans-Serif" font-size="10.00" fill="#000000">_noise.cpp</text>
</a>
</g>
</g>
<!-- Node6&#45;&gt;Node11 -->
<g id="edge70" class="edge">
<title>Node6&#45;&gt;Node11</title>
<path fill="none" stroke="#191970" d="M1385.0834,-198.3203C1258.2061,-193.1479 886.3069,-176.4437 767,-154 630.6798,-128.3558 476.729,-72.0864 398.8931,-41.6031"/>
<polygon fill="#191970" stroke="#191970" points="1385.0586,-201.8221 1395.1919,-198.7291 1385.3415,-194.8278 1385.0586,-201.8221"/>
</g>
<!-- Node13 -->
<g id="node8" class="node">
<title>Node13</title>
<g id="a_node8"><a xlink:href="test__accumulation_8cpp.html" target="_top" xlink:title="tests/test_accumulation.cpp">
<polygon fill="#ffffff" stroke="#000000" points="547,-11.5 547,-30.5 687,-30.5 687,-11.5 547,-11.5"/>
<text text-anchor="middle" x="617" y="-18.5" font-family="Helvetica,sans-Serif" font-size="10.00" fill="#000000">tests/test_accumulation.cpp</text>
</a>
</g>
</g>
<!-- Node6&#45;&gt;Node13 -->
<g id="edge53" class="edge">
<title>Node6&#45;&gt;Node13</title>
<path fill="none" stroke="#191970" d="M1385.0552,-198.0491C1277.6248,-192.8708 999.4619,-177.5443 910,-154 798.1707,-124.5691 675.62,-55.7749 632.803,-30.5179"/>
<polygon fill="#191970" stroke="#191970" points="1385.051,-201.5528 1395.2062,-198.5326 1385.3841,-194.5607 1385.051,-201.5528"/>
</g>
<!-- Node14 -->
<g id="node9" class="node">
<title>Node14</title>
<g id="a_node9"><a xlink:href="test__exponentiate_8cpp.html" target="_top" xlink:title="tests/test_exponentiate.cpp">
<polygon fill="#ffffff" stroke="#000000" points="1359.5,-11.5 1359.5,-30.5 1496.5,-30.5 1496.5,-11.5 1359.5,-11.5"/>
<text text-anchor="middle" x="1428" y="-18.5" font-family="Helvetica,sans-Serif" font-size="10.00" fill="#000000">tests/test_exponentiate.cpp</text>
</a>
</g>
</g>
<!-- Node6&#45;&gt;Node14 -->
<g id="edge54" class="edge">
<title>Node6&#45;&gt;Node14</title>
<path fill="none" stroke="#191970" d="M1413.0309,-182.3445C1407.1244,-174.2525 1401.0326,-164.2016 1398,-154 1384.5104,-108.6218 1410.4088,-52.9703 1422.3849,-30.7942"/>
<polygon fill="#191970" stroke="#191970" points="1410.3036,-184.5387 1419.2139,-190.2709 1415.823,-180.2333 1410.3036,-184.5387"/>
</g>
<!-- Node15 -->
<g id="node10" class="node">
<title>Node15</title>
<g id="a_node10"><a xlink:href="test__hermitian_8cpp.html" target="_top" xlink:title="tests/test_hermitian.cpp">
<polygon fill="#ffffff" stroke="#000000" points="1515,-11.5 1515,-30.5 1637,-30.5 1637,-11.5 1515,-11.5"/>
<text text-anchor="middle" x="1576" y="-18.5" font-family="Helvetica,sans-Serif" font-size="10.00" fill="#000000">tests/test_hermitian.cpp</text>
</a>
</g>
</g>
<!-- Node6&#45;&gt;Node15 -->
<g id="edge55" class="edge">
<title>Node6&#45;&gt;Node15</title>
<path fill="none" stroke="#191970" d="M1464.7528,-186.4943C1500.5013,-171.1452 1552.7203,-142.317 1576,-98 1587.4387,-76.2244 1582.4343,-45.9729 1578.7145,-30.6789"/>
<polygon fill="#191970" stroke="#191970" points="1463.0479,-183.4119 1455.1444,-190.4678 1465.723,-189.8806 1463.0479,-183.4119"/>
</g>
<!-- Node16 -->
<g id="node11" class="node">
<title>Node16</title>
<g id="a_node11"><a xlink:href="test__initial__condition_8cpp.html" target="_top" xlink:title="tests/test_initial\l_condition.cpp">
<polygon fill="#ffffff" stroke="#000000" points="1655,-6 1655,-36 1741,-36 1741,-6 1655,-6"/>
<text text-anchor="start" x="1663" y="-24" font-family="Helvetica,sans-Serif" font-size="10.00" fill="#000000">tests/test_initial</text>
<text text-anchor="middle" x="1698" y="-13" font-family="Helvetica,sans-Serif" font-size="10.00" fill="#000000">_condition.cpp</text>
</a>
</g>
</g>
<!-- Node6&#45;&gt;Node16 -->
<g id="edge56" class="edge">
<title>Node6&#45;&gt;Node16</title>
<path fill="none" stroke="#191970" d="M1470.1294,-188.1816C1494.2224,-180.4164 1524.439,-168.9239 1549,-154 1605.3026,-119.7892 1660.1065,-63.098 1684.6225,-36.1405"/>
<polygon fill="#191970" stroke="#191970" points="1469.0494,-184.8522 1460.5505,-191.1783 1471.1394,-191.5329 1469.0494,-184.8522"/>
</g>
<!-- Node17 -->
<g id="node12" class="node">
<title>Node17</title>
<g id="a_node12"><a xlink:href="test__initial__condition__fftw1d_8cpp.html" target="_top" xlink:title="tests/test_initial\l_condition_fftw1d.cpp">
<polygon fill="#ffffff" stroke="#000000" points="417,-6 417,-36 529,-36 529,-6 417,-6"/>
<text text-anchor="start" x="425" y="-24" font-family="Helvetica,sans-Serif" font-size="10.00" fill="#000000">tests/test_initial</text>
<text text-anchor="middle" x="473" y="-13" font-family="Helvetica,sans-Serif" font-size="10.00" fill="#000000">_condition_fftw1d.cpp</text>
</a>
</g>
</g>
<!-- Node6&#45;&gt;Node17 -->
<g id="edge57" class="edge">
<title>Node6&#45;&gt;Node17</title>
<path fill="none" stroke="#191970" d="M1385.1724,-198.0805C1268.8855,-192.6353 949.0831,-176.0462 846,-154 716.2459,-126.2497 570.1329,-64.7478 506.0761,-36.158"/>
<polygon fill="#191970" stroke="#191970" points="1385.304,-201.5903 1395.4555,-198.5577 1385.6285,-194.5978 1385.304,-201.5903"/>
</g>
<!-- Node18 -->
<g id="node13" class="node">
<title>Node18</title>
<g id="a_node13"><a xlink:href="test__momentum__coupling_8cpp.html" target="_top" xlink:title="tests/test_momentum\l_coupling.cpp">
<polygon fill="#ffffff" stroke="#000000" points="705,-6 705,-36 817,-36 817,-6 705,-6"/>
<text text-anchor="start" x="713" y="-24" font-family="Helvetica,sans-Serif" font-size="10.00" fill="#000000">tests/test_momentum</text>
<text text-anchor="middle" x="761" y="-13" font-family="Helvetica,sans-Serif" font-size="10.00" fill="#000000">_coupling.cpp</text>
</a>
</g>
</g>
<!-- Node6&#45;&gt;Node18 -->
<g id="edge58" class="edge">
<title>Node6&#45;&gt;Node18</title>
<path fill="none" stroke="#191970" d="M1385.162,-198.5406C1284.2881,-194.6698 1034.4,-182.4286 956,-154 881.648,-127.0392 808.5718,-65.1364 777.1076,-36.3014"/>
<polygon fill="#191970" stroke="#191970" points="1385.1734,-202.0434 1395.2975,-198.9205 1385.4356,-195.0483 1385.1734,-202.0434"/>
</g>
<!-- Node19 -->
<g id="node14" class="node">
<title>Node19</title>
<g id="a_node14"><a xlink:href="test__momentum__coupling__fft_8cpp.html" target="_top" xlink:title="tests/test_momentum\l_coupling_fft.cpp">
<polygon fill="#ffffff" stroke="#000000" points="835,-6 835,-36 947,-36 947,-6 835,-6"/>
<text text-anchor="start" x="843" y="-24" font-family="Helvetica,sans-Serif" font-size="10.00" fill="#000000">tests/test_momentum</text>
<text text-anchor="middle" x="891" y="-13" font-family="Helvetica,sans-Serif" font-size="10.00" fill="#000000">_coupling_fft.cpp</text>
</a>
</g>
</g>
<!-- Node6&#45;&gt;Node19 -->
<g id="edge59" class="edge">
<title>Node6&#45;&gt;Node19</title>
<path fill="none" stroke="#191970" d="M1385.1992,-198.1667C1270.9862,-192.3268 963.2466,-170.0822 898,-98 882.8665,-81.2811 884.5811,-53.3446 887.5481,-36.1139"/>
<polygon fill="#191970" stroke="#191970" points="1385.1562,-201.6688 1395.3168,-198.6667 1385.5018,-194.6773 1385.1562,-201.6688"/>
</g>
<!-- Node20 -->
<g id="node15" class="node">
<title>Node20</title>
<g id="a_node15"><a xlink:href="test__momentum__evolution_8cpp.html" target="_top" xlink:title="tests/test_momentum\l_evolution.cpp">
<polygon fill="#ffffff" stroke="#000000" points="965,-6 965,-36 1077,-36 1077,-6 965,-6"/>
<text text-anchor="start" x="973" y="-24" font-family="Helvetica,sans-Serif" font-size="10.00" fill="#000000">tests/test_momentum</text>
<text text-anchor="middle" x="1021" y="-13" font-family="Helvetica,sans-Serif" font-size="10.00" fill="#000000">_evolution.cpp</text>
</a>
</g>
</g>
<!-- Node6&#45;&gt;Node20 -->
<g id="edge60" class="edge">
<title>Node6&#45;&gt;Node20</title>
<path fill="none" stroke="#191970" d="M1396.757,-186.2592C1321.9886,-153.3758 1133.2036,-70.3475 1055.3662,-36.1144"/>
<polygon fill="#191970" stroke="#191970" points="1395.555,-189.5541 1406.1179,-190.3762 1398.3732,-183.1464 1395.555,-189.5541"/>
</g>
<!-- Node21 -->
<g id="node16" class="node">
<title>Node21</title>
<g id="a_node16"><a xlink:href="test__momentum__evolution__coupling_8cpp.html" target="_top" xlink:title="tests/test_momentum\l_evolution_coupling.cpp">
<polygon fill="#ffffff" stroke="#000000" points="1759.5,-6 1759.5,-36 1880.5,-36 1880.5,-6 1759.5,-6"/>
<text text-anchor="start" x="1767.5" y="-24" font-family="Helvetica,sans-Serif" font-size="10.00" fill="#000000">tests/test_momentum</text>
<text text-anchor="middle" x="1820" y="-13" font-family="Helvetica,sans-Serif" font-size="10.00" fill="#000000">_evolution_coupling.cpp</text>
</a>
</g>
</g>
<!-- Node6&#45;&gt;Node21 -->
<g id="edge61" class="edge">
<title>Node6&#45;&gt;Node21</title>
<path fill="none" stroke="#191970" d="M1470.4506,-189.3462C1500.7105,-181.1645 1542.0528,-168.7802 1577,-154 1660.9381,-118.5002 1753.7596,-62.6798 1796.3192,-36.0748"/>
<polygon fill="#191970" stroke="#191970" points="1469.4023,-186.0033 1460.6386,-191.9571 1471.2024,-192.7679 1469.4023,-186.0033"/>
</g>
<!-- Node22 -->
<g id="node17" class="node">
<title>Node22</title>
<g id="a_node17"><a xlink:href="test__momentum__evolution__coupling2_8cpp.html" target="_top" xlink:title="tests/test_momentum\l_evolution_coupling2.cpp">
<polygon fill="#ffffff" stroke="#000000" points="1899,-6 1899,-36 2025,-36 2025,-6 1899,-6"/>
<text text-anchor="start" x="1907" y="-24" font-family="Helvetica,sans-Serif" font-size="10.00" fill="#000000">tests/test_momentum</text>
<text text-anchor="middle" x="1962" y="-13" font-family="Helvetica,sans-Serif" font-size="10.00" fill="#000000">_evolution_coupling2.cpp</text>
</a>
</g>
</g>
<!-- Node6&#45;&gt;Node22 -->
<g id="edge62" class="edge">
<title>Node6&#45;&gt;Node22</title>
<path fill="none" stroke="#191970" d="M1470.5015,-190.7001C1507.632,-182.2339 1562.8221,-168.8222 1610,-154 1727.6372,-117.0413 1863.1591,-62.281 1926.243,-36.061"/>
<polygon fill="#191970" stroke="#191970" points="1469.5118,-187.3354 1460.5294,-192.9539 1471.055,-194.1632 1469.5118,-187.3354"/>
</g>
<!-- Node23 -->
<g id="node18" class="node">
<title>Node23</title>
<g id="a_node18"><a xlink:href="test__momentum__evolution__coupling__lambda_8cpp.html" target="_top" xlink:title="tests/test_momentum\l_evolution_coupling\l_lambda.cpp">
<polygon fill="#ffffff" stroke="#000000" points="2043,-.5 2043,-41.5 2155,-41.5 2155,-.5 2043,-.5"/>
<text text-anchor="start" x="2051" y="-29.5" font-family="Helvetica,sans-Serif" font-size="10.00" fill="#000000">tests/test_momentum</text>
<text text-anchor="start" x="2051" y="-18.5" font-family="Helvetica,sans-Serif" font-size="10.00" fill="#000000">_evolution_coupling</text>
<text text-anchor="middle" x="2099" y="-7.5" font-family="Helvetica,sans-Serif" font-size="10.00" fill="#000000">_lambda.cpp</text>
</a>
</g>
</g>
<!-- Node6&#45;&gt;Node23 -->
<g id="edge63" class="edge">
<title>Node6&#45;&gt;Node23</title>
<path fill="none" stroke="#191970" d="M1470.6888,-192.2603C1515.7453,-183.8429 1588.7214,-169.5023 1651,-154 1793.5021,-118.5286 1958.4495,-66.7302 2042.8673,-39.4241"/>
<polygon fill="#191970" stroke="#191970" points="1469.8794,-188.8507 1460.6862,-194.1172 1471.1571,-195.7331 1469.8794,-188.8507"/>
</g>
<!-- Node24 -->
<g id="node19" class="node">
<title>Node24</title>
<g id="a_node19"><a xlink:href="test__momentum__evolution__coupling__lambda__noise_8cpp.html" target="_top" xlink:title="tests/test_momentum\l_evolution_coupling\l_lambda_noise.cpp">
<polygon fill="#ffffff" stroke="#000000" points="2173,-.5 2173,-41.5 2285,-41.5 2285,-.5 2173,-.5"/>
<text text-anchor="start" x="2181" y="-29.5" font-family="Helvetica,sans-Serif" font-size="10.00" fill="#000000">tests/test_momentum</text>
<text text-anchor="start" x="2181" y="-18.5" font-family="Helvetica,sans-Serif" font-size="10.00" fill="#000000">_evolution_coupling</text>
<text text-anchor="middle" x="2229" y="-7.5" font-family="Helvetica,sans-Serif" font-size="10.00" fill="#000000">_lambda_noise.cpp</text>
</a>
</g>
</g>
<!-- Node6&#45;&gt;Node24 -->
<g id="edge64" class="edge">
<title>Node6&#45;&gt;Node24</title>
<path fill="none" stroke="#191970" d="M1470.9824,-193.6733C1524.7406,-185.5443 1619.5078,-170.5002 1700,-154 1907.8232,-111.398 1959.8075,-99.5399 2164,-42 2166.8536,-41.1959 2169.7698,-40.3485 2172.7091,-39.4741"/>
<polygon fill="#191970" stroke="#191970" points="1470.1623,-190.2572 1460.794,-195.2053 1471.2033,-197.1794 1470.1623,-190.2572"/>
</g>
<!-- Node25 -->
<g id="node20" class="node">
<title>Node25</title>
<g id="a_node20"><a xlink:href="test__multiplication_8cpp.html" target="_top" xlink:title="tests/test_multiplication.cpp">
<polygon fill="#ffffff" stroke="#000000" points="2303.5,-11.5 2303.5,-30.5 2442.5,-30.5 2442.5,-11.5 2303.5,-11.5"/>
<text text-anchor="middle" x="2373" y="-18.5" font-family="Helvetica,sans-Serif" font-size="10.00" fill="#000000">tests/test_multiplication.cpp</text>
</a>
</g>
</g>
<!-- Node6&#45;&gt;Node25 -->
<g id="edge65" class="edge">
<title>Node6&#45;&gt;Node25</title>
<path fill="none" stroke="#191970" d="M1470.775,-195.061C1534.2998,-187.5069 1657.2418,-172.0452 1761,-154 1999.4825,-112.5241 2058.5047,-98.0014 2294,-42 2308.635,-38.5198 2324.6947,-34.3212 2338.4902,-30.5958"/>
<polygon fill="#191970" stroke="#191970" points="1470.2516,-191.5984 1460.7316,-196.2482 1471.0734,-198.55 1470.2516,-191.5984"/>
</g>
<!-- Node26 -->
<g id="node21" class="node">
<title>Node26</title>
<g id="a_node21"><a xlink:href="test__noise__vectors_8cpp.html" target="_top" xlink:title="tests/test_noise_vectors.cpp">
<polygon fill="#ffffff" stroke="#000000" points="2460.5,-11.5 2460.5,-30.5 2603.5,-30.5 2603.5,-11.5 2460.5,-11.5"/>
<text text-anchor="middle" x="2532" y="-18.5" font-family="Helvetica,sans-Serif" font-size="10.00" fill="#000000">tests/test_noise_vectors.cpp</text>
</a>
</g>
</g>
<!-- Node6&#45;&gt;Node26 -->
<g id="edge66" class="edge">
<title>Node6&#45;&gt;Node26</title>
<path fill="none" stroke="#191970" d="M1470.8142,-195.9921C1544.2761,-188.9135 1698.9899,-173.1234 1829,-154 2107.3328,-113.0595 2177.2877,-102.6503 2452,-42 2467.1435,-38.6567 2483.748,-34.3967 2497.8855,-30.5886"/>
<polygon fill="#191970" stroke="#191970" points="1470.1984,-192.535 1460.5777,-196.9727 1470.8659,-199.5031 1470.1984,-192.535"/>
</g>
<!-- Node27 -->
<g id="node22" class="node">
<title>Node27</title>
<g id="a_node22"><a xlink:href="test__position__evolution_8cpp.html" target="_top" xlink:title="tests/test_position\l_evolution.cpp">
<polygon fill="#ffffff" stroke="#000000" points="2621.5,-6 2621.5,-36 2718.5,-36 2718.5,-6 2621.5,-6"/>
<text text-anchor="start" x="2629.5" y="-24" font-family="Helvetica,sans-Serif" font-size="10.00" fill="#000000">tests/test_position</text>
<text text-anchor="middle" x="2670" y="-13" font-family="Helvetica,sans-Serif" font-size="10.00" fill="#000000">_evolution.cpp</text>
</a>
</g>
</g>
<!-- Node6&#45;&gt;Node27 -->
<g id="edge68" class="edge">
<title>Node6&#45;&gt;Node27</title>
<path fill="none" stroke="#191970" d="M1470.6669,-196.7751C1554.3429,-190.2558 1745.7919,-174.3791 1906,-154 2221.5975,-113.8547 2305.1511,-122.265 2613,-42 2619.327,-40.3504 2625.9328,-38.268 2632.311,-36.0593"/>
<polygon fill="#191970" stroke="#191970" points="1470.2327,-193.2981 1460.5328,-197.5598 1470.7732,-200.2773 1470.2327,-193.2981"/>
</g>
<!-- Node28 -->
<g id="node23" class="node">
<title>Node28</title>
<g id="a_node23"><a xlink:href="test__position__evolution__coupling_8cpp.html" target="_top" xlink:title="tests/test_position\l_evolution_coupling.cpp">
<polygon fill="#ffffff" stroke="#000000" points="2736.5,-6 2736.5,-36 2857.5,-36 2857.5,-6 2736.5,-6"/>
<text text-anchor="start" x="2744.5" y="-24" font-family="Helvetica,sans-Serif" font-size="10.00" fill="#000000">tests/test_position</text>
<text text-anchor="middle" x="2797" y="-13" font-family="Helvetica,sans-Serif" font-size="10.00" fill="#000000">_evolution_coupling.cpp</text>
</a>
</g>
</g>
<!-- Node6&#45;&gt;Node28 -->
<g id="edge69" class="edge">
<title>Node6&#45;&gt;Node28</title>
<path fill="none" stroke="#191970" d="M1470.8706,-197.3155C1566.3865,-191.1698 1803.8832,-174.9771 2002,-154 2191.4625,-133.9393 2238.8359,-127.8789 2427,-98 2561.3896,-76.6601 2595.8169,-74.3043 2728,-42 2735.1766,-40.2461 2742.7102,-38.1852 2750.0551,-36.052"/>
<polygon fill="#191970" stroke="#191970" points="1470.4929,-193.8324 1460.7369,-197.964 1470.94,-200.8181 1470.4929,-193.8324"/>
</g>
<!-- Node29 -->
<g id="node24" class="node">
<title>Node29</title>
<g id="a_node24"><a xlink:href="test__position__evolution__hatta__coupling_8cpp.html" target="_top" xlink:title="tests/test_position\l_evolution_hatta_coupling.cpp">
<polygon fill="#ffffff" stroke="#000000" points="2876,-6 2876,-36 3024,-36 3024,-6 2876,-6"/>
<text text-anchor="start" x="2884" y="-24" font-family="Helvetica,sans-Serif" font-size="10.00" fill="#000000">tests/test_position</text>
<text text-anchor="middle" x="2950" y="-13" font-family="Helvetica,sans-Serif" font-size="10.00" fill="#000000">_evolution_hatta_coupling.cpp</text>
</a>
</g>
</g>
<!-- Node6&#45;&gt;Node29 -->
<g id="edge71" class="edge">
<title>Node6&#45;&gt;Node29</title>
<path fill="none" stroke="#191970" d="M1470.8657,-198.1487C1577.8868,-193.2951 1865.3674,-178.8332 2104,-154 2282.1096,-135.4651 2325.8349,-124.0596 2503,-98 2664.9386,-74.1801 2706.5891,-74.5554 2867,-42 2875.5944,-40.2558 2884.636,-38.2001 2893.462,-36.0691"/>
<polygon fill="#191970" stroke="#191970" points="1470.616,-194.6563 1460.7832,-198.6016 1470.9302,-201.6492 1470.616,-194.6563"/>
</g>
<!-- Node30 -->
<g id="node25" class="node">
<title>Node30</title>
<g id="a_node25"><a xlink:href="test__symmetrize__average_8cpp.html" target="_top" xlink:title="tests/test_symmetrize\l_average.cpp">
<polygon fill="#ffffff" stroke="#000000" points="1095,-6 1095,-36 1209,-36 1209,-6 1095,-6"/>
<text text-anchor="start" x="1103" y="-24" font-family="Helvetica,sans-Serif" font-size="10.00" fill="#000000">tests/test_symmetrize</text>
<text text-anchor="middle" x="1152" y="-13" font-family="Helvetica,sans-Serif" font-size="10.00" fill="#000000">_average.cpp</text>
</a>
</g>
</g>
<!-- Node6&#45;&gt;Node30 -->
<g id="edge72" class="edge">
<title>Node6&#45;&gt;Node30</title>
<path fill="none" stroke="#191970" d="M1404.6048,-184.827C1352.5545,-151.0698 1227.6658,-70.0731 1175.5093,-36.2469"/>
<polygon fill="#191970" stroke="#191970" points="1402.8666,-187.8713 1413.161,-190.3762 1406.6755,-181.9983 1402.8666,-187.8713"/>
</g>
<!-- Node31 -->
<g id="node26" class="node">
<title>Node31</title>
<g id="a_node26"><a xlink:href="test__symmetrize__average2_8cpp.html" target="_top" xlink:title="tests/test_symmetrize\l_average2.cpp">
<polygon fill="#ffffff" stroke="#000000" points="1227,-6 1227,-36 1341,-36 1341,-6 1227,-6"/>
<text text-anchor="start" x="1235" y="-24" font-family="Helvetica,sans-Serif" font-size="10.00" fill="#000000">tests/test_symmetrize</text>
<text text-anchor="middle" x="1284" y="-13" font-family="Helvetica,sans-Serif" font-size="10.00" fill="#000000">_average2.cpp</text>
</a>
</g>
</g>
<!-- Node6&#45;&gt;Node31 -->
<g id="edge73" class="edge">
<title>Node6&#45;&gt;Node31</title>
<path fill="none" stroke="#191970" d="M1413.3109,-182.366C1406.2301,-173.8282 1397.6365,-163.4111 1390,-154 1355.5815,-111.5832 1315.5519,-61.0151 1295.9954,-36.2282"/>
<polygon fill="#191970" stroke="#191970" points="1410.713,-184.7161 1419.7959,-190.1706 1416.0969,-180.2424 1410.713,-184.7161"/>
</g>
<!-- Node7&#45;&gt;Node8 -->
<g id="edge2" class="edge">
<title>Node7&#45;&gt;Node8</title>
<path fill="none" stroke="#191970" d="M1396.2321,-143.2828C1221.4472,-139.2648 380.6674,-118.9754 267,-98 190.485,-83.8804 104.7778,-47.7979 66.4465,-30.5119"/>
<polygon fill="#191970" stroke="#191970" points="1396.2445,-146.7839 1406.322,-143.5137 1396.4047,-139.7858 1396.2445,-146.7839"/>
</g>
<!-- Node9 -->
<g id="node4" class="node">
<title>Node9</title>
<g id="a_node4"><a xlink:href="matrix_8h.html" target="_top" xlink:title="matrix.h">
<polygon fill="#ffffff" stroke="#000000" points="321,-78.5 321,-97.5 373,-97.5 373,-78.5 321,-78.5"/>
<text text-anchor="middle" x="347" y="-85.5" font-family="Helvetica,sans-Serif" font-size="10.00" fill="#000000">matrix.h</text>
</a>
</g>
</g>
<!-- Node7&#45;&gt;Node9 -->
<g id="edge3" class="edge">
<title>Node7&#45;&gt;Node9</title>
<path fill="none" stroke="#191970" d="M1396.2748,-142.3565C1236.3102,-134.0697 520.0879,-96.9666 373.3277,-89.3639"/>
<polygon fill="#191970" stroke="#191970" points="1396.2389,-145.8593 1406.4066,-142.8814 1396.6011,-138.8686 1396.2389,-145.8593"/>
</g>
<!-- Node7&#45;&gt;Node10 -->
<g id="edge45" class="edge">
<title>Node7&#45;&gt;Node10</title>
<path fill="none" stroke="#191970" d="M1396.0024,-143.6996C1224.4528,-141.9535 417.4833,-131.9787 312,-98 272.1897,-85.1761 233.0588,-54.8253 211.6654,-36.2883"/>
<polygon fill="#191970" stroke="#191970" points="1396.1154,-147.2008 1406.1498,-143.8008 1396.1852,-140.2012 1396.1154,-147.2008"/>
</g>
<!-- Node7&#45;&gt;Node11 -->
<g id="edge48" class="edge">
<title>Node7&#45;&gt;Node11</title>
<path fill="none" stroke="#191970" d="M1396.3898,-143.6547C1293.0344,-142.1849 955.9058,-134.6979 680,-98 557.6531,-81.7268 526.9574,-74.9045 408,-42 405.1281,-41.2056 402.1945,-40.3452 399.2443,-39.4415"/>
<polygon fill="#191970" stroke="#191970" points="1396.4256,-147.1553 1406.4714,-143.7891 1396.519,-140.156 1396.4256,-147.1553"/>
</g>
<!-- Node12 -->
<g id="node7" class="node">
<title>Node12</title>
<g id="a_node7"><a xlink:href="mpi__fftw__class_8h.html" target="_top" xlink:title="mpi_fftw_class.h">
<polygon fill="#ffffff" stroke="#000000" points="1456.5,-78.5 1456.5,-97.5 1547.5,-97.5 1547.5,-78.5 1456.5,-78.5"/>
<text text-anchor="middle" x="1502" y="-85.5" font-family="Helvetica,sans-Serif" font-size="10.00" fill="#000000">mpi_fftw_class.h</text>
</a>
</g>
</g>
<!-- Node7&#45;&gt;Node12 -->
<g id="edge7" class="edge">
<title>Node7&#45;&gt;Node12</title>
<path fill="none" stroke="#191970" d="M1448.8657,-128.2097C1461.8625,-118.3743 1478.1622,-106.0394 1489.2579,-97.6427"/>
<polygon fill="#191970" stroke="#191970" points="1446.7518,-125.4201 1440.8898,-134.2455 1450.976,-131.002 1446.7518,-125.4201"/>
</g>
<!-- Node7&#45;&gt;Node13 -->
<g id="edge31" class="edge">
<title>Node7&#45;&gt;Node13</title>
<path fill="none" stroke="#191970" d="M1396.3555,-143.246C1313.7505,-140.849 1085.0446,-131.4601 898,-98 803.8918,-81.1652 695.5786,-47.2185 645.3295,-30.6026"/>
<polygon fill="#191970" stroke="#191970" points="1396.2671,-146.7448 1406.36,-143.5224 1396.4605,-139.7475 1396.2671,-146.7448"/>
</g>
<!-- Node7&#45;&gt;Node14 -->
<g id="edge32" class="edge">
<title>Node7&#45;&gt;Node14</title>
<path fill="none" stroke="#191970" d="M1428,-124.2305C1428,-97.4497 1428,-50.686 1428,-30.6068"/>
<polygon fill="#191970" stroke="#191970" points="1424.5001,-124.3484 1428,-134.3484 1431.5001,-124.3484 1424.5001,-124.3484"/>
</g>
<!-- Node7&#45;&gt;Node15 -->
<g id="edge33" class="edge">
<title>Node7&#45;&gt;Node15</title>
<path fill="none" stroke="#191970" d="M1459.8633,-141.085C1489.2542,-136.6828 1532.0042,-125.6462 1557,-98 1574.2681,-78.9009 1576.4467,-46.6184 1576.3666,-30.6036"/>
<polygon fill="#191970" stroke="#191970" points="1459.1539,-137.6482 1449.6971,-142.4252 1460.0688,-144.5881 1459.1539,-137.6482"/>
</g>
<!-- Node7&#45;&gt;Node16 -->
<g id="edge34" class="edge">
<title>Node7&#45;&gt;Node16</title>
<path fill="none" stroke="#191970" d="M1459.8162,-136.6847C1490.4044,-129.0603 1537.5333,-115.7431 1576,-98 1613.9817,-80.4807 1654.3265,-53.051 1677.7881,-36.0964"/>
<polygon fill="#191970" stroke="#191970" points="1458.6155,-133.3748 1449.7279,-139.1421 1460.2722,-140.1759 1458.6155,-133.3748"/>
</g>
<!-- Node7&#45;&gt;Node17 -->
<g id="edge35" class="edge">
<title>Node7&#45;&gt;Node17</title>
<path fill="none" stroke="#191970" d="M1396.435,-143.1255C1304.8833,-140.2751 1031.4941,-129.543 807,-98 686.0691,-81.0084 656.0498,-73.2609 538,-42 531.3509,-40.2393 524.3782,-38.1984 517.5699,-36.0948"/>
<polygon fill="#191970" stroke="#191970" points="1396.339,-146.6241 1406.4402,-143.4278 1396.5505,-139.6273 1396.339,-146.6241"/>
</g>
<!-- Node7&#45;&gt;Node18 -->
<g id="edge36" class="edge">
<title>Node7&#45;&gt;Node18</title>
<path fill="none" stroke="#191970" d="M1396.2418,-142.9352C1337.5817,-140.2144 1208.8436,-130.7027 1106,-98 1087.4363,-92.097 1085.5448,-83.9622 1067,-78 963.898,-44.8523 931.4381,-66.7306 826,-42 818.8417,-40.321 811.3381,-38.2235 804.0764,-36.0087"/>
<polygon fill="#191970" stroke="#191970" points="1396.2168,-146.4372 1406.3574,-143.3683 1396.5163,-139.4436 1396.2168,-146.4372"/>
</g>
<!-- Node7&#45;&gt;Node19 -->
<g id="edge37" class="edge">
<title>Node7&#45;&gt;Node19</title>
<path fill="none" stroke="#191970" d="M1396.2003,-138.3677C1319.7249,-124.5543 1119.7207,-86.8331 956,-42 949.4804,-40.2147 942.6416,-38.1833 935.949,-36.1039"/>
<polygon fill="#191970" stroke="#191970" points="1395.6934,-141.8326 1406.1548,-140.1564 1396.9315,-134.9429 1395.6934,-141.8326"/>
</g>
<!-- Node7&#45;&gt;Node20 -->
<g id="edge38" class="edge">
<title>Node7&#45;&gt;Node20</title>
<path fill="none" stroke="#191970" d="M1396.6597,-134.9106C1336.3708,-117.3686 1200.107,-77.4436 1086,-42 1079.8843,-40.1004 1073.4566,-38.0678 1067.1205,-36.0428"/>
<polygon fill="#191970" stroke="#191970" points="1395.7617,-138.2944 1406.3412,-137.7252 1397.7158,-131.5727 1395.7617,-138.2944"/>
</g>
<!-- Node7&#45;&gt;Node21 -->
<g id="edge39" class="edge">
<title>Node7&#45;&gt;Node21</title>
<path fill="none" stroke="#191970" d="M1459.5809,-136.8472C1495.5441,-128.4797 1555.9323,-113.753 1607,-98 1668.9974,-78.8754 1739.5609,-52.4162 1781.8932,-36.022"/>
<polygon fill="#191970" stroke="#191970" points="1458.6334,-133.4738 1449.6773,-139.134 1460.2085,-140.2943 1458.6334,-133.4738"/>
</g>
<!-- Node7&#45;&gt;Node22 -->
<g id="edge40" class="edge">
<title>Node7&#45;&gt;Node22</title>
<path fill="none" stroke="#191970" d="M1460.0371,-137.828C1535.4402,-123.1059 1729.8353,-84.0098 1890,-42 1897.0531,-40.15 1904.4658,-38.1045 1911.7432,-36.0376"/>
<polygon fill="#191970" stroke="#191970" points="1458.9413,-134.4755 1449.7937,-139.8207 1460.278,-141.3467 1458.9413,-134.4755"/>
</g>
<!-- Node7&#45;&gt;Node23 -->
<g id="edge41" class="edge">
<title>Node7&#45;&gt;Node23</title>
<path fill="none" stroke="#191970" d="M1459.8875,-140.3712C1550.6074,-129.6762 1817.5615,-95.6246 2034,-42 2036.8778,-41.287 2039.8133,-40.513 2042.768,-39.6967"/>
<polygon fill="#191970" stroke="#191970" points="1459.2395,-136.923 1449.713,-141.5594 1460.0515,-143.8758 1459.2395,-136.923"/>
</g>
<!-- Node7&#45;&gt;Node24 -->
<g id="edge42" class="edge">
<title>Node7&#45;&gt;Node24</title>
<path fill="none" stroke="#191970" d="M1459.7184,-141.8901C1562.6383,-134.5608 1896.1219,-107.0157 2164,-42 2166.8811,-41.3007 2169.8194,-40.5378 2172.7762,-39.7302"/>
<polygon fill="#191970" stroke="#191970" points="1459.4023,-138.4035 1449.671,-142.593 1459.8909,-145.3865 1459.4023,-138.4035"/>
</g>
<!-- Node7&#45;&gt;Node25 -->
<g id="edge43" class="edge">
<title>Node7&#45;&gt;Node25</title>
<path fill="none" stroke="#191970" d="M1459.8015,-142.3854C1573.8653,-136.1455 1972.7021,-110.4517 2294,-42 2309.2681,-38.7472 2326.001,-34.4125 2340.121,-30.5262"/>
<polygon fill="#191970" stroke="#191970" points="1459.4623,-138.8985 1449.6643,-142.9294 1459.8375,-145.8885 1459.4623,-138.8985"/>
</g>
<!-- Node7&#45;&gt;Node26 -->
<g id="edge44" class="edge">
<title>Node7&#45;&gt;Node26</title>
<path fill="none" stroke="#191970" d="M1460.0319,-143.0452C1586.9341,-138.7935 2066.2725,-118.289 2452,-42 2467.6361,-38.9075 2484.753,-34.5487 2499.127,-30.6031"/>
<polygon fill="#191970" stroke="#191970" points="1459.726,-139.5532 1449.8451,-143.3765 1459.9536,-146.5495 1459.726,-139.5532"/>
</g>
<!-- Node7&#45;&gt;Node27 -->
<g id="edge46" class="edge">
<title>Node7&#45;&gt;Node27</title>
<path fill="none" stroke="#191970" d="M1459.7349,-142.7785C1562.7869,-138.6543 1897.3152,-124.027 2173,-98 2369.2603,-79.4714 2421.5074,-88.8191 2613,-42 2619.5564,-40.397 2626.397,-38.283 2632.9701,-36.0137"/>
<polygon fill="#191970" stroke="#191970" points="1459.5303,-139.2838 1449.6767,-143.177 1459.8074,-146.2783 1459.5303,-139.2838"/>
</g>
<!-- Node7&#45;&gt;Node28 -->
<g id="edge47" class="edge">
<title>Node7&#45;&gt;Node28</title>
<path fill="none" stroke="#191970" d="M1460.0321,-143.255C1574.9825,-140.3838 1977.4354,-128.6275 2308,-98 2495.5155,-80.6263 2543.9769,-81.9926 2728,-42 2735.5864,-40.3513 2743.5453,-38.2694 2751.2513,-36.0609"/>
<polygon fill="#191970" stroke="#191970" points="1459.7286,-139.7613 1449.8174,-143.5054 1459.9003,-146.7592 1459.7286,-139.7613"/>
</g>
<!-- Node7&#45;&gt;Node29 -->
<g id="edge49" class="edge">
<title>Node7&#45;&gt;Node29</title>
<path fill="none" stroke="#191970" d="M1460.1846,-143.4609C1584.8055,-141.1736 2047.5291,-130.831 2427,-98 2623.3993,-81.008 2673.3111,-78.6885 2867,-42 2875.9085,-40.3126 2885.2841,-38.2369 2894.3984,-36.054"/>
<polygon fill="#191970" stroke="#191970" points="1459.7722,-139.9676 1449.8365,-143.6463 1459.8977,-146.9665 1459.7722,-139.9676"/>
</g>
<!-- Node7&#45;&gt;Node30 -->
<g id="edge50" class="edge">
<title>Node7&#45;&gt;Node30</title>
<path fill="none" stroke="#191970" d="M1396.9277,-130.1526C1344.6892,-106.8724 1239.7007,-60.084 1185.7308,-36.0322"/>
<polygon fill="#191970" stroke="#191970" points="1395.784,-133.4747 1406.3427,-134.3484 1398.6334,-127.0808 1395.784,-133.4747"/>
</g>
<!-- Node7&#45;&gt;Node31 -->
<g id="edge51" class="edge">
<title>Node7&#45;&gt;Node31</title>
<path fill="none" stroke="#191970" d="M1408.8209,-127.6179C1380.8055,-103.6881 1329.073,-59.4999 1301.8378,-36.2365"/>
<polygon fill="#191970" stroke="#191970" points="1406.8236,-130.5148 1416.7006,-134.3484 1411.37,-125.1922 1406.8236,-130.5148"/>
</g>
<!-- Node32 -->
<g id="node27" class="node">
<title>Node32</title>
<g id="a_node27"><a xlink:href="mpi__exchange__boundaries_8cpp.html" target="_top" xlink:title="mpi_exchange_boundaries.cpp">
<polygon fill="#ffffff" stroke="#000000" points="906.5,-78.5 906.5,-97.5 1057.5,-97.5 1057.5,-78.5 906.5,-78.5"/>
<text text-anchor="middle" x="982" y="-85.5" font-family="Helvetica,sans-Serif" font-size="10.00" fill="#000000">mpi_exchange_boundaries.cpp</text>
</a>
</g>
</g>
<!-- Node7&#45;&gt;Node32 -->
<g id="edge30" class="edge">
<title>Node7&#45;&gt;Node32</title>
<path fill="none" stroke="#191970" d="M1396.5403,-140.0499C1326.6658,-131.2764 1156.8946,-109.9599 1057.6381,-97.4972"/>
<polygon fill="#191970" stroke="#191970" points="1396.1303,-143.5258 1406.4885,-141.299 1397.0025,-136.5804 1396.1303,-143.5258"/>
</g>
<!-- Node9&#45;&gt;Node8 -->
<g id="edge4" class="edge">
<title>Node9&#45;&gt;Node8</title>
<path fill="none" stroke="#191970" d="M310.804,-83.3124C262.416,-76.5757 174.2443,-62.6496 101,-42 89.982,-38.8937 78.0774,-34.4859 68.1709,-30.51"/>
<polygon fill="#191970" stroke="#191970" points="310.4091,-86.7909 320.7913,-84.679 311.3581,-79.8555 310.4091,-86.7909"/>
</g>
<!-- Node9&#45;&gt;Node10 -->
<g id="edge5" class="edge">
<title>Node9&#45;&gt;Node10</title>
<path fill="none" stroke="#191970" d="M315.758,-74.2289C290.5185,-63.1035 255.0475,-47.4683 229.0792,-36.0218"/>
<polygon fill="#191970" stroke="#191970" points="314.6599,-77.5697 325.2221,-78.4005 317.4833,-71.1644 314.6599,-77.5697"/>
</g>
<!-- Node9&#45;&gt;Node11 -->
<g id="edge6" class="edge">
<title>Node9&#45;&gt;Node11</title>
<path fill="none" stroke="#191970" d="M347.2927,-68.3919C347.4182,-59.9817 347.5649,-50.1519 347.6921,-41.6318"/>
<polygon fill="#191970" stroke="#191970" points="343.793,-68.3494 347.1433,-78.4005 350.7922,-68.4539 343.793,-68.3494"/>
</g>
<!-- Node12&#45;&gt;Node8 -->
<g id="edge8" class="edge">
<title>Node12&#45;&gt;Node8</title>
<path fill="none" stroke="#191970" d="M1446.2536,-86.6857C1193.9007,-80.6702 167.9153,-55.4793 101,-42 89.0766,-39.5982 76.3538,-34.8916 66.1513,-30.542"/>
<polygon fill="#191970" stroke="#191970" points="1446.2165,-90.1857 1456.2969,-86.9247 1446.3831,-83.1877 1446.2165,-90.1857"/>
</g>
<!-- Node12&#45;&gt;Node10 -->
<g id="edge23" class="edge">
<title>Node12&#45;&gt;Node10</title>
<path fill="none" stroke="#191970" d="M1446.2125,-86.4917C1223.3623,-80.384 403.4792,-57.0948 288,-42 277.0035,-40.5626 265.3928,-38.4392 254.2426,-36.0872"/>
<polygon fill="#191970" stroke="#191970" points="1446.276,-89.9947 1456.368,-86.7695 1446.4674,-82.9973 1446.276,-89.9947"/>
</g>
<!-- Node12&#45;&gt;Node11 -->
<g id="edge26" class="edge">
<title>Node12&#45;&gt;Node11</title>
<path fill="none" stroke="#191970" d="M1446.2506,-86.6175C1237.6947,-81.3139 510.1856,-61.5833 408,-42 405.0735,-41.4391 402.0968,-40.763 399.1132,-40.0021"/>
<polygon fill="#191970" stroke="#191970" points="1446.2783,-90.1193 1456.3638,-86.8737 1446.4557,-83.1215 1446.2783,-90.1193"/>
</g>
<!-- Node12&#45;&gt;Node13 -->
<g id="edge9" class="edge">
<title>Node12&#45;&gt;Node13</title>
<path fill="none" stroke="#191970" d="M1445.8152,-86.2773C1287.6678,-81.1922 840.8499,-65.1399 696,-42 679.6038,-39.3807 661.6934,-34.7692 647.0777,-30.5335"/>
<polygon fill="#191970" stroke="#191970" points="1446.1455,-89.7895 1456.2521,-86.6104 1446.3689,-82.7931 1446.1455,-89.7895"/>
</g>
<!-- Node12&#45;&gt;Node14 -->
<g id="edge10" class="edge">
<title>Node12&#45;&gt;Node14</title>
<path fill="none" stroke="#191970" d="M1483.7099,-71.44C1469.515,-58.5879 1450.3339,-41.2212 1438.5827,-30.5817"/>
<polygon fill="#191970" stroke="#191970" points="1481.6355,-74.2833 1491.3976,-78.4005 1486.3337,-69.0942 1481.6355,-74.2833"/>
</g>
<!-- Node12&#45;&gt;Node15 -->
<g id="edge11" class="edge">
<title>Node12&#45;&gt;Node15</title>
<path fill="none" stroke="#191970" d="M1520.2901,-71.44C1534.485,-58.5879 1553.6661,-41.2212 1565.4173,-30.5817"/>
<polygon fill="#191970" stroke="#191970" points="1517.6663,-69.0942 1512.6024,-78.4005 1522.3645,-74.2833 1517.6663,-69.0942"/>
</g>
<!-- Node12&#45;&gt;Node16 -->
<g id="edge12" class="edge">
<title>Node12&#45;&gt;Node16</title>
<path fill="none" stroke="#191970" d="M1544.0192,-75.4833C1572.8892,-66.6626 1611.9949,-54.2785 1646,-42 1651.1282,-40.1483 1656.5011,-38.1019 1661.7662,-36.0345"/>
<polygon fill="#191970" stroke="#191970" points="1542.8101,-72.1926 1534.2595,-78.4486 1544.8452,-78.8902 1542.8101,-72.1926"/>
</g>
<!-- Node12&#45;&gt;Node17 -->
<g id="edge13" class="edge">
<title>Node12&#45;&gt;Node17</title>
<path fill="none" stroke="#191970" d="M1446.3206,-86.2034C1254.3822,-79.8912 627.1769,-58.2355 538,-42 530.0663,-40.5556 521.7611,-38.3968 513.8417,-36.0051"/>
<polygon fill="#191970" stroke="#191970" points="1446.3575,-89.7064 1456.4668,-86.5361 1446.5869,-82.7101 1446.3575,-89.7064"/>
</g>
<!-- Node12&#45;&gt;Node18 -->
<g id="edge14" class="edge">
<title>Node12&#45;&gt;Node18</title>
<path fill="none" stroke="#191970" d="M1446.0396,-85.9547C1306.2113,-80.5612 944.3252,-64.7829 826,-42 818.3142,-40.5201 810.271,-38.4075 802.5656,-36.0868"/>
<polygon fill="#191970" stroke="#191970" points="1445.9862,-89.4552 1456.1128,-86.3401 1446.2539,-82.4603 1445.9862,-89.4552"/>
</g>
<!-- Node12&#45;&gt;Node19 -->
<g id="edge15" class="edge">
<title>Node12&#45;&gt;Node19</title>
<path fill="none" stroke="#191970" d="M1446.1245,-84.9168C1326.4363,-78.0474 1048.6615,-60.6167 956,-42 948.4426,-40.4816 940.5326,-38.3805 932.9361,-36.0904"/>
<polygon fill="#191970" stroke="#191970" points="1445.9952,-88.415 1456.1784,-85.4903 1446.394,-81.4264 1445.9952,-88.415"/>
</g>
<!-- Node12&#45;&gt;Node20 -->
<g id="edge16" class="edge">
<title>Node12&#45;&gt;Node20</title>
<path fill="none" stroke="#191970" d="M1445.8798,-85.4019C1365.4194,-80.8648 1212.9777,-69.2384 1086,-42 1078.579,-40.4081 1070.806,-38.2997 1063.3209,-36.0324"/>
<polygon fill="#191970" stroke="#191970" points="1446.0968,-88.9189 1456.2732,-85.9709 1446.4795,-81.9294 1446.0968,-88.9189"/>
</g>
<!-- Node12&#45;&gt;Node21 -->
<g id="edge17" class="edge">
<title>Node12&#45;&gt;Node21</title>
<path fill="none" stroke="#191970" d="M1557.6232,-79.4492C1608.1253,-71.268 1684.499,-57.8508 1750,-42 1757.2758,-40.2393 1764.9161,-38.1747 1772.3663,-36.0399"/>
<polygon fill="#191970" stroke="#191970" points="1556.8841,-76.0229 1547.5657,-81.0646 1557.9943,-82.9343 1556.8841,-76.0229"/>
</g>
<!-- Node12&#45;&gt;Node22 -->
<g id="edge18" class="edge">
<title>Node12&#45;&gt;Node22</title>
<path fill="none" stroke="#191970" d="M1558.0609,-84.2849C1633.915,-78.5933 1773.1919,-65.7876 1890,-42 1898.0381,-40.3631 1906.4805,-38.26 1914.6413,-36.0194"/>
<polygon fill="#191970" stroke="#191970" points="1557.5034,-80.8163 1547.7874,-85.0412 1558.0174,-87.7974 1557.5034,-80.8163"/>
</g>
<!-- Node12&#45;&gt;Node23 -->
<g id="edge19" class="edge">
<title>Node12&#45;&gt;Node23</title>
<path fill="none" stroke="#191970" d="M1558.0867,-84.762C1675.5868,-77.715 1944.139,-60.157 2034,-42 2036.906,-41.4128 2039.8644,-40.74 2042.8371,-40.004"/>
<polygon fill="#191970" stroke="#191970" points="1557.6437,-81.2821 1547.8697,-85.3711 1558.0603,-88.2697 1557.6437,-81.2821"/>
</g>
<!-- Node12&#45;&gt;Node24 -->
<g id="edge20" class="edge">
<title>Node12&#45;&gt;Node24</title>
<path fill="none" stroke="#191970" d="M1558.1978,-85.8523C1696.1285,-80.2984 2048.5215,-64.3206 2164,-42 2166.9109,-41.4374 2169.8731,-40.7843 2172.8489,-40.064"/>
<polygon fill="#191970" stroke="#191970" points="1557.7146,-82.3688 1547.8623,-86.2651 1557.994,-89.3632 1557.7146,-82.3688"/>
</g>
<!-- Node12&#45;&gt;Node25 -->
<g id="edge21" class="edge">
<title>Node12&#45;&gt;Node25</title>
<path fill="none" stroke="#191970" d="M1558.0283,-86.2172C1714.1474,-81.0152 2151.9186,-64.7709 2294,-42 2310.3949,-39.3724 2328.3052,-34.7602 2342.9212,-30.5263"/>
<polygon fill="#191970" stroke="#191970" points="1557.5987,-82.7294 1547.7199,-86.5582 1557.8302,-89.7255 1557.5987,-82.7294"/>
</g>
<!-- Node12&#45;&gt;Node26 -->
<g id="edge22" class="edge">
<title>Node12&#45;&gt;Node26</title>
<path fill="none" stroke="#191970" d="M1557.761,-86.8252C1734.039,-82.8713 2277.8797,-68.7693 2452,-42 2468.6054,-39.4471 2486.7427,-34.8413 2501.543,-30.5923"/>
<polygon fill="#191970" stroke="#191970" points="1557.5896,-83.3281 1547.6699,-87.0495 1557.7452,-90.3263 1557.5896,-83.3281"/>
</g>
<!-- Node12&#45;&gt;Node27 -->
<g id="edge24" class="edge">
<title>Node12&#45;&gt;Node27</title>
<path fill="none" stroke="#191970" d="M1557.9143,-86.7047C1768.7989,-81.6797 2509.272,-62.7229 2613,-42 2620.0324,-40.5951 2627.3505,-38.4548 2634.3064,-36.069"/>
<polygon fill="#191970" stroke="#191970" points="1557.6064,-83.2109 1547.6923,-86.9472 1557.7725,-90.209 1557.6064,-83.2109"/>
</g>
<!-- Node12&#45;&gt;Node28 -->
<g id="edge25" class="edge">
<title>Node12&#45;&gt;Node28</title>
<path fill="none" stroke="#191970" d="M1557.9165,-87.8127C1766.4153,-86.8176 2498.3253,-80.5915 2728,-42 2736.397,-40.5891 2745.2015,-38.446 2753.6046,-36.0593"/>
<polygon fill="#191970" stroke="#191970" points="1557.7933,-84.3131 1547.8094,-87.8588 1557.8253,-91.3131 1557.7933,-84.3131"/>
</g>
<!-- Node12&#45;&gt;Node29 -->
<g id="edge27" class="edge">
<title>Node12&#45;&gt;Node29</title>
<path fill="none" stroke="#191970" d="M1557.7867,-87.712C1780.6962,-86.3148 2607.8784,-78.7139 2867,-42 2877.0074,-40.5821 2887.5546,-38.4358 2897.6487,-36.048"/>
<polygon fill="#191970" stroke="#191970" points="1557.6118,-84.2129 1547.6334,-87.7739 1557.6546,-91.2127 1557.6118,-84.2129"/>
</g>
<!-- Node12&#45;&gt;Node30 -->
<g id="edge28" class="edge">
<title>Node12&#45;&gt;Node30</title>
<path fill="none" stroke="#191970" d="M1446.3494,-81.454C1388.7418,-74.1036 1296.3718,-60.7073 1218,-42 1210.8656,-40.297 1203.3838,-38.2133 1196.1253,-36.0269"/>
<polygon fill="#191970" stroke="#191970" points="1445.9804,-84.9351 1456.3395,-82.7125 1446.8553,-77.99 1445.9804,-84.9351"/>
</g>
<!-- Node12&#45;&gt;Node31 -->
<g id="edge29" class="edge">
<title>Node12&#45;&gt;Node31</title>
<path fill="none" stroke="#191970" d="M1460.6371,-75.4971C1430.2766,-66.2961 1388.05,-53.4495 1351,-42 1344.8274,-40.0925 1338.3388,-38.0747 1331.9298,-36.074"/>
<polygon fill="#191970" stroke="#191970" points="1459.8685,-78.9212 1470.4538,-78.4703 1461.8977,-72.2218 1459.8685,-78.9212"/>
</g>
</g>
</svg>
        <g id="navigator" transform="translate(0 0)" fill="#404254">
                <rect fill="#f2f5e9" fill-opacity="0.5" stroke="#606060" stroke-width=".5" x="0" y="0" width="60" height="60"/>
                <use id="zoomplus" xlink:href="#zoomPlus" x="17" y="9" onmousedown="handleZoom(evt,'in')"/>
                <use id="zoomminus" xlink:href="#zoomMin" x="42" y="9" onmousedown="handleZoom(evt,'out')"/>
                <use id="reset" xlink:href="#resetDef" x="30" y="36" onmousedown="handleReset()"/>
                <g id="arrowUp" xlink:href="#dirArrow" transform="translate(30 24)" onmousedown="handlePan(0,-1)">
                  <use xlink:href="#rim" fill="#404040">
                        <set attributeName="fill" to="#808080" begin="arrowUp.mouseover" end="arrowUp.mouseout"/>
                  </use>
                  <path fill="none" stroke="white" stroke-width="1.5" d="M0,-3.0v7 M-2.5,-0.5L0,-3.0L2.5,-0.5"/>
                </g>
                <g id="arrowRight" xlink:href="#dirArrow" transform="rotate(90) translate(36 -43)" onmousedown="handlePan(1,0)">
                  <use xlink:href="#rim" fill="#404040">
                        <set attributeName="fill" to="#808080" begin="arrowRight.mouseover" end="arrowRight.mouseout"/>
                  </use>
                  <path fill="none" stroke="white" stroke-width="1.5" d="M0,-3.0v7 M-2.5,-0.5L0,-3.0L2.5,-0.5"/>
                </g>
                <g id="arrowDown" xlink:href="#dirArrow" transform="rotate(180) translate(-30 -48)" onmousedown="handlePan(0,1)">
                  <use xlink:href="#rim" fill="#404040">
                        <set attributeName="fill" to="#808080" begin="arrowDown.mouseover" end="arrowDown.mouseout"/>
                  </use>
                  <path fill="none" stroke="white" stroke-width="1.5" d="M0,-3.0v7 M-2.5,-0.5L0,-3.0L2.5,-0.5"/>
                </g>
                <g id="arrowLeft" xlink:href="#dirArrow" transform="rotate(270) translate(-36 17)" onmousedown="handlePan(-1,0)">
                  <use xlink:href="#rim" fill="#404040">
                        <set attributeName="fill" to="#808080" begin="arrowLeft.mouseover" end="arrowLeft.mouseout"/>
                  </use>
                  <path fill="none" stroke="white" stroke-width="1.5" d="M0,-3.0v7 M-2.5,-0.5L0,-3.0L2.5,-0.5"/>
                </g>
        </g>
        <svg viewBox="0 0 15 15" width="100%" height="30px" preserveAspectRatio="xMaxYMin meet">
         <g id="arrow_out" transform="scale(0.3 0.3)">
          <a xlink:href="momenta_8h__dep__incl_org.svg" target="_base">
           <rect id="button" ry="5" rx="5" y="6" x="6" height="38" width="38"
                fill="#f2f5e9" fill-opacity="0.5" stroke="#606060" stroke-width="1.0"/>
           <path id="arrow"
             d="M 11.500037,31.436501 C 11.940474,20.09759 22.043105,11.32322 32.158766,21.979434 L 37.068811,17.246167 C 37.068811,17.246167 37.088388,32 37.088388,32 L 22.160133,31.978069 C 22.160133,31.978069 26.997745,27.140456 26.997745,27.140456 C 18.528582,18.264221 13.291696,25.230495 11.500037,31.436501 z"
             style="fill:#404040;"/>
          </a>
         </g>
        </svg>
</svg>
