<?xml version="1.0" encoding="UTF-8" standalone="no"?>
<!DOCTYPE svg PUBLIC "-//W3C//DTD SVG 1.1//EN"
 "http://www.w3.org/Graphics/SVG/1.1/DTD/svg11.dtd">
<!-- Generated by graphviz version 2.40.1 (20161225.0304)
 -->
<!-- Title: momenta.h Pages: 1 -->
<svg width="223pt" height="140pt"
 viewBox="0.00 0.00 222.50 140.00" xmlns="http://www.w3.org/2000/svg" xmlns:xlink="http://www.w3.org/1999/xlink">
<g id="graph0" class="graph" transform="scale(1 1) rotate(0) translate(4 136)">
<title>momenta.h</title>
<polygon fill="#ffffff" stroke="transparent" points="-4,4 -4,-136 218.5,-136 218.5,4 -4,4"/>
<!-- Node0 -->
<g id="node1" class="node">
<title>Node0</title>
<polygon fill="#bfbfbf" stroke="#000000" points="85.5,-112.5 85.5,-131.5 150.5,-131.5 150.5,-112.5 85.5,-112.5"/>
<text text-anchor="middle" x="118" y="-119.5" font-family="Helvetica,sans-Serif" font-size="10.00" fill="#000000">momenta.h</text>
</g>
<!-- Node1 -->
<g id="node2" class="node">
<title>Node1</title>
<polygon fill="#ffffff" stroke="#bfbfbf" points="0,-.5 0,-19.5 48,-19.5 48,-.5 0,-.5"/>
<text text-anchor="middle" x="24" y="-7.5" font-family="Helvetica,sans-Serif" font-size="10.00" fill="#000000">stdlib.h</text>
</g>
<!-- Node0&#45;&gt;Node1 -->
<g id="edge1" class="edge">
<title>Node0&#45;&gt;Node1</title>
<path fill="none" stroke="#191970" d="M100.6887,-112.3343C87.1482,-104.0862 68.5711,-91.1707 56,-76 44.4752,-62.092 35.8976,-43.3341 30.5394,-29.3705"/>
<polygon fill="#191970" stroke="#191970" points="33.7659,-28.0007 27.074,-19.7868 27.183,-30.381 33.7659,-28.0007"/>
</g>
<!-- Node2 -->
<g id="node3" class="node">
<title>Node2</title>
<polygon fill="#ffffff" stroke="#bfbfbf" points="134,-.5 134,-19.5 188,-19.5 188,-.5 134,-.5"/>
<text text-anchor="middle" x="161" y="-7.5" font-family="Helvetica,sans-Serif" font-size="10.00" fill="#000000">iostream</text>
</g>
<!-- Node0&#45;&gt;Node2 -->
<g id="edge2" class="edge">
<title>Node0&#45;&gt;Node2</title>
<path fill="none" stroke="#191970" d="M121.6662,-112.4509C128.7428,-94.0186 144.4045,-53.2254 153.6888,-29.043"/>
<polygon fill="#191970" stroke="#191970" points="157.0263,-30.115 157.3431,-19.5249 150.4914,-27.606 157.0263,-30.115"/>
</g>
<!-- Node3 -->
<g id="node4" class="node">
<title>Node3</title>
<g id="a_node4"><a xlink:href="$config_8h.html" xlink:title="config.h">
<polygon fill="#ffffff" stroke="#000000" points="65.5,-56.5 65.5,-75.5 116.5,-75.5 116.5,-56.5 65.5,-56.5"/>
<text text-anchor="middle" x="91" y="-63.5" font-family="Helvetica,sans-Serif" font-size="10.00" fill="#000000">config.h</text>
</a>
</g>
</g>
<!-- Node0&#45;&gt;Node3 -->
<g id="edge3" class="edge">
<title>Node0&#45;&gt;Node3</title>
<path fill="none" stroke="#191970" d="M113.297,-112.2455C109.6576,-104.6973 104.5076,-94.0158 100.0738,-84.8197"/>
<polygon fill="#191970" stroke="#191970" points="103.1449,-83.1303 95.6491,-75.6427 96.8395,-86.1704 103.1449,-83.1303"/>
</g>
<!-- Node5 -->
<g id="node6" class="node">
<title>Node5</title>
<polygon fill="#ffffff" stroke="#bfbfbf" points="173.5,-56.5 173.5,-75.5 214.5,-75.5 214.5,-56.5 173.5,-56.5"/>
<text text-anchor="middle" x="194" y="-63.5" font-family="Helvetica,sans-Serif" font-size="10.00" fill="#000000">mpi.h</text>
</g>
<!-- Node0&#45;&gt;Node5 -->
<g id="edge7" class="edge">
<title>Node0&#45;&gt;Node5</title>
<path fill="none" stroke="#191970" d="M131.2382,-112.2455C142.681,-103.814 159.4296,-91.4729 172.7475,-81.6598"/>
<polygon fill="#191970" stroke="#191970" points="174.9391,-84.3924 180.9135,-75.6427 170.7867,-78.757 174.9391,-84.3924"/>
</g>
<!-- Node3&#45;&gt;Node1 -->
<g id="edge5" class="edge">
<title>Node3&#45;&gt;Node1</title>
<path fill="none" stroke="#191970" d="M79.3295,-56.2455C69.4339,-47.9746 55.0373,-35.9416 43.4099,-26.2232"/>
<polygon fill="#191970" stroke="#191970" points="45.4542,-23.3703 35.5368,-19.6427 40.965,-28.7413 45.4542,-23.3703"/>
</g>
<!-- Node3&#45;&gt;Node2 -->
<g id="edge4" class="edge">
<title>Node3&#45;&gt;Node2</title>
<path fill="none" stroke="#191970" d="M103.1931,-56.2455C113.6321,-47.8943 128.8655,-35.7076 141.074,-25.9408"/>
<polygon fill="#191970" stroke="#191970" points="143.3244,-28.6227 148.9467,-19.6427 138.9515,-23.1566 143.3244,-28.6227"/>
</g>
<!-- Node4 -->
<g id="node5" class="node">
<title>Node4</title>
<polygon fill="#ffffff" stroke="#bfbfbf" points="66.5,-.5 66.5,-19.5 115.5,-19.5 115.5,-.5 66.5,-.5"/>
<text text-anchor="middle" x="91" y="-7.5" font-family="Helvetica,sans-Serif" font-size="10.00" fill="#000000">string.h</text>
</g>
<!-- Node3&#45;&gt;Node4 -->
<g id="edge6" class="edge">
<title>Node3&#45;&gt;Node4</title>
<path fill="none" stroke="#191970" d="M91,-56.2455C91,-48.9382 91,-38.6944 91,-29.7046"/>
<polygon fill="#191970" stroke="#191970" points="94.5001,-29.6426 91,-19.6427 87.5001,-29.6427 94.5001,-29.6426"/>
</g>
</g>
</svg>
