<?xml version="1.0" encoding="UTF-8" standalone="no"?>
<!DOCTYPE svg PUBLIC "-//W3C//DTD SVG 1.1//EN"
 "http://www.w3.org/Graphics/SVG/1.1/DTD/svg11.dtd">
<!-- Generated by graphviz version 2.40.1 (20161225.0304)
 -->
<!-- Title: mpi_fftw_class.h Pages: 1 -->
<svg width="3130pt" height="106pt"
 viewBox="0.00 0.00 3130.00 106.00" xmlns="http://www.w3.org/2000/svg" xmlns:xlink="http://www.w3.org/1999/xlink">
<g id="graph0" class="graph" transform="scale(1 1) rotate(0) translate(4 102)">
<title>mpi_fftw_class.h</title>
<polygon fill="#ffffff" stroke="transparent" points="-4,4 -4,-102 3126,-102 3126,4 -4,4"/>
<!-- Node27 -->
<g id="node1" class="node">
<title>Node27</title>
<polygon fill="#bfbfbf" stroke="#000000" points="1443.5,-78.5 1443.5,-97.5 1534.5,-97.5 1534.5,-78.5 1443.5,-78.5"/>
<text text-anchor="middle" x="1489" y="-85.5" font-family="Helvetica,sans-Serif" font-size="10.00" fill="#000000">mpi_fftw_class.h</text>
</g>
<!-- Node28 -->
<g id="node2" class="node">
<title>Node28</title>
<g id="a_node2"><a xlink:href="$main__explicit_8cpp.html" xlink:title="main_explicit.cpp">
<polygon fill="#ffffff" stroke="#000000" points="0,-11.5 0,-30.5 92,-30.5 92,-11.5 0,-11.5"/>
<text text-anchor="middle" x="46" y="-18.5" font-family="Helvetica,sans-Serif" font-size="10.00" fill="#000000">main_explicit.cpp</text>
</a>
</g>
</g>
<!-- Node27&#45;&gt;Node28 -->
<g id="edge1" class="edge">
<title>Node27&#45;&gt;Node28</title>
<path fill="none" stroke="#191970" d="M1433.28,-87.2418C1190.7008,-83.7933 232.9378,-68.5984 101,-42 89.0769,-39.5963 76.3542,-34.8896 66.1516,-30.5404"/>
<polygon fill="#191970" stroke="#191970" points="1433.2372,-90.7414 1443.2857,-87.3831 1433.3362,-83.7421 1433.2372,-90.7414"/>
</g>
<!-- Node29 -->
<g id="node3" class="node">
<title>Node29</title>
<g id="a_node3"><a xlink:href="$main__omp_8cpp.html" xlink:title="main_omp.cpp">
<polygon fill="#ffffff" stroke="#000000" points="110,-11.5 110,-30.5 190,-30.5 190,-11.5 110,-11.5"/>
<text text-anchor="middle" x="150" y="-18.5" font-family="Helvetica,sans-Serif" font-size="10.00" fill="#000000">main_omp.cpp</text>
</a>
</g>
</g>
<!-- Node27&#45;&gt;Node29 -->
<g id="edge2" class="edge">
<title>Node27&#45;&gt;Node29</title>
<path fill="none" stroke="#191970" d="M1433.089,-87.2177C1201.0482,-83.8062 320.3509,-69.1705 199,-42 188.3426,-39.6138 177.0993,-34.9657 168.0745,-30.6478"/>
<polygon fill="#191970" stroke="#191970" points="1433.2732,-90.7206 1443.3232,-87.367 1433.3754,-83.7214 1433.2732,-90.7206"/>
</g>
<!-- Node30 -->
<g id="node4" class="node">
<title>Node30</title>
<g id="a_node4"><a xlink:href="$test__accumulation_8cpp.html" xlink:title="tests/test_accumulation.cpp">
<polygon fill="#ffffff" stroke="#000000" points="208,-11.5 208,-30.5 348,-30.5 348,-11.5 208,-11.5"/>
<text text-anchor="middle" x="278" y="-18.5" font-family="Helvetica,sans-Serif" font-size="10.00" fill="#000000">tests/test_accumulation.cpp</text>
</a>
</g>
</g>
<!-- Node27&#45;&gt;Node30 -->
<g id="edge3" class="edge">
<title>Node27&#45;&gt;Node30</title>
<path fill="none" stroke="#191970" d="M1433.1952,-87.3502C1235.3648,-84.7942 568.1175,-73.9535 357,-42 340.4425,-39.494 322.3644,-34.8364 307.6852,-30.5433"/>
<polygon fill="#191970" stroke="#191970" points="1433.3144,-90.8519 1443.3581,-87.4795 1433.4035,-83.8525 1433.3144,-90.8519"/>
</g>
<!-- Node31 -->
<g id="node5" class="node">
<title>Node31</title>
<g id="a_node5"><a xlink:href="$test__exponentiate_8cpp.html" xlink:title="tests/test_exponentiate.cpp">
<polygon fill="#ffffff" stroke="#000000" points="366.5,-11.5 366.5,-30.5 503.5,-30.5 503.5,-11.5 366.5,-11.5"/>
<text text-anchor="middle" x="435" y="-18.5" font-family="Helvetica,sans-Serif" font-size="10.00" fill="#000000">tests/test_exponentiate.cpp</text>
</a>
</g>
</g>
<!-- Node27&#45;&gt;Node31 -->
<g id="edge4" class="edge">
<title>Node27&#45;&gt;Node31</title>
<path fill="none" stroke="#191970" d="M1433.2169,-86.9537C1253.7122,-83.3379 692.3055,-70.0254 513,-42 496.6503,-39.4445 478.8009,-34.7832 464.308,-30.5002"/>
<polygon fill="#191970" stroke="#191970" points="1433.1658,-90.4533 1443.2336,-87.1533 1433.3053,-83.4546 1433.1658,-90.4533"/>
</g>
<!-- Node32 -->
<g id="node6" class="node">
<title>Node32</title>
<g id="a_node6"><a xlink:href="$test__hermitian_8cpp.html" xlink:title="tests/test_hermitian.cpp">
<polygon fill="#ffffff" stroke="#000000" points="522,-11.5 522,-30.5 644,-30.5 644,-11.5 522,-11.5"/>
<text text-anchor="middle" x="583" y="-18.5" font-family="Helvetica,sans-Serif" font-size="10.00" fill="#000000">tests/test_hermitian.cpp</text>
</a>
</g>
</g>
<!-- Node27&#45;&gt;Node32 -->
<g id="edge5" class="edge">
<title>Node27&#45;&gt;Node32</title>
<path fill="none" stroke="#191970" d="M1433.1679,-86.6489C1271.2765,-82.4584 803.6151,-68.3525 653,-42 638.3773,-39.4415 622.4993,-34.8352 609.5677,-30.5874"/>
<polygon fill="#191970" stroke="#191970" points="1433.2963,-90.1532 1443.3826,-86.9106 1433.4756,-83.1555 1433.2963,-90.1532"/>
</g>
<!-- Node33 -->
<g id="node7" class="node">
<title>Node33</title>
<g id="a_node7"><a xlink:href="$test__initial__condition_8cpp.html" xlink:title="tests/test_initial\l_condition.cpp">
<polygon fill="#ffffff" stroke="#000000" points="662,-6 662,-36 748,-36 748,-6 662,-6"/>
<text text-anchor="start" x="670" y="-24" font-family="Helvetica,sans-Serif" font-size="10.00" fill="#000000">tests/test_initial</text>
<text text-anchor="middle" x="705" y="-13" font-family="Helvetica,sans-Serif" font-size="10.00" fill="#000000">_condition.cpp</text>
</a>
</g>
</g>
<!-- Node27&#45;&gt;Node33 -->
<g id="edge6" class="edge">
<title>Node27&#45;&gt;Node33</title>
<path fill="none" stroke="#191970" d="M1433.0052,-86.7985C1284.9183,-83.2513 885.5383,-71.1878 757,-42 750.6387,-40.5555 744.0453,-38.4287 737.7771,-36.0756"/>
<polygon fill="#191970" stroke="#191970" points="1433.1463,-90.3027 1443.226,-87.0393 1433.3113,-83.3046 1433.1463,-90.3027"/>
</g>
<!-- Node34 -->
<g id="node8" class="node">
<title>Node34</title>
<g id="a_node8"><a xlink:href="$test__initial__condition__fftw1d_8cpp.html" xlink:title="tests/test_initial\l_condition_fftw1d.cpp">
<polygon fill="#ffffff" stroke="#000000" points="766,-6 766,-36 878,-36 878,-6 766,-6"/>
<text text-anchor="start" x="774" y="-24" font-family="Helvetica,sans-Serif" font-size="10.00" fill="#000000">tests/test_initial</text>
<text text-anchor="middle" x="822" y="-13" font-family="Helvetica,sans-Serif" font-size="10.00" fill="#000000">_condition_fftw1d.cpp</text>
</a>
</g>
</g>
<!-- Node27&#45;&gt;Node34 -->
<g id="edge7" class="edge">
<title>Node27&#45;&gt;Node34</title>
<path fill="none" stroke="#191970" d="M1433.3992,-85.433C1304.9699,-79.2316 990.7627,-62.4271 887,-42 879.3204,-40.4882 871.2803,-38.3601 863.5759,-36.0339"/>
<polygon fill="#191970" stroke="#191970" points="1433.2605,-88.9303 1443.4167,-85.9134 1433.5958,-81.9384 1433.2605,-88.9303"/>
</g>
<!-- Node35 -->
<g id="node9" class="node">
<title>Node35</title>
<g id="a_node9"><a xlink:href="$test__momentum__coupling_8cpp.html" xlink:title="tests/test_momentum\l_coupling.cpp">
<polygon fill="#ffffff" stroke="#000000" points="896,-6 896,-36 1008,-36 1008,-6 896,-6"/>
<text text-anchor="start" x="904" y="-24" font-family="Helvetica,sans-Serif" font-size="10.00" fill="#000000">tests/test_momentum</text>
<text text-anchor="middle" x="952" y="-13" font-family="Helvetica,sans-Serif" font-size="10.00" fill="#000000">_coupling.cpp</text>
</a>
</g>
</g>
<!-- Node27&#45;&gt;Node35 -->
<g id="edge8" class="edge">
<title>Node27&#45;&gt;Node35</title>
<path fill="none" stroke="#191970" d="M1433.1428,-86.4408C1344.2031,-83.0918 1165.2982,-72.8066 1017,-42 1009.4527,-40.4322 1001.5476,-38.3067 993.953,-36.0078"/>
<polygon fill="#191970" stroke="#191970" points="1433.1568,-89.9435 1443.2766,-86.8068 1433.4095,-82.948 1433.1568,-89.9435"/>
</g>
<!-- Node36 -->
<g id="node10" class="node">
<title>Node36</title>
<g id="a_node10"><a xlink:href="$test__momentum__coupling__fft_8cpp.html" xlink:title="tests/test_momentum\l_coupling_fft.cpp">
<polygon fill="#ffffff" stroke="#000000" points="1026,-6 1026,-36 1138,-36 1138,-6 1026,-6"/>
<text text-anchor="start" x="1034" y="-24" font-family="Helvetica,sans-Serif" font-size="10.00" fill="#000000">tests/test_momentum</text>
<text text-anchor="middle" x="1082" y="-13" font-family="Helvetica,sans-Serif" font-size="10.00" fill="#000000">_coupling_fft.cpp</text>
</a>
</g>
</g>
<!-- Node27&#45;&gt;Node36 -->
<g id="edge9" class="edge">
<title>Node27&#45;&gt;Node36</title>
<path fill="none" stroke="#191970" d="M1433.3681,-83.5966C1365.2393,-77.5001 1246.6131,-64.5995 1147,-42 1139.8296,-40.3732 1132.3198,-38.3027 1125.0556,-36.0987"/>
<polygon fill="#191970" stroke="#191970" points="1433.1837,-87.0938 1443.4516,-84.4821 1433.7961,-80.1206 1433.1837,-87.0938"/>
</g>
<!-- Node37 -->
<g id="node11" class="node">
<title>Node37</title>
<g id="a_node11"><a xlink:href="$test__momentum__evolution_8cpp.html" xlink:title="tests/test_momentum\l_evolution.cpp">
<polygon fill="#ffffff" stroke="#000000" points="1156,-6 1156,-36 1268,-36 1268,-6 1156,-6"/>
<text text-anchor="start" x="1164" y="-24" font-family="Helvetica,sans-Serif" font-size="10.00" fill="#000000">tests/test_momentum</text>
<text text-anchor="middle" x="1212" y="-13" font-family="Helvetica,sans-Serif" font-size="10.00" fill="#000000">_evolution.cpp</text>
</a>
</g>
</g>
<!-- Node27&#45;&gt;Node37 -->
<g id="edge10" class="edge">
<title>Node27&#45;&gt;Node37</title>
<path fill="none" stroke="#191970" d="M1433.2187,-77.4632C1390.2543,-68.9704 1329.5207,-56.145 1277,-42 1270.3584,-40.2113 1263.3898,-38.1551 1256.5833,-36.0445"/>
<polygon fill="#191970" stroke="#191970" points="1432.7092,-80.9299 1443.196,-79.4207 1434.0569,-74.0608 1432.7092,-80.9299"/>
</g>
<!-- Node38 -->
<g id="node12" class="node">
<title>Node38</title>
<g id="a_node12"><a xlink:href="$test__momentum__evolution__coupling_8cpp.html" xlink:title="tests/test_momentum\l_evolution_coupling.cpp">
<polygon fill="#ffffff" stroke="#000000" points="1286.5,-6 1286.5,-36 1407.5,-36 1407.5,-6 1286.5,-6"/>
<text text-anchor="start" x="1294.5" y="-24" font-family="Helvetica,sans-Serif" font-size="10.00" fill="#000000">tests/test_momentum</text>
<text text-anchor="middle" x="1347" y="-13" font-family="Helvetica,sans-Serif" font-size="10.00" fill="#000000">_evolution_coupling.cpp</text>
</a>
</g>
</g>
<!-- Node27&#45;&gt;Node38 -->
<g id="edge11" class="edge">
<title>Node27&#45;&gt;Node38</title>
<path fill="none" stroke="#191970" d="M1459.4998,-74.0809C1435.9413,-62.9653 1402.9897,-47.4177 1378.8372,-36.0218"/>
<polygon fill="#191970" stroke="#191970" points="1458.1175,-77.2987 1468.6549,-78.4005 1461.1045,-70.968 1458.1175,-77.2987"/>
</g>
<!-- Node39 -->
<g id="node13" class="node">
<title>Node39</title>
<g id="a_node13"><a xlink:href="$test__momentum__evolution__coupling2_8cpp.html" xlink:title="tests/test_momentum\l_evolution_coupling2.cpp">
<polygon fill="#ffffff" stroke="#000000" points="1426,-6 1426,-36 1552,-36 1552,-6 1426,-6"/>
<text text-anchor="start" x="1434" y="-24" font-family="Helvetica,sans-Serif" font-size="10.00" fill="#000000">tests/test_momentum</text>
<text text-anchor="middle" x="1489" y="-13" font-family="Helvetica,sans-Serif" font-size="10.00" fill="#000000">_evolution_coupling2.cpp</text>
</a>
</g>
</g>
<!-- Node27&#45;&gt;Node39 -->
<g id="edge12" class="edge">
<title>Node27&#45;&gt;Node39</title>
<path fill="none" stroke="#191970" d="M1489,-68.2758C1489,-57.9641 1489,-45.5437 1489,-36.0218"/>
<polygon fill="#191970" stroke="#191970" points="1485.5001,-68.4005 1489,-78.4005 1492.5001,-68.4006 1485.5001,-68.4005"/>
</g>
<!-- Node40 -->
<g id="node14" class="node">
<title>Node40</title>
<g id="a_node14"><a xlink:href="$test__momentum__evolution__coupling__lambda_8cpp.html" xlink:title="tests/test_momentum\l_evolution_coupling\l_lambda.cpp">
<polygon fill="#ffffff" stroke="#000000" points="1570,-.5 1570,-41.5 1682,-41.5 1682,-.5 1570,-.5"/>
<text text-anchor="start" x="1578" y="-29.5" font-family="Helvetica,sans-Serif" font-size="10.00" fill="#000000">tests/test_momentum</text>
<text text-anchor="start" x="1578" y="-18.5" font-family="Helvetica,sans-Serif" font-size="10.00" fill="#000000">_evolution_coupling</text>
<text text-anchor="middle" x="1626" y="-7.5" font-family="Helvetica,sans-Serif" font-size="10.00" fill="#000000">_lambda.cpp</text>
</a>
</g>
</g>
<!-- Node27&#45;&gt;Node40 -->
<g id="edge13" class="edge">
<title>Node27&#45;&gt;Node40</title>
<path fill="none" stroke="#191970" d="M1517.7412,-73.9441C1536.8897,-64.5795 1562.3779,-52.1145 1583.8127,-41.6318"/>
<polygon fill="#191970" stroke="#191970" points="1516.0744,-70.8631 1508.6288,-78.4005 1519.1497,-77.1513 1516.0744,-70.8631"/>
</g>
<!-- Node41 -->
<g id="node15" class="node">
<title>Node41</title>
<g id="a_node15"><a xlink:href="$test__momentum__evolution__coupling__lambda__noise_8cpp.html" xlink:title="tests/test_momentum\l_evolution_coupling\l_lambda_noise.cpp">
<polygon fill="#ffffff" stroke="#000000" points="1700,-.5 1700,-41.5 1812,-41.5 1812,-.5 1700,-.5"/>
<text text-anchor="start" x="1708" y="-29.5" font-family="Helvetica,sans-Serif" font-size="10.00" fill="#000000">tests/test_momentum</text>
<text text-anchor="start" x="1708" y="-18.5" font-family="Helvetica,sans-Serif" font-size="10.00" fill="#000000">_evolution_coupling</text>
<text text-anchor="middle" x="1756" y="-7.5" font-family="Helvetica,sans-Serif" font-size="10.00" fill="#000000">_lambda_noise.cpp</text>
</a>
</g>
</g>
<!-- Node27&#45;&gt;Node41 -->
<g id="edge14" class="edge">
<title>Node27&#45;&gt;Node41</title>
<path fill="none" stroke="#191970" d="M1544.6226,-76.7204C1585.3812,-68.1192 1641.9231,-55.4873 1691,-42 1693.8588,-41.2144 1696.7791,-40.3819 1699.7216,-39.5192"/>
<polygon fill="#191970" stroke="#191970" points="1543.6836,-73.3411 1534.6144,-78.8184 1545.1198,-80.1922 1543.6836,-73.3411"/>
</g>
<!-- Node42 -->
<g id="node16" class="node">
<title>Node42</title>
<g id="a_node16"><a xlink:href="$test__multiplication_8cpp.html" xlink:title="tests/test_multiplication.cpp">
<polygon fill="#ffffff" stroke="#000000" points="1830.5,-11.5 1830.5,-30.5 1969.5,-30.5 1969.5,-11.5 1830.5,-11.5"/>
<text text-anchor="middle" x="1900" y="-18.5" font-family="Helvetica,sans-Serif" font-size="10.00" fill="#000000">tests/test_multiplication.cpp</text>
</a>
</g>
</g>
<!-- Node27&#45;&gt;Node42 -->
<g id="edge15" class="edge">
<title>Node27&#45;&gt;Node42</title>
<path fill="none" stroke="#191970" d="M1544.8928,-82.3651C1611.1596,-75.1989 1724.7532,-61.3846 1821,-42 1836.4426,-38.8898 1853.3458,-34.5286 1867.5398,-30.5861"/>
<polygon fill="#191970" stroke="#191970" points="1544.2448,-78.9143 1534.6737,-83.458 1544.9892,-85.8746 1544.2448,-78.9143"/>
</g>
<!-- Node43 -->
<g id="node17" class="node">
<title>Node43</title>
<g id="a_node17"><a xlink:href="$test__noise__vectors_8cpp.html" xlink:title="tests/test_noise_vectors.cpp">
<polygon fill="#ffffff" stroke="#000000" points="1987.5,-11.5 1987.5,-30.5 2130.5,-30.5 2130.5,-11.5 1987.5,-11.5"/>
<text text-anchor="middle" x="2059" y="-18.5" font-family="Helvetica,sans-Serif" font-size="10.00" fill="#000000">tests/test_noise_vectors.cpp</text>
</a>
</g>
</g>
<!-- Node27&#45;&gt;Node43 -->
<g id="edge16" class="edge">
<title>Node27&#45;&gt;Node43</title>
<path fill="none" stroke="#191970" d="M1544.7193,-85.7295C1636.0491,-81.3471 1823.0482,-69.5987 1979,-42 1995.1193,-39.1474 2012.7466,-34.671 2027.3423,-30.5827"/>
<polygon fill="#191970" stroke="#191970" points="1544.4186,-82.2397 1534.5934,-86.2038 1544.7463,-89.232 1544.4186,-82.2397"/>
</g>
<!-- Node44 -->
<g id="node18" class="node">
<title>Node44</title>
<g id="a_node18"><a xlink:href="$test__noise__vectors__and__cholesky__decomposition_8cpp.html" xlink:title="tests/test_noise_vectors\l_and_cholesky_decomposition.cpp">
<polygon fill="#ffffff" stroke="#000000" points="2148.5,-6 2148.5,-36 2317.5,-36 2317.5,-6 2148.5,-6"/>
<text text-anchor="start" x="2156.5" y="-24" font-family="Helvetica,sans-Serif" font-size="10.00" fill="#000000">tests/test_noise_vectors</text>
<text text-anchor="middle" x="2233" y="-13" font-family="Helvetica,sans-Serif" font-size="10.00" fill="#000000">_and_cholesky_decomposition.cpp</text>
</a>
</g>
</g>
<!-- Node27&#45;&gt;Node44 -->
<g id="edge17" class="edge">
<title>Node27&#45;&gt;Node44</title>
<path fill="none" stroke="#191970" d="M1544.7673,-86.9029C1657.6877,-84.0564 1921.244,-74.2371 2140,-42 2150.6441,-40.4314 2161.8785,-38.3056 2172.7173,-36.0065"/>
<polygon fill="#191970" stroke="#191970" points="1544.5498,-83.407 1534.6381,-87.1495 1544.7203,-90.405 1544.5498,-83.407"/>
</g>
<!-- Node45 -->
<g id="node19" class="node">
<title>Node45</title>
<g id="a_node19"><a xlink:href="$test__position__evolution_8cpp.html" xlink:title="tests/test_position\l_evolution.cpp">
<polygon fill="#ffffff" stroke="#000000" points="2335.5,-6 2335.5,-36 2432.5,-36 2432.5,-6 2335.5,-6"/>
<text text-anchor="start" x="2343.5" y="-24" font-family="Helvetica,sans-Serif" font-size="10.00" fill="#000000">tests/test_position</text>
<text text-anchor="middle" x="2384" y="-13" font-family="Helvetica,sans-Serif" font-size="10.00" fill="#000000">_evolution.cpp</text>
</a>
</g>
</g>
<!-- Node27&#45;&gt;Node45 -->
<g id="edge18" class="edge">
<title>Node27&#45;&gt;Node45</title>
<path fill="none" stroke="#191970" d="M1544.7666,-87.1003C1707.0133,-84.1409 2176.8204,-73.0554 2327,-42 2333.9195,-40.5691 2341.1213,-38.4488 2347.9838,-36.0979"/>
<polygon fill="#191970" stroke="#191970" points="1544.4668,-83.6051 1534.5312,-87.2837 1544.5923,-90.6039 1544.4668,-83.6051"/>
</g>
<!-- Node46 -->
<g id="node20" class="node">
<title>Node46</title>
<g id="a_node20"><a xlink:href="$test__position__evolution__coupling_8cpp.html" xlink:title="tests/test_position\l_evolution_coupling.cpp">
<polygon fill="#ffffff" stroke="#000000" points="2450.5,-6 2450.5,-36 2571.5,-36 2571.5,-6 2450.5,-6"/>
<text text-anchor="start" x="2458.5" y="-24" font-family="Helvetica,sans-Serif" font-size="10.00" fill="#000000">tests/test_position</text>
<text text-anchor="middle" x="2511" y="-13" font-family="Helvetica,sans-Serif" font-size="10.00" fill="#000000">_evolution_coupling.cpp</text>
</a>
</g>
</g>
<!-- Node27&#45;&gt;Node46 -->
<g id="edge19" class="edge">
<title>Node27&#45;&gt;Node46</title>
<path fill="none" stroke="#191970" d="M1544.6784,-87.1174C1721.3282,-84.0332 2267.7816,-72.2352 2442,-42 2450.266,-40.5655 2458.9315,-38.4434 2467.2212,-36.0919"/>
<polygon fill="#191970" stroke="#191970" points="1544.506,-83.6197 1534.5678,-87.2914 1544.6266,-90.6187 1544.506,-83.6197"/>
</g>
<!-- Node47 -->
<g id="node21" class="node">
<title>Node47</title>
<g id="a_node21"><a xlink:href="$test__position__evolution__coupling__noise_8cpp.html" xlink:title="tests/test_position\l_evolution_coupling\l_noise.cpp">
<polygon fill="#ffffff" stroke="#000000" points="2590,-.5 2590,-41.5 2692,-41.5 2692,-.5 2590,-.5"/>
<text text-anchor="start" x="2598" y="-29.5" font-family="Helvetica,sans-Serif" font-size="10.00" fill="#000000">tests/test_position</text>
<text text-anchor="start" x="2598" y="-18.5" font-family="Helvetica,sans-Serif" font-size="10.00" fill="#000000">_evolution_coupling</text>
<text text-anchor="middle" x="2641" y="-7.5" font-family="Helvetica,sans-Serif" font-size="10.00" fill="#000000">_noise.cpp</text>
</a>
</g>
</g>
<!-- Node27&#45;&gt;Node47 -->
<g id="edge20" class="edge">
<title>Node27&#45;&gt;Node47</title>
<path fill="none" stroke="#191970" d="M1544.8475,-87.8129C1738.3633,-86.8268 2379.3659,-80.6501 2581,-42 2583.9265,-41.439 2586.9031,-40.7628 2589.8867,-40.0019"/>
<polygon fill="#191970" stroke="#191970" points="1544.609,-84.3139 1534.6261,-87.8622 1544.6429,-91.3138 1544.609,-84.3139"/>
</g>
<!-- Node48 -->
<g id="node22" class="node">
<title>Node48</title>
<g id="a_node22"><a xlink:href="$test__position__evolution__hatta__coupling_8cpp.html" xlink:title="tests/test_position\l_evolution_hatta_coupling.cpp">
<polygon fill="#ffffff" stroke="#000000" points="2710,-6 2710,-36 2858,-36 2858,-6 2710,-6"/>
<text text-anchor="start" x="2718" y="-24" font-family="Helvetica,sans-Serif" font-size="10.00" fill="#000000">tests/test_position</text>
<text text-anchor="middle" x="2784" y="-13" font-family="Helvetica,sans-Serif" font-size="10.00" fill="#000000">_evolution_hatta_coupling.cpp</text>
</a>
</g>
</g>
<!-- Node27&#45;&gt;Node48 -->
<g id="edge21" class="edge">
<title>Node27&#45;&gt;Node48</title>
<path fill="none" stroke="#191970" d="M1544.5721,-87.4385C1750.9634,-85.1126 2473.2354,-74.7648 2701,-42 2711.0044,-40.5608 2721.5502,-38.4045 2731.6438,-36.0136"/>
<polygon fill="#191970" stroke="#191970" points="1544.5258,-83.9387 1534.5653,-87.5495 1544.6035,-90.9383 1544.5258,-83.9387"/>
</g>
<!-- Node49 -->
<g id="node23" class="node">
<title>Node49</title>
<g id="a_node23"><a xlink:href="$test__symmetrize__average_8cpp.html" xlink:title="tests/test_symmetrize\l_average.cpp">
<polygon fill="#ffffff" stroke="#000000" points="2876,-6 2876,-36 2990,-36 2990,-6 2876,-6"/>
<text text-anchor="start" x="2884" y="-24" font-family="Helvetica,sans-Serif" font-size="10.00" fill="#000000">tests/test_symmetrize</text>
<text text-anchor="middle" x="2933" y="-13" font-family="Helvetica,sans-Serif" font-size="10.00" fill="#000000">_average.cpp</text>
</a>
</g>
</g>
<!-- Node27&#45;&gt;Node49 -->
<g id="edge22" class="edge">
<title>Node27&#45;&gt;Node49</title>
<path fill="none" stroke="#191970" d="M1545.0428,-87.0375C1786.9617,-82.7593 2735.4566,-64.6766 2867,-42 2875.0577,-40.6109 2883.4915,-38.4781 2891.5331,-36.0947"/>
<polygon fill="#191970" stroke="#191970" points="1544.6638,-83.5435 1534.727,-87.2191 1544.7871,-90.5424 1544.6638,-83.5435"/>
</g>
<!-- Node50 -->
<g id="node24" class="node">
<title>Node50</title>
<g id="a_node24"><a xlink:href="$test__symmetrize__average2_8cpp.html" xlink:title="tests/test_symmetrize\l_average2.cpp">
<polygon fill="#ffffff" stroke="#000000" points="3008,-6 3008,-36 3122,-36 3122,-6 3008,-6"/>
<text text-anchor="start" x="3016" y="-24" font-family="Helvetica,sans-Serif" font-size="10.00" fill="#000000">tests/test_symmetrize</text>
<text text-anchor="middle" x="3065" y="-13" font-family="Helvetica,sans-Serif" font-size="10.00" fill="#000000">_average2.cpp</text>
</a>
</g>
</g>
<!-- Node27&#45;&gt;Node50 -->
<g id="edge23" class="edge">
<title>Node27&#45;&gt;Node50</title>
<path fill="none" stroke="#191970" d="M1544.9034,-87.215C1800.7547,-83.4984 2853.8138,-66.8106 2999,-42 3007.1783,-40.6024 3015.7426,-38.4326 3023.8909,-36.0085"/>
<polygon fill="#191970" stroke="#191970" points="1544.6765,-83.7179 1534.7281,-87.3621 1544.7777,-90.7171 1544.6765,-83.7179"/>
</g>
</g>
</svg>
