<?xml version="1.0" encoding="UTF-8" standalone="no"?>
<!DOCTYPE svg PUBLIC "-//W3C//DTD SVG 1.1//EN"
 "http://www.w3.org/Graphics/SVG/1.1/DTD/svg11.dtd">
<!-- Generated by graphviz version 2.40.1 (20161225.0304)
 -->
<!-- Title: mpi_class.h Pages: 1 -->
<!--zoomable 274 -->
<svg id="main" version="1.1" xmlns="http://www.w3.org/2000/svg" xmlns:xlink="http://www.w3.org/1999/xlink" xml:space="preserve" onload="init(evt)">
<style type="text/css"><![CDATA[
.edge:hover path { stroke: red; }
.edge:hover polygon { stroke: red; fill: red; }
]]></style>
<script type="text/javascript"><![CDATA[
var edges = document.getElementsByTagName('g');
if (edges && edges.length) {
  for (var i=0;i<edges.length;i++) {
    if (edges[i].id.substr(0,4)=='edge') {
      edges[i].setAttribute('class','edge');
    }
  }
}
]]></script>
        <defs>
                <circle id="rim" cx="0" cy="0" r="7"/>
                <circle id="rim2" cx="0" cy="0" r="3.5"/>
                <g id="zoomPlus">
                        <use xlink:href="#rim" fill="#404040">
                                <set attributeName="fill" to="#808080" begin="zoomplus.mouseover" end="zoomplus.mouseout"/>
                        </use>
                        <path d="M-4,0h8M0,-4v8" fill="none" stroke="white" stroke-width="1.5" pointer-events="none"/>
                </g>
                <g id="zoomMin">
                        <use xlink:href="#rim" fill="#404040">
                                <set attributeName="fill" to="#808080" begin="zoomminus.mouseover" end="zoomminus.mouseout"/>
                        </use>
                        <path d="M-4,0h8" fill="none" stroke="white" stroke-width="1.5" pointer-events="none"/>
                </g>
                <g id="dirArrow">
                        <path fill="none" stroke="white" stroke-width="1.5" d="M0,-3.0v7 M-2.5,-0.5L0,-3.0L2.5,-0.5"/>
                </g>
               <g id="resetDef">
                       <use xlink:href="#rim2" fill="#404040">
                               <set attributeName="fill" to="#808080" begin="reset.mouseover" end="reset.mouseout"/>
                       </use>
               </g>
        </defs>

<script type="text/javascript">
var viewWidth = 4107;
var viewHeight = 274;
var sectionId = 'dynsection-1';
</script>
<script xlink:href="svgpan.js"/>
<svg id="graph" class="graph">
<g id="viewport">
<title>mpi_class.h</title>
<polygon fill="#ffffff" stroke="transparent" points="-4,4 -4,-270 4102.5,-270 4102.5,4 -4,4"/>
<!-- Node6 -->
<g id="node1" class="node">
<title>Node6</title>
<polygon fill="#bfbfbf" stroke="#000000" points="2006.5,-246.5 2006.5,-265.5 2075.5,-265.5 2075.5,-246.5 2006.5,-246.5"/>
<text text-anchor="middle" x="2041" y="-253.5" font-family="Helvetica,sans-Serif" font-size="10.00" fill="#000000">mpi_class.h</text>
</g>
<!-- Node7 -->
<g id="node2" class="node">
<title>Node7</title>
<g id="a_node2"><a xlink:href="field_8h.html" target="_top" xlink:title="field.h">
<polygon fill="#ffffff" stroke="#000000" points="1811.5,-134.5 1811.5,-153.5 1854.5,-153.5 1854.5,-134.5 1811.5,-134.5"/>
<text text-anchor="middle" x="1833" y="-141.5" font-family="Helvetica,sans-Serif" font-size="10.00" fill="#000000">field.h</text>
</a>
</g>
</g>
<!-- Node6&#45;&gt;Node7 -->
<g id="edge1" class="edge">
<title>Node6&#45;&gt;Node7</title>
<path fill="none" stroke="#191970" d="M1996.2427,-250.3384C1947.0947,-243.2429 1872.4198,-229.5884 1852,-210 1836.3395,-194.9771 1833.3431,-167.9564 1832.9193,-153.5903"/>
<polygon fill="#191970" stroke="#191970" points="1995.9246,-253.828 2006.3142,-251.7527 1996.8981,-246.896 1995.9246,-253.828"/>
</g>
<!-- Node8 -->
<g id="node3" class="node">
<title>Node8</title>
<g id="a_node3"><a xlink:href="main__explicit_8cpp.html" target="_top" xlink:title="main_explicit.cpp">
<polygon fill="#ffffff" stroke="#000000" points="132,-11.5 132,-30.5 224,-30.5 224,-11.5 132,-11.5"/>
<text text-anchor="middle" x="178" y="-18.5" font-family="Helvetica,sans-Serif" font-size="10.00" fill="#000000">main_explicit.cpp</text>
</a>
</g>
</g>
<!-- Node6&#45;&gt;Node8 -->
<g id="edge105" class="edge">
<title>Node6&#45;&gt;Node8</title>
<path fill="none" stroke="#191970" d="M1995.8593,-255.5585C1734.0388,-252.9005 419.3416,-238.1864 339,-210 267.3541,-184.8643 251.9351,-161.296 210,-98 195.2883,-75.7945 185.1934,-45.7311 180.6788,-30.5769"/>
<polygon fill="#191970" stroke="#191970" points="1996.0991,-259.061 2006.1339,-255.6621 1996.1698,-252.0614 1996.0991,-259.061"/>
</g>
<!-- Node10 -->
<g id="node5" class="node">
<title>Node10</title>
<g id="a_node5"><a xlink:href="main__omp_8cpp.html" target="_top" xlink:title="main_omp.cpp">
<polygon fill="#ffffff" stroke="#000000" points="468,-11.5 468,-30.5 548,-30.5 548,-11.5 468,-11.5"/>
<text text-anchor="middle" x="508" y="-18.5" font-family="Helvetica,sans-Serif" font-size="10.00" fill="#000000">main_omp.cpp</text>
</a>
</g>
</g>
<!-- Node6&#45;&gt;Node10 -->
<g id="edge106" class="edge">
<title>Node6&#45;&gt;Node10</title>
<path fill="none" stroke="#191970" d="M1996.1977,-255.3468C1740.5916,-251.545 475.2475,-231.6858 396,-210 346.4931,-196.4526 332.6745,-188.8583 295,-154 267.4248,-128.486 234.5733,-107.3692 258,-78 283.8165,-45.6348 404.0917,-30.2104 467.9369,-24.195"/>
<polygon fill="#191970" stroke="#191970" points="1996.1882,-258.847 2006.239,-255.4956 1996.292,-251.8477 1996.1882,-258.847"/>
</g>
<!-- Node11 -->
<g id="node6" class="node">
<title>Node11</title>
<g id="a_node6"><a xlink:href="test__noise__vectors__and__cholesky__decomposition_8cpp.html" target="_top" xlink:title="tests/test_noise_vectors\l_and_cholesky_decomposition.cpp">
<polygon fill="#ffffff" stroke="#000000" points="566.5,-6 566.5,-36 735.5,-36 735.5,-6 566.5,-6"/>
<text text-anchor="start" x="574.5" y="-24" font-family="Helvetica,sans-Serif" font-size="10.00" fill="#000000">tests/test_noise_vectors</text>
<text text-anchor="middle" x="651" y="-13" font-family="Helvetica,sans-Serif" font-size="10.00" fill="#000000">_and_cholesky_decomposition.cpp</text>
</a>
</g>
</g>
<!-- Node6&#45;&gt;Node11 -->
<g id="edge125" class="edge">
<title>Node6&#45;&gt;Node11</title>
<path fill="none" stroke="#191970" d="M1996.1424,-255.2818C1769.6659,-251.5574 757.2472,-233.7006 619,-210 456.7704,-182.188 363.2078,-230.8254 266,-98 260.7504,-90.8269 260.1131,-84.6601 266,-78 309.1538,-29.1786 492.7956,-53.1164 557,-42 566.9683,-40.2741 577.4751,-38.1911 587.709,-36.0161"/>
<polygon fill="#191970" stroke="#191970" points="1996.2703,-258.7843 2006.3263,-255.4484 1996.3849,-251.7852 1996.2703,-258.7843"/>
</g>
<!-- Node12 -->
<g id="node7" class="node">
<title>Node12</title>
<g id="a_node7"><a xlink:href="test__position__evolution__coupling__noise_8cpp.html" target="_top" xlink:title="tests/test_position\l_evolution_coupling\l_noise.cpp">
<polygon fill="#ffffff" stroke="#000000" points="753,-.5 753,-41.5 855,-41.5 855,-.5 753,-.5"/>
<text text-anchor="start" x="761" y="-29.5" font-family="Helvetica,sans-Serif" font-size="10.00" fill="#000000">tests/test_position</text>
<text text-anchor="start" x="761" y="-18.5" font-family="Helvetica,sans-Serif" font-size="10.00" fill="#000000">_evolution_coupling</text>
<text text-anchor="middle" x="804" y="-7.5" font-family="Helvetica,sans-Serif" font-size="10.00" fill="#000000">_noise.cpp</text>
</a>
</g>
</g>
<!-- Node6&#45;&gt;Node12 -->
<g id="edge128" class="edge">
<title>Node6&#45;&gt;Node12</title>
<path fill="none" stroke="#191970" d="M1996.1998,-254.9316C1816.6102,-250.5074 1154.0969,-232.7812 1063,-210 1006.6836,-195.9166 992.9225,-186.7614 945,-154 895.8296,-120.3855 847.2486,-69.6739 821.9476,-41.5764"/>
<polygon fill="#191970" stroke="#191970" points="1996.2663,-258.4342 2006.349,-255.1801 1996.4377,-251.4363 1996.2663,-258.4342"/>
</g>
<!-- Node13 -->
<g id="node8" class="node">
<title>Node13</title>
<g id="a_node8"><a xlink:href="mpi__fftw__class_8h.html" target="_top" xlink:title="mpi_fftw_class.h">
<polygon fill="#ffffff" stroke="#000000" points="1845.5,-78.5 1845.5,-97.5 1936.5,-97.5 1936.5,-78.5 1845.5,-78.5"/>
<text text-anchor="middle" x="1891" y="-85.5" font-family="Helvetica,sans-Serif" font-size="10.00" fill="#000000">mpi_fftw_class.h</text>
</a>
</g>
</g>
<!-- Node6&#45;&gt;Node13 -->
<g id="edge104" class="edge">
<title>Node6&#45;&gt;Node13</title>
<path fill="none" stroke="#191970" d="M2025.8138,-238.9915C1994.6755,-204.1166 1924.4511,-125.4652 1899.7749,-97.8279"/>
<polygon fill="#191970" stroke="#191970" points="2023.2346,-241.3579 2032.5056,-246.4862 2028.4562,-236.6958 2023.2346,-241.3579"/>
</g>
<!-- Node14 -->
<g id="node9" class="node">
<title>Node14</title>
<g id="a_node9"><a xlink:href="test__accumulation_8cpp.html" target="_top" xlink:title="tests/test_accumulation.cpp">
<polygon fill="#ffffff" stroke="#000000" points="873,-11.5 873,-30.5 1013,-30.5 1013,-11.5 873,-11.5"/>
<text text-anchor="middle" x="943" y="-18.5" font-family="Helvetica,sans-Serif" font-size="10.00" fill="#000000">tests/test_accumulation.cpp</text>
</a>
</g>
</g>
<!-- Node6&#45;&gt;Node14 -->
<g id="edge111" class="edge">
<title>Node6&#45;&gt;Node14</title>
<path fill="none" stroke="#191970" d="M1996.254,-255.2733C1847.3422,-252.5771 1369.4279,-241.6152 1219,-210 1080.128,-180.8135 1000.8502,-214.6213 920,-98 905.374,-76.903 923.6547,-46.3546 935.0946,-30.8399"/>
<polygon fill="#191970" stroke="#191970" points="1996.3375,-258.7753 2006.3981,-255.4534 1996.4618,-251.7764 1996.3375,-258.7753"/>
</g>
<!-- Node15 -->
<g id="node10" class="node">
<title>Node15</title>
<g id="a_node10"><a xlink:href="test__exponentiate_8cpp.html" target="_top" xlink:title="tests/test_exponentiate.cpp">
<polygon fill="#ffffff" stroke="#000000" points="1031.5,-11.5 1031.5,-30.5 1168.5,-30.5 1168.5,-11.5 1031.5,-11.5"/>
<text text-anchor="middle" x="1100" y="-18.5" font-family="Helvetica,sans-Serif" font-size="10.00" fill="#000000">tests/test_exponentiate.cpp</text>
</a>
</g>
</g>
<!-- Node6&#45;&gt;Node15 -->
<g id="edge112" class="edge">
<title>Node6&#45;&gt;Node15</title>
<path fill="none" stroke="#191970" d="M1996.0733,-254.6939C1865.2023,-250.6122 1485.9143,-236.7435 1365,-210 1229.6883,-180.0721 1152.4431,-212.2437 1074,-98 1059.3046,-76.5978 1079.1655,-46.183 1091.4997,-30.7675"/>
<polygon fill="#191970" stroke="#191970" points="1996.0462,-258.1946 2006.1491,-255.004 1996.2616,-251.1979 1996.0462,-258.1946"/>
</g>
<!-- Node16 -->
<g id="node11" class="node">
<title>Node16</title>
<g id="a_node11"><a xlink:href="test__hermitian_8cpp.html" target="_top" xlink:title="tests/test_hermitian.cpp">
<polygon fill="#ffffff" stroke="#000000" points="1187,-11.5 1187,-30.5 1309,-30.5 1309,-11.5 1187,-11.5"/>
<text text-anchor="middle" x="1248" y="-18.5" font-family="Helvetica,sans-Serif" font-size="10.00" fill="#000000">tests/test_hermitian.cpp</text>
</a>
</g>
</g>
<!-- Node6&#45;&gt;Node16 -->
<g id="edge113" class="edge">
<title>Node6&#45;&gt;Node16</title>
<path fill="none" stroke="#191970" d="M1996.3489,-253.6331C1886.814,-247.5785 1607.1118,-230.5474 1516,-210 1376.7583,-178.5984 1296.4528,-215.2168 1215,-98 1199.729,-76.0239 1223.4579,-45.8601 1238.0134,-30.6313"/>
<polygon fill="#191970" stroke="#191970" points="1996.2291,-257.1317 2006.4058,-254.1845 1996.6124,-250.1422 1996.2291,-257.1317"/>
</g>
<!-- Node17 -->
<g id="node12" class="node">
<title>Node17</title>
<g id="a_node12"><a xlink:href="test__initial__condition_8cpp.html" target="_top" xlink:title="tests/test_initial\l_condition.cpp">
<polygon fill="#ffffff" stroke="#000000" points="1356,-6 1356,-36 1442,-36 1442,-6 1356,-6"/>
<text text-anchor="start" x="1364" y="-24" font-family="Helvetica,sans-Serif" font-size="10.00" fill="#000000">tests/test_initial</text>
<text text-anchor="middle" x="1399" y="-13" font-family="Helvetica,sans-Serif" font-size="10.00" fill="#000000">_condition.cpp</text>
</a>
</g>
</g>
<!-- Node6&#45;&gt;Node17 -->
<g id="edge114" class="edge">
<title>Node6&#45;&gt;Node17</title>
<path fill="none" stroke="#191970" d="M1996.3726,-250.4594C1940.3333,-243.1103 1841.4189,-228.8395 1758,-210 1584.1733,-170.7427 1479.9725,-240.5262 1373,-98 1359.025,-79.3802 1373.8656,-52.7751 1386.1822,-36.2133"/>
<polygon fill="#191970" stroke="#191970" points="1995.9567,-253.9347 2006.324,-251.7507 1996.8575,-246.9929 1995.9567,-253.9347"/>
</g>
<!-- Node18 -->
<g id="node13" class="node">
<title>Node18</title>
<g id="a_node13"><a xlink:href="test__initial__condition__fftw1d_8cpp.html" target="_top" xlink:title="tests/test_initial\l_condition_fftw1d.cpp">
<polygon fill="#ffffff" stroke="#000000" points="1563,-6 1563,-36 1675,-36 1675,-6 1563,-6"/>
<text text-anchor="start" x="1571" y="-24" font-family="Helvetica,sans-Serif" font-size="10.00" fill="#000000">tests/test_initial</text>
<text text-anchor="middle" x="1619" y="-13" font-family="Helvetica,sans-Serif" font-size="10.00" fill="#000000">_condition_fftw1d.cpp</text>
</a>
</g>
</g>
<!-- Node6&#45;&gt;Node18 -->
<g id="edge115" class="edge">
<title>Node6&#45;&gt;Node18</title>
<path fill="none" stroke="#191970" d="M1995.9595,-250.4976C1935.1676,-242.57 1830.4915,-227.0071 1796,-210 1713.7475,-169.4428 1650.1882,-73.5068 1627.7609,-36.2062"/>
<polygon fill="#191970" stroke="#191970" points="1995.6825,-253.9907 2006.0474,-251.7956 1996.5759,-247.0479 1995.6825,-253.9907"/>
</g>
<!-- Node19 -->
<g id="node14" class="node">
<title>Node19</title>
<g id="a_node14"><a xlink:href="test__momentum__coupling_8cpp.html" target="_top" xlink:title="tests/test_momentum\l_coupling.cpp">
<polygon fill="#ffffff" stroke="#000000" points="1693,-6 1693,-36 1805,-36 1805,-6 1693,-6"/>
<text text-anchor="start" x="1701" y="-24" font-family="Helvetica,sans-Serif" font-size="10.00" fill="#000000">tests/test_momentum</text>
<text text-anchor="middle" x="1749" y="-13" font-family="Helvetica,sans-Serif" font-size="10.00" fill="#000000">_coupling.cpp</text>
</a>
</g>
</g>
<!-- Node6&#45;&gt;Node19 -->
<g id="edge116" class="edge">
<title>Node6&#45;&gt;Node19</title>
<path fill="none" stroke="#191970" d="M1996.1555,-252.1886C1953.1762,-247.1258 1887.4255,-235.6181 1836,-210 1777.8318,-181.023 1756.9308,-161.2478 1742,-98 1737.0347,-76.9668 1741.0835,-51.9341 1744.7722,-36.2517"/>
<polygon fill="#191970" stroke="#191970" points="1995.9767,-255.6901 2006.3016,-253.3137 1996.7483,-248.7327 1995.9767,-255.6901"/>
</g>
<!-- Node20 -->
<g id="node15" class="node">
<title>Node20</title>
<g id="a_node15"><a xlink:href="test__momentum__coupling__fft_8cpp.html" target="_top" xlink:title="tests/test_momentum\l_coupling_fft.cpp">
<polygon fill="#ffffff" stroke="#000000" points="1885,-6 1885,-36 1997,-36 1997,-6 1885,-6"/>
<text text-anchor="start" x="1893" y="-24" font-family="Helvetica,sans-Serif" font-size="10.00" fill="#000000">tests/test_momentum</text>
<text text-anchor="middle" x="1941" y="-13" font-family="Helvetica,sans-Serif" font-size="10.00" fill="#000000">_coupling_fft.cpp</text>
</a>
</g>
</g>
<!-- Node6&#45;&gt;Node20 -->
<g id="edge117" class="edge">
<title>Node6&#45;&gt;Node20</title>
<path fill="none" stroke="#191970" d="M2033.0187,-237.244C2013.7492,-191.9607 1964.9809,-77.3551 1947.4231,-36.0943"/>
<polygon fill="#191970" stroke="#191970" points="2029.8199,-238.6656 2036.956,-246.4967 2036.261,-235.9246 2029.8199,-238.6656"/>
</g>
<!-- Node21 -->
<g id="node16" class="node">
<title>Node21</title>
<g id="a_node16"><a xlink:href="test__momentum__evolution_8cpp.html" target="_top" xlink:title="tests/test_momentum\l_evolution.cpp">
<polygon fill="#ffffff" stroke="#000000" points="2015,-6 2015,-36 2127,-36 2127,-6 2015,-6"/>
<text text-anchor="start" x="2023" y="-24" font-family="Helvetica,sans-Serif" font-size="10.00" fill="#000000">tests/test_momentum</text>
<text text-anchor="middle" x="2071" y="-13" font-family="Helvetica,sans-Serif" font-size="10.00" fill="#000000">_evolution.cpp</text>
</a>
</g>
</g>
<!-- Node6&#45;&gt;Node21 -->
<g id="edge118" class="edge">
<title>Node6&#45;&gt;Node21</title>
<path fill="none" stroke="#191970" d="M2085.4191,-246.9631C2121.7007,-238.6216 2168.8923,-225.2452 2181,-210 2217.5237,-164.0119 2218.0474,-127.8492 2187,-78 2178.3995,-64.1911 2142.3271,-47.7386 2112.6625,-36.0673"/>
<polygon fill="#191970" stroke="#191970" points="2084.5077,-243.5804 2075.5133,-249.1797 2086.0363,-250.4115 2084.5077,-243.5804"/>
</g>
<!-- Node22 -->
<g id="node17" class="node">
<title>Node22</title>
<g id="a_node17"><a xlink:href="test__momentum__evolution__coupling_8cpp.html" target="_top" xlink:title="tests/test_momentum\l_evolution_coupling.cpp">
<polygon fill="#ffffff" stroke="#000000" points="2145.5,-6 2145.5,-36 2266.5,-36 2266.5,-6 2145.5,-6"/>
<text text-anchor="start" x="2153.5" y="-24" font-family="Helvetica,sans-Serif" font-size="10.00" fill="#000000">tests/test_momentum</text>
<text text-anchor="middle" x="2206" y="-13" font-family="Helvetica,sans-Serif" font-size="10.00" fill="#000000">_evolution_coupling.cpp</text>
</a>
</g>
</g>
<!-- Node6&#45;&gt;Node22 -->
<g id="edge119" class="edge">
<title>Node6&#45;&gt;Node22</title>
<path fill="none" stroke="#191970" d="M2085.5541,-250.2246C2119.334,-244.2499 2165.7929,-232.4921 2201,-210 2256.4936,-174.5478 2274.995,-159.7022 2298,-98 2308.5143,-69.7995 2277.847,-48.9019 2249.1384,-36.0479"/>
<polygon fill="#191970" stroke="#191970" points="2084.7932,-246.803 2075.5042,-251.8986 2085.9434,-253.7079 2084.7932,-246.803"/>
</g>
<!-- Node23 -->
<g id="node18" class="node">
<title>Node23</title>
<g id="a_node18"><a xlink:href="test__momentum__evolution__coupling2_8cpp.html" target="_top" xlink:title="tests/test_momentum\l_evolution_coupling2.cpp">
<polygon fill="#ffffff" stroke="#000000" points="2285,-6 2285,-36 2411,-36 2411,-6 2285,-6"/>
<text text-anchor="start" x="2293" y="-24" font-family="Helvetica,sans-Serif" font-size="10.00" fill="#000000">tests/test_momentum</text>
<text text-anchor="middle" x="2348" y="-13" font-family="Helvetica,sans-Serif" font-size="10.00" fill="#000000">_evolution_coupling2.cpp</text>
</a>
</g>
</g>
<!-- Node6&#45;&gt;Node23 -->
<g id="edge120" class="edge">
<title>Node6&#45;&gt;Node23</title>
<path fill="none" stroke="#191970" d="M2085.9202,-251.415C2125.4925,-245.9247 2183.7178,-234.2303 2229,-210 2287.3189,-178.7939 2299.7241,-158.2573 2327,-98 2336.2567,-77.5503 2342.2074,-52.1475 2345.3294,-36.2494"/>
<polygon fill="#191970" stroke="#191970" points="2085.2418,-247.9739 2075.7809,-252.7427 2086.1507,-254.9146 2085.2418,-247.9739"/>
</g>
<!-- Node24 -->
<g id="node19" class="node">
<title>Node24</title>
<g id="a_node19"><a xlink:href="test__momentum__evolution__coupling__lambda_8cpp.html" target="_top" xlink:title="tests/test_momentum\l_evolution_coupling\l_lambda.cpp">
<polygon fill="#ffffff" stroke="#000000" points="2429,-.5 2429,-41.5 2541,-41.5 2541,-.5 2429,-.5"/>
<text text-anchor="start" x="2437" y="-29.5" font-family="Helvetica,sans-Serif" font-size="10.00" fill="#000000">tests/test_momentum</text>
<text text-anchor="start" x="2437" y="-18.5" font-family="Helvetica,sans-Serif" font-size="10.00" fill="#000000">_evolution_coupling</text>
<text text-anchor="middle" x="2485" y="-7.5" font-family="Helvetica,sans-Serif" font-size="10.00" fill="#000000">_lambda.cpp</text>
</a>
</g>
</g>
<!-- Node6&#45;&gt;Node24 -->
<g id="edge121" class="edge">
<title>Node6&#45;&gt;Node24</title>
<path fill="none" stroke="#191970" d="M2085.8155,-252.3648C2131.2005,-247.3698 2202.5574,-235.8528 2259,-210 2349.2142,-168.6785 2432.4848,-81.446 2467.5274,-41.6165"/>
<polygon fill="#191970" stroke="#191970" points="2085.2859,-248.9009 2075.7018,-253.417 2086.0104,-255.8633 2085.2859,-248.9009"/>
</g>
<!-- Node25 -->
<g id="node20" class="node">
<title>Node25</title>
<g id="a_node20"><a xlink:href="test__momentum__evolution__coupling__lambda__noise_8cpp.html" target="_top" xlink:title="tests/test_momentum\l_evolution_coupling\l_lambda_noise.cpp">
<polygon fill="#ffffff" stroke="#000000" points="2559,-.5 2559,-41.5 2671,-41.5 2671,-.5 2559,-.5"/>
<text text-anchor="start" x="2567" y="-29.5" font-family="Helvetica,sans-Serif" font-size="10.00" fill="#000000">tests/test_momentum</text>
<text text-anchor="start" x="2567" y="-18.5" font-family="Helvetica,sans-Serif" font-size="10.00" fill="#000000">_evolution_coupling</text>
<text text-anchor="middle" x="2615" y="-7.5" font-family="Helvetica,sans-Serif" font-size="10.00" fill="#000000">_lambda_noise.cpp</text>
</a>
</g>
</g>
<!-- Node6&#45;&gt;Node25 -->
<g id="edge122" class="edge">
<title>Node6&#45;&gt;Node25</title>
<path fill="none" stroke="#191970" d="M2085.7549,-252.1835C2136.5074,-246.8471 2221.1465,-234.8673 2290,-210 2385.8199,-175.3935 2402.166,-149.6163 2490,-98 2521.6437,-79.4043 2557.239,-57.3655 2582.3281,-41.6409"/>
<polygon fill="#191970" stroke="#191970" points="2085.3612,-248.7054 2075.7641,-253.1939 2086.0656,-255.6698 2085.3612,-248.7054"/>
</g>
<!-- Node26 -->
<g id="node21" class="node">
<title>Node26</title>
<g id="a_node21"><a xlink:href="test__multiplication_8cpp.html" target="_top" xlink:title="tests/test_multiplication.cpp">
<polygon fill="#ffffff" stroke="#000000" points="2691.5,-11.5 2691.5,-30.5 2830.5,-30.5 2830.5,-11.5 2691.5,-11.5"/>
<text text-anchor="middle" x="2761" y="-18.5" font-family="Helvetica,sans-Serif" font-size="10.00" fill="#000000">tests/test_multiplication.cpp</text>
</a>
</g>
</g>
<!-- Node6&#45;&gt;Node26 -->
<g id="edge123" class="edge">
<title>Node6&#45;&gt;Node26</title>
<path fill="none" stroke="#191970" d="M2085.7734,-252.3445C2142.903,-246.8846 2244.3426,-234.5054 2328,-210 2447.5731,-174.974 2470.8134,-147.8594 2585,-98 2640.4757,-73.7766 2705.7565,-45.1965 2739.0538,-30.6135"/>
<polygon fill="#191970" stroke="#191970" points="2085.2699,-248.8761 2075.636,-253.2848 2085.9165,-255.8462 2085.2699,-248.8761"/>
</g>
<!-- Node27 -->
<g id="node22" class="node">
<title>Node27</title>
<g id="a_node22"><a xlink:href="test__noise__vectors_8cpp.html" target="_top" xlink:title="tests/test_noise_vectors.cpp">
<polygon fill="#ffffff" stroke="#000000" points="2848.5,-11.5 2848.5,-30.5 2991.5,-30.5 2991.5,-11.5 2848.5,-11.5"/>
<text text-anchor="middle" x="2920" y="-18.5" font-family="Helvetica,sans-Serif" font-size="10.00" fill="#000000">tests/test_noise_vectors.cpp</text>
</a>
</g>
</g>
<!-- Node6&#45;&gt;Node27 -->
<g id="edge124" class="edge">
<title>Node6&#45;&gt;Node27</title>
<path fill="none" stroke="#191970" d="M2085.7472,-252.5217C2149.6816,-246.9313 2270.5508,-234.0529 2371,-210 2580.7867,-159.7659 2823.4728,-61.4453 2897.4574,-30.536"/>
<polygon fill="#191970" stroke="#191970" points="2085.2776,-249.049 2075.6122,-253.3883 2085.874,-256.0235 2085.2776,-249.049"/>
</g>
<!-- Node28 -->
<g id="node23" class="node">
<title>Node28</title>
<g id="a_node23"><a xlink:href="test__position__evolution_8cpp.html" target="_top" xlink:title="tests/test_position\l_evolution.cpp">
<polygon fill="#ffffff" stroke="#000000" points="3018.5,-6 3018.5,-36 3115.5,-36 3115.5,-6 3018.5,-6"/>
<text text-anchor="start" x="3026.5" y="-24" font-family="Helvetica,sans-Serif" font-size="10.00" fill="#000000">tests/test_position</text>
<text text-anchor="middle" x="3067" y="-13" font-family="Helvetica,sans-Serif" font-size="10.00" fill="#000000">_evolution.cpp</text>
</a>
</g>
</g>
<!-- Node6&#45;&gt;Node28 -->
<g id="edge126" class="edge">
<title>Node6&#45;&gt;Node28</title>
<path fill="none" stroke="#191970" d="M2085.5455,-252.862C2157.1757,-247.3186 2302.1726,-234.0436 2423,-210 2604.0651,-173.9697 2646.036,-150.5975 2823,-98 2892.1915,-77.4348 2971.8565,-51.9523 3020.8195,-36.0815"/>
<polygon fill="#191970" stroke="#191970" points="2085.2269,-249.376 2075.5211,-253.6241 2085.7577,-256.3558 2085.2269,-249.376"/>
</g>
<!-- Node29 -->
<g id="node24" class="node">
<title>Node29</title>
<g id="a_node24"><a xlink:href="test__position__evolution__coupling_8cpp.html" target="_top" xlink:title="tests/test_position\l_evolution_coupling.cpp">
<polygon fill="#ffffff" stroke="#000000" points="3158.5,-6 3158.5,-36 3279.5,-36 3279.5,-6 3158.5,-6"/>
<text text-anchor="start" x="3166.5" y="-24" font-family="Helvetica,sans-Serif" font-size="10.00" fill="#000000">tests/test_position</text>
<text text-anchor="middle" x="3219" y="-13" font-family="Helvetica,sans-Serif" font-size="10.00" fill="#000000">_evolution_coupling.cpp</text>
</a>
</g>
</g>
<!-- Node6&#45;&gt;Node29 -->
<g id="edge127" class="edge">
<title>Node6&#45;&gt;Node29</title>
<path fill="none" stroke="#191970" d="M2085.9579,-253.4818C2165.9241,-248.5188 2337.9261,-235.6566 2481,-210 2744.6211,-162.7264 3052.9562,-71.9827 3170.3171,-36.1194"/>
<polygon fill="#191970" stroke="#191970" points="2085.5233,-250.0017 2075.7545,-254.103 2085.9487,-256.9887 2085.5233,-250.0017"/>
</g>
<!-- Node30 -->
<g id="node25" class="node">
<title>Node30</title>
<g id="a_node25"><a xlink:href="test__position__evolution__hatta__coupling_8cpp.html" target="_top" xlink:title="tests/test_position\l_evolution_hatta_coupling.cpp">
<polygon fill="#ffffff" stroke="#000000" points="3298,-6 3298,-36 3446,-36 3446,-6 3298,-6"/>
<text text-anchor="start" x="3306" y="-24" font-family="Helvetica,sans-Serif" font-size="10.00" fill="#000000">tests/test_position</text>
<text text-anchor="middle" x="3372" y="-13" font-family="Helvetica,sans-Serif" font-size="10.00" fill="#000000">_evolution_hatta_coupling.cpp</text>
</a>
</g>
</g>
<!-- Node6&#45;&gt;Node30 -->
<g id="edge129" class="edge">
<title>Node6&#45;&gt;Node30</title>
<path fill="none" stroke="#191970" d="M2085.8955,-253.7318C2174.2185,-248.8664 2376.6126,-235.7216 2545,-210 2778.7002,-174.3017 2834.7372,-151.5652 3065,-98 3152.2383,-77.7061 3252.8452,-52.0386 3314.4293,-36.0678"/>
<polygon fill="#191970" stroke="#191970" points="2085.4957,-250.2483 2075.6998,-254.2844 2085.8746,-257.238 2085.4957,-250.2483"/>
</g>
<!-- Node31 -->
<g id="node26" class="node">
<title>Node31</title>
<g id="a_node26"><a xlink:href="test__symmetrize__average_8cpp.html" target="_top" xlink:title="tests/test_symmetrize\l_average.cpp">
<polygon fill="#ffffff" stroke="#000000" points="3466,-6 3466,-36 3580,-36 3580,-6 3466,-6"/>
<text text-anchor="start" x="3474" y="-24" font-family="Helvetica,sans-Serif" font-size="10.00" fill="#000000">tests/test_symmetrize</text>
<text text-anchor="middle" x="3523" y="-13" font-family="Helvetica,sans-Serif" font-size="10.00" fill="#000000">_average.cpp</text>
</a>
</g>
</g>
<!-- Node6&#45;&gt;Node31 -->
<g id="edge130" class="edge">
<title>Node6&#45;&gt;Node31</title>
<path fill="none" stroke="#191970" d="M2085.5255,-254.2265C2182.3877,-249.9769 2419.3441,-237.4579 2616,-210 2992.6374,-157.4123 3086.398,-135.5616 3455,-42 3461.946,-40.2369 3469.2351,-38.1948 3476.3553,-36.0905"/>
<polygon fill="#191970" stroke="#191970" points="2085.344,-250.731 2075.504,-254.6584 2085.6455,-257.7245 2085.344,-250.731"/>
</g>
<!-- Node32 -->
<g id="node27" class="node">
<title>Node32</title>
<g id="a_node27"><a xlink:href="test__symmetrize__average2_8cpp.html" target="_top" xlink:title="tests/test_symmetrize\l_average2.cpp">
<polygon fill="#ffffff" stroke="#000000" points="0,-6 0,-36 114,-36 114,-6 0,-6"/>
<text text-anchor="start" x="8" y="-24" font-family="Helvetica,sans-Serif" font-size="10.00" fill="#000000">tests/test_symmetrize</text>
<text text-anchor="middle" x="57" y="-13" font-family="Helvetica,sans-Serif" font-size="10.00" fill="#000000">_average2.cpp</text>
</a>
</g>
</g>
<!-- Node6&#45;&gt;Node32 -->
<g id="edge131" class="edge">
<title>Node6&#45;&gt;Node32</title>
<path fill="none" stroke="#191970" d="M1996.0447,-255.8299C1743.2796,-254.7345 504.5564,-247.4777 339,-210 234.2995,-186.2985 206.6154,-167.7344 125,-98 102.6272,-78.8841 80.8457,-52.4224 68.1875,-36.0252"/>
<polygon fill="#191970" stroke="#191970" points="1996.3054,-259.331 2006.3201,-255.8734 1996.3351,-252.331 1996.3054,-259.331"/>
</g>
<!-- Node33 -->
<g id="node28" class="node">
<title>Node33</title>
<g id="a_node28"><a xlink:href="mpi__exchange__boundaries_8cpp.html" target="_top" xlink:title="mpi_exchange_boundaries.cpp">
<polygon fill="#ffffff" stroke="#000000" points="275.5,-78.5 275.5,-97.5 426.5,-97.5 426.5,-78.5 275.5,-78.5"/>
<text text-anchor="middle" x="351" y="-85.5" font-family="Helvetica,sans-Serif" font-size="10.00" fill="#000000">mpi_exchange_boundaries.cpp</text>
</a>
</g>
</g>
<!-- Node6&#45;&gt;Node33 -->
<g id="edge107" class="edge">
<title>Node6&#45;&gt;Node33</title>
<path fill="none" stroke="#191970" d="M1996.2867,-255.2634C1778.0996,-251.5614 830.4458,-234.2055 701,-210 571.0147,-185.6936 424.1829,-121.7957 371.3113,-97.5318"/>
<polygon fill="#191970" stroke="#191970" points="1996.3552,-258.7649 2006.4128,-255.4342 1996.4733,-251.7659 1996.3552,-258.7649"/>
</g>
<!-- Node34 -->
<g id="node29" class="node">
<title>Node34</title>
<g id="a_node29"><a xlink:href="MV__class_8h.html" target="_top" xlink:title="MV_class.h">
<polygon fill="#ffffff" stroke="#000000" points="1861,-190.5 1861,-209.5 1929,-209.5 1929,-190.5 1861,-190.5"/>
<text text-anchor="middle" x="1895" y="-197.5" font-family="Helvetica,sans-Serif" font-size="10.00" fill="#000000">MV_class.h</text>
</a>
</g>
</g>
<!-- Node6&#45;&gt;Node34 -->
<g id="edge55" class="edge">
<title>Node6&#45;&gt;Node34</title>
<path fill="none" stroke="#191970" d="M2006.5565,-242.7888C1979.8987,-232.5639 1943.62,-218.6488 1919.7708,-209.5011"/>
<polygon fill="#191970" stroke="#191970" points="2005.3115,-246.0598 2015.9017,-246.3733 2007.8184,-239.5241 2005.3115,-246.0598"/>
</g>
<!-- Node35 -->
<g id="node30" class="node">
<title>Node35</title>
<g id="a_node30"><a xlink:href="rand__class_8h.html" target="_top" xlink:title="rand_class.h">
<polygon fill="#ffffff" stroke="#000000" points="2100,-190.5 2100,-209.5 2172,-209.5 2172,-190.5 2100,-190.5"/>
<text text-anchor="middle" x="2136" y="-197.5" font-family="Helvetica,sans-Serif" font-size="10.00" fill="#000000">rand_class.h</text>
</a>
</g>
</g>
<!-- Node6&#45;&gt;Node35 -->
<g id="edge80" class="edge">
<title>Node6&#45;&gt;Node35</title>
<path fill="none" stroke="#191970" d="M2066.3676,-241.0465C2083.271,-231.0824 2104.9904,-218.2794 2119.6419,-209.6427"/>
<polygon fill="#191970" stroke="#191970" points="2064.3851,-238.1522 2057.5477,-246.2455 2067.9398,-244.1825 2064.3851,-238.1522"/>
</g>
<!-- Node36 -->
<g id="node31" class="node">
<title>Node36</title>
<g id="a_node31"><a xlink:href="mpi__exchange__grid_8cpp.html" target="_top" xlink:title="mpi_exchange_grid.cpp">
<polygon fill="#ffffff" stroke="#000000" points="3741.5,-190.5 3741.5,-209.5 3860.5,-209.5 3860.5,-190.5 3741.5,-190.5"/>
<text text-anchor="middle" x="3801" y="-197.5" font-family="Helvetica,sans-Serif" font-size="10.00" fill="#000000">mpi_exchange_grid.cpp</text>
</a>
</g>
</g>
<!-- Node6&#45;&gt;Node36 -->
<g id="edge108" class="edge">
<title>Node6&#45;&gt;Node36</title>
<path fill="none" stroke="#191970" d="M2085.9216,-255.4263C2319.2253,-252.3475 3394.6427,-236.9128 3727,-210 3731.6518,-209.6233 3736.4587,-209.1548 3741.285,-208.6278"/>
<polygon fill="#191970" stroke="#191970" points="2085.7202,-251.9286 2075.767,-255.5595 2085.812,-258.928 2085.7202,-251.9286"/>
</g>
<!-- Node37 -->
<g id="node32" class="node">
<title>Node37</title>
<g id="a_node32"><a xlink:href="mpi__exchange__groups_8cpp.html" target="_top" xlink:title="mpi_exchange_groups.cpp">
<polygon fill="#ffffff" stroke="#000000" points="3878.5,-190.5 3878.5,-209.5 4011.5,-209.5 4011.5,-190.5 3878.5,-190.5"/>
<text text-anchor="middle" x="3945" y="-197.5" font-family="Helvetica,sans-Serif" font-size="10.00" fill="#000000">mpi_exchange_groups.cpp</text>
</a>
</g>
</g>
<!-- Node6&#45;&gt;Node37 -->
<g id="edge109" class="edge">
<title>Node6&#45;&gt;Node37</title>
<path fill="none" stroke="#191970" d="M2086.133,-255.5235C2331.5453,-252.8324 3507.6785,-238.6278 3870,-210 3872.75,-209.7827 3875.5535,-209.5338 3878.3833,-209.2599"/>
<polygon fill="#191970" stroke="#191970" points="2085.772,-252.0271 2075.8107,-255.6359 2085.8483,-259.0267 2085.772,-252.0271"/>
</g>
<!-- Node38 -->
<g id="node33" class="node">
<title>Node38</title>
<g id="a_node33"><a xlink:href="mpi__init_8cpp.html" target="_top" xlink:title="mpi_init.cpp">
<polygon fill="#ffffff" stroke="#000000" points="4029.5,-190.5 4029.5,-209.5 4098.5,-209.5 4098.5,-190.5 4029.5,-190.5"/>
<text text-anchor="middle" x="4064" y="-197.5" font-family="Helvetica,sans-Serif" font-size="10.00" fill="#000000">mpi_init.cpp</text>
</a>
</g>
</g>
<!-- Node6&#45;&gt;Node38 -->
<g id="edge110" class="edge">
<title>Node6&#45;&gt;Node38</title>
<path fill="none" stroke="#191970" d="M2085.5436,-255.5139C2360.6577,-252.4386 3823.3451,-235.0095 4021,-210 4023.7374,-209.6536 4026.5552,-209.2069 4029.3768,-208.695"/>
<polygon fill="#191970" stroke="#191970" points="2085.4856,-252.0142 2075.5252,-255.6254 2085.5636,-259.0138 2085.4856,-252.0142"/>
</g>
<!-- Node7&#45;&gt;Node8 -->
<g id="edge2" class="edge">
<title>Node7&#45;&gt;Node8</title>
<path fill="none" stroke="#191970" d="M1801.3702,-143.678C1585.8805,-141.4093 340.0405,-127.0664 266,-98 229.9074,-83.831 198.686,-47.9423 185.1582,-30.631"/>
<polygon fill="#191970" stroke="#191970" points="1801.3562,-147.178 1811.3923,-143.7826 1801.4294,-140.1784 1801.3562,-147.178"/>
</g>
<!-- Node9 -->
<g id="node4" class="node">
<title>Node9</title>
<g id="a_node4"><a xlink:href="matrix_8h.html" target="_top" xlink:title="matrix.h">
<polygon fill="#ffffff" stroke="#000000" points="597,-78.5 597,-97.5 649,-97.5 649,-78.5 597,-78.5"/>
<text text-anchor="middle" x="623" y="-85.5" font-family="Helvetica,sans-Serif" font-size="10.00" fill="#000000">matrix.h</text>
</a>
</g>
</g>
<!-- Node7&#45;&gt;Node9 -->
<g id="edge3" class="edge">
<title>Node7&#45;&gt;Node9</title>
<path fill="none" stroke="#191970" d="M1801.3046,-142.5331C1628.9314,-134.5555 806.2826,-96.4825 649.0167,-89.2041"/>
<polygon fill="#191970" stroke="#191970" points="1801.3335,-146.0381 1811.4846,-143.0042 1801.6572,-139.0456 1801.3335,-146.0381"/>
</g>
<!-- Node7&#45;&gt;Node10 -->
<g id="edge32" class="edge">
<title>Node7&#45;&gt;Node10</title>
<path fill="none" stroke="#191970" d="M1801.3815,-143.4687C1613.0656,-140.225 645.4891,-122.4153 588,-98 554.1104,-83.6073 526.258,-47.8287 514.299,-30.5878"/>
<polygon fill="#191970" stroke="#191970" points="1801.3969,-146.9694 1811.4553,-143.6411 1801.5167,-139.9704 1801.3969,-146.9694"/>
</g>
<!-- Node7&#45;&gt;Node11 -->
<g id="edge48" class="edge">
<title>Node7&#45;&gt;Node11</title>
<path fill="none" stroke="#191970" d="M1801.1915,-143.5652C1694.239,-141.8 1337.9375,-133.4581 1046,-98 927.3987,-83.595 790.9993,-54.0781 713.4968,-36.0652"/>
<polygon fill="#191970" stroke="#191970" points="1801.2619,-147.0666 1811.3158,-143.7246 1801.3722,-140.0675 1801.2619,-147.0666"/>
</g>
<!-- Node7&#45;&gt;Node12 -->
<g id="edge51" class="edge">
<title>Node7&#45;&gt;Node12</title>
<path fill="none" stroke="#191970" d="M1801.13,-142.3299C1712.0732,-137.491 1453.096,-122.2448 1239,-98 1071.5554,-79.0381 1027.5859,-82.4584 864,-42 861.1074,-41.2846 858.1575,-40.4865 855.1946,-39.6311"/>
<polygon fill="#191970" stroke="#191970" points="1801.1974,-145.8385 1811.371,-142.881 1801.5735,-138.8486 1801.1974,-145.8385"/>
</g>
<!-- Node7&#45;&gt;Node13 -->
<g id="edge8" class="edge">
<title>Node7&#45;&gt;Node13</title>
<path fill="none" stroke="#191970" d="M1850.5293,-127.0751C1860.5083,-117.4402 1872.6476,-105.7196 1881.0129,-97.6427"/>
<polygon fill="#191970" stroke="#191970" points="1847.8658,-124.7817 1843.1028,-134.2455 1852.728,-129.8175 1847.8658,-124.7817"/>
</g>
<!-- Node7&#45;&gt;Node14 -->
<g id="edge34" class="edge">
<title>Node7&#45;&gt;Node14</title>
<path fill="none" stroke="#191970" d="M1801.1427,-141.9006C1691.7823,-134.2896 1321.9334,-105.2018 1023,-42 1007.5462,-38.7327 990.6025,-34.396 976.3026,-30.5121"/>
<polygon fill="#191970" stroke="#191970" points="1800.9727,-145.3971 1811.1889,-142.59 1801.452,-138.4135 1800.9727,-145.3971"/>
</g>
<!-- Node7&#45;&gt;Node15 -->
<g id="edge35" class="edge">
<title>Node7&#45;&gt;Node15</title>
<path fill="none" stroke="#191970" d="M1801.2193,-140.4311C1706.0235,-129.4463 1415.1078,-93.7293 1178,-42 1163.0653,-38.7417 1146.7078,-34.451 1132.8467,-30.5977"/>
<polygon fill="#191970" stroke="#191970" points="1801.0059,-143.9295 1811.3393,-141.5905 1801.8027,-136.975 1801.0059,-143.9295"/>
</g>
<!-- Node7&#45;&gt;Node16 -->
<g id="edge36" class="edge">
<title>Node7&#45;&gt;Node16</title>
<path fill="none" stroke="#191970" d="M1801.531,-137.8738C1757.2018,-129.2058 1673.8593,-112.7697 1603,-98 1490.1735,-74.4828 1357.523,-45.3022 1290.849,-30.5286"/>
<polygon fill="#191970" stroke="#191970" points="1800.9283,-141.3221 1811.4137,-139.8038 1802.2701,-134.4519 1800.9283,-141.3221"/>
</g>
<!-- Node7&#45;&gt;Node17 -->
<g id="edge37" class="edge">
<title>Node7&#45;&gt;Node17</title>
<path fill="none" stroke="#191970" d="M1801.5837,-134.9097C1757.3167,-122.1182 1674.0473,-98.1192 1603,-78 1547.4504,-62.2694 1483.3086,-44.3949 1442.0065,-32.9226"/>
<polygon fill="#191970" stroke="#191970" points="1800.8732,-138.3475 1811.4518,-137.7623 1802.8171,-131.6229 1800.8732,-138.3475"/>
</g>
<!-- Node7&#45;&gt;Node18 -->
<g id="edge38" class="edge">
<title>Node7&#45;&gt;Node18</title>
<path fill="none" stroke="#191970" d="M1806.806,-129.4532C1790.6755,-120.4586 1769.5949,-108.6381 1751,-98 1713.9242,-76.7889 1671.2738,-51.8021 1644.7249,-36.1782"/>
<polygon fill="#191970" stroke="#191970" points="1805.2357,-132.5848 1815.6752,-134.3922 1808.6414,-126.4691 1805.2357,-132.5848"/>
</g>
<!-- Node7&#45;&gt;Node19 -->
<g id="edge39" class="edge">
<title>Node7&#45;&gt;Node19</title>
<path fill="none" stroke="#191970" d="M1802.2738,-129.974C1788.8702,-122.3508 1774.1553,-111.6602 1765,-98 1752.4575,-79.2859 1749.4363,-52.7081 1748.8733,-36.1776"/>
<polygon fill="#191970" stroke="#191970" points="1800.7879,-133.148 1811.2594,-134.7603 1804.0789,-126.9699 1800.7879,-133.148"/>
</g>
<!-- Node7&#45;&gt;Node20 -->
<g id="edge40" class="edge">
<title>Node7&#45;&gt;Node20</title>
<path fill="none" stroke="#191970" d="M1829.4333,-124.1232C1828.0035,-110.1595 1828.3677,-91.6176 1837,-78 1849.4567,-58.3494 1871.1798,-44.9407 1891.5617,-36.0923"/>
<polygon fill="#191970" stroke="#191970" points="1825.9857,-124.742 1830.8409,-134.1588 1832.9179,-123.7696 1825.9857,-124.742"/>
</g>
<!-- Node7&#45;&gt;Node21 -->
<g id="edge41" class="edge">
<title>Node7&#45;&gt;Node21</title>
<path fill="none" stroke="#191970" d="M1864.3147,-132.8495C1887.3467,-124.2673 1919.1773,-111.603 1946,-98 1983.508,-78.978 2024.5934,-52.4892 2049.0631,-36.0608"/>
<polygon fill="#191970" stroke="#191970" points="1862.8897,-129.6443 1854.7126,-136.3812 1865.3061,-136.2141 1862.8897,-129.6443"/>
</g>
<!-- Node7&#45;&gt;Node22 -->
<g id="edge42" class="edge">
<title>Node7&#45;&gt;Node22</title>
<path fill="none" stroke="#191970" d="M1864.1404,-134.2023C1893.3359,-124.981 1938.1833,-110.725 1977,-98 2041.3694,-76.8982 2115.6609,-51.7762 2161.7377,-36.1045"/>
<polygon fill="#191970" stroke="#191970" points="1862.9854,-130.8966 1854.5019,-137.2433 1865.0916,-137.5722 1862.9854,-130.8966"/>
</g>
<!-- Node7&#45;&gt;Node23 -->
<g id="edge43" class="edge">
<title>Node7&#45;&gt;Node23</title>
<path fill="none" stroke="#191970" d="M1864.7009,-137.3563C1937.6237,-121.9306 2122.7787,-81.949 2276,-42 2283.0558,-40.1604 2290.47,-38.1207 2297.7481,-36.0565"/>
<polygon fill="#191970" stroke="#191970" points="1863.8352,-133.9618 1854.7733,-139.4511 1865.2805,-140.811 1863.8352,-133.9618"/>
</g>
<!-- Node7&#45;&gt;Node24 -->
<g id="edge44" class="edge">
<title>Node7&#45;&gt;Node24</title>
<path fill="none" stroke="#191970" d="M1864.4798,-140.1404C1952.8919,-128.9562 2210.6677,-93.9826 2420,-42 2422.8774,-41.2855 2425.8126,-40.5102 2428.7671,-39.6929"/>
<polygon fill="#191970" stroke="#191970" points="1864.0386,-136.6682 1854.5521,-141.3859 1864.91,-143.6137 1864.0386,-136.6682"/>
</g>
<!-- Node7&#45;&gt;Node25 -->
<g id="edge45" class="edge">
<title>Node7&#45;&gt;Node25</title>
<path fill="none" stroke="#191970" d="M1864.8775,-141.6734C1966.2365,-133.8082 2289.7437,-105.1007 2550,-42 2552.8813,-41.3014 2555.8197,-40.539 2558.7766,-39.7319"/>
<polygon fill="#191970" stroke="#191970" points="1864.4009,-138.1995 1854.6964,-142.4508 1864.9339,-145.1792 1864.4009,-138.1995"/>
</g>
<!-- Node7&#45;&gt;Node26 -->
<g id="edge46" class="edge">
<title>Node7&#45;&gt;Node26</title>
<path fill="none" stroke="#191970" d="M1864.8304,-142.1541C1977.2995,-135.2123 2366.1075,-107.6463 2680,-42 2695.6418,-38.7287 2712.7965,-34.3915 2727.2761,-30.5083"/>
<polygon fill="#191970" stroke="#191970" points="1864.5901,-138.6621 1854.8207,-142.762 1865.0146,-145.6492 1864.5901,-138.6621"/>
</g>
<!-- Node7&#45;&gt;Node27 -->
<g id="edge47" class="edge">
<title>Node7&#45;&gt;Node27</title>
<path fill="none" stroke="#191970" d="M1864.9137,-142.9706C1990.3317,-138.463 2461.0797,-117.1954 2840,-42 2855.6341,-38.8975 2872.7508,-34.5373 2887.1251,-30.5935"/>
<polygon fill="#191970" stroke="#191970" points="1864.7099,-139.4755 1854.8383,-143.323 1864.9546,-146.4712 1864.7099,-139.4755"/>
</g>
<!-- Node7&#45;&gt;Node28 -->
<g id="edge49" class="edge">
<title>Node7&#45;&gt;Node28</title>
<path fill="none" stroke="#191970" d="M1864.879,-142.7447C1967.029,-138.563 2295.3507,-123.8856 2566,-98 2760.0433,-79.4412 2810.6866,-84.1667 3001,-42 3008.396,-40.3613 3016.1489,-38.2574 3023.6351,-36.0164"/>
<polygon fill="#191970" stroke="#191970" points="1864.4774,-139.258 1854.6274,-143.1601 1864.7609,-146.2523 1864.4774,-139.258"/>
</g>
<!-- Node7&#45;&gt;Node29 -->
<g id="edge50" class="edge">
<title>Node7&#45;&gt;Node29</title>
<path fill="none" stroke="#191970" d="M1864.6773,-143.1688C1977.5024,-140.0248 2370.252,-127.5081 2693,-98 2885.8023,-80.3726 2934.3288,-75.5851 3125,-42 3135.869,-40.0855 3147.3816,-37.7624 3158.4835,-35.3685"/>
<polygon fill="#191970" stroke="#191970" points="1864.5445,-139.671 1854.6443,-143.4441 1864.7366,-146.6684 1864.5445,-139.671"/>
</g>
<!-- Node7&#45;&gt;Node30 -->
<g id="edge52" class="edge">
<title>Node7&#45;&gt;Node30</title>
<path fill="none" stroke="#191970" d="M1864.6744,-143.278C1986.353,-140.3393 2435.3907,-127.9772 2804,-98 3020.2737,-80.4115 3075.572,-81.1425 3289,-42 3298.0644,-40.3376 3307.6065,-38.2487 3316.8634,-36.0373"/>
<polygon fill="#191970" stroke="#191970" points="1864.4769,-139.7816 1854.563,-143.5185 1864.6434,-146.7796 1864.4769,-139.7816"/>
</g>
<!-- Node7&#45;&gt;Node31 -->
<g id="edge53" class="edge">
<title>Node7&#45;&gt;Node31</title>
<path fill="none" stroke="#191970" d="M1865.1138,-143.4456C1997.6341,-140.9928 2514.9359,-129.7945 2939,-98 3169.0343,-80.753 3229.0949,-88.6919 3455,-42 3462.744,-40.3994 3470.8659,-38.2866 3478.6929,-36.0178"/>
<polygon fill="#191970" stroke="#191970" points="1864.795,-139.9507 1854.8603,-143.632 1864.9223,-146.9496 1864.795,-139.9507"/>
</g>
<!-- Node7&#45;&gt;Node32 -->
<g id="edge54" class="edge">
<title>Node7&#45;&gt;Node32</title>
<path fill="none" stroke="#191970" d="M1800.8327,-143.4204C1627.7694,-140.2147 805.8424,-123.8565 553,-98 500.0836,-92.5886 487.6616,-85.4956 435,-78 296.8062,-58.33 259.4773,-71.2982 123,-42 115.5934,-40.41 107.8351,-38.3308 100.3468,-36.0994"/>
<polygon fill="#191970" stroke="#191970" points="1800.9974,-146.924 1811.0601,-143.6085 1801.1262,-139.9251 1800.9974,-146.924"/>
</g>
<!-- Node7&#45;&gt;Node33 -->
<g id="edge33" class="edge">
<title>Node7&#45;&gt;Node33</title>
<path fill="none" stroke="#191970" d="M1801.2358,-143.4373C1652.1693,-140.6881 1007.0836,-127.5843 479,-98 462.0862,-97.0525 443.9337,-95.7862 426.7687,-94.4739"/>
<polygon fill="#191970" stroke="#191970" points="1801.4232,-146.9412 1811.4855,-143.6243 1801.551,-139.9424 1801.4232,-146.9412"/>
</g>
<!-- Node9&#45;&gt;Node8 -->
<g id="edge4" class="edge">
<title>Node9&#45;&gt;Node8</title>
<path fill="none" stroke="#191970" d="M586.6895,-82.533C506.2389,-70.4202 313.0926,-41.3398 224.2005,-27.956"/>
<polygon fill="#191970" stroke="#191970" points="586.4149,-86.0311 596.8246,-84.059 587.4571,-79.1091 586.4149,-86.0311"/>
</g>
<!-- Node9&#45;&gt;Node10 -->
<g id="edge5" class="edge">
<title>Node9&#45;&gt;Node10</title>
<path fill="none" stroke="#191970" d="M597.6159,-73.211C575.3276,-60.2256 543.5615,-41.7184 524.4461,-30.5817"/>
<polygon fill="#191970" stroke="#191970" points="596.1208,-76.3906 606.5233,-78.4005 599.6447,-70.3423 596.1208,-76.3906"/>
</g>
<!-- Node9&#45;&gt;Node11 -->
<g id="edge6" class="edge">
<title>Node9&#45;&gt;Node11</title>
<path fill="none" stroke="#191970" d="M630.9691,-68.9311C635.3309,-58.4939 640.6583,-45.7463 644.7222,-36.0218"/>
<polygon fill="#191970" stroke="#191970" points="627.6384,-67.8242 627.0117,-78.4005 634.0971,-70.5234 627.6384,-67.8242"/>
</g>
<!-- Node9&#45;&gt;Node12 -->
<g id="edge7" class="edge">
<title>Node9&#45;&gt;Node12</title>
<path fill="none" stroke="#191970" d="M658.3259,-74.9236C685.1992,-64.976 722.5689,-51.143 752.7301,-39.9784"/>
<polygon fill="#191970" stroke="#191970" points="657.096,-71.6467 648.9329,-78.4005 659.526,-78.2114 657.096,-71.6467"/>
</g>
<!-- Node13&#45;&gt;Node8 -->
<g id="edge9" class="edge">
<title>Node13&#45;&gt;Node8</title>
<path fill="none" stroke="#191970" d="M1835.1014,-87.0584C1643.3169,-83.6454 994.3561,-70.5901 459,-42 376.1973,-37.578 279.8562,-29.8055 224.2043,-25.0579"/>
<polygon fill="#191970" stroke="#191970" points="1835.1591,-90.5598 1845.2194,-87.237 1835.2828,-83.5609 1835.1591,-90.5598"/>
</g>
<!-- Node13&#45;&gt;Node10 -->
<g id="edge10" class="edge">
<title>Node13&#45;&gt;Node10</title>
<path fill="none" stroke="#191970" d="M1835.1695,-87.2646C1598.4273,-83.9843 683.8487,-69.6222 558,-42 547.1485,-39.6182 535.6775,-34.9704 526.4638,-30.6516"/>
<polygon fill="#191970" stroke="#191970" points="1835.2264,-90.7656 1845.2736,-87.4035 1835.3227,-83.7662 1835.2264,-90.7656"/>
</g>
<!-- Node13&#45;&gt;Node11 -->
<g id="edge25" class="edge">
<title>Node13&#45;&gt;Node11</title>
<path fill="none" stroke="#191970" d="M1835.1735,-87.1074C1635.7081,-83.7079 958.7333,-70.3101 744,-42 733.0051,-40.5504 721.3951,-38.4212 710.2452,-36.0674"/>
<polygon fill="#191970" stroke="#191970" points="1835.3587,-90.6109 1845.4164,-87.2803 1835.4769,-83.6119 1835.3587,-90.6109"/>
</g>
<!-- Node13&#45;&gt;Node12 -->
<g id="edge28" class="edge">
<title>Node13&#45;&gt;Node12</title>
<path fill="none" stroke="#191970" d="M1835.378,-87.6408C1649.7328,-86.1084 1052.5438,-78.4011 864,-42 861.0742,-41.4351 858.0982,-40.7558 855.1151,-39.9925"/>
<polygon fill="#191970" stroke="#191970" points="1835.4326,-91.1413 1845.4603,-87.7213 1835.4885,-84.1415 1835.4326,-91.1413"/>
</g>
<!-- Node13&#45;&gt;Node14 -->
<g id="edge11" class="edge">
<title>Node13&#45;&gt;Node14</title>
<path fill="none" stroke="#191970" d="M1834.8208,-86.519C1668.4959,-81.8974 1180.3869,-66.5644 1023,-42 1006.4004,-39.4092 988.2637,-34.8001 973.4621,-30.5588"/>
<polygon fill="#191970" stroke="#191970" points="1835.2114,-90.031 1845.3041,-86.8079 1835.4043,-83.0336 1835.2114,-90.031"/>
</g>
<!-- Node13&#45;&gt;Node15 -->
<g id="edge12" class="edge">
<title>Node13&#45;&gt;Node15</title>
<path fill="none" stroke="#191970" d="M1835.0858,-85.8297C1690.0406,-79.9696 1304.2379,-62.8531 1178,-42 1161.9498,-39.3487 1144.43,-34.7884 1130.0678,-30.5934"/>
<polygon fill="#191970" stroke="#191970" points="1834.9737,-89.3279 1845.1061,-86.2321 1835.2547,-82.3336 1834.9737,-89.3279"/>
</g>
<!-- Node13&#45;&gt;Node16 -->
<g id="edge13" class="edge">
<title>Node13&#45;&gt;Node16</title>
<path fill="none" stroke="#191970" d="M1835.2264,-85.5817C1736.4053,-80.7861 1524.2688,-68.1918 1347,-42 1327.1854,-39.0724 1305.3862,-34.5878 1287.2991,-30.5135"/>
<polygon fill="#191970" stroke="#191970" points="1835.1302,-89.081 1845.2857,-86.0618 1835.464,-82.089 1835.1302,-89.081"/>
</g>
<!-- Node13&#45;&gt;Node17 -->
<g id="edge14" class="edge">
<title>Node13&#45;&gt;Node17</title>
<path fill="none" stroke="#191970" d="M1835.029,-80.3779C1735.8237,-66.8683 1531.2153,-39.0049 1442.0802,-26.8666"/>
<polygon fill="#191970" stroke="#191970" points="1834.7748,-83.8755 1845.1556,-81.757 1835.7194,-76.9396 1834.7748,-83.8755"/>
</g>
<!-- Node13&#45;&gt;Node18 -->
<g id="edge15" class="edge">
<title>Node13&#45;&gt;Node18</title>
<path fill="none" stroke="#191970" d="M1835.4725,-77.1357C1793.5938,-68.5859 1734.8672,-55.8362 1684,-42 1677.3629,-40.1947 1670.3967,-38.1294 1663.5913,-36.0147"/>
<polygon fill="#191970" stroke="#191970" points="1834.978,-80.6066 1845.4741,-79.1631 1836.3688,-73.7461 1834.978,-80.6066"/>
</g>
<!-- Node13&#45;&gt;Node19 -->
<g id="edge16" class="edge">
<title>Node13&#45;&gt;Node19</title>
<path fill="none" stroke="#191970" d="M1861.4998,-74.0809C1837.9413,-62.9653 1804.9897,-47.4177 1780.8372,-36.0218"/>
<polygon fill="#191970" stroke="#191970" points="1860.1175,-77.2987 1870.6549,-78.4005 1863.1045,-70.968 1860.1175,-77.2987"/>
</g>
<!-- Node13&#45;&gt;Node20 -->
<g id="edge17" class="edge">
<title>Node13&#45;&gt;Node20</title>
<path fill="none" stroke="#191970" d="M1904.2662,-70.2233C1912.2228,-59.5615 1922.2303,-46.1515 1929.7897,-36.0218"/>
<polygon fill="#191970" stroke="#191970" points="1901.3396,-68.2929 1898.1638,-78.4005 1906.9497,-72.4795 1901.3396,-68.2929"/>
</g>
<!-- Node13&#45;&gt;Node21 -->
<g id="edge18" class="edge">
<title>Node13&#45;&gt;Node21</title>
<path fill="none" stroke="#191970" d="M1926.4216,-74.8153C1956.3956,-63.6583 1999.3468,-47.6709 2030.643,-36.0218"/>
<polygon fill="#191970" stroke="#191970" points="1924.9405,-71.6319 1916.7896,-78.4005 1927.3824,-78.1922 1924.9405,-71.6319"/>
</g>
<!-- Node13&#45;&gt;Node22 -->
<g id="edge19" class="edge">
<title>Node13&#45;&gt;Node22</title>
<path fill="none" stroke="#191970" d="M1946.8585,-79.2442C1996.751,-71.0133 2071.6755,-57.6408 2136,-42 2143.2739,-40.2313 2150.9131,-38.1625 2158.3629,-36.0257"/>
<polygon fill="#191970" stroke="#191970" points="1946.2184,-75.8023 1936.9148,-80.8712 1947.3487,-82.7104 1946.2184,-75.8023"/>
</g>
<!-- Node13&#45;&gt;Node23 -->
<g id="edge20" class="edge">
<title>Node13&#45;&gt;Node23</title>
<path fill="none" stroke="#191970" d="M1946.9341,-84.2235C2022.2694,-78.4777 2160.2507,-65.6269 2276,-42 2284.0374,-40.3594 2292.4794,-38.2545 2300.64,-36.0131"/>
<polygon fill="#191970" stroke="#191970" points="1946.4393,-80.7507 1936.7285,-84.9875 1946.9619,-87.7312 1946.4393,-80.7507"/>
</g>
<!-- Node13&#45;&gt;Node24 -->
<g id="edge21" class="edge">
<title>Node13&#45;&gt;Node24</title>
<path fill="none" stroke="#191970" d="M1946.7705,-84.7496C2063.6082,-77.6787 2330.6463,-60.0771 2420,-42 2422.9059,-41.4121 2425.8641,-40.7388 2428.8367,-40.0023"/>
<polygon fill="#191970" stroke="#191970" points="1946.3829,-81.2665 1936.6111,-85.3608 1946.8033,-88.2539 1946.3829,-81.2665"/>
</g>
<!-- Node13&#45;&gt;Node25 -->
<g id="edge22" class="edge">
<title>Node13&#45;&gt;Node25</title>
<path fill="none" stroke="#191970" d="M1946.9432,-85.8422C2084.2491,-80.265 2435.0458,-64.238 2550,-42 2552.9108,-41.4369 2555.873,-40.7835 2558.8487,-40.0628"/>
<polygon fill="#191970" stroke="#191970" points="1946.5055,-82.3569 1936.6545,-86.2567 1946.7873,-89.3512 1946.5055,-82.3569"/>
</g>
<!-- Node13&#45;&gt;Node26 -->
<g id="edge23" class="edge">
<title>Node13&#45;&gt;Node26</title>
<path fill="none" stroke="#191970" d="M1946.8091,-86.166C2102.3187,-80.8295 2538.3885,-64.2658 2680,-42 2696.7908,-39.36 2715.1528,-34.7466 2730.1427,-30.5152"/>
<polygon fill="#191970" stroke="#191970" points="1946.4159,-82.6772 1936.541,-86.516 1946.6545,-89.6732 1946.4159,-82.6772"/>
</g>
<!-- Node13&#45;&gt;Node27 -->
<g id="edge24" class="edge">
<title>Node13&#45;&gt;Node27</title>
<path fill="none" stroke="#191970" d="M1946.7024,-86.8233C2122.7948,-82.8634 2666.0632,-68.7456 2840,-42 2856.6054,-39.4467 2874.7426,-34.8408 2889.543,-30.5919"/>
<polygon fill="#191970" stroke="#191970" points="1946.5414,-83.3259 1936.6218,-87.0478 1946.6974,-90.3241 1946.5414,-83.3259"/>
</g>
<!-- Node13&#45;&gt;Node28 -->
<g id="edge26" class="edge">
<title>Node13&#45;&gt;Node28</title>
<path fill="none" stroke="#191970" d="M1946.7697,-87.6502C2142.1772,-86.1186 2795.159,-78.3383 3001,-42 3009.0521,-40.5785 3017.4832,-38.4305 3025.5239,-36.0422"/>
<polygon fill="#191970" stroke="#191970" points="1946.6984,-84.1505 1936.7253,-87.7265 1946.7517,-91.1503 1946.6984,-84.1505"/>
</g>
<!-- Node13&#45;&gt;Node29 -->
<g id="edge27" class="edge">
<title>Node13&#45;&gt;Node29</title>
<path fill="none" stroke="#191970" d="M1946.8453,-87.2729C2155.9329,-84.3399 2892.3909,-72.0624 3125,-42 3136.1941,-40.5533 3148.0202,-38.4095 3159.3667,-36.0368"/>
<polygon fill="#191970" stroke="#191970" points="1946.6623,-83.775 1936.7118,-87.4135 1946.7594,-90.7743 1946.6623,-83.775"/>
</g>
<!-- Node13&#45;&gt;Node30 -->
<g id="edge29" class="edge">
<title>Node13&#45;&gt;Node30</title>
<path fill="none" stroke="#191970" d="M1946.9948,-87.7625C2173.5967,-86.5534 3023.1622,-79.5578 3289,-42 3299.008,-40.5861 3309.5554,-38.4416 3319.6496,-36.0544"/>
<polygon fill="#191970" stroke="#191970" points="1946.6617,-84.2641 1936.68,-87.8158 1946.698,-91.264 1946.6617,-84.2641"/>
</g>
<!-- Node13&#45;&gt;Node31 -->
<g id="edge30" class="edge">
<title>Node13&#45;&gt;Node31</title>
<path fill="none" stroke="#191970" d="M1946.7758,-87.252C2207.9973,-83.6283 3304.1002,-67.0444 3455,-42 3463.4104,-40.6042 3472.2271,-38.4352 3480.62,-36.0112"/>
<polygon fill="#191970" stroke="#191970" points="1946.7082,-83.7525 1936.7575,-87.3903 1946.8049,-90.7518 1946.7082,-83.7525"/>
</g>
<!-- Node13&#45;&gt;Node32 -->
<g id="edge31" class="edge">
<title>Node13&#45;&gt;Node32</title>
<path fill="none" stroke="#191970" d="M1834.9896,-87.481C1552.9418,-84.7417 294.8854,-70.9805 123,-42 114.8187,-40.6206 106.2529,-38.4592 98.1042,-36.0375"/>
<polygon fill="#191970" stroke="#191970" points="1835.3479,-90.9846 1845.3813,-87.5812 1835.4155,-83.9849 1835.3479,-90.9846"/>
</g>
<!-- Node34&#45;&gt;Node7 -->
<g id="edge56" class="edge">
<title>Node34&#45;&gt;Node7</title>
<path fill="none" stroke="#191970" d="M1876.5779,-183.3607C1865.8519,-173.6727 1852.7066,-161.7995 1843.6758,-153.6427"/>
<polygon fill="#191970" stroke="#191970" points="1874.4334,-186.14 1884.2004,-190.2455 1879.1254,-180.9453 1874.4334,-186.14"/>
</g>
<!-- Node34&#45;&gt;Node8 -->
<g id="edge57" class="edge">
<title>Node34&#45;&gt;Node8</title>
<path fill="none" stroke="#191970" d="M1850.7871,-199.4986C1601.1824,-196.5705 376.8016,-180.8779 302,-154 239.9075,-131.6887 196.552,-57.1605 182.7254,-30.5467"/>
<polygon fill="#191970" stroke="#191970" points="1850.8929,-203 1860.9331,-199.6168 1850.9746,-196.0004 1850.8929,-203"/>
</g>
<!-- Node34&#45;&gt;Node10 -->
<g id="edge58" class="edge">
<title>Node34&#45;&gt;Node10</title>
<path fill="none" stroke="#191970" d="M1850.6559,-199.1045C1655.2233,-195.0485 869.6342,-177.5722 624,-154 463.6905,-138.616 370.708,-220.3602 266,-98 260.2207,-91.2464 260.482,-84.9688 266,-78 290.752,-46.7407 405.8168,-30.913 467.9492,-24.524"/>
<polygon fill="#191970" stroke="#191970" points="1850.7666,-202.6074 1860.8368,-199.3147 1850.9112,-195.6089 1850.7666,-202.6074"/>
</g>
<!-- Node34&#45;&gt;Node11 -->
<g id="edge73" class="edge">
<title>Node34&#45;&gt;Node11</title>
<path fill="none" stroke="#191970" d="M1850.7333,-199.6358C1670.1935,-197.9257 989.0845,-189.2253 777,-154 690.5743,-139.6455 640.4164,-168.1996 588,-98 571.4657,-75.8561 600.2086,-51.314 624.091,-36.0213"/>
<polygon fill="#191970" stroke="#191970" points="1850.887,-203.1373 1860.9189,-199.7299 1850.9517,-196.1376 1850.887,-203.1373"/>
</g>
<!-- Node34&#45;&gt;Node12 -->
<g id="edge76" class="edge">
<title>Node34&#45;&gt;Node12</title>
<path fill="none" stroke="#191970" d="M1850.9612,-199.4866C1669.1476,-197.1632 982.2098,-186.3059 891,-154 851.4505,-139.9918 836.5296,-134.0121 815,-98 804.814,-80.9621 802.699,-58.1022 802.7445,-41.7243"/>
<polygon fill="#191970" stroke="#191970" points="1850.9274,-202.9863 1860.9706,-199.6124 1851.0154,-195.9869 1850.9274,-202.9863"/>
</g>
<!-- Node34&#45;&gt;Node14 -->
<g id="edge59" class="edge">
<title>Node34&#45;&gt;Node14</title>
<path fill="none" stroke="#191970" d="M1850.8238,-199.2056C1682.257,-195.9714 1084.958,-182.5843 1005,-154 965.4916,-139.8761 947.9226,-135.4477 929,-98 917.7248,-75.6865 929.8901,-45.6703 937.625,-30.5513"/>
<polygon fill="#191970" stroke="#191970" points="1850.7746,-202.7052 1860.8392,-199.3954 1850.9074,-195.7064 1850.7746,-202.7052"/>
</g>
<!-- Node34&#45;&gt;Node15 -->
<g id="edge60" class="edge">
<title>Node34&#45;&gt;Node15</title>
<path fill="none" stroke="#191970" d="M1850.394,-199.6367C1694.8747,-198.0594 1182.5822,-190.1437 1119,-154 1092.8515,-139.1357 1089.8341,-126.7515 1081,-98 1073.6399,-74.0456 1086.3481,-45.2331 1094.3101,-30.5774"/>
<polygon fill="#191970" stroke="#191970" points="1850.5056,-203.1379 1860.5393,-199.7356 1850.574,-196.1382 1850.5056,-203.1379"/>
</g>
<!-- Node34&#45;&gt;Node16 -->
<g id="edge61" class="edge">
<title>Node34&#45;&gt;Node16</title>
<path fill="none" stroke="#191970" d="M1850.3727,-198.555C1705.1377,-193.6384 1254.0846,-176.6005 1233,-154 1200.5053,-119.169 1229.6716,-54.8357 1242.5823,-30.5853"/>
<polygon fill="#191970" stroke="#191970" points="1850.5784,-202.0637 1860.6902,-198.9012 1850.8132,-195.0677 1850.5784,-202.0637"/>
</g>
<!-- Node34&#45;&gt;Node17 -->
<g id="edge62" class="edge">
<title>Node34&#45;&gt;Node17</title>
<path fill="none" stroke="#191970" d="M1850.694,-198.0628C1737.7674,-192.1046 1443.9133,-169.8626 1385,-98 1370.6144,-80.4524 1380.9552,-53.0314 1389.8841,-36.0861"/>
<polygon fill="#191970" stroke="#191970" points="1850.5634,-201.5606 1860.7286,-198.5742 1850.9197,-194.5696 1850.5634,-201.5606"/>
</g>
<!-- Node34&#45;&gt;Node18 -->
<g id="edge63" class="edge">
<title>Node34&#45;&gt;Node18</title>
<path fill="none" stroke="#191970" d="M1850.9871,-188.182C1826.1904,-180.4713 1795.2291,-169.0327 1770,-154 1712.9797,-120.0245 1657.4217,-63.2194 1632.5646,-36.1875"/>
<polygon fill="#191970" stroke="#191970" points="1850.2696,-191.6213 1860.8542,-191.1565 1852.29,-184.9192 1850.2696,-191.6213"/>
</g>
<!-- Node34&#45;&gt;Node19 -->
<g id="edge64" class="edge">
<title>Node34&#45;&gt;Node19</title>
<path fill="none" stroke="#191970" d="M1856.2871,-186.4759C1820.2235,-171.3825 1769.3448,-142.9898 1751,-98 1742.77,-77.8162 1744.2095,-52.1185 1746.3416,-36.1114"/>
<polygon fill="#191970" stroke="#191970" points="1855.4424,-189.9082 1866.0266,-190.3831 1858.0487,-183.4114 1855.4424,-189.9082"/>
</g>
<!-- Node34&#45;&gt;Node20 -->
<g id="edge65" class="edge">
<title>Node34&#45;&gt;Node20</title>
<path fill="none" stroke="#191970" d="M1907.3011,-181.9334C1919.8726,-162.2851 1938.5727,-129.4625 1946,-98 1950.9553,-77.0091 1947.7001,-51.9655 1944.6018,-36.2692"/>
<polygon fill="#191970" stroke="#191970" points="1904.2665,-180.1782 1901.6983,-190.4571 1910.1159,-184.0233 1904.2665,-180.1782"/>
</g>
<!-- Node34&#45;&gt;Node21 -->
<g id="edge66" class="edge">
<title>Node34&#45;&gt;Node21</title>
<path fill="none" stroke="#191970" d="M1912.3705,-183.2094C1921.2829,-174.5414 1932.281,-163.763 1942,-154 1983.9845,-111.8256 2032.6562,-61.1495 2056.4244,-36.2842"/>
<polygon fill="#191970" stroke="#191970" points="1909.9001,-180.7295 1905.1598,-190.2048 1914.7743,-185.7537 1909.9001,-180.7295"/>
</g>
<!-- Node34&#45;&gt;Node22 -->
<g id="edge67" class="edge">
<title>Node34&#45;&gt;Node22</title>
<path fill="none" stroke="#191970" d="M1920.6377,-185.2439C1978.846,-151.7413 2120.4956,-70.2131 2179.5095,-36.2469"/>
<polygon fill="#191970" stroke="#191970" points="1918.6417,-182.3543 1911.7207,-190.3762 1922.1336,-188.4212 1918.6417,-182.3543"/>
</g>
<!-- Node34&#45;&gt;Node23 -->
<g id="edge68" class="edge">
<title>Node34&#45;&gt;Node23</title>
<path fill="none" stroke="#191970" d="M1928.7616,-186.6593C2011.2756,-154.0544 2222.7613,-70.4873 2309.7496,-36.1144"/>
<polygon fill="#191970" stroke="#191970" points="1927.3693,-183.4461 1919.3552,-190.3762 1929.9418,-189.9563 1927.3693,-183.4461"/>
</g>
<!-- Node34&#45;&gt;Node24 -->
<g id="edge69" class="edge">
<title>Node34&#45;&gt;Node24</title>
<path fill="none" stroke="#191970" d="M1937.0433,-187.5898C1968.2321,-178.3673 2011.7871,-165.4538 2050,-154 2214.5792,-104.6697 2256.0245,-93.3014 2420,-42 2422.8295,-41.1148 2425.7263,-40.2021 2428.6502,-39.2759"/>
<polygon fill="#191970" stroke="#191970" points="1935.9717,-184.2568 1927.374,-190.4479 1937.956,-190.9697 1935.9717,-184.2568"/>
</g>
<!-- Node34&#45;&gt;Node25 -->
<g id="edge70" class="edge">
<title>Node34&#45;&gt;Node25</title>
<path fill="none" stroke="#191970" d="M1939.1804,-189.9434C1979.7218,-180.6902 2041.4329,-166.5425 2095,-154 2297.7743,-106.5214 2349.9022,-99.7279 2550,-42 2552.8486,-41.1782 2555.7607,-40.3166 2558.6968,-39.4309"/>
<polygon fill="#191970" stroke="#191970" points="1938.3183,-186.5501 1929.3472,-192.1865 1939.8752,-193.3747 1938.3183,-186.5501"/>
</g>
<!-- Node34&#45;&gt;Node26 -->
<g id="edge71" class="edge">
<title>Node34&#45;&gt;Node26</title>
<path fill="none" stroke="#191970" d="M1939.4562,-192.313C1990.5596,-183.4068 2076.9289,-168.1404 2151,-154 2387.0598,-108.9354 2446.3483,-98.2313 2680,-42 2694.8304,-38.4309 2711.1217,-34.2568 2725.1806,-30.5744"/>
<polygon fill="#191970" stroke="#191970" points="1938.6638,-188.8983 1929.4118,-194.0608 1939.8638,-195.7946 1938.6638,-188.8983"/>
</g>
<!-- Node34&#45;&gt;Node27 -->
<g id="edge72" class="edge">
<title>Node34&#45;&gt;Node27</title>
<path fill="none" stroke="#191970" d="M1939.1542,-193.84C2000.7492,-185.1996 2115.9433,-168.8691 2214,-154 2493.4456,-111.6256 2564.7485,-106.2032 2840,-42 2854.9629,-38.5098 2871.3936,-34.2686 2885.4511,-30.5138"/>
<polygon fill="#191970" stroke="#191970" points="1938.4335,-190.4067 1929.016,-195.2606 1939.405,-197.339 1938.4335,-190.4067"/>
</g>
<!-- Node34&#45;&gt;Node28 -->
<g id="edge74" class="edge">
<title>Node34&#45;&gt;Node28</title>
<path fill="none" stroke="#191970" d="M1939.3431,-195.3404C2060.4555,-182.3964 2406.913,-143.9141 2693,-98 2830.3752,-75.9526 2865.9865,-75.6063 3001,-42 3008.001,-40.2574 3015.3458,-38.178 3022.4886,-36.0156"/>
<polygon fill="#191970" stroke="#191970" points="1938.9076,-191.8669 1929.3347,-196.4067 1939.6493,-198.8275 1938.9076,-191.8669"/>
</g>
<!-- Node34&#45;&gt;Node29 -->
<g id="edge75" class="edge">
<title>Node34&#45;&gt;Node29</title>
<path fill="none" stroke="#191970" d="M1939.2552,-196.4636C2025.5114,-189.4379 2222.1212,-172.771 2387,-154 2572.7969,-132.8475 2619.1904,-126.5185 2804,-98 2947.1273,-75.9136 2982.9587,-70.2399 3125,-42 3135.8245,-39.8479 3147.3155,-37.4097 3158.4099,-34.9759"/>
<polygon fill="#191970" stroke="#191970" points="1938.7325,-192.9945 1929.0484,-197.2919 1939.2987,-199.9715 1938.7325,-192.9945"/>
</g>
<!-- Node34&#45;&gt;Node30 -->
<g id="edge77" class="edge">
<title>Node34&#45;&gt;Node30</title>
<path fill="none" stroke="#191970" d="M1939.47,-197.2178C2037.8978,-190.9098 2281.5725,-174.466 2485,-154 2687.2858,-133.6489 2737.7018,-126.5093 2939,-98 3094.9775,-75.9093 3134.7081,-73.7962 3289,-42 3297.5891,-40.23 3306.6279,-38.1604 3315.4527,-36.0233"/>
<polygon fill="#191970" stroke="#191970" points="1939.055,-193.7371 1929.2981,-197.8667 1939.5007,-200.7229 1939.055,-193.7371"/>
</g>
<!-- Node34&#45;&gt;Node31 -->
<g id="edge78" class="edge">
<title>Node34&#45;&gt;Node31</title>
<path fill="none" stroke="#191970" d="M1939.0879,-197.7622C2049.0691,-192.032 2344.37,-175.7371 2590,-154 2814.9411,-134.0938 2871.1556,-127.8067 3095,-98 3255.5075,-76.6271 3297.2271,-78.4302 3455,-42 3462.3437,-40.3043 3470.0486,-38.2244 3477.5256,-36.0396"/>
<polygon fill="#191970" stroke="#191970" points="1938.8364,-194.2705 1929.031,-198.2836 1939.1988,-201.2611 1938.8364,-194.2705"/>
</g>
<!-- Node34&#45;&gt;Node32 -->
<g id="edge79" class="edge">
<title>Node34&#45;&gt;Node32</title>
<path fill="none" stroke="#191970" d="M1850.6151,-199.4169C1597.2881,-196.0047 342.8141,-177.9479 265,-154 185.3209,-129.4782 106.65,-65.4446 73.4495,-36.0937"/>
<polygon fill="#191970" stroke="#191970" points="1850.859,-202.9204 1860.905,-199.5548 1850.9529,-195.921 1850.859,-202.9204"/>
</g>
<!-- Node35&#45;&gt;Node7 -->
<g id="edge81" class="edge">
<title>Node35&#45;&gt;Node7</title>
<path fill="none" stroke="#191970" d="M2089.5666,-191.4182C2023.145,-179.1423 1903.6378,-157.0552 1854.7459,-148.019"/>
<polygon fill="#191970" stroke="#191970" points="2089.2825,-194.9249 2099.7521,-193.3007 2090.5547,-188.0415 2089.2825,-194.9249"/>
</g>
<!-- Node35&#45;&gt;Node10 -->
<g id="edge82" class="edge">
<title>Node35&#45;&gt;Node10</title>
<path fill="none" stroke="#191970" d="M2089.8566,-197.5999C2049.7303,-195.5294 1990.0255,-192.4887 1938,-190 1583.8216,-173.0572 1494.7139,-178.8166 1141,-154 879.1279,-135.6271 774.234,-239.3155 553,-98 528.2075,-82.1635 515.4285,-47.4195 510.4872,-30.5572"/>
<polygon fill="#191970" stroke="#191970" points="2089.7051,-201.0967 2099.8724,-198.1175 2090.0664,-194.106 2089.7051,-201.0967"/>
</g>
<!-- Node35&#45;&gt;Node11 -->
<g id="edge97" class="edge">
<title>Node35&#45;&gt;Node11</title>
<path fill="none" stroke="#191970" d="M2089.7668,-197.6736C1911.7854,-188.7052 1279.7719,-156.7389 1259,-154 1140.5162,-138.3773 1112.7773,-123.4073 996,-98 899.004,-76.8965 786.8494,-51.7212 717.4141,-36.0444"/>
<polygon fill="#191970" stroke="#191970" points="2089.6907,-201.1741 2099.8542,-198.1817 2090.043,-194.1829 2089.6907,-201.1741"/>
</g>
<!-- Node35&#45;&gt;Node12 -->
<g id="edge100" class="edge">
<title>Node35&#45;&gt;Node12</title>
<path fill="none" stroke="#191970" d="M2089.5683,-197.5081C1938.1412,-189.3264 1464.4319,-163.2802 1396,-154 1156.5642,-121.5298 1096.7385,-106.9351 864,-42 861.1298,-41.1992 858.1977,-40.3337 855.2485,-39.4261"/>
<polygon fill="#191970" stroke="#191970" points="2089.73,-201.0218 2099.904,-198.0658 2090.1072,-194.032 2089.73,-201.0218"/>
</g>
<!-- Node35&#45;&gt;Node14 -->
<g id="edge83" class="edge">
<title>Node35&#45;&gt;Node14</title>
<path fill="none" stroke="#191970" d="M2089.5134,-197.4545C1965.1425,-190.4997 1626.7214,-170.5893 1516,-154 1293.7861,-120.7058 1241.2515,-95.421 1023,-42 1008.3549,-38.4153 992.2651,-34.2384 978.3795,-30.5582"/>
<polygon fill="#191970" stroke="#191970" points="2089.6524,-200.9675 2099.8316,-198.0292 2090.0417,-193.9784 2089.6524,-200.9675"/>
</g>
<!-- Node35&#45;&gt;Node15 -->
<g id="edge84" class="edge">
<title>Node35&#45;&gt;Node15</title>
<path fill="none" stroke="#191970" d="M2089.7614,-198.231C1999.8675,-194.263 1795.481,-182.6506 1626,-154 1423.6322,-119.7899 1376.6546,-93.5693 1178,-42 1163.8831,-38.3353 1148.3631,-34.1824 1134.9099,-30.5427"/>
<polygon fill="#191970" stroke="#191970" points="2089.7501,-201.7337 2099.8914,-198.667 2090.0512,-194.7402 2089.7501,-201.7337"/>
</g>
<!-- Node35&#45;&gt;Node16 -->
<g id="edge85" class="edge">
<title>Node35&#45;&gt;Node16</title>
<path fill="none" stroke="#191970" d="M2089.7452,-197.5534C2011.5384,-192.8422 1848.4597,-180.5369 1713,-154 1543.4617,-120.787 1346.0756,-55.0498 1275.1184,-30.5225"/>
<polygon fill="#191970" stroke="#191970" points="2089.5673,-201.0489 2099.7558,-198.1426 2089.9787,-194.061 2089.5673,-201.0489"/>
</g>
<!-- Node35&#45;&gt;Node17 -->
<g id="edge86" class="edge">
<title>Node35&#45;&gt;Node17</title>
<path fill="none" stroke="#191970" d="M2089.4973,-195.5156C2024.8284,-188.84 1904.2665,-174.8009 1803,-154 1710.9021,-135.0824 1688.3153,-127.3713 1599,-98 1540.6814,-78.822 1474.455,-52.3782 1434.7412,-36.0017"/>
<polygon fill="#191970" stroke="#191970" points="2089.4617,-199.03 2099.7651,-196.5619 2090.1715,-192.066 2089.4617,-199.03"/>
</g>
<!-- Node35&#45;&gt;Node18 -->
<g id="edge87" class="edge">
<title>Node35&#45;&gt;Node18</title>
<path fill="none" stroke="#191970" d="M2090.0005,-191.2674C2050.1321,-183.1983 1991.1301,-170.0497 1941,-154 1831.8414,-119.0517 1707.8498,-62.9663 1650.7981,-36.1865"/>
<polygon fill="#191970" stroke="#191970" points="2089.4665,-194.7298 2099.9586,-193.2577 2090.8385,-187.8656 2089.4665,-194.7298"/>
</g>
<!-- Node35&#45;&gt;Node19 -->
<g id="edge88" class="edge">
<title>Node35&#45;&gt;Node19</title>
<path fill="none" stroke="#191970" d="M2097.9808,-187.1356C2018.1089,-160.0959 1839.9462,-99.7018 1837,-98 1807.6433,-81.0433 1779.1393,-53.4422 1762.8683,-36.3004"/>
<polygon fill="#191970" stroke="#191970" points="2097.074,-190.5237 2107.6683,-190.4149 2099.3185,-183.8933 2097.074,-190.5237"/>
</g>
<!-- Node35&#45;&gt;Node20 -->
<g id="edge89" class="edge">
<title>Node35&#45;&gt;Node20</title>
<path fill="none" stroke="#191970" d="M2139.0609,-180.1844C2140.1815,-166.2499 2139.5038,-147.7177 2131,-134 2112.4974,-104.153 2023.3574,-59.2347 1974.0243,-36.0442"/>
<polygon fill="#191970" stroke="#191970" points="2135.5756,-179.8556 2137.8918,-190.1942 2142.5283,-180.6678 2135.5756,-179.8556"/>
</g>
<!-- Node35&#45;&gt;Node21 -->
<g id="edge90" class="edge">
<title>Node35&#45;&gt;Node21</title>
<path fill="none" stroke="#191970" d="M2152.2369,-182.8324C2158.7942,-174.7408 2165.6054,-164.5555 2169,-154 2179.3412,-121.8442 2185.842,-107.2794 2169,-78 2157.7631,-58.4648 2136.9734,-45.0018 2117.4241,-36.0872"/>
<polygon fill="#191970" stroke="#191970" points="2149.553,-180.5851 2145.6492,-190.4346 2154.8431,-185.1693 2149.553,-180.5851"/>
</g>
<!-- Node35&#45;&gt;Node22 -->
<g id="edge91" class="edge">
<title>Node35&#45;&gt;Node22</title>
<path fill="none" stroke="#191970" d="M2172.5125,-186.4249C2208.0258,-171.0212 2259.8968,-142.1509 2283,-98 2296.3669,-72.4554 2266.484,-50.0204 2240.136,-36.055"/>
<polygon fill="#191970" stroke="#191970" points="2170.8444,-183.3286 2162.9673,-190.4139 2173.5435,-189.7873 2170.8444,-183.3286"/>
</g>
<!-- Node35&#45;&gt;Node23 -->
<g id="edge92" class="edge">
<title>Node35&#45;&gt;Node23</title>
<path fill="none" stroke="#191970" d="M2182.0688,-188.954C2205.7723,-181.7089 2234.1868,-170.4683 2256,-154 2298.7981,-121.6886 2328.9457,-63.5567 2341.496,-36.1196"/>
<polygon fill="#191970" stroke="#191970" points="2180.8546,-185.6621 2172.2316,-191.818 2182.8113,-192.3831 2180.8546,-185.6621"/>
</g>
<!-- Node35&#45;&gt;Node24 -->
<g id="edge93" class="edge">
<title>Node35&#45;&gt;Node24</title>
<path fill="none" stroke="#191970" d="M2182.0422,-188.6661C2210.9111,-180.7454 2248.493,-168.9238 2280,-154 2348.2467,-121.674 2420.697,-70.0012 2458.5108,-41.5141"/>
<polygon fill="#191970" stroke="#191970" points="2180.9689,-185.3302 2172.2186,-191.3037 2182.7841,-192.0908 2180.9689,-185.3302"/>
</g>
<!-- Node35&#45;&gt;Node25 -->
<g id="edge94" class="edge">
<title>Node35&#45;&gt;Node25</title>
<path fill="none" stroke="#191970" d="M2182.3201,-190.1096C2218.3863,-181.896 2269.464,-169.1339 2313,-154 2408.781,-120.7048 2516.4837,-69.871 2573.8352,-41.6677"/>
<polygon fill="#191970" stroke="#191970" points="2181.089,-186.799 2172.1,-192.4069 2182.6242,-193.6285 2181.089,-186.799"/>
</g>
<!-- Node35&#45;&gt;Node26 -->
<g id="edge95" class="edge">
<title>Node35&#45;&gt;Node26</title>
<path fill="none" stroke="#191970" d="M2182.0785,-191.5661C2225.8374,-183.2216 2293.3201,-169.4818 2351,-154 2498.0773,-114.5232 2670.404,-53.7655 2734.8992,-30.5057"/>
<polygon fill="#191970" stroke="#191970" points="2181.2041,-188.1693 2172.0289,-193.467 2182.5052,-195.0473 2181.2041,-188.1693"/>
</g>
<!-- Node35&#45;&gt;Node27 -->
<g id="edge96" class="edge">
<title>Node35&#45;&gt;Node27</title>
<path fill="none" stroke="#191970" d="M2182.0186,-192.9345C2234.3165,-184.6629 2322.1338,-170.0388 2397,-154 2583.1971,-114.1104 2803.4062,-53.7247 2886.2508,-30.5328"/>
<polygon fill="#191970" stroke="#191970" points="2181.3817,-189.4915 2172.0469,-194.5026 2182.4693,-196.4065 2181.3817,-189.4915"/>
</g>
<!-- Node35&#45;&gt;Node28 -->
<g id="edge98" class="edge">
<title>Node35&#45;&gt;Node28</title>
<path fill="none" stroke="#191970" d="M2182.3075,-194.0954C2244.0045,-186.0376 2356.4917,-170.6799 2452,-154 2697.3128,-111.1577 2760.0049,-104.7311 3001,-42 3007.7492,-40.2432 3014.828,-38.2045 3021.7406,-36.1018"/>
<polygon fill="#191970" stroke="#191970" points="2181.5881,-190.6594 2172.1228,-195.4195 2182.4906,-197.601 2181.5881,-190.6594"/>
</g>
<!-- Node35&#45;&gt;Node29 -->
<g id="edge99" class="edge">
<title>Node35&#45;&gt;Node29</title>
<path fill="none" stroke="#191970" d="M2182.3555,-195.4362C2254.8097,-188.0836 2399.2165,-172.5469 2521,-154 2790.9085,-112.8946 2857.5072,-96.6613 3125,-42 3135.8129,-39.7904 3147.2983,-37.3243 3158.3908,-34.8809"/>
<polygon fill="#191970" stroke="#191970" points="2181.7969,-191.9747 2172.1988,-196.4611 2182.4997,-198.9394 2181.7969,-191.9747"/>
</g>
<!-- Node35&#45;&gt;Node30 -->
<g id="edge101" class="edge">
<title>Node35&#45;&gt;Node30</title>
<path fill="none" stroke="#191970" d="M2182.2817,-196.3054C2265.3305,-189.4679 2445.08,-173.7231 2596,-154 2905.3659,-113.5702 2983.4744,-105.2132 3289,-42 3297.5878,-40.2232 3306.6257,-38.15 3315.4502,-36.0113"/>
<polygon fill="#191970" stroke="#191970" points="2181.8473,-192.8292 2172.1662,-197.1335 2182.4185,-199.8058 2181.8473,-192.8292"/>
</g>
<!-- Node35&#45;&gt;Node31 -->
<g id="edge102" class="edge">
<title>Node35&#45;&gt;Node31</title>
<path fill="none" stroke="#191970" d="M2182.1273,-197.087C2276.6433,-190.9085 2499.0684,-175.2918 2685,-154 3028.5781,-114.6554 3117.6624,-118.1393 3455,-42 3462.352,-40.3406 3470.0613,-38.2797 3477.54,-36.1028"/>
<polygon fill="#191970" stroke="#191970" points="2181.7979,-193.601 2172.0458,-197.7419 2182.2517,-200.5862 2181.7979,-193.601"/>
</g>
<!-- Node35&#45;&gt;Node32 -->
<g id="edge103" class="edge">
<title>Node35&#45;&gt;Node32</title>
<path fill="none" stroke="#191970" d="M2089.8667,-197.3672C2049.7468,-195.15 1990.0456,-192.0248 1938,-190 1352.4467,-167.2194 1203.8825,-203.727 620,-154 445.5205,-139.1403 398.2582,-146.5087 230,-98 176.457,-82.5636 117.9754,-53.8124 84.5676,-36.1453"/>
<polygon fill="#191970" stroke="#191970" points="2089.7018,-200.8634 2099.8808,-197.9243 2090.0907,-193.8742 2089.7018,-200.8634"/>
</g>
</g>
</svg>
        <g id="navigator" transform="translate(0 0)" fill="#404254">
                <rect fill="#f2f5e9" fill-opacity="0.5" stroke="#606060" stroke-width=".5" x="0" y="0" width="60" height="60"/>
                <use id="zoomplus" xlink:href="#zoomPlus" x="17" y="9" onmousedown="handleZoom(evt,'in')"/>
                <use id="zoomminus" xlink:href="#zoomMin" x="42" y="9" onmousedown="handleZoom(evt,'out')"/>
                <use id="reset" xlink:href="#resetDef" x="30" y="36" onmousedown="handleReset()"/>
                <g id="arrowUp" xlink:href="#dirArrow" transform="translate(30 24)" onmousedown="handlePan(0,-1)">
                  <use xlink:href="#rim" fill="#404040">
                        <set attributeName="fill" to="#808080" begin="arrowUp.mouseover" end="arrowUp.mouseout"/>
                  </use>
                  <path fill="none" stroke="white" stroke-width="1.5" d="M0,-3.0v7 M-2.5,-0.5L0,-3.0L2.5,-0.5"/>
                </g>
                <g id="arrowRight" xlink:href="#dirArrow" transform="rotate(90) translate(36 -43)" onmousedown="handlePan(1,0)">
                  <use xlink:href="#rim" fill="#404040">
                        <set attributeName="fill" to="#808080" begin="arrowRight.mouseover" end="arrowRight.mouseout"/>
                  </use>
                  <path fill="none" stroke="white" stroke-width="1.5" d="M0,-3.0v7 M-2.5,-0.5L0,-3.0L2.5,-0.5"/>
                </g>
                <g id="arrowDown" xlink:href="#dirArrow" transform="rotate(180) translate(-30 -48)" onmousedown="handlePan(0,1)">
                  <use xlink:href="#rim" fill="#404040">
                        <set attributeName="fill" to="#808080" begin="arrowDown.mouseover" end="arrowDown.mouseout"/>
                  </use>
                  <path fill="none" stroke="white" stroke-width="1.5" d="M0,-3.0v7 M-2.5,-0.5L0,-3.0L2.5,-0.5"/>
                </g>
                <g id="arrowLeft" xlink:href="#dirArrow" transform="rotate(270) translate(-36 17)" onmousedown="handlePan(-1,0)">
                  <use xlink:href="#rim" fill="#404040">
                        <set attributeName="fill" to="#808080" begin="arrowLeft.mouseover" end="arrowLeft.mouseout"/>
                  </use>
                  <path fill="none" stroke="white" stroke-width="1.5" d="M0,-3.0v7 M-2.5,-0.5L0,-3.0L2.5,-0.5"/>
                </g>
        </g>
        <svg viewBox="0 0 15 15" width="100%" height="30px" preserveAspectRatio="xMaxYMin meet">
         <g id="arrow_out" transform="scale(0.3 0.3)">
          <a xlink:href="mpi__class_8h__dep__incl_org.svg" target="_base">
           <rect id="button" ry="5" rx="5" y="6" x="6" height="38" width="38"
                fill="#f2f5e9" fill-opacity="0.5" stroke="#606060" stroke-width="1.0"/>
           <path id="arrow"
             d="M 11.500037,31.436501 C 11.940474,20.09759 22.043105,11.32322 32.158766,21.979434 L 37.068811,17.246167 C 37.068811,17.246167 37.088388,32 37.088388,32 L 22.160133,31.978069 C 22.160133,31.978069 26.997745,27.140456 26.997745,27.140456 C 18.528582,18.264221 13.291696,25.230495 11.500037,31.436501 z"
             style="fill:#404040;"/>
          </a>
         </g>
        </svg>
</svg>
