<?xml version="1.0" encoding="UTF-8" standalone="no"?>
<!DOCTYPE svg PUBLIC "-//W3C//DTD SVG 1.1//EN"
 "http://www.w3.org/Graphics/SVG/1.1/DTD/svg11.dtd">
<!-- Generated by graphviz version 2.40.1 (20161225.0304)
 -->
<!-- Title: mpi_fftw_class.h Pages: 1 -->
<svg width="1495pt" height="308pt"
 viewBox="0.00 0.00 1494.92 308.00" xmlns="http://www.w3.org/2000/svg" xmlns:xlink="http://www.w3.org/1999/xlink">
<g id="graph0" class="graph" transform="scale(1 1) rotate(0) translate(4 304)">
<title>mpi_fftw_class.h</title>
<polygon fill="#ffffff" stroke="transparent" points="-4,4 -4,-304 1490.9226,-304 1490.9226,4 -4,4"/>
<!-- Node0 -->
<g id="node1" class="node">
<title>Node0</title>
<polygon fill="#bfbfbf" stroke="#000000" points="797.5,-280.5 797.5,-299.5 888.5,-299.5 888.5,-280.5 797.5,-280.5"/>
<text text-anchor="middle" x="843" y="-287.5" font-family="Helvetica,sans-Serif" font-size="10.00" fill="#000000">mpi_fftw_class.h</text>
</g>
<!-- Node1 -->
<g id="node2" class="node">
<title>Node1</title>
<polygon fill="#ffffff" stroke="#bfbfbf" points="28,-168.5 28,-187.5 74,-187.5 74,-168.5 28,-168.5"/>
<text text-anchor="middle" x="51" y="-175.5" font-family="Helvetica,sans-Serif" font-size="10.00" fill="#000000">stdio.h</text>
</g>
<!-- Node0&#45;&gt;Node1 -->
<g id="edge1" class="edge">
<title>Node0&#45;&gt;Node1</title>
<path fill="none" stroke="#191970" d="M797.2836,-287.9704C707.5907,-283.5291 502.4396,-271.1015 332,-244 241.0611,-229.5398 135.8984,-201.8348 83.7825,-187.3484"/>
<polygon fill="#191970" stroke="#191970" points="84.6598,-183.9595 74.0865,-184.6352 82.7734,-190.7005 84.6598,-183.9595"/>
</g>
<!-- Node2 -->
<g id="node3" class="node">
<title>Node2</title>
<polygon fill="#ffffff" stroke="#bfbfbf" points="644,-.5 644,-19.5 692,-19.5 692,-.5 644,-.5"/>
<text text-anchor="middle" x="668" y="-7.5" font-family="Helvetica,sans-Serif" font-size="10.00" fill="#000000">stdlib.h</text>
</g>
<!-- Node0&#45;&gt;Node2 -->
<g id="edge2" class="edge">
<title>Node0&#45;&gt;Node2</title>
<path fill="none" stroke="#191970" d="M797.3778,-288.7868C621.8696,-283.5252 0,-259.156 0,-178 0,-178 0,-178 0,-122 0,-57.0982 496.7999,-20.8416 633.5315,-12.092"/>
<polygon fill="#191970" stroke="#191970" points="634.0714,-15.565 643.8309,-11.4416 633.6302,-8.5789 634.0714,-15.565"/>
</g>
<!-- Node3 -->
<g id="node4" class="node">
<title>Node3</title>
<polygon fill="#ffffff" stroke="#bfbfbf" points="828.5,-56.5 828.5,-75.5 869.5,-75.5 869.5,-56.5 828.5,-56.5"/>
<text text-anchor="middle" x="849" y="-63.5" font-family="Helvetica,sans-Serif" font-size="10.00" fill="#000000">mpi.h</text>
</g>
<!-- Node0&#45;&gt;Node3 -->
<g id="edge3" class="edge">
<title>Node0&#45;&gt;Node3</title>
<path fill="none" stroke="#191970" d="M822.4062,-280.3916C769.3669,-254.3601 635.7226,-179.8648 687,-112 702.8015,-91.0869 775.9408,-76.9029 818.3462,-70.2812"/>
<polygon fill="#191970" stroke="#191970" points="819.0463,-73.7152 828.4115,-68.7611 818.0009,-66.7937 819.0463,-73.7152"/>
</g>
<!-- Node4 -->
<g id="node5" class="node">
<title>Node4</title>
<polygon fill="#ffffff" stroke="#bfbfbf" points="816.5,-112.5 816.5,-131.5 869.5,-131.5 869.5,-112.5 816.5,-112.5"/>
<text text-anchor="middle" x="843" y="-119.5" font-family="Helvetica,sans-Serif" font-size="10.00" fill="#000000">complex</text>
</g>
<!-- Node0&#45;&gt;Node4 -->
<g id="edge4" class="edge">
<title>Node0&#45;&gt;Node4</title>
<path fill="none" stroke="#191970" d="M841.1988,-280.496C837.5459,-259.9468 829.9439,-209.8554 834,-168 834.8418,-159.3132 836.5579,-149.8313 838.268,-141.7451"/>
<polygon fill="#191970" stroke="#191970" points="841.7274,-142.3146 840.5135,-131.7895 834.899,-140.7743 841.7274,-142.3146"/>
</g>
<!-- Node5 -->
<g id="node6" class="node">
<title>Node5</title>
<g id="a_node6"><a xlink:href="$su3__matrix_8h.html" xlink:title="su3_matrix.h">
<polygon fill="#ffffff" stroke="#000000" points="341.5,-224.5 341.5,-243.5 414.5,-243.5 414.5,-224.5 341.5,-224.5"/>
<text text-anchor="middle" x="378" y="-231.5" font-family="Helvetica,sans-Serif" font-size="10.00" fill="#000000">su3_matrix.h</text>
</a>
</g>
</g>
<!-- Node0&#45;&gt;Node5 -->
<g id="edge5" class="edge">
<title>Node0&#45;&gt;Node5</title>
<path fill="none" stroke="#191970" d="M797.1414,-284.4772C708.4307,-273.7938 514.2084,-250.4036 424.7758,-239.6332"/>
<polygon fill="#191970" stroke="#191970" points="425.0055,-236.1357 414.6587,-238.4148 424.1685,-243.0855 425.0055,-236.1357"/>
</g>
<!-- Node6 -->
<g id="node7" class="node">
<title>Node6</title>
<polygon fill="#ffffff" stroke="#bfbfbf" points="560.5,-168.5 560.5,-187.5 607.5,-187.5 607.5,-168.5 560.5,-168.5"/>
<text text-anchor="middle" x="584" y="-175.5" font-family="Helvetica,sans-Serif" font-size="10.00" fill="#000000">math.h</text>
</g>
<!-- Node0&#45;&gt;Node6 -->
<g id="edge28" class="edge">
<title>Node0&#45;&gt;Node6</title>
<path fill="none" stroke="#191970" d="M797.029,-284.8997C740.7296,-277.9009 649.4556,-263.8842 622,-244 606.3171,-232.642 596.1415,-212.679 590.3045,-197.6739"/>
<polygon fill="#191970" stroke="#191970" points="593.4492,-196.07 586.8044,-187.8179 586.8528,-198.4126 593.4492,-196.07"/>
</g>
<!-- Node12 -->
<g id="node13" class="node">
<title>Node12</title>
<g id="a_node13"><a xlink:href="$config_8h.html" xlink:title="config.h">
<polygon fill="#ffffff" stroke="#000000" points="1202.5,-56.5 1202.5,-75.5 1253.5,-75.5 1253.5,-56.5 1202.5,-56.5"/>
<text text-anchor="middle" x="1228" y="-63.5" font-family="Helvetica,sans-Serif" font-size="10.00" fill="#000000">config.h</text>
</a>
</g>
</g>
<!-- Node0&#45;&gt;Node12 -->
<g id="edge16" class="edge">
<title>Node0&#45;&gt;Node12</title>
<path fill="none" stroke="#191970" d="M888.8032,-288.3198C1029.688,-282.9323 1448.3057,-265.1971 1468,-244 1510.0921,-198.696 1474.7323,-147.3615 1424,-112 1398.3677,-94.1338 1312.9434,-78.7868 1263.7427,-71.1541"/>
<polygon fill="#191970" stroke="#191970" points="1264.2411,-67.6898 1253.8281,-69.6444 1263.1872,-74.61 1264.2411,-67.6898"/>
</g>
<!-- Node14 -->
<g id="node15" class="node">
<title>Node14</title>
<g id="a_node15"><a xlink:href="$mpi__class_8h.html" xlink:title="mpi_class.h">
<polygon fill="#ffffff" stroke="#000000" points="1108.5,-112.5 1108.5,-131.5 1177.5,-131.5 1177.5,-112.5 1108.5,-112.5"/>
<text text-anchor="middle" x="1143" y="-119.5" font-family="Helvetica,sans-Serif" font-size="10.00" fill="#000000">mpi_class.h</text>
</a>
</g>
</g>
<!-- Node0&#45;&gt;Node14 -->
<g id="edge20" class="edge">
<title>Node0&#45;&gt;Node14</title>
<path fill="none" stroke="#191970" d="M888.5373,-283.4697C1020.6863,-264.3078 1396.0026,-208.3091 1413,-188 1459.2909,-132.6901 1565.0031,-205.1244 1187.5554,-132.2083"/>
<polygon fill="#191970" stroke="#191970" points="1188.1724,-128.7628 1177.6882,-130.2905 1186.8367,-135.6342 1188.1724,-128.7628"/>
</g>
<!-- Node15 -->
<g id="node16" class="node">
<title>Node15</title>
<polygon fill="#ffffff" stroke="#bfbfbf" points="1311.5,-224.5 1311.5,-243.5 1358.5,-243.5 1358.5,-224.5 1311.5,-224.5"/>
<text text-anchor="middle" x="1335" y="-231.5" font-family="Helvetica,sans-Serif" font-size="10.00" fill="#000000">fftw3.h</text>
</g>
<!-- Node0&#45;&gt;Node15 -->
<g id="edge25" class="edge">
<title>Node0&#45;&gt;Node15</title>
<path fill="none" stroke="#191970" d="M888.7592,-287.7343C971.0153,-283.1365 1149.0803,-270.7871 1297,-244 1298.4684,-243.7341 1299.9633,-243.4406 1301.4695,-243.1262"/>
<polygon fill="#191970" stroke="#191970" points="1302.4618,-246.489 1311.4113,-240.8183 1300.8788,-239.6703 1302.4618,-246.489"/>
</g>
<!-- Node16 -->
<g id="node17" class="node">
<title>Node16</title>
<polygon fill="#ffffff" stroke="#bfbfbf" points="1376.5,-224.5 1376.5,-243.5 1441.5,-243.5 1441.5,-224.5 1376.5,-224.5"/>
<text text-anchor="middle" x="1409" y="-231.5" font-family="Helvetica,sans-Serif" font-size="10.00" fill="#000000">fftw3&#45;mpi.h</text>
</g>
<!-- Node0&#45;&gt;Node16 -->
<g id="edge26" class="edge">
<title>Node0&#45;&gt;Node16</title>
<path fill="none" stroke="#191970" d="M888.8371,-288.2305C978.6295,-284.2774 1184.067,-272.8363 1366.0562,-243.9327"/>
<polygon fill="#191970" stroke="#191970" points="1366.7601,-247.3646 1376.0767,-242.3196 1365.6475,-240.4536 1366.7601,-247.3646"/>
</g>
<!-- Node17 -->
<g id="node18" class="node">
<title>Node17</title>
<polygon fill="#ffffff" stroke="#bfbfbf" points="1355,-112.5 1355,-131.5 1399,-131.5 1399,-112.5 1355,-112.5"/>
<text text-anchor="middle" x="1377" y="-119.5" font-family="Helvetica,sans-Serif" font-size="10.00" fill="#000000">omp.h</text>
</g>
<!-- Node0&#45;&gt;Node17 -->
<g id="edge27" class="edge">
<title>Node0&#45;&gt;Node17</title>
<path fill="none" stroke="#191970" d="M888.9428,-288.2106C1027.1797,-282.6063 1430.9595,-264.538 1450,-244 1460.7526,-232.4017 1460.4893,-198.2646 1442,-168 1433.8806,-154.7095 1420.3196,-144.2082 1407.6788,-136.615"/>
<polygon fill="#191970" stroke="#191970" points="1409.1629,-133.4347 1398.7279,-131.6016 1405.7422,-139.542 1409.1629,-133.4347"/>
</g>
<!-- Node18 -->
<g id="node19" class="node">
<title>Node18</title>
<g id="a_node19"><a xlink:href="$field_8h.html" xlink:title="field.h">
<polygon fill="#ffffff" stroke="#000000" points="990.5,-224.5 990.5,-243.5 1033.5,-243.5 1033.5,-224.5 990.5,-224.5"/>
<text text-anchor="middle" x="1012" y="-231.5" font-family="Helvetica,sans-Serif" font-size="10.00" fill="#000000">field.h</text>
</a>
</g>
</g>
<!-- Node0&#45;&gt;Node18 -->
<g id="edge29" class="edge">
<title>Node0&#45;&gt;Node18</title>
<path fill="none" stroke="#191970" d="M872.0521,-280.3733C902.2371,-270.3711 949.3231,-254.7687 980.4146,-244.4662"/>
<polygon fill="#191970" stroke="#191970" points="981.9065,-247.659 990.298,-241.1912 979.7046,-241.0143 981.9065,-247.659"/>
</g>
<!-- Node5&#45;&gt;Node1 -->
<g id="edge6" class="edge">
<title>Node5&#45;&gt;Node1</title>
<path fill="none" stroke="#191970" d="M341.1449,-229.4362C285.8373,-222.2988 178.2285,-207.2916 88,-188 86.7189,-187.7261 85.4161,-187.4352 84.1024,-187.1315"/>
<polygon fill="#191970" stroke="#191970" points="84.5488,-183.6361 74.0001,-184.6235 82.8622,-190.4299 84.5488,-183.6361"/>
</g>
<!-- Node5&#45;&gt;Node2 -->
<g id="edge8" class="edge">
<title>Node5&#45;&gt;Node2</title>
<path fill="none" stroke="#191970" d="M341.3201,-228.6958C272.0069,-218.4998 128.0545,-196.4293 121,-188 115.2951,-181.1834 115.6742,-175.1167 121,-168 184.3345,-83.3677 523.645,-29.8662 633.5902,-14.5512"/>
<polygon fill="#191970" stroke="#191970" points="634.3619,-17.9782 643.792,-13.1486 633.4084,-11.0434 634.3619,-17.9782"/>
</g>
<!-- Node5&#45;&gt;Node6 -->
<g id="edge7" class="edge">
<title>Node5&#45;&gt;Node6</title>
<path fill="none" stroke="#191970" d="M413.4127,-224.3733C451.7925,-213.9399 512.588,-197.413 550.2891,-187.1641"/>
<polygon fill="#191970" stroke="#191970" points="551.5409,-190.4509 560.2726,-184.4502 549.7046,-183.6961 551.5409,-190.4509"/>
</g>
<!-- Node7 -->
<g id="node8" class="node">
<title>Node7</title>
<polygon fill="#ffffff" stroke="#bfbfbf" points="1120,-.5 1120,-19.5 1174,-19.5 1174,-.5 1120,-.5"/>
<text text-anchor="middle" x="1147" y="-7.5" font-family="Helvetica,sans-Serif" font-size="10.00" fill="#000000">iostream</text>
</g>
<!-- Node5&#45;&gt;Node7 -->
<g id="edge9" class="edge">
<title>Node5&#45;&gt;Node7</title>
<path fill="none" stroke="#191970" d="M410.722,-224.4236C438.3996,-215.9526 478.8846,-202.6834 513,-188 530.5305,-180.4548 533.9814,-176.638 551,-168 652.0299,-116.7213 671.4254,-88.3744 780,-56 841.248,-37.7373 1029.1486,-20.0627 1109.7015,-13.1041"/>
<polygon fill="#191970" stroke="#191970" points="1110.2162,-16.5729 1119.8811,-12.2325 1109.619,-9.5984 1110.2162,-16.5729"/>
</g>
<!-- Node8 -->
<g id="node9" class="node">
<title>Node8</title>
<polygon fill="#ffffff" stroke="#bfbfbf" points="347,-112.5 347,-131.5 409,-131.5 409,-112.5 347,-112.5"/>
<text text-anchor="middle" x="378" y="-119.5" font-family="Helvetica,sans-Serif" font-size="10.00" fill="#000000">complex.h</text>
</g>
<!-- Node5&#45;&gt;Node8 -->
<g id="edge10" class="edge">
<title>Node5&#45;&gt;Node8</title>
<path fill="none" stroke="#191970" d="M350.3041,-224.4275C333.9537,-217.1781 314.6261,-205.4435 305,-188 292.8491,-165.9812 318.8054,-147.4633 343.0641,-135.7"/>
<polygon fill="#191970" stroke="#191970" points="344.5536,-138.8675 352.1954,-131.5291 341.6452,-132.5003 344.5536,-138.8675"/>
</g>
<!-- Node9 -->
<g id="node10" class="node">
<title>Node9</title>
<polygon fill="#ffffff" stroke="#bfbfbf" points="460,-168.5 460,-187.5 504,-187.5 504,-168.5 460,-168.5"/>
<text text-anchor="middle" x="482" y="-175.5" font-family="Helvetica,sans-Serif" font-size="10.00" fill="#000000">float.h</text>
</g>
<!-- Node5&#45;&gt;Node9 -->
<g id="edge11" class="edge">
<title>Node5&#45;&gt;Node9</title>
<path fill="none" stroke="#191970" d="M396.1154,-224.2455C412.445,-215.4527 436.671,-202.4079 455.2339,-192.4125"/>
<polygon fill="#191970" stroke="#191970" points="456.9468,-195.4654 464.0922,-187.6427 453.6281,-189.3021 456.9468,-195.4654"/>
</g>
<!-- Node10 -->
<g id="node11" class="node">
<title>Node10</title>
<g id="a_node11"><a xlink:href="$zheevc3_8h.html" xlink:title="zheevh3&#45;C&#45;1.1/zheevc3.h">
<polygon fill="#ffffff" stroke="#000000" points="314,-168.5 314,-187.5 442,-187.5 442,-168.5 314,-168.5"/>
<text text-anchor="middle" x="378" y="-175.5" font-family="Helvetica,sans-Serif" font-size="10.00" fill="#000000">zheevh3&#45;C&#45;1.1/zheevc3.h</text>
</a>
</g>
</g>
<!-- Node5&#45;&gt;Node10 -->
<g id="edge12" class="edge">
<title>Node5&#45;&gt;Node10</title>
<path fill="none" stroke="#191970" d="M378,-224.2455C378,-216.9382 378,-206.6944 378,-197.7046"/>
<polygon fill="#191970" stroke="#191970" points="381.5001,-197.6426 378,-187.6427 374.5001,-197.6427 381.5001,-197.6426"/>
</g>
<!-- Node11 -->
<g id="node12" class="node">
<title>Node11</title>
<g id="a_node12"><a xlink:href="$zheevq3_8h.html" xlink:title="zheevh3&#45;C&#45;1.1/zheevq3.h">
<polygon fill="#ffffff" stroke="#000000" points="130,-168.5 130,-187.5 258,-187.5 258,-168.5 130,-168.5"/>
<text text-anchor="middle" x="194" y="-175.5" font-family="Helvetica,sans-Serif" font-size="10.00" fill="#000000">zheevh3&#45;C&#45;1.1/zheevq3.h</text>
</a>
</g>
</g>
<!-- Node5&#45;&gt;Node11 -->
<g id="edge14" class="edge">
<title>Node5&#45;&gt;Node11</title>
<path fill="none" stroke="#191970" d="M346.3693,-224.3733C315.6404,-215.021 268.824,-200.7725 235.1978,-190.5385"/>
<polygon fill="#191970" stroke="#191970" points="235.8038,-187.0644 225.218,-187.5011 233.7656,-193.7612 235.8038,-187.0644"/>
</g>
<!-- Node10&#45;&gt;Node8 -->
<g id="edge13" class="edge">
<title>Node10&#45;&gt;Node8</title>
<path fill="none" stroke="#191970" d="M378,-168.2455C378,-160.9382 378,-150.6944 378,-141.7046"/>
<polygon fill="#191970" stroke="#191970" points="381.5001,-141.6426 378,-131.6427 374.5001,-141.6427 381.5001,-141.6426"/>
</g>
<!-- Node11&#45;&gt;Node8 -->
<g id="edge15" class="edge">
<title>Node11&#45;&gt;Node8</title>
<path fill="none" stroke="#191970" d="M225.6307,-168.3733C256.3596,-159.021 303.176,-144.7725 336.8022,-134.5385"/>
<polygon fill="#191970" stroke="#191970" points="338.2344,-137.7612 346.782,-131.5011 336.1962,-131.0644 338.2344,-137.7612"/>
</g>
<!-- Node12&#45;&gt;Node2 -->
<g id="edge18" class="edge">
<title>Node12&#45;&gt;Node2</title>
<path fill="none" stroke="#191970" d="M1202.4828,-63.4483C1111.8641,-54.3864 805.4594,-23.7459 702.2556,-13.4256"/>
<polygon fill="#191970" stroke="#191970" points="702.3794,-9.9206 692.0807,-12.4081 701.6828,-16.8858 702.3794,-9.9206"/>
</g>
<!-- Node12&#45;&gt;Node7 -->
<g id="edge17" class="edge">
<title>Node12&#45;&gt;Node7</title>
<path fill="none" stroke="#191970" d="M1213.8909,-56.2455C1201.5791,-47.7337 1183.5042,-35.2375 1169.2462,-25.3801"/>
<polygon fill="#191970" stroke="#191970" points="1171.1634,-22.4506 1160.9474,-19.6427 1167.1826,-28.2085 1171.1634,-22.4506"/>
</g>
<!-- Node13 -->
<g id="node14" class="node">
<title>Node13</title>
<polygon fill="#ffffff" stroke="#bfbfbf" points="1203.5,-.5 1203.5,-19.5 1252.5,-19.5 1252.5,-.5 1203.5,-.5"/>
<text text-anchor="middle" x="1228" y="-7.5" font-family="Helvetica,sans-Serif" font-size="10.00" fill="#000000">string.h</text>
</g>
<!-- Node12&#45;&gt;Node13 -->
<g id="edge19" class="edge">
<title>Node12&#45;&gt;Node13</title>
<path fill="none" stroke="#191970" d="M1228,-56.2455C1228,-48.9382 1228,-38.6944 1228,-29.7046"/>
<polygon fill="#191970" stroke="#191970" points="1231.5001,-29.6426 1228,-19.6427 1224.5001,-29.6427 1231.5001,-29.6426"/>
</g>
<!-- Node14&#45;&gt;Node2 -->
<g id="edge21" class="edge">
<title>Node14&#45;&gt;Node2</title>
<path fill="none" stroke="#191970" d="M1108.3504,-113.0361C1057.8109,-100.0375 960.8667,-75.391 878,-56 816.189,-41.5361 743.813,-25.9862 702.1956,-17.1781"/>
<polygon fill="#191970" stroke="#191970" points="702.8103,-13.7308 692.3028,-15.0888 701.3637,-20.5797 702.8103,-13.7308"/>
</g>
<!-- Node14&#45;&gt;Node3 -->
<g id="edge24" class="edge">
<title>Node14&#45;&gt;Node3</title>
<path fill="none" stroke="#191970" d="M1108.4932,-114.8157C1103.6317,-113.845 1098.6933,-112.881 1094,-112 1000.9306,-94.5302 976.3282,-97.0383 884,-76 882.5366,-75.6665 881.0435,-75.3089 879.5388,-74.9344"/>
<polygon fill="#191970" stroke="#191970" points="880.1959,-71.4875 869.6321,-72.2967 878.3948,-78.2518 880.1959,-71.4875"/>
</g>
<!-- Node14&#45;&gt;Node7 -->
<g id="edge22" class="edge">
<title>Node14&#45;&gt;Node7</title>
<path fill="none" stroke="#191970" d="M1143.341,-112.4509C1143.9934,-94.184 1145.4302,-53.9553 1146.2965,-29.6976"/>
<polygon fill="#191970" stroke="#191970" points="1149.8006,-29.6435 1146.6598,-19.5249 1142.805,-29.3936 1149.8006,-29.6435"/>
</g>
<!-- Node14&#45;&gt;Node12 -->
<g id="edge23" class="edge">
<title>Node14&#45;&gt;Node12</title>
<path fill="none" stroke="#191970" d="M1157.8059,-112.2455C1170.7256,-103.7337 1189.6931,-91.2375 1204.6552,-81.3801"/>
<polygon fill="#191970" stroke="#191970" points="1206.9387,-84.067 1213.3638,-75.6427 1203.0876,-78.2216 1206.9387,-84.067"/>
</g>
<!-- Node18&#45;&gt;Node2 -->
<g id="edge31" class="edge">
<title>Node18&#45;&gt;Node2</title>
<path fill="none" stroke="#191970" d="M990.4511,-231.7927C917.0388,-223.752 679.1399,-193.2377 641,-132 623.1413,-103.3259 630.8792,-88.5261 640,-56 642.7878,-46.0584 648.3812,-36.1336 653.8407,-28.0613"/>
<polygon fill="#191970" stroke="#191970" points="656.7676,-29.9866 659.7911,-19.8323 651.0952,-25.8849 656.7676,-29.9866"/>
</g>
<!-- Node18&#45;&gt;Node3 -->
<g id="edge36" class="edge">
<title>Node18&#45;&gt;Node3</title>
<path fill="none" stroke="#191970" d="M990.2716,-230.7206C948.2781,-224.0144 857.9946,-207.6915 834,-188 806.2905,-165.2597 794.0379,-145.4204 807,-112 811.3858,-100.692 819.9902,-90.463 828.2749,-82.5381"/>
<polygon fill="#191970" stroke="#191970" points="830.8301,-84.9494 835.972,-75.6859 826.1756,-79.721 830.8301,-84.9494"/>
</g>
<!-- Node18&#45;&gt;Node4 -->
<g id="edge32" class="edge">
<title>Node18&#45;&gt;Node4</title>
<path fill="none" stroke="#191970" d="M990.2135,-231.2037C949.1903,-225.4503 862.98,-210.875 845,-188 834.8387,-175.0724 835.4364,-155.9115 837.9264,-141.5609"/>
<polygon fill="#191970" stroke="#191970" points="841.3645,-142.2208 840.0526,-131.7075 834.522,-140.7442 841.3645,-142.2208"/>
</g>
<!-- Node18&#45;&gt;Node6 -->
<g id="edge37" class="edge">
<title>Node18&#45;&gt;Node6</title>
<path fill="none" stroke="#191970" d="M990.4821,-231.1846C920.9872,-222.0918 702.17,-193.4615 617.7158,-182.4114"/>
<polygon fill="#191970" stroke="#191970" points="618.0086,-178.92 607.6391,-181.093 617.1004,-185.8608 618.0086,-178.92"/>
</g>
<!-- Node18&#45;&gt;Node7 -->
<g id="edge30" class="edge">
<title>Node18&#45;&gt;Node7</title>
<path fill="none" stroke="#191970" d="M1033.7547,-232.9862C1113.2591,-229.0831 1384.9079,-213.9367 1413,-188 1438.0762,-164.8478 1443.1341,-140.2617 1424,-112 1396.3307,-71.1315 1253.4898,-34.0197 1184.4491,-18.147"/>
<polygon fill="#191970" stroke="#191970" points="1184.9521,-14.6722 1174.4255,-15.8728 1183.4032,-21.4988 1184.9521,-14.6722"/>
</g>
<!-- Node18&#45;&gt;Node12 -->
<g id="edge34" class="edge">
<title>Node18&#45;&gt;Node12</title>
<path fill="none" stroke="#191970" d="M1033.8064,-233.248C1083.6938,-230.9668 1209.4338,-222.0182 1308,-188 1320.0379,-183.8453 1401.5605,-142.9866 1408,-132 1412.4948,-124.3313 1413.452,-119.0205 1408,-112 1390.4814,-89.4414 1311.0519,-76.0795 1263.7583,-69.9863"/>
<polygon fill="#191970" stroke="#191970" points="1263.975,-66.4864 1253.62,-68.7277 1263.1126,-73.4331 1263.975,-66.4864"/>
</g>
<!-- Node18&#45;&gt;Node14 -->
<g id="edge38" class="edge">
<title>Node18&#45;&gt;Node14</title>
<path fill="none" stroke="#191970" d="M1033.9157,-230.3156C1058.417,-225.0815 1097.7043,-213.1772 1121,-188 1132.766,-175.2837 1138.2536,-156.0974 1140.8046,-141.6835"/>
<polygon fill="#191970" stroke="#191970" points="1144.2697,-142.1759 1142.2383,-131.7776 1137.3419,-141.1731 1144.2697,-142.1759"/>
</g>
<!-- Node18&#45;&gt;Node17 -->
<g id="edge35" class="edge">
<title>Node18&#45;&gt;Node17</title>
<path fill="none" stroke="#191970" d="M1033.828,-233.0634C1079.7797,-230.4763 1189.2389,-221.0545 1274,-188 1305.5421,-175.6994 1337.7402,-153.1264 1357.5469,-137.8437"/>
<polygon fill="#191970" stroke="#191970" points="1359.7917,-140.5309 1365.4836,-131.5948 1355.4614,-135.031 1359.7917,-140.5309"/>
</g>
<!-- Node19 -->
<g id="node20" class="node">
<title>Node19</title>
<polygon fill="#ffffff" stroke="#bfbfbf" points="1206.5,-168.5 1206.5,-187.5 1265.5,-187.5 1265.5,-168.5 1206.5,-168.5"/>
<text text-anchor="middle" x="1236" y="-175.5" font-family="Helvetica,sans-Serif" font-size="10.00" fill="#000000">ccomplex</text>
</g>
<!-- Node18&#45;&gt;Node19 -->
<g id="edge33" class="edge">
<title>Node18&#45;&gt;Node19</title>
<path fill="none" stroke="#191970" d="M1033.8859,-228.5285C1071.5258,-219.1186 1149.0274,-199.7431 1196.3661,-187.9085"/>
<polygon fill="#191970" stroke="#191970" points="1197.4192,-191.253 1206.2717,-185.4321 1195.7214,-184.462 1197.4192,-191.253"/>
</g>
<!-- Node20 -->
<g id="node21" class="node">
<title>Node20</title>
<g id="a_node21"><a xlink:href="$MV__class_8h.html" xlink:title="MV_class.h">
<polygon fill="#ffffff" stroke="#000000" points="854,-168.5 854,-187.5 922,-187.5 922,-168.5 854,-168.5"/>
<text text-anchor="middle" x="888" y="-175.5" font-family="Helvetica,sans-Serif" font-size="10.00" fill="#000000">MV_class.h</text>
</a>
</g>
</g>
<!-- Node18&#45;&gt;Node20 -->
<g id="edge39" class="edge">
<title>Node18&#45;&gt;Node20</title>
<path fill="none" stroke="#191970" d="M990.6836,-224.3733C970.7784,-215.3838 940.8564,-201.8706 918.44,-191.7471"/>
<polygon fill="#191970" stroke="#191970" points="919.5925,-188.4272 909.0382,-187.5011 916.7113,-194.8068 919.5925,-188.4272"/>
</g>
<!-- Node21 -->
<g id="node22" class="node">
<title>Node21</title>
<polygon fill="#ffffff" stroke="#bfbfbf" points="1002.5,-112.5 1002.5,-131.5 1051.5,-131.5 1051.5,-112.5 1002.5,-112.5"/>
<text text-anchor="middle" x="1027" y="-119.5" font-family="Helvetica,sans-Serif" font-size="10.00" fill="#000000">random</text>
</g>
<!-- Node18&#45;&gt;Node21 -->
<g id="edge69" class="edge">
<title>Node18&#45;&gt;Node21</title>
<path fill="none" stroke="#191970" d="M1013.2789,-224.4509C1015.7254,-206.184 1021.1131,-165.9553 1024.3619,-141.6976"/>
<polygon fill="#191970" stroke="#191970" points="1027.8659,-141.901 1025.7243,-131.5249 1020.9278,-140.9718 1027.8659,-141.901"/>
</g>
<!-- Node22 -->
<g id="node23" class="node">
<title>Node22</title>
<g id="a_node23"><a xlink:href="$rand__class_8h.html" xlink:title="rand_class.h">
<polygon fill="#ffffff" stroke="#000000" points="1040,-168.5 1040,-187.5 1112,-187.5 1112,-168.5 1040,-168.5"/>
<text text-anchor="middle" x="1076" y="-175.5" font-family="Helvetica,sans-Serif" font-size="10.00" fill="#000000">rand_class.h</text>
</a>
</g>
</g>
<!-- Node18&#45;&gt;Node22 -->
<g id="edge49" class="edge">
<title>Node18&#45;&gt;Node22</title>
<path fill="none" stroke="#191970" d="M1023.1479,-224.2455C1032.5087,-216.0549 1046.0858,-204.1749 1057.1349,-194.5069"/>
<polygon fill="#191970" stroke="#191970" points="1059.7588,-196.8618 1064.9798,-187.6427 1055.1492,-191.5937 1059.7588,-196.8618"/>
</g>
<!-- Node23 -->
<g id="node24" class="node">
<title>Node23</title>
<g id="a_node24"><a xlink:href="$momenta_8h.html" xlink:title="momenta.h">
<polygon fill="#ffffff" stroke="#000000" points="1195.5,-112.5 1195.5,-131.5 1260.5,-131.5 1260.5,-112.5 1195.5,-112.5"/>
<text text-anchor="middle" x="1228" y="-119.5" font-family="Helvetica,sans-Serif" font-size="10.00" fill="#000000">momenta.h</text>
</a>
</g>
</g>
<!-- Node18&#45;&gt;Node23 -->
<g id="edge59" class="edge">
<title>Node18&#45;&gt;Node23</title>
<path fill="none" stroke="#191970" d="M1033.8558,-228.4241C1060.2254,-221.2042 1105.4454,-207.2285 1141,-188 1166.5613,-174.176 1192.7029,-153.2449 1209.5659,-138.6735"/>
<polygon fill="#191970" stroke="#191970" points="1212.2906,-140.9381 1217.4862,-131.7047 1207.6665,-135.6828 1212.2906,-140.9381"/>
</g>
<!-- Node24 -->
<g id="node25" class="node">
<title>Node24</title>
<g id="a_node25"><a xlink:href="$positions_8h.html" xlink:title="positions.h">
<polygon fill="#ffffff" stroke="#000000" points="696,-112.5 696,-131.5 760,-131.5 760,-112.5 696,-112.5"/>
<text text-anchor="middle" x="728" y="-119.5" font-family="Helvetica,sans-Serif" font-size="10.00" fill="#000000">positions.h</text>
</a>
</g>
</g>
<!-- Node18&#45;&gt;Node24 -->
<g id="edge64" class="edge">
<title>Node18&#45;&gt;Node24</title>
<path fill="none" stroke="#191970" d="M990.2253,-231.8955C938.4823,-226.566 809.8112,-211.2844 774,-188 756.6849,-176.7417 744.0249,-156.468 736.4195,-141.3506"/>
<polygon fill="#191970" stroke="#191970" points="739.3899,-139.4423 731.9667,-131.8827 733.0554,-142.4215 739.3899,-139.4423"/>
</g>
<!-- Node25 -->
<g id="node26" class="node">
<title>Node25</title>
<polygon fill="#ffffff" stroke="#bfbfbf" points="1360,-168.5 1360,-187.5 1404,-187.5 1404,-168.5 1360,-168.5"/>
<text text-anchor="middle" x="1382" y="-175.5" font-family="Helvetica,sans-Serif" font-size="10.00" fill="#000000">time.h</text>
</g>
<!-- Node18&#45;&gt;Node25 -->
<g id="edge70" class="edge">
<title>Node18&#45;&gt;Node25</title>
<path fill="none" stroke="#191970" d="M1033.6621,-232.0329C1087.1013,-226.9605 1229.3521,-212.1203 1346,-188 1347.2506,-187.7414 1348.5218,-187.4634 1349.8029,-187.1706"/>
<polygon fill="#191970" stroke="#191970" points="1350.7926,-190.531 1359.6449,-184.7097 1349.0946,-183.74 1350.7926,-190.531"/>
</g>
<!-- Node26 -->
<g id="node27" class="node">
<title>Node26</title>
<polygon fill="#ffffff" stroke="#bfbfbf" points="940,-168.5 940,-187.5 984,-187.5 984,-168.5 940,-168.5"/>
<text text-anchor="middle" x="962" y="-175.5" font-family="Helvetica,sans-Serif" font-size="10.00" fill="#000000">thread</text>
</g>
<!-- Node18&#45;&gt;Node26 -->
<g id="edge71" class="edge">
<title>Node18&#45;&gt;Node26</title>
<path fill="none" stroke="#191970" d="M1003.2907,-224.2455C996.1927,-216.2958 985.9916,-204.8706 977.505,-195.3656"/>
<polygon fill="#191970" stroke="#191970" points="979.8805,-192.771 970.6095,-187.6427 974.6589,-197.4331 979.8805,-192.771"/>
</g>
<!-- Node20&#45;&gt;Node2 -->
<g id="edge41" class="edge">
<title>Node20&#45;&gt;Node2</title>
<path fill="none" stroke="#191970" d="M853.8784,-176.4337C795.1666,-172.9455 678.9205,-162.2964 654,-132 629.8482,-102.6382 646.1378,-54.9832 658.2458,-28.7685"/>
<polygon fill="#191970" stroke="#191970" points="661.5016,-30.0773 662.7422,-19.5554 655.2108,-27.0071 661.5016,-30.0773"/>
</g>
<!-- Node20&#45;&gt;Node3 -->
<g id="edge46" class="edge">
<title>Node20&#45;&gt;Node3</title>
<path fill="none" stroke="#191970" d="M887.7658,-168.2924C887.1748,-155.1421 885.1172,-131.1148 878,-112 874.3141,-102.1007 868.3103,-92.0673 862.7189,-83.9082"/>
<polygon fill="#191970" stroke="#191970" points="865.415,-81.663 856.7267,-75.5996 859.7375,-85.7577 865.415,-81.663"/>
</g>
<!-- Node20&#45;&gt;Node4 -->
<g id="edge42" class="edge">
<title>Node20&#45;&gt;Node4</title>
<path fill="none" stroke="#191970" d="M880.1616,-168.2455C873.838,-160.3761 864.7776,-149.101 857.1864,-139.6542"/>
<polygon fill="#191970" stroke="#191970" points="859.7408,-137.2454 850.7486,-131.6427 854.2842,-141.6302 859.7408,-137.2454"/>
</g>
<!-- Node20&#45;&gt;Node7 -->
<g id="edge40" class="edge">
<title>Node20&#45;&gt;Node7</title>
<path fill="none" stroke="#191970" d="M895.5423,-168.0516C906.4214,-154.1902 927.6753,-128.8729 950,-112 1002.3389,-72.4426 1072.2492,-40.3667 1113.1729,-23.3304"/>
<polygon fill="#191970" stroke="#191970" points="1114.5122,-26.5641 1122.4324,-19.5269 1111.8525,-20.089 1114.5122,-26.5641"/>
</g>
<!-- Node20&#45;&gt;Node8 -->
<g id="edge43" class="edge">
<title>Node20&#45;&gt;Node8</title>
<path fill="none" stroke="#191970" d="M853.7455,-174.2387C763.1341,-164.2892 517.3952,-137.3061 419.2766,-126.5323"/>
<polygon fill="#191970" stroke="#191970" points="419.476,-123.0333 409.1537,-125.4208 418.7119,-129.9915 419.476,-123.0333"/>
</g>
<!-- Node20&#45;&gt;Node12 -->
<g id="edge44" class="edge">
<title>Node20&#45;&gt;Node12</title>
<path fill="none" stroke="#191970" d="M900.116,-168.2622C918.8676,-153.7034 956.5684,-126.4344 993,-112 1060.5526,-85.2352 1145.4048,-73.5751 1192.4459,-68.8704"/>
<polygon fill="#191970" stroke="#191970" points="1192.823,-72.3504 1202.4464,-67.9188 1192.1598,-65.3819 1192.823,-72.3504"/>
</g>
<!-- Node20&#45;&gt;Node14 -->
<g id="edge47" class="edge">
<title>Node20&#45;&gt;Node14</title>
<path fill="none" stroke="#191970" d="M922.2571,-169.985C925.2129,-169.3081 928.1584,-168.6387 931,-168 988.8308,-155.0021 1055.681,-140.6001 1098.6036,-131.433"/>
<polygon fill="#191970" stroke="#191970" points="1099.3989,-134.8422 1108.4485,-129.3326 1097.9383,-127.9962 1099.3989,-134.8422"/>
</g>
<!-- Node20&#45;&gt;Node17 -->
<g id="edge45" class="edge">
<title>Node20&#45;&gt;Node17</title>
<path fill="none" stroke="#191970" d="M922.1896,-169.6403C925.1601,-169.0382 928.1274,-168.4802 931,-168 971.5674,-161.2184 1249.1526,-134.2801 1344.7386,-125.0904"/>
<polygon fill="#191970" stroke="#191970" points="1345.3356,-128.5493 1354.9552,-124.1092 1344.6663,-121.5813 1345.3356,-128.5493"/>
</g>
<!-- Node20&#45;&gt;Node21 -->
<g id="edge48" class="edge">
<title>Node20&#45;&gt;Node21</title>
<path fill="none" stroke="#191970" d="M911.895,-168.3733C934.5082,-159.2629 968.6542,-145.5062 993.8873,-135.3404"/>
<polygon fill="#191970" stroke="#191970" points="995.4493,-138.4845 1003.4169,-131.5011 992.8334,-131.9917 995.4493,-138.4845"/>
</g>
<!-- Node22&#45;&gt;Node2 -->
<g id="edge51" class="edge">
<title>Node22&#45;&gt;Node2</title>
<path fill="none" stroke="#191970" d="M1039.6408,-173.5971C1025.1327,-171.846 1008.2769,-169.8189 993,-168 925.0112,-159.905 736.3114,-179.5014 687,-132 659.578,-105.5846 661.0623,-57.0919 664.5414,-29.8755"/>
<polygon fill="#191970" stroke="#191970" points="668.0545,-30.0489 666.0761,-19.6404 661.1319,-29.0108 668.0545,-30.0489"/>
</g>
<!-- Node22&#45;&gt;Node3 -->
<g id="edge56" class="edge">
<title>Node22&#45;&gt;Node3</title>
<path fill="none" stroke="#191970" d="M1076.6336,-168.3782C1077.0157,-153.9709 1075.4444,-126.8971 1060,-112 1002.5342,-56.5707 961.5528,-94.981 884,-76 882.5421,-75.6432 881.0535,-75.2665 879.5524,-74.8767"/>
<polygon fill="#191970" stroke="#191970" points="880.2263,-71.4329 869.6583,-72.1858 878.3892,-78.1876 880.2263,-71.4329"/>
</g>
<!-- Node22&#45;&gt;Node4 -->
<g id="edge52" class="edge">
<title>Node22&#45;&gt;Node4</title>
<path fill="none" stroke="#191970" d="M1039.8494,-169.3114C996.3017,-158.845 923.5499,-141.3596 879.7404,-130.8303"/>
<polygon fill="#191970" stroke="#191970" points="880.3331,-127.3731 869.792,-128.4393 878.6972,-134.1793 880.3331,-127.3731"/>
</g>
<!-- Node22&#45;&gt;Node7 -->
<g id="edge50" class="edge">
<title>Node22&#45;&gt;Node7</title>
<path fill="none" stroke="#191970" d="M1112.2667,-175.4023C1166.4798,-170.68 1264.5909,-158.6063 1286,-132 1303.0939,-110.7564 1278.5718,-72.1725 1262,-56 1250.4708,-44.7485 1213.0426,-30.9099 1183.9818,-21.3669"/>
<polygon fill="#191970" stroke="#191970" points="1184.6993,-17.9208 1174.1077,-18.1818 1182.5503,-24.5828 1184.6993,-17.9208"/>
</g>
<!-- Node22&#45;&gt;Node8 -->
<g id="edge53" class="edge">
<title>Node22&#45;&gt;Node8</title>
<path fill="none" stroke="#191970" d="M1039.677,-173.2627C1025.1739,-171.4656 1008.312,-169.4943 993,-168 777.3424,-146.9542 518.3151,-130.4359 419.2613,-124.4392"/>
<polygon fill="#191970" stroke="#191970" points="419.2729,-120.9336 409.0805,-123.8259 418.8519,-127.921 419.2729,-120.9336"/>
</g>
<!-- Node22&#45;&gt;Node12 -->
<g id="edge54" class="edge">
<title>Node22&#45;&gt;Node12</title>
<path fill="none" stroke="#191970" d="M1112.2707,-174.6316C1162.6625,-169.116 1249.8409,-156.2622 1269,-132 1281.6005,-116.0434 1265.1503,-95.9971 1249.4901,-82.2085"/>
<polygon fill="#191970" stroke="#191970" points="1251.4668,-79.3013 1241.5309,-75.6231 1247.0044,-84.6946 1251.4668,-79.3013"/>
</g>
<!-- Node22&#45;&gt;Node14 -->
<g id="edge57" class="edge">
<title>Node22&#45;&gt;Node14</title>
<path fill="none" stroke="#191970" d="M1087.6705,-168.2455C1097.5661,-159.9746 1111.9627,-147.9416 1123.5901,-138.2232"/>
<polygon fill="#191970" stroke="#191970" points="1126.035,-140.7413 1131.4632,-131.6427 1121.5458,-135.3703 1126.035,-140.7413"/>
</g>
<!-- Node22&#45;&gt;Node17 -->
<g id="edge55" class="edge">
<title>Node22&#45;&gt;Node17</title>
<path fill="none" stroke="#191970" d="M1112.2288,-172.8746C1163.4702,-165.362 1259.912,-150.2529 1341,-132 1342.2459,-131.7196 1343.5131,-131.4231 1344.7909,-131.1148"/>
<polygon fill="#191970" stroke="#191970" points="1345.8057,-134.4677 1354.6184,-128.5867 1344.0617,-127.6885 1345.8057,-134.4677"/>
</g>
<!-- Node22&#45;&gt;Node21 -->
<g id="edge58" class="edge">
<title>Node22&#45;&gt;Node21</title>
<path fill="none" stroke="#191970" d="M1067.4649,-168.2455C1060.5088,-160.2958 1050.5117,-148.8706 1042.1949,-139.3656"/>
<polygon fill="#191970" stroke="#191970" points="1044.6564,-136.8637 1035.4373,-131.6427 1039.3884,-141.4732 1044.6564,-136.8637"/>
</g>
<!-- Node23&#45;&gt;Node2 -->
<g id="edge60" class="edge">
<title>Node23&#45;&gt;Node2</title>
<path fill="none" stroke="#191970" d="M1195.4526,-114.1967C1192.2601,-113.4475 1189.0682,-112.7048 1186,-112 1073.7571,-86.2173 1045.9866,-78.2986 933,-56 850.4556,-39.7094 752.8283,-23.5627 702.242,-15.4276"/>
<polygon fill="#191970" stroke="#191970" points="702.6116,-11.9423 692.1838,-13.8161 701.5042,-18.8541 702.6116,-11.9423"/>
</g>
<!-- Node23&#45;&gt;Node3 -->
<g id="edge63" class="edge">
<title>Node23&#45;&gt;Node3</title>
<path fill="none" stroke="#191970" d="M1195.0502,-113.8321C1191.9988,-113.1733 1188.9472,-112.5506 1186,-112 1073.9797,-91.0711 939.3358,-75.5551 879.8401,-69.1848"/>
<polygon fill="#191970" stroke="#191970" points="879.9411,-65.676 869.6279,-68.1026 879.2033,-72.6371 879.9411,-65.676"/>
</g>
<!-- Node23&#45;&gt;Node7 -->
<g id="edge61" class="edge">
<title>Node23&#45;&gt;Node7</title>
<path fill="none" stroke="#191970" d="M1220.3699,-112.2188C1213.1977,-102.967 1202.2172,-88.6534 1193,-76 1181.3741,-60.0399 1168.56,-41.5792 1159.4157,-28.2472"/>
<polygon fill="#191970" stroke="#191970" points="1162.2636,-26.2112 1153.7311,-19.9306 1156.4846,-30.1613 1162.2636,-26.2112"/>
</g>
<!-- Node23&#45;&gt;Node12 -->
<g id="edge62" class="edge">
<title>Node23&#45;&gt;Node12</title>
<path fill="none" stroke="#191970" d="M1228,-112.2455C1228,-104.9382 1228,-94.6944 1228,-85.7046"/>
<polygon fill="#191970" stroke="#191970" points="1231.5001,-85.6426 1228,-75.6427 1224.5001,-85.6427 1231.5001,-85.6426"/>
</g>
<!-- Node24&#45;&gt;Node2 -->
<g id="edge65" class="edge">
<title>Node24&#45;&gt;Node2</title>
<path fill="none" stroke="#191970" d="M722.8844,-112.4509C712.9214,-93.8533 690.7635,-52.4919 677.8552,-28.3964"/>
<polygon fill="#191970" stroke="#191970" points="680.9101,-26.6869 673.1026,-19.5249 674.7397,-29.9925 680.9101,-26.6869"/>
</g>
<!-- Node24&#45;&gt;Node3 -->
<g id="edge68" class="edge">
<title>Node24&#45;&gt;Node3</title>
<path fill="none" stroke="#191970" d="M748.8006,-112.3733C768.2243,-103.3838 797.4224,-89.8706 819.2964,-79.7471"/>
<polygon fill="#191970" stroke="#191970" points="820.8656,-82.8776 828.4708,-75.5011 817.9255,-76.5249 820.8656,-82.8776"/>
</g>
<!-- Node24&#45;&gt;Node7 -->
<g id="edge66" class="edge">
<title>Node24&#45;&gt;Node7</title>
<path fill="none" stroke="#191970" d="M737.6428,-112.4624C753.2564,-97.6521 785.6971,-69.4335 819,-56 871.0977,-34.9851 1034.7427,-19.2523 1109.3102,-12.9806"/>
<polygon fill="#191970" stroke="#191970" points="1109.9649,-16.4384 1119.6417,-12.1244 1109.3868,-9.4623 1109.9649,-16.4384"/>
</g>
<!-- Node24&#45;&gt;Node12 -->
<g id="edge67" class="edge">
<title>Node24&#45;&gt;Node12</title>
<path fill="none" stroke="#191970" d="M760.2714,-117.7885C774.5796,-115.9539 791.6228,-113.8132 807,-112 949.6731,-95.1768 1119.8076,-77.2371 1192.3708,-69.6854"/>
<polygon fill="#191970" stroke="#191970" points="1192.7694,-73.163 1202.354,-68.648 1192.0458,-66.2004 1192.7694,-73.163"/>
</g>
</g>
</svg>
