<?xml version="1.0" encoding="UTF-8" standalone="no"?>
<!DOCTYPE svg PUBLIC "-//W3C//DTD SVG 1.1//EN"
 "http://www.w3.org/Graphics/SVG/1.1/DTD/svg11.dtd">
<!-- Generated by graphviz version 2.40.1 (20161225.0304)
 -->
<!-- Title: mpi_fftw_class.h Pages: 1 -->
<svg width="3032pt" height="106pt"
 viewBox="0.00 0.00 3032.00 106.00" xmlns="http://www.w3.org/2000/svg" xmlns:xlink="http://www.w3.org/1999/xlink">
<g id="graph0" class="graph" transform="scale(1 1) rotate(0) translate(4 102)">
<title>mpi_fftw_class.h</title>
<polygon fill="#ffffff" stroke="transparent" points="-4,4 -4,-102 3028,-102 3028,4 -4,4"/>
<!-- Node27 -->
<g id="node1" class="node">
<title>Node27</title>
<polygon fill="#bfbfbf" stroke="#000000" points="1413.5,-78.5 1413.5,-97.5 1504.5,-97.5 1504.5,-78.5 1413.5,-78.5"/>
<text text-anchor="middle" x="1459" y="-85.5" font-family="Helvetica,sans-Serif" font-size="10.00" fill="#000000">mpi_fftw_class.h</text>
</g>
<!-- Node28 -->
<g id="node2" class="node">
<title>Node28</title>
<g id="a_node2"><a xlink:href="main__explicit_8cpp.html" target="_top" xlink:title="main_explicit.cpp">
<polygon fill="#ffffff" stroke="#000000" points="0,-11.5 0,-30.5 92,-30.5 92,-11.5 0,-11.5"/>
<text text-anchor="middle" x="46" y="-18.5" font-family="Helvetica,sans-Serif" font-size="10.00" fill="#000000">main_explicit.cpp</text>
</a>
</g>
</g>
<!-- Node27&#45;&gt;Node28 -->
<g id="edge1" class="edge">
<title>Node27&#45;&gt;Node28</title>
<path fill="none" stroke="#191970" d="M1402.9434,-87.1929C1163.1207,-83.5915 229.8022,-68.0153 101,-42 89.0778,-39.592 76.3551,-34.885 66.1523,-30.5367"/>
<polygon fill="#191970" stroke="#191970" points="1403.1234,-90.6958 1413.1745,-87.3455 1403.2279,-83.6966 1403.1234,-90.6958"/>
</g>
<!-- Node29 -->
<g id="node3" class="node">
<title>Node29</title>
<g id="a_node3"><a xlink:href="test__accumulation_8cpp.html" target="_top" xlink:title="tests/test_accumulation.cpp">
<polygon fill="#ffffff" stroke="#000000" points="110,-11.5 110,-30.5 250,-30.5 250,-11.5 110,-11.5"/>
<text text-anchor="middle" x="180" y="-18.5" font-family="Helvetica,sans-Serif" font-size="10.00" fill="#000000">tests/test_accumulation.cpp</text>
</a>
</g>
</g>
<!-- Node27&#45;&gt;Node29 -->
<g id="edge2" class="edge">
<title>Node27&#45;&gt;Node29</title>
<path fill="none" stroke="#191970" d="M1402.9672,-87.4971C1197.2539,-85.3949 483.9424,-75.7815 259,-42 242.4396,-39.513 224.3613,-34.857 209.6827,-30.5599"/>
<polygon fill="#191970" stroke="#191970" points="1403.1972,-90.9995 1413.2319,-87.6 1403.2675,-83.9998 1403.1972,-90.9995"/>
</g>
<!-- Node30 -->
<g id="node4" class="node">
<title>Node30</title>
<g id="a_node4"><a xlink:href="test__exponentiate_8cpp.html" target="_top" xlink:title="tests/test_exponentiate.cpp">
<polygon fill="#ffffff" stroke="#000000" points="268.5,-11.5 268.5,-30.5 405.5,-30.5 405.5,-11.5 268.5,-11.5"/>
<text text-anchor="middle" x="337" y="-18.5" font-family="Helvetica,sans-Serif" font-size="10.00" fill="#000000">tests/test_exponentiate.cpp</text>
</a>
</g>
</g>
<!-- Node27&#45;&gt;Node30 -->
<g id="edge3" class="edge">
<title>Node27&#45;&gt;Node30</title>
<path fill="none" stroke="#191970" d="M1403.1945,-87.1517C1215.5167,-84.0464 608.1222,-71.882 415,-42 398.6464,-39.4696 380.7967,-34.8102 366.3046,-30.522"/>
<polygon fill="#191970" stroke="#191970" points="1403.3274,-90.6542 1413.3833,-87.3181 1403.4418,-83.6552 1403.3274,-90.6542"/>
</g>
<!-- Node31 -->
<g id="node5" class="node">
<title>Node31</title>
<g id="a_node5"><a xlink:href="test__hermitian_8cpp.html" target="_top" xlink:title="tests/test_hermitian.cpp">
<polygon fill="#ffffff" stroke="#000000" points="424,-11.5 424,-30.5 546,-30.5 546,-11.5 424,-11.5"/>
<text text-anchor="middle" x="485" y="-18.5" font-family="Helvetica,sans-Serif" font-size="10.00" fill="#000000">tests/test_hermitian.cpp</text>
</a>
</g>
</g>
<!-- Node27&#45;&gt;Node31 -->
<g id="edge4" class="edge">
<title>Node27&#45;&gt;Node31</title>
<path fill="none" stroke="#191970" d="M1403.3081,-86.9194C1232.7728,-83.3338 719.3658,-70.409 555,-42 540.2471,-39.4501 524.222,-34.7892 511.2321,-30.5051"/>
<polygon fill="#191970" stroke="#191970" points="1403.2537,-90.4189 1413.3242,-87.1275 1403.3991,-83.4204 1403.2537,-90.4189"/>
</g>
<!-- Node32 -->
<g id="node6" class="node">
<title>Node32</title>
<g id="a_node6"><a xlink:href="test__initial__condition_8cpp.html" target="_top" xlink:title="tests/test_initial\l_condition.cpp">
<polygon fill="#ffffff" stroke="#000000" points="564,-6 564,-36 650,-36 650,-6 564,-6"/>
<text text-anchor="start" x="572" y="-24" font-family="Helvetica,sans-Serif" font-size="10.00" fill="#000000">tests/test_initial</text>
<text text-anchor="middle" x="607" y="-13" font-family="Helvetica,sans-Serif" font-size="10.00" fill="#000000">_condition.cpp</text>
</a>
</g>
</g>
<!-- Node27&#45;&gt;Node32 -->
<g id="edge5" class="edge">
<title>Node27&#45;&gt;Node32</title>
<path fill="none" stroke="#191970" d="M1403.0636,-87.1475C1245.6423,-84.3737 801.0689,-73.8629 659,-42 652.6349,-40.5724 646.0397,-38.4537 639.7708,-36.1033"/>
<polygon fill="#191970" stroke="#191970" points="1403.394,-90.6536 1413.4529,-87.3266 1403.5147,-83.6547 1403.394,-90.6536"/>
</g>
<!-- Node33 -->
<g id="node7" class="node">
<title>Node33</title>
<g id="a_node7"><a xlink:href="test__initial__condition__fftw1d_8cpp.html" target="_top" xlink:title="tests/test_initial\l_condition_fftw1d.cpp">
<polygon fill="#ffffff" stroke="#000000" points="668,-6 668,-36 780,-36 780,-6 668,-6"/>
<text text-anchor="start" x="676" y="-24" font-family="Helvetica,sans-Serif" font-size="10.00" fill="#000000">tests/test_initial</text>
<text text-anchor="middle" x="724" y="-13" font-family="Helvetica,sans-Serif" font-size="10.00" fill="#000000">_condition_fftw1d.cpp</text>
</a>
</g>
</g>
<!-- Node27&#45;&gt;Node33 -->
<g id="edge6" class="edge">
<title>Node27&#45;&gt;Node33</title>
<path fill="none" stroke="#191970" d="M1403.0402,-85.9154C1264.0946,-80.4572 906.1334,-64.5903 789,-42 781.3146,-40.5178 773.2717,-38.4041 765.5663,-36.0829"/>
<polygon fill="#191970" stroke="#191970" points="1402.9241,-89.4135 1413.0528,-86.3056 1403.1967,-82.4188 1402.9241,-89.4135"/>
</g>
<!-- Node34 -->
<g id="node8" class="node">
<title>Node34</title>
<g id="a_node8"><a xlink:href="test__momentum__coupling_8cpp.html" target="_top" xlink:title="tests/test_momentum\l_coupling.cpp">
<polygon fill="#ffffff" stroke="#000000" points="798,-6 798,-36 910,-36 910,-6 798,-6"/>
<text text-anchor="start" x="806" y="-24" font-family="Helvetica,sans-Serif" font-size="10.00" fill="#000000">tests/test_momentum</text>
<text text-anchor="middle" x="854" y="-13" font-family="Helvetica,sans-Serif" font-size="10.00" fill="#000000">_coupling.cpp</text>
</a>
</g>
</g>
<!-- Node27&#45;&gt;Node34 -->
<g id="edge7" class="edge">
<title>Node27&#45;&gt;Node34</title>
<path fill="none" stroke="#191970" d="M1402.9454,-84.8463C1284.1426,-77.8975 1010.4379,-60.4151 919,-42 911.4433,-40.4781 903.5336,-38.3753 895.9373,-36.0845"/>
<polygon fill="#191970" stroke="#191970" points="1403.0834,-88.3601 1413.2696,-85.4464 1403.4896,-81.3719 1403.0834,-88.3601"/>
</g>
<!-- Node35 -->
<g id="node9" class="node">
<title>Node35</title>
<g id="a_node9"><a xlink:href="test__momentum__coupling__fft_8cpp.html" target="_top" xlink:title="tests/test_momentum\l_coupling_fft.cpp">
<polygon fill="#ffffff" stroke="#000000" points="928,-6 928,-36 1040,-36 1040,-6 928,-6"/>
<text text-anchor="start" x="936" y="-24" font-family="Helvetica,sans-Serif" font-size="10.00" fill="#000000">tests/test_momentum</text>
<text text-anchor="middle" x="984" y="-13" font-family="Helvetica,sans-Serif" font-size="10.00" fill="#000000">_coupling_fft.cpp</text>
</a>
</g>
</g>
<!-- Node27&#45;&gt;Node35 -->
<g id="edge8" class="edge">
<title>Node27&#45;&gt;Node35</title>
<path fill="none" stroke="#191970" d="M1403.051,-85.2858C1323.5854,-80.6279 1173.812,-68.8781 1049,-42 1041.5803,-40.4022 1033.808,-38.2908 1026.323,-36.0224"/>
<polygon fill="#191970" stroke="#191970" points="1403.1377,-88.7963 1413.3207,-85.871 1403.536,-81.8077 1403.1377,-88.7963"/>
</g>
<!-- Node36 -->
<g id="node10" class="node">
<title>Node36</title>
<g id="a_node10"><a xlink:href="test__momentum__evolution_8cpp.html" target="_top" xlink:title="tests/test_momentum\l_evolution.cpp">
<polygon fill="#ffffff" stroke="#000000" points="1058,-6 1058,-36 1170,-36 1170,-6 1058,-6"/>
<text text-anchor="start" x="1066" y="-24" font-family="Helvetica,sans-Serif" font-size="10.00" fill="#000000">tests/test_momentum</text>
<text text-anchor="middle" x="1114" y="-13" font-family="Helvetica,sans-Serif" font-size="10.00" fill="#000000">_evolution.cpp</text>
</a>
</g>
</g>
<!-- Node27&#45;&gt;Node36 -->
<g id="edge9" class="edge">
<title>Node27&#45;&gt;Node36</title>
<path fill="none" stroke="#191970" d="M1403.2667,-81.3444C1346.4037,-73.9712 1255.8489,-60.6158 1179,-42 1171.9693,-40.2969 1164.5986,-38.2131 1157.4492,-36.0267"/>
<polygon fill="#191970" stroke="#191970" points="1403.1179,-84.8538 1413.4813,-82.6514 1404.0064,-77.9104 1403.1179,-84.8538"/>
</g>
<!-- Node37 -->
<g id="node11" class="node">
<title>Node37</title>
<g id="a_node11"><a xlink:href="test__momentum__evolution__coupling_8cpp.html" target="_top" xlink:title="tests/test_momentum\l_evolution_coupling.cpp">
<polygon fill="#ffffff" stroke="#000000" points="1188.5,-6 1188.5,-36 1309.5,-36 1309.5,-6 1188.5,-6"/>
<text text-anchor="start" x="1196.5" y="-24" font-family="Helvetica,sans-Serif" font-size="10.00" fill="#000000">tests/test_momentum</text>
<text text-anchor="middle" x="1249" y="-13" font-family="Helvetica,sans-Serif" font-size="10.00" fill="#000000">_evolution_coupling.cpp</text>
</a>
</g>
</g>
<!-- Node27&#45;&gt;Node37 -->
<g id="edge10" class="edge">
<title>Node27&#45;&gt;Node37</title>
<path fill="none" stroke="#191970" d="M1419.0354,-75.2494C1384.0147,-64.0761 1333.0716,-47.8229 1296.0831,-36.0218"/>
<polygon fill="#191970" stroke="#191970" points="1418.3214,-78.6953 1428.9121,-78.4005 1420.4491,-72.0265 1418.3214,-78.6953"/>
</g>
<!-- Node38 -->
<g id="node12" class="node">
<title>Node38</title>
<g id="a_node12"><a xlink:href="test__momentum__evolution__coupling2_8cpp.html" target="_top" xlink:title="tests/test_momentum\l_evolution_coupling2.cpp">
<polygon fill="#ffffff" stroke="#000000" points="1328,-6 1328,-36 1454,-36 1454,-6 1328,-6"/>
<text text-anchor="start" x="1336" y="-24" font-family="Helvetica,sans-Serif" font-size="10.00" fill="#000000">tests/test_momentum</text>
<text text-anchor="middle" x="1391" y="-13" font-family="Helvetica,sans-Serif" font-size="10.00" fill="#000000">_evolution_coupling2.cpp</text>
</a>
</g>
</g>
<!-- Node27&#45;&gt;Node38 -->
<g id="edge11" class="edge">
<title>Node27&#45;&gt;Node38</title>
<path fill="none" stroke="#191970" d="M1441.9242,-71.1753C1430.9566,-60.3691 1416.8353,-46.4553 1406.246,-36.0218"/>
<polygon fill="#191970" stroke="#191970" points="1439.6775,-73.8752 1449.2573,-78.4005 1444.5905,-68.8889 1439.6775,-73.8752"/>
</g>
<!-- Node39 -->
<g id="node13" class="node">
<title>Node39</title>
<g id="a_node13"><a xlink:href="test__momentum__evolution__coupling__lambda_8cpp.html" target="_top" xlink:title="tests/test_momentum\l_evolution_coupling\l_lambda.cpp">
<polygon fill="#ffffff" stroke="#000000" points="1472,-.5 1472,-41.5 1584,-41.5 1584,-.5 1472,-.5"/>
<text text-anchor="start" x="1480" y="-29.5" font-family="Helvetica,sans-Serif" font-size="10.00" fill="#000000">tests/test_momentum</text>
<text text-anchor="start" x="1480" y="-18.5" font-family="Helvetica,sans-Serif" font-size="10.00" fill="#000000">_evolution_coupling</text>
<text text-anchor="middle" x="1528" y="-7.5" font-family="Helvetica,sans-Serif" font-size="10.00" fill="#000000">_lambda.cpp</text>
</a>
</g>
</g>
<!-- Node27&#45;&gt;Node39 -->
<g id="edge12" class="edge">
<title>Node27&#45;&gt;Node39</title>
<path fill="none" stroke="#191970" d="M1476.3333,-71.1691C1485.5628,-62.2072 1496.992,-51.1093 1506.7524,-41.6318"/>
<polygon fill="#191970" stroke="#191970" points="1473.6221,-68.9232 1468.886,-78.4005 1478.4985,-73.9452 1473.6221,-68.9232"/>
</g>
<!-- Node40 -->
<g id="node14" class="node">
<title>Node40</title>
<g id="a_node14"><a xlink:href="test__momentum__evolution__coupling__lambda__noise_8cpp.html" target="_top" xlink:title="tests/test_momentum\l_evolution_coupling\l_lambda_noise.cpp">
<polygon fill="#ffffff" stroke="#000000" points="1602,-.5 1602,-41.5 1714,-41.5 1714,-.5 1602,-.5"/>
<text text-anchor="start" x="1610" y="-29.5" font-family="Helvetica,sans-Serif" font-size="10.00" fill="#000000">tests/test_momentum</text>
<text text-anchor="start" x="1610" y="-18.5" font-family="Helvetica,sans-Serif" font-size="10.00" fill="#000000">_evolution_coupling</text>
<text text-anchor="middle" x="1658" y="-7.5" font-family="Helvetica,sans-Serif" font-size="10.00" fill="#000000">_lambda_noise.cpp</text>
</a>
</g>
</g>
<!-- Node27&#45;&gt;Node40 -->
<g id="edge13" class="edge">
<title>Node27&#45;&gt;Node40</title>
<path fill="none" stroke="#191970" d="M1497.0641,-75.1844C1526.6633,-65.2189 1568.1799,-51.2409 1601.6314,-39.9784"/>
<polygon fill="#191970" stroke="#191970" points="1495.8723,-71.8926 1487.5118,-78.4005 1498.1059,-78.5267 1495.8723,-71.8926"/>
</g>
<!-- Node41 -->
<g id="node15" class="node">
<title>Node41</title>
<g id="a_node15"><a xlink:href="test__multiplication_8cpp.html" target="_top" xlink:title="tests/test_multiplication.cpp">
<polygon fill="#ffffff" stroke="#000000" points="1732.5,-11.5 1732.5,-30.5 1871.5,-30.5 1871.5,-11.5 1732.5,-11.5"/>
<text text-anchor="middle" x="1802" y="-18.5" font-family="Helvetica,sans-Serif" font-size="10.00" fill="#000000">tests/test_multiplication.cpp</text>
</a>
</g>
</g>
<!-- Node27&#45;&gt;Node41 -->
<g id="edge14" class="edge">
<title>Node27&#45;&gt;Node41</title>
<path fill="none" stroke="#191970" d="M1514.5332,-79.7682C1568.1473,-71.481 1651.4945,-57.7021 1723,-42 1738.1088,-38.6822 1754.6734,-34.3826 1768.715,-30.5388"/>
<polygon fill="#191970" stroke="#191970" points="1513.9017,-76.324 1504.5487,-81.3011 1514.9641,-83.2429 1513.9017,-76.324"/>
</g>
<!-- Node42 -->
<g id="node16" class="node">
<title>Node42</title>
<g id="a_node16"><a xlink:href="test__noise__vectors_8cpp.html" target="_top" xlink:title="tests/test_noise_vectors.cpp">
<polygon fill="#ffffff" stroke="#000000" points="1889.5,-11.5 1889.5,-30.5 2032.5,-30.5 2032.5,-11.5 1889.5,-11.5"/>
<text text-anchor="middle" x="1961" y="-18.5" font-family="Helvetica,sans-Serif" font-size="10.00" fill="#000000">tests/test_noise_vectors.cpp</text>
</a>
</g>
</g>
<!-- Node27&#45;&gt;Node42 -->
<g id="edge15" class="edge">
<title>Node27&#45;&gt;Node42</title>
<path fill="none" stroke="#191970" d="M1514.5853,-84.5751C1595.6589,-78.9856 1750.862,-66.0366 1881,-42 1896.9563,-39.0529 1914.4133,-34.6159 1928.9373,-30.5785"/>
<polygon fill="#191970" stroke="#191970" points="1514.3377,-81.0838 1504.5973,-85.2522 1514.8112,-88.0678 1514.3377,-81.0838"/>
</g>
<!-- Node43 -->
<g id="node17" class="node">
<title>Node43</title>
<g id="a_node17"><a xlink:href="test__noise__vectors__and__cholesky__decomposition_8cpp.html" target="_top" xlink:title="tests/test_noise_vectors\l_and_cholesky_decomposition.cpp">
<polygon fill="#ffffff" stroke="#000000" points="2050.5,-6 2050.5,-36 2219.5,-36 2219.5,-6 2050.5,-6"/>
<text text-anchor="start" x="2058.5" y="-24" font-family="Helvetica,sans-Serif" font-size="10.00" fill="#000000">tests/test_noise_vectors</text>
<text text-anchor="middle" x="2135" y="-13" font-family="Helvetica,sans-Serif" font-size="10.00" fill="#000000">_and_cholesky_decomposition.cpp</text>
</a>
</g>
</g>
<!-- Node27&#45;&gt;Node43 -->
<g id="edge16" class="edge">
<title>Node27&#45;&gt;Node43</title>
<path fill="none" stroke="#191970" d="M1514.8899,-86.255C1619.0791,-82.4125 1849.84,-71.1228 2042,-42 2052.4739,-40.4126 2063.5233,-38.3064 2074.2059,-36.0401"/>
<polygon fill="#191970" stroke="#191970" points="1514.4774,-82.7675 1504.6098,-86.625 1514.7292,-89.763 1514.4774,-82.7675"/>
</g>
<!-- Node44 -->
<g id="node18" class="node">
<title>Node44</title>
<g id="a_node18"><a xlink:href="test__position__evolution_8cpp.html" target="_top" xlink:title="tests/test_position\l_evolution.cpp">
<polygon fill="#ffffff" stroke="#000000" points="2237.5,-6 2237.5,-36 2334.5,-36 2334.5,-6 2237.5,-6"/>
<text text-anchor="start" x="2245.5" y="-24" font-family="Helvetica,sans-Serif" font-size="10.00" fill="#000000">tests/test_position</text>
<text text-anchor="middle" x="2286" y="-13" font-family="Helvetica,sans-Serif" font-size="10.00" fill="#000000">_evolution.cpp</text>
</a>
</g>
</g>
<!-- Node27&#45;&gt;Node44 -->
<g id="edge17" class="edge">
<title>Node27&#45;&gt;Node44</title>
<path fill="none" stroke="#191970" d="M1514.6645,-86.7887C1667.6854,-83.1225 2092.3769,-70.5964 2229,-42 2235.916,-40.5524 2243.1162,-38.4241 2249.9782,-36.0706"/>
<polygon fill="#191970" stroke="#191970" points="1514.4682,-83.2922 1504.5537,-87.0274 1514.6336,-90.2903 1514.4682,-83.2922"/>
</g>
<!-- Node45 -->
<g id="node19" class="node">
<title>Node45</title>
<g id="a_node19"><a xlink:href="test__position__evolution__coupling_8cpp.html" target="_top" xlink:title="tests/test_position\l_evolution_coupling.cpp">
<polygon fill="#ffffff" stroke="#000000" points="2352.5,-6 2352.5,-36 2473.5,-36 2473.5,-6 2352.5,-6"/>
<text text-anchor="start" x="2360.5" y="-24" font-family="Helvetica,sans-Serif" font-size="10.00" fill="#000000">tests/test_position</text>
<text text-anchor="middle" x="2413" y="-13" font-family="Helvetica,sans-Serif" font-size="10.00" fill="#000000">_evolution_coupling.cpp</text>
</a>
</g>
</g>
<!-- Node27&#45;&gt;Node45 -->
<g id="edge18" class="edge">
<title>Node27&#45;&gt;Node45</title>
<path fill="none" stroke="#191970" d="M1514.6481,-86.8786C1682.7323,-83.2116 2183.5093,-70.1587 2344,-42 2352.2633,-40.5502 2360.9276,-38.4208 2369.2169,-36.0669"/>
<polygon fill="#191970" stroke="#191970" points="1514.4564,-83.3818 1504.5342,-87.0966 1514.6073,-90.3802 1514.4564,-83.3818"/>
</g>
<!-- Node46 -->
<g id="node20" class="node">
<title>Node46</title>
<g id="a_node20"><a xlink:href="test__position__evolution__coupling__noise_8cpp.html" target="_top" xlink:title="tests/test_position\l_evolution_coupling\l_noise.cpp">
<polygon fill="#ffffff" stroke="#000000" points="2492,-.5 2492,-41.5 2594,-41.5 2594,-.5 2492,-.5"/>
<text text-anchor="start" x="2500" y="-29.5" font-family="Helvetica,sans-Serif" font-size="10.00" fill="#000000">tests/test_position</text>
<text text-anchor="start" x="2500" y="-18.5" font-family="Helvetica,sans-Serif" font-size="10.00" fill="#000000">_evolution_coupling</text>
<text text-anchor="middle" x="2543" y="-7.5" font-family="Helvetica,sans-Serif" font-size="10.00" fill="#000000">_noise.cpp</text>
</a>
</g>
</g>
<!-- Node27&#45;&gt;Node46 -->
<g id="edge19" class="edge">
<title>Node27&#45;&gt;Node46</title>
<path fill="none" stroke="#191970" d="M1514.7767,-87.631C1700.2417,-86.0697 2295.1154,-78.2866 2483,-42 2485.9257,-41.4349 2488.9017,-40.7555 2491.8848,-39.992"/>
<polygon fill="#191970" stroke="#191970" points="1514.6734,-84.1316 1504.7022,-87.713 1514.7304,-91.1314 1514.6734,-84.1316"/>
</g>
<!-- Node47 -->
<g id="node21" class="node">
<title>Node47</title>
<g id="a_node21"><a xlink:href="test__position__evolution__hatta__coupling_8cpp.html" target="_top" xlink:title="tests/test_position\l_evolution_hatta_coupling.cpp">
<polygon fill="#ffffff" stroke="#000000" points="2612,-6 2612,-36 2760,-36 2760,-6 2612,-6"/>
<text text-anchor="start" x="2620" y="-24" font-family="Helvetica,sans-Serif" font-size="10.00" fill="#000000">tests/test_position</text>
<text text-anchor="middle" x="2686" y="-13" font-family="Helvetica,sans-Serif" font-size="10.00" fill="#000000">_evolution_hatta_coupling.cpp</text>
</a>
</g>
</g>
<!-- Node27&#45;&gt;Node47 -->
<g id="edge20" class="edge">
<title>Node27&#45;&gt;Node47</title>
<path fill="none" stroke="#191970" d="M1515.0444,-87.2865C1714.5025,-84.507 2389.3309,-72.9828 2603,-42 2612.8557,-40.5709 2623.2377,-38.4514 2633.1956,-36.1008"/>
<polygon fill="#191970" stroke="#191970" points="1514.7507,-83.7901 1504.7998,-87.4274 1514.847,-90.7894 1514.7507,-83.7901"/>
</g>
<!-- Node48 -->
<g id="node22" class="node">
<title>Node48</title>
<g id="a_node22"><a xlink:href="test__symmetrize__average_8cpp.html" target="_top" xlink:title="tests/test_symmetrize\l_average.cpp">
<polygon fill="#ffffff" stroke="#000000" points="2778,-6 2778,-36 2892,-36 2892,-6 2778,-6"/>
<text text-anchor="start" x="2786" y="-24" font-family="Helvetica,sans-Serif" font-size="10.00" fill="#000000">tests/test_symmetrize</text>
<text text-anchor="middle" x="2835" y="-13" font-family="Helvetica,sans-Serif" font-size="10.00" fill="#000000">_average.cpp</text>
</a>
</g>
</g>
<!-- Node27&#45;&gt;Node48 -->
<g id="edge21" class="edge">
<title>Node27&#45;&gt;Node48</title>
<path fill="none" stroke="#191970" d="M1514.9336,-86.9355C1749.1154,-82.3561 2644.4352,-63.5846 2769,-42 2777.0565,-40.604 2785.4897,-38.4679 2793.5311,-36.0834"/>
<polygon fill="#191970" stroke="#191970" points="1514.5395,-83.4424 1504.6096,-87.1365 1514.6759,-90.441 1514.5395,-83.4424"/>
</g>
<!-- Node49 -->
<g id="node23" class="node">
<title>Node49</title>
<g id="a_node23"><a xlink:href="test__symmetrize__average2_8cpp.html" target="_top" xlink:title="tests/test_symmetrize\l_average2.cpp">
<polygon fill="#ffffff" stroke="#000000" points="2910,-6 2910,-36 3024,-36 3024,-6 2910,-6"/>
<text text-anchor="start" x="2918" y="-24" font-family="Helvetica,sans-Serif" font-size="10.00" fill="#000000">tests/test_symmetrize</text>
<text text-anchor="middle" x="2967" y="-13" font-family="Helvetica,sans-Serif" font-size="10.00" fill="#000000">_average2.cpp</text>
</a>
</g>
</g>
<!-- Node27&#45;&gt;Node49 -->
<g id="edge22" class="edge">
<title>Node27&#45;&gt;Node49</title>
<path fill="none" stroke="#191970" d="M1514.7837,-87.1307C1763.2214,-83.1362 2762.8118,-65.7168 2901,-42 2909.0587,-40.6169 2917.493,-38.4869 2925.5347,-36.1043"/>
<polygon fill="#191970" stroke="#191970" points="1514.4907,-83.6349 1504.548,-87.2945 1514.6028,-90.634 1514.4907,-83.6349"/>
</g>
</g>
</svg>
