<?xml version="1.0" encoding="UTF-8" standalone="no"?>
<!DOCTYPE svg PUBLIC "-//W3C//DTD SVG 1.1//EN"
 "http://www.w3.org/Graphics/SVG/1.1/DTD/svg11.dtd">
<!-- Generated by graphviz version 2.40.1 (20161225.0304)
 -->
<!-- Title: mpi_exchange_boundaries.cpp Pages: 1 -->
<!--zoomable 308 -->
<svg id="main" version="1.1" xmlns="http://www.w3.org/2000/svg" xmlns:xlink="http://www.w3.org/1999/xlink" xml:space="preserve" onload="init(evt)">
<style type="text/css"><![CDATA[
.edge:hover path { stroke: red; }
.edge:hover polygon { stroke: red; fill: red; }
]]></style>
<script type="text/javascript"><![CDATA[
var edges = document.getElementsByTagName('g');
if (edges && edges.length) {
  for (var i=0;i<edges.length;i++) {
    if (edges[i].id.substr(0,4)=='edge') {
      edges[i].setAttribute('class','edge');
    }
  }
}
]]></script>
        <defs>
                <circle id="rim" cx="0" cy="0" r="7"/>
                <circle id="rim2" cx="0" cy="0" r="3.5"/>
                <g id="zoomPlus">
                        <use xlink:href="#rim" fill="#404040">
                                <set attributeName="fill" to="#808080" begin="zoomplus.mouseover" end="zoomplus.mouseout"/>
                        </use>
                        <path d="M-4,0h8M0,-4v8" fill="none" stroke="white" stroke-width="1.5" pointer-events="none"/>
                </g>
                <g id="zoomMin">
                        <use xlink:href="#rim" fill="#404040">
                                <set attributeName="fill" to="#808080" begin="zoomminus.mouseover" end="zoomminus.mouseout"/>
                        </use>
                        <path d="M-4,0h8" fill="none" stroke="white" stroke-width="1.5" pointer-events="none"/>
                </g>
                <g id="dirArrow">
                        <path fill="none" stroke="white" stroke-width="1.5" d="M0,-3.0v7 M-2.5,-0.5L0,-3.0L2.5,-0.5"/>
                </g>
               <g id="resetDef">
                       <use xlink:href="#rim2" fill="#404040">
                               <set attributeName="fill" to="#808080" begin="reset.mouseover" end="reset.mouseout"/>
                       </use>
               </g>
        </defs>

<script type="text/javascript">
var viewWidth = 1240;
var viewHeight = 308;
var sectionId = 'dynsection-0';
</script>
<script xlink:href="svgpan.js"/>
<svg id="graph" class="graph">
<g id="viewport">
<title>mpi_exchange_boundaries.cpp</title>
<polygon fill="#ffffff" stroke="transparent" points="-4,4 -4,-304 1236,-304 1236,4 -4,4"/>
<!-- Node0 -->
<g id="node1" class="node">
<title>Node0</title>
<polygon fill="#bfbfbf" stroke="#000000" points="522.5,-280.5 522.5,-299.5 673.5,-299.5 673.5,-280.5 522.5,-280.5"/>
<text text-anchor="middle" x="598" y="-287.5" font-family="Helvetica,sans-Serif" font-size="10.00" fill="#000000">mpi_exchange_boundaries.cpp</text>
</g>
<!-- Node1 -->
<g id="node2" class="node">
<title>Node1</title>
<polygon fill="#ffffff" stroke="#bfbfbf" points="0,-224.5 0,-243.5 46,-243.5 46,-224.5 0,-224.5"/>
<text text-anchor="middle" x="23" y="-231.5" font-family="Helvetica,sans-Serif" font-size="10.00" fill="#000000">stdio.h</text>
</g>
<!-- Node0&#45;&gt;Node1 -->
<g id="edge1" class="edge">
<title>Node0&#45;&gt;Node1</title>
<path fill="none" stroke="#191970" d="M522.1584,-287.7808C417.4872,-283.7516 223.1718,-272.7878 60,-244 58.7468,-243.7789 57.4743,-243.535 56.1924,-243.273"/>
<polygon fill="#191970" stroke="#191970" points="56.8783,-239.8392 46.3457,-240.9862 55.2947,-246.6577 56.8783,-239.8392"/>
</g>
<!-- Node2 -->
<g id="node3" class="node">
<title>Node2</title>
<polygon fill="#ffffff" stroke="#bfbfbf" points="721,-.5 721,-19.5 769,-19.5 769,-.5 721,-.5"/>
<text text-anchor="middle" x="745" y="-7.5" font-family="Helvetica,sans-Serif" font-size="10.00" fill="#000000">stdlib.h</text>
</g>
<!-- Node0&#45;&gt;Node2 -->
<g id="edge2" class="edge">
<title>Node0&#45;&gt;Node2</title>
<path fill="none" stroke="#191970" d="M673.6409,-282.2132C823.1172,-265.8 1142,-225.2484 1142,-178 1142,-178 1142,-178 1142,-122 1142,-81.4482 1115.1039,-74.4649 1079,-56 1027.0943,-29.4534 853.732,-16.3677 779.3616,-11.868"/>
<polygon fill="#191970" stroke="#191970" points="779.3219,-8.3597 769.1334,-11.2658 778.9104,-15.3476 779.3219,-8.3597"/>
</g>
<!-- Node3 -->
<g id="node4" class="node">
<title>Node3</title>
<polygon fill="#ffffff" stroke="#bfbfbf" points="849.5,-56.5 849.5,-75.5 890.5,-75.5 890.5,-56.5 849.5,-56.5"/>
<text text-anchor="middle" x="870" y="-63.5" font-family="Helvetica,sans-Serif" font-size="10.00" fill="#000000">mpi.h</text>
</g>
<!-- Node0&#45;&gt;Node3 -->
<g id="edge3" class="edge">
<title>Node0&#45;&gt;Node3</title>
<path fill="none" stroke="#191970" d="M648.5514,-280.4823C718.4539,-264.1771 841.1911,-223.3737 887,-132 894.5102,-117.0196 888.5078,-98.4146 881.6453,-84.7802"/>
<polygon fill="#191970" stroke="#191970" points="884.5986,-82.8894 876.6772,-75.8536 878.4821,-86.2936 884.5986,-82.8894"/>
</g>
<!-- Node4 -->
<g id="node5" class="node">
<title>Node4</title>
<g id="a_node5"><a xlink:href="config_8h.html" target="_top" xlink:title="config.h">
<polygon fill="#ffffff" stroke="#000000" points="411.5,-56.5 411.5,-75.5 462.5,-75.5 462.5,-56.5 411.5,-56.5"/>
<text text-anchor="middle" x="437" y="-63.5" font-family="Helvetica,sans-Serif" font-size="10.00" fill="#000000">config.h</text>
</a>
</g>
</g>
<!-- Node0&#45;&gt;Node4 -->
<g id="edge4" class="edge">
<title>Node0&#45;&gt;Node4</title>
<path fill="none" stroke="#191970" d="M522.1019,-285.7163C429.3272,-279.5968 278.3355,-266.5251 227,-244 191.7725,-228.5428 177.1623,-222.9096 161,-188 151.2362,-166.9107 167.6425,-118.8516 175,-112 207.2546,-81.9632 337.0626,-71.145 401.0209,-67.5846"/>
<polygon fill="#191970" stroke="#191970" points="401.2603,-71.077 411.0622,-67.0554 400.8918,-64.0867 401.2603,-71.077"/>
</g>
<!-- Node7 -->
<g id="node8" class="node">
<title>Node7</title>
<polygon fill="#ffffff" stroke="#bfbfbf" points="1170,-224.5 1170,-243.5 1232,-243.5 1232,-224.5 1170,-224.5"/>
<text text-anchor="middle" x="1201" y="-231.5" font-family="Helvetica,sans-Serif" font-size="10.00" fill="#000000">mpi_pos.h</text>
</g>
<!-- Node0&#45;&gt;Node7 -->
<g id="edge8" class="edge">
<title>Node0&#45;&gt;Node7</title>
<path fill="none" stroke="#191970" d="M673.7417,-287.035C781.4151,-282.0772 984.6921,-269.9713 1156,-244 1157.2462,-243.8111 1158.5095,-243.6075 1159.7829,-243.3919"/>
<polygon fill="#191970" stroke="#191970" points="1160.4486,-246.8281 1169.6315,-241.5437 1159.1574,-239.9482 1160.4486,-246.8281"/>
</g>
<!-- Node8 -->
<g id="node9" class="node">
<title>Node8</title>
<g id="a_node9"><a xlink:href="mpi__class_8h.html" target="_top" xlink:title="mpi_class.h">
<polygon fill="#ffffff" stroke="#000000" points="217.5,-112.5 217.5,-131.5 286.5,-131.5 286.5,-112.5 217.5,-112.5"/>
<text text-anchor="middle" x="252" y="-119.5" font-family="Helvetica,sans-Serif" font-size="10.00" fill="#000000">mpi_class.h</text>
</a>
</g>
</g>
<!-- Node0&#45;&gt;Node8 -->
<g id="edge9" class="edge">
<title>Node0&#45;&gt;Node8</title>
<path fill="none" stroke="#191970" d="M522.1867,-283.0336C411.2304,-271.0925 213.0797,-242.5529 170,-188 152.9563,-166.4171 184.2867,-147.4019 213.008,-135.3939"/>
<polygon fill="#191970" stroke="#191970" points="214.5713,-138.5391 222.5746,-131.5966 211.9887,-132.0329 214.5713,-138.5391"/>
</g>
<!-- Node9 -->
<g id="node10" class="node">
<title>Node9</title>
<g id="a_node10"><a xlink:href="field_8h.html" target="_top" xlink:title="field.h">
<polygon fill="#ffffff" stroke="#000000" points="576.5,-224.5 576.5,-243.5 619.5,-243.5 619.5,-224.5 576.5,-224.5"/>
<text text-anchor="middle" x="598" y="-231.5" font-family="Helvetica,sans-Serif" font-size="10.00" fill="#000000">field.h</text>
</a>
</g>
</g>
<!-- Node0&#45;&gt;Node9 -->
<g id="edge14" class="edge">
<title>Node0&#45;&gt;Node9</title>
<path fill="none" stroke="#191970" d="M598,-280.2455C598,-272.9382 598,-262.6944 598,-253.7046"/>
<polygon fill="#191970" stroke="#191970" points="601.5001,-253.6426 598,-243.6427 594.5001,-253.6427 601.5001,-253.6426"/>
</g>
<!-- Node4&#45;&gt;Node2 -->
<g id="edge6" class="edge">
<title>Node4&#45;&gt;Node2</title>
<path fill="none" stroke="#191970" d="M462.7301,-61.3218C518.0826,-51.2577 648.4832,-27.5485 710.7466,-16.2279"/>
<polygon fill="#191970" stroke="#191970" points="711.6282,-19.6251 720.8408,-14.3926 710.376,-12.738 711.6282,-19.6251"/>
</g>
<!-- Node5 -->
<g id="node6" class="node">
<title>Node5</title>
<polygon fill="#ffffff" stroke="#bfbfbf" points="502,-.5 502,-19.5 556,-19.5 556,-.5 502,-.5"/>
<text text-anchor="middle" x="529" y="-7.5" font-family="Helvetica,sans-Serif" font-size="10.00" fill="#000000">iostream</text>
</g>
<!-- Node4&#45;&gt;Node5 -->
<g id="edge5" class="edge">
<title>Node4&#45;&gt;Node5</title>
<path fill="none" stroke="#191970" d="M453.0252,-56.2455C467.1408,-47.6534 487.9263,-35.0014 504.1899,-25.1018"/>
<polygon fill="#191970" stroke="#191970" points="506.4363,-27.8319 513.1585,-19.6427 502.7966,-21.8525 506.4363,-27.8319"/>
</g>
<!-- Node6 -->
<g id="node7" class="node">
<title>Node6</title>
<polygon fill="#ffffff" stroke="#bfbfbf" points="412.5,-.5 412.5,-19.5 461.5,-19.5 461.5,-.5 412.5,-.5"/>
<text text-anchor="middle" x="437" y="-7.5" font-family="Helvetica,sans-Serif" font-size="10.00" fill="#000000">string.h</text>
</g>
<!-- Node4&#45;&gt;Node6 -->
<g id="edge7" class="edge">
<title>Node4&#45;&gt;Node6</title>
<path fill="none" stroke="#191970" d="M437,-56.2455C437,-48.9382 437,-38.6944 437,-29.7046"/>
<polygon fill="#191970" stroke="#191970" points="440.5001,-29.6426 437,-19.6427 433.5001,-29.6427 440.5001,-29.6426"/>
</g>
<!-- Node8&#45;&gt;Node2 -->
<g id="edge10" class="edge">
<title>Node8&#45;&gt;Node2</title>
<path fill="none" stroke="#191970" d="M286.5166,-114.8672C291.3767,-113.8887 296.312,-112.9088 301,-112 387.9496,-95.1441 410.5833,-95.4038 497,-76 574.1526,-58.6763 663.525,-33.6514 711.0923,-19.9295"/>
<polygon fill="#191970" stroke="#191970" points="712.2347,-23.2426 720.8665,-17.0991 710.2876,-16.5188 712.2347,-23.2426"/>
</g>
<!-- Node8&#45;&gt;Node3 -->
<g id="edge13" class="edge">
<title>Node8&#45;&gt;Node3</title>
<path fill="none" stroke="#191970" d="M286.6907,-117.7869C302.6167,-115.9108 321.7552,-113.7377 339,-112 528.8782,-92.8668 757.4514,-74.7065 839.135,-68.3696"/>
<polygon fill="#191970" stroke="#191970" points="839.5319,-71.8494 849.2321,-67.5885 838.9919,-64.8703 839.5319,-71.8494"/>
</g>
<!-- Node8&#45;&gt;Node4 -->
<g id="edge12" class="edge">
<title>Node8&#45;&gt;Node4</title>
<path fill="none" stroke="#191970" d="M283.8026,-112.3733C316.4773,-102.4825 367.2432,-87.1156 401.2805,-76.8124"/>
<polygon fill="#191970" stroke="#191970" points="402.7111,-80.0363 411.2682,-73.7891 400.683,-73.3365 402.7111,-80.0363"/>
</g>
<!-- Node8&#45;&gt;Node5 -->
<g id="edge11" class="edge">
<title>Node8&#45;&gt;Node5</title>
<path fill="none" stroke="#191970" d="M286.9587,-114.8379C348.5166,-102.2064 469.9932,-77.182 472,-76 491.6619,-64.4194 507.9295,-43.5979 517.9843,-28.4306"/>
<polygon fill="#191970" stroke="#191970" points="521.0244,-30.1719 523.4168,-19.8507 515.1102,-26.4272 521.0244,-30.1719"/>
</g>
<!-- Node9&#45;&gt;Node2 -->
<g id="edge16" class="edge">
<title>Node9&#45;&gt;Node2</title>
<path fill="none" stroke="#191970" d="M619.6716,-233.3814C695.5546,-230.9498 948.6437,-220.5265 1022,-188 1056.2471,-172.8147 1069.6532,-166.175 1085,-132 1099.9441,-98.7218 1083.9735,-76.7932 1054,-56 1010.0226,-25.492 850.188,-14.6834 779.2808,-11.3326"/>
<polygon fill="#191970" stroke="#191970" points="779.2388,-7.8273 769.0915,-10.8739 778.9239,-14.8202 779.2388,-7.8273"/>
</g>
<!-- Node9&#45;&gt;Node3 -->
<g id="edge21" class="edge">
<title>Node9&#45;&gt;Node3</title>
<path fill="none" stroke="#191970" d="M619.872,-229.4531C679.7072,-216.4927 843.4137,-177.3595 870,-132 878.138,-118.1156 877.3462,-99.5997 874.9736,-85.7137"/>
<polygon fill="#191970" stroke="#191970" points="878.3601,-84.8098 872.8723,-75.747 871.5107,-86.2539 878.3601,-84.8098"/>
</g>
<!-- Node9&#45;&gt;Node4 -->
<g id="edge19" class="edge">
<title>Node9&#45;&gt;Node4</title>
<path fill="none" stroke="#191970" d="M576.3353,-233.3314C493.141,-230.545 197.4365,-218.5433 170,-188 148.8236,-164.4257 176.9311,-129.0095 200,-112 231.4406,-88.8176 342.7435,-75.0071 400.9417,-69.211"/>
<polygon fill="#191970" stroke="#191970" points="401.5433,-72.6692 411.1593,-68.2216 400.8685,-65.7018 401.5433,-72.6692"/>
</g>
<!-- Node9&#45;&gt;Node5 -->
<g id="edge15" class="edge">
<title>Node9&#45;&gt;Node5</title>
<path fill="none" stroke="#191970" d="M619.6027,-232.4172C659.3198,-228.8556 745.9208,-218.0297 812,-188 876.1909,-158.8285 946.689,-108.8355 900,-56 878.0896,-31.2052 655.669,-16.7235 566.0882,-11.8579"/>
<polygon fill="#191970" stroke="#191970" points="566.2653,-8.3625 556.0931,-11.3251 565.8926,-15.3526 566.2653,-8.3625"/>
</g>
<!-- Node9&#45;&gt;Node8 -->
<g id="edge23" class="edge">
<title>Node9&#45;&gt;Node8</title>
<path fill="none" stroke="#191970" d="M576.1554,-226.854C551.1149,-218.4436 509.0151,-203.6307 474,-188 456.5723,-180.2203 453.8298,-174.8076 436,-168 410.8331,-158.391 342.6689,-142.2732 296.7529,-131.8925"/>
<polygon fill="#191970" stroke="#191970" points="297.2694,-128.4212 286.745,-129.6409 295.7329,-135.2505 297.2694,-128.4212"/>
</g>
<!-- Node10 -->
<g id="node11" class="node">
<title>Node10</title>
<polygon fill="#ffffff" stroke="#bfbfbf" points="381.5,-112.5 381.5,-131.5 434.5,-131.5 434.5,-112.5 381.5,-112.5"/>
<text text-anchor="middle" x="408" y="-119.5" font-family="Helvetica,sans-Serif" font-size="10.00" fill="#000000">complex</text>
</g>
<!-- Node9&#45;&gt;Node10 -->
<g id="edge17" class="edge">
<title>Node9&#45;&gt;Node10</title>
<path fill="none" stroke="#191970" d="M595.034,-224.3951C590.101,-210.0099 578.8448,-182.9646 560,-168 555.3428,-164.3017 487.9024,-144.6889 444.4337,-132.2965"/>
<polygon fill="#191970" stroke="#191970" points="445.3292,-128.9124 434.7531,-129.543 443.414,-135.6454 445.3292,-128.9124"/>
</g>
<!-- Node11 -->
<g id="node12" class="node">
<title>Node11</title>
<polygon fill="#ffffff" stroke="#bfbfbf" points="178.5,-168.5 178.5,-187.5 237.5,-187.5 237.5,-168.5 178.5,-168.5"/>
<text text-anchor="middle" x="208" y="-175.5" font-family="Helvetica,sans-Serif" font-size="10.00" fill="#000000">ccomplex</text>
</g>
<!-- Node9&#45;&gt;Node11 -->
<g id="edge18" class="edge">
<title>Node9&#45;&gt;Node11</title>
<path fill="none" stroke="#191970" d="M576.488,-232.0932C522.768,-227.1395 378.2963,-212.6377 247.8886,-187.9653"/>
<polygon fill="#191970" stroke="#191970" points="248.2072,-184.4626 237.7269,-186.0162 246.8885,-191.3373 248.2072,-184.4626"/>
</g>
<!-- Node12 -->
<g id="node13" class="node">
<title>Node12</title>
<polygon fill="#ffffff" stroke="#bfbfbf" points="453,-112.5 453,-131.5 497,-131.5 497,-112.5 453,-112.5"/>
<text text-anchor="middle" x="475" y="-119.5" font-family="Helvetica,sans-Serif" font-size="10.00" fill="#000000">omp.h</text>
</g>
<!-- Node9&#45;&gt;Node12 -->
<g id="edge20" class="edge">
<title>Node9&#45;&gt;Node12</title>
<path fill="none" stroke="#191970" d="M600.194,-224.3984C602.7801,-210.4995 605.3084,-184.6233 593,-168 587.59,-160.6935 539.9183,-143.6279 506.85,-132.4627"/>
<polygon fill="#191970" stroke="#191970" points="507.7131,-129.0608 497.1192,-129.2044 505.4904,-135.6985 507.7131,-129.0608"/>
</g>
<!-- Node13 -->
<g id="node14" class="node">
<title>Node13</title>
<polygon fill="#ffffff" stroke="#bfbfbf" points="255.5,-168.5 255.5,-187.5 302.5,-187.5 302.5,-168.5 255.5,-168.5"/>
<text text-anchor="middle" x="279" y="-175.5" font-family="Helvetica,sans-Serif" font-size="10.00" fill="#000000">math.h</text>
</g>
<!-- Node9&#45;&gt;Node13 -->
<g id="edge22" class="edge">
<title>Node9&#45;&gt;Node13</title>
<path fill="none" stroke="#191970" d="M576.281,-231.5218C529.745,-225.9979 416.8663,-211.4566 312.7373,-187.9035"/>
<polygon fill="#191970" stroke="#191970" points="313.2198,-184.4233 302.6901,-185.596 311.6529,-191.2457 313.2198,-184.4233"/>
</g>
<!-- Node14 -->
<g id="node15" class="node">
<title>Node14</title>
<g id="a_node15"><a xlink:href="MV__class_8h.html" target="_top" xlink:title="MV_class.h">
<polygon fill="#ffffff" stroke="#000000" points="483,-168.5 483,-187.5 551,-187.5 551,-168.5 483,-168.5"/>
<text text-anchor="middle" x="517" y="-175.5" font-family="Helvetica,sans-Serif" font-size="10.00" fill="#000000">MV_class.h</text>
</a>
</g>
</g>
<!-- Node9&#45;&gt;Node14 -->
<g id="edge24" class="edge">
<title>Node9&#45;&gt;Node14</title>
<path fill="none" stroke="#191970" d="M583.8909,-224.2455C571.5791,-215.7337 553.5042,-203.2375 539.2462,-193.3801"/>
<polygon fill="#191970" stroke="#191970" points="541.1634,-190.4506 530.9474,-187.6427 537.1826,-196.2085 541.1634,-190.4506"/>
</g>
<!-- Node16 -->
<g id="node17" class="node">
<title>Node16</title>
<polygon fill="#ffffff" stroke="#bfbfbf" points="709.5,-112.5 709.5,-131.5 758.5,-131.5 758.5,-112.5 709.5,-112.5"/>
<text text-anchor="middle" x="734" y="-119.5" font-family="Helvetica,sans-Serif" font-size="10.00" fill="#000000">random</text>
</g>
<!-- Node9&#45;&gt;Node16 -->
<g id="edge54" class="edge">
<title>Node9&#45;&gt;Node16</title>
<path fill="none" stroke="#191970" d="M619.7333,-229.0972C652.5826,-221.2289 712.4916,-204.9387 726,-188 736.2213,-175.1831 737.5634,-156.2724 736.7325,-141.9749"/>
<polygon fill="#191970" stroke="#191970" points="740.1847,-141.3142 735.7284,-131.7021 733.2179,-141.9952 740.1847,-141.3142"/>
</g>
<!-- Node17 -->
<g id="node18" class="node">
<title>Node17</title>
<g id="a_node18"><a xlink:href="rand__class_8h.html" target="_top" xlink:title="rand_class.h">
<polygon fill="#ffffff" stroke="#000000" points="645,-168.5 645,-187.5 717,-187.5 717,-168.5 645,-168.5"/>
<text text-anchor="middle" x="681" y="-175.5" font-family="Helvetica,sans-Serif" font-size="10.00" fill="#000000">rand_class.h</text>
</a>
</g>
</g>
<!-- Node9&#45;&gt;Node17 -->
<g id="edge34" class="edge">
<title>Node9&#45;&gt;Node17</title>
<path fill="none" stroke="#191970" d="M612.4575,-224.2455C625.0732,-215.7337 643.5944,-203.2375 658.2045,-193.3801"/>
<polygon fill="#191970" stroke="#191970" points="660.3761,-196.1371 666.7082,-187.6427 656.4609,-190.3343 660.3761,-196.1371"/>
</g>
<!-- Node18 -->
<g id="node19" class="node">
<title>Node18</title>
<g id="a_node19"><a xlink:href="momenta_8h.html" target="_top" xlink:title="momenta.h">
<polygon fill="#ffffff" stroke="#000000" points="776.5,-112.5 776.5,-131.5 841.5,-131.5 841.5,-112.5 776.5,-112.5"/>
<text text-anchor="middle" x="809" y="-119.5" font-family="Helvetica,sans-Serif" font-size="10.00" fill="#000000">momenta.h</text>
</a>
</g>
</g>
<!-- Node9&#45;&gt;Node18 -->
<g id="edge44" class="edge">
<title>Node9&#45;&gt;Node18</title>
<path fill="none" stroke="#191970" d="M619.6669,-230.576C649.4423,-225.1429 703.8769,-212.5515 744,-188 764.8704,-175.2293 783.8917,-154.3272 795.8905,-139.4691"/>
<polygon fill="#191970" stroke="#191970" points="798.6992,-141.5592 802.1047,-131.5266 793.1861,-137.2458 798.6992,-141.5592"/>
</g>
<!-- Node19 -->
<g id="node20" class="node">
<title>Node19</title>
<g id="a_node20"><a xlink:href="positions_8h.html" target="_top" xlink:title="positions.h">
<polygon fill="#ffffff" stroke="#000000" points="1012,-112.5 1012,-131.5 1076,-131.5 1076,-112.5 1012,-112.5"/>
<text text-anchor="middle" x="1044" y="-119.5" font-family="Helvetica,sans-Serif" font-size="10.00" fill="#000000">positions.h</text>
</a>
</g>
</g>
<!-- Node9&#45;&gt;Node19 -->
<g id="edge49" class="edge">
<title>Node9&#45;&gt;Node19</title>
<path fill="none" stroke="#191970" d="M619.7535,-233.8132C693.5346,-232.8289 933.2571,-226.6595 998,-188 1016.0998,-177.1921 1028.8472,-156.1855 1036.2618,-140.7635"/>
<polygon fill="#191970" stroke="#191970" points="1039.4731,-142.156 1040.3668,-131.5989 1033.0847,-139.2945 1039.4731,-142.156"/>
</g>
<!-- Node20 -->
<g id="node21" class="node">
<title>Node20</title>
<polygon fill="#ffffff" stroke="#bfbfbf" points="321,-168.5 321,-187.5 365,-187.5 365,-168.5 321,-168.5"/>
<text text-anchor="middle" x="343" y="-175.5" font-family="Helvetica,sans-Serif" font-size="10.00" fill="#000000">time.h</text>
</g>
<!-- Node9&#45;&gt;Node20 -->
<g id="edge55" class="edge">
<title>Node9&#45;&gt;Node20</title>
<path fill="none" stroke="#191970" d="M576.1933,-230.3411C537.5811,-223.6891 454.5182,-208.6014 375.3921,-188.1567"/>
<polygon fill="#191970" stroke="#191970" points="375.8254,-184.6522 365.2649,-185.5043 374.0518,-191.4238 375.8254,-184.6522"/>
</g>
<!-- Node21 -->
<g id="node22" class="node">
<title>Node21</title>
<polygon fill="#ffffff" stroke="#bfbfbf" points="383,-168.5 383,-187.5 427,-187.5 427,-168.5 383,-168.5"/>
<text text-anchor="middle" x="405" y="-175.5" font-family="Helvetica,sans-Serif" font-size="10.00" fill="#000000">thread</text>
</g>
<!-- Node9&#45;&gt;Node21 -->
<g id="edge56" class="edge">
<title>Node9&#45;&gt;Node21</title>
<path fill="none" stroke="#191970" d="M576.2356,-227.6849C542.2274,-217.8173 476.3113,-198.6914 436.9232,-187.2627"/>
<polygon fill="#191970" stroke="#191970" points="437.8579,-183.8896 427.2787,-184.4643 435.9072,-190.6123 437.8579,-183.8896"/>
</g>
<!-- Node14&#45;&gt;Node2 -->
<g id="edge26" class="edge">
<title>Node14&#45;&gt;Node2</title>
<path fill="none" stroke="#191970" d="M482.9158,-170.0233C440.079,-159.6581 371.2408,-141.738 364,-132 358.6961,-124.8669 358.3364,-118.851 364,-112 418.2049,-46.4305 469.7715,-97.8174 552,-76 608.8701,-60.9109 673.2191,-37.6063 711.3827,-23.1068"/>
<polygon fill="#191970" stroke="#191970" points="712.8727,-26.2842 720.9625,-19.4427 710.372,-19.7461 712.8727,-26.2842"/>
</g>
<!-- Node14&#45;&gt;Node3 -->
<g id="edge31" class="edge">
<title>Node14&#45;&gt;Node3</title>
<path fill="none" stroke="#191970" d="M482.8126,-169.3359C442.3718,-158.7458 379.6559,-141.1134 373,-132 367.7574,-124.8217 367.0112,-118.5686 373,-112 388.8041,-94.6656 733.5358,-73.7404 839.3745,-67.7045"/>
<polygon fill="#191970" stroke="#191970" points="839.6247,-71.1961 849.4108,-67.1361 839.2288,-64.2073 839.6247,-71.1961"/>
</g>
<!-- Node14&#45;&gt;Node4 -->
<g id="edge29" class="edge">
<title>Node14&#45;&gt;Node4</title>
<path fill="none" stroke="#191970" d="M482.8525,-173.4918C403.5844,-162.949 213.4669,-137.1835 209,-132 203.1974,-125.2664 203.3703,-118.8789 209,-112 232.8354,-82.8754 342.8366,-71.7759 400.8892,-67.8933"/>
<polygon fill="#191970" stroke="#191970" points="401.3321,-71.3724 411.0919,-67.2496 400.8913,-64.3863 401.3321,-71.3724"/>
</g>
<!-- Node14&#45;&gt;Node5 -->
<g id="edge25" class="edge">
<title>Node14&#45;&gt;Node5</title>
<path fill="none" stroke="#191970" d="M482.7575,-173.626C401.7257,-163.1975 204.6227,-137.3419 200,-132 158.8876,-84.4911 397.6149,-34.3381 491.9203,-16.6449"/>
<polygon fill="#191970" stroke="#191970" points="492.7014,-20.0598 501.8949,-14.7938 491.4241,-13.1773 492.7014,-20.0598"/>
</g>
<!-- Node14&#45;&gt;Node8 -->
<g id="edge32" class="edge">
<title>Node14&#45;&gt;Node8</title>
<path fill="none" stroke="#191970" d="M482.8984,-170.7936C435.4573,-160.7683 349.4607,-142.5955 296.8647,-131.4809"/>
<polygon fill="#191970" stroke="#191970" points="297.3198,-127.9998 286.8122,-129.3565 295.8725,-134.8485 297.3198,-127.9998"/>
</g>
<!-- Node14&#45;&gt;Node10 -->
<g id="edge27" class="edge">
<title>Node14&#45;&gt;Node10</title>
<path fill="none" stroke="#191970" d="M498.0136,-168.2455C480.8208,-159.4125 455.2762,-146.2887 435.7868,-136.2758"/>
<polygon fill="#191970" stroke="#191970" points="437.263,-133.0993 426.7688,-131.6427 434.0641,-139.3257 437.263,-133.0993"/>
</g>
<!-- Node14&#45;&gt;Node12 -->
<g id="edge30" class="edge">
<title>Node14&#45;&gt;Node12</title>
<path fill="none" stroke="#191970" d="M509.6842,-168.2455C503.7821,-160.3761 495.3258,-149.101 488.2406,-139.6542"/>
<polygon fill="#191970" stroke="#191970" points="491.0321,-137.5427 482.232,-131.6427 485.432,-141.7427 491.0321,-137.5427"/>
</g>
<!-- Node15 -->
<g id="node16" class="node">
<title>Node15</title>
<polygon fill="#ffffff" stroke="#bfbfbf" points="515,-112.5 515,-131.5 577,-131.5 577,-112.5 515,-112.5"/>
<text text-anchor="middle" x="546" y="-119.5" font-family="Helvetica,sans-Serif" font-size="10.00" fill="#000000">complex.h</text>
</g>
<!-- Node14&#45;&gt;Node15 -->
<g id="edge28" class="edge">
<title>Node14&#45;&gt;Node15</title>
<path fill="none" stroke="#191970" d="M522.0514,-168.2455C526.0019,-160.617 531.6097,-149.7881 536.4058,-140.5267"/>
<polygon fill="#191970" stroke="#191970" points="539.5159,-142.1321 541.0065,-131.6427 533.2999,-138.9131 539.5159,-142.1321"/>
</g>
<!-- Node14&#45;&gt;Node16 -->
<g id="edge33" class="edge">
<title>Node14&#45;&gt;Node16</title>
<path fill="none" stroke="#191970" d="M551.3843,-169.1266C591.9274,-158.6639 658.9178,-141.3761 699.5078,-130.9012"/>
<polygon fill="#191970" stroke="#191970" points="700.4181,-134.281 709.2263,-128.3932 698.6689,-127.5031 700.4181,-134.281"/>
</g>
<!-- Node17&#45;&gt;Node2 -->
<g id="edge36" class="edge">
<title>Node17&#45;&gt;Node2</title>
<path fill="none" stroke="#191970" d="M683.5175,-168.49C687.0216,-155.5636 693.7596,-131.7893 701,-112 711.8274,-82.4068 726.7579,-49.0376 736.143,-28.7681"/>
<polygon fill="#191970" stroke="#191970" points="739.3188,-30.2393 740.3785,-19.6976 732.9762,-27.2776 739.3188,-30.2393"/>
</g>
<!-- Node17&#45;&gt;Node3 -->
<g id="edge41" class="edge">
<title>Node17&#45;&gt;Node3</title>
<path fill="none" stroke="#191970" d="M717.0779,-172.4792C761.1409,-165.0363 832.1493,-150.5507 851,-132 863.3257,-119.8704 867.7838,-100.3013 869.3328,-85.6152"/>
<polygon fill="#191970" stroke="#191970" points="872.8311,-85.759 870.0323,-75.5405 865.848,-85.274 872.8311,-85.759"/>
</g>
<!-- Node17&#45;&gt;Node4 -->
<g id="edge39" class="edge">
<title>Node17&#45;&gt;Node4</title>
<path fill="none" stroke="#191970" d="M669.7304,-168.4238C652.6373,-154.3206 618.6784,-127.9192 586,-112 549.0455,-93.9977 503.5121,-81.1682 472.5761,-73.7083"/>
<polygon fill="#191970" stroke="#191970" points="473.2131,-70.2628 462.6778,-71.3846 471.6132,-77.0775 473.2131,-70.2628"/>
</g>
<!-- Node17&#45;&gt;Node5 -->
<g id="edge35" class="edge">
<title>Node17&#45;&gt;Node5</title>
<path fill="none" stroke="#191970" d="M672.3923,-168.4862C647.7406,-141.2396 576.606,-62.6172 544.7515,-27.4096"/>
<polygon fill="#191970" stroke="#191970" points="547.1964,-24.8951 537.8919,-19.8279 542.0057,-29.5915 547.1964,-24.8951"/>
</g>
<!-- Node17&#45;&gt;Node8 -->
<g id="edge42" class="edge">
<title>Node17&#45;&gt;Node8</title>
<path fill="none" stroke="#191970" d="M644.7934,-173.2737C566.6452,-163.0726 382.339,-139.0139 296.9161,-127.8632"/>
<polygon fill="#191970" stroke="#191970" points="297.1273,-124.3611 286.7584,-126.5372 296.2212,-131.3022 297.1273,-124.3611"/>
</g>
<!-- Node17&#45;&gt;Node10 -->
<g id="edge37" class="edge">
<title>Node17&#45;&gt;Node10</title>
<path fill="none" stroke="#191970" d="M644.6731,-171.8718C599.9138,-164.1189 521.3605,-149.8565 444.5225,-131.9771"/>
<polygon fill="#191970" stroke="#191970" points="445.2111,-128.5437 434.6756,-129.6634 443.6099,-135.3581 445.2111,-128.5437"/>
</g>
<!-- Node17&#45;&gt;Node12 -->
<g id="edge40" class="edge">
<title>Node17&#45;&gt;Node12</title>
<path fill="none" stroke="#191970" d="M644.9785,-169.1475C611.5652,-160.7998 560.2467,-147.6348 507.2225,-132.2543"/>
<polygon fill="#191970" stroke="#191970" points="507.886,-128.8019 497.3057,-129.3573 505.9231,-135.521 507.886,-128.8019"/>
</g>
<!-- Node17&#45;&gt;Node15 -->
<g id="edge38" class="edge">
<title>Node17&#45;&gt;Node15</title>
<path fill="none" stroke="#191970" d="M657.7927,-168.3733C635.8301,-159.2629 602.6668,-145.5062 578.1599,-135.3404"/>
<polygon fill="#191970" stroke="#191970" points="579.4824,-132.0999 568.9045,-131.5011 576.8003,-138.5657 579.4824,-132.0999"/>
</g>
<!-- Node17&#45;&gt;Node16 -->
<g id="edge43" class="edge">
<title>Node17&#45;&gt;Node16</title>
<path fill="none" stroke="#191970" d="M690.2319,-168.2455C697.8317,-160.2155 708.7877,-148.6394 717.8368,-139.0781"/>
<polygon fill="#191970" stroke="#191970" points="720.5421,-141.3115 724.8739,-131.6427 715.458,-136.4998 720.5421,-141.3115"/>
</g>
<!-- Node18&#45;&gt;Node2 -->
<g id="edge45" class="edge">
<title>Node18&#45;&gt;Node2</title>
<path fill="none" stroke="#191970" d="M803.5434,-112.4509C792.9162,-93.8533 769.2811,-52.4919 755.5122,-28.3964"/>
<polygon fill="#191970" stroke="#191970" points="758.4431,-26.4708 750.4428,-19.5249 752.3654,-29.9438 758.4431,-26.4708"/>
</g>
<!-- Node18&#45;&gt;Node3 -->
<g id="edge48" class="edge">
<title>Node18&#45;&gt;Node3</title>
<path fill="none" stroke="#191970" d="M819.6254,-112.2455C828.5473,-104.0549 841.488,-92.1749 852.0192,-82.5069"/>
<polygon fill="#191970" stroke="#191970" points="854.4968,-84.9837 859.4964,-75.6427 849.7629,-79.8271 854.4968,-84.9837"/>
</g>
<!-- Node18&#45;&gt;Node4 -->
<g id="edge47" class="edge">
<title>Node18&#45;&gt;Node4</title>
<path fill="none" stroke="#191970" d="M776.3913,-113.7315C773.561,-113.1096 770.7348,-112.5221 768,-112 661.5547,-91.6763 534.2297,-76.5216 473.1611,-69.8125"/>
<polygon fill="#191970" stroke="#191970" points="473.2164,-66.298 462.8966,-68.6961 472.4595,-73.257 473.2164,-66.298"/>
</g>
<!-- Node18&#45;&gt;Node5 -->
<g id="edge46" class="edge">
<title>Node18&#45;&gt;Node5</title>
<path fill="none" stroke="#191970" d="M785.1274,-112.4509C735.1205,-92.4482 619.2794,-46.1117 562.1193,-23.2477"/>
<polygon fill="#191970" stroke="#191970" points="563.3969,-19.9892 552.8122,-19.5249 560.7971,-26.4885 563.3969,-19.9892"/>
</g>
<!-- Node19&#45;&gt;Node2 -->
<g id="edge50" class="edge">
<title>Node19&#45;&gt;Node2</title>
<path fill="none" stroke="#191970" d="M1046.0367,-112.4341C1048.4743,-98.0998 1050.5831,-71.1201 1036,-56 1018.3593,-37.7097 852.749,-20.0962 779.5298,-13.1306"/>
<polygon fill="#191970" stroke="#191970" points="779.7095,-9.6322 769.426,-12.1813 779.0547,-16.6015 779.7095,-9.6322"/>
</g>
<!-- Node19&#45;&gt;Node3 -->
<g id="edge53" class="edge">
<title>Node19&#45;&gt;Node3</title>
<path fill="none" stroke="#191970" d="M1014.0883,-112.3733C982.2614,-102.1301 932.1848,-86.0135 900.235,-75.7308"/>
<polygon fill="#191970" stroke="#191970" points="901.1362,-72.3441 890.5447,-72.6121 898.9916,-79.0075 901.1362,-72.3441"/>
</g>
<!-- Node19&#45;&gt;Node4 -->
<g id="edge52" class="edge">
<title>Node19&#45;&gt;Node4</title>
<path fill="none" stroke="#191970" d="M1011.7936,-119.0287C907.901,-109.4439 582.0597,-79.3828 472.9822,-69.3196"/>
<polygon fill="#191970" stroke="#191970" points="473.102,-65.8159 462.8228,-68.3823 472.4589,-72.7863 473.102,-65.8159"/>
</g>
<!-- Node19&#45;&gt;Node5 -->
<g id="edge51" class="edge">
<title>Node19&#45;&gt;Node5</title>
<path fill="none" stroke="#191970" d="M1040.3927,-112.3572C1034.2365,-97.4027 1020.174,-68.9903 998,-56 961.0604,-34.3596 670.9961,-17.3552 566.4227,-11.8726"/>
<polygon fill="#191970" stroke="#191970" points="566.4905,-8.3715 556.3226,-11.3488 566.1279,-15.3621 566.4905,-8.3715"/>
</g>
</g>
</svg>
        <g id="navigator" transform="translate(0 0)" fill="#404254">
                <rect fill="#f2f5e9" fill-opacity="0.5" stroke="#606060" stroke-width=".5" x="0" y="0" width="60" height="60"/>
                <use id="zoomplus" xlink:href="#zoomPlus" x="17" y="9" onmousedown="handleZoom(evt,'in')"/>
                <use id="zoomminus" xlink:href="#zoomMin" x="42" y="9" onmousedown="handleZoom(evt,'out')"/>
                <use id="reset" xlink:href="#resetDef" x="30" y="36" onmousedown="handleReset()"/>
                <g id="arrowUp" xlink:href="#dirArrow" transform="translate(30 24)" onmousedown="handlePan(0,-1)">
                  <use xlink:href="#rim" fill="#404040">
                        <set attributeName="fill" to="#808080" begin="arrowUp.mouseover" end="arrowUp.mouseout"/>
                  </use>
                  <path fill="none" stroke="white" stroke-width="1.5" d="M0,-3.0v7 M-2.5,-0.5L0,-3.0L2.5,-0.5"/>
                </g>
                <g id="arrowRight" xlink:href="#dirArrow" transform="rotate(90) translate(36 -43)" onmousedown="handlePan(1,0)">
                  <use xlink:href="#rim" fill="#404040">
                        <set attributeName="fill" to="#808080" begin="arrowRight.mouseover" end="arrowRight.mouseout"/>
                  </use>
                  <path fill="none" stroke="white" stroke-width="1.5" d="M0,-3.0v7 M-2.5,-0.5L0,-3.0L2.5,-0.5"/>
                </g>
                <g id="arrowDown" xlink:href="#dirArrow" transform="rotate(180) translate(-30 -48)" onmousedown="handlePan(0,1)">
                  <use xlink:href="#rim" fill="#404040">
                        <set attributeName="fill" to="#808080" begin="arrowDown.mouseover" end="arrowDown.mouseout"/>
                  </use>
                  <path fill="none" stroke="white" stroke-width="1.5" d="M0,-3.0v7 M-2.5,-0.5L0,-3.0L2.5,-0.5"/>
                </g>
                <g id="arrowLeft" xlink:href="#dirArrow" transform="rotate(270) translate(-36 17)" onmousedown="handlePan(-1,0)">
                  <use xlink:href="#rim" fill="#404040">
                        <set attributeName="fill" to="#808080" begin="arrowLeft.mouseover" end="arrowLeft.mouseout"/>
                  </use>
                  <path fill="none" stroke="white" stroke-width="1.5" d="M0,-3.0v7 M-2.5,-0.5L0,-3.0L2.5,-0.5"/>
                </g>
        </g>
        <svg viewBox="0 0 15 15" width="100%" height="30px" preserveAspectRatio="xMaxYMin meet">
         <g id="arrow_out" transform="scale(0.3 0.3)">
          <a xlink:href="mpi__exchange__boundaries_8cpp__incl_org.svg" target="_base">
           <rect id="button" ry="5" rx="5" y="6" x="6" height="38" width="38"
                fill="#f2f5e9" fill-opacity="0.5" stroke="#606060" stroke-width="1.0"/>
           <path id="arrow"
             d="M 11.500037,31.436501 C 11.940474,20.09759 22.043105,11.32322 32.158766,21.979434 L 37.068811,17.246167 C 37.068811,17.246167 37.088388,32 37.088388,32 L 22.160133,31.978069 C 22.160133,31.978069 26.997745,27.140456 26.997745,27.140456 C 18.528582,18.264221 13.291696,25.230495 11.500037,31.436501 z"
             style="fill:#404040;"/>
          </a>
         </g>
        </svg>
</svg>
