<?xml version="1.0" encoding="UTF-8" standalone="no"?>
<!DOCTYPE svg PUBLIC "-//W3C//DTD SVG 1.1//EN"
 "http://www.w3.org/Graphics/SVG/1.1/DTD/svg11.dtd">
<!-- Generated by graphviz version 2.40.1 (20161225.0304)
 -->
<!-- Title: mpi_init.cpp Pages: 1 -->
<svg width="241pt" height="196pt"
 viewBox="0.00 0.00 240.65 196.00" xmlns="http://www.w3.org/2000/svg" xmlns:xlink="http://www.w3.org/1999/xlink">
<g id="graph0" class="graph" transform="scale(1 1) rotate(0) translate(4 192)">
<title>mpi_init.cpp</title>
<polygon fill="#ffffff" stroke="transparent" points="-4,4 -4,-192 236.6526,-192 236.6526,4 -4,4"/>
<!-- Node0 -->
<g id="node1" class="node">
<title>Node0</title>
<polygon fill="#bfbfbf" stroke="#000000" points="61.1526,-168.5 61.1526,-187.5 130.1526,-187.5 130.1526,-168.5 61.1526,-168.5"/>
<text text-anchor="middle" x="95.6526" y="-175.5" font-family="Helvetica,sans-Serif" font-size="10.00" fill="#000000">mpi_init.cpp</text>
</g>
<!-- Node1 -->
<g id="node2" class="node">
<title>Node1</title>
<polygon fill="#ffffff" stroke="#bfbfbf" points="12.1526,-56.5 12.1526,-75.5 53.1526,-75.5 53.1526,-56.5 12.1526,-56.5"/>
<text text-anchor="middle" x="32.6526" y="-63.5" font-family="Helvetica,sans-Serif" font-size="10.00" fill="#000000">mpi.h</text>
</g>
<!-- Node0&#45;&gt;Node1 -->
<g id="edge1" class="edge">
<title>Node0&#45;&gt;Node1</title>
<path fill="none" stroke="#191970" d="M83.518,-168.2631C73.6006,-159.6942 59.9144,-146.3714 51.6526,-132 43.3886,-117.6247 38.4963,-99.3918 35.7512,-85.7342"/>
<polygon fill="#191970" stroke="#191970" points="39.1307,-84.7498 33.9234,-75.523 32.2402,-85.9833 39.1307,-84.7498"/>
</g>
<!-- Node2 -->
<g id="node3" class="node">
<title>Node2</title>
<polygon fill="#ffffff" stroke="#bfbfbf" points="186.6526,-112.5 186.6526,-131.5 232.6526,-131.5 232.6526,-112.5 186.6526,-112.5"/>
<text text-anchor="middle" x="209.6526" y="-119.5" font-family="Helvetica,sans-Serif" font-size="10.00" fill="#000000">stdio.h</text>
</g>
<!-- Node0&#45;&gt;Node2 -->
<g id="edge2" class="edge">
<title>Node0&#45;&gt;Node2</title>
<path fill="none" stroke="#191970" d="M115.2499,-168.3733C133.3858,-159.4644 160.5661,-146.1127 181.1113,-136.0203"/>
<polygon fill="#191970" stroke="#191970" points="182.8787,-139.0517 190.3111,-131.5011 179.7923,-132.7688 182.8787,-139.0517"/>
</g>
<!-- Node3 -->
<g id="node4" class="node">
<title>Node3</title>
<polygon fill="#ffffff" stroke="#bfbfbf" points="41.6526,-.5 41.6526,-19.5 89.6526,-19.5 89.6526,-.5 41.6526,-.5"/>
<text text-anchor="middle" x="65.6526" y="-7.5" font-family="Helvetica,sans-Serif" font-size="10.00" fill="#000000">stdlib.h</text>
</g>
<!-- Node0&#45;&gt;Node3 -->
<g id="edge3" class="edge">
<title>Node0&#45;&gt;Node3</title>
<path fill="none" stroke="#191970" d="M80.7328,-168.3543C57.8349,-152.4467 15.3431,-118.2281 2.6526,-76 .0943,-67.4872 -1.3735,-63.9248 2.6526,-56 9.5136,-42.4951 22.4059,-32.0099 34.7492,-24.4839"/>
<polygon fill="#191970" stroke="#191970" points="36.553,-27.4849 43.546,-19.5258 33.1159,-21.3868 36.553,-27.4849"/>
</g>
<!-- Node4 -->
<g id="node5" class="node">
<title>Node4</title>
<g id="a_node5"><a xlink:href="$mpi__class_8h.html" xlink:title="mpi_class.h">
<polygon fill="#ffffff" stroke="#000000" points="61.1526,-112.5 61.1526,-131.5 130.1526,-131.5 130.1526,-112.5 61.1526,-112.5"/>
<text text-anchor="middle" x="95.6526" y="-119.5" font-family="Helvetica,sans-Serif" font-size="10.00" fill="#000000">mpi_class.h</text>
</a>
</g>
</g>
<!-- Node0&#45;&gt;Node4 -->
<g id="edge4" class="edge">
<title>Node0&#45;&gt;Node4</title>
<path fill="none" stroke="#191970" d="M95.6526,-168.2455C95.6526,-160.9382 95.6526,-150.6944 95.6526,-141.7046"/>
<polygon fill="#191970" stroke="#191970" points="99.1527,-141.6426 95.6526,-131.6427 92.1527,-141.6427 99.1527,-141.6426"/>
</g>
<!-- Node6 -->
<g id="node7" class="node">
<title>Node6</title>
<g id="a_node7"><a xlink:href="$config_8h.html" xlink:title="config.h">
<polygon fill="#ffffff" stroke="#000000" points="148.1526,-56.5 148.1526,-75.5 199.1526,-75.5 199.1526,-56.5 148.1526,-56.5"/>
<text text-anchor="middle" x="173.6526" y="-63.5" font-family="Helvetica,sans-Serif" font-size="10.00" fill="#000000">config.h</text>
</a>
</g>
</g>
<!-- Node0&#45;&gt;Node6 -->
<g id="edge12" class="edge">
<title>Node0&#45;&gt;Node6</title>
<path fill="none" stroke="#191970" d="M106.709,-168.1646C116.217,-159.3293 129.9001,-145.677 139.6526,-132 150.1479,-117.2813 159.3483,-98.8806 165.5225,-85.25"/>
<polygon fill="#191970" stroke="#191970" points="168.8136,-86.46 169.6254,-75.8963 162.4032,-83.6481 168.8136,-86.46"/>
</g>
<!-- Node4&#45;&gt;Node1 -->
<g id="edge11" class="edge">
<title>Node4&#45;&gt;Node1</title>
<path fill="none" stroke="#191970" d="M84.6789,-112.2455C75.4644,-104.0549 62.0994,-92.1749 51.2229,-82.5069"/>
<polygon fill="#191970" stroke="#191970" points="53.3,-79.6704 43.5006,-75.6427 48.6495,-84.9023 53.3,-79.6704"/>
</g>
<!-- Node4&#45;&gt;Node3 -->
<g id="edge5" class="edge">
<title>Node4&#45;&gt;Node3</title>
<path fill="none" stroke="#191970" d="M93.0948,-112.4509C88.1798,-94.1013 77.3287,-53.5908 70.8408,-29.3693"/>
<polygon fill="#191970" stroke="#191970" points="74.1722,-28.2788 68.2039,-19.5249 67.4105,-30.09 74.1722,-28.2788"/>
</g>
<!-- Node5 -->
<g id="node6" class="node">
<title>Node5</title>
<polygon fill="#ffffff" stroke="#bfbfbf" points="107.6526,-.5 107.6526,-19.5 161.6526,-19.5 161.6526,-.5 107.6526,-.5"/>
<text text-anchor="middle" x="134.6526" y="-7.5" font-family="Helvetica,sans-Serif" font-size="10.00" fill="#000000">iostream</text>
</g>
<!-- Node4&#45;&gt;Node5 -->
<g id="edge6" class="edge">
<title>Node4&#45;&gt;Node5</title>
<path fill="none" stroke="#191970" d="M98.9777,-112.4509C105.3961,-94.0186 119.6009,-53.2254 128.0216,-29.043"/>
<polygon fill="#191970" stroke="#191970" points="131.3527,-30.1197 131.3359,-19.5249 124.742,-27.8177 131.3527,-30.1197"/>
</g>
<!-- Node4&#45;&gt;Node6 -->
<g id="edge7" class="edge">
<title>Node4&#45;&gt;Node6</title>
<path fill="none" stroke="#191970" d="M109.2392,-112.2455C120.9831,-103.814 138.1725,-91.4729 151.8408,-81.6598"/>
<polygon fill="#191970" stroke="#191970" points="154.1397,-84.3179 160.2218,-75.6427 150.0573,-78.6316 154.1397,-84.3179"/>
</g>
<!-- Node6&#45;&gt;Node3 -->
<g id="edge9" class="edge">
<title>Node6&#45;&gt;Node3</title>
<path fill="none" stroke="#191970" d="M154.8405,-56.2455C137.8053,-47.4125 112.4951,-34.2887 93.1845,-24.2758"/>
<polygon fill="#191970" stroke="#191970" points="94.7379,-21.1388 84.2492,-19.6427 91.5156,-27.353 94.7379,-21.1388"/>
</g>
<!-- Node6&#45;&gt;Node5 -->
<g id="edge8" class="edge">
<title>Node6&#45;&gt;Node5</title>
<path fill="none" stroke="#191970" d="M166.8593,-56.2455C161.4348,-48.4564 153.6866,-37.3308 147.1493,-27.9439"/>
<polygon fill="#191970" stroke="#191970" points="149.9552,-25.8485 141.3681,-19.6427 144.2109,-29.849 149.9552,-25.8485"/>
</g>
<!-- Node7 -->
<g id="node8" class="node">
<title>Node7</title>
<polygon fill="#ffffff" stroke="#bfbfbf" points="180.1526,-.5 180.1526,-19.5 229.1526,-19.5 229.1526,-.5 180.1526,-.5"/>
<text text-anchor="middle" x="204.6526" y="-7.5" font-family="Helvetica,sans-Serif" font-size="10.00" fill="#000000">string.h</text>
</g>
<!-- Node6&#45;&gt;Node7 -->
<g id="edge10" class="edge">
<title>Node6&#45;&gt;Node7</title>
<path fill="none" stroke="#191970" d="M179.0524,-56.2455C183.2753,-48.617 189.2699,-37.7881 194.3967,-28.5267"/>
<polygon fill="#191970" stroke="#191970" points="197.5336,-30.0867 199.3147,-19.6427 191.4094,-26.6965 197.5336,-30.0867"/>
</g>
</g>
</svg>
