<?xml version="1.0" encoding="UTF-8" standalone="no"?>
<!DOCTYPE svg PUBLIC "-//W3C//DTD SVG 1.1//EN"
 "http://www.w3.org/Graphics/SVG/1.1/DTD/svg11.dtd">
<!-- Generated by graphviz version 2.40.1 (20161225.0304)
 -->
<!-- Title: mpi_class.h Pages: 1 -->
<svg width="3955pt" height="274pt"
 viewBox="0.00 0.00 3954.50 274.00" xmlns="http://www.w3.org/2000/svg" xmlns:xlink="http://www.w3.org/1999/xlink">
<g id="graph0" class="graph" transform="scale(1 1) rotate(0) translate(4 270)">
<title>mpi_class.h</title>
<polygon fill="#ffffff" stroke="transparent" points="-4,4 -4,-270 3950.5,-270 3950.5,4 -4,4"/>
<!-- Node6 -->
<g id="node1" class="node">
<title>Node6</title>
<polygon fill="#bfbfbf" stroke="#000000" points="1913.5,-246.5 1913.5,-265.5 1982.5,-265.5 1982.5,-246.5 1913.5,-246.5"/>
<text text-anchor="middle" x="1948" y="-253.5" font-family="Helvetica,sans-Serif" font-size="10.00" fill="#000000">mpi_class.h</text>
</g>
<!-- Node7 -->
<g id="node2" class="node">
<title>Node7</title>
<g id="a_node2"><a xlink:href="field_8h.html" target="_top" xlink:title="field.h">
<polygon fill="#ffffff" stroke="#000000" points="1687.5,-134.5 1687.5,-153.5 1730.5,-153.5 1730.5,-134.5 1687.5,-134.5"/>
<text text-anchor="middle" x="1709" y="-141.5" font-family="Helvetica,sans-Serif" font-size="10.00" fill="#000000">field.h</text>
</a>
</g>
</g>
<!-- Node6&#45;&gt;Node7 -->
<g id="edge1" class="edge">
<title>Node6&#45;&gt;Node7</title>
<path fill="none" stroke="#191970" d="M1903.0657,-253.8629C1841.0764,-249.8726 1734.2114,-238.8903 1710,-210 1696.7508,-194.1903 1701.6389,-167.9836 1705.7089,-153.8168"/>
<polygon fill="#191970" stroke="#191970" points="1903.1551,-257.3747 1913.3489,-254.4874 1903.5795,-250.3876 1903.1551,-257.3747"/>
</g>
<!-- Node8 -->
<g id="node3" class="node">
<title>Node8</title>
<g id="a_node3"><a xlink:href="main__explicit_8cpp.html" target="_top" xlink:title="main_explicit.cpp">
<polygon fill="#ffffff" stroke="#000000" points="144,-11.5 144,-30.5 236,-30.5 236,-11.5 144,-11.5"/>
<text text-anchor="middle" x="190" y="-18.5" font-family="Helvetica,sans-Serif" font-size="10.00" fill="#000000">main_explicit.cpp</text>
</a>
</g>
</g>
<!-- Node6&#45;&gt;Node8 -->
<g id="edge100" class="edge">
<title>Node6&#45;&gt;Node8</title>
<path fill="none" stroke="#191970" d="M1903.2918,-255.3613C1702.7467,-252.3545 884.831,-238.546 630,-210 497.8109,-195.1923 458.8398,-205.0258 336,-154 295.244,-137.0706 286.6421,-127.701 254,-98 230.343,-76.4746 207.6304,-46.1136 196.7259,-30.7383"/>
<polygon fill="#191970" stroke="#191970" points="1903.406,-258.8633 1913.457,-255.5123 1903.5101,-251.864 1903.406,-258.8633"/>
</g>
<!-- Node10 -->
<g id="node5" class="node">
<title>Node10</title>
<g id="a_node5"><a xlink:href="test__noise__vectors__and__cholesky__decomposition_8cpp.html" target="_top" xlink:title="tests/test_noise_vectors\l_and_cholesky_decomposition.cpp">
<polygon fill="#ffffff" stroke="#000000" points="254.5,-6 254.5,-36 423.5,-36 423.5,-6 254.5,-6"/>
<text text-anchor="start" x="262.5" y="-24" font-family="Helvetica,sans-Serif" font-size="10.00" fill="#000000">tests/test_noise_vectors</text>
<text text-anchor="middle" x="339" y="-13" font-family="Helvetica,sans-Serif" font-size="10.00" fill="#000000">_and_cholesky_decomposition.cpp</text>
</a>
</g>
</g>
<!-- Node6&#45;&gt;Node10 -->
<g id="edge119" class="edge">
<title>Node6&#45;&gt;Node10</title>
<path fill="none" stroke="#191970" d="M1903.3682,-255.4536C1647.229,-251.8522 371.7491,-227.4678 263,-98 243.852,-75.2039 277.5481,-51.119 305.9925,-36.0797"/>
<polygon fill="#191970" stroke="#191970" points="1903.3791,-258.954 1913.4262,-255.5916 1903.4752,-251.9546 1903.3791,-258.954"/>
</g>
<!-- Node11 -->
<g id="node6" class="node">
<title>Node11</title>
<g id="a_node6"><a xlink:href="test__position__evolution__coupling__noise_8cpp.html" target="_top" xlink:title="tests/test_position\l_evolution_coupling\l_noise.cpp">
<polygon fill="#ffffff" stroke="#000000" points="494,-.5 494,-41.5 596,-41.5 596,-.5 494,-.5"/>
<text text-anchor="start" x="502" y="-29.5" font-family="Helvetica,sans-Serif" font-size="10.00" fill="#000000">tests/test_position</text>
<text text-anchor="start" x="502" y="-18.5" font-family="Helvetica,sans-Serif" font-size="10.00" fill="#000000">_evolution_coupling</text>
<text text-anchor="middle" x="545" y="-7.5" font-family="Helvetica,sans-Serif" font-size="10.00" fill="#000000">_noise.cpp</text>
</a>
</g>
</g>
<!-- Node6&#45;&gt;Node11 -->
<g id="edge122" class="edge">
<title>Node6&#45;&gt;Node11</title>
<path fill="none" stroke="#191970" d="M1903.1024,-254.8473C1723.881,-250.1138 1064.9826,-231.4071 974,-210 819.1183,-173.5583 650.6036,-82.5518 579.6044,-41.5723"/>
<polygon fill="#191970" stroke="#191970" points="1903.1451,-258.3495 1913.2336,-255.1134 1903.329,-251.3519 1903.1451,-258.3495"/>
</g>
<!-- Node12 -->
<g id="node7" class="node">
<title>Node12</title>
<g id="a_node7"><a xlink:href="mpi__fftw__class_8h.html" target="_top" xlink:title="mpi_fftw_class.h">
<polygon fill="#ffffff" stroke="#000000" points="1807.5,-78.5 1807.5,-97.5 1898.5,-97.5 1898.5,-78.5 1807.5,-78.5"/>
<text text-anchor="middle" x="1853" y="-85.5" font-family="Helvetica,sans-Serif" font-size="10.00" fill="#000000">mpi_fftw_class.h</text>
</a>
</g>
</g>
<!-- Node6&#45;&gt;Node12 -->
<g id="edge99" class="edge">
<title>Node6&#45;&gt;Node12</title>
<path fill="none" stroke="#191970" d="M1937.6214,-237.6463C1917.5398,-202.1336 1873.9879,-125.1154 1858.5574,-97.8279"/>
<polygon fill="#191970" stroke="#191970" points="1934.6512,-239.5044 1942.6202,-246.4862 1940.7445,-236.0587 1934.6512,-239.5044"/>
</g>
<!-- Node13 -->
<g id="node8" class="node">
<title>Node13</title>
<g id="a_node8"><a xlink:href="test__accumulation_8cpp.html" target="_top" xlink:title="tests/test_accumulation.cpp">
<polygon fill="#ffffff" stroke="#000000" points="663,-11.5 663,-30.5 803,-30.5 803,-11.5 663,-11.5"/>
<text text-anchor="middle" x="733" y="-18.5" font-family="Helvetica,sans-Serif" font-size="10.00" fill="#000000">tests/test_accumulation.cpp</text>
</a>
</g>
</g>
<!-- Node6&#45;&gt;Node13 -->
<g id="edge105" class="edge">
<title>Node6&#45;&gt;Node13</title>
<path fill="none" stroke="#191970" d="M1903.4701,-255.1238C1730.7931,-251.5422 1110.8406,-236.9139 1027,-210 902.4951,-170.0324 779.271,-63.4244 743.3983,-30.6933"/>
<polygon fill="#191970" stroke="#191970" points="1903.4145,-258.6233 1913.4843,-255.3294 1903.5583,-251.6247 1903.4145,-258.6233"/>
</g>
<!-- Node14 -->
<g id="node9" class="node">
<title>Node14</title>
<g id="a_node9"><a xlink:href="test__exponentiate_8cpp.html" target="_top" xlink:title="tests/test_exponentiate.cpp">
<polygon fill="#ffffff" stroke="#000000" points="821.5,-11.5 821.5,-30.5 958.5,-30.5 958.5,-11.5 821.5,-11.5"/>
<text text-anchor="middle" x="890" y="-18.5" font-family="Helvetica,sans-Serif" font-size="10.00" fill="#000000">tests/test_exponentiate.cpp</text>
</a>
</g>
</g>
<!-- Node6&#45;&gt;Node14 -->
<g id="edge106" class="edge">
<title>Node6&#45;&gt;Node14</title>
<path fill="none" stroke="#191970" d="M1903.0944,-255.3029C1735.1375,-252.4693 1149.5815,-240.4785 1072,-210 999.7561,-181.6185 988.9475,-156.558 938,-98 918.9748,-76.1328 902.5014,-45.9214 894.7401,-30.6572"/>
<polygon fill="#191970" stroke="#191970" points="1903.2585,-258.8061 1913.3152,-255.4727 1903.3748,-251.807 1903.2585,-258.8061"/>
</g>
<!-- Node15 -->
<g id="node10" class="node">
<title>Node15</title>
<g id="a_node10"><a xlink:href="test__hermitian_8cpp.html" target="_top" xlink:title="tests/test_hermitian.cpp">
<polygon fill="#ffffff" stroke="#000000" points="1148,-11.5 1148,-30.5 1270,-30.5 1270,-11.5 1148,-11.5"/>
<text text-anchor="middle" x="1209" y="-18.5" font-family="Helvetica,sans-Serif" font-size="10.00" fill="#000000">tests/test_hermitian.cpp</text>
</a>
</g>
</g>
<!-- Node6&#45;&gt;Node15 -->
<g id="edge107" class="edge">
<title>Node6&#45;&gt;Node15</title>
<path fill="none" stroke="#191970" d="M1903.3444,-254.7589C1742.7833,-250.124 1200.3469,-232.9128 1126,-210 1079.8917,-195.79 1065.7543,-189.4268 1033,-154 1008.5625,-127.5687 983.2388,-106.675 1005,-78 1022.3396,-55.1514 1094.2995,-38.9833 1147.8723,-29.8383"/>
<polygon fill="#191970" stroke="#191970" points="1903.2628,-258.2579 1913.359,-255.046 1903.4634,-251.2608 1903.2628,-258.2579"/>
</g>
<!-- Node16 -->
<g id="node11" class="node">
<title>Node16</title>
<g id="a_node11"><a xlink:href="test__initial__condition_8cpp.html" target="_top" xlink:title="tests/test_initial\l_condition.cpp">
<polygon fill="#ffffff" stroke="#000000" points="1303,-6 1303,-36 1389,-36 1389,-6 1303,-6"/>
<text text-anchor="start" x="1311" y="-24" font-family="Helvetica,sans-Serif" font-size="10.00" fill="#000000">tests/test_initial</text>
<text text-anchor="middle" x="1346" y="-13" font-family="Helvetica,sans-Serif" font-size="10.00" fill="#000000">_condition.cpp</text>
</a>
</g>
</g>
<!-- Node6&#45;&gt;Node16 -->
<g id="edge108" class="edge">
<title>Node6&#45;&gt;Node16</title>
<path fill="none" stroke="#191970" d="M1902.7034,-254.4934C1750.5106,-249.2569 1263.2874,-231.0166 1196,-210 1104.2549,-181.3443 1058.1904,-181.734 1011,-98 973.6292,-31.6898 956.805,-113.5863 1279,-42 1286.7348,-40.2814 1294.8612,-38.0818 1302.6816,-35.7561"/>
<polygon fill="#191970" stroke="#191970" points="1902.9581,-258.0041 1913.0719,-254.8478 1903.1973,-251.0081 1902.9581,-258.0041"/>
</g>
<!-- Node17 -->
<g id="node12" class="node">
<title>Node17</title>
<g id="a_node12"><a xlink:href="test__initial__condition__fftw1d_8cpp.html" target="_top" xlink:title="tests/test_initial\l_condition_fftw1d.cpp">
<polygon fill="#ffffff" stroke="#000000" points="1407,-6 1407,-36 1519,-36 1519,-6 1407,-6"/>
<text text-anchor="start" x="1415" y="-24" font-family="Helvetica,sans-Serif" font-size="10.00" fill="#000000">tests/test_initial</text>
<text text-anchor="middle" x="1463" y="-13" font-family="Helvetica,sans-Serif" font-size="10.00" fill="#000000">_condition_fftw1d.cpp</text>
</a>
</g>
</g>
<!-- Node6&#45;&gt;Node17 -->
<g id="edge109" class="edge">
<title>Node6&#45;&gt;Node17</title>
<path fill="none" stroke="#191970" d="M1903.3111,-251.758C1725.8963,-234.4748 1078.0679,-167.0016 1020,-98 965.3234,-33.0282 1314.8392,-59.18 1398,-42 1405.549,-40.4405 1413.4549,-38.3191 1421.0499,-36.0216"/>
<polygon fill="#191970" stroke="#191970" points="1903.0541,-255.2494 1913.3452,-252.7307 1903.7296,-248.2821 1903.0541,-255.2494"/>
</g>
<!-- Node18 -->
<g id="node13" class="node">
<title>Node18</title>
<g id="a_node13"><a xlink:href="test__momentum__coupling_8cpp.html" target="_top" xlink:title="tests/test_momentum\l_coupling.cpp">
<polygon fill="#ffffff" stroke="#000000" points="1563,-6 1563,-36 1675,-36 1675,-6 1563,-6"/>
<text text-anchor="start" x="1571" y="-24" font-family="Helvetica,sans-Serif" font-size="10.00" fill="#000000">tests/test_momentum</text>
<text text-anchor="middle" x="1619" y="-13" font-family="Helvetica,sans-Serif" font-size="10.00" fill="#000000">_coupling.cpp</text>
</a>
</g>
</g>
<!-- Node6&#45;&gt;Node18 -->
<g id="edge110" class="edge">
<title>Node6&#45;&gt;Node18</title>
<path fill="none" stroke="#191970" d="M1903.1318,-251.4773C1840.8627,-244.5756 1732.0539,-230.0693 1698,-210 1647.2247,-180.076 1642.2485,-154.9303 1627,-98 1621.3668,-76.9685 1619.6595,-51.7202 1619.1652,-36.0141"/>
<polygon fill="#191970" stroke="#191970" points="1903.1285,-254.9975 1913.4481,-252.5984 1903.8848,-248.0385 1903.1285,-254.9975"/>
</g>
<!-- Node19 -->
<g id="node14" class="node">
<title>Node19</title>
<g id="a_node14"><a xlink:href="test__momentum__coupling__fft_8cpp.html" target="_top" xlink:title="tests/test_momentum\l_coupling_fft.cpp">
<polygon fill="#ffffff" stroke="#000000" points="1693,-6 1693,-36 1805,-36 1805,-6 1693,-6"/>
<text text-anchor="start" x="1701" y="-24" font-family="Helvetica,sans-Serif" font-size="10.00" fill="#000000">tests/test_momentum</text>
<text text-anchor="middle" x="1749" y="-13" font-family="Helvetica,sans-Serif" font-size="10.00" fill="#000000">_coupling_fft.cpp</text>
</a>
</g>
</g>
<!-- Node6&#45;&gt;Node19 -->
<g id="edge111" class="edge">
<title>Node6&#45;&gt;Node19</title>
<path fill="none" stroke="#191970" d="M1930.181,-239.1887C1901.0693,-211.2835 1842.2257,-153.0105 1799,-98 1782.9478,-77.5714 1767.0665,-51.9407 1757.6462,-36.0144"/>
<polygon fill="#191970" stroke="#191970" points="1927.912,-241.8611 1937.5659,-246.2262 1932.7411,-236.7936 1927.912,-241.8611"/>
</g>
<!-- Node20 -->
<g id="node15" class="node">
<title>Node20</title>
<g id="a_node15"><a xlink:href="test__momentum__evolution_8cpp.html" target="_top" xlink:title="tests/test_momentum\l_evolution.cpp">
<polygon fill="#ffffff" stroke="#000000" points="1871,-6 1871,-36 1983,-36 1983,-6 1871,-6"/>
<text text-anchor="start" x="1879" y="-24" font-family="Helvetica,sans-Serif" font-size="10.00" fill="#000000">tests/test_momentum</text>
<text text-anchor="middle" x="1927" y="-13" font-family="Helvetica,sans-Serif" font-size="10.00" fill="#000000">_evolution.cpp</text>
</a>
</g>
</g>
<!-- Node6&#45;&gt;Node20 -->
<g id="edge112" class="edge">
<title>Node6&#45;&gt;Node20</title>
<path fill="none" stroke="#191970" d="M1992.7597,-247.2215C2029.2608,-239.0464 2076.5828,-225.769 2088,-210 2093.2129,-202.8001 2088.5913,-198.8692 2088,-190 2084.6593,-139.889 2104.0241,-117.494 2073,-78 2066.3815,-69.5746 2012.6439,-49.9411 1972.271,-36.0799"/>
<polygon fill="#191970" stroke="#191970" points="1991.818,-243.8444 1982.7903,-249.3898 1993.3058,-250.6845 1991.818,-243.8444"/>
</g>
<!-- Node21 -->
<g id="node16" class="node">
<title>Node21</title>
<g id="a_node16"><a xlink:href="test__momentum__evolution__coupling_8cpp.html" target="_top" xlink:title="tests/test_momentum\l_evolution_coupling.cpp">
<polygon fill="#ffffff" stroke="#000000" points="2003.5,-6 2003.5,-36 2124.5,-36 2124.5,-6 2003.5,-6"/>
<text text-anchor="start" x="2011.5" y="-24" font-family="Helvetica,sans-Serif" font-size="10.00" fill="#000000">tests/test_momentum</text>
<text text-anchor="middle" x="2064" y="-13" font-family="Helvetica,sans-Serif" font-size="10.00" fill="#000000">_evolution_coupling.cpp</text>
</a>
</g>
</g>
<!-- Node6&#45;&gt;Node21 -->
<g id="edge113" class="edge">
<title>Node6&#45;&gt;Node21</title>
<path fill="none" stroke="#191970" d="M1992.8429,-248.7655C2033.7307,-241.1457 2089.7281,-227.7827 2103,-210 2143.1786,-156.1653 2096.4983,-70.7237 2074.3696,-36.207"/>
<polygon fill="#191970" stroke="#191970" points="1992.027,-245.3561 1982.8085,-250.5782 1993.2714,-252.2446 1992.027,-245.3561"/>
</g>
<!-- Node22 -->
<g id="node17" class="node">
<title>Node22</title>
<g id="a_node17"><a xlink:href="test__momentum__evolution__coupling2_8cpp.html" target="_top" xlink:title="tests/test_momentum\l_evolution_coupling2.cpp">
<polygon fill="#ffffff" stroke="#000000" points="2143,-6 2143,-36 2269,-36 2269,-6 2143,-6"/>
<text text-anchor="start" x="2151" y="-24" font-family="Helvetica,sans-Serif" font-size="10.00" fill="#000000">tests/test_momentum</text>
<text text-anchor="middle" x="2206" y="-13" font-family="Helvetica,sans-Serif" font-size="10.00" fill="#000000">_evolution_coupling2.cpp</text>
</a>
</g>
</g>
<!-- Node6&#45;&gt;Node22 -->
<g id="edge114" class="edge">
<title>Node6&#45;&gt;Node22</title>
<path fill="none" stroke="#191970" d="M1992.6811,-248.7089C2037.5192,-240.6146 2102.6353,-226.494 2122,-210 2177.3543,-162.8516 2197.6956,-72.035 2203.7801,-36.1358"/>
<polygon fill="#191970" stroke="#191970" points="1991.8421,-245.3028 1982.6034,-250.489 1993.0598,-252.1961 1991.8421,-245.3028"/>
</g>
<!-- Node23 -->
<g id="node18" class="node">
<title>Node23</title>
<g id="a_node18"><a xlink:href="test__momentum__evolution__coupling__lambda_8cpp.html" target="_top" xlink:title="tests/test_momentum\l_evolution_coupling\l_lambda.cpp">
<polygon fill="#ffffff" stroke="#000000" points="2289,-.5 2289,-41.5 2401,-41.5 2401,-.5 2289,-.5"/>
<text text-anchor="start" x="2297" y="-29.5" font-family="Helvetica,sans-Serif" font-size="10.00" fill="#000000">tests/test_momentum</text>
<text text-anchor="start" x="2297" y="-18.5" font-family="Helvetica,sans-Serif" font-size="10.00" fill="#000000">_evolution_coupling</text>
<text text-anchor="middle" x="2345" y="-7.5" font-family="Helvetica,sans-Serif" font-size="10.00" fill="#000000">_lambda.cpp</text>
</a>
</g>
</g>
<!-- Node6&#45;&gt;Node23 -->
<g id="edge115" class="edge">
<title>Node6&#45;&gt;Node23</title>
<path fill="none" stroke="#191970" d="M1992.7668,-252.2828C2034.3077,-247.3196 2096.8047,-235.909 2145,-210 2226.2114,-166.3421 2298.6462,-81.0893 2329.3793,-41.773"/>
<polygon fill="#191970" stroke="#191970" points="1992.2277,-248.8212 1982.6785,-253.4106 1993.0054,-255.7778 1992.2277,-248.8212"/>
</g>
<!-- Node24 -->
<g id="node19" class="node">
<title>Node24</title>
<g id="a_node19"><a xlink:href="test__momentum__evolution__coupling__lambda__noise_8cpp.html" target="_top" xlink:title="tests/test_momentum\l_evolution_coupling\l_lambda_noise.cpp">
<polygon fill="#ffffff" stroke="#000000" points="2441,-.5 2441,-41.5 2553,-41.5 2553,-.5 2441,-.5"/>
<text text-anchor="start" x="2449" y="-29.5" font-family="Helvetica,sans-Serif" font-size="10.00" fill="#000000">tests/test_momentum</text>
<text text-anchor="start" x="2449" y="-18.5" font-family="Helvetica,sans-Serif" font-size="10.00" fill="#000000">_evolution_coupling</text>
<text text-anchor="middle" x="2497" y="-7.5" font-family="Helvetica,sans-Serif" font-size="10.00" fill="#000000">_lambda_noise.cpp</text>
</a>
</g>
</g>
<!-- Node6&#45;&gt;Node24 -->
<g id="edge116" class="edge">
<title>Node6&#45;&gt;Node24</title>
<path fill="none" stroke="#191970" d="M1992.7298,-251.2909C2039.2173,-245.3937 2113.4975,-233.1269 2174,-210 2291.1285,-165.228 2415.2342,-80.541 2469.2239,-41.5706"/>
<polygon fill="#191970" stroke="#191970" points="1992.1777,-247.8322 1982.6772,-252.5215 1993.0284,-254.7804 1992.1777,-247.8322"/>
</g>
<!-- Node25 -->
<g id="node20" class="node">
<title>Node25</title>
<g id="a_node20"><a xlink:href="test__multiplication_8cpp.html" target="_top" xlink:title="tests/test_multiplication.cpp">
<polygon fill="#ffffff" stroke="#000000" points="2576.5,-11.5 2576.5,-30.5 2715.5,-30.5 2715.5,-11.5 2576.5,-11.5"/>
<text text-anchor="middle" x="2646" y="-18.5" font-family="Helvetica,sans-Serif" font-size="10.00" fill="#000000">tests/test_multiplication.cpp</text>
</a>
</g>
</g>
<!-- Node6&#45;&gt;Node25 -->
<g id="edge117" class="edge">
<title>Node6&#45;&gt;Node25</title>
<path fill="none" stroke="#191970" d="M1992.7172,-251.4463C2045.6531,-245.3116 2136.0797,-232.4808 2211,-210 2379.7756,-159.3567 2570.3538,-61.3111 2628.3444,-30.503"/>
<polygon fill="#191970" stroke="#191970" points="1992.1892,-247.9836 1982.6457,-252.5849 1992.9756,-254.9393 1992.1892,-247.9836"/>
</g>
<!-- Node26 -->
<g id="node21" class="node">
<title>Node26</title>
<g id="a_node21"><a xlink:href="test__noise__vectors_8cpp.html" target="_top" xlink:title="tests/test_noise_vectors.cpp">
<polygon fill="#ffffff" stroke="#000000" points="2733.5,-11.5 2733.5,-30.5 2876.5,-30.5 2876.5,-11.5 2733.5,-11.5"/>
<text text-anchor="middle" x="2805" y="-18.5" font-family="Helvetica,sans-Serif" font-size="10.00" fill="#000000">tests/test_noise_vectors.cpp</text>
</a>
</g>
</g>
<!-- Node6&#45;&gt;Node26 -->
<g id="edge118" class="edge">
<title>Node6&#45;&gt;Node26</title>
<path fill="none" stroke="#191970" d="M1992.7978,-251.76C2052.5274,-245.5317 2161.2629,-232.181 2252,-210 2462.6662,-158.502 2707.0657,-61.2384 2781.9985,-30.5366"/>
<polygon fill="#191970" stroke="#191970" points="1992.1753,-248.3053 1982.5836,-252.8052 1992.888,-255.2689 1992.1753,-248.3053"/>
</g>
<!-- Node27 -->
<g id="node22" class="node">
<title>Node27</title>
<g id="a_node22"><a xlink:href="test__position__evolution_8cpp.html" target="_top" xlink:title="tests/test_position\l_evolution.cpp">
<polygon fill="#ffffff" stroke="#000000" points="2904.5,-6 2904.5,-36 3001.5,-36 3001.5,-6 2904.5,-6"/>
<text text-anchor="start" x="2912.5" y="-24" font-family="Helvetica,sans-Serif" font-size="10.00" fill="#000000">tests/test_position</text>
<text text-anchor="middle" x="2953" y="-13" font-family="Helvetica,sans-Serif" font-size="10.00" fill="#000000">_evolution.cpp</text>
</a>
</g>
</g>
<!-- Node6&#45;&gt;Node27 -->
<g id="edge120" class="edge">
<title>Node6&#45;&gt;Node27</title>
<path fill="none" stroke="#191970" d="M1993.0038,-252.2866C2060.2894,-246.2472 2190.8794,-232.6399 2300,-210 2533.7203,-161.5087 2805.7219,-71.6709 2909.638,-36.0837"/>
<polygon fill="#191970" stroke="#191970" points="1992.4147,-248.8249 1982.7614,-253.1911 1993.0305,-255.7977 1992.4147,-248.8249"/>
</g>
<!-- Node28 -->
<g id="node23" class="node">
<title>Node28</title>
<g id="a_node23"><a xlink:href="test__position__evolution__coupling_8cpp.html" target="_top" xlink:title="tests/test_position\l_evolution_coupling.cpp">
<polygon fill="#ffffff" stroke="#000000" points="3043.5,-6 3043.5,-36 3164.5,-36 3164.5,-6 3043.5,-6"/>
<text text-anchor="start" x="3051.5" y="-24" font-family="Helvetica,sans-Serif" font-size="10.00" fill="#000000">tests/test_position</text>
<text text-anchor="middle" x="3104" y="-13" font-family="Helvetica,sans-Serif" font-size="10.00" fill="#000000">_evolution_coupling.cpp</text>
</a>
</g>
</g>
<!-- Node6&#45;&gt;Node28 -->
<g id="edge121" class="edge">
<title>Node6&#45;&gt;Node28</title>
<path fill="none" stroke="#191970" d="M1992.7682,-252.9003C2067.8817,-247.2597 2223.8506,-233.6617 2354,-210 2621.1995,-161.4221 2934.3242,-71.6345 3054.033,-36.0722"/>
<polygon fill="#191970" stroke="#191970" points="1992.4317,-249.4155 1982.717,-253.6436 1992.948,-256.3965 1992.4317,-249.4155"/>
</g>
<!-- Node29 -->
<g id="node24" class="node">
<title>Node29</title>
<g id="a_node24"><a xlink:href="test__position__evolution__hatta__coupling_8cpp.html" target="_top" xlink:title="tests/test_position\l_evolution_hatta_coupling.cpp">
<polygon fill="#ffffff" stroke="#000000" points="3183,-6 3183,-36 3331,-36 3331,-6 3183,-6"/>
<text text-anchor="start" x="3191" y="-24" font-family="Helvetica,sans-Serif" font-size="10.00" fill="#000000">tests/test_position</text>
<text text-anchor="middle" x="3257" y="-13" font-family="Helvetica,sans-Serif" font-size="10.00" fill="#000000">_evolution_hatta_coupling.cpp</text>
</a>
</g>
</g>
<!-- Node6&#45;&gt;Node29 -->
<g id="edge123" class="edge">
<title>Node6&#45;&gt;Node29</title>
<path fill="none" stroke="#191970" d="M1992.7008,-253.3452C2075.8394,-248.0163 2259.7256,-234.3899 2413,-210 2713.2894,-162.2163 3066.6072,-71.7695 3201.168,-36.0525"/>
<polygon fill="#191970" stroke="#191970" points="1992.3559,-249.8599 1982.5965,-253.9836 1992.7973,-256.846 1992.3559,-249.8599"/>
</g>
<!-- Node30 -->
<g id="node25" class="node">
<title>Node30</title>
<g id="a_node25"><a xlink:href="test__symmetrize__average_8cpp.html" target="_top" xlink:title="tests/test_symmetrize\l_average.cpp">
<polygon fill="#ffffff" stroke="#000000" points="3349,-6 3349,-36 3463,-36 3463,-6 3349,-6"/>
<text text-anchor="start" x="3357" y="-24" font-family="Helvetica,sans-Serif" font-size="10.00" fill="#000000">tests/test_symmetrize</text>
<text text-anchor="middle" x="3406" y="-13" font-family="Helvetica,sans-Serif" font-size="10.00" fill="#000000">_average.cpp</text>
</a>
</g>
</g>
<!-- Node6&#45;&gt;Node30 -->
<g id="edge124" class="edge">
<title>Node6&#45;&gt;Node30</title>
<path fill="none" stroke="#191970" d="M1992.7273,-253.7942C2084.9461,-248.8875 2302.7665,-235.4445 2484,-210 2585.7382,-195.7163 3164.761,-86.9393 3340,-42 3346.872,-40.2377 3354.0821,-38.1723 3361.1094,-36.0371"/>
<polygon fill="#191970" stroke="#191970" points="1992.4369,-250.3046 1982.634,-254.3237 1992.8037,-257.295 1992.4369,-250.3046"/>
</g>
<!-- Node31 -->
<g id="node26" class="node">
<title>Node31</title>
<g id="a_node26"><a xlink:href="test__symmetrize__average2_8cpp.html" target="_top" xlink:title="tests/test_symmetrize\l_average2.cpp">
<polygon fill="#ffffff" stroke="#000000" points="0,-6 0,-36 114,-36 114,-6 0,-6"/>
<text text-anchor="start" x="8" y="-24" font-family="Helvetica,sans-Serif" font-size="10.00" fill="#000000">tests/test_symmetrize</text>
<text text-anchor="middle" x="57" y="-13" font-family="Helvetica,sans-Serif" font-size="10.00" fill="#000000">_average2.cpp</text>
</a>
</g>
</g>
<!-- Node6&#45;&gt;Node31 -->
<g id="edge125" class="edge">
<title>Node6&#45;&gt;Node31</title>
<path fill="none" stroke="#191970" d="M1903.2636,-255.2441C1669.3662,-251.2097 592.2269,-231.5889 445,-210 253.8544,-181.971 142.6982,-251.1973 25,-98 10.4476,-79.0585 27.9476,-52.5464 42.2279,-36.0914"/>
<polygon fill="#191970" stroke="#191970" points="1903.3855,-258.7466 1913.4442,-255.419 1903.5058,-251.7476 1903.3855,-258.7466"/>
</g>
<!-- Node32 -->
<g id="node27" class="node">
<title>Node32</title>
<g id="a_node27"><a xlink:href="mpi__exchange__boundaries_8cpp.html" target="_top" xlink:title="mpi_exchange_boundaries.cpp">
<polygon fill="#ffffff" stroke="#000000" points="1029.5,-78.5 1029.5,-97.5 1180.5,-97.5 1180.5,-78.5 1029.5,-78.5"/>
<text text-anchor="middle" x="1105" y="-85.5" font-family="Helvetica,sans-Serif" font-size="10.00" fill="#000000">mpi_exchange_boundaries.cpp</text>
</a>
</g>
</g>
<!-- Node6&#45;&gt;Node32 -->
<g id="edge101" class="edge">
<title>Node6&#45;&gt;Node32</title>
<path fill="none" stroke="#191970" d="M1903.2475,-254.8939C1756.2606,-251.0168 1294.1976,-236.8042 1233,-210 1175.3535,-184.7512 1127.9514,-121.7074 1111.3525,-97.5904"/>
<polygon fill="#191970" stroke="#191970" points="1903.1884,-258.3934 1913.2762,-255.1552 1903.3708,-251.3958 1903.1884,-258.3934"/>
</g>
<!-- Node33 -->
<g id="node28" class="node">
<title>Node33</title>
<g id="a_node28"><a xlink:href="MV__class_8h.html" target="_top" xlink:title="MV_class.h">
<polygon fill="#ffffff" stroke="#000000" points="1719,-190.5 1719,-209.5 1787,-209.5 1787,-190.5 1719,-190.5"/>
<text text-anchor="middle" x="1753" y="-197.5" font-family="Helvetica,sans-Serif" font-size="10.00" fill="#000000">MV_class.h</text>
</a>
</g>
</g>
<!-- Node6&#45;&gt;Node33 -->
<g id="edge52" class="edge">
<title>Node6&#45;&gt;Node33</title>
<path fill="none" stroke="#191970" d="M1904.7804,-243.5882C1868.9538,-233.2996 1818.7759,-218.8895 1786.0843,-209.5011"/>
<polygon fill="#191970" stroke="#191970" points="1903.9007,-246.977 1914.4783,-246.3733 1905.8329,-240.2489 1903.9007,-246.977"/>
</g>
<!-- Node34 -->
<g id="node29" class="node">
<title>Node34</title>
<g id="a_node29"><a xlink:href="rand__class_8h.html" target="_top" xlink:title="rand_class.h">
<polygon fill="#ffffff" stroke="#000000" points="2007,-190.5 2007,-209.5 2079,-209.5 2079,-190.5 2007,-190.5"/>
<text text-anchor="middle" x="2043" y="-197.5" font-family="Helvetica,sans-Serif" font-size="10.00" fill="#000000">rand_class.h</text>
</a>
</g>
</g>
<!-- Node6&#45;&gt;Node34 -->
<g id="edge76" class="edge">
<title>Node6&#45;&gt;Node34</title>
<path fill="none" stroke="#191970" d="M1973.3676,-241.0465C1990.271,-231.0824 2011.9904,-218.2794 2026.6419,-209.6427"/>
<polygon fill="#191970" stroke="#191970" points="1971.3851,-238.1522 1964.5477,-246.2455 1974.9398,-244.1825 1971.3851,-238.1522"/>
</g>
<!-- Node35 -->
<g id="node30" class="node">
<title>Node35</title>
<g id="a_node30"><a xlink:href="mpi__exchange__grid_8cpp.html" target="_top" xlink:title="mpi_exchange_grid.cpp">
<polygon fill="#ffffff" stroke="#000000" points="3589.5,-190.5 3589.5,-209.5 3708.5,-209.5 3708.5,-190.5 3589.5,-190.5"/>
<text text-anchor="middle" x="3649" y="-197.5" font-family="Helvetica,sans-Serif" font-size="10.00" fill="#000000">mpi_exchange_grid.cpp</text>
</a>
</g>
</g>
<!-- Node6&#45;&gt;Node35 -->
<g id="edge102" class="edge">
<title>Node6&#45;&gt;Node35</title>
<path fill="none" stroke="#191970" d="M1992.7903,-255.3771C2220.8799,-252.1068 3254.9562,-236.0749 3575,-210 3579.6516,-209.621 3584.4584,-209.1509 3589.2846,-208.6227"/>
<polygon fill="#191970" stroke="#191970" points="1992.4932,-251.8809 1982.5442,-255.5232 1992.5931,-258.8802 1992.4932,-251.8809"/>
</g>
<!-- Node36 -->
<g id="node31" class="node">
<title>Node36</title>
<g id="a_node31"><a xlink:href="mpi__exchange__groups_8cpp.html" target="_top" xlink:title="mpi_exchange_groups.cpp">
<polygon fill="#ffffff" stroke="#000000" points="3726.5,-190.5 3726.5,-209.5 3859.5,-209.5 3859.5,-190.5 3726.5,-190.5"/>
<text text-anchor="middle" x="3793" y="-197.5" font-family="Helvetica,sans-Serif" font-size="10.00" fill="#000000">mpi_exchange_groups.cpp</text>
</a>
</g>
</g>
<!-- Node6&#45;&gt;Node36 -->
<g id="edge103" class="edge">
<title>Node6&#45;&gt;Node36</title>
<path fill="none" stroke="#191970" d="M1992.8347,-255.4835C2232.8472,-252.6199 3367.9366,-237.8068 3718,-210 3720.7499,-209.7816 3723.5534,-209.5317 3726.383,-209.257"/>
<polygon fill="#191970" stroke="#191970" points="1992.6872,-251.9849 1982.7294,-255.6033 1992.7702,-258.9844 1992.6872,-251.9849"/>
</g>
<!-- Node37 -->
<g id="node32" class="node">
<title>Node37</title>
<g id="a_node32"><a xlink:href="mpi__init_8cpp.html" target="_top" xlink:title="mpi_init.cpp">
<polygon fill="#ffffff" stroke="#000000" points="3877.5,-190.5 3877.5,-209.5 3946.5,-209.5 3946.5,-190.5 3877.5,-190.5"/>
<text text-anchor="middle" x="3912" y="-197.5" font-family="Helvetica,sans-Serif" font-size="10.00" fill="#000000">mpi_init.cpp</text>
</a>
</g>
</g>
<!-- Node6&#45;&gt;Node37 -->
<g id="edge104" class="edge">
<title>Node6&#45;&gt;Node37</title>
<path fill="none" stroke="#191970" d="M1992.9061,-255.4755C2264.0635,-252.2354 3677.6412,-234.2822 3869,-210 3871.7373,-209.6527 3874.555,-209.2053 3877.3765,-208.6928"/>
<polygon fill="#191970" stroke="#191970" points="1992.6133,-251.9787 1982.6557,-255.5975 1992.6967,-258.9782 1992.6133,-251.9787"/>
</g>
<!-- Node7&#45;&gt;Node8 -->
<g id="edge2" class="edge">
<title>Node7&#45;&gt;Node8</title>
<path fill="none" stroke="#191970" d="M1676.9688,-143.4543C1473.8545,-139.9309 371.4301,-119.852 304,-98 260.6046,-83.9369 218.5045,-47.9961 199.9232,-30.6515"/>
<polygon fill="#191970" stroke="#191970" points="1677.1957,-146.9586 1687.2547,-143.6318 1677.3166,-139.9596 1677.1957,-146.9586"/>
</g>
<!-- Node9 -->
<g id="node4" class="node">
<title>Node9</title>
<g id="a_node4"><a xlink:href="matrix_8h.html" target="_top" xlink:title="matrix.h">
<polygon fill="#ffffff" stroke="#000000" points="313,-78.5 313,-97.5 365,-97.5 365,-78.5 313,-78.5"/>
<text text-anchor="middle" x="339" y="-85.5" font-family="Helvetica,sans-Serif" font-size="10.00" fill="#000000">matrix.h</text>
</a>
</g>
</g>
<!-- Node7&#45;&gt;Node9 -->
<g id="edge3" class="edge">
<title>Node7&#45;&gt;Node9</title>
<path fill="none" stroke="#191970" d="M1677.0868,-142.9063C1539.8042,-138.1692 985.8673,-118.7257 531,-98 471.6478,-95.2957 402.008,-91.5174 365.0812,-89.4662"/>
<polygon fill="#191970" stroke="#191970" points="1677.1986,-146.4121 1687.3132,-143.2585 1677.4397,-139.4163 1677.1986,-146.4121"/>
</g>
<!-- Node7&#45;&gt;Node10 -->
<g id="edge45" class="edge">
<title>Node7&#45;&gt;Node10</title>
<path fill="none" stroke="#191970" d="M1676.9884,-143.651C1560.3628,-142.1063 1147.3268,-134.2463 809,-98 668.8242,-82.9824 506.8858,-53.8133 414.3521,-36.0044"/>
<polygon fill="#191970" stroke="#191970" points="1677.2936,-147.155 1687.337,-143.7815 1677.382,-140.1556 1677.2936,-147.155"/>
</g>
<!-- Node7&#45;&gt;Node11 -->
<g id="edge48" class="edge">
<title>Node7&#45;&gt;Node11</title>
<path fill="none" stroke="#191970" d="M1677.454,-143.7096C1571.3884,-142.3993 1218.0767,-135.3231 929,-98 808.6303,-82.4589 669.427,-51.1545 596.1755,-33.625"/>
<polygon fill="#191970" stroke="#191970" points="1677.4548,-147.2098 1687.4945,-143.8252 1677.5354,-140.2102 1677.4548,-147.2098"/>
</g>
<!-- Node7&#45;&gt;Node12 -->
<g id="edge7" class="edge">
<title>Node7&#45;&gt;Node12</title>
<path fill="none" stroke="#191970" d="M1740.1035,-131.9042C1766.5467,-121.6207 1804.001,-107.0552 1828.3951,-97.5686"/>
<polygon fill="#191970" stroke="#191970" points="1738.6097,-128.7297 1730.5583,-135.6162 1741.1469,-135.2537 1738.6097,-128.7297"/>
</g>
<!-- Node7&#45;&gt;Node13 -->
<g id="edge31" class="edge">
<title>Node7&#45;&gt;Node13</title>
<path fill="none" stroke="#191970" d="M1677.1843,-142.7031C1559.5231,-137.7784 1149.167,-119.4274 1020,-98 923.3033,-81.9591 812.049,-47.314 761.1107,-30.5164"/>
<polygon fill="#191970" stroke="#191970" points="1677.1939,-146.2065 1687.3307,-143.1248 1677.4846,-139.2125 1677.1939,-146.2065"/>
</g>
<!-- Node7&#45;&gt;Node14 -->
<g id="edge32" class="edge">
<title>Node7&#45;&gt;Node14</title>
<path fill="none" stroke="#191970" d="M1676.9169,-139.1817C1554.8382,-120.8475 1117.8941,-55.2259 953.3147,-30.5088"/>
<polygon fill="#191970" stroke="#191970" points="1676.6848,-142.686 1687.0937,-140.71 1677.7245,-135.7636 1676.6848,-142.686"/>
</g>
<!-- Node7&#45;&gt;Node15 -->
<g id="edge33" class="edge">
<title>Node7&#45;&gt;Node15</title>
<path fill="none" stroke="#191970" d="M1677.369,-137.2577C1637.0322,-128.5782 1565.1735,-112.8423 1504,-98 1409.6098,-75.0984 1298.9665,-45.466 1243.8679,-30.5188"/>
<polygon fill="#191970" stroke="#191970" points="1676.8856,-140.7336 1687.3974,-139.4098 1678.3545,-133.8894 1676.8856,-140.7336"/>
</g>
<!-- Node7&#45;&gt;Node16 -->
<g id="edge34" class="edge">
<title>Node7&#45;&gt;Node16</title>
<path fill="none" stroke="#191970" d="M1677.5919,-134.4625C1621.2041,-117.1704 1499.2406,-78.998 1398,-42 1392.9704,-40.162 1387.7018,-38.1444 1382.529,-36.1093"/>
<polygon fill="#191970" stroke="#191970" points="1676.7514,-137.8654 1687.3379,-137.4433 1678.7988,-131.1715 1676.7514,-137.8654"/>
</g>
<!-- Node7&#45;&gt;Node17 -->
<g id="edge35" class="edge">
<title>Node7&#45;&gt;Node17</title>
<path fill="none" stroke="#191970" d="M1680.7219,-129.8609C1633.9674,-106.4837 1540.968,-59.984 1493.0644,-36.0322"/>
<polygon fill="#191970" stroke="#191970" points="1679.1872,-133.0067 1689.6968,-134.3484 1682.3178,-126.7457 1679.1872,-133.0067"/>
</g>
<!-- Node7&#45;&gt;Node18 -->
<g id="edge36" class="edge">
<title>Node7&#45;&gt;Node18</title>
<path fill="none" stroke="#191970" d="M1695.8606,-126.0429C1678.1169,-101.7931 1646.8038,-58.9985 1630.1486,-36.2365"/>
<polygon fill="#191970" stroke="#191970" points="1693.2081,-128.3449 1701.9379,-134.3484 1698.8573,-124.2113 1693.2081,-128.3449"/>
</g>
<!-- Node7&#45;&gt;Node19 -->
<g id="edge37" class="edge">
<title>Node7&#45;&gt;Node19</title>
<path fill="none" stroke="#191970" d="M1713.84,-124.1874C1717.1997,-110.9978 1721.9627,-93.3391 1727,-78 1731.6995,-63.6895 1737.9544,-47.717 1742.5933,-36.3294"/>
<polygon fill="#191970" stroke="#191970" points="1710.4001,-123.5165 1711.3727,-134.0666 1717.1915,-125.2127 1710.4001,-123.5165"/>
</g>
<!-- Node7&#45;&gt;Node20 -->
<g id="edge38" class="edge">
<title>Node7&#45;&gt;Node20</title>
<path fill="none" stroke="#191970" d="M1728.2457,-128.002C1745.9264,-113.7728 1773.2209,-92.961 1799,-78 1827.5085,-61.4549 1861.698,-46.4555 1887.5677,-36.0007"/>
<polygon fill="#191970" stroke="#191970" points="1725.9295,-125.3744 1720.3871,-134.404 1730.3507,-130.8015 1725.9295,-125.3744"/>
</g>
<!-- Node7&#45;&gt;Node21 -->
<g id="edge39" class="edge">
<title>Node7&#45;&gt;Node21</title>
<path fill="none" stroke="#191970" d="M1740.58,-139.0286C1780.3753,-132.2389 1850.519,-118.5167 1908,-98 1955.6457,-80.9938 2007.7268,-53.2777 2038.0419,-36.1471"/>
<polygon fill="#191970" stroke="#191970" points="1739.9566,-135.5842 1730.6692,-140.6827 1741.109,-142.4887 1739.9566,-135.5842"/>
</g>
<!-- Node7&#45;&gt;Node22 -->
<g id="edge40" class="edge">
<title>Node7&#45;&gt;Node22</title>
<path fill="none" stroke="#191970" d="M1740.6054,-138.862C1786.237,-131.2189 1873.1001,-115.8257 1946,-98 2021.6824,-79.494 2108.1747,-52.7341 2159.8693,-36.1268"/>
<polygon fill="#191970" stroke="#191970" points="1740.0097,-135.4129 1730.7186,-140.5045 1741.157,-142.3183 1740.0097,-135.4129"/>
</g>
<!-- Node7&#45;&gt;Node23 -->
<g id="edge41" class="edge">
<title>Node7&#45;&gt;Node23</title>
<path fill="none" stroke="#191970" d="M1740.6864,-139.957C1827.4941,-128.5303 2076.1157,-93.4518 2278,-42 2281.5437,-41.0969 2285.177,-40.117 2288.8301,-39.0908"/>
<polygon fill="#191970" stroke="#191970" points="1740.1468,-136.4976 1730.684,-141.2628 1741.053,-143.4387 1740.1468,-136.4976"/>
</g>
<!-- Node7&#45;&gt;Node24 -->
<g id="edge42" class="edge">
<title>Node7&#45;&gt;Node24</title>
<path fill="none" stroke="#191970" d="M1740.6523,-140.6915C1839.948,-130.036 2153.9269,-94.2394 2410,-42 2420.0481,-39.9502 2430.6978,-37.5615 2440.971,-35.1449"/>
<polygon fill="#191970" stroke="#191970" points="1740.2392,-137.2156 1730.6664,-141.7557 1740.981,-144.1762 1740.2392,-137.2156"/>
</g>
<!-- Node7&#45;&gt;Node25 -->
<g id="edge43" class="edge">
<title>Node7&#45;&gt;Node25</title>
<path fill="none" stroke="#191970" d="M1740.611,-141.8713C1853.1593,-133.9434 2244.5963,-103.3796 2562,-42 2578.3822,-38.832 2596.3502,-34.4632 2611.449,-30.5305"/>
<polygon fill="#191970" stroke="#191970" points="1740.3344,-138.382 1730.6017,-142.5682 1740.8206,-145.3651 1740.3344,-138.382"/>
</g>
<!-- Node7&#45;&gt;Node26 -->
<g id="edge44" class="edge">
<title>Node7&#45;&gt;Node26</title>
<path fill="none" stroke="#191970" d="M1740.7633,-142.9255C1866.6051,-138.2249 2341.975,-116.2625 2725,-42 2740.7885,-38.9388 2758.0746,-34.5367 2772.5258,-30.5528"/>
<polygon fill="#191970" stroke="#191970" points="1740.5276,-139.4317 1730.6617,-143.2934 1740.7825,-146.427 1740.5276,-139.4317"/>
</g>
<!-- Node7&#45;&gt;Node27 -->
<g id="edge46" class="edge">
<title>Node7&#45;&gt;Node27</title>
<path fill="none" stroke="#191970" d="M1740.7905,-142.7608C1843.3741,-138.604 2174.8174,-123.9384 2448,-98 2643.3726,-79.4496 2694.286,-83.9558 2886,-42 2893.5021,-40.3582 2901.3694,-38.2527 2908.9679,-36.0111"/>
<polygon fill="#191970" stroke="#191970" points="1740.3541,-139.2754 1730.5024,-143.1734 1740.6346,-146.2698 1740.3541,-139.2754"/>
</g>
<!-- Node7&#45;&gt;Node28 -->
<g id="edge47" class="edge">
<title>Node7&#45;&gt;Node28</title>
<path fill="none" stroke="#191970" d="M1740.7857,-143.1507C1853.9975,-139.9461 2248.0967,-127.2514 2572,-98 2767.8949,-80.3089 2817.2942,-76.1449 3011,-42 3021.4327,-40.161 3032.4615,-37.929 3043.1364,-35.6155"/>
<polygon fill="#191970" stroke="#191970" points="1740.6169,-139.654 1730.7184,-143.4315 1740.8121,-146.6512 1740.6169,-139.654"/>
</g>
<!-- Node7&#45;&gt;Node29 -->
<g id="edge49" class="edge">
<title>Node7&#45;&gt;Node29</title>
<path fill="none" stroke="#191970" d="M1740.8366,-143.274C1863.1388,-140.321 2314.4792,-127.9137 2685,-98 2903.0444,-80.3964 2958.8164,-81.3608 3174,-42 3183.0651,-40.3418 3192.6077,-38.2551 3201.8647,-36.0446"/>
<polygon fill="#191970" stroke="#191970" points="1740.5873,-139.7789 1730.6734,-143.5158 1740.7539,-146.7769 1740.5873,-139.7789"/>
</g>
<!-- Node7&#45;&gt;Node30 -->
<g id="edge50" class="edge">
<title>Node7&#45;&gt;Node30</title>
<path fill="none" stroke="#191970" d="M1740.8496,-143.4532C1873.3815,-141.0153 2394.1574,-129.8217 2821,-98 3052.3635,-80.7515 3112.9841,-89.8574 3340,-42 3347.5301,-40.4126 3355.4201,-38.3064 3363.0195,-36.04"/>
<polygon fill="#191970" stroke="#191970" points="1740.5386,-139.9582 1730.6035,-143.6383 1740.6651,-146.957 1740.5386,-139.9582"/>
</g>
<!-- Node7&#45;&gt;Node31 -->
<g id="edge51" class="edge">
<title>Node7&#45;&gt;Node31</title>
<path fill="none" stroke="#191970" d="M1677.2263,-143.6202C1477.8569,-141.1535 403.2168,-126.6053 260,-98 196.0538,-85.2278 125.8288,-54.5536 87.0141,-36.0059"/>
<polygon fill="#191970" stroke="#191970" points="1677.2885,-147.1211 1687.3306,-143.7441 1677.3743,-140.1216 1677.2885,-147.1211"/>
</g>
<!-- Node7&#45;&gt;Node32 -->
<g id="edge30" class="edge">
<title>Node7&#45;&gt;Node32</title>
<path fill="none" stroke="#191970" d="M1676.9919,-141.0324C1584.2983,-132.4383 1313.8131,-107.3602 1180.7328,-95.0216"/>
<polygon fill="#191970" stroke="#191970" points="1676.866,-144.5356 1687.1465,-141.9738 1677.5123,-137.5655 1676.866,-144.5356"/>
</g>
<!-- Node9&#45;&gt;Node8 -->
<g id="edge4" class="edge">
<title>Node9&#45;&gt;Node8</title>
<path fill="none" stroke="#191970" d="M308.4047,-74.2424C279.4498,-61.2224 236.7387,-42.0167 211.3085,-30.5817"/>
<polygon fill="#191970" stroke="#191970" points="307.0962,-77.4915 317.6519,-78.4005 309.967,-71.1072 307.0962,-77.4915"/>
</g>
<!-- Node9&#45;&gt;Node10 -->
<g id="edge5" class="edge">
<title>Node9&#45;&gt;Node10</title>
<path fill="none" stroke="#191970" d="M339,-68.2758C339,-57.9641 339,-45.5437 339,-36.0218"/>
<polygon fill="#191970" stroke="#191970" points="335.5001,-68.4005 339,-78.4005 342.5001,-68.4006 335.5001,-68.4005"/>
</g>
<!-- Node9&#45;&gt;Node11 -->
<g id="edge6" class="edge">
<title>Node9&#45;&gt;Node11</title>
<path fill="none" stroke="#191970" d="M374.7493,-76.3728C407.6582,-65.6694 456.8393,-49.6736 493.8926,-37.6223"/>
<polygon fill="#191970" stroke="#191970" points="373.5172,-73.093 365.09,-79.5144 375.6823,-79.7498 373.5172,-73.093"/>
</g>
<!-- Node12&#45;&gt;Node8 -->
<g id="edge8" class="edge">
<title>Node12&#45;&gt;Node8</title>
<path fill="none" stroke="#191970" d="M1797.2674,-86.9299C1522.5463,-81.5886 322.5768,-57.4566 245,-42 233.0715,-39.6233 220.3484,-34.9186 210.1469,-30.5636"/>
<polygon fill="#191970" stroke="#191970" points="1797.3356,-90.4318 1807.4016,-87.1266 1797.4715,-83.4331 1797.3356,-90.4318"/>
</g>
<!-- Node12&#45;&gt;Node10 -->
<g id="edge23" class="edge">
<title>Node12&#45;&gt;Node10</title>
<path fill="none" stroke="#191970" d="M1797.1802,-86.9381C1574.1245,-82.5686 746.2638,-65.1125 485,-42 465.1034,-40.2399 443.7775,-37.6028 423.7403,-34.7866"/>
<polygon fill="#191970" stroke="#191970" points="1797.2736,-90.4405 1807.34,-87.1363 1797.4102,-83.4419 1797.2736,-90.4405"/>
</g>
<!-- Node12&#45;&gt;Node11 -->
<g id="edge26" class="edge">
<title>Node12&#45;&gt;Node11</title>
<path fill="none" stroke="#191970" d="M1797.0817,-86.9837C1591.7781,-83.0765 879.7917,-67.9295 654,-42 634.9499,-39.8123 614.2422,-36.1528 596.0431,-32.4961"/>
<polygon fill="#191970" stroke="#191970" points="1797.2614,-90.4876 1807.3258,-87.1773 1797.3938,-83.4889 1797.2614,-90.4876"/>
</g>
<!-- Node12&#45;&gt;Node13 -->
<g id="edge9" class="edge">
<title>Node12&#45;&gt;Node13</title>
<path fill="none" stroke="#191970" d="M1797.0383,-87.1176C1609.5415,-83.9119 1004.5039,-71.4855 812,-42 795.447,-39.4646 777.3692,-34.8048 762.6891,-30.5177"/>
<polygon fill="#191970" stroke="#191970" points="1797.1614,-90.6201 1807.2191,-87.2896 1797.2797,-83.6211 1797.1614,-90.6201"/>
</g>
<!-- Node12&#45;&gt;Node14 -->
<g id="edge10" class="edge">
<title>Node12&#45;&gt;Node14</title>
<path fill="none" stroke="#191970" d="M1797.3894,-84.7932C1677.1963,-77.7796 1384.2438,-60.2398 1139,-42 1077.999,-37.4631 1008.6577,-31.5533 958.6689,-27.1593"/>
<polygon fill="#191970" stroke="#191970" points="1797.2664,-88.2919 1807.4531,-85.3794 1797.6736,-81.3037 1797.2664,-88.2919"/>
</g>
<!-- Node12&#45;&gt;Node15 -->
<g id="edge11" class="edge">
<title>Node12&#45;&gt;Node15</title>
<path fill="none" stroke="#191970" d="M1797.1411,-86.3616C1696.1261,-82.7435 1476.6126,-71.8742 1294,-42 1276.7486,-39.1778 1257.8437,-34.6534 1242.2522,-30.5257"/>
<polygon fill="#191970" stroke="#191970" points="1797.2979,-89.8691 1807.4135,-86.7191 1797.5413,-82.8734 1797.2979,-89.8691"/>
</g>
<!-- Node12&#45;&gt;Node16 -->
<g id="edge12" class="edge">
<title>Node12&#45;&gt;Node16</title>
<path fill="none" stroke="#191970" d="M1797.1315,-84.3343C1692.8273,-77.1629 1472.3131,-60.3659 1398,-42 1391.8563,-40.4816 1385.4801,-38.3805 1379.3856,-36.0904"/>
<polygon fill="#191970" stroke="#191970" points="1796.94,-87.8293 1807.1551,-85.0184 1797.4167,-80.8455 1796.94,-87.8293"/>
</g>
<!-- Node12&#45;&gt;Node17 -->
<g id="edge13" class="edge">
<title>Node12&#45;&gt;Node17</title>
<path fill="none" stroke="#191970" d="M1797.4336,-80.7073C1737.2364,-72.5144 1638.4721,-58.2215 1554,-42 1542.6947,-39.829 1530.6607,-37.2469 1519.1717,-34.6488"/>
<polygon fill="#191970" stroke="#191970" points="1797.1045,-84.1946 1807.4836,-82.0671 1798.0432,-77.2578 1797.1045,-84.1946"/>
</g>
<!-- Node12&#45;&gt;Node18 -->
<g id="edge14" class="edge">
<title>Node12&#45;&gt;Node18</title>
<path fill="none" stroke="#191970" d="M1806.2613,-75.9064C1772.239,-66.9505 1725.117,-54.2305 1684,-42 1677.7482,-40.1404 1671.1825,-38.1105 1664.7263,-36.0693"/>
<polygon fill="#191970" stroke="#191970" points="1805.3744,-79.2921 1815.9353,-78.4444 1807.1508,-72.5212 1805.3744,-79.2921"/>
</g>
<!-- Node12&#45;&gt;Node19 -->
<g id="edge15" class="edge">
<title>Node12&#45;&gt;Node19</title>
<path fill="none" stroke="#191970" d="M1829.2916,-72.7263C1812.2197,-61.7281 1789.299,-46.9618 1772.3174,-36.0218"/>
<polygon fill="#191970" stroke="#191970" points="1827.7973,-75.927 1838.0993,-78.4005 1831.5883,-70.0425 1827.7973,-75.927"/>
</g>
<!-- Node12&#45;&gt;Node20 -->
<g id="edge16" class="edge">
<title>Node12&#45;&gt;Node20</title>
<path fill="none" stroke="#191970" d="M1871.2359,-71.4892C1883.219,-60.6395 1898.7733,-46.5566 1910.4088,-36.0218"/>
<polygon fill="#191970" stroke="#191970" points="1868.6663,-69.0942 1863.6024,-78.4005 1873.3645,-74.2833 1868.6663,-69.0942"/>
</g>
<!-- Node12&#45;&gt;Node21 -->
<g id="edge17" class="edge">
<title>Node12&#45;&gt;Node21</title>
<path fill="none" stroke="#191970" d="M1893.1549,-75.2494C1928.3424,-64.0761 1979.528,-47.8229 2016.6927,-36.0218"/>
<polygon fill="#191970" stroke="#191970" points="1891.7029,-72.0382 1883.2312,-78.4005 1893.8215,-78.7099 1891.7029,-72.0382"/>
</g>
<!-- Node12&#45;&gt;Node22 -->
<g id="edge18" class="edge">
<title>Node12&#45;&gt;Node22</title>
<path fill="none" stroke="#191970" d="M1908.8247,-80.8995C1965.8061,-73.1761 2056.6187,-59.5501 2134,-42 2141.619,-40.272 2149.6217,-38.2004 2157.4096,-36.0413"/>
<polygon fill="#191970" stroke="#191970" points="1908.0354,-77.474 1898.5896,-82.2726 1908.9662,-84.4118 1908.0354,-77.474"/>
</g>
<!-- Node12&#45;&gt;Node23 -->
<g id="edge19" class="edge">
<title>Node12&#45;&gt;Node23</title>
<path fill="none" stroke="#191970" d="M1908.815,-85.4473C1990.574,-80.9237 2147.3685,-69.2666 2278,-42 2281.5798,-41.2528 2285.2407,-40.3923 2288.9146,-39.4554"/>
<polygon fill="#191970" stroke="#191970" points="1908.5416,-81.9568 1898.7442,-85.9892 1908.9179,-88.9467 1908.5416,-81.9568"/>
</g>
<!-- Node12&#45;&gt;Node24 -->
<g id="edge20" class="edge">
<title>Node12&#45;&gt;Node24</title>
<path fill="none" stroke="#191970" d="M1909.0274,-86.2341C2009.8275,-82.4227 2228.1928,-71.2697 2410,-42 2419.9713,-40.3947 2430.4878,-38.2507 2440.6298,-35.9452"/>
<polygon fill="#191970" stroke="#191970" points="1908.6386,-82.746 1898.7742,-86.6117 1908.8963,-89.7412 1908.6386,-82.746"/>
</g>
<!-- Node12&#45;&gt;Node25 -->
<g id="edge21" class="edge">
<title>Node12&#45;&gt;Node25</title>
<path fill="none" stroke="#191970" d="M1909.0133,-85.6725C2053.5285,-79.458 2436.4149,-61.6082 2562,-42 2579.2286,-39.31 2598.0908,-34.7461 2613.5688,-30.5587"/>
<polygon fill="#191970" stroke="#191970" points="1908.4607,-82.1929 1898.6194,-86.1171 1908.7598,-89.1865 1908.4607,-82.1929"/>
</g>
<!-- Node12&#45;&gt;Node26 -->
<g id="edge22" class="edge">
<title>Node12&#45;&gt;Node26</title>
<path fill="none" stroke="#191970" d="M1908.6494,-86.5493C2074.9808,-81.9784 2566.6374,-66.697 2725,-42 2741.5999,-39.4112 2759.7366,-34.8023 2774.5381,-30.5605"/>
<polygon fill="#191970" stroke="#191970" points="1908.5366,-83.051 1898.6358,-86.8223 1908.7275,-90.0484 1908.5366,-83.051"/>
</g>
<!-- Node12&#45;&gt;Node27 -->
<g id="edge24" class="edge">
<title>Node12&#45;&gt;Node27</title>
<path fill="none" stroke="#191970" d="M1908.9028,-87.4165C2095.492,-85.1707 2695.7753,-75.4603 2886,-42 2894.1638,-40.564 2902.7179,-38.4092 2910.8789,-36.0187"/>
<polygon fill="#191970" stroke="#191970" points="1908.7273,-83.9183 1898.7693,-87.536 1908.8099,-90.9178 1908.7273,-83.9183"/>
</g>
<!-- Node12&#45;&gt;Node28 -->
<g id="edge25" class="edge">
<title>Node12&#45;&gt;Node28</title>
<path fill="none" stroke="#191970" d="M1908.7216,-87.1337C2109.287,-83.8054 2793.975,-70.5703 3011,-42 3021.9952,-40.5525 3033.6053,-38.4243 3044.7553,-36.0708"/>
<polygon fill="#191970" stroke="#191970" points="1908.6451,-83.6344 1898.704,-87.2983 1908.7602,-90.6334 1908.6451,-83.6344"/>
</g>
<!-- Node12&#45;&gt;Node29 -->
<g id="edge27" class="edge">
<title>Node12&#45;&gt;Node29</title>
<path fill="none" stroke="#191970" d="M1908.7653,-87.6393C2127.0735,-85.9822 2923.9246,-77.5752 3174,-42 3184.0066,-40.5765 3194.5534,-38.4275 3204.6474,-36.0389"/>
<polygon fill="#191970" stroke="#191970" points="1908.4837,-84.1412 1898.51,-87.7153 1908.5357,-91.141 1908.4837,-84.1412"/>
</g>
<!-- Node12&#45;&gt;Node30 -->
<g id="edge28" class="edge">
<title>Node12&#45;&gt;Node30</title>
<path fill="none" stroke="#191970" d="M1908.8846,-87.187C2162.2826,-83.377 3197.1859,-66.4399 3340,-42 3348.1779,-40.6005 3356.7422,-38.4298 3364.8903,-36.0054"/>
<polygon fill="#191970" stroke="#191970" points="1908.7487,-83.6886 1898.8022,-87.3379 1908.8535,-90.6878 1908.7487,-83.6886"/>
</g>
<!-- Node12&#45;&gt;Node31 -->
<g id="edge29" class="edge">
<title>Node12&#45;&gt;Node31</title>
<path fill="none" stroke="#191970" d="M1797.2485,-87.2901C1520.6527,-83.6629 302.3372,-66.4152 135,-42 125.4249,-40.603 115.3449,-38.4334 105.7278,-36.0093"/>
<polygon fill="#191970" stroke="#191970" points="1797.4021,-90.7923 1807.447,-87.4233 1797.4935,-83.7929 1797.4021,-90.7923"/>
</g>
<!-- Node33&#45;&gt;Node7 -->
<g id="edge53" class="edge">
<title>Node33&#45;&gt;Node7</title>
<path fill="none" stroke="#191970" d="M1739.0231,-182.2112C1731.5871,-172.7472 1722.734,-161.4797 1716.5764,-153.6427"/>
<polygon fill="#191970" stroke="#191970" points="1736.4054,-184.5447 1745.3358,-190.2455 1741.9097,-180.22 1736.4054,-184.5447"/>
</g>
<!-- Node33&#45;&gt;Node8 -->
<g id="edge54" class="edge">
<title>Node33&#45;&gt;Node8</title>
<path fill="none" stroke="#191970" d="M1708.5638,-199.3081C1475.3885,-195.583 401.2867,-177.2169 335,-154 267.9424,-130.5132 214.1307,-57.3917 196.3089,-30.7968"/>
<polygon fill="#191970" stroke="#191970" points="1708.658,-202.81 1718.7124,-199.4695 1708.7693,-195.8109 1708.658,-202.81"/>
</g>
<!-- Node33&#45;&gt;Node10 -->
<g id="edge69" class="edge">
<title>Node33&#45;&gt;Node10</title>
<path fill="none" stroke="#191970" d="M1708.7586,-199.3464C1491.8217,-196.0248 545.7408,-180.1422 417,-154 382.9458,-147.0849 290.6859,-126.6351 271,-98 255.0363,-74.7792 284.6804,-50.8907 309.716,-36.004"/>
<polygon fill="#191970" stroke="#191970" points="1708.7715,-202.8469 1718.8236,-199.4995 1708.878,-195.8477 1708.7715,-202.8469"/>
</g>
<!-- Node33&#45;&gt;Node11 -->
<g id="edge72" class="edge">
<title>Node33&#45;&gt;Node11</title>
<path fill="none" stroke="#191970" d="M1708.7284,-198.8634C1587.0255,-195.4383 1237.236,-183.5722 948,-154 778.6098,-136.6811 698.3866,-208.6891 569,-98 552.7207,-84.0732 547.3276,-59.2894 545.6232,-41.6007"/>
<polygon fill="#191970" stroke="#191970" points="1708.6883,-202.3636 1718.7813,-199.1416 1708.882,-195.3662 1708.6883,-202.3636"/>
</g>
<!-- Node33&#45;&gt;Node13 -->
<g id="edge55" class="edge">
<title>Node33&#45;&gt;Node13</title>
<path fill="none" stroke="#191970" d="M1708.6888,-199.5064C1569.382,-197.6033 1141.6324,-188.9872 1008,-154 901.5435,-126.1279 786.9918,-56.0599 747.4084,-30.5111"/>
<polygon fill="#191970" stroke="#191970" points="1708.9337,-203.0098 1718.9789,-199.6418 1709.0258,-196.0104 1708.9337,-203.0098"/>
</g>
<!-- Node33&#45;&gt;Node14 -->
<g id="edge56" class="edge">
<title>Node33&#45;&gt;Node14</title>
<path fill="none" stroke="#191970" d="M1708.4326,-198.7185C1563.0017,-194.3129 1108.1084,-178.6875 1047,-154 978.438,-126.3013 918.1033,-56.438 897.5182,-30.7083"/>
<polygon fill="#191970" stroke="#191970" points="1708.658,-202.2267 1718.7584,-199.0281 1708.8679,-195.2299 1708.658,-202.2267"/>
</g>
<!-- Node33&#45;&gt;Node15 -->
<g id="edge57" class="edge">
<title>Node33&#45;&gt;Node15</title>
<path fill="none" stroke="#191970" d="M1708.6117,-198.9923C1584.2661,-195.8153 1234.4072,-184.3571 1124,-154 1070.3382,-139.2454 1041.2586,-145.3415 1012,-98 1007.3268,-90.4387 1006.659,-85.1054 1012,-78 1028.4727,-56.0854 1096.4165,-39.9098 1147.9442,-30.4989"/>
<polygon fill="#191970" stroke="#191970" points="1708.8136,-202.4983 1718.8979,-199.2492 1708.9885,-195.5005 1708.8136,-202.4983"/>
</g>
<!-- Node33&#45;&gt;Node16 -->
<g id="edge58" class="edge">
<title>Node33&#45;&gt;Node16</title>
<path fill="none" stroke="#191970" d="M1708.3784,-197.1495C1556.3613,-186.9907 1065.5672,-150.3471 1020,-98 1014.1638,-91.2954 1014.1633,-84.7041 1020,-78 1058.1561,-34.1736 1222.3034,-54.7334 1279,-42 1286.7309,-40.2637 1294.8553,-38.0553 1302.675,-35.7265"/>
<polygon fill="#191970" stroke="#191970" points="1708.5179,-200.6663 1718.7274,-197.835 1708.9806,-193.6816 1708.5179,-200.6663"/>
</g>
<!-- Node33&#45;&gt;Node17 -->
<g id="edge59" class="edge">
<title>Node33&#45;&gt;Node17</title>
<path fill="none" stroke="#191970" d="M1708.9535,-194.4281C1620.0882,-182.187 1424.4251,-149.8391 1385,-98 1366.973,-74.2967 1400.1371,-50.7978 1428.6403,-36.1118"/>
<polygon fill="#191970" stroke="#191970" points="1708.6112,-197.9136 1718.9905,-195.7875 1709.5508,-190.9769 1708.6112,-197.9136"/>
</g>
<!-- Node33&#45;&gt;Node18 -->
<g id="edge60" class="edge">
<title>Node33&#45;&gt;Node18</title>
<path fill="none" stroke="#191970" d="M1715.4703,-186.3947C1699.34,-178.9455 1681.3884,-168.2771 1669,-154 1638.4444,-118.7861 1625.7531,-63.0748 1621.2029,-36.3255"/>
<polygon fill="#191970" stroke="#191970" points="1714.1353,-189.6308 1724.7013,-190.4117 1716.9284,-183.2122 1714.1353,-189.6308"/>
</g>
<!-- Node33&#45;&gt;Node19 -->
<g id="edge61" class="edge">
<title>Node33&#45;&gt;Node19</title>
<path fill="none" stroke="#191970" d="M1715.4666,-186.028C1701.4229,-178.7521 1686.9578,-168.3168 1679,-154 1655.5478,-111.8075 1702.5476,-61.1395 1730.4217,-36.28"/>
<polygon fill="#191970" stroke="#191970" points="1714.0288,-189.2199 1724.5619,-190.3621 1717.0401,-182.9007 1714.0288,-189.2199"/>
</g>
<!-- Node33&#45;&gt;Node20 -->
<g id="edge62" class="edge">
<title>Node33&#45;&gt;Node20</title>
<path fill="none" stroke="#191970" d="M1787.6997,-186.2856C1823.3379,-170.3966 1877.7453,-140.7987 1908,-98 1921.1143,-79.4484 1925.2164,-52.8236 1926.4757,-36.2391"/>
<polygon fill="#191970" stroke="#191970" points="1785.9697,-183.2204 1778.1813,-190.4031 1788.749,-189.6451 1785.9697,-183.2204"/>
</g>
<!-- Node33&#45;&gt;Node21 -->
<g id="edge63" class="edge">
<title>Node33&#45;&gt;Node21</title>
<path fill="none" stroke="#191970" d="M1793.7636,-187.3244C1817.7608,-179.1775 1848.3399,-167.5884 1874,-154 1941.4305,-118.2921 2013.1422,-62.5717 2045.8485,-36.0327"/>
<polygon fill="#191970" stroke="#191970" points="1792.632,-184.0122 1784.2497,-190.492 1794.8433,-190.6538 1792.632,-184.0122"/>
</g>
<!-- Node33&#45;&gt;Node22 -->
<g id="edge64" class="edge">
<title>Node33&#45;&gt;Node22</title>
<path fill="none" stroke="#191970" d="M1796.8275,-188.0143C1826.98,-179.4152 1867.7851,-167.078 1903,-154 2004.5163,-116.2991 2120.8143,-62.0088 2175.0856,-36.0003"/>
<polygon fill="#191970" stroke="#191970" points="1795.7045,-184.6945 1787.0337,-190.7829 1797.6087,-191.4305 1795.7045,-184.6945"/>
</g>
<!-- Node33&#45;&gt;Node23 -->
<g id="edge65" class="edge">
<title>Node33&#45;&gt;Node23</title>
<path fill="none" stroke="#191970" d="M1796.9671,-190.2649C1835.231,-181.5495 1892.0732,-168.0161 1941,-154 2066.4687,-118.0568 2211.2668,-68.3459 2288.893,-41.0125"/>
<polygon fill="#191970" stroke="#191970" points="1796.1531,-186.8605 1787.1731,-192.4828 1797.6993,-193.6876 1796.1531,-186.8605"/>
</g>
<!-- Node33&#45;&gt;Node24 -->
<g id="edge66" class="edge">
<title>Node33&#45;&gt;Node24</title>
<path fill="none" stroke="#191970" d="M1796.9358,-192.1351C1843.9016,-183.5392 1920.4673,-168.9831 1986,-154 2152.4422,-115.9455 2347.177,-62.8646 2440.9364,-36.7647"/>
<polygon fill="#191970" stroke="#191970" points="1796.3021,-188.6928 1787.0916,-193.9288 1797.557,-195.5795 1796.3021,-188.6928"/>
</g>
<!-- Node33&#45;&gt;Node25 -->
<g id="edge67" class="edge">
<title>Node33&#45;&gt;Node25</title>
<path fill="none" stroke="#191970" d="M1797.1308,-193.661C1853.5856,-185.3833 1954.3171,-170.0472 2040,-154 2273.225,-110.3203 2330.8696,-95.6709 2562,-42 2577.3747,-38.4298 2594.2685,-34.2555 2608.8488,-30.5733"/>
<polygon fill="#191970" stroke="#191970" points="1796.5076,-190.2147 1787.1183,-195.123 1797.5191,-197.1413 1796.5076,-190.2147"/>
</g>
<!-- Node33&#45;&gt;Node26 -->
<g id="edge68" class="edge">
<title>Node33&#45;&gt;Node26</title>
<path fill="none" stroke="#191970" d="M1797.4887,-194.8392C1864.0625,-186.9613 1993.4967,-171.0449 2103,-154 2380.5481,-110.7978 2450.7234,-102.5944 2725,-42 2740.143,-38.6545 2756.7474,-34.3943 2770.885,-30.5865"/>
<polygon fill="#191970" stroke="#191970" points="1796.8779,-191.3869 1787.3564,-196.0335 1797.6974,-198.3388 1796.8779,-191.3869"/>
</g>
<!-- Node33&#45;&gt;Node27 -->
<g id="edge70" class="edge">
<title>Node33&#45;&gt;Node27</title>
<path fill="none" stroke="#191970" d="M1797.4835,-195.9471C1875.2155,-188.6999 2040.7633,-172.5323 2180,-154 2494.9243,-112.0837 2576.7032,-114.5933 2886,-42 2893.2391,-40.3009 2900.8325,-38.2193 2908.2002,-36.0338"/>
<polygon fill="#191970" stroke="#191970" points="1796.7437,-192.5006 1787.1099,-196.9098 1797.3906,-199.4707 1796.7437,-192.5006"/>
</g>
<!-- Node33&#45;&gt;Node28 -->
<g id="edge71" class="edge">
<title>Node33&#45;&gt;Node28</title>
<path fill="none" stroke="#191970" d="M1797.3812,-196.7932C1887.0221,-190.1541 2096.0427,-173.8522 2271,-154 2451.554,-133.5128 2496.3693,-125.4272 2676,-98 2825.2254,-75.2153 2862.8728,-71.0807 3011,-42 3021.3951,-39.9592 3032.4051,-37.6263 3043.0729,-35.2749"/>
<polygon fill="#191970" stroke="#191970" points="1797.0201,-193.3102 1787.3044,-197.536 1797.5347,-200.2913 1797.0201,-193.3102"/>
</g>
<!-- Node33&#45;&gt;Node29 -->
<g id="edge73" class="edge">
<title>Node33&#45;&gt;Node29</title>
<path fill="none" stroke="#191970" d="M1797.4454,-197.6251C1898.5757,-192.0112 2153.5831,-176.6693 2366,-154 2726.4975,-115.5274 2818.1709,-111.4571 3174,-42 3182.7531,-40.2914 3191.9625,-38.2302 3200.9335,-36.0754"/>
<polygon fill="#191970" stroke="#191970" points="1797.0877,-194.1394 1787.2955,-198.1844 1797.4729,-201.1288 1797.0877,-194.1394"/>
</g>
<!-- Node33&#45;&gt;Node30 -->
<g id="edge74" class="edge">
<title>Node33&#45;&gt;Node30</title>
<path fill="none" stroke="#191970" d="M1797.201,-198.0773C1910.087,-192.972 2218.1607,-177.816 2474,-154 2677.7494,-135.033 2728.07,-124.3245 2931,-98 3112.9492,-74.3971 3161.0314,-82.4087 3340,-42 3347.2721,-40.3581 3354.8929,-38.2797 3362.2671,-36.0726"/>
<polygon fill="#191970" stroke="#191970" points="1797.0397,-194.5809 1787.2068,-198.526 1797.3537,-201.5738 1797.0397,-194.5809"/>
</g>
<!-- Node33&#45;&gt;Node31 -->
<g id="edge75" class="edge">
<title>Node33&#45;&gt;Node31</title>
<path fill="none" stroke="#191970" d="M1708.6764,-199.6532C1443.0816,-197.4728 72.929,-184.745 43,-154 12.0671,-122.2238 35.0851,-63.8284 48.7681,-36.2231"/>
<polygon fill="#191970" stroke="#191970" points="1708.6958,-203.1534 1718.724,-199.735 1708.7528,-196.1536 1708.6958,-203.1534"/>
</g>
<!-- Node34&#45;&gt;Node7 -->
<g id="edge77" class="edge">
<title>Node34&#45;&gt;Node7</title>
<path fill="none" stroke="#191970" d="M1996.6494,-192.2287C1923.5332,-179.9696 1784.2369,-156.6146 1730.7035,-147.6389"/>
<polygon fill="#191970" stroke="#191970" points="1996.4977,-195.752 2006.9388,-193.9538 1997.6552,-188.8483 1996.4977,-195.752"/>
</g>
<!-- Node34&#45;&gt;Node10 -->
<g id="edge92" class="edge">
<title>Node34&#45;&gt;Node10</title>
<path fill="none" stroke="#191970" d="M1996.6453,-198.1168C1794.5443,-189.8987 998.1627,-157.4341 945,-154 873.6552,-149.3914 352.3036,-150.7075 304,-98 287.5308,-80.0292 307.1366,-52.988 322.9574,-36.1958"/>
<polygon fill="#191970" stroke="#191970" points="1996.7813,-201.6251 2006.9152,-198.5343 1997.0657,-194.6309 1996.7813,-201.6251"/>
</g>
<!-- Node34&#45;&gt;Node11 -->
<g id="edge95" class="edge">
<title>Node34&#45;&gt;Node11</title>
<path fill="none" stroke="#191970" d="M1996.6507,-198.0544C1808.1517,-190.1129 1106.8715,-160.2775 1060,-154 946.7132,-138.8276 919.6981,-126.4609 809,-98 734.5548,-78.8599 649.3296,-53.3392 596.3284,-37.0338"/>
<polygon fill="#191970" stroke="#191970" points="1996.6456,-201.5572 2006.784,-198.481 1996.9401,-194.5634 1996.6456,-201.5572"/>
</g>
<!-- Node34&#45;&gt;Node13 -->
<g id="edge78" class="edge">
<title>Node34&#45;&gt;Node13</title>
<path fill="none" stroke="#191970" d="M1996.4629,-197.9309C1829.7688,-190.4597 1268.148,-164.751 1188,-154 1071.2744,-138.3424 1041.7302,-132.087 929,-98 863.735,-78.2654 789.5391,-46.4181 754.0633,-30.5806"/>
<polygon fill="#191970" stroke="#191970" points="1996.7158,-201.4457 2006.8623,-198.3963 1997.0288,-194.4527 1996.7158,-201.4457"/>
</g>
<!-- Node34&#45;&gt;Node14 -->
<g id="edge79" class="edge">
<title>Node34&#45;&gt;Node14</title>
<path fill="none" stroke="#191970" d="M1996.7289,-198.158C1822.308,-190.7885 1205.1192,-160.7452 1020,-98 972.7981,-82.0012 924.052,-47.3357 902.0547,-30.5248"/>
<polygon fill="#191970" stroke="#191970" points="1996.7191,-201.6606 2006.8566,-198.5814 1997.0115,-194.6667 1996.7191,-201.6606"/>
</g>
<!-- Node34&#45;&gt;Node15 -->
<g id="edge80" class="edge">
<title>Node34&#45;&gt;Node15</title>
<path fill="none" stroke="#191970" d="M1996.6219,-197.0873C1893.1963,-190.3402 1646.3854,-172.7761 1565,-154 1432.2428,-123.3721 1282.0221,-55.6166 1228.8924,-30.5594"/>
<polygon fill="#191970" stroke="#191970" points="1996.5527,-200.59 2006.758,-197.7438 1997.0052,-193.6047 1996.5527,-200.59"/>
</g>
<!-- Node34&#45;&gt;Node16 -->
<g id="edge81" class="edge">
<title>Node34&#45;&gt;Node16</title>
<path fill="none" stroke="#191970" d="M1997.0012,-196.8428C1903.7884,-190.1296 1695.6478,-173.4504 1627,-154 1526.7769,-125.6033 1417.9582,-64.4297 1370.4687,-36.0405"/>
<polygon fill="#191970" stroke="#191970" points="1996.7623,-200.3346 2006.9861,-197.5554 1997.2607,-193.3523 1996.7623,-200.3346"/>
</g>
<!-- Node34&#45;&gt;Node17 -->
<g id="edge82" class="edge">
<title>Node34&#45;&gt;Node17</title>
<path fill="none" stroke="#191970" d="M1996.7252,-196.2587C1912.4342,-189.096 1737.1995,-172.5039 1679,-154 1628.5973,-137.975 1619.1382,-125.564 1574,-98 1541.373,-78.0761 1505.2939,-52.3074 1483.386,-36.2143"/>
<polygon fill="#191970" stroke="#191970" points="1996.5242,-199.7541 2006.7825,-197.1052 1997.1113,-192.7788 1996.5242,-199.7541"/>
</g>
<!-- Node34&#45;&gt;Node18 -->
<g id="edge83" class="edge">
<title>Node34&#45;&gt;Node18</title>
<path fill="none" stroke="#191970" d="M2010.4297,-186.4849C1963.6125,-167.0353 1874.603,-129.9723 1799,-98 1748.599,-76.6856 1690.3988,-51.7254 1654.1442,-36.1355"/>
<polygon fill="#191970" stroke="#191970" points="2009.1819,-189.7565 2019.7595,-190.3597 2011.8668,-183.2918 2009.1819,-189.7565"/>
</g>
<!-- Node34&#45;&gt;Node19 -->
<g id="edge84" class="edge">
<title>Node34&#45;&gt;Node19</title>
<path fill="none" stroke="#191970" d="M2028.1504,-182.8325C2004.8928,-156.8866 1957.4008,-107.5813 1908,-78 1876.0484,-58.8673 1836.6675,-44.6897 1805.0921,-35.2594"/>
<polygon fill="#191970" stroke="#191970" points="2025.5768,-185.2057 2034.8217,-190.381 2030.8219,-180.5701 2025.5768,-185.2057"/>
</g>
<!-- Node34&#45;&gt;Node20 -->
<g id="edge85" class="edge">
<title>Node34&#45;&gt;Node20</title>
<path fill="none" stroke="#191970" d="M2051.805,-181.0884C2062.3244,-155.4134 2076.0359,-109.1627 2055,-78 2045.2687,-63.584 2006.4696,-47.4878 1974.1134,-36.0867"/>
<polygon fill="#191970" stroke="#191970" points="2048.5184,-179.8696 2047.7379,-190.4357 2054.9371,-182.6625 2048.5184,-179.8696"/>
</g>
<!-- Node34&#45;&gt;Node21 -->
<g id="edge86" class="edge">
<title>Node34&#45;&gt;Node21</title>
<path fill="none" stroke="#191970" d="M2064.7215,-184.2213C2087.0986,-166.3286 2120.1884,-134.8114 2131,-98 2133.5049,-89.4713 2134.7292,-86.0688 2131,-78 2122.7989,-60.2555 2106.0489,-46.0055 2091.3492,-36.1917"/>
<polygon fill="#191970" stroke="#191970" points="2062.5082,-181.5083 2056.7385,-190.3943 2066.7903,-187.0458 2062.5082,-181.5083"/>
</g>
<!-- Node34&#45;&gt;Node22 -->
<g id="edge87" class="edge">
<title>Node34&#45;&gt;Node22</title>
<path fill="none" stroke="#191970" d="M2073.3724,-185.6847C2088.2232,-177.7242 2105.7121,-166.8308 2119,-154 2156.5139,-117.7765 2186.0563,-62.5464 2198.9504,-36.1181"/>
<polygon fill="#191970" stroke="#191970" points="2071.3493,-182.7899 2064.0649,-190.4832 2074.5571,-189.0117 2071.3493,-182.7899"/>
</g>
<!-- Node34&#45;&gt;Node23 -->
<g id="edge88" class="edge">
<title>Node34&#45;&gt;Node23</title>
<path fill="none" stroke="#191970" d="M2074.944,-186.3571C2094.3772,-177.7274 2119.5101,-165.9728 2141,-154 2205.6337,-117.9902 2277.2303,-69.0616 2316.0669,-41.704"/>
<polygon fill="#191970" stroke="#191970" points="2073.3755,-183.2232 2065.6274,-190.4495 2076.1907,-189.6322 2073.3755,-183.2232"/>
</g>
<!-- Node34&#45;&gt;Node24 -->
<g id="edge89" class="edge">
<title>Node34&#45;&gt;Node24</title>
<path fill="none" stroke="#191970" d="M2080.2786,-187.0717C2105.8973,-178.0726 2140.6356,-165.6441 2171,-154 2270.1653,-115.9723 2384.8929,-68.298 2448.3778,-41.589"/>
<polygon fill="#191970" stroke="#191970" points="2078.8715,-183.856 2070.5902,-190.4643 2081.185,-190.4626 2078.8715,-183.856"/>
</g>
<!-- Node34&#45;&gt;Node25 -->
<g id="edge90" class="edge">
<title>Node34&#45;&gt;Node25</title>
<path fill="none" stroke="#191970" d="M2088.5794,-187.8055C2122.2054,-178.7215 2169.0381,-165.8867 2210,-154 2362.9551,-109.6141 2544.8742,-52.82 2615.6913,-30.5574"/>
<polygon fill="#191970" stroke="#191970" points="2087.333,-184.5164 2078.5889,-190.499 2089.1553,-191.2751 2087.333,-184.5164"/>
</g>
<!-- Node34&#45;&gt;Node26 -->
<g id="edge91" class="edge">
<title>Node34&#45;&gt;Node26</title>
<path fill="none" stroke="#191970" d="M2088.8765,-190.1904C2131.4543,-181.0293 2196.5741,-166.8736 2253,-154 2463.2014,-106.0426 2515.8276,-94.2631 2725,-42 2739.4884,-38.38 2755.4081,-34.2354 2769.205,-30.5899"/>
<polygon fill="#191970" stroke="#191970" points="2088.1284,-186.7711 2079.087,-192.2941 2089.5992,-193.6149 2088.1284,-186.7711"/>
</g>
<!-- Node34&#45;&gt;Node27 -->
<g id="edge93" class="edge">
<title>Node34&#45;&gt;Node27</title>
<path fill="none" stroke="#191970" d="M2089.3946,-192.1842C2142.1553,-183.2336 2230.8571,-167.9968 2307,-154 2564.7843,-106.6132 2631.8772,-106.1864 2886,-42 2892.9731,-40.2387 2900.2907,-38.1739 2907.4238,-36.0389"/>
<polygon fill="#191970" stroke="#191970" points="2088.6109,-188.767 2079.336,-193.8882 2089.7802,-195.6686 2088.6109,-188.767"/>
</g>
<!-- Node34&#45;&gt;Node28 -->
<g id="edge94" class="edge">
<title>Node34&#45;&gt;Node28</title>
<path fill="none" stroke="#191970" d="M2089.6276,-194.0477C2153.9344,-185.7227 2273.4267,-169.8371 2375,-154 2658.5897,-109.7832 2729.6801,-98.8979 3011,-42 3021.3833,-39.9 3032.3874,-37.5374 3043.053,-35.1749"/>
<polygon fill="#191970" stroke="#191970" points="2088.8829,-190.6147 2079.4134,-195.3665 2089.7793,-197.5571 2088.8829,-190.6147"/>
</g>
<!-- Node34&#45;&gt;Node29 -->
<g id="edge96" class="edge">
<title>Node34&#45;&gt;Node29</title>
<path fill="none" stroke="#191970" d="M2089.1783,-195.362C2164.4444,-187.6661 2318.2105,-171.375 2448,-154 2771.5969,-110.6799 2854.0526,-107.0023 3174,-42 3182.5941,-40.254 3191.6354,-38.1973 3200.4614,-36.066"/>
<polygon fill="#191970" stroke="#191970" points="2088.6831,-191.8942 2079.0895,-196.3901 2089.3929,-198.8581 2088.6831,-191.8942"/>
</g>
<!-- Node34&#45;&gt;Node30 -->
<g id="edge97" class="edge">
<title>Node34&#45;&gt;Node30</title>
<path fill="none" stroke="#191970" d="M2089.297,-199.594C2313.8699,-197.2161 3283.1274,-182.1138 3385,-98 3403.1642,-83.0022 3406.4646,-53.968 3406.6322,-36.1532"/>
<polygon fill="#191970" stroke="#191970" points="2089.1359,-196.0954 2079.1724,-199.6979 2089.2078,-203.095 2089.1359,-196.0954"/>
</g>
<!-- Node34&#45;&gt;Node31 -->
<g id="edge98" class="edge">
<title>Node34&#45;&gt;Node31</title>
<path fill="none" stroke="#191970" d="M1996.4922,-197.9319C1946.8466,-195.7677 1865.8772,-192.3623 1796,-190 1206.3421,-170.0661 1055.3037,-219.8925 469,-154 342.4519,-139.7777 306.9989,-143.3427 188,-98 146.3382,-82.1254 102.5924,-53.6532 77.6706,-36.1343"/>
<polygon fill="#191970" stroke="#191970" points="1996.4518,-201.4334 2006.5953,-198.3741 1996.758,-194.4401 1996.4518,-201.4334"/>
</g>
</g>
</svg>
