<?xml version="1.0" encoding="UTF-8" standalone="no"?>
<!DOCTYPE svg PUBLIC "-//W3C//DTD SVG 1.1//EN"
 "http://www.w3.org/Graphics/SVG/1.1/DTD/svg11.dtd">
<!-- Generated by graphviz version 2.40.1 (20161225.0304)
 -->
<!-- Title: MV_class.h Pages: 1 -->
<svg width="3130pt" height="218pt"
 viewBox="0.00 0.00 3130.00 218.00" xmlns="http://www.w3.org/2000/svg" xmlns:xlink="http://www.w3.org/1999/xlink">
<g id="graph0" class="graph" transform="scale(1 1) rotate(0) translate(4 214)">
<title>MV_class.h</title>
<polygon fill="#ffffff" stroke="transparent" points="-4,4 -4,-214 3126,-214 3126,4 -4,4"/>
<!-- Node11 -->
<g id="node1" class="node">
<title>Node11</title>
<polygon fill="#bfbfbf" stroke="#000000" points="1522,-190.5 1522,-209.5 1590,-209.5 1590,-190.5 1522,-190.5"/>
<text text-anchor="middle" x="1556" y="-197.5" font-family="Helvetica,sans-Serif" font-size="10.00" fill="#000000">MV_class.h</text>
</g>
<!-- Node12 -->
<g id="node2" class="node">
<title>Node12</title>
<g id="a_node2"><a xlink:href="$field_8h.html" xlink:title="field.h">
<polygon fill="#ffffff" stroke="#000000" points="1459.5,-134.5 1459.5,-153.5 1502.5,-153.5 1502.5,-134.5 1459.5,-134.5"/>
<text text-anchor="middle" x="1481" y="-141.5" font-family="Helvetica,sans-Serif" font-size="10.00" fill="#000000">field.h</text>
</a>
</g>
</g>
<!-- Node11&#45;&gt;Node12 -->
<g id="edge1" class="edge">
<title>Node11&#45;&gt;Node12</title>
<path fill="none" stroke="#191970" d="M1534.8523,-184.2097C1521.6799,-174.3743 1505.16,-162.0394 1493.9143,-153.6427"/>
<polygon fill="#191970" stroke="#191970" points="1532.8291,-187.0671 1542.936,-190.2455 1537.0172,-181.4581 1532.8291,-187.0671"/>
</g>
<!-- Node13 -->
<g id="node3" class="node">
<title>Node13</title>
<g id="a_node3"><a xlink:href="$main__explicit_8cpp.html" xlink:title="main_explicit.cpp">
<polygon fill="#ffffff" stroke="#000000" points="98,-11.5 98,-30.5 190,-30.5 190,-11.5 98,-11.5"/>
<text text-anchor="middle" x="144" y="-18.5" font-family="Helvetica,sans-Serif" font-size="10.00" fill="#000000">main_explicit.cpp</text>
</a>
</g>
</g>
<!-- Node11&#45;&gt;Node13 -->
<g id="edge55" class="edge">
<title>Node11&#45;&gt;Node13</title>
<path fill="none" stroke="#191970" d="M1511.5393,-199.7834C1329.4369,-198.6504 640.0859,-191.8951 426,-154 345.5871,-139.7662 323.9283,-134.7465 251,-98 212.7801,-78.7421 173.3035,-46.5328 154.7998,-30.569"/>
<polygon fill="#191970" stroke="#191970" points="1511.7896,-203.2848 1521.8103,-199.8446 1511.8314,-196.2849 1511.7896,-203.2848"/>
</g>
<!-- Node15 -->
<g id="node5" class="node">
<title>Node15</title>
<g id="a_node5"><a xlink:href="$main__omp_8cpp.html" xlink:title="main_omp.cpp">
<polygon fill="#ffffff" stroke="#000000" points="0,-11.5 0,-30.5 80,-30.5 80,-11.5 0,-11.5"/>
<text text-anchor="middle" x="40" y="-18.5" font-family="Helvetica,sans-Serif" font-size="10.00" fill="#000000">main_omp.cpp</text>
</a>
</g>
</g>
<!-- Node11&#45;&gt;Node15 -->
<g id="edge56" class="edge">
<title>Node11&#45;&gt;Node15</title>
<path fill="none" stroke="#191970" d="M1511.8592,-199.3557C1306.3596,-196.2195 448.4424,-181.5693 332,-154 219.521,-127.3691 97.541,-56.5302 55.3592,-30.6448"/>
<polygon fill="#191970" stroke="#191970" points="1511.9274,-202.8571 1521.9793,-199.5089 1512.0334,-195.8579 1511.9274,-202.8571"/>
</g>
<!-- Node16 -->
<g id="node6" class="node">
<title>Node16</title>
<g id="a_node6"><a xlink:href="$test__noise__vectors__and__cholesky__decomposition_8cpp.html" xlink:title="tests/test_noise_vectors\l_and_cholesky_decomposition.cpp">
<polygon fill="#ffffff" stroke="#000000" points="208.5,-6 208.5,-36 377.5,-36 377.5,-6 208.5,-6"/>
<text text-anchor="start" x="216.5" y="-24" font-family="Helvetica,sans-Serif" font-size="10.00" fill="#000000">tests/test_noise_vectors</text>
<text text-anchor="middle" x="293" y="-13" font-family="Helvetica,sans-Serif" font-size="10.00" fill="#000000">_and_cholesky_decomposition.cpp</text>
</a>
</g>
</g>
<!-- Node11&#45;&gt;Node16 -->
<g id="edge71" class="edge">
<title>Node11&#45;&gt;Node16</title>
<path fill="none" stroke="#191970" d="M1511.6588,-199.4624C1300.5156,-196.4961 403.44,-179.1644 312,-98 294.5971,-82.5528 291.8912,-53.9436 292.0619,-36.2824"/>
<polygon fill="#191970" stroke="#191970" points="1511.7117,-202.9633 1521.7586,-199.6005 1511.8075,-195.964 1511.7117,-202.9633"/>
</g>
<!-- Node17 -->
<g id="node7" class="node">
<title>Node17</title>
<g id="a_node7"><a xlink:href="$test__position__evolution__coupling__noise_8cpp.html" xlink:title="tests/test_position\l_evolution_coupling\l_noise.cpp">
<polygon fill="#ffffff" stroke="#000000" points="395,-.5 395,-41.5 497,-41.5 497,-.5 395,-.5"/>
<text text-anchor="start" x="403" y="-29.5" font-family="Helvetica,sans-Serif" font-size="10.00" fill="#000000">tests/test_position</text>
<text text-anchor="start" x="403" y="-18.5" font-family="Helvetica,sans-Serif" font-size="10.00" fill="#000000">_evolution_coupling</text>
<text text-anchor="middle" x="446" y="-7.5" font-family="Helvetica,sans-Serif" font-size="10.00" fill="#000000">_noise.cpp</text>
</a>
</g>
</g>
<!-- Node11&#45;&gt;Node17 -->
<g id="edge74" class="edge">
<title>Node11&#45;&gt;Node17</title>
<path fill="none" stroke="#191970" d="M1511.4868,-198.5534C1377.2332,-193.9609 977.7166,-178.5506 850,-154 718.024,-128.6306 569.5068,-72.1108 494.6728,-41.5552"/>
<polygon fill="#191970" stroke="#191970" points="1511.687,-202.0621 1521.7998,-198.9027 1511.924,-195.0661 1511.687,-202.0621"/>
</g>
<!-- Node19 -->
<g id="node9" class="node">
<title>Node19</title>
<g id="a_node9"><a xlink:href="$test__accumulation_8cpp.html" xlink:title="tests/test_accumulation.cpp">
<polygon fill="#ffffff" stroke="#000000" points="515,-11.5 515,-30.5 655,-30.5 655,-11.5 515,-11.5"/>
<text text-anchor="middle" x="585" y="-18.5" font-family="Helvetica,sans-Serif" font-size="10.00" fill="#000000">tests/test_accumulation.cpp</text>
</a>
</g>
</g>
<!-- Node11&#45;&gt;Node19 -->
<g id="edge57" class="edge">
<title>Node11&#45;&gt;Node19</title>
<path fill="none" stroke="#191970" d="M1511.4548,-198.5107C1386.6498,-194.061 1035.3574,-179.5637 923,-154 795.7186,-125.0408 653.2826,-55.9555 603.4195,-30.5697"/>
<polygon fill="#191970" stroke="#191970" points="1511.6617,-202.0201 1521.7787,-198.8742 1511.9081,-195.0244 1511.6617,-202.0201"/>
</g>
<!-- Node20 -->
<g id="node10" class="node">
<title>Node20</title>
<g id="a_node10"><a xlink:href="$test__exponentiate_8cpp.html" xlink:title="tests/test_exponentiate.cpp">
<polygon fill="#ffffff" stroke="#000000" points="673.5,-11.5 673.5,-30.5 810.5,-30.5 810.5,-11.5 673.5,-11.5"/>
<text text-anchor="middle" x="742" y="-18.5" font-family="Helvetica,sans-Serif" font-size="10.00" fill="#000000">tests/test_exponentiate.cpp</text>
</a>
</g>
</g>
<!-- Node11&#45;&gt;Node20 -->
<g id="edge58" class="edge">
<title>Node11&#45;&gt;Node20</title>
<path fill="none" stroke="#191970" d="M1511.6777,-198.5129C1395.2149,-194.2755 1082.6786,-180.688 983,-154 886.9813,-128.2919 787.8953,-56.5587 754.1137,-30.5625"/>
<polygon fill="#191970" stroke="#191970" points="1511.8805,-202.0223 1521.9994,-198.8825 1512.1311,-195.0268 1511.8805,-202.0223"/>
</g>
<!-- Node21 -->
<g id="node11" class="node">
<title>Node21</title>
<g id="a_node11"><a xlink:href="$test__hermitian_8cpp.html" xlink:title="tests/test_hermitian.cpp">
<polygon fill="#ffffff" stroke="#000000" points="829,-11.5 829,-30.5 951,-30.5 951,-11.5 829,-11.5"/>
<text text-anchor="middle" x="890" y="-18.5" font-family="Helvetica,sans-Serif" font-size="10.00" fill="#000000">tests/test_hermitian.cpp</text>
</a>
</g>
</g>
<!-- Node11&#45;&gt;Node21 -->
<g id="edge59" class="edge">
<title>Node11&#45;&gt;Node21</title>
<path fill="none" stroke="#191970" d="M1511.3099,-196.6284C1366.7411,-185.2743 918.6861,-146.4159 877,-98 860.4584,-78.788 875.0197,-46.5575 884.0708,-30.579"/>
<polygon fill="#191970" stroke="#191970" points="1511.3404,-200.1413 1521.5821,-197.4288 1511.8843,-193.1624 1511.3404,-200.1413"/>
</g>
<!-- Node22 -->
<g id="node12" class="node">
<title>Node22</title>
<g id="a_node12"><a xlink:href="$test__initial__condition_8cpp.html" xlink:title="tests/test_initial\l_condition.cpp">
<polygon fill="#ffffff" stroke="#000000" points="1233,-6 1233,-36 1319,-36 1319,-6 1233,-6"/>
<text text-anchor="start" x="1241" y="-24" font-family="Helvetica,sans-Serif" font-size="10.00" fill="#000000">tests/test_initial</text>
<text text-anchor="middle" x="1276" y="-13" font-family="Helvetica,sans-Serif" font-size="10.00" fill="#000000">_condition.cpp</text>
</a>
</g>
</g>
<!-- Node11&#45;&gt;Node22 -->
<g id="edge60" class="edge">
<title>Node11&#45;&gt;Node22</title>
<path fill="none" stroke="#191970" d="M1512.1262,-189.2524C1485.7518,-181.6824 1452.15,-170.0249 1425,-154 1368.2642,-120.5126 1313.6701,-63.471 1289.2911,-36.2848"/>
<polygon fill="#191970" stroke="#191970" points="1511.28,-192.6498 1521.852,-191.9541 1513.1536,-185.9052 1511.28,-192.6498"/>
</g>
<!-- Node23 -->
<g id="node13" class="node">
<title>Node23</title>
<g id="a_node13"><a xlink:href="$test__initial__condition__fftw1d_8cpp.html" xlink:title="tests/test_initial\l_condition_fftw1d.cpp">
<polygon fill="#ffffff" stroke="#000000" points="1337,-6 1337,-36 1449,-36 1449,-6 1337,-6"/>
<text text-anchor="start" x="1345" y="-24" font-family="Helvetica,sans-Serif" font-size="10.00" fill="#000000">tests/test_initial</text>
<text text-anchor="middle" x="1393" y="-13" font-family="Helvetica,sans-Serif" font-size="10.00" fill="#000000">_condition_fftw1d.cpp</text>
</a>
</g>
</g>
<!-- Node11&#45;&gt;Node23 -->
<g id="edge61" class="edge">
<title>Node11&#45;&gt;Node23</title>
<path fill="none" stroke="#191970" d="M1513.1953,-187.0666C1492.9546,-179.5629 1469.2802,-168.6579 1451,-154 1426.9346,-134.7033 1422.7084,-126.107 1410,-98 1400.8066,-77.6671 1396.4285,-52.0103 1394.4607,-36.0523"/>
<polygon fill="#191970" stroke="#191970" points="1512.2223,-190.435 1522.817,-190.4785 1514.5618,-183.8375 1512.2223,-190.435"/>
</g>
<!-- Node24 -->
<g id="node14" class="node">
<title>Node24</title>
<g id="a_node14"><a xlink:href="$test__momentum__coupling_8cpp.html" xlink:title="tests/test_momentum\l_coupling.cpp">
<polygon fill="#ffffff" stroke="#000000" points="1467,-6 1467,-36 1579,-36 1579,-6 1467,-6"/>
<text text-anchor="start" x="1475" y="-24" font-family="Helvetica,sans-Serif" font-size="10.00" fill="#000000">tests/test_momentum</text>
<text text-anchor="middle" x="1523" y="-13" font-family="Helvetica,sans-Serif" font-size="10.00" fill="#000000">_coupling.cpp</text>
</a>
</g>
</g>
<!-- Node11&#45;&gt;Node24 -->
<g id="edge62" class="edge">
<title>Node11&#45;&gt;Node24</title>
<path fill="none" stroke="#191970" d="M1557.9572,-180.1593C1559.7792,-155.7053 1561.0217,-113.0819 1552,-78 1548.1286,-62.9457 1539.8184,-47.3099 1533.0823,-36.231"/>
<polygon fill="#191970" stroke="#191970" points="1554.4541,-180.0459 1557.0864,-190.3085 1561.4285,-180.6444 1554.4541,-180.0459"/>
</g>
<!-- Node25 -->
<g id="node15" class="node">
<title>Node25</title>
<g id="a_node15"><a xlink:href="$test__momentum__coupling__fft_8cpp.html" xlink:title="tests/test_momentum\l_coupling_fft.cpp">
<polygon fill="#ffffff" stroke="#000000" points="1597,-6 1597,-36 1709,-36 1709,-6 1597,-6"/>
<text text-anchor="start" x="1605" y="-24" font-family="Helvetica,sans-Serif" font-size="10.00" fill="#000000">tests/test_momentum</text>
<text text-anchor="middle" x="1653" y="-13" font-family="Helvetica,sans-Serif" font-size="10.00" fill="#000000">_coupling_fft.cpp</text>
</a>
</g>
</g>
<!-- Node11&#45;&gt;Node25 -->
<g id="edge63" class="edge">
<title>Node11&#45;&gt;Node25</title>
<path fill="none" stroke="#191970" d="M1565.9991,-181.5481C1585.2168,-146.0844 1626.9766,-69.0226 1644.7377,-36.2469"/>
<polygon fill="#191970" stroke="#191970" points="1562.9024,-179.9165 1561.2151,-190.3762 1569.0568,-183.2517 1562.9024,-179.9165"/>
</g>
<!-- Node26 -->
<g id="node16" class="node">
<title>Node26</title>
<g id="a_node16"><a xlink:href="$test__momentum__evolution_8cpp.html" xlink:title="tests/test_momentum\l_evolution.cpp">
<polygon fill="#ffffff" stroke="#000000" points="1727,-6 1727,-36 1839,-36 1839,-6 1727,-6"/>
<text text-anchor="start" x="1735" y="-24" font-family="Helvetica,sans-Serif" font-size="10.00" fill="#000000">tests/test_momentum</text>
<text text-anchor="middle" x="1783" y="-13" font-family="Helvetica,sans-Serif" font-size="10.00" fill="#000000">_evolution.cpp</text>
</a>
</g>
</g>
<!-- Node11&#45;&gt;Node26 -->
<g id="edge64" class="edge">
<title>Node11&#45;&gt;Node26</title>
<path fill="none" stroke="#191970" d="M1576.3176,-183.9787C1619.7484,-149.7314 1721.1229,-69.7929 1763.6645,-36.2469"/>
<polygon fill="#191970" stroke="#191970" points="1573.8897,-181.4359 1568.2045,-190.3762 1578.2241,-186.9325 1573.8897,-181.4359"/>
</g>
<!-- Node27 -->
<g id="node17" class="node">
<title>Node27</title>
<g id="a_node17"><a xlink:href="$test__momentum__evolution__coupling_8cpp.html" xlink:title="tests/test_momentum\l_evolution_coupling.cpp">
<polygon fill="#ffffff" stroke="#000000" points="1857.5,-6 1857.5,-36 1978.5,-36 1978.5,-6 1857.5,-6"/>
<text text-anchor="start" x="1865.5" y="-24" font-family="Helvetica,sans-Serif" font-size="10.00" fill="#000000">tests/test_momentum</text>
<text text-anchor="middle" x="1918" y="-13" font-family="Helvetica,sans-Serif" font-size="10.00" fill="#000000">_evolution_coupling.cpp</text>
</a>
</g>
</g>
<!-- Node11&#45;&gt;Node27 -->
<g id="edge65" class="edge">
<title>Node11&#45;&gt;Node27</title>
<path fill="none" stroke="#191970" d="M1584.608,-185.854C1651.6593,-152.6989 1818.4847,-70.2078 1887.4335,-36.1144"/>
<polygon fill="#191970" stroke="#191970" points="1582.8753,-182.8063 1575.4627,-190.3762 1585.9781,-189.0811 1582.8753,-182.8063"/>
</g>
<!-- Node28 -->
<g id="node18" class="node">
<title>Node28</title>
<g id="a_node18"><a xlink:href="$test__momentum__evolution__coupling2_8cpp.html" xlink:title="tests/test_momentum\l_evolution_coupling2.cpp">
<polygon fill="#ffffff" stroke="#000000" points="1997,-6 1997,-36 2123,-36 2123,-6 1997,-6"/>
<text text-anchor="start" x="2005" y="-24" font-family="Helvetica,sans-Serif" font-size="10.00" fill="#000000">tests/test_momentum</text>
<text text-anchor="middle" x="2060" y="-13" font-family="Helvetica,sans-Serif" font-size="10.00" fill="#000000">_evolution_coupling2.cpp</text>
</a>
</g>
</g>
<!-- Node11&#45;&gt;Node28 -->
<g id="edge66" class="edge">
<title>Node11&#45;&gt;Node28</title>
<path fill="none" stroke="#191970" d="M1592.7269,-186.9561C1683.9303,-154.5644 1920.3665,-70.5921 2017.4433,-36.1144"/>
<polygon fill="#191970" stroke="#191970" points="1591.3492,-183.7312 1583.0972,-190.3762 1593.692,-190.3275 1591.3492,-183.7312"/>
</g>
<!-- Node29 -->
<g id="node19" class="node">
<title>Node29</title>
<g id="a_node19"><a xlink:href="$test__momentum__evolution__coupling__lambda_8cpp.html" xlink:title="tests/test_momentum\l_evolution_coupling\l_lambda.cpp">
<polygon fill="#ffffff" stroke="#000000" points="2141,-.5 2141,-41.5 2253,-41.5 2253,-.5 2141,-.5"/>
<text text-anchor="start" x="2149" y="-29.5" font-family="Helvetica,sans-Serif" font-size="10.00" fill="#000000">tests/test_momentum</text>
<text text-anchor="start" x="2149" y="-18.5" font-family="Helvetica,sans-Serif" font-size="10.00" fill="#000000">_evolution_coupling</text>
<text text-anchor="middle" x="2197" y="-7.5" font-family="Helvetica,sans-Serif" font-size="10.00" fill="#000000">_lambda.cpp</text>
</a>
</g>
</g>
<!-- Node11&#45;&gt;Node29 -->
<g id="edge67" class="edge">
<title>Node11&#45;&gt;Node29</title>
<path fill="none" stroke="#191970" d="M1599.8654,-188.2907C1634.4224,-179.0441 1683.8086,-165.7813 1727,-154 1907.1735,-104.8539 1953.1035,-95.6084 2132,-42 2134.84,-41.149 2137.7452,-40.2639 2140.6758,-39.3595"/>
<polygon fill="#191970" stroke="#191970" points="1598.8416,-184.9413 1590.0854,-190.9062 1600.6502,-191.7037 1598.8416,-184.9413"/>
</g>
<!-- Node30 -->
<g id="node20" class="node">
<title>Node30</title>
<g id="a_node20"><a xlink:href="$test__momentum__evolution__coupling__lambda__noise_8cpp.html" xlink:title="tests/test_momentum\l_evolution_coupling\l_lambda_noise.cpp">
<polygon fill="#ffffff" stroke="#000000" points="2271,-.5 2271,-41.5 2383,-41.5 2383,-.5 2271,-.5"/>
<text text-anchor="start" x="2279" y="-29.5" font-family="Helvetica,sans-Serif" font-size="10.00" fill="#000000">tests/test_momentum</text>
<text text-anchor="start" x="2279" y="-18.5" font-family="Helvetica,sans-Serif" font-size="10.00" fill="#000000">_evolution_coupling</text>
<text text-anchor="middle" x="2327" y="-7.5" font-family="Helvetica,sans-Serif" font-size="10.00" fill="#000000">_lambda_noise.cpp</text>
</a>
</g>
</g>
<!-- Node11&#45;&gt;Node30 -->
<g id="edge68" class="edge">
<title>Node11&#45;&gt;Node30</title>
<path fill="none" stroke="#191970" d="M1600.0383,-191.0063C1644.2992,-181.9068 1714.4539,-167.3196 1775,-154 1991.9079,-106.2821 2047.9085,-101.0834 2262,-42 2264.8579,-41.2113 2267.7776,-40.3764 2270.7196,-39.5117"/>
<polygon fill="#191970" stroke="#191970" points="1599.2751,-187.5899 1590.1834,-193.0296 1600.683,-194.4469 1599.2751,-187.5899"/>
</g>
<!-- Node31 -->
<g id="node21" class="node">
<title>Node31</title>
<g id="a_node21"><a xlink:href="$test__multiplication_8cpp.html" xlink:title="tests/test_multiplication.cpp">
<polygon fill="#ffffff" stroke="#000000" points="2401.5,-11.5 2401.5,-30.5 2540.5,-30.5 2540.5,-11.5 2401.5,-11.5"/>
<text text-anchor="middle" x="2471" y="-18.5" font-family="Helvetica,sans-Serif" font-size="10.00" fill="#000000">tests/test_multiplication.cpp</text>
</a>
</g>
</g>
<!-- Node11&#45;&gt;Node31 -->
<g id="edge69" class="edge">
<title>Node11&#45;&gt;Node31</title>
<path fill="none" stroke="#191970" d="M1600.3958,-193.1323C1655.34,-184.5226 1751.723,-169.0598 1834,-154 2082.8127,-108.458 2145.6543,-99.4073 2392,-42 2406.7887,-38.5537 2423.0162,-34.3196 2436.896,-30.5584"/>
<polygon fill="#191970" stroke="#191970" points="1599.6433,-189.7073 1590.3037,-194.7096 1600.7243,-196.6233 1599.6433,-189.7073"/>
</g>
<!-- Node32 -->
<g id="node22" class="node">
<title>Node32</title>
<g id="a_node22"><a xlink:href="$test__noise__vectors_8cpp.html" xlink:title="tests/test_noise_vectors.cpp">
<polygon fill="#ffffff" stroke="#000000" points="2558.5,-11.5 2558.5,-30.5 2701.5,-30.5 2701.5,-11.5 2558.5,-11.5"/>
<text text-anchor="middle" x="2630" y="-18.5" font-family="Helvetica,sans-Serif" font-size="10.00" fill="#000000">tests/test_noise_vectors.cpp</text>
</a>
</g>
</g>
<!-- Node11&#45;&gt;Node32 -->
<g id="edge70" class="edge">
<title>Node11&#45;&gt;Node32</title>
<path fill="none" stroke="#191970" d="M1600.2227,-194.6278C1665.7815,-186.5412 1792.5807,-170.4307 1900,-154 2189.7758,-109.6763 2263.5203,-104.1611 2550,-42 2565.2958,-38.6811 2582.0695,-34.3813 2596.2895,-30.5377"/>
<polygon fill="#191970" stroke="#191970" points="1599.7371,-191.1611 1590.2391,-195.8556 1600.5915,-198.1088 1599.7371,-191.1611"/>
</g>
<!-- Node33 -->
<g id="node23" class="node">
<title>Node33</title>
<g id="a_node23"><a xlink:href="$test__position__evolution_8cpp.html" xlink:title="tests/test_position\l_evolution.cpp">
<polygon fill="#ffffff" stroke="#000000" points="2719.5,-6 2719.5,-36 2816.5,-36 2816.5,-6 2719.5,-6"/>
<text text-anchor="start" x="2727.5" y="-24" font-family="Helvetica,sans-Serif" font-size="10.00" fill="#000000">tests/test_position</text>
<text text-anchor="middle" x="2768" y="-13" font-family="Helvetica,sans-Serif" font-size="10.00" fill="#000000">_evolution.cpp</text>
</a>
</g>
</g>
<!-- Node11&#45;&gt;Node33 -->
<g id="edge72" class="edge">
<title>Node11&#45;&gt;Node33</title>
<path fill="none" stroke="#191970" d="M1600.4538,-195.8263C1677.7456,-188.4244 1841.8641,-172.0666 1980,-154 2305.9045,-111.3755 2392.743,-124.1163 2711,-42 2717.3312,-40.3664 2723.9391,-38.2924 2730.3182,-36.087"/>
<polygon fill="#191970" stroke="#191970" points="1599.758,-192.3767 1590.1356,-196.8105 1600.4228,-199.345 1599.758,-192.3767"/>
</g>
<!-- Node34 -->
<g id="node24" class="node">
<title>Node34</title>
<g id="a_node24"><a xlink:href="$test__position__evolution__coupling_8cpp.html" xlink:title="tests/test_position\l_evolution_coupling.cpp">
<polygon fill="#ffffff" stroke="#000000" points="2834.5,-6 2834.5,-36 2955.5,-36 2955.5,-6 2834.5,-6"/>
<text text-anchor="start" x="2842.5" y="-24" font-family="Helvetica,sans-Serif" font-size="10.00" fill="#000000">tests/test_position</text>
<text text-anchor="middle" x="2895" y="-13" font-family="Helvetica,sans-Serif" font-size="10.00" fill="#000000">_evolution_coupling.cpp</text>
</a>
</g>
</g>
<!-- Node11&#45;&gt;Node34 -->
<g id="edge73" class="edge">
<title>Node11&#45;&gt;Node34</title>
<path fill="none" stroke="#191970" d="M1600.3889,-196.7966C1737.5798,-186.5755 2166.7627,-152.1967 2519,-98 2656.0827,-76.9079 2691.2116,-74.6899 2826,-42 2833.1797,-40.2587 2840.7149,-38.2046 2848.0606,-36.0744"/>
<polygon fill="#191970" stroke="#191970" points="1599.9818,-193.317 1590.2677,-197.5461 1600.4989,-200.2979 1599.9818,-193.317"/>
</g>
<!-- Node35 -->
<g id="node25" class="node">
<title>Node35</title>
<g id="a_node25"><a xlink:href="$test__position__evolution__hatta__coupling_8cpp.html" xlink:title="tests/test_position\l_evolution_hatta_coupling.cpp">
<polygon fill="#ffffff" stroke="#000000" points="2974,-6 2974,-36 3122,-36 3122,-6 2974,-6"/>
<text text-anchor="start" x="2982" y="-24" font-family="Helvetica,sans-Serif" font-size="10.00" fill="#000000">tests/test_position</text>
<text text-anchor="middle" x="3048" y="-13" font-family="Helvetica,sans-Serif" font-size="10.00" fill="#000000">_evolution_hatta_coupling.cpp</text>
</a>
</g>
</g>
<!-- Node11&#45;&gt;Node35 -->
<g id="edge75" class="edge">
<title>Node11&#45;&gt;Node35</title>
<path fill="none" stroke="#191970" d="M1600.5028,-197.5774C1702.3523,-191.8397 1960.1832,-176.2164 2175,-154 2363.196,-134.5367 2409.6905,-124.6775 2597,-98 2760.7856,-74.6729 2802.8401,-74.7724 2965,-42 2973.5958,-40.2628 2982.6382,-38.2109 2991.4646,-36.0816"/>
<polygon fill="#191970" stroke="#191970" points="1600.0733,-194.0959 1590.2845,-198.1493 1600.4645,-201.0849 1600.0733,-194.0959"/>
</g>
<!-- Node36 -->
<g id="node26" class="node">
<title>Node36</title>
<g id="a_node26"><a xlink:href="$test__symmetrize__average_8cpp.html" xlink:title="tests/test_symmetrize\l_average.cpp">
<polygon fill="#ffffff" stroke="#000000" points="969,-6 969,-36 1083,-36 1083,-6 969,-6"/>
<text text-anchor="start" x="977" y="-24" font-family="Helvetica,sans-Serif" font-size="10.00" fill="#000000">tests/test_symmetrize</text>
<text text-anchor="middle" x="1026" y="-13" font-family="Helvetica,sans-Serif" font-size="10.00" fill="#000000">_average.cpp</text>
</a>
</g>
</g>
<!-- Node11&#45;&gt;Node36 -->
<g id="edge76" class="edge">
<title>Node11&#45;&gt;Node36</title>
<path fill="none" stroke="#191970" d="M1511.7912,-192.8358C1468.4766,-185.2512 1400.8722,-171.8984 1344,-154 1235.5435,-119.8674 1112.9093,-63.1383 1056.8848,-36.1561"/>
<polygon fill="#191970" stroke="#191970" points="1511.273,-196.298 1521.7223,-194.548 1512.4624,-189.3998 1511.273,-196.298"/>
</g>
<!-- Node37 -->
<g id="node27" class="node">
<title>Node37</title>
<g id="a_node27"><a xlink:href="$test__symmetrize__average2_8cpp.html" xlink:title="tests/test_symmetrize\l_average2.cpp">
<polygon fill="#ffffff" stroke="#000000" points="1101,-6 1101,-36 1215,-36 1215,-6 1101,-6"/>
<text text-anchor="start" x="1109" y="-24" font-family="Helvetica,sans-Serif" font-size="10.00" fill="#000000">tests/test_symmetrize</text>
<text text-anchor="middle" x="1158" y="-13" font-family="Helvetica,sans-Serif" font-size="10.00" fill="#000000">_average2.cpp</text>
</a>
</g>
</g>
<!-- Node11&#45;&gt;Node37 -->
<g id="edge77" class="edge">
<title>Node11&#45;&gt;Node37</title>
<path fill="none" stroke="#191970" d="M1511.9662,-190.8472C1478.1469,-183.0782 1430.6709,-170.5525 1391,-154 1309.3268,-119.9222 1220.541,-63.1666 1180.1894,-36.1671"/>
<polygon fill="#191970" stroke="#191970" points="1511.4753,-194.3242 1521.9997,-193.1048 1513.0119,-187.4949 1511.4753,-194.3242"/>
</g>
<!-- Node12&#45;&gt;Node13 -->
<g id="edge2" class="edge">
<title>Node12&#45;&gt;Node13</title>
<path fill="none" stroke="#191970" d="M1448.9719,-143.4825C1272.761,-140.536 425.1952,-125.0473 312,-98 252.3969,-83.7582 188.2146,-47.9053 159.4646,-30.617"/>
<polygon fill="#191970" stroke="#191970" points="1449.0876,-146.9848 1459.1442,-143.651 1449.2036,-139.9857 1449.0876,-146.9848"/>
</g>
<!-- Node14 -->
<g id="node4" class="node">
<title>Node14</title>
<g id="a_node4"><a xlink:href="$matrix_8h.html" xlink:title="matrix.h">
<polygon fill="#ffffff" stroke="#000000" points="321,-78.5 321,-97.5 373,-97.5 373,-78.5 321,-78.5"/>
<text text-anchor="middle" x="347" y="-85.5" font-family="Helvetica,sans-Serif" font-size="10.00" fill="#000000">matrix.h</text>
</a>
</g>
</g>
<!-- Node12&#45;&gt;Node14 -->
<g id="edge3" class="edge">
<title>Node12&#45;&gt;Node14</title>
<path fill="none" stroke="#191970" d="M1449.3655,-142.4378C1284.3818,-134.2905 524.4128,-96.7611 373.2056,-89.2941"/>
<polygon fill="#191970" stroke="#191970" points="1449.199,-145.9337 1459.3594,-142.9313 1449.5443,-138.9423 1449.199,-145.9337"/>
</g>
<!-- Node12&#45;&gt;Node15 -->
<g id="edge32" class="edge">
<title>Node12&#45;&gt;Node15</title>
<path fill="none" stroke="#191970" d="M1448.7917,-143.3634C1266.8592,-139.6919 371.6712,-120.5949 251,-98 177.6003,-84.2564 95.9433,-47.9873 59.4553,-30.5835"/>
<polygon fill="#191970" stroke="#191970" points="1448.9676,-146.8676 1459.0359,-143.569 1449.1081,-139.869 1448.9676,-146.8676"/>
</g>
<!-- Node12&#45;&gt;Node16 -->
<g id="edge48" class="edge">
<title>Node12&#45;&gt;Node16</title>
<path fill="none" stroke="#191970" d="M1448.8344,-142.8936C1315.6809,-138.2101 807.1853,-119.2761 648,-98 540.953,-83.6925 418.265,-54.0703 348.7642,-36.0252"/>
<polygon fill="#191970" stroke="#191970" points="1449.0419,-146.4029 1459.1582,-143.2545 1449.2866,-139.4072 1449.0419,-146.4029"/>
</g>
<!-- Node12&#45;&gt;Node17 -->
<g id="edge51" class="edge">
<title>Node12&#45;&gt;Node17</title>
<path fill="none" stroke="#191970" d="M1449.2549,-143.4169C1350.2633,-141.2764 1038.5497,-132.0969 783,-98 658.5015,-81.3887 627.1156,-75.269 506,-42 503.1266,-41.2107 500.192,-40.3543 497.2409,-39.4538"/>
<polygon fill="#191970" stroke="#191970" points="1449.4063,-146.9207 1459.4767,-143.6289 1449.5515,-139.9222 1449.4063,-146.9207"/>
</g>
<!-- Node18 -->
<g id="node8" class="node">
<title>Node18</title>
<g id="a_node8"><a xlink:href="$mpi__fftw__class_8h.html" xlink:title="mpi_fftw_class.h">
<polygon fill="#ffffff" stroke="#000000" points="1435.5,-78.5 1435.5,-97.5 1526.5,-97.5 1526.5,-78.5 1435.5,-78.5"/>
<text text-anchor="middle" x="1481" y="-85.5" font-family="Helvetica,sans-Serif" font-size="10.00" fill="#000000">mpi_fftw_class.h</text>
</a>
</g>
</g>
<!-- Node12&#45;&gt;Node18 -->
<g id="edge8" class="edge">
<title>Node12&#45;&gt;Node18</title>
<path fill="none" stroke="#191970" d="M1481,-124.1575C1481,-115.155 1481,-104.9199 1481,-97.6427"/>
<polygon fill="#191970" stroke="#191970" points="1477.5001,-124.2455 1481,-134.2455 1484.5001,-124.2456 1477.5001,-124.2455"/>
</g>
<!-- Node12&#45;&gt;Node19 -->
<g id="edge34" class="edge">
<title>Node12&#45;&gt;Node19</title>
<path fill="none" stroke="#191970" d="M1449.3208,-143.6106C1359.1715,-142.0692 1093.7435,-134.5188 877,-98 779.0309,-81.4933 666.1015,-47.2324 614.0419,-30.5466"/>
<polygon fill="#191970" stroke="#191970" points="1449.3765,-147.1118 1459.4306,-143.7703 1449.4872,-140.1127 1449.3765,-147.1118"/>
</g>
<!-- Node12&#45;&gt;Node20 -->
<g id="edge35" class="edge">
<title>Node12&#45;&gt;Node20</title>
<path fill="none" stroke="#191970" d="M1448.8439,-141.8417C1384.3786,-137.1096 1234.9782,-124.0998 1112,-98 1082.0172,-91.6367 1075.8704,-84.8712 1046,-78 946.8779,-55.1987 919.4661,-63.2504 820,-42 804.9142,-38.777 788.3915,-34.4465 774.4521,-30.5553"/>
<polygon fill="#191970" stroke="#191970" points="1448.9331,-145.357 1459.1578,-142.5809 1449.4335,-138.3749 1448.9331,-145.357"/>
</g>
<!-- Node12&#45;&gt;Node21 -->
<g id="edge36" class="edge">
<title>Node12&#45;&gt;Node21</title>
<path fill="none" stroke="#191970" d="M1449.3453,-139.0766C1367.6628,-126.0978 1143.349,-88.7145 960,-42 946.7213,-38.6168 932.188,-34.3506 919.822,-30.5486"/>
<polygon fill="#191970" stroke="#191970" points="1449.0445,-142.5724 1459.4682,-140.6758 1450.1369,-135.6582 1449.0445,-142.5724"/>
</g>
<!-- Node12&#45;&gt;Node22 -->
<g id="edge37" class="edge">
<title>Node12&#45;&gt;Node22</title>
<path fill="none" stroke="#191970" d="M1456.2023,-129.1214C1416.859,-105.5154 1340.5567,-59.734 1301.0537,-36.0322"/>
<polygon fill="#191970" stroke="#191970" points="1454.5383,-132.2046 1464.914,-134.3484 1458.1398,-126.2022 1454.5383,-132.2046"/>
</g>
<!-- Node12&#45;&gt;Node23 -->
<g id="edge38" class="edge">
<title>Node12&#45;&gt;Node23</title>
<path fill="none" stroke="#191970" d="M1458.5099,-128.5419C1447.9101,-120.4003 1435.711,-109.6871 1427,-98 1412.6778,-78.7846 1402.7523,-52.5881 1397.4681,-36.241"/>
<polygon fill="#191970" stroke="#191970" points="1456.4458,-131.3686 1466.5706,-134.4895 1460.6019,-125.7359 1456.4458,-131.3686"/>
</g>
<!-- Node12&#45;&gt;Node24 -->
<g id="edge39" class="edge">
<title>Node12&#45;&gt;Node24</title>
<path fill="none" stroke="#191970" d="M1507.785,-128.871C1518.6642,-121.1693 1530.0537,-110.7251 1536,-98 1545.3552,-77.9797 1537.5268,-52.2373 1530.6044,-36.1761"/>
<polygon fill="#191970" stroke="#191970" points="1505.723,-126.0378 1499.2833,-134.4509 1509.564,-131.8899 1505.723,-126.0378"/>
</g>
<!-- Node12&#45;&gt;Node25 -->
<g id="edge40" class="edge">
<title>Node12&#45;&gt;Node25</title>
<path fill="none" stroke="#191970" d="M1504.9786,-129.1071C1518.8833,-120.3124 1536.6283,-108.8154 1552,-98 1581.2135,-77.4457 1613.8993,-52.0706 1633.9641,-36.2071"/>
<polygon fill="#191970" stroke="#191970" points="1503.0633,-126.1769 1496.4594,-134.4619 1506.7885,-132.1034 1503.0633,-126.1769"/>
</g>
<!-- Node12&#45;&gt;Node26 -->
<g id="edge41" class="edge">
<title>Node12&#45;&gt;Node26</title>
<path fill="none" stroke="#191970" d="M1512.124,-131.3237C1568.1805,-108.4927 1685.8571,-60.5648 1745.9594,-36.0861"/>
<polygon fill="#191970" stroke="#191970" points="1510.6602,-128.1406 1502.7191,-135.1541 1513.3006,-134.6236 1510.6602,-128.1406"/>
</g>
<!-- Node12&#45;&gt;Node27 -->
<g id="edge42" class="edge">
<title>Node12&#45;&gt;Node27</title>
<path fill="none" stroke="#191970" d="M1512.3465,-135.5192C1575.8135,-118.2972 1724.0265,-77.8199 1848,-42 1854.5822,-40.0982 1861.5022,-38.0643 1868.3245,-36.0387"/>
<polygon fill="#191970" stroke="#191970" points="1511.2892,-132.1794 1502.5536,-138.1744 1513.1211,-138.9355 1511.2892,-132.1794"/>
</g>
<!-- Node12&#45;&gt;Node28 -->
<g id="edge43" class="edge">
<title>Node12&#45;&gt;Node28</title>
<path fill="none" stroke="#191970" d="M1512.8572,-138.5657C1593.1026,-124.6663 1809.8558,-85.8146 1988,-42 1995.3335,-40.1963 2003.0399,-38.132 2010.5736,-36.0177"/>
<polygon fill="#191970" stroke="#191970" points="1512.1494,-135.136 1502.89,-140.2851 1513.3395,-142.0341 1512.1494,-135.136"/>
</g>
<!-- Node12&#45;&gt;Node29 -->
<g id="edge44" class="edge">
<title>Node12&#45;&gt;Node29</title>
<path fill="none" stroke="#191970" d="M1512.7023,-140.9182C1607.6386,-131.2883 1897.5814,-98.954 2132,-42 2134.881,-41.3 2137.8191,-40.5365 2140.7758,-39.7285"/>
<polygon fill="#191970" stroke="#191970" points="1512.2099,-137.4499 1502.6092,-141.9305 1512.9086,-144.415 1512.2099,-137.4499"/>
</g>
<!-- Node12&#45;&gt;Node30 -->
<g id="edge45" class="edge">
<title>Node12&#45;&gt;Node30</title>
<path fill="none" stroke="#191970" d="M1512.88,-142.2728C1620.0061,-135.9552 1976.3435,-110.7699 2262,-42 2264.8824,-41.3061 2267.8217,-40.5474 2270.7794,-39.7433"/>
<polygon fill="#191970" stroke="#191970" points="1512.5193,-138.7877 1502.7376,-142.8579 1512.9226,-145.776 1512.5193,-138.7877"/>
</g>
<!-- Node12&#45;&gt;Node31 -->
<g id="edge46" class="edge">
<title>Node12&#45;&gt;Node31</title>
<path fill="none" stroke="#191970" d="M1512.9031,-142.6357C1630.7909,-137.1299 2052.5527,-113.3103 2392,-42 2407.2773,-38.7906 2424.0115,-34.462 2438.13,-30.5686"/>
<polygon fill="#191970" stroke="#191970" points="1512.5924,-139.1461 1502.7625,-143.0987 1512.9117,-146.1388 1512.5924,-139.1461"/>
</g>
<!-- Node12&#45;&gt;Node32 -->
<g id="edge47" class="edge">
<title>Node12&#45;&gt;Node32</title>
<path fill="none" stroke="#191970" d="M1512.743,-143.2372C1642.5915,-139.6426 2145.5747,-121.0824 2550,-42 2565.7836,-38.9136 2583.0691,-34.5083 2597.5212,-30.5289"/>
<polygon fill="#191970" stroke="#191970" points="1512.5899,-139.74 1502.687,-143.5059 1512.777,-146.7375 1512.5899,-139.74"/>
</g>
<!-- Node12&#45;&gt;Node33 -->
<g id="edge49" class="edge">
<title>Node12&#45;&gt;Node33</title>
<path fill="none" stroke="#191970" d="M1512.9421,-142.9383C1620.3582,-139.1986 1978.3227,-125.3624 2273,-98 2468.4107,-79.8551 2520.3773,-88.6642 2711,-42 2717.5559,-40.3951 2724.3964,-38.2802 2730.9693,-36.0105"/>
<polygon fill="#191970" stroke="#191970" points="1512.6479,-139.4462 1502.7742,-143.288 1512.8886,-146.4421 1512.6479,-139.4462"/>
</g>
<!-- Node12&#45;&gt;Node34 -->
<g id="edge50" class="edge">
<title>Node12&#45;&gt;Node34</title>
<path fill="none" stroke="#191970" d="M1512.7816,-143.3856C1631.191,-140.8923 2057.8877,-130.0826 2408,-98 2594.6555,-80.8958 2642.8504,-81.8629 2826,-42 2833.5858,-40.3489 2841.5445,-38.2658 2849.2504,-36.0568"/>
<polygon fill="#191970" stroke="#191970" points="1512.5308,-139.8899 1502.605,-143.5952 1512.675,-146.8884 1512.5308,-139.8899"/>
</g>
<!-- Node12&#45;&gt;Node35 -->
<g id="edge52" class="edge">
<title>Node12&#45;&gt;Node35</title>
<path fill="none" stroke="#191970" d="M1513.0252,-143.5629C1640.9906,-141.6112 2127.968,-132.2233 2527,-98 2722.5335,-81.2299 2772.1879,-78.5795 2965,-42 2973.908,-40.31 2983.2834,-38.2331 2992.3976,-36.0495"/>
<polygon fill="#191970" stroke="#191970" points="1512.7092,-140.0671 1502.7623,-143.7151 1512.8131,-147.0664 1512.7092,-140.0671"/>
</g>
<!-- Node12&#45;&gt;Node36 -->
<g id="edge53" class="edge">
<title>Node12&#45;&gt;Node36</title>
<path fill="none" stroke="#191970" d="M1449.5479,-136.3456C1383.181,-120.0643 1224.0615,-80.343 1092,-42 1085.6489,-40.156 1078.9803,-38.135 1072.4239,-36.0982"/>
<polygon fill="#191970" stroke="#191970" points="1448.8392,-139.7754 1459.3846,-138.7536 1450.5036,-132.9762 1448.8392,-139.7754"/>
</g>
<!-- Node12&#45;&gt;Node37 -->
<g id="edge54" class="edge">
<title>Node12&#45;&gt;Node37</title>
<path fill="none" stroke="#191970" d="M1449.7668,-132.1062C1390.6678,-109.601 1262.5938,-60.8298 1197.5796,-36.0721"/>
<polygon fill="#191970" stroke="#191970" points="1448.7146,-135.4507 1459.3055,-135.7386 1451.2058,-128.9089 1448.7146,-135.4507"/>
</g>
<!-- Node38 -->
<g id="node28" class="node">
<title>Node38</title>
<g id="a_node28"><a xlink:href="$mpi__exchange__boundaries_8cpp.html" xlink:title="mpi_exchange_boundaries.cpp">
<polygon fill="#ffffff" stroke="#000000" points="885.5,-78.5 885.5,-97.5 1036.5,-97.5 1036.5,-78.5 885.5,-78.5"/>
<text text-anchor="middle" x="961" y="-85.5" font-family="Helvetica,sans-Serif" font-size="10.00" fill="#000000">mpi_exchange_boundaries.cpp</text>
</a>
</g>
</g>
<!-- Node12&#45;&gt;Node38 -->
<g id="edge33" class="edge">
<title>Node12&#45;&gt;Node38</title>
<path fill="none" stroke="#191970" d="M1448.9218,-140.6137C1377.4563,-133.0595 1199.7281,-114.2178 1051,-98 1046.3114,-97.4887 1041.4858,-96.96 1036.6196,-96.4248"/>
<polygon fill="#191970" stroke="#191970" points="1448.7569,-144.1156 1459.0693,-141.6859 1449.4925,-137.1544 1448.7569,-144.1156"/>
</g>
<!-- Node14&#45;&gt;Node13 -->
<g id="edge4" class="edge">
<title>Node14&#45;&gt;Node13</title>
<path fill="none" stroke="#191970" d="M311.2614,-77.5844C281.1567,-68.6456 237.0384,-55.1584 199,-42 188.7611,-38.4581 177.5716,-34.2489 167.9743,-30.5323"/>
<polygon fill="#191970" stroke="#191970" points="310.3226,-80.9565 320.9045,-80.4344 312.3066,-74.2436 310.3226,-80.9565"/>
</g>
<!-- Node14&#45;&gt;Node15 -->
<g id="edge5" class="edge">
<title>Node14&#45;&gt;Node15</title>
<path fill="none" stroke="#191970" d="M310.8252,-84.1938C260.359,-78.2912 166.3203,-65.1295 89,-42 79.0689,-39.0292 68.4486,-34.6383 59.643,-30.6386"/>
<polygon fill="#191970" stroke="#191970" points="310.5788,-87.6883 320.911,-85.3442 311.3721,-80.7334 310.5788,-87.6883"/>
</g>
<!-- Node14&#45;&gt;Node16 -->
<g id="edge6" class="edge">
<title>Node14&#45;&gt;Node16</title>
<path fill="none" stroke="#191970" d="M332.9297,-70.5423C324.2958,-59.83 313.353,-46.2528 305.1071,-36.0218"/>
<polygon fill="#191970" stroke="#191970" points="330.2627,-72.8109 339.2631,-78.4005 335.7129,-68.4182 330.2627,-72.8109"/>
</g>
<!-- Node14&#45;&gt;Node17 -->
<g id="edge7" class="edge">
<title>Node14&#45;&gt;Node17</title>
<path fill="none" stroke="#191970" d="M369.4978,-72.7742C383.1153,-63.5583 400.6615,-51.6837 415.5143,-41.6318"/>
<polygon fill="#191970" stroke="#191970" points="367.5043,-69.8971 361.1843,-78.4005 371.4277,-75.6943 367.5043,-69.8971"/>
</g>
<!-- Node18&#45;&gt;Node13 -->
<g id="edge9" class="edge">
<title>Node18&#45;&gt;Node13</title>
<path fill="none" stroke="#191970" d="M1425.015,-86.5034C1185.9141,-80.0462 259.7888,-54.3415 199,-42 187.0802,-39.58 174.3577,-34.8722 164.1544,-30.5264"/>
<polygon fill="#191970" stroke="#191970" points="1425.1272,-90.0076 1435.2179,-86.7786 1425.3159,-83.0102 1425.1272,-90.0076"/>
</g>
<!-- Node18&#45;&gt;Node15 -->
<g id="edge10" class="edge">
<title>Node18&#45;&gt;Node15</title>
<path fill="none" stroke="#191970" d="M1425.1847,-86.7335C1173.6898,-80.9529 155.1656,-56.7239 89,-42 78.3395,-39.6277 67.096,-34.9807 58.0718,-30.6599"/>
<polygon fill="#191970" stroke="#191970" points="1425.1185,-90.2328 1435.1962,-86.9631 1425.2791,-83.2346 1425.1185,-90.2328"/>
</g>
<!-- Node18&#45;&gt;Node16 -->
<g id="edge25" class="edge">
<title>Node18&#45;&gt;Node16</title>
<path fill="none" stroke="#191970" d="M1425.1347,-86.9837C1231.5359,-83.2537 590.0762,-69.1025 386,-42 375.0065,-40.54 363.3972,-38.4058 352.2474,-36.0503"/>
<polygon fill="#191970" stroke="#191970" points="1425.2953,-90.4873 1435.3603,-87.179 1425.429,-83.4886 1425.2953,-90.4873"/>
</g>
<!-- Node18&#45;&gt;Node17 -->
<g id="edge28" class="edge">
<title>Node18&#45;&gt;Node17</title>
<path fill="none" stroke="#191970" d="M1425.0007,-86.3033C1231.2139,-80.3015 596.0427,-59.4954 506,-42 503.0749,-41.4317 500.0994,-40.7496 497.1167,-39.9841"/>
<polygon fill="#191970" stroke="#191970" points="1425.1394,-89.8092 1435.2426,-86.6195 1425.3554,-82.8125 1425.1394,-89.8092"/>
</g>
<!-- Node18&#45;&gt;Node19 -->
<g id="edge11" class="edge">
<title>Node18&#45;&gt;Node19</title>
<path fill="none" stroke="#191970" d="M1425.4371,-86.3197C1266.5147,-81.2831 812.0892,-65.2109 665,-42 648.4048,-39.3813 630.2685,-34.7698 615.466,-30.5341"/>
<polygon fill="#191970" stroke="#191970" points="1425.3662,-89.8191 1435.4713,-86.6355 1425.5864,-82.8226 1425.3662,-89.8191"/>
</g>
<!-- Node18&#45;&gt;Node20 -->
<g id="edge12" class="edge">
<title>Node18&#45;&gt;Node20</title>
<path fill="none" stroke="#191970" d="M1424.9506,-85.4974C1287.3737,-79.1294 935.8201,-61.4329 820,-42 803.9566,-39.3081 786.4374,-34.744 772.0739,-30.5571"/>
<polygon fill="#191970" stroke="#191970" points="1425.1091,-89.0083 1435.2594,-85.9719 1425.431,-82.0157 1425.1091,-89.0083"/>
</g>
<!-- Node18&#45;&gt;Node21 -->
<g id="edge13" class="edge">
<title>Node18&#45;&gt;Node21</title>
<path fill="none" stroke="#191970" d="M1425.2173,-86.7875C1329.3132,-83.8793 1127.3445,-74.142 960,-42 945.6709,-39.2478 930.0897,-34.7305 917.273,-30.5894"/>
<polygon fill="#191970" stroke="#191970" points="1425.1742,-90.2876 1435.2715,-87.079 1425.3771,-83.2906 1425.1742,-90.2876"/>
</g>
<!-- Node18&#45;&gt;Node22 -->
<g id="edge14" class="edge">
<title>Node18&#45;&gt;Node22</title>
<path fill="none" stroke="#191970" d="M1436.1038,-75.6763C1405.4257,-66.9694 1363.9711,-54.6409 1328,-42 1322.7643,-40.1601 1317.2821,-38.0984 1311.9229,-36.0049"/>
<polygon fill="#191970" stroke="#191970" points="1435.4965,-79.1415 1446.071,-78.4855 1437.3954,-72.4039 1435.4965,-79.1415"/>
</g>
<!-- Node18&#45;&gt;Node23 -->
<g id="edge15" class="edge">
<title>Node18&#45;&gt;Node23</title>
<path fill="none" stroke="#191970" d="M1460.1315,-72.1115C1445.777,-61.1825 1426.833,-46.7592 1412.7301,-36.0218"/>
<polygon fill="#191970" stroke="#191970" points="1458.3151,-75.1275 1468.3917,-78.4005 1462.5555,-69.558 1458.3151,-75.1275"/>
</g>
<!-- Node18&#45;&gt;Node24 -->
<g id="edge16" class="edge">
<title>Node18&#45;&gt;Node24</title>
<path fill="none" stroke="#191970" d="M1492.3446,-69.9026C1498.995,-59.2936 1507.2969,-46.0502 1513.5834,-36.0218"/>
<polygon fill="#191970" stroke="#191970" points="1489.3635,-68.0687 1487.0176,-78.4005 1495.2945,-71.7866 1489.3635,-68.0687"/>
</g>
<!-- Node18&#45;&gt;Node25 -->
<g id="edge17" class="edge">
<title>Node18&#45;&gt;Node25</title>
<path fill="none" stroke="#191970" d="M1515.2216,-74.6695C1543.8458,-63.5194 1584.6614,-47.6203 1614.4367,-36.0218"/>
<polygon fill="#191970" stroke="#191970" points="1513.691,-71.5095 1505.6434,-78.4005 1516.2318,-78.0321 1513.691,-71.5095"/>
</g>
<!-- Node18&#45;&gt;Node26 -->
<g id="edge18" class="edge">
<title>Node18&#45;&gt;Node26</title>
<path fill="none" stroke="#191970" d="M1536.7404,-79.139C1585.0386,-70.9965 1656.6126,-57.8122 1718,-42 1724.7757,-40.2547 1731.8807,-38.1985 1738.8034,-36.0673"/>
<polygon fill="#191970" stroke="#191970" points="1536.0863,-75.6997 1526.7995,-80.7992 1537.2394,-82.6041 1536.0863,-75.6997"/>
</g>
<!-- Node18&#45;&gt;Node27 -->
<g id="edge19" class="edge">
<title>Node18&#45;&gt;Node27</title>
<path fill="none" stroke="#191970" d="M1536.8543,-83.9145C1609.2159,-77.958 1739.0117,-65.0106 1848,-42 1855.6968,-40.375 1863.7713,-38.3053 1871.5891,-36.1017"/>
<polygon fill="#191970" stroke="#191970" points="1536.2896,-80.4487 1526.6041,-84.743 1536.8536,-87.4259 1536.2896,-80.4487"/>
</g>
<!-- Node18&#45;&gt;Node28 -->
<g id="edge20" class="edge">
<title>Node18&#45;&gt;Node28</title>
<path fill="none" stroke="#191970" d="M1536.6275,-86.4641C1630.4592,-83.0927 1825.8283,-72.7078 1988,-42 1996.1878,-40.4496 2004.7818,-38.3619 2013.067,-36.1025"/>
<polygon fill="#191970" stroke="#191970" points="1536.383,-82.9703 1526.5101,-86.8144 1536.6253,-89.9661 1536.383,-82.9703"/>
</g>
<!-- Node18&#45;&gt;Node29 -->
<g id="edge21" class="edge">
<title>Node18&#45;&gt;Node29</title>
<path fill="none" stroke="#191970" d="M1536.7509,-85.7949C1672.7309,-80.1373 2018.5793,-63.9916 2132,-42 2134.9106,-41.4357 2137.8725,-40.7813 2140.8481,-40.0598"/>
<polygon fill="#191970" stroke="#191970" points="1536.4054,-82.3061 1526.5583,-86.2156 1536.6942,-89.3001 1536.4054,-82.3061"/>
</g>
<!-- Node18&#45;&gt;Node30 -->
<g id="edge22" class="edge">
<title>Node18&#45;&gt;Node30</title>
<path fill="none" stroke="#191970" d="M1536.8573,-86.549C1691.448,-82.2408 2122.6991,-68.1641 2262,-42 2264.9138,-41.4527 2267.8784,-40.8121 2270.8561,-40.1015"/>
<polygon fill="#191970" stroke="#191970" points="1536.546,-83.0562 1526.6462,-86.8306 1536.7389,-90.0535 1536.546,-83.0562"/>
</g>
<!-- Node18&#45;&gt;Node31 -->
<g id="edge23" class="edge">
<title>Node18&#45;&gt;Node31</title>
<path fill="none" stroke="#191970" d="M1536.7883,-86.7135C1708.2339,-82.5184 2225.8316,-67.987 2392,-42 2408.4047,-39.4345 2426.3159,-34.8276 2440.9298,-30.5811"/>
<polygon fill="#191970" stroke="#191970" points="1536.6326,-83.2161 1526.7204,-86.9577 1536.8024,-90.2141 1536.6326,-83.2161"/>
</g>
<!-- Node18&#45;&gt;Node32 -->
<g id="edge24" class="edge">
<title>Node18&#45;&gt;Node32</title>
<path fill="none" stroke="#191970" d="M1536.8683,-87.1714C1727.5348,-84.0972 2351.7149,-71.9387 2550,-42 2566.7542,-39.4703 2585.0602,-34.8109 2599.9278,-30.5227"/>
<polygon fill="#191970" stroke="#191970" points="1536.7328,-83.673 1526.7898,-87.3319 1536.8443,-90.6722 1536.7328,-83.673"/>
</g>
<!-- Node18&#45;&gt;Node33 -->
<g id="edge26" class="edge">
<title>Node18&#45;&gt;Node33</title>
<path fill="none" stroke="#191970" d="M1536.8398,-86.9465C1761.7984,-82.5614 2595.1172,-64.9103 2711,-42 2718.0352,-40.6091 2725.3546,-38.4755 2732.311,-36.0918"/>
<polygon fill="#191970" stroke="#191970" points="1536.5229,-83.4519 1526.5926,-87.1453 1536.6587,-90.4506 1536.5229,-83.4519"/>
</g>
<!-- Node18&#45;&gt;Node34 -->
<g id="edge27" class="edge">
<title>Node18&#45;&gt;Node34</title>
<path fill="none" stroke="#191970" d="M1536.8731,-86.9502C1774.8569,-82.3617 2697.6878,-63.3412 2826,-42 2834.3994,-40.603 2843.205,-38.4665 2851.6084,-36.0818"/>
<polygon fill="#191970" stroke="#191970" points="1536.6492,-83.4537 1526.7183,-87.1452 1536.7837,-90.4525 1536.6492,-83.4537"/>
</g>
<!-- Node18&#45;&gt;Node35 -->
<g id="edge29" class="edge">
<title>Node18&#45;&gt;Node35</title>
<path fill="none" stroke="#191970" d="M1536.5658,-87.8882C1771.1303,-87.1682 2681.2506,-81.8127 2965,-42 2975.0093,-40.5956 2985.5574,-38.4556 2995.6518,-36.0699"/>
<polygon fill="#191970" stroke="#191970" points="1536.5465,-84.3882 1526.5567,-87.9174 1536.5669,-91.3881 1536.5465,-84.3882"/>
</g>
<!-- Node18&#45;&gt;Node36 -->
<g id="edge30" class="edge">
<title>Node18&#45;&gt;Node36</title>
<path fill="none" stroke="#191970" d="M1425.0167,-84.7371C1348.9377,-79.543 1208.9696,-67.2835 1092,-42 1084.5956,-40.3995 1076.8385,-38.315 1069.3507,-36.0815"/>
<polygon fill="#191970" stroke="#191970" points="1425.108,-88.2508 1435.3187,-85.4237 1425.5736,-81.2663 1425.108,-88.2508"/>
</g>
<!-- Node18&#45;&gt;Node37 -->
<g id="edge31" class="edge">
<title>Node18&#45;&gt;Node37</title>
<path fill="none" stroke="#191970" d="M1425.0344,-80.1451C1372.6723,-72.2871 1292.475,-58.9445 1224,-42 1216.9966,-40.267 1209.6506,-38.1927 1202.5072,-36.0324"/>
<polygon fill="#191970" stroke="#191970" points="1424.7183,-83.6364 1435.1239,-81.643 1425.7464,-76.7123 1424.7183,-83.6364"/>
</g>
</g>
</svg>
