<?xml version="1.0" encoding="UTF-8" standalone="no"?>
<!DOCTYPE svg PUBLIC "-//W3C//DTD SVG 1.1//EN"
 "http://www.w3.org/Graphics/SVG/1.1/DTD/svg11.dtd">
<!-- Generated by graphviz version 2.40.1 (20161225.0304)
 -->
<!-- Title: positions.h Pages: 1 -->
<svg width="3130pt" height="218pt"
 viewBox="0.00 0.00 3130.00 218.00" xmlns="http://www.w3.org/2000/svg" xmlns:xlink="http://www.w3.org/1999/xlink">
<g id="graph0" class="graph" transform="scale(1 1) rotate(0) translate(4 214)">
<title>positions.h</title>
<polygon fill="#ffffff" stroke="transparent" points="-4,4 -4,-214 3126,-214 3126,4 -4,4"/>
<!-- Node6 -->
<g id="node1" class="node">
<title>Node6</title>
<polygon fill="#bfbfbf" stroke="#000000" points="1468,-190.5 1468,-209.5 1532,-209.5 1532,-190.5 1468,-190.5"/>
<text text-anchor="middle" x="1500" y="-197.5" font-family="Helvetica,sans-Serif" font-size="10.00" fill="#000000">positions.h</text>
</g>
<!-- Node7 -->
<g id="node2" class="node">
<title>Node7</title>
<g id="a_node2"><a xlink:href="$field_8h.html" xlink:title="field.h">
<polygon fill="#ffffff" stroke="#000000" points="1478.5,-134.5 1478.5,-153.5 1521.5,-153.5 1521.5,-134.5 1478.5,-134.5"/>
<text text-anchor="middle" x="1500" y="-141.5" font-family="Helvetica,sans-Serif" font-size="10.00" fill="#000000">field.h</text>
</a>
</g>
</g>
<!-- Node6&#45;&gt;Node7 -->
<g id="edge1" class="edge">
<title>Node6&#45;&gt;Node7</title>
<path fill="none" stroke="#191970" d="M1500,-180.1575C1500,-171.155 1500,-160.9199 1500,-153.6427"/>
<polygon fill="#191970" stroke="#191970" points="1496.5001,-180.2455 1500,-190.2455 1503.5001,-180.2456 1496.5001,-180.2455"/>
</g>
<!-- Node8 -->
<g id="node3" class="node">
<title>Node8</title>
<g id="a_node3"><a xlink:href="$main__explicit_8cpp.html" xlink:title="main_explicit.cpp">
<polygon fill="#ffffff" stroke="#000000" points="0,-11.5 0,-30.5 92,-30.5 92,-11.5 0,-11.5"/>
<text text-anchor="middle" x="46" y="-18.5" font-family="Helvetica,sans-Serif" font-size="10.00" fill="#000000">main_explicit.cpp</text>
</a>
</g>
</g>
<!-- Node6&#45;&gt;Node8 -->
<g id="edge55" class="edge">
<title>Node6&#45;&gt;Node8</title>
<path fill="none" stroke="#191970" d="M1457.7081,-198.2054C1242.9695,-188.9048 278.6613,-144.8172 154,-98 113.0409,-82.6176 73.3895,-47.6536 55.6667,-30.6477"/>
<polygon fill="#191970" stroke="#191970" points="1457.7935,-201.7122 1467.9351,-198.6465 1458.0952,-194.7187 1457.7935,-201.7122"/>
</g>
<!-- Node11 -->
<g id="node6" class="node">
<title>Node11</title>
<g id="a_node6"><a xlink:href="$test__noise__vectors__and__cholesky__decomposition_8cpp.html" xlink:title="tests/test_noise_vectors\l_and_cholesky_decomposition.cpp">
<polygon fill="#ffffff" stroke="#000000" points="208.5,-6 208.5,-36 377.5,-36 377.5,-6 208.5,-6"/>
<text text-anchor="start" x="216.5" y="-24" font-family="Helvetica,sans-Serif" font-size="10.00" fill="#000000">tests/test_noise_vectors</text>
<text text-anchor="middle" x="293" y="-13" font-family="Helvetica,sans-Serif" font-size="10.00" fill="#000000">_and_cholesky_decomposition.cpp</text>
</a>
</g>
</g>
<!-- Node6&#45;&gt;Node11 -->
<g id="edge56" class="edge">
<title>Node6&#45;&gt;Node11</title>
<path fill="none" stroke="#191970" d="M1457.7081,-198.5356C1355.0791,-194.6386 1084.8039,-182.3173 861,-154 722.9674,-136.5351 688.3449,-130.2458 553,-98 476.9803,-79.8884 390.2261,-52.889 338.6229,-36.1436"/>
<polygon fill="#191970" stroke="#191970" points="1457.8412,-202.0429 1467.9647,-198.918 1458.1021,-195.0478 1457.8412,-202.0429"/>
</g>
<!-- Node12 -->
<g id="node7" class="node">
<title>Node12</title>
<g id="a_node7"><a xlink:href="$test__position__evolution__coupling__noise_8cpp.html" xlink:title="tests/test_position\l_evolution_coupling\l_noise.cpp">
<polygon fill="#ffffff" stroke="#000000" points="395,-.5 395,-41.5 497,-41.5 497,-.5 395,-.5"/>
<text text-anchor="start" x="403" y="-29.5" font-family="Helvetica,sans-Serif" font-size="10.00" fill="#000000">tests/test_position</text>
<text text-anchor="start" x="403" y="-18.5" font-family="Helvetica,sans-Serif" font-size="10.00" fill="#000000">_evolution_coupling</text>
<text text-anchor="middle" x="446" y="-7.5" font-family="Helvetica,sans-Serif" font-size="10.00" fill="#000000">_noise.cpp</text>
</a>
</g>
</g>
<!-- Node6&#45;&gt;Node12 -->
<g id="edge59" class="edge">
<title>Node6&#45;&gt;Node12</title>
<path fill="none" stroke="#191970" d="M1457.4991,-197.811C1334.4889,-190.8267 968.0518,-165.4368 672,-98 610.1641,-83.9146 541.5158,-59.1618 496.2854,-41.5237"/>
<polygon fill="#191970" stroke="#191970" points="1457.4474,-201.3135 1467.6267,-198.3754 1457.8369,-194.3243 1457.4474,-201.3135"/>
</g>
<!-- Node28 -->
<g id="node23" class="node">
<title>Node28</title>
<g id="a_node23"><a xlink:href="$test__position__evolution_8cpp.html" xlink:title="tests/test_position\l_evolution.cpp">
<polygon fill="#ffffff" stroke="#000000" points="2455.5,-6 2455.5,-36 2552.5,-36 2552.5,-6 2455.5,-6"/>
<text text-anchor="start" x="2463.5" y="-24" font-family="Helvetica,sans-Serif" font-size="10.00" fill="#000000">tests/test_position</text>
<text text-anchor="middle" x="2504" y="-13" font-family="Helvetica,sans-Serif" font-size="10.00" fill="#000000">_evolution.cpp</text>
</a>
</g>
</g>
<!-- Node6&#45;&gt;Node28 -->
<g id="edge57" class="edge">
<title>Node6&#45;&gt;Node28</title>
<path fill="none" stroke="#191970" d="M1538.0599,-187.2621C1623.9181,-158.7265 1830.7928,-91.141 1903,-78 2141.391,-34.6153 2209.9932,-92.4011 2447,-42 2453.9113,-40.5303 2461.1093,-38.3914 2467.9705,-36.0344"/>
<polygon fill="#191970" stroke="#191970" points="1536.8293,-183.9828 1528.4466,-190.4621 1539.0402,-190.6245 1536.8293,-183.9828"/>
</g>
<!-- Node29 -->
<g id="node24" class="node">
<title>Node29</title>
<g id="a_node24"><a xlink:href="$test__position__evolution__coupling_8cpp.html" xlink:title="tests/test_position\l_evolution_coupling.cpp">
<polygon fill="#ffffff" stroke="#000000" points="2570.5,-6 2570.5,-36 2691.5,-36 2691.5,-6 2570.5,-6"/>
<text text-anchor="start" x="2578.5" y="-24" font-family="Helvetica,sans-Serif" font-size="10.00" fill="#000000">tests/test_position</text>
<text text-anchor="middle" x="2631" y="-13" font-family="Helvetica,sans-Serif" font-size="10.00" fill="#000000">_evolution_coupling.cpp</text>
</a>
</g>
</g>
<!-- Node6&#45;&gt;Node29 -->
<g id="edge58" class="edge">
<title>Node6&#45;&gt;Node29</title>
<path fill="none" stroke="#191970" d="M1542.401,-189.6588C1580.1229,-180.4242 1636.7772,-166.4701 1686,-154 1816.4117,-120.9615 1846.1384,-99.1321 1979,-78 2235.3819,-37.2216 2306.5228,-88.1081 2562,-42 2570.2561,-40.5099 2578.917,-38.3614 2587.2052,-36.0011"/>
<polygon fill="#191970" stroke="#191970" points="1541.1675,-186.3573 1532.2854,-192.1331 1542.8307,-193.1568 1541.1675,-186.3573"/>
</g>
<!-- Node30 -->
<g id="node25" class="node">
<title>Node30</title>
<g id="a_node25"><a xlink:href="$test__position__evolution__hatta__coupling_8cpp.html" xlink:title="tests/test_position\l_evolution_hatta_coupling.cpp">
<polygon fill="#ffffff" stroke="#000000" points="2710,-6 2710,-36 2858,-36 2858,-6 2710,-6"/>
<text text-anchor="start" x="2718" y="-24" font-family="Helvetica,sans-Serif" font-size="10.00" fill="#000000">tests/test_position</text>
<text text-anchor="middle" x="2784" y="-13" font-family="Helvetica,sans-Serif" font-size="10.00" fill="#000000">_evolution_hatta_coupling.cpp</text>
</a>
</g>
</g>
<!-- Node6&#45;&gt;Node30 -->
<g id="edge60" class="edge">
<title>Node6&#45;&gt;Node30</title>
<path fill="none" stroke="#191970" d="M1541.9708,-192.0759C1589.2,-183.0994 1668.1877,-167.9073 1736,-154 1893.2117,-121.7581 1929.9852,-99.6645 2089,-78 2358.9761,-41.218 2431.7245,-83.6019 2701,-42 2710.6951,-40.5022 2720.9079,-38.3808 2730.7271,-36.057"/>
<polygon fill="#191970" stroke="#191970" points="1541.2763,-188.6452 1532.1043,-193.9486 1542.5816,-195.5224 1541.2763,-188.6452"/>
</g>
<!-- Node7&#45;&gt;Node8 -->
<g id="edge2" class="edge">
<title>Node7&#45;&gt;Node8</title>
<path fill="none" stroke="#191970" d="M1467.8252,-143.5931C1281.1394,-141.1333 341.0882,-127.3616 216,-98 155.753,-83.8584 90.7743,-47.9562 61.6614,-30.6363"/>
<polygon fill="#191970" stroke="#191970" points="1468.0276,-147.096 1478.0724,-143.7267 1468.1189,-140.0966 1468.0276,-147.096"/>
</g>
<!-- Node9 -->
<g id="node4" class="node">
<title>Node9</title>
<g id="a_node4"><a xlink:href="$matrix_8h.html" xlink:title="matrix.h">
<polygon fill="#ffffff" stroke="#000000" points="267,-78.5 267,-97.5 319,-97.5 319,-78.5 267,-78.5"/>
<text text-anchor="middle" x="293" y="-85.5" font-family="Helvetica,sans-Serif" font-size="10.00" fill="#000000">matrix.h</text>
</a>
</g>
</g>
<!-- Node7&#45;&gt;Node9 -->
<g id="edge3" class="edge">
<title>Node7&#45;&gt;Node9</title>
<path fill="none" stroke="#191970" d="M1468.1916,-143.2224C1336.9281,-139.8957 824.5014,-125.7499 404,-98 375.0397,-96.0888 341.9084,-92.9841 319.4368,-90.7406"/>
<polygon fill="#191970" stroke="#191970" points="1468.263,-146.7252 1478.3478,-143.4774 1468.4388,-139.7274 1468.263,-146.7252"/>
</g>
<!-- Node10 -->
<g id="node5" class="node">
<title>Node10</title>
<g id="a_node5"><a xlink:href="$main__omp_8cpp.html" xlink:title="main_omp.cpp">
<polygon fill="#ffffff" stroke="#000000" points="110,-11.5 110,-30.5 190,-30.5 190,-11.5 110,-11.5"/>
<text text-anchor="middle" x="150" y="-18.5" font-family="Helvetica,sans-Serif" font-size="10.00" fill="#000000">main_omp.cpp</text>
</a>
</g>
</g>
<!-- Node7&#45;&gt;Node10 -->
<g id="edge32" class="edge">
<title>Node7&#45;&gt;Node10</title>
<path fill="none" stroke="#191970" d="M1468.2156,-143.9119C1285.7535,-143.262 375.5355,-138.0221 258,-98 216.365,-83.8228 176.7384,-47.9381 159.2996,-30.6294"/>
<polygon fill="#191970" stroke="#191970" points="1468.4621,-147.4127 1478.4738,-143.9463 1468.4856,-140.4127 1468.4621,-147.4127"/>
</g>
<!-- Node7&#45;&gt;Node11 -->
<g id="edge48" class="edge">
<title>Node7&#45;&gt;Node11</title>
<path fill="none" stroke="#191970" d="M1468.3582,-143.8093C1358.088,-142.8121 980.6537,-136.6047 672,-98 557.9068,-83.7299 426.8599,-54.0951 352.5969,-36.0375"/>
<polygon fill="#191970" stroke="#191970" points="1468.4444,-147.3101 1478.4729,-143.8926 1468.5021,-140.3103 1468.4444,-147.3101"/>
</g>
<!-- Node7&#45;&gt;Node12 -->
<g id="edge51" class="edge">
<title>Node7&#45;&gt;Node12</title>
<path fill="none" stroke="#191970" d="M1468.308,-142.9079C1372.7064,-139.376 1078.8786,-126.7813 837,-98 688.8435,-80.3707 650.4842,-79.2218 506,-42 503.1144,-41.2566 500.1701,-40.4365 497.2115,-39.564"/>
<polygon fill="#191970" stroke="#191970" points="1468.3434,-146.4113 1478.4638,-143.2762 1468.5972,-139.4159 1468.3434,-146.4113"/>
</g>
<!-- Node13 -->
<g id="node8" class="node">
<title>Node13</title>
<g id="a_node8"><a xlink:href="$mpi__fftw__class_8h.html" xlink:title="mpi_fftw_class.h">
<polygon fill="#ffffff" stroke="#000000" points="1417.5,-78.5 1417.5,-97.5 1508.5,-97.5 1508.5,-78.5 1417.5,-78.5"/>
<text text-anchor="middle" x="1463" y="-85.5" font-family="Helvetica,sans-Serif" font-size="10.00" fill="#000000">mpi_fftw_class.h</text>
</a>
</g>
</g>
<!-- Node7&#45;&gt;Node13 -->
<g id="edge8" class="edge">
<title>Node7&#45;&gt;Node13</title>
<path fill="none" stroke="#191970" d="M1487.8624,-125.6296C1481.6907,-116.2887 1474.4434,-105.3197 1469.3711,-97.6427"/>
<polygon fill="#191970" stroke="#191970" points="1485.1223,-127.8316 1493.5551,-134.2455 1490.9627,-123.9728 1485.1223,-127.8316"/>
</g>
<!-- Node14 -->
<g id="node9" class="node">
<title>Node14</title>
<g id="a_node9"><a xlink:href="$test__accumulation_8cpp.html" xlink:title="tests/test_accumulation.cpp">
<polygon fill="#ffffff" stroke="#000000" points="515,-11.5 515,-30.5 655,-30.5 655,-11.5 515,-11.5"/>
<text text-anchor="middle" x="585" y="-18.5" font-family="Helvetica,sans-Serif" font-size="10.00" fill="#000000">tests/test_accumulation.cpp</text>
</a>
</g>
</g>
<!-- Node7&#45;&gt;Node14 -->
<g id="edge34" class="edge">
<title>Node7&#45;&gt;Node14</title>
<path fill="none" stroke="#191970" d="M1468.3301,-142.217C1386.5724,-137.3982 1161.8237,-122.7817 976,-98 836.3538,-79.3766 801.5266,-72.5667 664,-42 648.8997,-38.6438 632.3363,-34.3385 618.2933,-30.5008"/>
<polygon fill="#191970" stroke="#191970" points="1468.2746,-145.7196 1478.4611,-142.8068 1468.6815,-138.7314 1468.2746,-145.7196"/>
</g>
<!-- Node15 -->
<g id="node10" class="node">
<title>Node15</title>
<g id="a_node10"><a xlink:href="$test__exponentiate_8cpp.html" xlink:title="tests/test_exponentiate.cpp">
<polygon fill="#ffffff" stroke="#000000" points="673.5,-11.5 673.5,-30.5 810.5,-30.5 810.5,-11.5 673.5,-11.5"/>
<text text-anchor="middle" x="742" y="-18.5" font-family="Helvetica,sans-Serif" font-size="10.00" fill="#000000">tests/test_exponentiate.cpp</text>
</a>
</g>
</g>
<!-- Node7&#45;&gt;Node15 -->
<g id="edge35" class="edge">
<title>Node7&#45;&gt;Node15</title>
<path fill="none" stroke="#191970" d="M1468.2732,-141.3519C1399.8337,-135.4301 1233.3293,-119.8969 1095,-98 971.8033,-78.4986 941.3906,-70.6716 820,-42 805.3963,-38.5507 789.3739,-34.3162 775.6701,-30.5553"/>
<polygon fill="#191970" stroke="#191970" points="1468.1337,-144.8526 1478.396,-142.2192 1468.7314,-137.8782 1468.1337,-144.8526"/>
</g>
<!-- Node16 -->
<g id="node11" class="node">
<title>Node16</title>
<g id="a_node11"><a xlink:href="$test__hermitian_8cpp.html" xlink:title="tests/test_hermitian.cpp">
<polygon fill="#ffffff" stroke="#000000" points="829,-11.5 829,-30.5 951,-30.5 951,-11.5 829,-11.5"/>
<text text-anchor="middle" x="890" y="-18.5" font-family="Helvetica,sans-Serif" font-size="10.00" fill="#000000">tests/test_hermitian.cpp</text>
</a>
</g>
</g>
<!-- Node7&#45;&gt;Node16 -->
<g id="edge36" class="edge">
<title>Node7&#45;&gt;Node16</title>
<path fill="none" stroke="#191970" d="M1468.1047,-140.2144C1411.8689,-133.3259 1291.518,-117.6246 1191,-98 1087.3171,-77.7575 1061.9626,-69.6322 960,-42 947.0191,-38.4821 932.7866,-34.2771 920.5647,-30.5571"/>
<polygon fill="#191970" stroke="#191970" points="1467.8073,-143.7039 1478.1564,-141.4352 1468.6513,-136.755 1467.8073,-143.7039"/>
</g>
<!-- Node17 -->
<g id="node12" class="node">
<title>Node17</title>
<g id="a_node12"><a xlink:href="$test__initial__condition_8cpp.html" xlink:title="tests/test_initial\l_condition.cpp">
<polygon fill="#ffffff" stroke="#000000" points="969,-6 969,-36 1055,-36 1055,-6 969,-6"/>
<text text-anchor="start" x="977" y="-24" font-family="Helvetica,sans-Serif" font-size="10.00" fill="#000000">tests/test_initial</text>
<text text-anchor="middle" x="1012" y="-13" font-family="Helvetica,sans-Serif" font-size="10.00" fill="#000000">_condition.cpp</text>
</a>
</g>
</g>
<!-- Node7&#45;&gt;Node17 -->
<g id="edge37" class="edge">
<title>Node7&#45;&gt;Node17</title>
<path fill="none" stroke="#191970" d="M1468.4732,-138.4546C1396.0219,-125.3163 1212.4708,-89.7762 1064,-42 1058.5318,-40.2404 1052.8221,-38.1764 1047.2726,-36.0419"/>
<polygon fill="#191970" stroke="#191970" points="1467.8774,-141.9036 1478.3391,-140.2293 1469.1168,-135.0142 1467.8774,-141.9036"/>
</g>
<!-- Node18 -->
<g id="node13" class="node">
<title>Node18</title>
<g id="a_node13"><a xlink:href="$test__initial__condition__fftw1d_8cpp.html" xlink:title="tests/test_initial\l_condition_fftw1d.cpp">
<polygon fill="#ffffff" stroke="#000000" points="1073,-6 1073,-36 1185,-36 1185,-6 1073,-6"/>
<text text-anchor="start" x="1081" y="-24" font-family="Helvetica,sans-Serif" font-size="10.00" fill="#000000">tests/test_initial</text>
<text text-anchor="middle" x="1129" y="-13" font-family="Helvetica,sans-Serif" font-size="10.00" fill="#000000">_condition_fftw1d.cpp</text>
</a>
</g>
</g>
<!-- Node7&#45;&gt;Node18 -->
<g id="edge38" class="edge">
<title>Node7&#45;&gt;Node18</title>
<path fill="none" stroke="#191970" d="M1468.1742,-134.3206C1438.3449,-125.1822 1392.546,-110.9817 1353,-98 1289.7048,-77.2223 1216.8164,-51.9066 1171.8229,-36.1168"/>
<polygon fill="#191970" stroke="#191970" points="1467.4365,-137.7549 1478.0228,-137.3316 1469.4831,-131.0608 1467.4365,-137.7549"/>
</g>
<!-- Node19 -->
<g id="node14" class="node">
<title>Node19</title>
<g id="a_node14"><a xlink:href="$test__momentum__coupling_8cpp.html" xlink:title="tests/test_momentum\l_coupling.cpp">
<polygon fill="#ffffff" stroke="#000000" points="1203,-6 1203,-36 1315,-36 1315,-6 1203,-6"/>
<text text-anchor="start" x="1211" y="-24" font-family="Helvetica,sans-Serif" font-size="10.00" fill="#000000">tests/test_momentum</text>
<text text-anchor="middle" x="1259" y="-13" font-family="Helvetica,sans-Serif" font-size="10.00" fill="#000000">_coupling.cpp</text>
</a>
</g>
</g>
<!-- Node7&#45;&gt;Node19 -->
<g id="edge39" class="edge">
<title>Node7&#45;&gt;Node19</title>
<path fill="none" stroke="#191970" d="M1468.6357,-131.4435C1447.3177,-122.6534 1418.6259,-110.3205 1394,-98 1354.4262,-78.201 1310.1523,-52.1686 1283.4414,-36.0149"/>
<polygon fill="#191970" stroke="#191970" points="1467.583,-134.7943 1478.1639,-135.3391 1470.2321,-128.3149 1467.583,-134.7943"/>
</g>
<!-- Node20 -->
<g id="node15" class="node">
<title>Node20</title>
<g id="a_node15"><a xlink:href="$test__momentum__coupling__fft_8cpp.html" xlink:title="tests/test_momentum\l_coupling_fft.cpp">
<polygon fill="#ffffff" stroke="#000000" points="1333,-6 1333,-36 1445,-36 1445,-6 1333,-6"/>
<text text-anchor="start" x="1341" y="-24" font-family="Helvetica,sans-Serif" font-size="10.00" fill="#000000">tests/test_momentum</text>
<text text-anchor="middle" x="1389" y="-13" font-family="Helvetica,sans-Serif" font-size="10.00" fill="#000000">_coupling_fft.cpp</text>
</a>
</g>
</g>
<!-- Node7&#45;&gt;Node20 -->
<g id="edge40" class="edge">
<title>Node7&#45;&gt;Node20</title>
<path fill="none" stroke="#191970" d="M1468.6928,-135.7888C1448.5067,-128.9159 1423.2651,-117.0895 1408,-98 1393.7253,-80.1491 1389.9741,-53.0723 1389.1009,-36.2402"/>
<polygon fill="#191970" stroke="#191970" points="1467.8288,-139.1863 1478.4186,-138.8593 1469.9363,-132.511 1467.8288,-139.1863"/>
</g>
<!-- Node21 -->
<g id="node16" class="node">
<title>Node21</title>
<g id="a_node16"><a xlink:href="$test__momentum__evolution_8cpp.html" xlink:title="tests/test_momentum\l_evolution.cpp">
<polygon fill="#ffffff" stroke="#000000" points="1463,-6 1463,-36 1575,-36 1575,-6 1463,-6"/>
<text text-anchor="start" x="1471" y="-24" font-family="Helvetica,sans-Serif" font-size="10.00" fill="#000000">tests/test_momentum</text>
<text text-anchor="middle" x="1519" y="-13" font-family="Helvetica,sans-Serif" font-size="10.00" fill="#000000">_evolution.cpp</text>
</a>
</g>
</g>
<!-- Node7&#45;&gt;Node21 -->
<g id="edge41" class="edge">
<title>Node7&#45;&gt;Node21</title>
<path fill="none" stroke="#191970" d="M1508.5834,-125.0848C1511.8632,-116.9277 1515.2364,-107.1708 1517,-98 1521.0657,-76.8575 1520.8086,-51.8531 1520.0578,-36.2066"/>
<polygon fill="#191970" stroke="#191970" points="1505.3153,-123.8259 1504.6073,-134.3971 1511.753,-126.5747 1505.3153,-123.8259"/>
</g>
<!-- Node22 -->
<g id="node17" class="node">
<title>Node22</title>
<g id="a_node17"><a xlink:href="$test__momentum__evolution__coupling_8cpp.html" xlink:title="tests/test_momentum\l_evolution_coupling.cpp">
<polygon fill="#ffffff" stroke="#000000" points="1593.5,-6 1593.5,-36 1714.5,-36 1714.5,-6 1593.5,-6"/>
<text text-anchor="start" x="1601.5" y="-24" font-family="Helvetica,sans-Serif" font-size="10.00" fill="#000000">tests/test_momentum</text>
<text text-anchor="middle" x="1654" y="-13" font-family="Helvetica,sans-Serif" font-size="10.00" fill="#000000">_evolution_coupling.cpp</text>
</a>
</g>
</g>
<!-- Node7&#45;&gt;Node22 -->
<g id="edge42" class="edge">
<title>Node7&#45;&gt;Node22</title>
<path fill="none" stroke="#191970" d="M1520.1485,-127.9074C1550.111,-103.9763 1606.0046,-59.334 1635.1792,-36.0322"/>
<polygon fill="#191970" stroke="#191970" points="1517.7135,-125.3728 1512.0841,-134.3484 1522.0821,-130.8424 1517.7135,-125.3728"/>
</g>
<!-- Node23 -->
<g id="node18" class="node">
<title>Node23</title>
<g id="a_node18"><a xlink:href="$test__momentum__evolution__coupling2_8cpp.html" xlink:title="tests/test_momentum\l_evolution_coupling2.cpp">
<polygon fill="#ffffff" stroke="#000000" points="1733,-6 1733,-36 1859,-36 1859,-6 1733,-6"/>
<text text-anchor="start" x="1741" y="-24" font-family="Helvetica,sans-Serif" font-size="10.00" fill="#000000">tests/test_momentum</text>
<text text-anchor="middle" x="1796" y="-13" font-family="Helvetica,sans-Serif" font-size="10.00" fill="#000000">_evolution_coupling2.cpp</text>
</a>
</g>
</g>
<!-- Node7&#45;&gt;Node23 -->
<g id="edge43" class="edge">
<title>Node7&#45;&gt;Node23</title>
<path fill="none" stroke="#191970" d="M1527.308,-129.7974C1554.6853,-115.8089 1598.2254,-94.2376 1637,-78 1674.462,-62.3121 1717.9279,-46.9152 1749.9363,-36.0863"/>
<polygon fill="#191970" stroke="#191970" points="1525.6285,-126.7253 1518.3327,-134.4079 1528.827,-132.9518 1525.6285,-126.7253"/>
</g>
<!-- Node24 -->
<g id="node19" class="node">
<title>Node24</title>
<g id="a_node19"><a xlink:href="$test__momentum__evolution__coupling__lambda_8cpp.html" xlink:title="tests/test_momentum\l_evolution_coupling\l_lambda.cpp">
<polygon fill="#ffffff" stroke="#000000" points="1877,-.5 1877,-41.5 1989,-41.5 1989,-.5 1877,-.5"/>
<text text-anchor="start" x="1885" y="-29.5" font-family="Helvetica,sans-Serif" font-size="10.00" fill="#000000">tests/test_momentum</text>
<text text-anchor="start" x="1885" y="-18.5" font-family="Helvetica,sans-Serif" font-size="10.00" fill="#000000">_evolution_coupling</text>
<text text-anchor="middle" x="1933" y="-7.5" font-family="Helvetica,sans-Serif" font-size="10.00" fill="#000000">_lambda.cpp</text>
</a>
</g>
</g>
<!-- Node7&#45;&gt;Node24 -->
<g id="edge44" class="edge">
<title>Node7&#45;&gt;Node24</title>
<path fill="none" stroke="#191970" d="M1531.3251,-133.6823C1557.8163,-124.7744 1596.6716,-111.2793 1630,-98 1650.3319,-89.899 1654.0997,-84.4954 1675,-78 1758.326,-52.104 1783.422,-63.4568 1868,-42 1870.8737,-41.271 1873.8061,-40.484 1876.7582,-39.6575"/>
<polygon fill="#191970" stroke="#191970" points="1530.189,-130.3716 1521.8147,-136.8617 1532.4085,-137.0104 1530.189,-130.3716"/>
</g>
<!-- Node25 -->
<g id="node20" class="node">
<title>Node25</title>
<g id="a_node20"><a xlink:href="$test__momentum__evolution__coupling__lambda__noise_8cpp.html" xlink:title="tests/test_momentum\l_evolution_coupling\l_lambda_noise.cpp">
<polygon fill="#ffffff" stroke="#000000" points="2007,-.5 2007,-41.5 2119,-41.5 2119,-.5 2007,-.5"/>
<text text-anchor="start" x="2015" y="-29.5" font-family="Helvetica,sans-Serif" font-size="10.00" fill="#000000">tests/test_momentum</text>
<text text-anchor="start" x="2015" y="-18.5" font-family="Helvetica,sans-Serif" font-size="10.00" fill="#000000">_evolution_coupling</text>
<text text-anchor="middle" x="2063" y="-7.5" font-family="Helvetica,sans-Serif" font-size="10.00" fill="#000000">_lambda_noise.cpp</text>
</a>
</g>
</g>
<!-- Node7&#45;&gt;Node25 -->
<g id="edge45" class="edge">
<title>Node7&#45;&gt;Node25</title>
<path fill="none" stroke="#191970" d="M1531.4455,-136.7472C1565.3229,-128.6084 1620.6145,-114.3798 1667,-98 1688.0211,-90.5769 1691.5019,-83.9009 1713,-78 1836.1193,-44.2054 1873.3782,-69.7463 1998,-42 2000.8939,-41.3557 2003.8425,-40.6369 2006.8075,-39.8645"/>
<polygon fill="#191970" stroke="#191970" points="1530.5734,-133.3569 1521.6529,-139.0731 1532.1911,-140.1674 1530.5734,-133.3569"/>
</g>
<!-- Node26 -->
<g id="node21" class="node">
<title>Node26</title>
<g id="a_node21"><a xlink:href="$test__multiplication_8cpp.html" xlink:title="tests/test_multiplication.cpp">
<polygon fill="#ffffff" stroke="#000000" points="2137.5,-11.5 2137.5,-30.5 2276.5,-30.5 2276.5,-11.5 2137.5,-11.5"/>
<text text-anchor="middle" x="2207" y="-18.5" font-family="Helvetica,sans-Serif" font-size="10.00" fill="#000000">tests/test_multiplication.cpp</text>
</a>
</g>
</g>
<!-- Node7&#45;&gt;Node26 -->
<g id="edge46" class="edge">
<title>Node7&#45;&gt;Node26</title>
<path fill="none" stroke="#191970" d="M1531.8733,-138.6574C1572.4281,-131.4418 1644.3699,-117.2361 1704,-98 1725.6051,-91.0304 1728.9973,-83.5892 1751,-78 1914.1366,-36.5595 1962.3271,-71.7211 2128,-42 2143.9242,-39.1433 2161.3318,-34.6664 2175.7439,-30.5789"/>
<polygon fill="#191970" stroke="#191970" points="1531.0312,-135.2515 1521.7843,-140.423 1532.2379,-142.1467 1531.0312,-135.2515"/>
</g>
<!-- Node27 -->
<g id="node22" class="node">
<title>Node27</title>
<g id="a_node22"><a xlink:href="$test__noise__vectors_8cpp.html" xlink:title="tests/test_noise_vectors.cpp">
<polygon fill="#ffffff" stroke="#000000" points="2294.5,-11.5 2294.5,-30.5 2437.5,-30.5 2437.5,-11.5 2294.5,-11.5"/>
<text text-anchor="middle" x="2366" y="-18.5" font-family="Helvetica,sans-Serif" font-size="10.00" fill="#000000">tests/test_noise_vectors.cpp</text>
</a>
</g>
</g>
<!-- Node7&#45;&gt;Node27 -->
<g id="edge47" class="edge">
<title>Node7&#45;&gt;Node27</title>
<path fill="none" stroke="#191970" d="M1531.8633,-140.1618C1578.6475,-134.031 1668.356,-120.3845 1742,-98 1763.7203,-91.398 1766.9348,-83.337 1789,-78 2004.2605,-25.9344 2067.5224,-78.2692 2286,-42 2302.4321,-39.2721 2320.3983,-34.7046 2335.1346,-30.5248"/>
<polygon fill="#191970" stroke="#191970" points="1531.2142,-136.7162 1521.7398,-141.4582 1532.1034,-143.6595 1531.2142,-136.7162"/>
</g>
<!-- Node7&#45;&gt;Node28 -->
<g id="edge49" class="edge">
<title>Node7&#45;&gt;Node28</title>
<path fill="none" stroke="#191970" d="M1531.8678,-141.2697C1584.4089,-136.2149 1692.1443,-123.5085 1780,-98 1801.8012,-91.6701 1804.8971,-83.179 1827,-78 2095.741,-15.0307 2176.7877,-98.3223 2447,-42 2453.9172,-40.5582 2461.118,-38.4327 2467.9801,-36.08"/>
<polygon fill="#191970" stroke="#191970" points="1531.4507,-137.7933 1521.819,-142.2071 1532.1009,-144.763 1531.4507,-137.7933"/>
</g>
<!-- Node7&#45;&gt;Node29 -->
<g id="edge50" class="edge">
<title>Node7&#45;&gt;Node29</title>
<path fill="none" stroke="#191970" d="M1531.9562,-140.316C1589.4414,-133.4806 1713.9938,-117.7194 1818,-98 1856.1302,-90.7706 1864.5858,-83.5244 1903,-78 2193.3386,-36.2459 2273.1549,-93.0725 2562,-42 2570.2614,-40.5393 2578.9247,-38.4047 2587.2137,-36.0491"/>
<polygon fill="#191970" stroke="#191970" points="1531.2221,-136.8782 1521.7007,-141.5251 1532.0418,-143.8301 1531.2221,-136.8782"/>
</g>
<!-- Node7&#45;&gt;Node30 -->
<g id="edge52" class="edge">
<title>Node7&#45;&gt;Node30</title>
<path fill="none" stroke="#191970" d="M1531.5987,-140.8567C1596.2567,-134.2636 1748.2535,-117.9374 1875,-98 1921.4974,-90.6859 1932.2688,-83.6303 1979,-78 2297.9807,-39.5685 2383.2635,-89.6364 2701,-42 2710.8487,-40.5234 2721.2274,-38.3813 2731.1841,-36.0232"/>
<polygon fill="#191970" stroke="#191970" points="1531.2279,-137.3763 1521.6316,-141.8663 1531.9334,-144.3407 1531.2279,-137.3763"/>
</g>
<!-- Node31 -->
<g id="node26" class="node">
<title>Node31</title>
<g id="a_node26"><a xlink:href="$test__symmetrize__average_8cpp.html" xlink:title="tests/test_symmetrize\l_average.cpp">
<polygon fill="#ffffff" stroke="#000000" points="2876,-6 2876,-36 2990,-36 2990,-6 2876,-6"/>
<text text-anchor="start" x="2884" y="-24" font-family="Helvetica,sans-Serif" font-size="10.00" fill="#000000">tests/test_symmetrize</text>
<text text-anchor="middle" x="2933" y="-13" font-family="Helvetica,sans-Serif" font-size="10.00" fill="#000000">_average.cpp</text>
</a>
</g>
</g>
<!-- Node7&#45;&gt;Node31 -->
<g id="edge53" class="edge">
<title>Node7&#45;&gt;Node31</title>
<path fill="none" stroke="#191970" d="M1531.9446,-141.4373C1604.7205,-135.4309 1788.3559,-119.3244 1941,-98 1991.9458,-90.8829 2003.8647,-83.5953 2055,-78 2414.1,-38.7065 2511.3485,-105.3149 2867,-42 2875.05,-40.5669 2883.4802,-38.4134 2891.5206,-36.0234"/>
<polygon fill="#191970" stroke="#191970" points="1531.3134,-137.9772 1521.6324,-142.2818 1531.8848,-144.9538 1531.3134,-137.9772"/>
</g>
<!-- Node32 -->
<g id="node27" class="node">
<title>Node32</title>
<g id="a_node27"><a xlink:href="$test__symmetrize__average2_8cpp.html" xlink:title="tests/test_symmetrize\l_average2.cpp">
<polygon fill="#ffffff" stroke="#000000" points="3008,-6 3008,-36 3122,-36 3122,-6 3008,-6"/>
<text text-anchor="start" x="3016" y="-24" font-family="Helvetica,sans-Serif" font-size="10.00" fill="#000000">tests/test_symmetrize</text>
<text text-anchor="middle" x="3065" y="-13" font-family="Helvetica,sans-Serif" font-size="10.00" fill="#000000">_average2.cpp</text>
</a>
</g>
</g>
<!-- Node7&#45;&gt;Node32 -->
<g id="edge54" class="edge">
<title>Node7&#45;&gt;Node32</title>
<path fill="none" stroke="#191970" d="M1531.6323,-142.9672C1612.276,-139.9439 1831.9109,-129.2592 2012,-98 2046.8369,-91.9531 2054.0227,-83.173 2089,-78 2489.4054,-18.7814 2600.3368,-111.9923 2999,-42 3007.0534,-40.5861 3015.4852,-38.4416 3023.5261,-36.0545"/>
<polygon fill="#191970" stroke="#191970" points="1531.4936,-139.4699 1521.6268,-143.3293 1531.7468,-146.4653 1531.4936,-139.4699"/>
</g>
<!-- Node33 -->
<g id="node28" class="node">
<title>Node33</title>
<g id="a_node28"><a xlink:href="$mpi__exchange__boundaries_8cpp.html" xlink:title="mpi_exchange_boundaries.cpp">
<polygon fill="#ffffff" stroke="#000000" points="2097.5,-78.5 2097.5,-97.5 2248.5,-97.5 2248.5,-78.5 2097.5,-78.5"/>
<text text-anchor="middle" x="2173" y="-85.5" font-family="Helvetica,sans-Serif" font-size="10.00" fill="#000000">mpi_exchange_boundaries.cpp</text>
</a>
</g>
</g>
<!-- Node7&#45;&gt;Node33 -->
<g id="edge33" class="edge">
<title>Node7&#45;&gt;Node33</title>
<path fill="none" stroke="#191970" d="M1531.8422,-141.8463C1619.701,-135.8265 1872.9344,-117.9525 2083,-98 2087.6952,-97.554 2092.526,-97.0753 2097.396,-96.5775"/>
<polygon fill="#191970" stroke="#191970" points="1531.4653,-138.3638 1521.7269,-142.537 1531.9422,-145.3476 1531.4653,-138.3638"/>
</g>
<!-- Node9&#45;&gt;Node8 -->
<g id="edge4" class="edge">
<title>Node9&#45;&gt;Node8</title>
<path fill="none" stroke="#191970" d="M257.1384,-80.8615C218.2859,-72.7916 154.6573,-58.5948 101,-42 90.3566,-38.7083 78.8057,-34.4126 69.0498,-30.5646"/>
<polygon fill="#191970" stroke="#191970" points="256.4359,-84.2902 266.9359,-82.8755 257.8454,-77.4336 256.4359,-84.2902"/>
</g>
<!-- Node9&#45;&gt;Node10 -->
<g id="edge5" class="edge">
<title>Node9&#45;&gt;Node10</title>
<path fill="none" stroke="#191970" d="M263.2735,-74.0722C235.4917,-61.0555 194.7505,-41.967 170.4504,-30.5817"/>
<polygon fill="#191970" stroke="#191970" points="261.9713,-77.3271 272.5116,-78.4005 264.9412,-70.9884 261.9713,-77.3271"/>
</g>
<!-- Node9&#45;&gt;Node11 -->
<g id="edge6" class="edge">
<title>Node9&#45;&gt;Node11</title>
<path fill="none" stroke="#191970" d="M293,-68.2758C293,-57.9641 293,-45.5437 293,-36.0218"/>
<polygon fill="#191970" stroke="#191970" points="289.5001,-68.4005 293,-78.4005 296.5001,-68.4006 289.5001,-68.4005"/>
</g>
<!-- Node9&#45;&gt;Node12 -->
<g id="edge7" class="edge">
<title>Node9&#45;&gt;Node12</title>
<path fill="none" stroke="#191970" d="M324.223,-74.3272C345.7019,-64.9214 374.6197,-52.2581 398.8857,-41.6318"/>
<polygon fill="#191970" stroke="#191970" points="322.6774,-71.1831 314.9212,-78.4005 325.4854,-77.5952 322.6774,-71.1831"/>
</g>
<!-- Node13&#45;&gt;Node8 -->
<g id="edge9" class="edge">
<title>Node13&#45;&gt;Node8</title>
<path fill="none" stroke="#191970" d="M1407.1766,-87.2023C1167.2845,-83.6269 230.2539,-68.0999 101,-42 89.0777,-39.5926 76.355,-34.8856 66.1522,-30.5372"/>
<polygon fill="#191970" stroke="#191970" points="1407.3576,-90.7053 1417.4083,-87.3539 1407.4613,-83.7061 1407.3576,-90.7053"/>
</g>
<!-- Node13&#45;&gt;Node10 -->
<g id="edge10" class="edge">
<title>Node13&#45;&gt;Node10</title>
<path fill="none" stroke="#191970" d="M1407.0754,-87.1733C1177.9805,-83.6224 317.7006,-68.6228 199,-42 188.3435,-39.6099 177.1003,-34.9614 168.0753,-30.6444"/>
<polygon fill="#191970" stroke="#191970" points="1407.1335,-90.6745 1417.1862,-87.3289 1407.2413,-83.6754 1407.1335,-90.6745"/>
</g>
<!-- Node13&#45;&gt;Node11 -->
<g id="edge25" class="edge">
<title>Node13&#45;&gt;Node11</title>
<path fill="none" stroke="#191970" d="M1407.0769,-86.9372C1215.4897,-83.0888 586.3766,-68.6826 386,-42 375.007,-40.5361 363.3979,-38.4001 352.2483,-36.044"/>
<polygon fill="#191970" stroke="#191970" points="1407.1343,-90.439 1417.2021,-87.1389 1407.2738,-83.4404 1407.1343,-90.439"/>
</g>
<!-- Node13&#45;&gt;Node12 -->
<g id="edge28" class="edge">
<title>Node13&#45;&gt;Node12</title>
<path fill="none" stroke="#191970" d="M1407.3386,-87.4278C1230.1077,-85.2756 680.3883,-75.9639 506,-42 503.0752,-41.4304 500.0999,-40.7473 497.1173,-39.981"/>
<polygon fill="#191970" stroke="#191970" points="1407.4399,-90.9292 1417.4807,-87.5481 1407.523,-83.9297 1407.4399,-90.9292"/>
</g>
<!-- Node13&#45;&gt;Node14 -->
<g id="edge11" class="edge">
<title>Node13&#45;&gt;Node14</title>
<path fill="none" stroke="#191970" d="M1407.0282,-86.2518C1250.0116,-81.1133 807.5064,-64.9619 664,-42 647.6044,-39.3766 629.6941,-34.7647 615.0783,-30.5299"/>
<polygon fill="#191970" stroke="#191970" points="1407.2838,-89.7619 1417.3922,-86.5886 1407.5112,-82.7656 1407.2838,-89.7619"/>
</g>
<!-- Node13&#45;&gt;Node15 -->
<g id="edge12" class="edge">
<title>Node13&#45;&gt;Node15</title>
<path fill="none" stroke="#191970" d="M1407.0312,-85.376C1272.1996,-78.8319 932.2599,-60.9475 820,-42 803.9592,-39.2926 786.4402,-34.727 772.0762,-30.5431"/>
<polygon fill="#191970" stroke="#191970" points="1406.9867,-88.8778 1417.1439,-85.8642 1407.3243,-81.886 1406.9867,-88.8778"/>
</g>
<!-- Node13&#45;&gt;Node16 -->
<g id="edge13" class="edge">
<title>Node13&#45;&gt;Node16</title>
<path fill="none" stroke="#191970" d="M1407.4244,-86.5467C1314.1555,-83.3009 1120.5663,-73.1011 960,-42 945.6752,-39.2253 930.0945,-34.7058 917.277,-30.5689"/>
<polygon fill="#191970" stroke="#191970" points="1407.3722,-90.0468 1417.4836,-86.8831 1407.6062,-83.0507 1407.3722,-90.0468"/>
</g>
<!-- Node13&#45;&gt;Node17 -->
<g id="edge14" class="edge">
<title>Node13&#45;&gt;Node17</title>
<path fill="none" stroke="#191970" d="M1407.3296,-86.2925C1329.4255,-82.8457 1183.9637,-72.5423 1064,-42 1057.8671,-40.4386 1051.4963,-38.3163 1045.4036,-36.0185"/>
<polygon fill="#191970" stroke="#191970" points="1407.2675,-89.7929 1417.4058,-86.7165 1407.5619,-82.7991 1407.2675,-89.7929"/>
</g>
<!-- Node13&#45;&gt;Node18 -->
<g id="edge15" class="edge">
<title>Node13&#45;&gt;Node18</title>
<path fill="none" stroke="#191970" d="M1407.1889,-80.8334C1352.4485,-73.248 1266.8342,-59.8954 1194,-42 1187.0901,-40.3022 1179.8486,-38.2467 1172.8106,-36.0944"/>
<polygon fill="#191970" stroke="#191970" points="1406.9942,-84.3393 1417.3765,-82.2279 1407.9435,-77.404 1406.9942,-84.3393"/>
</g>
<!-- Node13&#45;&gt;Node19 -->
<g id="edge16" class="edge">
<title>Node13&#45;&gt;Node19</title>
<path fill="none" stroke="#191970" d="M1424.1772,-75.2494C1390.1571,-64.0761 1340.6696,-47.8229 1304.7379,-36.0218"/>
<polygon fill="#191970" stroke="#191970" points="1423.1789,-78.6054 1433.7718,-78.4005 1425.3632,-71.9549 1423.1789,-78.6054"/>
</g>
<!-- Node13&#45;&gt;Node20 -->
<g id="edge17" class="edge">
<title>Node13&#45;&gt;Node20</title>
<path fill="none" stroke="#191970" d="M1444.7641,-71.4892C1432.781,-60.6395 1417.2267,-46.5566 1405.5912,-36.0218"/>
<polygon fill="#191970" stroke="#191970" points="1442.6355,-74.2833 1452.3976,-78.4005 1447.3337,-69.0942 1442.6355,-74.2833"/>
</g>
<!-- Node13&#45;&gt;Node21 -->
<g id="edge18" class="edge">
<title>Node13&#45;&gt;Node21</title>
<path fill="none" stroke="#191970" d="M1477.5915,-70.5423C1486.5451,-59.83 1497.8932,-46.2528 1506.4445,-36.0218"/>
<polygon fill="#191970" stroke="#191970" points="1474.7511,-68.4831 1471.0234,-78.4005 1480.1221,-72.9723 1474.7511,-68.4831"/>
</g>
<!-- Node13&#45;&gt;Node22 -->
<g id="edge19" class="edge">
<title>Node13&#45;&gt;Node22</title>
<path fill="none" stroke="#191970" d="M1500.1722,-74.9605C1531.9954,-63.7974 1577.8236,-47.7216 1611.1768,-36.0218"/>
<polygon fill="#191970" stroke="#191970" points="1498.6434,-71.7877 1490.3656,-78.4005 1500.9605,-78.3931 1498.6434,-71.7877"/>
</g>
<!-- Node13&#45;&gt;Node23 -->
<g id="edge20" class="edge">
<title>Node13&#45;&gt;Node23</title>
<path fill="none" stroke="#191970" d="M1519.0383,-79.8277C1571.9279,-71.7043 1653.2922,-58.1459 1723,-42 1730.58,-40.2443 1738.5436,-38.1824 1746.3112,-36.0488"/>
<polygon fill="#191970" stroke="#191970" points="1518.2109,-76.4133 1508.8519,-81.3791 1519.2649,-83.3335 1518.2109,-76.4133"/>
</g>
<!-- Node13&#45;&gt;Node24 -->
<g id="edge21" class="edge">
<title>Node13&#45;&gt;Node24</title>
<path fill="none" stroke="#191970" d="M1518.9002,-85.1813C1597.5568,-80.4188 1745.0402,-68.5673 1868,-42 1870.8979,-41.3739 1873.8497,-40.6698 1876.8172,-39.9089"/>
<polygon fill="#191970" stroke="#191970" points="1518.5071,-81.6983 1508.7303,-85.7805 1518.9189,-88.6861 1518.5071,-81.6983"/>
</g>
<!-- Node13&#45;&gt;Node25 -->
<g id="edge22" class="edge">
<title>Node13&#45;&gt;Node25</title>
<path fill="none" stroke="#191970" d="M1518.9686,-84.8002C1636.9024,-77.7943 1907.5207,-60.2592 1998,-42 2000.9062,-41.4135 2003.8646,-40.7413 2006.8374,-40.0057"/>
<polygon fill="#191970" stroke="#191970" points="1518.4932,-81.3221 1508.7169,-85.4055 1518.9058,-88.3099 1518.4932,-81.3221"/>
</g>
<!-- Node13&#45;&gt;Node26 -->
<g id="edge23" class="edge">
<title>Node13&#45;&gt;Node26</title>
<path fill="none" stroke="#191970" d="M1518.8902,-85.5089C1656.9408,-79.1343 2011.3083,-61.3635 2128,-42 2144.2402,-39.3052 2161.9831,-34.7407 2176.5325,-30.5544"/>
<polygon fill="#191970" stroke="#191970" points="1518.378,-82.0286 1508.5491,-85.9837 1518.6992,-89.0212 1518.378,-82.0286"/>
</g>
<!-- Node13&#45;&gt;Node27 -->
<g id="edge24" class="edge">
<title>Node13&#45;&gt;Node27</title>
<path fill="none" stroke="#191970" d="M1518.7288,-85.5356C1691.4535,-77.8066 2210.7603,-53.8545 2286,-42 2302.5958,-39.3852 2320.7322,-34.7741 2335.5345,-30.5376"/>
<polygon fill="#191970" stroke="#191970" points="1518.4178,-82.0459 1508.5839,-85.9887 1518.7302,-89.0389 1518.4178,-82.0459"/>
</g>
<!-- Node13&#45;&gt;Node28 -->
<g id="edge26" class="edge">
<title>Node13&#45;&gt;Node28</title>
<path fill="none" stroke="#191970" d="M1518.5726,-86.3946C1713.0429,-80.6396 2356.123,-60.4077 2447,-42 2454.0286,-40.5763 2461.345,-38.4273 2468.3003,-36.0387"/>
<polygon fill="#191970" stroke="#191970" points="1518.463,-82.8962 1508.5705,-86.6895 1518.6693,-89.8931 1518.463,-82.8962"/>
</g>
<!-- Node13&#45;&gt;Node29 -->
<g id="edge27" class="edge">
<title>Node13&#45;&gt;Node29</title>
<path fill="none" stroke="#191970" d="M1518.98,-86.4891C1728.4019,-80.7228 2458.9628,-59.5424 2562,-42 2570.394,-40.5709 2579.197,-38.4193 2587.5996,-36.0299"/>
<polygon fill="#191970" stroke="#191970" points="1518.725,-82.9947 1508.8248,-86.7679 1518.9171,-89.9921 1518.725,-82.9947"/>
</g>
<!-- Node13&#45;&gt;Node30 -->
<g id="edge29" class="edge">
<title>Node13&#45;&gt;Node30</title>
<path fill="none" stroke="#191970" d="M1519.1444,-86.6107C1745.338,-80.9185 2583.3116,-58.8821 2701,-42 2711.005,-40.5648 2721.551,-38.4104 2731.6447,-36.0201"/>
<polygon fill="#191970" stroke="#191970" points="1518.75,-83.1194 1508.841,-86.8693 1518.9257,-90.1172 1518.75,-83.1194"/>
</g>
<!-- Node13&#45;&gt;Node31 -->
<g id="edge30" class="edge">
<title>Node13&#45;&gt;Node31</title>
<path fill="none" stroke="#191970" d="M1518.9221,-87.0767C1763.4871,-82.9156 2732.7557,-65.0995 2867,-42 2875.0581,-40.6134 2883.4921,-38.4818 2891.5338,-36.0987"/>
<polygon fill="#191970" stroke="#191970" points="1518.776,-83.5786 1508.8368,-87.2475 1518.8947,-90.5776 1518.776,-83.5786"/>
</g>
<!-- Node13&#45;&gt;Node32 -->
<g id="edge31" class="edge">
<title>Node13&#45;&gt;Node32</title>
<path fill="none" stroke="#191970" d="M1518.7809,-86.7639C1785.9301,-80.7885 2924.7534,-54.6682 2999,-42 3007.1786,-40.6045 3015.7432,-38.4357 3023.8914,-36.0118"/>
<polygon fill="#191970" stroke="#191970" points="1518.4644,-83.27 1508.5451,-86.9925 1518.6208,-90.2682 1518.4644,-83.27"/>
</g>
</g>
</svg>
