<?xml version="1.0" encoding="UTF-8" standalone="no"?>
<!DOCTYPE svg PUBLIC "-//W3C//DTD SVG 1.1//EN"
 "http://www.w3.org/Graphics/SVG/1.1/DTD/svg11.dtd">
<!-- Generated by graphviz version 2.40.1 (20161225.0304)
 -->
<!-- Title: rand_class.h Pages: 1 -->
<svg width="3133pt" height="218pt"
 viewBox="0.00 0.00 3133.00 218.00" xmlns="http://www.w3.org/2000/svg" xmlns:xlink="http://www.w3.org/1999/xlink">
<g id="graph0" class="graph" transform="scale(1 1) rotate(0) translate(4 214)">
<title>rand_class.h</title>
<polygon fill="#ffffff" stroke="transparent" points="-4,4 -4,-214 3129,-214 3129,4 -4,4"/>
<!-- Node11 -->
<g id="node1" class="node">
<title>Node11</title>
<polygon fill="#bfbfbf" stroke="#000000" points="1474,-190.5 1474,-209.5 1546,-209.5 1546,-190.5 1474,-190.5"/>
<text text-anchor="middle" x="1510" y="-197.5" font-family="Helvetica,sans-Serif" font-size="10.00" fill="#000000">rand_class.h</text>
</g>
<!-- Node12 -->
<g id="node2" class="node">
<title>Node12</title>
<g id="a_node2"><a xlink:href="$field_8h.html" xlink:title="field.h">
<polygon fill="#ffffff" stroke="#000000" points="1488.5,-134.5 1488.5,-153.5 1531.5,-153.5 1531.5,-134.5 1488.5,-134.5"/>
<text text-anchor="middle" x="1510" y="-141.5" font-family="Helvetica,sans-Serif" font-size="10.00" fill="#000000">field.h</text>
</a>
</g>
</g>
<!-- Node11&#45;&gt;Node12 -->
<g id="edge1" class="edge">
<title>Node11&#45;&gt;Node12</title>
<path fill="none" stroke="#191970" d="M1510,-180.1575C1510,-171.155 1510,-160.9199 1510,-153.6427"/>
<polygon fill="#191970" stroke="#191970" points="1506.5001,-180.2455 1510,-190.2455 1513.5001,-180.2456 1506.5001,-180.2455"/>
</g>
<!-- Node15 -->
<g id="node5" class="node">
<title>Node15</title>
<g id="a_node5"><a xlink:href="$main__omp_8cpp.html" xlink:title="main_omp.cpp">
<polygon fill="#ffffff" stroke="#000000" points="250,-11.5 250,-30.5 330,-30.5 330,-11.5 250,-11.5"/>
<text text-anchor="middle" x="290" y="-18.5" font-family="Helvetica,sans-Serif" font-size="10.00" fill="#000000">main_omp.cpp</text>
</a>
</g>
</g>
<!-- Node11&#45;&gt;Node15 -->
<g id="edge55" class="edge">
<title>Node11&#45;&gt;Node15</title>
<path fill="none" stroke="#191970" d="M1463.8698,-198.8438C1310.474,-194.7879 818.3889,-180.0266 662,-154 571.7888,-138.9869 550.0283,-129.0257 464,-98 406.356,-77.211 340.8905,-46.1203 309.2051,-30.5727"/>
<polygon fill="#191970" stroke="#191970" points="1463.8107,-202.3433 1473.899,-199.1064 1463.994,-195.3457 1463.8107,-202.3433"/>
</g>
<!-- Node16 -->
<g id="node6" class="node">
<title>Node16</title>
<g id="a_node6"><a xlink:href="$test__noise__vectors__and__cholesky__decomposition_8cpp.html" xlink:title="tests/test_noise_vectors\l_and_cholesky_decomposition.cpp">
<polygon fill="#ffffff" stroke="#000000" points="348.5,-6 348.5,-36 517.5,-36 517.5,-6 348.5,-6"/>
<text text-anchor="start" x="356.5" y="-24" font-family="Helvetica,sans-Serif" font-size="10.00" fill="#000000">tests/test_noise_vectors</text>
<text text-anchor="middle" x="433" y="-13" font-family="Helvetica,sans-Serif" font-size="10.00" fill="#000000">_and_cholesky_decomposition.cpp</text>
</a>
</g>
</g>
<!-- Node11&#45;&gt;Node16 -->
<g id="edge70" class="edge">
<title>Node11&#45;&gt;Node16</title>
<path fill="none" stroke="#191970" d="M1463.6185,-197.5687C1275.534,-187.4125 575.6168,-146.6367 490,-98 465.2705,-83.9518 448.1457,-54.3151 439.5,-36.1832"/>
<polygon fill="#191970" stroke="#191970" points="1463.5562,-201.0703 1473.7296,-198.1118 1463.9317,-194.0804 1463.5562,-201.0703"/>
</g>
<!-- Node17 -->
<g id="node7" class="node">
<title>Node17</title>
<g id="a_node7"><a xlink:href="$test__position__evolution__coupling__noise_8cpp.html" xlink:title="tests/test_position\l_evolution_coupling\l_noise.cpp">
<polygon fill="#ffffff" stroke="#000000" points="130,-.5 130,-41.5 232,-41.5 232,-.5 130,-.5"/>
<text text-anchor="start" x="138" y="-29.5" font-family="Helvetica,sans-Serif" font-size="10.00" fill="#000000">tests/test_position</text>
<text text-anchor="start" x="138" y="-18.5" font-family="Helvetica,sans-Serif" font-size="10.00" fill="#000000">_evolution_coupling</text>
<text text-anchor="middle" x="181" y="-7.5" font-family="Helvetica,sans-Serif" font-size="10.00" fill="#000000">_noise.cpp</text>
</a>
</g>
</g>
<!-- Node11&#45;&gt;Node17 -->
<g id="edge73" class="edge">
<title>Node11&#45;&gt;Node17</title>
<path fill="none" stroke="#191970" d="M1463.6924,-198.9128C1298.9257,-194.8626 741.5681,-179.5553 565,-154 460.8764,-138.9299 433.7853,-134.1982 335,-98 292.7593,-82.5216 246.9597,-58.63 216.3847,-41.5669"/>
<polygon fill="#191970" stroke="#191970" points="1463.887,-202.4185 1473.9694,-199.1633 1464.0577,-195.4206 1463.887,-202.4185"/>
</g>
<!-- Node19 -->
<g id="node9" class="node">
<title>Node19</title>
<g id="a_node9"><a xlink:href="$test__accumulation_8cpp.html" xlink:title="tests/test_accumulation.cpp">
<polygon fill="#ffffff" stroke="#000000" points="808,-11.5 808,-30.5 948,-30.5 948,-11.5 808,-11.5"/>
<text text-anchor="middle" x="878" y="-18.5" font-family="Helvetica,sans-Serif" font-size="10.00" fill="#000000">tests/test_accumulation.cpp</text>
</a>
</g>
</g>
<!-- Node11&#45;&gt;Node19 -->
<g id="edge56" class="edge">
<title>Node11&#45;&gt;Node19</title>
<path fill="none" stroke="#191970" d="M1463.7764,-188.2976C1428.2232,-179.2051 1377.9129,-166.14 1334,-154 1174.0389,-109.7777 983.7689,-52.89 909.7004,-30.5798"/>
<polygon fill="#191970" stroke="#191970" points="1463.2984,-191.7878 1473.8533,-190.8695 1465.0295,-185.0052 1463.2984,-191.7878"/>
</g>
<!-- Node20 -->
<g id="node10" class="node">
<title>Node20</title>
<g id="a_node10"><a xlink:href="$test__exponentiate_8cpp.html" xlink:title="tests/test_exponentiate.cpp">
<polygon fill="#ffffff" stroke="#000000" points="966.5,-11.5 966.5,-30.5 1103.5,-30.5 1103.5,-11.5 966.5,-11.5"/>
<text text-anchor="middle" x="1035" y="-18.5" font-family="Helvetica,sans-Serif" font-size="10.00" fill="#000000">tests/test_exponentiate.cpp</text>
</a>
</g>
</g>
<!-- Node11&#45;&gt;Node20 -->
<g id="edge57" class="edge">
<title>Node11&#45;&gt;Node20</title>
<path fill="none" stroke="#191970" d="M1474.1868,-186.9341C1449.1743,-177.781 1415.0198,-165.227 1385,-154 1262.9264,-108.3459 1117.3772,-52.6215 1060.0055,-30.6056"/>
<polygon fill="#191970" stroke="#191970" points="1473.0393,-190.2412 1483.6332,-190.3884 1475.4434,-183.6669 1473.0393,-190.2412"/>
</g>
<!-- Node21 -->
<g id="node11" class="node">
<title>Node21</title>
<g id="a_node11"><a xlink:href="$test__hermitian_8cpp.html" xlink:title="tests/test_hermitian.cpp">
<polygon fill="#ffffff" stroke="#000000" points="1486,-11.5 1486,-30.5 1608,-30.5 1608,-11.5 1486,-11.5"/>
<text text-anchor="middle" x="1547" y="-18.5" font-family="Helvetica,sans-Serif" font-size="10.00" fill="#000000">tests/test_hermitian.cpp</text>
</a>
</g>
</g>
<!-- Node11&#45;&gt;Node21 -->
<g id="edge58" class="edge">
<title>Node11&#45;&gt;Node21</title>
<path fill="none" stroke="#191970" d="M1494.5388,-182.4201C1488.4366,-174.3418 1482.1409,-164.2808 1479,-154 1473.3798,-135.6037 1480.5769,-88.6282 1486,-78 1496.4745,-57.4722 1517.4689,-40.4556 1531.8749,-30.5074"/>
<polygon fill="#191970" stroke="#191970" points="1491.9184,-184.7461 1500.9259,-190.3243 1497.363,-180.3465 1491.9184,-184.7461"/>
</g>
<!-- Node22 -->
<g id="node12" class="node">
<title>Node22</title>
<g id="a_node12"><a xlink:href="$test__initial__condition_8cpp.html" xlink:title="tests/test_initial\l_condition.cpp">
<polygon fill="#ffffff" stroke="#000000" points="1122,-6 1122,-36 1208,-36 1208,-6 1122,-6"/>
<text text-anchor="start" x="1130" y="-24" font-family="Helvetica,sans-Serif" font-size="10.00" fill="#000000">tests/test_initial</text>
<text text-anchor="middle" x="1165" y="-13" font-family="Helvetica,sans-Serif" font-size="10.00" fill="#000000">_condition.cpp</text>
</a>
</g>
</g>
<!-- Node11&#45;&gt;Node22 -->
<g id="edge59" class="edge">
<title>Node11&#45;&gt;Node22</title>
<path fill="none" stroke="#191970" d="M1482.3414,-185.6496C1418.1818,-152.361 1259.7072,-70.138 1194.1311,-36.1144"/>
<polygon fill="#191970" stroke="#191970" points="1480.963,-188.8774 1491.4513,-190.3762 1484.1868,-182.664 1480.963,-188.8774"/>
</g>
<!-- Node23 -->
<g id="node13" class="node">
<title>Node23</title>
<g id="a_node13"><a xlink:href="$test__initial__condition__fftw1d_8cpp.html" xlink:title="tests/test_initial\l_condition_fftw1d.cpp">
<polygon fill="#ffffff" stroke="#000000" points="1226,-6 1226,-36 1338,-36 1338,-6 1226,-6"/>
<text text-anchor="start" x="1234" y="-24" font-family="Helvetica,sans-Serif" font-size="10.00" fill="#000000">tests/test_initial</text>
<text text-anchor="middle" x="1282" y="-13" font-family="Helvetica,sans-Serif" font-size="10.00" fill="#000000">_condition_fftw1d.cpp</text>
</a>
</g>
</g>
<!-- Node11&#45;&gt;Node23 -->
<g id="edge60" class="edge">
<title>Node11&#45;&gt;Node23</title>
<path fill="none" stroke="#191970" d="M1489.8654,-184.1925C1446.3962,-150.0654 1344.2389,-69.863 1301.4207,-36.2469"/>
<polygon fill="#191970" stroke="#191970" points="1487.7148,-186.9539 1497.7417,-190.3762 1492.0375,-181.448 1487.7148,-186.9539"/>
</g>
<!-- Node24 -->
<g id="node14" class="node">
<title>Node24</title>
<g id="a_node14"><a xlink:href="$test__momentum__coupling_8cpp.html" xlink:title="tests/test_momentum\l_coupling.cpp">
<polygon fill="#ffffff" stroke="#000000" points="1356,-6 1356,-36 1468,-36 1468,-6 1356,-6"/>
<text text-anchor="start" x="1364" y="-24" font-family="Helvetica,sans-Serif" font-size="10.00" fill="#000000">tests/test_momentum</text>
<text text-anchor="middle" x="1412" y="-13" font-family="Helvetica,sans-Serif" font-size="10.00" fill="#000000">_coupling.cpp</text>
</a>
</g>
</g>
<!-- Node11&#45;&gt;Node24 -->
<g id="edge61" class="edge">
<title>Node11&#45;&gt;Node24</title>
<path fill="none" stroke="#191970" d="M1494.4235,-182.7401C1487.3641,-174.4157 1479.2247,-164.0688 1473,-154 1448.1542,-113.8102 1427.211,-61.8114 1417.6153,-36.3795"/>
<polygon fill="#191970" stroke="#191970" points="1491.805,-185.0627 1501.0119,-190.3052 1497.0838,-180.4655 1491.805,-185.0627"/>
</g>
<!-- Node25 -->
<g id="node15" class="node">
<title>Node25</title>
<g id="a_node15"><a xlink:href="$test__momentum__coupling__fft_8cpp.html" xlink:title="tests/test_momentum\l_coupling_fft.cpp">
<polygon fill="#ffffff" stroke="#000000" points="0,-6 0,-36 112,-36 112,-6 0,-6"/>
<text text-anchor="start" x="8" y="-24" font-family="Helvetica,sans-Serif" font-size="10.00" fill="#000000">tests/test_momentum</text>
<text text-anchor="middle" x="56" y="-13" font-family="Helvetica,sans-Serif" font-size="10.00" fill="#000000">_coupling_fft.cpp</text>
</a>
</g>
</g>
<!-- Node11&#45;&gt;Node25 -->
<g id="edge62" class="edge">
<title>Node11&#45;&gt;Node25</title>
<path fill="none" stroke="#191970" d="M1463.8581,-199.3444C1286.3543,-196.6144 647.4923,-184.8184 447,-154 351.9509,-139.3896 328.9449,-129.2543 238,-98 184.3015,-79.5459 123.9681,-52.7708 88.0213,-36.1463"/>
<polygon fill="#191970" stroke="#191970" points="1463.8576,-202.8447 1473.9095,-199.4968 1463.9638,-195.8455 1463.8576,-202.8447"/>
</g>
<!-- Node26 -->
<g id="node16" class="node">
<title>Node26</title>
<g id="a_node16"><a xlink:href="$test__momentum__evolution_8cpp.html" xlink:title="tests/test_momentum\l_evolution.cpp">
<polygon fill="#ffffff" stroke="#000000" points="1923,-6 1923,-36 2035,-36 2035,-6 1923,-6"/>
<text text-anchor="start" x="1931" y="-24" font-family="Helvetica,sans-Serif" font-size="10.00" fill="#000000">tests/test_momentum</text>
<text text-anchor="middle" x="1979" y="-13" font-family="Helvetica,sans-Serif" font-size="10.00" fill="#000000">_evolution.cpp</text>
</a>
</g>
</g>
<!-- Node11&#45;&gt;Node26 -->
<g id="edge63" class="edge">
<title>Node11&#45;&gt;Node26</title>
<path fill="none" stroke="#191970" d="M1556.6129,-196.0322C1630.4148,-189.2439 1770.4675,-174.1591 1816,-154 1880.4557,-125.4628 1940.3694,-64.3605 1965.9545,-36.015"/>
<polygon fill="#191970" stroke="#191970" points="1555.8674,-192.5853 1546.2239,-196.9732 1556.4989,-199.5568 1555.8674,-192.5853"/>
</g>
<!-- Node27 -->
<g id="node17" class="node">
<title>Node27</title>
<g id="a_node17"><a xlink:href="$test__momentum__evolution__coupling_8cpp.html" xlink:title="tests/test_momentum\l_evolution_coupling.cpp">
<polygon fill="#ffffff" stroke="#000000" points="2219.5,-6 2219.5,-36 2340.5,-36 2340.5,-6 2219.5,-6"/>
<text text-anchor="start" x="2227.5" y="-24" font-family="Helvetica,sans-Serif" font-size="10.00" fill="#000000">tests/test_momentum</text>
<text text-anchor="middle" x="2280" y="-13" font-family="Helvetica,sans-Serif" font-size="10.00" fill="#000000">_evolution_coupling.cpp</text>
</a>
</g>
</g>
<!-- Node11&#45;&gt;Node27 -->
<g id="edge64" class="edge">
<title>Node11&#45;&gt;Node27</title>
<path fill="none" stroke="#191970" d="M1556.3116,-197.476C1628.2596,-192.8634 1770.8981,-180.9472 1889,-154 2023.2176,-123.3757 2176.0463,-63.8754 2244.0721,-36.0392"/>
<polygon fill="#191970" stroke="#191970" points="1555.9837,-193.9896 1546.2206,-198.1045 1556.4189,-200.976 1555.9837,-193.9896"/>
</g>
<!-- Node28 -->
<g id="node18" class="node">
<title>Node28</title>
<g id="a_node18"><a xlink:href="$test__momentum__evolution__coupling2_8cpp.html" xlink:title="tests/test_momentum\l_evolution_coupling2.cpp">
<polygon fill="#ffffff" stroke="#000000" points="2607,-6 2607,-36 2733,-36 2733,-6 2607,-6"/>
<text text-anchor="start" x="2615" y="-24" font-family="Helvetica,sans-Serif" font-size="10.00" fill="#000000">tests/test_momentum</text>
<text text-anchor="middle" x="2670" y="-13" font-family="Helvetica,sans-Serif" font-size="10.00" fill="#000000">_evolution_coupling2.cpp</text>
</a>
</g>
</g>
<!-- Node11&#45;&gt;Node28 -->
<g id="edge65" class="edge">
<title>Node11&#45;&gt;Node28</title>
<path fill="none" stroke="#191970" d="M1556.4684,-198.146C1652.7051,-193.8752 1880.6493,-181.5242 2070,-154 2189.9876,-136.5585 2218.3911,-123.1626 2337,-98 2453.0571,-73.3788 2482.9773,-71.0731 2598,-42 2605.1956,-40.1812 2612.7563,-38.1313 2620.1629,-36.0433"/>
<polygon fill="#191970" stroke="#191970" points="1556.0479,-194.6609 1546.2097,-198.5926 1556.3525,-201.6542 1556.0479,-194.6609"/>
</g>
<!-- Node29 -->
<g id="node19" class="node">
<title>Node29</title>
<g id="a_node19"><a xlink:href="$test__momentum__evolution__coupling__lambda_8cpp.html" xlink:title="tests/test_momentum\l_evolution_coupling\l_lambda.cpp">
<polygon fill="#ffffff" stroke="#000000" points="2751,-.5 2751,-41.5 2863,-41.5 2863,-.5 2751,-.5"/>
<text text-anchor="start" x="2759" y="-29.5" font-family="Helvetica,sans-Serif" font-size="10.00" fill="#000000">tests/test_momentum</text>
<text text-anchor="start" x="2759" y="-18.5" font-family="Helvetica,sans-Serif" font-size="10.00" fill="#000000">_evolution_coupling</text>
<text text-anchor="middle" x="2807" y="-7.5" font-family="Helvetica,sans-Serif" font-size="10.00" fill="#000000">_lambda.cpp</text>
</a>
</g>
</g>
<!-- Node11&#45;&gt;Node29 -->
<g id="edge66" class="edge">
<title>Node11&#45;&gt;Node29</title>
<path fill="none" stroke="#191970" d="M1556.508,-198.3608C1661.003,-194.2927 1922.2016,-181.9741 2139,-154 2409.3424,-119.117 2477.7606,-108.928 2742,-42 2744.874,-41.2721 2747.8066,-40.486 2750.7589,-39.6602"/>
<polygon fill="#191970" stroke="#191970" points="1556.1633,-194.8713 1546.3044,-198.751 1556.4309,-201.8662 1556.1633,-194.8713"/>
</g>
<!-- Node30 -->
<g id="node20" class="node">
<title>Node30</title>
<g id="a_node20"><a xlink:href="$test__momentum__evolution__coupling__lambda__noise_8cpp.html" xlink:title="tests/test_momentum\l_evolution_coupling\l_lambda_noise.cpp">
<polygon fill="#ffffff" stroke="#000000" points="2881,-.5 2881,-41.5 2993,-41.5 2993,-.5 2881,-.5"/>
<text text-anchor="start" x="2889" y="-29.5" font-family="Helvetica,sans-Serif" font-size="10.00" fill="#000000">tests/test_momentum</text>
<text text-anchor="start" x="2889" y="-18.5" font-family="Helvetica,sans-Serif" font-size="10.00" fill="#000000">_evolution_coupling</text>
<text text-anchor="middle" x="2937" y="-7.5" font-family="Helvetica,sans-Serif" font-size="10.00" fill="#000000">_lambda_noise.cpp</text>
</a>
</g>
</g>
<!-- Node11&#45;&gt;Node30 -->
<g id="edge67" class="edge">
<title>Node11&#45;&gt;Node30</title>
<path fill="none" stroke="#191970" d="M1556.4463,-198.6314C1670.7907,-194.9121 1974.9392,-182.8929 2227,-154 2378.2795,-136.6593 2414.9848,-124.1077 2565,-98 2701.642,-74.2197 2737.4952,-75.8379 2872,-42 2874.8752,-41.2767 2877.8087,-40.4944 2880.7617,-39.6715"/>
<polygon fill="#191970" stroke="#191970" points="1556.1827,-195.1379 1546.2996,-198.9557 1556.4064,-202.1344 1556.1827,-195.1379"/>
</g>
<!-- Node31 -->
<g id="node21" class="node">
<title>Node31</title>
<g id="a_node21"><a xlink:href="$test__multiplication_8cpp.html" xlink:title="tests/test_multiplication.cpp">
<polygon fill="#ffffff" stroke="#000000" points="1626.5,-11.5 1626.5,-30.5 1765.5,-30.5 1765.5,-11.5 1626.5,-11.5"/>
<text text-anchor="middle" x="1696" y="-18.5" font-family="Helvetica,sans-Serif" font-size="10.00" fill="#000000">tests/test_multiplication.cpp</text>
</a>
</g>
</g>
<!-- Node11&#45;&gt;Node31 -->
<g id="edge68" class="edge">
<title>Node11&#45;&gt;Node31</title>
<path fill="none" stroke="#191970" d="M1556.2441,-192.9178C1640.3458,-178.991 1812.915,-145.2356 1848,-98 1853.3002,-90.8642 1853.0631,-85.306 1848,-78 1840.8162,-67.6338 1769.3647,-43.8964 1727.032,-30.5547"/>
<polygon fill="#191970" stroke="#191970" points="1555.5048,-189.4921 1546.1987,-194.5565 1556.6318,-196.4008 1555.5048,-189.4921"/>
</g>
<!-- Node32 -->
<g id="node22" class="node">
<title>Node32</title>
<g id="a_node22"><a xlink:href="$test__noise__vectors_8cpp.html" xlink:title="tests/test_noise_vectors.cpp">
<polygon fill="#ffffff" stroke="#000000" points="646.5,-11.5 646.5,-30.5 789.5,-30.5 789.5,-11.5 646.5,-11.5"/>
<text text-anchor="middle" x="718" y="-18.5" font-family="Helvetica,sans-Serif" font-size="10.00" fill="#000000">tests/test_noise_vectors.cpp</text>
</a>
</g>
</g>
<!-- Node11&#45;&gt;Node32 -->
<g id="edge69" class="edge">
<title>Node11&#45;&gt;Node32</title>
<path fill="none" stroke="#191970" d="M1463.755,-192.3462C1413.2748,-183.8002 1330.1403,-169.1663 1259,-154 1067.2096,-113.1126 839.8691,-53.5658 753.5901,-30.5624"/>
<polygon fill="#191970" stroke="#191970" points="1463.2661,-195.8131 1473.7088,-194.0239 1464.4296,-188.9104 1463.2661,-195.8131"/>
</g>
<!-- Node33 -->
<g id="node23" class="node">
<title>Node33</title>
<g id="a_node23"><a xlink:href="$test__position__evolution_8cpp.html" xlink:title="tests/test_position\l_evolution.cpp">
<polygon fill="#ffffff" stroke="#000000" points="2491.5,-6 2491.5,-36 2588.5,-36 2588.5,-6 2491.5,-6"/>
<text text-anchor="start" x="2499.5" y="-24" font-family="Helvetica,sans-Serif" font-size="10.00" fill="#000000">tests/test_position</text>
<text text-anchor="middle" x="2540" y="-13" font-family="Helvetica,sans-Serif" font-size="10.00" fill="#000000">_evolution.cpp</text>
</a>
</g>
</g>
<!-- Node11&#45;&gt;Node33 -->
<g id="edge71" class="edge">
<title>Node11&#45;&gt;Node33</title>
<path fill="none" stroke="#191970" d="M1556.2723,-197.7383C1643.5164,-193.0138 1838.1135,-180.2844 2000,-154 2217.0867,-118.7532 2271.1192,-104.436 2482,-42 2487.9558,-40.2367 2494.19,-38.1944 2500.2708,-36.0901"/>
<polygon fill="#191970" stroke="#191970" points="1555.9744,-194.2491 1546.1744,-198.2751 1556.3461,-201.2392 1555.9744,-194.2491"/>
</g>
<!-- Node34 -->
<g id="node24" class="node">
<title>Node34</title>
<g id="a_node24"><a xlink:href="$test__position__evolution__coupling_8cpp.html" xlink:title="tests/test_position\l_evolution_coupling.cpp">
<polygon fill="#ffffff" stroke="#000000" points="1783.5,-6 1783.5,-36 1904.5,-36 1904.5,-6 1783.5,-6"/>
<text text-anchor="start" x="1791.5" y="-24" font-family="Helvetica,sans-Serif" font-size="10.00" fill="#000000">tests/test_position</text>
<text text-anchor="middle" x="1844" y="-13" font-family="Helvetica,sans-Serif" font-size="10.00" fill="#000000">_evolution_coupling.cpp</text>
</a>
</g>
</g>
<!-- Node11&#45;&gt;Node34 -->
<g id="edge72" class="edge">
<title>Node11&#45;&gt;Node34</title>
<path fill="none" stroke="#191970" d="M1556.0682,-197.6103C1610.3177,-193.5461 1702.3624,-182.6951 1776,-154 1818.8462,-137.3037 1840.9765,-138.3675 1863,-98 1873.8149,-78.1771 1862.9756,-52.1514 1853.7881,-36.0057"/>
<polygon fill="#191970" stroke="#191970" points="1555.7947,-194.1208 1546.0652,-198.3145 1556.2863,-201.1036 1555.7947,-194.1208"/>
</g>
<!-- Node35 -->
<g id="node25" class="node">
<title>Node35</title>
<g id="a_node25"><a xlink:href="$test__position__evolution__hatta__coupling_8cpp.html" xlink:title="tests/test_position\l_evolution_hatta_coupling.cpp">
<polygon fill="#ffffff" stroke="#000000" points="2053,-6 2053,-36 2201,-36 2201,-6 2053,-6"/>
<text text-anchor="start" x="2061" y="-24" font-family="Helvetica,sans-Serif" font-size="10.00" fill="#000000">tests/test_position</text>
<text text-anchor="middle" x="2127" y="-13" font-family="Helvetica,sans-Serif" font-size="10.00" fill="#000000">_evolution_hatta_coupling.cpp</text>
</a>
</g>
</g>
<!-- Node11&#45;&gt;Node35 -->
<g id="edge74" class="edge">
<title>Node11&#45;&gt;Node35</title>
<path fill="none" stroke="#191970" d="M1556.2343,-198.1768C1622.0609,-194.5805 1746.011,-184.0874 1847,-154 1946.2839,-124.4206 2054.5755,-64.1232 2102.1896,-36.03"/>
<polygon fill="#191970" stroke="#191970" points="1555.9869,-194.6848 1546.181,-198.6967 1556.3485,-201.6755 1555.9869,-194.6848"/>
</g>
<!-- Node36 -->
<g id="node26" class="node">
<title>Node36</title>
<g id="a_node26"><a xlink:href="$test__symmetrize__average_8cpp.html" xlink:title="tests/test_symmetrize\l_average.cpp">
<polygon fill="#ffffff" stroke="#000000" points="2359,-6 2359,-36 2473,-36 2473,-6 2359,-6"/>
<text text-anchor="start" x="2367" y="-24" font-family="Helvetica,sans-Serif" font-size="10.00" fill="#000000">tests/test_symmetrize</text>
<text text-anchor="middle" x="2416" y="-13" font-family="Helvetica,sans-Serif" font-size="10.00" fill="#000000">_average.cpp</text>
</a>
</g>
</g>
<!-- Node11&#45;&gt;Node36 -->
<g id="edge75" class="edge">
<title>Node11&#45;&gt;Node36</title>
<path fill="none" stroke="#191970" d="M1556.1583,-197.4427C1634.9954,-192.5406 1800.4164,-179.9251 1938,-154 2124.4748,-118.8622 2167.9912,-95.6685 2350,-42 2356.3434,-40.1295 2363.0075,-38.0935 2369.5618,-36.0493"/>
<polygon fill="#191970" stroke="#191970" points="1555.8421,-193.9554 1546.0733,-198.0569 1556.2676,-200.9425 1555.8421,-193.9554"/>
</g>
<!-- Node37 -->
<g id="node27" class="node">
<title>Node37</title>
<g id="a_node27"><a xlink:href="$test__symmetrize__average2_8cpp.html" xlink:title="tests/test_symmetrize\l_average2.cpp">
<polygon fill="#ffffff" stroke="#000000" points="3011,-6 3011,-36 3125,-36 3125,-6 3011,-6"/>
<text text-anchor="start" x="3019" y="-24" font-family="Helvetica,sans-Serif" font-size="10.00" fill="#000000">tests/test_symmetrize</text>
<text text-anchor="middle" x="3068" y="-13" font-family="Helvetica,sans-Serif" font-size="10.00" fill="#000000">_average2.cpp</text>
</a>
</g>
</g>
<!-- Node11&#45;&gt;Node37 -->
<g id="edge76" class="edge">
<title>Node11&#45;&gt;Node37</title>
<path fill="none" stroke="#191970" d="M1556.2231,-199.0153C1679.3003,-196.0323 2025.0956,-185.2951 2311,-154 2620.2718,-120.1471 2699.3867,-114.2511 3002,-42 3009.1343,-40.2966 3016.6161,-38.2127 3023.8746,-36.0262"/>
<polygon fill="#191970" stroke="#191970" points="1555.9504,-195.5206 1546.0362,-199.2566 1556.1163,-202.5187 1555.9504,-195.5206"/>
</g>
<!-- Node13 -->
<g id="node3" class="node">
<title>Node13</title>
<g id="a_node3"><a xlink:href="$main__explicit_8cpp.html" xlink:title="main_explicit.cpp">
<polygon fill="#ffffff" stroke="#000000" points="536,-11.5 536,-30.5 628,-30.5 628,-11.5 536,-11.5"/>
<text text-anchor="middle" x="582" y="-18.5" font-family="Helvetica,sans-Serif" font-size="10.00" fill="#000000">main_explicit.cpp</text>
</a>
</g>
</g>
<!-- Node12&#45;&gt;Node13 -->
<g id="edge2" class="edge">
<title>Node12&#45;&gt;Node13</title>
<path fill="none" stroke="#191970" d="M1477.9691,-141.9524C1396.275,-136.561 1173.5663,-120.8011 989,-98 969.3479,-95.5722 656.1296,-47.1145 637,-42 625.8422,-39.0168 613.8185,-34.5756 603.8673,-30.5448"/>
<polygon fill="#191970" stroke="#191970" points="1477.8965,-145.4551 1488.1037,-142.6156 1478.3537,-138.47 1477.8965,-145.4551"/>
</g>
<!-- Node14 -->
<g id="node4" class="node">
<title>Node14</title>
<g id="a_node4"><a xlink:href="$matrix_8h.html" xlink:title="matrix.h">
<polygon fill="#ffffff" stroke="#000000" points="499,-78.5 499,-97.5 551,-97.5 551,-78.5 499,-78.5"/>
<text text-anchor="middle" x="525" y="-85.5" font-family="Helvetica,sans-Serif" font-size="10.00" fill="#000000">matrix.h</text>
</a>
</g>
</g>
<!-- Node12&#45;&gt;Node14 -->
<g id="edge3" class="edge">
<title>Node12&#45;&gt;Node14</title>
<path fill="none" stroke="#191970" d="M1478.0555,-142.1839C1327.4199,-133.6198 689.6057,-97.3583 551.4607,-89.5044"/>
<polygon fill="#191970" stroke="#191970" points="1477.8633,-145.6785 1488.0458,-142.7518 1478.2607,-138.6898 1477.8633,-145.6785"/>
</g>
<!-- Node12&#45;&gt;Node15 -->
<g id="edge32" class="edge">
<title>Node12&#45;&gt;Node15</title>
<path fill="none" stroke="#191970" d="M1478.0762,-143.8871C1327.3099,-143.1515 685.755,-137.7023 490,-98 420.1709,-83.8375 342.8979,-47.7762 308.3923,-30.5038"/>
<polygon fill="#191970" stroke="#191970" points="1478.4425,-147.3887 1488.4582,-143.9339 1478.4741,-140.3888 1478.4425,-147.3887"/>
</g>
<!-- Node12&#45;&gt;Node16 -->
<g id="edge48" class="edge">
<title>Node12&#45;&gt;Node16</title>
<path fill="none" stroke="#191970" d="M1478.2373,-142.8435C1383.6983,-139.1678 1095.9692,-126.2906 859,-98 710.4152,-80.2612 673.8487,-70.7674 527,-42 517.6464,-40.1676 507.7979,-38.1102 498.1387,-36.0187"/>
<polygon fill="#191970" stroke="#191970" points="1478.1666,-146.3433 1488.293,-143.2278 1478.434,-139.3484 1478.1666,-146.3433"/>
</g>
<!-- Node12&#45;&gt;Node17 -->
<g id="edge51" class="edge">
<title>Node12&#45;&gt;Node17</title>
<path fill="none" stroke="#191970" d="M1477.9238,-143.7815C1320.6758,-142.5377 630.3053,-135.0274 419,-98 352.055,-86.2691 278.0149,-60.1045 230.5734,-41.5377"/>
<polygon fill="#191970" stroke="#191970" points="1478.284,-147.2843 1488.3104,-143.8606 1478.3373,-140.2845 1478.284,-147.2843"/>
</g>
<!-- Node18 -->
<g id="node8" class="node">
<title>Node18</title>
<g id="a_node8"><a xlink:href="$mpi__fftw__class_8h.html" xlink:title="mpi_fftw_class.h">
<polygon fill="#ffffff" stroke="#000000" points="1501.5,-78.5 1501.5,-97.5 1592.5,-97.5 1592.5,-78.5 1501.5,-78.5"/>
<text text-anchor="middle" x="1547" y="-85.5" font-family="Helvetica,sans-Serif" font-size="10.00" fill="#000000">mpi_fftw_class.h</text>
</a>
</g>
</g>
<!-- Node12&#45;&gt;Node18 -->
<g id="edge8" class="edge">
<title>Node12&#45;&gt;Node18</title>
<path fill="none" stroke="#191970" d="M1522.1376,-125.6296C1528.3093,-116.2887 1535.5566,-105.3197 1540.6289,-97.6427"/>
<polygon fill="#191970" stroke="#191970" points="1519.0373,-123.9728 1516.4449,-134.2455 1524.8777,-127.8316 1519.0373,-123.9728"/>
</g>
<!-- Node12&#45;&gt;Node19 -->
<g id="edge34" class="edge">
<title>Node12&#45;&gt;Node19</title>
<path fill="none" stroke="#191970" d="M1478.204,-139.1377C1393.1685,-125.9179 1153.6137,-87.2603 957,-42 942.202,-38.5935 925.9731,-34.366 912.0946,-30.5989"/>
<polygon fill="#191970" stroke="#191970" points="1477.8338,-142.622 1488.2515,-140.6928 1478.9046,-135.7043 1477.8338,-142.622"/>
</g>
<!-- Node12&#45;&gt;Node20 -->
<g id="edge35" class="edge">
<title>Node12&#45;&gt;Node20</title>
<path fill="none" stroke="#191970" d="M1478.37,-136.7337C1440.2539,-127.9055 1374.3064,-112.4015 1318,-98 1227.7259,-74.9105 1121.9021,-45.4847 1068.89,-30.5802"/>
<polygon fill="#191970" stroke="#191970" points="1477.8202,-140.1989 1488.3515,-139.0403 1479.3963,-133.3786 1477.8202,-140.1989"/>
</g>
<!-- Node12&#45;&gt;Node21 -->
<g id="edge36" class="edge">
<title>Node12&#45;&gt;Node21</title>
<path fill="none" stroke="#191970" d="M1498.6602,-125.5891C1491.8814,-112.1364 1485.702,-93.597 1492,-78 1500.1866,-57.7256 1519.4206,-40.6476 1532.821,-30.6165"/>
<polygon fill="#191970" stroke="#191970" points="1495.6203,-127.3245 1503.5322,-134.3709 1501.7414,-123.9285 1495.6203,-127.3245"/>
</g>
<!-- Node12&#45;&gt;Node22 -->
<g id="edge37" class="edge">
<title>Node12&#45;&gt;Node22</title>
<path fill="none" stroke="#191970" d="M1478.5302,-133.6063C1424.675,-115.6941 1311.499,-77.506 1217,-42 1211.9873,-40.1166 1206.7282,-38.0731 1201.5601,-36.0253"/>
<polygon fill="#191970" stroke="#191970" points="1477.5894,-136.9817 1488.1829,-136.8107 1479.7949,-130.3382 1477.5894,-136.9817"/>
</g>
<!-- Node12&#45;&gt;Node23 -->
<g id="edge38" class="edge">
<title>Node12&#45;&gt;Node23</title>
<path fill="none" stroke="#191970" d="M1483.246,-129.5669C1439.7385,-106.0958 1354.0777,-59.884 1309.8646,-36.0322"/>
<polygon fill="#191970" stroke="#191970" points="1481.6464,-132.6808 1492.1092,-134.3484 1484.97,-126.5201 1481.6464,-132.6808"/>
</g>
<!-- Node12&#45;&gt;Node24 -->
<g id="edge39" class="edge">
<title>Node12&#45;&gt;Node24</title>
<path fill="none" stroke="#191970" d="M1495.9472,-126.3623C1476.6725,-102.1706 1442.3551,-59.0988 1424.1396,-36.2365"/>
<polygon fill="#191970" stroke="#191970" points="1493.3413,-128.7083 1502.3101,-134.3484 1498.816,-124.3463 1493.3413,-128.7083"/>
</g>
<!-- Node12&#45;&gt;Node25 -->
<g id="edge40" class="edge">
<title>Node12&#45;&gt;Node25</title>
<path fill="none" stroke="#191970" d="M1477.6122,-143.6807C1312.6221,-141.9095 564.4728,-132.1033 335,-98 249.0147,-85.2212 151.8301,-54.5494 97.8506,-36.0039"/>
<polygon fill="#191970" stroke="#191970" points="1478.012,-147.185 1488.0482,-143.7902 1478.0855,-140.1853 1478.012,-147.185"/>
</g>
<!-- Node12&#45;&gt;Node26 -->
<g id="edge41" class="edge">
<title>Node12&#45;&gt;Node26</title>
<path fill="none" stroke="#191970" d="M1542.1239,-141.2559C1615.1634,-134.7548 1791.7099,-117.4902 1848,-98 1890.3791,-83.3264 1934.2417,-54.1858 1958.9292,-36.2629"/>
<polygon fill="#191970" stroke="#191970" points="1541.3788,-137.8078 1531.724,-142.1708 1541.9923,-144.7809 1541.3788,-137.8078"/>
</g>
<!-- Node12&#45;&gt;Node27 -->
<g id="edge42" class="edge">
<title>Node12&#45;&gt;Node27</title>
<path fill="none" stroke="#191970" d="M1541.6805,-141.5487C1612.2325,-135.8725 1787.5378,-120.565 1933,-98 2057.1173,-78.7462 2088.1633,-72.5224 2210,-42 2217.1384,-40.2117 2224.6353,-38.1558 2231.9619,-36.0453"/>
<polygon fill="#191970" stroke="#191970" points="1541.3522,-138.0637 1531.6615,-142.3464 1541.9078,-145.0416 1541.3522,-138.0637"/>
</g>
<!-- Node12&#45;&gt;Node28 -->
<g id="edge43" class="edge">
<title>Node12&#45;&gt;Node28</title>
<path fill="none" stroke="#191970" d="M1541.9343,-142.937C1642.8404,-139.3677 1963.7824,-126.4052 2228,-98 2393.3644,-80.2222 2435.5833,-77.8087 2598,-42 2605.7564,-40.2899 2613.9044,-38.2024 2621.817,-36.0145"/>
<polygon fill="#191970" stroke="#191970" points="1541.666,-139.4441 1531.7939,-143.29 1541.9096,-146.4398 1541.666,-139.4441"/>
</g>
<!-- Node12&#45;&gt;Node29 -->
<g id="edge44" class="edge">
<title>Node12&#45;&gt;Node29</title>
<path fill="none" stroke="#191970" d="M1541.5533,-143.1149C1650.7218,-139.8634 2022.4239,-127.2138 2328,-98 2512.8329,-80.3295 2560.9413,-83.1486 2742,-42 2744.891,-41.343 2747.8373,-40.614 2750.8005,-39.8334"/>
<polygon fill="#191970" stroke="#191970" points="1541.4261,-139.6171 1531.533,-143.4088 1541.6313,-146.6141 1541.4261,-139.6171"/>
</g>
<!-- Node12&#45;&gt;Node30 -->
<g id="edge45" class="edge">
<title>Node12&#45;&gt;Node30</title>
<path fill="none" stroke="#191970" d="M1542.0876,-143.3718C1661.6376,-140.8301 2092.4495,-129.8722 2446,-98 2636.191,-80.8545 2685.7073,-83.9715 2872,-42 2874.8923,-41.3484 2877.8395,-40.6238 2880.8035,-39.8466"/>
<polygon fill="#191970" stroke="#191970" points="1541.738,-139.8782 1531.813,-143.5856 1541.8837,-146.8767 1541.738,-139.8782"/>
</g>
<!-- Node12&#45;&gt;Node31 -->
<g id="edge46" class="edge">
<title>Node12&#45;&gt;Node31</title>
<path fill="none" stroke="#191970" d="M1541.1293,-130.2854C1559.1407,-121.8597 1581.9424,-110.3388 1601,-98 1633.9691,-76.6542 1668.8996,-45.9479 1685.7391,-30.5574"/>
<polygon fill="#191970" stroke="#191970" points="1539.2943,-127.2768 1531.67,-134.6334 1542.2179,-133.637 1539.2943,-127.2768"/>
</g>
<!-- Node12&#45;&gt;Node32 -->
<g id="edge47" class="edge">
<title>Node12&#45;&gt;Node32</title>
<path fill="none" stroke="#191970" d="M1478.194,-140.972C1377.7323,-131.0812 1058.5036,-97.1516 799,-42 783.511,-38.7082 766.5274,-34.4125 752.13,-30.5645"/>
<polygon fill="#191970" stroke="#191970" points="1477.9981,-144.4694 1488.2908,-141.9573 1478.678,-137.5025 1477.9981,-144.4694"/>
</g>
<!-- Node12&#45;&gt;Node33 -->
<g id="edge49" class="edge">
<title>Node12&#45;&gt;Node33</title>
<path fill="none" stroke="#191970" d="M1541.7271,-142.525C1632.6365,-138.1046 1901.8032,-123.6598 2124,-98 2283.9827,-79.5248 2326.0116,-82.0426 2482,-42 2488.4312,-40.3491 2495.1492,-38.2661 2501.638,-36.0572"/>
<polygon fill="#191970" stroke="#191970" points="1541.3599,-139.0385 1531.5395,-143.0145 1541.6959,-146.0305 1541.3599,-139.0385"/>
</g>
<!-- Node12&#45;&gt;Node34 -->
<g id="edge50" class="edge">
<title>Node12&#45;&gt;Node34</title>
<path fill="none" stroke="#191970" d="M1541.1701,-132.0649C1565.1986,-122.8368 1599.2402,-109.7034 1629,-98 1651.2736,-89.2406 1656.5713,-86.3543 1679,-78 1719.187,-63.031 1765.3585,-47.1954 1798.6212,-36.0244"/>
<polygon fill="#191970" stroke="#191970" points="1539.6093,-128.9149 1531.5269,-135.7651 1542.1171,-135.4503 1539.6093,-128.9149"/>
</g>
<!-- Node12&#45;&gt;Node35 -->
<g id="edge52" class="edge">
<title>Node12&#45;&gt;Node35</title>
<path fill="none" stroke="#191970" d="M1541.9693,-142.0091C1606.7417,-137.546 1757.8601,-124.9493 1882,-98 1955.6351,-82.0147 2038.8214,-53.5779 2086.8577,-36.096"/>
<polygon fill="#191970" stroke="#191970" points="1541.3602,-138.542 1531.6168,-142.7032 1541.8285,-145.5263 1541.3602,-138.542"/>
</g>
<!-- Node12&#45;&gt;Node36 -->
<g id="edge53" class="edge">
<title>Node12&#45;&gt;Node36</title>
<path fill="none" stroke="#191970" d="M1542.0447,-142.7281C1654.4828,-137.7146 2040.9448,-115.8266 2350,-42 2357.1341,-40.2958 2364.6158,-38.2114 2371.8742,-36.0248"/>
<polygon fill="#191970" stroke="#191970" points="1541.5761,-139.245 1531.7368,-143.1741 1541.8788,-146.2384 1541.5761,-139.245"/>
</g>
<!-- Node12&#45;&gt;Node37 -->
<g id="edge54" class="edge">
<title>Node12&#45;&gt;Node37</title>
<path fill="none" stroke="#191970" d="M1542.028,-143.6092C1671.0521,-141.8239 2165.212,-132.9549 2570,-98 2762.8886,-81.3434 2812.996,-83.9638 3002,-42 3009.3953,-40.3581 3017.1478,-38.2525 3024.6338,-36.0108"/>
<polygon fill="#191970" stroke="#191970" points="1541.6405,-140.114 1531.6883,-143.7477 1541.7343,-147.1134 1541.6405,-140.114"/>
</g>
<!-- Node38 -->
<g id="node28" class="node">
<title>Node38</title>
<g id="a_node28"><a xlink:href="$mpi__exchange__boundaries_8cpp.html" xlink:title="mpi_exchange_boundaries.cpp">
<polygon fill="#ffffff" stroke="#000000" points="1687.5,-78.5 1687.5,-97.5 1838.5,-97.5 1838.5,-78.5 1687.5,-78.5"/>
<text text-anchor="middle" x="1763" y="-85.5" font-family="Helvetica,sans-Serif" font-size="10.00" fill="#000000">mpi_exchange_boundaries.cpp</text>
</a>
</g>
</g>
<!-- Node12&#45;&gt;Node38 -->
<g id="edge33" class="edge">
<title>Node12&#45;&gt;Node38</title>
<path fill="none" stroke="#191970" d="M1541.3424,-137.0625C1586.2533,-127.1218 1669.075,-108.7897 1719.7773,-97.5671"/>
<polygon fill="#191970" stroke="#191970" points="1540.5779,-133.647 1531.5706,-139.2255 1542.0907,-140.4816 1540.5779,-133.647"/>
</g>
<!-- Node14&#45;&gt;Node13 -->
<g id="edge4" class="edge">
<title>Node14&#45;&gt;Node13</title>
<path fill="none" stroke="#191970" d="M539.7054,-70.7147C550.5726,-57.941 564.966,-41.0224 573.8484,-30.5817"/>
<polygon fill="#191970" stroke="#191970" points="536.9807,-68.516 533.1667,-78.4005 542.3123,-73.0519 536.9807,-68.516"/>
</g>
<!-- Node14&#45;&gt;Node15 -->
<g id="edge5" class="edge">
<title>Node14&#45;&gt;Node15</title>
<path fill="none" stroke="#191970" d="M488.808,-78.9464C487.5229,-78.6267 486.2505,-78.3105 485,-78 420.137,-61.8954 402.3695,-63.2339 339,-42 329.3467,-38.7654 318.9423,-34.4332 310.2145,-30.544"/>
<polygon fill="#191970" stroke="#191970" points="488.2034,-82.4028 498.753,-81.4254 489.8965,-75.6106 488.2034,-82.4028"/>
</g>
<!-- Node14&#45;&gt;Node16 -->
<g id="edge6" class="edge">
<title>Node14&#45;&gt;Node16</title>
<path fill="none" stroke="#191970" d="M503.6063,-72.4198C488.5501,-61.455 468.51,-46.8605 453.6269,-36.0218"/>
<polygon fill="#191970" stroke="#191970" points="501.6746,-75.3428 511.8186,-78.4005 505.7955,-69.6843 501.6746,-75.3428"/>
</g>
<!-- Node14&#45;&gt;Node17 -->
<g id="edge7" class="edge">
<title>Node14&#45;&gt;Node17</title>
<path fill="none" stroke="#191970" d="M488.6617,-84.1907C434.2402,-78.0206 328.596,-64.2388 241,-42 238.1118,-41.2668 235.1655,-40.4546 232.2053,-39.5883"/>
<polygon fill="#191970" stroke="#191970" points="488.5168,-87.6961 498.8425,-85.3234 489.2909,-80.739 488.5168,-87.6961"/>
</g>
<!-- Node18&#45;&gt;Node13 -->
<g id="edge9" class="edge">
<title>Node18&#45;&gt;Node13</title>
<path fill="none" stroke="#191970" d="M1491.4313,-87.4688C1320.0718,-85.4722 801.4908,-76.651 637,-42 625.1983,-39.5139 612.5908,-34.8579 602.4278,-30.5607"/>
<polygon fill="#191970" stroke="#191970" points="1491.4535,-90.9692 1501.4925,-87.5828 1491.5328,-83.9696 1491.4535,-90.9692"/>
</g>
<!-- Node18&#45;&gt;Node15 -->
<g id="edge10" class="edge">
<title>Node18&#45;&gt;Node15</title>
<path fill="none" stroke="#191970" d="M1491.0118,-87.0707C1268.3207,-83.2104 451.9932,-67.4427 339,-42 328.3455,-39.6009 317.1024,-34.9518 308.0771,-30.6365"/>
<polygon fill="#191970" stroke="#191970" points="1491.1034,-90.5727 1501.1622,-87.2455 1491.224,-83.5737 1491.1034,-90.5727"/>
</g>
<!-- Node18&#45;&gt;Node16 -->
<g id="edge25" class="edge">
<title>Node18&#45;&gt;Node16</title>
<path fill="none" stroke="#191970" d="M1491.2628,-86.7707C1306.599,-82.4962 715.8337,-67.1547 527,-42 515.8945,-40.5206 504.1634,-38.3772 492.8948,-36.0186"/>
<polygon fill="#191970" stroke="#191970" points="1491.2176,-90.2705 1501.2954,-87.0012 1491.3785,-83.2723 1491.2176,-90.2705"/>
</g>
<!-- Node18&#45;&gt;Node17 -->
<g id="edge28" class="edge">
<title>Node18&#45;&gt;Node17</title>
<path fill="none" stroke="#191970" d="M1490.8317,-87.0181C1256.6966,-82.7896 364.7944,-65.2875 241,-42 238.0716,-41.4491 235.0934,-40.7808 232.1087,-40.0261"/>
<polygon fill="#191970" stroke="#191970" points="1491.0946,-90.5233 1501.1559,-87.2036 1491.2204,-83.5244 1491.0946,-90.5233"/>
</g>
<!-- Node18&#45;&gt;Node19 -->
<g id="edge11" class="edge">
<title>Node18&#45;&gt;Node19</title>
<path fill="none" stroke="#191970" d="M1491.0452,-87.0211C1385.7652,-84.4327 1151.3187,-75.1184 957,-42 940.9117,-39.258 923.3357,-34.7418 908.8552,-30.5987"/>
<polygon fill="#191970" stroke="#191970" points="1491.0471,-90.522 1501.1266,-87.2579 1491.2116,-83.5239 1491.0471,-90.522"/>
</g>
<!-- Node18&#45;&gt;Node20 -->
<g id="edge12" class="edge">
<title>Node18&#45;&gt;Node20</title>
<path fill="none" stroke="#191970" d="M1491.1414,-84.8991C1408.111,-79.6552 1247.469,-67.0665 1113,-42 1097.2835,-39.0703 1080.0969,-34.5855 1065.8661,-30.5116"/>
<polygon fill="#191970" stroke="#191970" points="1491.1637,-88.4071 1501.361,-85.5321 1491.5965,-81.4205 1491.1637,-88.4071"/>
</g>
<!-- Node18&#45;&gt;Node21 -->
<g id="edge13" class="edge">
<title>Node18&#45;&gt;Node21</title>
<path fill="none" stroke="#191970" d="M1547,-68.1079C1547,-55.714 1547,-40.3263 1547,-30.5817"/>
<polygon fill="#191970" stroke="#191970" points="1543.5001,-68.4005 1547,-78.4005 1550.5001,-68.4006 1543.5001,-68.4005"/>
</g>
<!-- Node18&#45;&gt;Node22 -->
<g id="edge14" class="edge">
<title>Node18&#45;&gt;Node22</title>
<path fill="none" stroke="#191970" d="M1491.2432,-84.4149C1424.9561,-79.1979 1311.4223,-67.2356 1217,-42 1210.9801,-40.3911 1204.7202,-38.2742 1198.7165,-36.0038"/>
<polygon fill="#191970" stroke="#191970" points="1491.2287,-87.9239 1501.4661,-85.1953 1491.7615,-80.9442 1491.2287,-87.9239"/>
</g>
<!-- Node18&#45;&gt;Node23 -->
<g id="edge15" class="edge">
<title>Node18&#45;&gt;Node23</title>
<path fill="none" stroke="#191970" d="M1491.5391,-76.5914C1451.217,-67.9704 1395.4423,-55.3693 1347,-42 1340.4839,-40.2017 1333.6471,-38.1631 1326.9555,-36.0804"/>
<polygon fill="#191970" stroke="#191970" points="1490.9346,-80.041 1501.4436,-78.6955 1492.3892,-73.1938 1490.9346,-80.041"/>
</g>
<!-- Node18&#45;&gt;Node24 -->
<g id="edge16" class="edge">
<title>Node18&#45;&gt;Node24</title>
<path fill="none" stroke="#191970" d="M1518.6549,-73.9324C1496.2786,-62.8271 1465.1276,-47.367 1442.2677,-36.0218"/>
<polygon fill="#191970" stroke="#191970" points="1517.1443,-77.09 1527.6578,-78.4005 1520.2562,-70.8198 1517.1443,-77.09"/>
</g>
<!-- Node18&#45;&gt;Node25 -->
<g id="edge17" class="edge">
<title>Node18&#45;&gt;Node25</title>
<path fill="none" stroke="#191970" d="M1491.0187,-87.1206C1243.9652,-83.1142 257.4495,-65.7554 121,-42 113.0553,-40.6169 104.7451,-38.4868 96.8241,-36.1043"/>
<polygon fill="#191970" stroke="#191970" points="1491.1468,-90.623 1501.202,-87.285 1491.2598,-83.6239 1491.1468,-90.623"/>
</g>
<!-- Node18&#45;&gt;Node26 -->
<g id="edge18" class="edge">
<title>Node18&#45;&gt;Node26</title>
<path fill="none" stroke="#191970" d="M1602.9316,-84.2715C1675.3758,-78.6962 1805.2598,-66.1556 1914,-42 1921.2934,-40.3798 1928.9336,-38.2853 1936.3083,-36.048"/>
<polygon fill="#191970" stroke="#191970" points="1602.3783,-80.8032 1592.6693,-85.0441 1602.9039,-87.7834 1602.3783,-80.8032"/>
</g>
<!-- Node18&#45;&gt;Node27 -->
<g id="edge19" class="edge">
<title>Node18&#45;&gt;Node27</title>
<path fill="none" stroke="#191970" d="M1602.6629,-83.6848C1626.2109,-81.8848 1653.9397,-79.7987 1679,-78 1914.9348,-61.0656 1977.2619,-84.249 2210,-42 2218.2393,-40.5043 2226.883,-38.384 2235.1748,-36.0606"/>
<polygon fill="#191970" stroke="#191970" points="1602.2089,-80.2093 1592.5057,-84.4633 1602.7439,-87.1888 1602.2089,-80.2093"/>
</g>
<!-- Node18&#45;&gt;Node28 -->
<g id="edge20" class="edge">
<title>Node18&#45;&gt;Node28</title>
<path fill="none" stroke="#191970" d="M1602.9217,-83.3103C1626.4054,-81.4586 1654.0165,-79.4352 1679,-78 2087.0849,-54.5571 2194.5596,-107.7171 2598,-42 2606.739,-40.5765 2615.9155,-38.4275 2624.6804,-36.039"/>
<polygon fill="#191970" stroke="#191970" points="1602.4793,-79.8344 1592.7893,-84.1185 1603.036,-86.8122 1602.4793,-79.8344"/>
</g>
<!-- Node18&#45;&gt;Node29 -->
<g id="edge21" class="edge">
<title>Node18&#45;&gt;Node29</title>
<path fill="none" stroke="#191970" d="M1602.918,-83.2447C1626.4011,-81.3826 1654.0128,-79.369 1679,-78 1915.0037,-65.0698 2509.1775,-82.7264 2742,-42 2744.9204,-41.4891 2747.8903,-40.8778 2750.8722,-40.1905"/>
<polygon fill="#191970" stroke="#191970" points="1602.4734,-79.769 1592.7859,-84.0588 1603.0342,-86.7465 1602.4734,-79.769"/>
</g>
<!-- Node18&#45;&gt;Node30 -->
<g id="edge22" class="edge">
<title>Node18&#45;&gt;Node30</title>
<path fill="none" stroke="#191970" d="M1602.9156,-83.1991C1626.3982,-81.3296 1654.0103,-79.3229 1679,-78 1943.8609,-63.9784 2610.6515,-87.22 2872,-42 2874.9214,-41.4945 2877.892,-40.8875 2880.8745,-40.2036"/>
<polygon fill="#191970" stroke="#191970" points="1602.4695,-79.7236 1592.7837,-84.0173 1603.033,-86.7009 1602.4695,-79.7236"/>
</g>
<!-- Node18&#45;&gt;Node31 -->
<g id="edge23" class="edge">
<title>Node18&#45;&gt;Node31</title>
<path fill="none" stroke="#191970" d="M1577.5953,-74.2424C1606.5502,-61.2224 1649.2613,-42.0167 1674.6915,-30.5817"/>
<polygon fill="#191970" stroke="#191970" points="1576.033,-71.1072 1568.3481,-78.4005 1578.9038,-77.4915 1576.033,-71.1072"/>
</g>
<!-- Node18&#45;&gt;Node32 -->
<g id="edge24" class="edge">
<title>Node18&#45;&gt;Node32</title>
<path fill="none" stroke="#191970" d="M1491.0272,-85.9545C1341.016,-80.2493 932.3262,-63.1807 799,-42 782.3569,-39.356 764.1655,-34.7964 749.2462,-30.6"/>
<polygon fill="#191970" stroke="#191970" points="1491.2486,-89.4653 1501.3736,-86.3455 1491.513,-82.4703 1491.2486,-89.4653"/>
</g>
<!-- Node18&#45;&gt;Node33 -->
<g id="edge26" class="edge">
<title>Node18&#45;&gt;Node33</title>
<path fill="none" stroke="#191970" d="M1602.9258,-83.3802C1626.4101,-81.5397 1654.0206,-79.5058 1679,-78 1857.3,-67.252 2306.7996,-76.803 2482,-42 2489.1427,-40.5811 2496.5831,-38.4344 2503.6591,-36.0465"/>
<polygon fill="#191970" stroke="#191970" points="1602.4857,-79.904 1592.793,-84.1822 1603.0381,-86.8822 1602.4857,-79.904"/>
</g>
<!-- Node18&#45;&gt;Node34 -->
<g id="edge27" class="edge">
<title>Node18&#45;&gt;Node34</title>
<path fill="none" stroke="#191970" d="M1602.5643,-78.3378C1648.9392,-69.904 1716.6379,-56.7322 1775,-42 1782.0417,-40.2225 1789.4344,-38.1725 1796.6577,-36.0647"/>
<polygon fill="#191970" stroke="#191970" points="1601.9315,-74.8953 1592.7125,-80.1165 1603.1753,-81.784 1601.9315,-74.8953"/>
</g>
<!-- Node18&#45;&gt;Node35 -->
<g id="edge29" class="edge">
<title>Node18&#45;&gt;Node35</title>
<path fill="none" stroke="#191970" d="M1602.83,-83.3263C1723.5432,-73.1494 2001.4183,-49.3117 2044,-42 2053.3756,-40.3901 2063.2509,-38.2727 2072.7901,-36.0021"/>
<polygon fill="#191970" stroke="#191970" points="1602.3564,-79.8537 1592.6854,-84.1805 1602.9438,-86.829 1602.3564,-79.8537"/>
</g>
<!-- Node18&#45;&gt;Node36 -->
<g id="edge30" class="edge">
<title>Node18&#45;&gt;Node36</title>
<path fill="none" stroke="#191970" d="M1602.9326,-83.489C1626.418,-81.666 1654.0275,-79.6156 1679,-78 1977.0281,-58.7186 2056.2183,-95.7102 2350,-42 2357.925,-40.5511 2366.2225,-38.4222 2374.1547,-36.0685"/>
<polygon fill="#191970" stroke="#191970" points="1602.496,-80.0124 1592.7992,-84.2813 1603.0416,-86.9911 1602.496,-80.0124"/>
</g>
<!-- Node18&#45;&gt;Node37 -->
<g id="edge31" class="edge">
<title>Node18&#45;&gt;Node37</title>
<path fill="none" stroke="#191970" d="M1602.9137,-83.1624C1626.396,-81.2871 1654.0084,-79.2859 1679,-78 1972.7203,-62.8869 2712.0136,-91.0705 3002,-42 3010.1805,-40.6157 3018.7459,-38.4521 3026.8945,-36.0297"/>
<polygon fill="#191970" stroke="#191970" points="1602.4663,-79.6871 1592.782,-83.9839 1603.0322,-86.6642 1602.4663,-79.6871"/>
</g>
</g>
</svg>
