<?xml version="1.0" encoding="UTF-8" standalone="no"?>
<!DOCTYPE svg PUBLIC "-//W3C//DTD SVG 1.1//EN"
 "http://www.w3.org/Graphics/SVG/1.1/DTD/svg11.dtd">
<!-- Generated by graphviz version 2.40.1 (20161225.0304)
 -->
<!-- Title: rand_class.h Pages: 1 -->
<svg width="3032pt" height="218pt"
 viewBox="0.00 0.00 3032.00 218.00" xmlns="http://www.w3.org/2000/svg" xmlns:xlink="http://www.w3.org/1999/xlink">
<g id="graph0" class="graph" transform="scale(1 1) rotate(0) translate(4 214)">
<title>rand_class.h</title>
<polygon fill="#ffffff" stroke="transparent" points="-4,4 -4,-214 3028,-214 3028,4 -4,4"/>
<!-- Node11 -->
<g id="node1" class="node">
<title>Node11</title>
<polygon fill="#bfbfbf" stroke="#000000" points="1392,-190.5 1392,-209.5 1464,-209.5 1464,-190.5 1392,-190.5"/>
<text text-anchor="middle" x="1428" y="-197.5" font-family="Helvetica,sans-Serif" font-size="10.00" fill="#000000">rand_class.h</text>
</g>
<!-- Node12 -->
<g id="node2" class="node">
<title>Node12</title>
<g id="a_node2"><a xlink:href="field_8h.html" target="_top" xlink:title="field.h">
<polygon fill="#ffffff" stroke="#000000" points="1469.5,-134.5 1469.5,-153.5 1512.5,-153.5 1512.5,-134.5 1469.5,-134.5"/>
<text text-anchor="middle" x="1491" y="-141.5" font-family="Helvetica,sans-Serif" font-size="10.00" fill="#000000">field.h</text>
</a>
</g>
</g>
<!-- Node11&#45;&gt;Node12 -->
<g id="edge1" class="edge">
<title>Node11&#45;&gt;Node12</title>
<path fill="none" stroke="#191970" d="M1446.7192,-183.3607C1457.6182,-173.6727 1470.9755,-161.7995 1480.152,-153.6427"/>
<polygon fill="#191970" stroke="#191970" points="1444.1226,-180.9859 1438.9738,-190.2455 1448.7732,-186.2178 1444.1226,-180.9859"/>
</g>
<!-- Node15 -->
<g id="node5" class="node">
<title>Node15</title>
<g id="a_node5"><a xlink:href="test__noise__vectors__and__cholesky__decomposition_8cpp.html" target="_top" xlink:title="tests/test_noise_vectors\l_and_cholesky_decomposition.cpp">
<polygon fill="#ffffff" stroke="#000000" points="2331.5,-6 2331.5,-36 2500.5,-36 2500.5,-6 2331.5,-6"/>
<text text-anchor="start" x="2339.5" y="-24" font-family="Helvetica,sans-Serif" font-size="10.00" fill="#000000">tests/test_noise_vectors</text>
<text text-anchor="middle" x="2416" y="-13" font-family="Helvetica,sans-Serif" font-size="10.00" fill="#000000">_and_cholesky_decomposition.cpp</text>
</a>
</g>
</g>
<!-- Node11&#45;&gt;Node15 -->
<g id="edge66" class="edge">
<title>Node11&#45;&gt;Node15</title>
<path fill="none" stroke="#191970" d="M1474.3892,-198.9539C1638.0047,-194.6344 2186.6424,-174.6238 2342,-98 2370.4342,-83.976 2393.8996,-54.3311 2406.3473,-36.1912"/>
<polygon fill="#191970" stroke="#191970" points="1474.084,-195.4605 1464.1772,-199.2162 1474.2638,-202.4582 1474.084,-195.4605"/>
</g>
<!-- Node16 -->
<g id="node6" class="node">
<title>Node16</title>
<g id="a_node6"><a xlink:href="test__position__evolution__coupling__noise_8cpp.html" target="_top" xlink:title="tests/test_position\l_evolution_coupling\l_noise.cpp">
<polygon fill="#ffffff" stroke="#000000" points="2518,-.5 2518,-41.5 2620,-41.5 2620,-.5 2518,-.5"/>
<text text-anchor="start" x="2526" y="-29.5" font-family="Helvetica,sans-Serif" font-size="10.00" fill="#000000">tests/test_position</text>
<text text-anchor="start" x="2526" y="-18.5" font-family="Helvetica,sans-Serif" font-size="10.00" fill="#000000">_evolution_coupling</text>
<text text-anchor="middle" x="2569" y="-7.5" font-family="Helvetica,sans-Serif" font-size="10.00" fill="#000000">_noise.cpp</text>
</a>
</g>
</g>
<!-- Node11&#45;&gt;Node16 -->
<g id="edge69" class="edge">
<title>Node11&#45;&gt;Node16</title>
<path fill="none" stroke="#191970" d="M1474.4929,-198.3442C1616.4593,-193.1006 2042.9681,-175.9059 2180,-154 2277.081,-138.4806 2301.1588,-130.3434 2394,-98 2440.7044,-81.7294 2492.325,-58.3143 2527.3175,-41.5831"/>
<polygon fill="#191970" stroke="#191970" points="1474.2433,-194.8509 1464.3784,-198.7153 1474.5,-201.8462 1474.2433,-194.8509"/>
</g>
<!-- Node18 -->
<g id="node8" class="node">
<title>Node18</title>
<g id="a_node8"><a xlink:href="test__accumulation_8cpp.html" target="_top" xlink:title="tests/test_accumulation.cpp">
<polygon fill="#ffffff" stroke="#000000" points="0,-11.5 0,-30.5 140,-30.5 140,-11.5 0,-11.5"/>
<text text-anchor="middle" x="70" y="-18.5" font-family="Helvetica,sans-Serif" font-size="10.00" fill="#000000">tests/test_accumulation.cpp</text>
</a>
</g>
</g>
<!-- Node11&#45;&gt;Node18 -->
<g id="edge52" class="edge">
<title>Node11&#45;&gt;Node18</title>
<path fill="none" stroke="#191970" d="M1381.7609,-198.8688C1263.795,-195.615 942.1671,-184.4352 676,-154 526.8935,-136.9502 489.436,-130.8627 343,-98 253.6272,-77.9432 150.0094,-46.3837 100.0257,-30.6242"/>
<polygon fill="#191970" stroke="#191970" points="1381.7874,-202.3707 1391.8783,-199.142 1381.9764,-195.3732 1381.7874,-202.3707"/>
</g>
<!-- Node19 -->
<g id="node9" class="node">
<title>Node19</title>
<g id="a_node9"><a xlink:href="test__exponentiate_8cpp.html" target="_top" xlink:title="tests/test_exponentiate.cpp">
<polygon fill="#ffffff" stroke="#000000" points="158.5,-11.5 158.5,-30.5 295.5,-30.5 295.5,-11.5 158.5,-11.5"/>
<text text-anchor="middle" x="227" y="-18.5" font-family="Helvetica,sans-Serif" font-size="10.00" fill="#000000">tests/test_exponentiate.cpp</text>
</a>
</g>
</g>
<!-- Node11&#45;&gt;Node19 -->
<g id="edge53" class="edge">
<title>Node11&#45;&gt;Node19</title>
<path fill="none" stroke="#191970" d="M1381.4604,-198.5991C1276.901,-195.0147 1015.5805,-183.6137 799,-154 674.1245,-136.9254 643.826,-126.2704 521,-98 426.1323,-76.1647 315.3001,-45.8081 260.7902,-30.5544"/>
<polygon fill="#191970" stroke="#191970" points="1381.5587,-202.1043 1391.6703,-198.9412 1381.7931,-195.1082 1381.5587,-202.1043"/>
</g>
<!-- Node20 -->
<g id="node10" class="node">
<title>Node20</title>
<g id="a_node10"><a xlink:href="test__hermitian_8cpp.html" target="_top" xlink:title="tests/test_hermitian.cpp">
<polygon fill="#ffffff" stroke="#000000" points="314,-11.5 314,-30.5 436,-30.5 436,-11.5 314,-11.5"/>
<text text-anchor="middle" x="375" y="-18.5" font-family="Helvetica,sans-Serif" font-size="10.00" fill="#000000">tests/test_hermitian.cpp</text>
</a>
</g>
</g>
<!-- Node11&#45;&gt;Node20 -->
<g id="edge54" class="edge">
<title>Node11&#45;&gt;Node20</title>
<path fill="none" stroke="#191970" d="M1381.5805,-198.1426C1290.8466,-194.0097 1083.824,-182.1076 912,-154 701.3586,-119.5425 651.0786,-97.5767 445,-42 432.0148,-38.4981 417.7816,-34.2958 405.5602,-30.5735"/>
<polygon fill="#191970" stroke="#191970" points="1381.6559,-201.6494 1391.8017,-198.5975 1381.9672,-194.6563 1381.6559,-201.6494"/>
</g>
<!-- Node21 -->
<g id="node11" class="node">
<title>Node21</title>
<g id="a_node11"><a xlink:href="test__initial__condition_8cpp.html" target="_top" xlink:title="tests/test_initial\l_condition.cpp">
<polygon fill="#ffffff" stroke="#000000" points="454,-6 454,-36 540,-36 540,-6 454,-6"/>
<text text-anchor="start" x="462" y="-24" font-family="Helvetica,sans-Serif" font-size="10.00" fill="#000000">tests/test_initial</text>
<text text-anchor="middle" x="497" y="-13" font-family="Helvetica,sans-Serif" font-size="10.00" fill="#000000">_condition.cpp</text>
</a>
</g>
</g>
<!-- Node11&#45;&gt;Node21 -->
<g id="edge55" class="edge">
<title>Node11&#45;&gt;Node21</title>
<path fill="none" stroke="#191970" d="M1381.8495,-196.9931C1303.7958,-191.4592 1140.9363,-177.9764 1005,-154 953.6205,-144.9377 598.6484,-58.0315 549,-42 543.5336,-40.2349 537.8248,-38.1679 532.2758,-36.0321"/>
<polygon fill="#191970" stroke="#191970" points="1381.6204,-200.4855 1391.8399,-197.6906 1382.108,-193.5025 1381.6204,-200.4855"/>
</g>
<!-- Node22 -->
<g id="node12" class="node">
<title>Node22</title>
<g id="a_node12"><a xlink:href="test__initial__condition__fftw1d_8cpp.html" target="_top" xlink:title="tests/test_initial\l_condition_fftw1d.cpp">
<polygon fill="#ffffff" stroke="#000000" points="558,-6 558,-36 670,-36 670,-6 558,-6"/>
<text text-anchor="start" x="566" y="-24" font-family="Helvetica,sans-Serif" font-size="10.00" fill="#000000">tests/test_initial</text>
<text text-anchor="middle" x="614" y="-13" font-family="Helvetica,sans-Serif" font-size="10.00" fill="#000000">_condition_fftw1d.cpp</text>
</a>
</g>
</g>
<!-- Node11&#45;&gt;Node22 -->
<g id="edge56" class="edge">
<title>Node11&#45;&gt;Node22</title>
<path fill="none" stroke="#191970" d="M1381.6985,-194.4996C1319.4608,-186.8381 1205.4799,-171.8638 1109,-154 998.3174,-133.5065 970.7818,-126.9333 862,-98 790.1122,-78.8796 707.868,-52.4192 658.4811,-36.0235"/>
<polygon fill="#191970" stroke="#191970" points="1381.6163,-198.0156 1391.9672,-195.7551 1382.4658,-191.0673 1381.6163,-198.0156"/>
</g>
<!-- Node23 -->
<g id="node13" class="node">
<title>Node23</title>
<g id="a_node13"><a xlink:href="test__momentum__coupling_8cpp.html" target="_top" xlink:title="tests/test_momentum\l_coupling.cpp">
<polygon fill="#ffffff" stroke="#000000" points="688,-6 688,-36 800,-36 800,-6 688,-6"/>
<text text-anchor="start" x="696" y="-24" font-family="Helvetica,sans-Serif" font-size="10.00" fill="#000000">tests/test_momentum</text>
<text text-anchor="middle" x="744" y="-13" font-family="Helvetica,sans-Serif" font-size="10.00" fill="#000000">_coupling.cpp</text>
</a>
</g>
</g>
<!-- Node11&#45;&gt;Node23 -->
<g id="edge57" class="edge">
<title>Node11&#45;&gt;Node23</title>
<path fill="none" stroke="#191970" d="M1381.8589,-191.8211C1298.8115,-176.6327 1119.0278,-141.6146 971,-98 905.3339,-78.6522 830.3292,-52.3756 785.1014,-36.0635"/>
<polygon fill="#191970" stroke="#191970" points="1381.2714,-195.2716 1391.7362,-193.6173 1382.5238,-188.3845 1381.2714,-195.2716"/>
</g>
<!-- Node24 -->
<g id="node14" class="node">
<title>Node24</title>
<g id="a_node14"><a xlink:href="test__momentum__coupling__fft_8cpp.html" target="_top" xlink:title="tests/test_momentum\l_coupling_fft.cpp">
<polygon fill="#ffffff" stroke="#000000" points="818,-6 818,-36 930,-36 930,-6 818,-6"/>
<text text-anchor="start" x="826" y="-24" font-family="Helvetica,sans-Serif" font-size="10.00" fill="#000000">tests/test_momentum</text>
<text text-anchor="middle" x="874" y="-13" font-family="Helvetica,sans-Serif" font-size="10.00" fill="#000000">_coupling_fft.cpp</text>
</a>
</g>
</g>
<!-- Node11&#45;&gt;Node24 -->
<g id="edge58" class="edge">
<title>Node11&#45;&gt;Node24</title>
<path fill="none" stroke="#191970" d="M1382.9063,-187.761C1349.8997,-178.7031 1304.0707,-165.9198 1264,-154 1184.5086,-130.3539 1164.5499,-124.607 1086,-98 1025.7318,-77.5855 956.5553,-52.0624 914.0637,-36.1418"/>
<polygon fill="#191970" stroke="#191970" points="1382.1482,-191.1822 1392.7176,-190.4474 1383.9969,-184.4307 1382.1482,-191.1822"/>
</g>
<!-- Node25 -->
<g id="node15" class="node">
<title>Node25</title>
<g id="a_node15"><a xlink:href="test__momentum__evolution_8cpp.html" target="_top" xlink:title="tests/test_momentum\l_evolution.cpp">
<polygon fill="#ffffff" stroke="#000000" points="948,-6 948,-36 1060,-36 1060,-6 948,-6"/>
<text text-anchor="start" x="956" y="-24" font-family="Helvetica,sans-Serif" font-size="10.00" fill="#000000">tests/test_momentum</text>
<text text-anchor="middle" x="1004" y="-13" font-family="Helvetica,sans-Serif" font-size="10.00" fill="#000000">_evolution.cpp</text>
</a>
</g>
</g>
<!-- Node11&#45;&gt;Node25 -->
<g id="edge59" class="edge">
<title>Node11&#45;&gt;Node25</title>
<path fill="none" stroke="#191970" d="M1393.0082,-186.7624C1369.455,-177.7532 1337.7497,-165.4345 1310,-154 1210.3832,-112.952 1093.9868,-61.3421 1037.7807,-36.187"/>
<polygon fill="#191970" stroke="#191970" points="1391.9773,-190.115 1402.5681,-190.4086 1394.4719,-183.5746 1391.9773,-190.115"/>
</g>
<!-- Node26 -->
<g id="node16" class="node">
<title>Node26</title>
<g id="a_node16"><a xlink:href="test__momentum__evolution__coupling_8cpp.html" target="_top" xlink:title="tests/test_momentum\l_evolution_coupling.cpp">
<polygon fill="#ffffff" stroke="#000000" points="2081.5,-6 2081.5,-36 2202.5,-36 2202.5,-6 2081.5,-6"/>
<text text-anchor="start" x="2089.5" y="-24" font-family="Helvetica,sans-Serif" font-size="10.00" fill="#000000">tests/test_momentum</text>
<text text-anchor="middle" x="2142" y="-13" font-family="Helvetica,sans-Serif" font-size="10.00" fill="#000000">_evolution_coupling.cpp</text>
</a>
</g>
</g>
<!-- Node11&#45;&gt;Node26 -->
<g id="edge60" class="edge">
<title>Node11&#45;&gt;Node26</title>
<path fill="none" stroke="#191970" d="M1474.4026,-195.0296C1533.0435,-188.2373 1636.8459,-174.5089 1724,-154 1865.4022,-120.7256 2028.1554,-63.1963 2101.9352,-36.0315"/>
<polygon fill="#191970" stroke="#191970" points="1473.8802,-191.5664 1464.3417,-196.178 1474.6742,-198.5213 1473.8802,-191.5664"/>
</g>
<!-- Node27 -->
<g id="node17" class="node">
<title>Node27</title>
<g id="a_node17"><a xlink:href="test__momentum__evolution__coupling2_8cpp.html" target="_top" xlink:title="tests/test_momentum\l_evolution_coupling2.cpp">
<polygon fill="#ffffff" stroke="#000000" points="2638,-6 2638,-36 2764,-36 2764,-6 2638,-6"/>
<text text-anchor="start" x="2646" y="-24" font-family="Helvetica,sans-Serif" font-size="10.00" fill="#000000">tests/test_momentum</text>
<text text-anchor="middle" x="2701" y="-13" font-family="Helvetica,sans-Serif" font-size="10.00" fill="#000000">_evolution_coupling2.cpp</text>
</a>
</g>
</g>
<!-- Node11&#45;&gt;Node27 -->
<g id="edge61" class="edge">
<title>Node11&#45;&gt;Node27</title>
<path fill="none" stroke="#191970" d="M1474.3392,-198.5986C1624.0819,-193.8797 2093.9312,-177.5346 2244,-154 2341.5514,-138.7015 2364.1409,-125.4239 2459,-98 2528.2502,-77.9797 2607.7563,-52.1237 2656.1707,-36.0526"/>
<polygon fill="#191970" stroke="#191970" points="1474.0054,-195.1072 1464.1197,-198.9182 1474.2243,-202.1038 1474.0054,-195.1072"/>
</g>
<!-- Node28 -->
<g id="node18" class="node">
<title>Node28</title>
<g id="a_node18"><a xlink:href="test__momentum__evolution__coupling__lambda_8cpp.html" target="_top" xlink:title="tests/test_momentum\l_evolution_coupling\l_lambda.cpp">
<polygon fill="#ffffff" stroke="#000000" points="2782,-.5 2782,-41.5 2894,-41.5 2894,-.5 2782,-.5"/>
<text text-anchor="start" x="2790" y="-29.5" font-family="Helvetica,sans-Serif" font-size="10.00" fill="#000000">tests/test_momentum</text>
<text text-anchor="start" x="2790" y="-18.5" font-family="Helvetica,sans-Serif" font-size="10.00" fill="#000000">_evolution_coupling</text>
<text text-anchor="middle" x="2838" y="-7.5" font-family="Helvetica,sans-Serif" font-size="10.00" fill="#000000">_lambda.cpp</text>
</a>
</g>
</g>
<!-- Node11&#45;&gt;Node28 -->
<g id="edge62" class="edge">
<title>Node11&#45;&gt;Node28</title>
<path fill="none" stroke="#191970" d="M1474.5867,-198.6392C1631.8454,-193.8759 2142.2974,-176.9878 2305,-154 2413.8833,-138.6161 2439.06,-123.6142 2546,-98 2647.0552,-73.7954 2673.0527,-70.4353 2773,-42 2775.8516,-41.1887 2778.7661,-40.3356 2781.7041,-39.4566"/>
<polygon fill="#191970" stroke="#191970" points="1474.2048,-195.149 1464.3146,-198.9482 1474.4154,-202.1458 1474.2048,-195.149"/>
</g>
<!-- Node29 -->
<g id="node19" class="node">
<title>Node29</title>
<g id="a_node19"><a xlink:href="test__momentum__evolution__coupling__lambda__noise_8cpp.html" target="_top" xlink:title="tests/test_momentum\l_evolution_coupling\l_lambda_noise.cpp">
<polygon fill="#ffffff" stroke="#000000" points="2912,-.5 2912,-41.5 3024,-41.5 3024,-.5 2912,-.5"/>
<text text-anchor="start" x="2920" y="-29.5" font-family="Helvetica,sans-Serif" font-size="10.00" fill="#000000">tests/test_momentum</text>
<text text-anchor="start" x="2920" y="-18.5" font-family="Helvetica,sans-Serif" font-size="10.00" fill="#000000">_evolution_coupling</text>
<text text-anchor="middle" x="2968" y="-7.5" font-family="Helvetica,sans-Serif" font-size="10.00" fill="#000000">_lambda_noise.cpp</text>
</a>
</g>
</g>
<!-- Node11&#45;&gt;Node29 -->
<g id="edge63" class="edge">
<title>Node11&#45;&gt;Node29</title>
<path fill="none" stroke="#191970" d="M1474.4066,-198.6656C1638.8904,-193.7906 2193.6328,-176.0696 2370,-154 2494.1976,-138.4586 2523.5152,-123.7692 2646,-98 2760.398,-73.9321 2790.1331,-72.4506 2903,-42 2905.8624,-41.2277 2908.7857,-40.406 2911.7305,-39.5519"/>
<polygon fill="#191970" stroke="#191970" points="1474.0374,-195.1749 1464.1449,-198.9681 1474.2437,-202.1719 1474.0374,-195.1749"/>
</g>
<!-- Node30 -->
<g id="node20" class="node">
<title>Node30</title>
<g id="a_node20"><a xlink:href="test__multiplication_8cpp.html" target="_top" xlink:title="tests/test_multiplication.cpp">
<polygon fill="#ffffff" stroke="#000000" points="1924.5,-11.5 1924.5,-30.5 2063.5,-30.5 2063.5,-11.5 1924.5,-11.5"/>
<text text-anchor="middle" x="1994" y="-18.5" font-family="Helvetica,sans-Serif" font-size="10.00" fill="#000000">tests/test_multiplication.cpp</text>
</a>
</g>
</g>
<!-- Node11&#45;&gt;Node30 -->
<g id="edge64" class="edge">
<title>Node11&#45;&gt;Node30</title>
<path fill="none" stroke="#191970" d="M1474.4999,-194.7534C1525.9968,-188.2145 1611.1128,-175.2354 1682,-154 1797.6329,-119.3604 1928.1427,-54.9119 1975.5534,-30.6081"/>
<polygon fill="#191970" stroke="#191970" points="1473.8433,-191.3079 1464.3508,-196.0137 1474.706,-198.2546 1473.8433,-191.3079"/>
</g>
<!-- Node31 -->
<g id="node21" class="node">
<title>Node31</title>
<g id="a_node21"><a xlink:href="test__noise__vectors_8cpp.html" target="_top" xlink:title="tests/test_noise_vectors.cpp">
<polygon fill="#ffffff" stroke="#000000" points="1078.5,-11.5 1078.5,-30.5 1221.5,-30.5 1221.5,-11.5 1078.5,-11.5"/>
<text text-anchor="middle" x="1150" y="-18.5" font-family="Helvetica,sans-Serif" font-size="10.00" fill="#000000">tests/test_noise_vectors.cpp</text>
</a>
</g>
</g>
<!-- Node11&#45;&gt;Node31 -->
<g id="edge65" class="edge">
<title>Node11&#45;&gt;Node31</title>
<path fill="none" stroke="#191970" d="M1400.9177,-185.5611C1384.775,-176.7692 1363.9897,-165.1217 1346,-154 1275.6947,-110.5353 1194.9625,-53.3332 1163.518,-30.7604"/>
<polygon fill="#191970" stroke="#191970" points="1399.3686,-188.7024 1409.8295,-190.3821 1402.6993,-182.5456 1399.3686,-188.7024"/>
</g>
<!-- Node32 -->
<g id="node22" class="node">
<title>Node32</title>
<g id="a_node22"><a xlink:href="test__position__evolution_8cpp.html" target="_top" xlink:title="tests/test_position\l_evolution.cpp">
<polygon fill="#ffffff" stroke="#000000" points="1239.5,-6 1239.5,-36 1336.5,-36 1336.5,-6 1239.5,-6"/>
<text text-anchor="start" x="1247.5" y="-24" font-family="Helvetica,sans-Serif" font-size="10.00" fill="#000000">tests/test_position</text>
<text text-anchor="middle" x="1288" y="-13" font-family="Helvetica,sans-Serif" font-size="10.00" fill="#000000">_evolution.cpp</text>
</a>
</g>
</g>
<!-- Node11&#45;&gt;Node32 -->
<g id="edge67" class="edge">
<title>Node11&#45;&gt;Node32</title>
<path fill="none" stroke="#191970" d="M1404.1483,-184.817C1392.0289,-176.5011 1377.4791,-165.5522 1366,-154 1330.3398,-118.1128 1304.8195,-62.7224 1293.9038,-36.1872"/>
<polygon fill="#191970" stroke="#191970" points="1402.2066,-187.7289 1412.465,-190.3778 1406.0975,-181.9099 1402.2066,-187.7289"/>
</g>
<!-- Node33 -->
<g id="node23" class="node">
<title>Node33</title>
<g id="a_node23"><a xlink:href="test__position__evolution__coupling_8cpp.html" target="_top" xlink:title="tests/test_position\l_evolution_coupling.cpp">
<polygon fill="#ffffff" stroke="#000000" points="1354.5,-6 1354.5,-36 1475.5,-36 1475.5,-6 1354.5,-6"/>
<text text-anchor="start" x="1362.5" y="-24" font-family="Helvetica,sans-Serif" font-size="10.00" fill="#000000">tests/test_position</text>
<text text-anchor="middle" x="1415" y="-13" font-family="Helvetica,sans-Serif" font-size="10.00" fill="#000000">_evolution_coupling.cpp</text>
</a>
</g>
</g>
<!-- Node11&#45;&gt;Node33 -->
<g id="edge68" class="edge">
<title>Node11&#45;&gt;Node33</title>
<path fill="none" stroke="#191970" d="M1409.897,-183.139C1391.2554,-164.4216 1363.3727,-132.2977 1352,-98 1343.6826,-72.9163 1367.8102,-50.3116 1388.5719,-36.1825"/>
<polygon fill="#191970" stroke="#191970" points="1407.6431,-185.8298 1417.2454,-190.3072 1412.531,-180.819 1407.6431,-185.8298"/>
</g>
<!-- Node34 -->
<g id="node24" class="node">
<title>Node34</title>
<g id="a_node24"><a xlink:href="test__position__evolution__hatta__coupling_8cpp.html" target="_top" xlink:title="tests/test_position\l_evolution_hatta_coupling.cpp">
<polygon fill="#ffffff" stroke="#000000" points="1494,-6 1494,-36 1642,-36 1642,-6 1494,-6"/>
<text text-anchor="start" x="1502" y="-24" font-family="Helvetica,sans-Serif" font-size="10.00" fill="#000000">tests/test_position</text>
<text text-anchor="middle" x="1568" y="-13" font-family="Helvetica,sans-Serif" font-size="10.00" fill="#000000">_evolution_hatta_coupling.cpp</text>
</a>
</g>
</g>
<!-- Node11&#45;&gt;Node34 -->
<g id="edge70" class="edge">
<title>Node11&#45;&gt;Node34</title>
<path fill="none" stroke="#191970" d="M1474.0947,-194.0862C1528.0495,-184.4251 1615.0926,-159.683 1655,-98 1671.6539,-72.2588 1637.8604,-49.9397 1607.6547,-36.0538"/>
<polygon fill="#191970" stroke="#191970" points="1473.3753,-190.658 1464.0964,-195.7721 1474.5392,-197.5606 1473.3753,-190.658"/>
</g>
<!-- Node35 -->
<g id="node25" class="node">
<title>Node35</title>
<g id="a_node25"><a xlink:href="test__symmetrize__average_8cpp.html" target="_top" xlink:title="tests/test_symmetrize\l_average.cpp">
<polygon fill="#ffffff" stroke="#000000" points="1660,-6 1660,-36 1774,-36 1774,-6 1660,-6"/>
<text text-anchor="start" x="1668" y="-24" font-family="Helvetica,sans-Serif" font-size="10.00" fill="#000000">tests/test_symmetrize</text>
<text text-anchor="middle" x="1717" y="-13" font-family="Helvetica,sans-Serif" font-size="10.00" fill="#000000">_average.cpp</text>
</a>
</g>
</g>
<!-- Node11&#45;&gt;Node35 -->
<g id="edge71" class="edge">
<title>Node11&#45;&gt;Node35</title>
<path fill="none" stroke="#191970" d="M1473.982,-196.04C1514.9245,-190.9484 1575.3822,-179.4877 1622,-154 1653.44,-136.8106 1659.0218,-127.0494 1680,-98 1694.2402,-78.2809 1705.42,-52.2261 1711.6163,-36.0459"/>
<polygon fill="#191970" stroke="#191970" points="1473.5411,-192.5676 1464.0136,-197.2019 1474.3516,-199.5205 1473.5411,-192.5676"/>
</g>
<!-- Node36 -->
<g id="node26" class="node">
<title>Node36</title>
<g id="a_node26"><a xlink:href="test__symmetrize__average2_8cpp.html" target="_top" xlink:title="tests/test_symmetrize\l_average2.cpp">
<polygon fill="#ffffff" stroke="#000000" points="1792,-6 1792,-36 1906,-36 1906,-6 1792,-6"/>
<text text-anchor="start" x="1800" y="-24" font-family="Helvetica,sans-Serif" font-size="10.00" fill="#000000">tests/test_symmetrize</text>
<text text-anchor="middle" x="1849" y="-13" font-family="Helvetica,sans-Serif" font-size="10.00" fill="#000000">_average2.cpp</text>
</a>
</g>
</g>
<!-- Node11&#45;&gt;Node36 -->
<g id="edge72" class="edge">
<title>Node11&#45;&gt;Node36</title>
<path fill="none" stroke="#191970" d="M1474.2201,-195.6539C1520.2215,-190.1368 1592.1178,-178.25 1650,-154 1723.5873,-123.1703 1798.7311,-63.7727 1831.7039,-36.0007"/>
<polygon fill="#191970" stroke="#191970" points="1473.7801,-192.1813 1464.2445,-196.7989 1474.5784,-199.1356 1473.7801,-192.1813"/>
</g>
<!-- Node13 -->
<g id="node3" class="node">
<title>Node13</title>
<g id="a_node3"><a xlink:href="main__explicit_8cpp.html" target="_top" xlink:title="main_explicit.cpp">
<polygon fill="#ffffff" stroke="#000000" points="2221,-11.5 2221,-30.5 2313,-30.5 2313,-11.5 2221,-11.5"/>
<text text-anchor="middle" x="2267" y="-18.5" font-family="Helvetica,sans-Serif" font-size="10.00" fill="#000000">main_explicit.cpp</text>
</a>
</g>
</g>
<!-- Node12&#45;&gt;Node13 -->
<g id="edge2" class="edge">
<title>Node12&#45;&gt;Node13</title>
<path fill="none" stroke="#191970" d="M1522.8479,-142.2599C1624.7935,-136.1073 1951.6433,-111.8583 2212,-42 2223.1551,-39.0069 2235.1785,-34.5645 2245.1302,-30.5355"/>
<polygon fill="#191970" stroke="#191970" points="1522.3912,-138.7806 1512.614,-142.8617 1522.8022,-145.7685 1522.3912,-138.7806"/>
</g>
<!-- Node14 -->
<g id="node4" class="node">
<title>Node14</title>
<g id="a_node4"><a xlink:href="matrix_8h.html" target="_top" xlink:title="matrix.h">
<polygon fill="#ffffff" stroke="#000000" points="2248,-78.5 2248,-97.5 2300,-97.5 2300,-78.5 2248,-78.5"/>
<text text-anchor="middle" x="2274" y="-85.5" font-family="Helvetica,sans-Serif" font-size="10.00" fill="#000000">matrix.h</text>
</a>
</g>
</g>
<!-- Node12&#45;&gt;Node14 -->
<g id="edge3" class="edge">
<title>Node12&#45;&gt;Node14</title>
<path fill="none" stroke="#191970" d="M1522.7349,-142.5295C1621.7165,-137.8112 1933.5617,-121.9492 2191,-98 2210.076,-96.2254 2231.547,-93.6221 2247.8715,-91.5166"/>
<polygon fill="#191970" stroke="#191970" points="1522.3382,-139.0443 1512.5148,-143.013 1522.669,-146.0364 1522.3382,-139.0443"/>
</g>
<!-- Node12&#45;&gt;Node15 -->
<g id="edge45" class="edge">
<title>Node12&#45;&gt;Node15</title>
<path fill="none" stroke="#191970" d="M1522.7866,-143.2647C1664.37,-139.8477 2233.9337,-124.5517 2309,-98 2346.1115,-84.8733 2381.6559,-54.6266 2400.9863,-36.1905"/>
<polygon fill="#191970" stroke="#191970" points="1522.5223,-139.7699 1512.6087,-143.5076 1522.6894,-146.7679 1522.5223,-139.7699"/>
</g>
<!-- Node12&#45;&gt;Node16 -->
<g id="edge48" class="edge">
<title>Node12&#45;&gt;Node16</title>
<path fill="none" stroke="#191970" d="M1522.6418,-143.4215C1656.9452,-140.7921 2180.3105,-128.7401 2342,-98 2405.7774,-85.8747 2476.1198,-59.9341 2521.3432,-41.5182"/>
<polygon fill="#191970" stroke="#191970" points="1522.5323,-139.9229 1512.6014,-143.6146 1522.6669,-146.9216 1522.5323,-139.9229"/>
</g>
<!-- Node17 -->
<g id="node7" class="node">
<title>Node17</title>
<g id="a_node7"><a xlink:href="mpi__fftw__class_8h.html" target="_top" xlink:title="mpi_fftw_class.h">
<polygon fill="#ffffff" stroke="#000000" points="1369.5,-78.5 1369.5,-97.5 1460.5,-97.5 1460.5,-78.5 1369.5,-78.5"/>
<text text-anchor="middle" x="1415" y="-85.5" font-family="Helvetica,sans-Serif" font-size="10.00" fill="#000000">mpi_fftw_class.h</text>
</a>
</g>
</g>
<!-- Node12&#45;&gt;Node17 -->
<g id="edge7" class="edge">
<title>Node12&#45;&gt;Node17</title>
<path fill="none" stroke="#191970" d="M1469.5703,-128.2097C1456.2223,-118.3743 1439.4821,-106.0394 1428.0865,-97.6427"/>
<polygon fill="#191970" stroke="#191970" points="1467.635,-131.1312 1477.7618,-134.2455 1471.7874,-125.4958 1467.635,-131.1312"/>
</g>
<!-- Node12&#45;&gt;Node18 -->
<g id="edge31" class="edge">
<title>Node12&#45;&gt;Node18</title>
<path fill="none" stroke="#191970" d="M1459.3227,-143.671C1337.6406,-142.1589 888.659,-134.2954 521,-98 354.6126,-81.5742 312.7084,-75.9726 149,-42 133.7149,-38.8281 116.9796,-34.5047 102.8624,-30.6052"/>
<polygon fill="#191970" stroke="#191970" points="1459.3937,-147.172 1469.4346,-143.7912 1459.4769,-140.1725 1459.3937,-147.172"/>
</g>
<!-- Node12&#45;&gt;Node19 -->
<g id="edge32" class="edge">
<title>Node12&#45;&gt;Node19</title>
<path fill="none" stroke="#191970" d="M1459.1782,-143.273C1349.8907,-140.5488 979.882,-129.4409 676,-98 593.0644,-89.4191 386.6086,-59.0877 305,-42 289.7639,-38.8098 273.0761,-34.438 259.0599,-30.5091"/>
<polygon fill="#191970" stroke="#191970" points="1459.1342,-146.7729 1469.2166,-143.5177 1459.3049,-139.775 1459.1342,-146.7729"/>
</g>
<!-- Node12&#45;&gt;Node20 -->
<g id="edge33" class="edge">
<title>Node12&#45;&gt;Node20</title>
<path fill="none" stroke="#191970" d="M1459.3708,-143.6102C1358.7487,-142.0206 1037.1883,-134.245 774,-98 731.6864,-92.1728 722.0165,-85.6815 680,-78 576.0599,-58.9975 548.076,-65.2375 445,-42 431.2613,-38.9027 416.2763,-34.5433 403.7088,-30.5985"/>
<polygon fill="#191970" stroke="#191970" points="1459.4255,-147.1113 1469.4764,-143.7604 1459.5296,-140.1121 1459.4255,-147.1113"/>
</g>
<!-- Node12&#45;&gt;Node21 -->
<g id="edge34" class="edge">
<title>Node12&#45;&gt;Node21</title>
<path fill="none" stroke="#191970" d="M1459.3003,-143.4789C1366.7604,-141.573 1089.1689,-133.1173 862,-98 824.0735,-92.1371 815.6508,-85.43 778,-78 676.9216,-58.0532 648.2986,-69.4682 549,-42 543.0882,-40.3647 536.9369,-38.2624 531.022,-36.0221"/>
<polygon fill="#191970" stroke="#191970" points="1459.3411,-146.9803 1469.4074,-143.6758 1459.4775,-139.9816 1459.3411,-146.9803"/>
</g>
<!-- Node12&#45;&gt;Node22 -->
<g id="edge35" class="edge">
<title>Node12&#45;&gt;Node22</title>
<path fill="none" stroke="#191970" d="M1458.9845,-142.2992C1377.3399,-137.7168 1154.8286,-123.691 971,-98 954.6411,-95.7138 695.0003,-46.1024 679,-42 672.2224,-40.2623 665.1163,-38.2101 658.1931,-36.0807"/>
<polygon fill="#191970" stroke="#191970" points="1458.9353,-145.8017 1469.1134,-142.8595 1459.322,-138.8124 1458.9353,-145.8017"/>
</g>
<!-- Node12&#45;&gt;Node23 -->
<g id="edge36" class="edge">
<title>Node12&#45;&gt;Node23</title>
<path fill="none" stroke="#191970" d="M1459.3152,-141.6969C1361.2591,-134.0544 1054.5942,-106.2785 809,-42 802.2312,-40.2284 795.1298,-38.158 788.2087,-36.0206"/>
<polygon fill="#191970" stroke="#191970" points="1459.2111,-145.1991 1469.4491,-142.4724 1459.7453,-138.2195 1459.2111,-145.1991"/>
</g>
<!-- Node12&#45;&gt;Node24 -->
<g id="edge37" class="edge">
<title>Node12&#45;&gt;Node24</title>
<path fill="none" stroke="#191970" d="M1459.2177,-139.8654C1404.1836,-132.5448 1287.6609,-116.335 1190,-98 1077.6643,-76.9099 1049.2784,-72.0463 939,-42 932.3637,-40.1919 925.3979,-38.1251 918.5927,-36.0097"/>
<polygon fill="#191970" stroke="#191970" points="1459.0084,-143.3681 1469.3808,-141.209 1459.9258,-136.4285 1459.0084,-143.3681"/>
</g>
<!-- Node12&#45;&gt;Node25 -->
<g id="edge38" class="edge">
<title>Node12&#45;&gt;Node25</title>
<path fill="none" stroke="#191970" d="M1459.395,-138.002C1416.6998,-129.7534 1338.3033,-114.0922 1272,-98 1181.0482,-75.9255 1158.662,-68.8373 1069,-42 1062.7514,-40.1297 1056.1875,-38.0937 1049.7322,-36.0496"/>
<polygon fill="#191970" stroke="#191970" points="1458.9705,-141.4844 1469.4514,-139.9351 1460.2919,-134.6103 1458.9705,-141.4844"/>
</g>
<!-- Node12&#45;&gt;Node26 -->
<g id="edge39" class="edge">
<title>Node12&#45;&gt;Node26</title>
<path fill="none" stroke="#191970" d="M1522.7538,-139.922C1610.8709,-128.2871 1865.6139,-92.4882 2073,-42 2080.1781,-40.2525 2087.7126,-38.195 2095.0579,-36.0633"/>
<polygon fill="#191970" stroke="#191970" points="1522.0734,-136.4812 1512.6131,-141.2511 1522.9831,-143.4218 1522.0734,-136.4812"/>
</g>
<!-- Node12&#45;&gt;Node27 -->
<g id="edge40" class="edge">
<title>Node12&#45;&gt;Node27</title>
<path fill="none" stroke="#191970" d="M1522.7024,-143.1643C1661.9886,-139.373 2220.4124,-122.8902 2394,-98 2487.6923,-84.5658 2594.2904,-54.3499 2654.0098,-36.0175"/>
<polygon fill="#191970" stroke="#191970" points="1522.5858,-139.6661 1512.6839,-143.4347 1522.7747,-146.6636 1522.5858,-139.6661"/>
</g>
<!-- Node12&#45;&gt;Node28 -->
<g id="edge41" class="edge">
<title>Node12&#45;&gt;Node28</title>
<path fill="none" stroke="#191970" d="M1522.5872,-143.0483C1667.6865,-138.5923 2271.2202,-119.1172 2459,-98 2599.8696,-82.1582 2635.4582,-76.3141 2773,-42 2775.8766,-41.2823 2778.8112,-40.5046 2781.7652,-39.6853"/>
<polygon fill="#191970" stroke="#191970" points="1522.4573,-139.5505 1512.5688,-143.3544 1522.6711,-146.5473 1522.4573,-139.5505"/>
</g>
<!-- Node12&#45;&gt;Node29 -->
<g id="edge42" class="edge">
<title>Node12&#45;&gt;Node29</title>
<path fill="none" stroke="#191970" d="M1522.922,-143.0915C1676.462,-138.6476 2340.0143,-118.5811 2546,-98 2705.8112,-82.0325 2746.7718,-79.2467 2903,-42 2905.8839,-41.3124 2908.8245,-40.5589 2911.7831,-39.7588"/>
<polygon fill="#191970" stroke="#191970" points="1522.6568,-139.5976 1512.7618,-143.3842 1522.8585,-146.5947 1522.6568,-139.5976"/>
</g>
<!-- Node12&#45;&gt;Node30 -->
<g id="edge43" class="edge">
<title>Node12&#45;&gt;Node30</title>
<path fill="none" stroke="#191970" d="M1522.6612,-138.2834C1566.5134,-130.2005 1648.1259,-114.5604 1717,-98 1806.7816,-76.4125 1911.459,-45.8138 1962.6163,-30.5016"/>
<polygon fill="#191970" stroke="#191970" points="1521.8177,-134.8796 1512.6124,-140.125 1523.0795,-141.765 1521.8177,-134.8796"/>
</g>
<!-- Node12&#45;&gt;Node31 -->
<g id="edge44" class="edge">
<title>Node12&#45;&gt;Node31</title>
<path fill="none" stroke="#191970" d="M1459.7315,-136.7649C1426.0475,-128.6412 1371.0789,-114.4252 1325,-98 1267.0017,-77.3261 1201.1704,-46.1837 1169.3103,-30.5989"/>
<polygon fill="#191970" stroke="#191970" points="1458.9294,-140.1717 1469.4685,-139.0862 1460.5528,-133.3625 1458.9294,-140.1717"/>
</g>
<!-- Node12&#45;&gt;Node32 -->
<g id="edge46" class="edge">
<title>Node12&#45;&gt;Node32</title>
<path fill="none" stroke="#191970" d="M1459.2481,-138.7165C1429.5208,-132.6193 1384.876,-120.4176 1352,-98 1327.8723,-81.5477 1307.8497,-53.5279 1296.9352,-36.2084"/>
<polygon fill="#191970" stroke="#191970" points="1458.6138,-142.1587 1469.0971,-140.6254 1459.9457,-135.2865 1458.6138,-142.1587"/>
</g>
<!-- Node12&#45;&gt;Node33 -->
<g id="edge47" class="edge">
<title>Node12&#45;&gt;Node33</title>
<path fill="none" stroke="#191970" d="M1459.3793,-137.2014C1424.7531,-129.0402 1372.5847,-114.3878 1361,-98 1345.8256,-76.5342 1371.096,-51.6131 1391.941,-36.073"/>
<polygon fill="#191970" stroke="#191970" points="1458.9686,-140.698 1469.4978,-139.5206 1460.5325,-133.8749 1458.9686,-140.698"/>
</g>
<!-- Node12&#45;&gt;Node34 -->
<g id="edge49" class="edge">
<title>Node12&#45;&gt;Node34</title>
<path fill="none" stroke="#191970" d="M1522.5846,-138.661C1561.7682,-131.319 1625.1231,-116.8449 1639,-98 1656.0357,-74.8655 1624.9976,-50.9568 1598.7376,-36.0419"/>
<polygon fill="#191970" stroke="#191970" points="1521.9241,-135.2236 1512.7117,-140.4564 1523.1766,-142.1106 1521.9241,-135.2236"/>
</g>
<!-- Node12&#45;&gt;Node35 -->
<g id="edge50" class="edge">
<title>Node12&#45;&gt;Node35</title>
<path fill="none" stroke="#191970" d="M1522.7492,-140.9132C1557.6493,-136.2651 1614.1759,-124.9325 1655,-98 1679.2112,-82.0273 1698.4761,-53.5865 1708.7739,-36.1004"/>
<polygon fill="#191970" stroke="#191970" points="1522.1534,-137.46 1512.6537,-142.151 1523.0054,-144.4079 1522.1534,-137.46"/>
</g>
<!-- Node12&#45;&gt;Node36 -->
<g id="edge51" class="edge">
<title>Node12&#45;&gt;Node36</title>
<path fill="none" stroke="#191970" d="M1522.5853,-138.2124C1560.5437,-130.8249 1625.8874,-116.7244 1680,-98 1730.8842,-80.3927 1787.2988,-52.9899 1820.3744,-36.0645"/>
<polygon fill="#191970" stroke="#191970" points="1521.8011,-134.7988 1512.6373,-140.1163 1523.117,-141.6741 1521.8011,-134.7988"/>
</g>
<!-- Node37 -->
<g id="node27" class="node">
<title>Node37</title>
<g id="a_node27"><a xlink:href="mpi__exchange__boundaries_8cpp.html" target="_top" xlink:title="mpi_exchange_boundaries.cpp">
<polygon fill="#ffffff" stroke="#000000" points="1478.5,-78.5 1478.5,-97.5 1629.5,-97.5 1629.5,-78.5 1478.5,-78.5"/>
<text text-anchor="middle" x="1554" y="-85.5" font-family="Helvetica,sans-Serif" font-size="10.00" fill="#000000">mpi_exchange_boundaries.cpp</text>
</a>
</g>
</g>
<!-- Node12&#45;&gt;Node37 -->
<g id="edge30" class="edge">
<title>Node12&#45;&gt;Node37</title>
<path fill="none" stroke="#191970" d="M1509.7192,-127.3607C1520.6182,-117.6727 1533.9755,-105.7995 1543.152,-97.6427"/>
<polygon fill="#191970" stroke="#191970" points="1507.1226,-124.9859 1501.9738,-134.2455 1511.7732,-130.2178 1507.1226,-124.9859"/>
</g>
<!-- Node14&#45;&gt;Node13 -->
<g id="edge4" class="edge">
<title>Node14&#45;&gt;Node13</title>
<path fill="none" stroke="#191970" d="M2271.9217,-68.1079C2270.6268,-55.714 2269.0192,-40.3263 2268.0011,-30.5817"/>
<polygon fill="#191970" stroke="#191970" points="2268.4768,-68.8184 2272.9971,-78.4005 2275.4389,-68.0909 2268.4768,-68.8184"/>
</g>
<!-- Node14&#45;&gt;Node15 -->
<g id="edge5" class="edge">
<title>Node14&#45;&gt;Node15</title>
<path fill="none" stroke="#191970" d="M2303.5002,-74.0809C2327.0587,-62.9653 2360.0103,-47.4177 2384.1628,-36.0218"/>
<polygon fill="#191970" stroke="#191970" points="2301.8955,-70.968 2294.3451,-78.4005 2304.8825,-77.2987 2301.8955,-70.968"/>
</g>
<!-- Node14&#45;&gt;Node16 -->
<g id="edge6" class="edge">
<title>Node14&#45;&gt;Node16</title>
<path fill="none" stroke="#191970" d="M2310.0593,-82.6914C2356.6856,-75.4363 2440.1916,-61.1117 2510,-42 2512.6217,-41.2823 2515.2939,-40.5044 2517.982,-39.6851"/>
<polygon fill="#191970" stroke="#191970" points="2309.488,-79.238 2300.135,-84.2152 2310.5504,-86.1569 2309.488,-79.238"/>
</g>
<!-- Node17&#45;&gt;Node13 -->
<g id="edge8" class="edge">
<title>Node17&#45;&gt;Node13</title>
<path fill="none" stroke="#191970" d="M1470.8536,-78.0809C1799.9037,-41.7956 1892.1696,-109.0358 2212,-42 2223.8042,-39.5259 2236.4119,-34.8708 2246.5744,-30.5711"/>
<polygon fill="#191970" stroke="#191970" points="1470.0949,-74.6442 1460.5499,-79.2423 1470.879,-81.6002 1470.0949,-74.6442"/>
</g>
<!-- Node17&#45;&gt;Node15 -->
<g id="edge23" class="edge">
<title>Node17&#45;&gt;Node15</title>
<path fill="none" stroke="#191970" d="M1470.6623,-78.1033C1848.442,-36.9691 1949.546,-91.077 2322,-42 2333.1075,-40.5364 2344.8397,-38.4005 2356.1086,-36.0444"/>
<polygon fill="#191970" stroke="#191970" points="1470.1028,-74.6437 1460.5474,-79.2201 1470.8711,-81.6015 1470.1028,-74.6437"/>
</g>
<!-- Node17&#45;&gt;Node16 -->
<g id="edge26" class="edge">
<title>Node17&#45;&gt;Node16</title>
<path fill="none" stroke="#191970" d="M1470.5535,-78.1613C1715.794,-54.1129 2285.9428,-84.6902 2510,-42 2512.5633,-41.5116 2515.1645,-40.9302 2517.7741,-40.2776"/>
<polygon fill="#191970" stroke="#191970" points="1470.1327,-74.686 1460.5444,-79.1931 1470.8506,-81.6491 1470.1327,-74.686"/>
</g>
<!-- Node17&#45;&gt;Node18 -->
<g id="edge9" class="edge">
<title>Node17&#45;&gt;Node18</title>
<path fill="none" stroke="#191970" d="M1359.1039,-87.6284C1146.4066,-85.9569 387.5195,-77.5772 149,-42 132.4372,-39.5295 114.3586,-34.8748 99.6806,-30.5743"/>
<polygon fill="#191970" stroke="#191970" points="1359.3773,-91.1305 1369.4039,-87.7074 1359.4311,-84.1307 1359.3773,-91.1305"/>
</g>
<!-- Node17&#45;&gt;Node19 -->
<g id="edge10" class="edge">
<title>Node17&#45;&gt;Node19</title>
<path fill="none" stroke="#191970" d="M1359.2843,-87.3225C1164.0578,-84.6937 511.6073,-73.692 305,-42 288.6432,-39.491 270.7931,-34.8332 256.3017,-30.5407"/>
<polygon fill="#191970" stroke="#191970" points="1359.2738,-90.8225 1369.3194,-87.4556 1359.3667,-83.8232 1359.2738,-90.8225"/>
</g>
<!-- Node17&#45;&gt;Node20 -->
<g id="edge11" class="edge">
<title>Node17&#45;&gt;Node20</title>
<path fill="none" stroke="#191970" d="M1359.2594,-87.1422C1180.4662,-84.1101 622.6983,-72.3974 445,-42 430.2427,-39.4756 414.2173,-34.8166 401.2283,-30.5273"/>
<polygon fill="#191970" stroke="#191970" points="1359.4299,-90.6454 1369.487,-87.3131 1359.547,-83.6464 1359.4299,-90.6454"/>
</g>
<!-- Node17&#45;&gt;Node21 -->
<g id="edge12" class="edge">
<title>Node17&#45;&gt;Node21</title>
<path fill="none" stroke="#191970" d="M1358.7773,-87.4298C1192.3512,-85.3607 704.1496,-76.4409 549,-42 542.5367,-40.5653 535.8381,-38.411 529.4853,-36.0208"/>
<polygon fill="#191970" stroke="#191970" points="1359.2257,-90.9354 1369.2673,-87.5564 1359.3103,-83.9359 1359.2257,-90.9354"/>
</g>
<!-- Node17&#45;&gt;Node22 -->
<g id="edge13" class="edge">
<title>Node17&#45;&gt;Node22</title>
<path fill="none" stroke="#191970" d="M1358.8052,-86.3056C1210.1725,-81.5336 809.2064,-66.6978 679,-42 671.1936,-40.5193 663.0211,-38.3752 655.2088,-36.0164"/>
<polygon fill="#191970" stroke="#191970" points="1358.9573,-89.8121 1369.0635,-86.6318 1359.1799,-82.8156 1358.9573,-89.8121"/>
</g>
<!-- Node17&#45;&gt;Node23 -->
<g id="edge14" class="edge">
<title>Node17&#45;&gt;Node23</title>
<path fill="none" stroke="#191970" d="M1359.0299,-85.4477C1229.7476,-79.2777 913.4533,-62.5358 809,-42 801.32,-40.4901 793.2797,-38.3629 785.5752,-36.0371"/>
<polygon fill="#191970" stroke="#191970" points="1358.9594,-88.9482 1369.1139,-85.9256 1359.2908,-81.956 1358.9594,-88.9482"/>
</g>
<!-- Node17&#45;&gt;Node24 -->
<g id="edge15" class="edge">
<title>Node17&#45;&gt;Node24</title>
<path fill="none" stroke="#191970" d="M1359.0209,-86.5007C1269.4482,-83.2298 1088.7513,-73.0451 939,-42 931.4521,-40.4352 923.5467,-38.3112 915.9519,-36.0129"/>
<polygon fill="#191970" stroke="#191970" points="1359.1081,-90.0058 1369.2244,-86.8575 1359.3528,-83.01 1359.1081,-90.0058"/>
</g>
<!-- Node17&#45;&gt;Node25 -->
<g id="edge16" class="edge">
<title>Node17&#45;&gt;Node25</title>
<path fill="none" stroke="#191970" d="M1359.2919,-83.7081C1290.4593,-77.6937 1170.0561,-64.8457 1069,-42 1061.7127,-40.3526 1054.0756,-38.2442 1046.7021,-36.0015"/>
<polygon fill="#191970" stroke="#191970" points="1359.2128,-87.214 1369.4751,-84.5807 1359.8105,-80.2396 1359.2128,-87.214"/>
</g>
<!-- Node17&#45;&gt;Node26 -->
<g id="edge17" class="edge">
<title>Node17&#45;&gt;Node26</title>
<path fill="none" stroke="#191970" d="M1470.5715,-78.0944C1738.3458,-46.9769 1811.9686,-88.8355 2073,-42 2081.2577,-40.5184 2089.9192,-38.3739 2098.2076,-36.0149"/>
<polygon fill="#191970" stroke="#191970" points="1470.073,-74.6289 1460.5545,-79.2818 1470.897,-81.5803 1470.073,-74.6289"/>
</g>
<!-- Node17&#45;&gt;Node27 -->
<g id="edge18" class="edge">
<title>Node17&#45;&gt;Node27</title>
<path fill="none" stroke="#191970" d="M1470.815,-78.1045C1984.3258,-25.0527 2123.3682,-122.262 2629,-42 2637.7447,-40.6119 2646.9238,-38.4795 2655.6896,-36.0962"/>
<polygon fill="#191970" stroke="#191970" points="1470.124,-74.6576 1460.5431,-79.1805 1470.8533,-81.6195 1470.124,-74.6576"/>
</g>
<!-- Node17&#45;&gt;Node28 -->
<g id="edge19" class="edge">
<title>Node17&#45;&gt;Node28</title>
<path fill="none" stroke="#191970" d="M1470.7294,-78.1462C1774.4359,-48.9592 2490.7185,-90.472 2773,-42 2775.922,-41.4982 2778.8932,-40.8942 2781.8761,-40.2127"/>
<polygon fill="#191970" stroke="#191970" points="1470.1424,-74.6875 1460.5418,-79.1684 1470.8413,-81.6525 1470.1424,-74.6875"/>
</g>
<!-- Node17&#45;&gt;Node29 -->
<g id="edge20" class="edge">
<title>Node17&#45;&gt;Node29</title>
<path fill="none" stroke="#191970" d="M1470.7284,-78.1476C1803.2717,-46.4277 2592.2027,-94.968 2903,-42 2905.9226,-41.5019 2908.8943,-40.9008 2911.8776,-40.2216"/>
<polygon fill="#191970" stroke="#191970" points="1470.1459,-74.6881 1460.5409,-79.1595 1470.8379,-81.6538 1470.1459,-74.6881"/>
</g>
<!-- Node17&#45;&gt;Node30 -->
<g id="edge21" class="edge">
<title>Node17&#45;&gt;Node30</title>
<path fill="none" stroke="#191970" d="M1470.707,-78.0463C1668.5315,-52.9821 1722.692,-75.0642 1915,-42 1931.0843,-39.2346 1948.6599,-34.716 1963.1411,-30.5773"/>
<polygon fill="#191970" stroke="#191970" points="1470.0331,-74.6041 1460.5639,-79.3564 1470.9299,-81.5465 1470.0331,-74.6041"/>
</g>
<!-- Node17&#45;&gt;Node31 -->
<g id="edge22" class="edge">
<title>Node17&#45;&gt;Node31</title>
<path fill="none" stroke="#191970" d="M1366.5181,-76.0016C1329.399,-66.7857 1276.9383,-53.697 1231,-42 1216.4994,-38.3078 1200.555,-34.1872 1186.6759,-30.5806"/>
<polygon fill="#191970" stroke="#191970" points="1366.014,-79.4826 1376.5626,-78.4939 1367.6998,-72.6886 1366.014,-79.4826"/>
</g>
<!-- Node17&#45;&gt;Node32 -->
<g id="edge24" class="edge">
<title>Node17&#45;&gt;Node32</title>
<path fill="none" stroke="#191970" d="M1387.7688,-73.6339C1366.7616,-62.5514 1337.7873,-47.2657 1316.4741,-36.0218"/>
<polygon fill="#191970" stroke="#191970" points="1386.3262,-76.83 1396.804,-78.4005 1389.5925,-70.6388 1386.3262,-76.83"/>
</g>
<!-- Node17&#45;&gt;Node33 -->
<g id="edge25" class="edge">
<title>Node17&#45;&gt;Node33</title>
<path fill="none" stroke="#191970" d="M1415,-68.2758C1415,-57.9641 1415,-45.5437 1415,-36.0218"/>
<polygon fill="#191970" stroke="#191970" points="1411.5001,-68.4005 1415,-78.4005 1418.5001,-68.4006 1411.5001,-68.4005"/>
</g>
<!-- Node17&#45;&gt;Node34 -->
<g id="edge27" class="edge">
<title>Node17&#45;&gt;Node34</title>
<path fill="none" stroke="#191970" d="M1446.1109,-74.3763C1471.5369,-63.242 1507.4418,-47.519 1533.6966,-36.0218"/>
<polygon fill="#191970" stroke="#191970" points="1444.6774,-71.1831 1436.9212,-78.4005 1447.4854,-77.5952 1444.6774,-71.1831"/>
</g>
<!-- Node17&#45;&gt;Node35 -->
<g id="edge28" class="edge">
<title>Node17&#45;&gt;Node35</title>
<path fill="none" stroke="#191970" d="M1470.4836,-77.5349C1534.6592,-65.3753 1633.749,-46.41 1651,-42 1657.8733,-40.2429 1665.0842,-38.1803 1672.1118,-36.0463"/>
<polygon fill="#191970" stroke="#191970" points="1469.6759,-74.1256 1460.5015,-79.4248 1470.9781,-81.0034 1469.6759,-74.1256"/>
</g>
<!-- Node17&#45;&gt;Node36 -->
<g id="edge29" class="edge">
<title>Node17&#45;&gt;Node36</title>
<path fill="none" stroke="#191970" d="M1470.803,-77.9863C1610.33,-58.0924 1649.2946,-70.6777 1783,-42 1790.4069,-40.4113 1798.1653,-38.3328 1805.6537,-36.1017"/>
<polygon fill="#191970" stroke="#191970" points="1469.9714,-74.5704 1460.5806,-79.4758 1470.9807,-81.4973 1469.9714,-74.5704"/>
</g>
</g>
</svg>
