<?xml version="1.0" encoding="UTF-8" standalone="no"?>
<!DOCTYPE svg PUBLIC "-//W3C//DTD SVG 1.1//EN"
 "http://www.w3.org/Graphics/SVG/1.1/DTD/svg11.dtd">
<!-- Generated by graphviz version 2.40.1 (20161225.0304)
 -->
<!-- Title: rand_class.h Pages: 1 -->
<svg width="549pt" height="196pt"
 viewBox="0.00 0.00 548.50 196.00" xmlns="http://www.w3.org/2000/svg" xmlns:xlink="http://www.w3.org/1999/xlink">
<g id="graph0" class="graph" transform="scale(1 1) rotate(0) translate(4 192)">
<title>rand_class.h</title>
<polygon fill="#ffffff" stroke="transparent" points="-4,4 -4,-192 544.5,-192 544.5,4 -4,4"/>
<!-- Node0 -->
<g id="node1" class="node">
<title>Node0</title>
<polygon fill="#bfbfbf" stroke="#000000" points="213,-168.5 213,-187.5 285,-187.5 285,-168.5 213,-168.5"/>
<text text-anchor="middle" x="249" y="-175.5" font-family="Helvetica,sans-Serif" font-size="10.00" fill="#000000">rand_class.h</text>
</g>
<!-- Node1 -->
<g id="node2" class="node">
<title>Node1</title>
<polygon fill="#ffffff" stroke="#bfbfbf" points="0,-.5 0,-19.5 54,-19.5 54,-.5 0,-.5"/>
<text text-anchor="middle" x="27" y="-7.5" font-family="Helvetica,sans-Serif" font-size="10.00" fill="#000000">iostream</text>
</g>
<!-- Node0&#45;&gt;Node1 -->
<g id="edge1" class="edge">
<title>Node0&#45;&gt;Node1</title>
<path fill="none" stroke="#191970" d="M212.8836,-173.433C179.3759,-167.866 129.2171,-156.0441 92,-132 64.4657,-114.2115 59.1479,-105.0708 44,-76 36.4819,-61.5718 32.1356,-43.6025 29.7228,-30.0584"/>
<polygon fill="#191970" stroke="#191970" points="33.1358,-29.2313 28.1236,-19.897 26.2209,-30.3196 33.1358,-29.2313"/>
</g>
<!-- Node2 -->
<g id="node3" class="node">
<title>Node2</title>
<polygon fill="#ffffff" stroke="#bfbfbf" points="140,-.5 140,-19.5 188,-19.5 188,-.5 140,-.5"/>
<text text-anchor="middle" x="164" y="-7.5" font-family="Helvetica,sans-Serif" font-size="10.00" fill="#000000">stdlib.h</text>
</g>
<!-- Node0&#45;&gt;Node2 -->
<g id="edge2" class="edge">
<title>Node0&#45;&gt;Node2</title>
<path fill="none" stroke="#191970" d="M249.9305,-168.2603C251.5328,-146.3712 252.7112,-92.3619 230,-56 221.6647,-42.6547 207.8843,-32.1468 195.0652,-24.5634"/>
<polygon fill="#191970" stroke="#191970" points="196.4394,-21.3243 185.9925,-19.5596 193.0588,-27.4539 196.4394,-21.3243"/>
</g>
<!-- Node3 -->
<g id="node4" class="node">
<title>Node3</title>
<polygon fill="#ffffff" stroke="#bfbfbf" points="277.5,-112.5 277.5,-131.5 330.5,-131.5 330.5,-112.5 277.5,-112.5"/>
<text text-anchor="middle" x="304" y="-119.5" font-family="Helvetica,sans-Serif" font-size="10.00" fill="#000000">complex</text>
</g>
<!-- Node0&#45;&gt;Node3 -->
<g id="edge3" class="edge">
<title>Node0&#45;&gt;Node3</title>
<path fill="none" stroke="#191970" d="M258.5803,-168.2455C266.5458,-160.1352 278.0641,-148.4075 287.5079,-138.7919"/>
<polygon fill="#191970" stroke="#191970" points="290.0195,-141.2297 294.5295,-131.6427 285.0253,-136.3247 290.0195,-141.2297"/>
</g>
<!-- Node4 -->
<g id="node5" class="node">
<title>Node4</title>
<polygon fill="#ffffff" stroke="#bfbfbf" points="349,-112.5 349,-131.5 411,-131.5 411,-112.5 349,-112.5"/>
<text text-anchor="middle" x="380" y="-119.5" font-family="Helvetica,sans-Serif" font-size="10.00" fill="#000000">complex.h</text>
</g>
<!-- Node0&#45;&gt;Node4 -->
<g id="edge4" class="edge">
<title>Node0&#45;&gt;Node4</title>
<path fill="none" stroke="#191970" d="M271.5197,-168.3733C292.7372,-159.3032 324.7276,-145.6279 348.4769,-135.4755"/>
<polygon fill="#191970" stroke="#191970" points="349.9548,-138.6502 357.7742,-131.5011 347.2033,-132.2136 349.9548,-138.6502"/>
</g>
<!-- Node5 -->
<g id="node6" class="node">
<title>Node5</title>
<g id="a_node6"><a xlink:href="$config_8h.html" xlink:title="config.h">
<polygon fill="#ffffff" stroke="#000000" points="71.5,-56.5 71.5,-75.5 122.5,-75.5 122.5,-56.5 71.5,-56.5"/>
<text text-anchor="middle" x="97" y="-63.5" font-family="Helvetica,sans-Serif" font-size="10.00" fill="#000000">config.h</text>
</a>
</g>
</g>
<!-- Node0&#45;&gt;Node5 -->
<g id="edge5" class="edge">
<title>Node0&#45;&gt;Node5</title>
<path fill="none" stroke="#191970" d="M212.9766,-171.2375C174.7151,-163.2812 117.8621,-148.9806 104,-132 93.6505,-119.3223 92.6303,-100.3963 93.7732,-86.0576"/>
<polygon fill="#191970" stroke="#191970" points="97.2938,-86.096 95.0166,-75.7488 90.3442,-85.2577 97.2938,-86.096"/>
</g>
<!-- Node7 -->
<g id="node8" class="node">
<title>Node7</title>
<polygon fill="#ffffff" stroke="#bfbfbf" points="429,-112.5 429,-131.5 473,-131.5 473,-112.5 429,-112.5"/>
<text text-anchor="middle" x="451" y="-119.5" font-family="Helvetica,sans-Serif" font-size="10.00" fill="#000000">omp.h</text>
</g>
<!-- Node0&#45;&gt;Node7 -->
<g id="edge9" class="edge">
<title>Node0&#45;&gt;Node7</title>
<path fill="none" stroke="#191970" d="M285.1739,-168.8212C317.851,-160.4073 367.4711,-147.3283 419.0414,-132.1915"/>
<polygon fill="#191970" stroke="#191970" points="420.0907,-135.5311 428.6897,-129.3418 418.1078,-128.8178 420.0907,-135.5311"/>
</g>
<!-- Node8 -->
<g id="node9" class="node">
<title>Node8</title>
<polygon fill="#ffffff" stroke="#bfbfbf" points="179.5,-56.5 179.5,-75.5 220.5,-75.5 220.5,-56.5 179.5,-56.5"/>
<text text-anchor="middle" x="200" y="-63.5" font-family="Helvetica,sans-Serif" font-size="10.00" fill="#000000">mpi.h</text>
</g>
<!-- Node0&#45;&gt;Node8 -->
<g id="edge10" class="edge">
<title>Node0&#45;&gt;Node8</title>
<path fill="none" stroke="#191970" d="M244.8223,-168.4509C236.722,-149.936 218.7508,-108.8591 208.1894,-84.7187"/>
<polygon fill="#191970" stroke="#191970" points="211.3819,-83.2836 204.1671,-75.5249 204.9688,-86.0894 211.3819,-83.2836"/>
</g>
<!-- Node9 -->
<g id="node10" class="node">
<title>Node9</title>
<g id="a_node10"><a xlink:href="$mpi__class_8h.html" xlink:title="mpi_class.h">
<polygon fill="#ffffff" stroke="#000000" points="113.5,-112.5 113.5,-131.5 182.5,-131.5 182.5,-112.5 113.5,-112.5"/>
<text text-anchor="middle" x="148" y="-119.5" font-family="Helvetica,sans-Serif" font-size="10.00" fill="#000000">mpi_class.h</text>
</a>
</g>
</g>
<!-- Node0&#45;&gt;Node9 -->
<g id="edge11" class="edge">
<title>Node0&#45;&gt;Node9</title>
<path fill="none" stroke="#191970" d="M231.4071,-168.2455C215.621,-159.4928 192.2361,-146.527 174.2413,-136.5496"/>
<polygon fill="#191970" stroke="#191970" points="175.8341,-133.4308 165.3913,-131.6427 172.4397,-139.5528 175.8341,-133.4308"/>
</g>
<!-- Node10 -->
<g id="node11" class="node">
<title>Node10</title>
<polygon fill="#ffffff" stroke="#bfbfbf" points="491.5,-112.5 491.5,-131.5 540.5,-131.5 540.5,-112.5 491.5,-112.5"/>
<text text-anchor="middle" x="516" y="-119.5" font-family="Helvetica,sans-Serif" font-size="10.00" fill="#000000">random</text>
</g>
<!-- Node0&#45;&gt;Node10 -->
<g id="edge16" class="edge">
<title>Node0&#45;&gt;Node10</title>
<path fill="none" stroke="#191970" d="M285.1472,-171.9176C329.1682,-164.2798 405.9597,-150.216 481.083,-132.0524"/>
<polygon fill="#191970" stroke="#191970" points="482.3061,-135.3565 491.1885,-129.5813 480.6433,-128.5568 482.3061,-135.3565"/>
</g>
<!-- Node5&#45;&gt;Node1 -->
<g id="edge6" class="edge">
<title>Node5&#45;&gt;Node1</title>
<path fill="none" stroke="#191970" d="M84.8069,-56.2455C74.3679,-47.8943 59.1345,-35.7076 46.926,-25.9408"/>
<polygon fill="#191970" stroke="#191970" points="49.0485,-23.1566 39.0533,-19.6427 44.6756,-28.6227 49.0485,-23.1566"/>
</g>
<!-- Node5&#45;&gt;Node2 -->
<g id="edge7" class="edge">
<title>Node5&#45;&gt;Node2</title>
<path fill="none" stroke="#191970" d="M108.6705,-56.2455C118.5661,-47.9746 132.9627,-35.9416 144.5901,-26.2232"/>
<polygon fill="#191970" stroke="#191970" points="147.035,-28.7413 152.4632,-19.6427 142.5458,-23.3703 147.035,-28.7413"/>
</g>
<!-- Node6 -->
<g id="node7" class="node">
<title>Node6</title>
<polygon fill="#ffffff" stroke="#bfbfbf" points="72.5,-.5 72.5,-19.5 121.5,-19.5 121.5,-.5 72.5,-.5"/>
<text text-anchor="middle" x="97" y="-7.5" font-family="Helvetica,sans-Serif" font-size="10.00" fill="#000000">string.h</text>
</g>
<!-- Node5&#45;&gt;Node6 -->
<g id="edge8" class="edge">
<title>Node5&#45;&gt;Node6</title>
<path fill="none" stroke="#191970" d="M97,-56.2455C97,-48.9382 97,-38.6944 97,-29.7046"/>
<polygon fill="#191970" stroke="#191970" points="100.5001,-29.6426 97,-19.6427 93.5001,-29.6427 100.5001,-29.6426"/>
</g>
<!-- Node9&#45;&gt;Node1 -->
<g id="edge13" class="edge">
<title>Node9&#45;&gt;Node1</title>
<path fill="none" stroke="#191970" d="M120.9393,-112.4047C102.539,-104.8007 78.6126,-92.672 62,-76 48.74,-62.6926 39.2806,-43.3155 33.5658,-28.9972"/>
<polygon fill="#191970" stroke="#191970" points="36.843,-27.768 30.0656,-19.6244 30.2853,-30.2169 36.843,-27.768"/>
</g>
<!-- Node9&#45;&gt;Node2 -->
<g id="edge12" class="edge">
<title>Node9&#45;&gt;Node2</title>
<path fill="none" stroke="#191970" d="M149.3642,-112.4509C151.9737,-94.184 157.7207,-53.9553 161.1861,-29.6976"/>
<polygon fill="#191970" stroke="#191970" points="164.6898,-29.9194 162.6393,-19.5249 157.7602,-28.9294 164.6898,-29.9194"/>
</g>
<!-- Node9&#45;&gt;Node5 -->
<g id="edge14" class="edge">
<title>Node9&#45;&gt;Node5</title>
<path fill="none" stroke="#191970" d="M139.1165,-112.2455C131.8034,-104.2155 121.2609,-92.6394 112.5533,-83.0781"/>
<polygon fill="#191970" stroke="#191970" points="115.1028,-80.6795 105.7817,-75.6427 109.9273,-85.3928 115.1028,-80.6795"/>
</g>
<!-- Node9&#45;&gt;Node8 -->
<g id="edge15" class="edge">
<title>Node9&#45;&gt;Node8</title>
<path fill="none" stroke="#191970" d="M157.0577,-112.2455C164.5142,-104.2155 175.2634,-92.6394 184.1417,-83.0781"/>
<polygon fill="#191970" stroke="#191970" points="186.8063,-85.3522 191.0461,-75.6427 181.6768,-80.589 186.8063,-85.3522"/>
</g>
</g>
</svg>
