<?xml version="1.0" encoding="UTF-8" standalone="no"?>
<!DOCTYPE svg PUBLIC "-//W3C//DTD SVG 1.1//EN"
 "http://www.w3.org/Graphics/SVG/1.1/DTD/svg11.dtd">
<!-- Generated by graphviz version 2.40.1 (20161225.0304)
 -->
<!-- Title: su3_matrix.h Pages: 1 -->
<!--zoomable 162 -->
<svg id="main" version="1.1" xmlns="http://www.w3.org/2000/svg" xmlns:xlink="http://www.w3.org/1999/xlink" xml:space="preserve" onload="init(evt)">
<style type="text/css"><![CDATA[
.edge:hover path { stroke: red; }
.edge:hover polygon { stroke: red; fill: red; }
]]></style>
<script type="text/javascript"><![CDATA[
var edges = document.getElementsByTagName('g');
if (edges && edges.length) {
  for (var i=0;i<edges.length;i++) {
    if (edges[i].id.substr(0,4)=='edge') {
      edges[i].setAttribute('class','edge');
    }
  }
}
]]></script>
        <defs>
                <circle id="rim" cx="0" cy="0" r="7"/>
                <circle id="rim2" cx="0" cy="0" r="3.5"/>
                <g id="zoomPlus">
                        <use xlink:href="#rim" fill="#404040">
                                <set attributeName="fill" to="#808080" begin="zoomplus.mouseover" end="zoomplus.mouseout"/>
                        </use>
                        <path d="M-4,0h8M0,-4v8" fill="none" stroke="white" stroke-width="1.5" pointer-events="none"/>
                </g>
                <g id="zoomMin">
                        <use xlink:href="#rim" fill="#404040">
                                <set attributeName="fill" to="#808080" begin="zoomminus.mouseover" end="zoomminus.mouseout"/>
                        </use>
                        <path d="M-4,0h8" fill="none" stroke="white" stroke-width="1.5" pointer-events="none"/>
                </g>
                <g id="dirArrow">
                        <path fill="none" stroke="white" stroke-width="1.5" d="M0,-3.0v7 M-2.5,-0.5L0,-3.0L2.5,-0.5"/>
                </g>
               <g id="resetDef">
                       <use xlink:href="#rim2" fill="#404040">
                               <set attributeName="fill" to="#808080" begin="reset.mouseover" end="reset.mouseout"/>
                       </use>
               </g>
        </defs>

<script type="text/javascript">
var viewWidth = 3032;
var viewHeight = 162;
var sectionId = 'dynsection-1';
</script>
<script xlink:href="svgpan.js"/>
<svg id="graph" class="graph">
<g id="viewport">
<title>su3_matrix.h</title>
<polygon fill="#ffffff" stroke="transparent" points="-4,4 -4,-158 3028,-158 3028,4 -4,4"/>
<!-- Node9 -->
<g id="node1" class="node">
<title>Node9</title>
<polygon fill="#bfbfbf" stroke="#000000" points="1422.5,-134.5 1422.5,-153.5 1495.5,-153.5 1495.5,-134.5 1422.5,-134.5"/>
<text text-anchor="middle" x="1459" y="-141.5" font-family="Helvetica,sans-Serif" font-size="10.00" fill="#000000">su3_matrix.h</text>
</g>
<!-- Node10 -->
<g id="node2" class="node">
<title>Node10</title>
<g id="a_node2"><a xlink:href="main__explicit_8cpp.html" target="_top" xlink:title="main_explicit.cpp">
<polygon fill="#ffffff" stroke="#000000" points="0,-11.5 0,-30.5 92,-30.5 92,-11.5 0,-11.5"/>
<text text-anchor="middle" x="46" y="-18.5" font-family="Helvetica,sans-Serif" font-size="10.00" fill="#000000">main_explicit.cpp</text>
</a>
</g>
</g>
<!-- Node9&#45;&gt;Node10 -->
<g id="edge1" class="edge">
<title>Node9&#45;&gt;Node10</title>
<path fill="none" stroke="#191970" d="M1412.3236,-143.682C1269.1687,-142.3157 823.7845,-135.1533 457,-98 297.6476,-81.8584 255.7689,-83.2348 101,-42 89.8396,-39.0266 77.8156,-34.5865 67.8648,-30.5539"/>
<polygon fill="#191970" stroke="#191970" points="1412.4659,-147.1833 1422.4972,-143.7741 1412.5293,-140.1836 1412.4659,-147.1833"/>
</g>
<!-- Node11 -->
<g id="node3" class="node">
<title>Node11</title>
<g id="a_node3"><a xlink:href="mpi__fftw__class_8h.html" target="_top" xlink:title="mpi_fftw_class.h">
<polygon fill="#ffffff" stroke="#000000" points="1413.5,-78.5 1413.5,-97.5 1504.5,-97.5 1504.5,-78.5 1413.5,-78.5"/>
<text text-anchor="middle" x="1459" y="-85.5" font-family="Helvetica,sans-Serif" font-size="10.00" fill="#000000">mpi_fftw_class.h</text>
</a>
</g>
</g>
<!-- Node9&#45;&gt;Node11 -->
<g id="edge2" class="edge">
<title>Node9&#45;&gt;Node11</title>
<path fill="none" stroke="#191970" d="M1459,-124.1575C1459,-115.155 1459,-104.9199 1459,-97.6427"/>
<polygon fill="#191970" stroke="#191970" points="1455.5001,-124.2455 1459,-134.2455 1462.5001,-124.2456 1455.5001,-124.2455"/>
</g>
<!-- Node12 -->
<g id="node4" class="node">
<title>Node12</title>
<g id="a_node4"><a xlink:href="test__accumulation_8cpp.html" target="_top" xlink:title="tests/test_accumulation.cpp">
<polygon fill="#ffffff" stroke="#000000" points="110,-11.5 110,-30.5 250,-30.5 250,-11.5 110,-11.5"/>
<text text-anchor="middle" x="180" y="-18.5" font-family="Helvetica,sans-Serif" font-size="10.00" fill="#000000">tests/test_accumulation.cpp</text>
</a>
</g>
</g>
<!-- Node9&#45;&gt;Node12 -->
<g id="edge25" class="edge">
<title>Node9&#45;&gt;Node12</title>
<path fill="none" stroke="#191970" d="M1412.4692,-142.8716C1287.1025,-139.512 931.898,-127.884 638,-98 468.6002,-80.7752 425.7681,-76.3711 259,-42 243.5716,-38.8202 226.6703,-34.4498 212.4739,-30.5191"/>
<polygon fill="#191970" stroke="#191970" points="1412.4022,-146.371 1422.4909,-143.1356 1412.5866,-139.3734 1412.4022,-146.371"/>
</g>
<!-- Node13 -->
<g id="node5" class="node">
<title>Node13</title>
<g id="a_node5"><a xlink:href="test__exponentiate_8cpp.html" target="_top" xlink:title="tests/test_exponentiate.cpp">
<polygon fill="#ffffff" stroke="#000000" points="268.5,-11.5 268.5,-30.5 405.5,-30.5 405.5,-11.5 268.5,-11.5"/>
<text text-anchor="middle" x="337" y="-18.5" font-family="Helvetica,sans-Serif" font-size="10.00" fill="#000000">tests/test_exponentiate.cpp</text>
</a>
</g>
</g>
<!-- Node9&#45;&gt;Node13 -->
<g id="edge26" class="edge">
<title>Node9&#45;&gt;Node13</title>
<path fill="none" stroke="#191970" d="M1412.0079,-142.655C1264.0293,-137.73 794.9542,-116.8513 415,-42 399.5895,-38.9641 382.7335,-34.5651 368.6464,-30.5768"/>
<polygon fill="#191970" stroke="#191970" points="1411.9936,-146.1563 1422.1019,-142.9825 1412.2207,-139.1599 1411.9936,-146.1563"/>
</g>
<!-- Node14 -->
<g id="node6" class="node">
<title>Node14</title>
<g id="a_node6"><a xlink:href="test__hermitian_8cpp.html" target="_top" xlink:title="tests/test_hermitian.cpp">
<polygon fill="#ffffff" stroke="#000000" points="424,-11.5 424,-30.5 546,-30.5 546,-11.5 424,-11.5"/>
<text text-anchor="middle" x="485" y="-18.5" font-family="Helvetica,sans-Serif" font-size="10.00" fill="#000000">tests/test_hermitian.cpp</text>
</a>
</g>
</g>
<!-- Node9&#45;&gt;Node14 -->
<g id="edge27" class="edge">
<title>Node9&#45;&gt;Node14</title>
<path fill="none" stroke="#191970" d="M1411.954,-139.5067C1330.7178,-131.6651 1158.914,-114.7178 1014,-98 944.1218,-89.9386 926.813,-86.6076 857,-78 722.8434,-61.4592 687.3407,-69.5234 555,-42 540.9631,-39.0807 525.6793,-34.6469 512.9845,-30.6045"/>
<polygon fill="#191970" stroke="#191970" points="1412.0481,-143.0318 1422.3377,-140.5069 1412.7194,-136.0641 1412.0481,-143.0318"/>
</g>
<!-- Node15 -->
<g id="node7" class="node">
<title>Node15</title>
<g id="a_node7"><a xlink:href="test__initial__condition_8cpp.html" target="_top" xlink:title="tests/test_initial\l_condition.cpp">
<polygon fill="#ffffff" stroke="#000000" points="564,-6 564,-36 650,-36 650,-6 564,-6"/>
<text text-anchor="start" x="572" y="-24" font-family="Helvetica,sans-Serif" font-size="10.00" fill="#000000">tests/test_initial</text>
<text text-anchor="middle" x="607" y="-13" font-family="Helvetica,sans-Serif" font-size="10.00" fill="#000000">_condition.cpp</text>
</a>
</g>
</g>
<!-- Node9&#45;&gt;Node15 -->
<g id="edge28" class="edge">
<title>Node9&#45;&gt;Node15</title>
<path fill="none" stroke="#191970" d="M1412.2085,-138.8437C1345.4069,-131.2448 1218.9454,-115.979 1112,-98 1068.1618,-90.6302 1057.9462,-84.6953 1014,-78 857.2221,-54.1145 812.9491,-80.0723 659,-42 652.8566,-40.4807 646.4805,-38.3791 640.386,-36.0888"/>
<polygon fill="#191970" stroke="#191970" points="1412.0754,-142.3508 1422.4054,-139.9966 1412.862,-135.3951 1412.0754,-142.3508"/>
</g>
<!-- Node16 -->
<g id="node8" class="node">
<title>Node16</title>
<g id="a_node8"><a xlink:href="test__initial__condition__fftw1d_8cpp.html" target="_top" xlink:title="tests/test_initial\l_condition_fftw1d.cpp">
<polygon fill="#ffffff" stroke="#000000" points="668,-6 668,-36 780,-36 780,-6 668,-6"/>
<text text-anchor="start" x="676" y="-24" font-family="Helvetica,sans-Serif" font-size="10.00" fill="#000000">tests/test_initial</text>
<text text-anchor="middle" x="724" y="-13" font-family="Helvetica,sans-Serif" font-size="10.00" fill="#000000">_condition_fftw1d.cpp</text>
</a>
</g>
</g>
<!-- Node9&#45;&gt;Node16 -->
<g id="edge29" class="edge">
<title>Node9&#45;&gt;Node16</title>
<path fill="none" stroke="#191970" d="M1412.2386,-138.0762C1356.5421,-130.6102 1260.87,-116.486 1180,-98 1149.2898,-90.98 1142.8836,-84.213 1112,-78 970.3926,-49.5123 930.2184,-72.3572 789,-42 781.5797,-40.4049 773.8071,-38.2948 766.322,-36.027"/>
<polygon fill="#191970" stroke="#191970" points="1411.7871,-141.5469 1422.1606,-139.3924 1412.7077,-134.6077 1411.7871,-141.5469"/>
</g>
<!-- Node17 -->
<g id="node9" class="node">
<title>Node17</title>
<g id="a_node9"><a xlink:href="test__momentum__coupling_8cpp.html" target="_top" xlink:title="tests/test_momentum\l_coupling.cpp">
<polygon fill="#ffffff" stroke="#000000" points="798,-6 798,-36 910,-36 910,-6 798,-6"/>
<text text-anchor="start" x="806" y="-24" font-family="Helvetica,sans-Serif" font-size="10.00" fill="#000000">tests/test_momentum</text>
<text text-anchor="middle" x="854" y="-13" font-family="Helvetica,sans-Serif" font-size="10.00" fill="#000000">_coupling.cpp</text>
</a>
</g>
</g>
<!-- Node9&#45;&gt;Node17 -->
<g id="edge30" class="edge">
<title>Node9&#45;&gt;Node17</title>
<path fill="none" stroke="#191970" d="M1412.17,-136.7207C1366.0928,-129.0329 1293.9829,-115.5899 1233,-98 1208.8093,-91.0225 1204.4007,-84.2033 1180,-78 1066.5117,-49.1484 1033.1525,-68.1001 919,-42 911.8324,-40.3612 904.324,-38.2844 897.0603,-36.0779"/>
<polygon fill="#191970" stroke="#191970" points="1411.7259,-140.1946 1422.1617,-138.3655 1412.863,-133.2876 1411.7259,-140.1946"/>
</g>
<!-- Node18 -->
<g id="node10" class="node">
<title>Node18</title>
<g id="a_node10"><a xlink:href="test__momentum__coupling__fft_8cpp.html" target="_top" xlink:title="tests/test_momentum\l_coupling_fft.cpp">
<polygon fill="#ffffff" stroke="#000000" points="928,-6 928,-36 1040,-36 1040,-6 928,-6"/>
<text text-anchor="start" x="936" y="-24" font-family="Helvetica,sans-Serif" font-size="10.00" fill="#000000">tests/test_momentum</text>
<text text-anchor="middle" x="984" y="-13" font-family="Helvetica,sans-Serif" font-size="10.00" fill="#000000">_coupling_fft.cpp</text>
</a>
</g>
</g>
<!-- Node9&#45;&gt;Node18 -->
<g id="edge31" class="edge">
<title>Node9&#45;&gt;Node18</title>
<path fill="none" stroke="#191970" d="M1412.4281,-134.4456C1375.4896,-126.3242 1322.8046,-113.5246 1278,-98 1257.3199,-90.8344 1253.8715,-84.5873 1233,-78 1153.5355,-52.92 1129.6787,-62.8459 1049,-42 1042.2256,-40.2496 1035.1213,-38.1906 1028.1989,-36.0583"/>
<polygon fill="#191970" stroke="#191970" points="1411.8948,-137.9112 1422.4095,-136.6105 1413.3787,-131.0703 1411.8948,-137.9112"/>
</g>
<!-- Node19 -->
<g id="node11" class="node">
<title>Node19</title>
<g id="a_node11"><a xlink:href="test__momentum__evolution_8cpp.html" target="_top" xlink:title="tests/test_momentum\l_evolution.cpp">
<polygon fill="#ffffff" stroke="#000000" points="1058,-6 1058,-36 1170,-36 1170,-6 1058,-6"/>
<text text-anchor="start" x="1066" y="-24" font-family="Helvetica,sans-Serif" font-size="10.00" fill="#000000">tests/test_momentum</text>
<text text-anchor="middle" x="1114" y="-13" font-family="Helvetica,sans-Serif" font-size="10.00" fill="#000000">_evolution.cpp</text>
</a>
</g>
</g>
<!-- Node9&#45;&gt;Node19 -->
<g id="edge32" class="edge">
<title>Node9&#45;&gt;Node19</title>
<path fill="none" stroke="#191970" d="M1423.596,-130.9105C1387.1503,-117.4781 1328.691,-96.0499 1278,-78 1237.3931,-63.5408 1190.9793,-47.4497 1157.9165,-36.0615"/>
<polygon fill="#191970" stroke="#191970" points="1422.6738,-134.3007 1433.2671,-134.4776 1425.0962,-127.7332 1422.6738,-134.3007"/>
</g>
<!-- Node20 -->
<g id="node12" class="node">
<title>Node20</title>
<g id="a_node12"><a xlink:href="test__momentum__evolution__coupling_8cpp.html" target="_top" xlink:title="tests/test_momentum\l_evolution_coupling.cpp">
<polygon fill="#ffffff" stroke="#000000" points="1188.5,-6 1188.5,-36 1309.5,-36 1309.5,-6 1188.5,-6"/>
<text text-anchor="start" x="1196.5" y="-24" font-family="Helvetica,sans-Serif" font-size="10.00" fill="#000000">tests/test_momentum</text>
<text text-anchor="middle" x="1249" y="-13" font-family="Helvetica,sans-Serif" font-size="10.00" fill="#000000">_evolution_coupling.cpp</text>
</a>
</g>
</g>
<!-- Node9&#45;&gt;Node20 -->
<g id="edge33" class="edge">
<title>Node9&#45;&gt;Node20</title>
<path fill="none" stroke="#191970" d="M1433.852,-129.2705C1393.6245,-105.7086 1315.2166,-59.784 1274.6647,-36.0322"/>
<polygon fill="#191970" stroke="#191970" points="1432.1239,-132.3144 1442.5217,-134.3484 1435.6617,-126.2742 1432.1239,-132.3144"/>
</g>
<!-- Node21 -->
<g id="node13" class="node">
<title>Node21</title>
<g id="a_node13"><a xlink:href="test__momentum__evolution__coupling2_8cpp.html" target="_top" xlink:title="tests/test_momentum\l_evolution_coupling2.cpp">
<polygon fill="#ffffff" stroke="#000000" points="1328,-6 1328,-36 1454,-36 1454,-6 1328,-6"/>
<text text-anchor="start" x="1336" y="-24" font-family="Helvetica,sans-Serif" font-size="10.00" fill="#000000">tests/test_momentum</text>
<text text-anchor="middle" x="1391" y="-13" font-family="Helvetica,sans-Serif" font-size="10.00" fill="#000000">_evolution_coupling2.cpp</text>
</a>
</g>
</g>
<!-- Node9&#45;&gt;Node21 -->
<g id="edge34" class="edge">
<title>Node9&#45;&gt;Node21</title>
<path fill="none" stroke="#191970" d="M1433.6408,-128.689C1422.8243,-120.854 1411.0862,-110.3544 1404,-98 1392.9377,-78.7135 1390.7138,-52.537 1390.544,-36.2135"/>
<polygon fill="#191970" stroke="#191970" points="1431.7751,-131.6529 1442.0114,-134.3858 1435.7136,-125.8659 1431.7751,-131.6529"/>
</g>
<!-- Node22 -->
<g id="node14" class="node">
<title>Node22</title>
<g id="a_node14"><a xlink:href="test__momentum__evolution__coupling__lambda_8cpp.html" target="_top" xlink:title="tests/test_momentum\l_evolution_coupling\l_lambda.cpp">
<polygon fill="#ffffff" stroke="#000000" points="1472,-.5 1472,-41.5 1584,-41.5 1584,-.5 1472,-.5"/>
<text text-anchor="start" x="1480" y="-29.5" font-family="Helvetica,sans-Serif" font-size="10.00" fill="#000000">tests/test_momentum</text>
<text text-anchor="start" x="1480" y="-18.5" font-family="Helvetica,sans-Serif" font-size="10.00" fill="#000000">_evolution_coupling</text>
<text text-anchor="middle" x="1528" y="-7.5" font-family="Helvetica,sans-Serif" font-size="10.00" fill="#000000">_lambda.cpp</text>
</a>
</g>
</g>
<!-- Node9&#45;&gt;Node22 -->
<g id="edge35" class="edge">
<title>Node9&#45;&gt;Node22</title>
<path fill="none" stroke="#191970" d="M1483.5401,-128.6785C1494.191,-120.7899 1505.8422,-110.2498 1513,-98 1523.1005,-80.7142 1526.5471,-57.8911 1527.651,-41.5895"/>
<polygon fill="#191970" stroke="#191970" points="1481.5139,-125.8244 1475.3177,-134.4185 1485.5208,-131.5642 1481.5139,-125.8244"/>
</g>
<!-- Node23 -->
<g id="node15" class="node">
<title>Node23</title>
<g id="a_node15"><a xlink:href="test__momentum__evolution__coupling__lambda__noise_8cpp.html" target="_top" xlink:title="tests/test_momentum\l_evolution_coupling\l_lambda_noise.cpp">
<polygon fill="#ffffff" stroke="#000000" points="1602,-.5 1602,-41.5 1714,-41.5 1714,-.5 1602,-.5"/>
<text text-anchor="start" x="1610" y="-29.5" font-family="Helvetica,sans-Serif" font-size="10.00" fill="#000000">tests/test_momentum</text>
<text text-anchor="start" x="1610" y="-18.5" font-family="Helvetica,sans-Serif" font-size="10.00" fill="#000000">_evolution_coupling</text>
<text text-anchor="middle" x="1658" y="-7.5" font-family="Helvetica,sans-Serif" font-size="10.00" fill="#000000">_lambda_noise.cpp</text>
</a>
</g>
</g>
<!-- Node9&#45;&gt;Node23 -->
<g id="edge36" class="edge">
<title>Node9&#45;&gt;Node23</title>
<path fill="none" stroke="#191970" d="M1483.3392,-128.9562C1518.7509,-107.0685 1584.5972,-66.3696 1624.5446,-41.6785"/>
<polygon fill="#191970" stroke="#191970" points="1481.2813,-126.1135 1474.6152,-134.3484 1484.9617,-132.0679 1481.2813,-126.1135"/>
</g>
<!-- Node24 -->
<g id="node16" class="node">
<title>Node24</title>
<g id="a_node16"><a xlink:href="test__multiplication_8cpp.html" target="_top" xlink:title="tests/test_multiplication.cpp">
<polygon fill="#ffffff" stroke="#000000" points="1732.5,-11.5 1732.5,-30.5 1871.5,-30.5 1871.5,-11.5 1732.5,-11.5"/>
<text text-anchor="middle" x="1802" y="-18.5" font-family="Helvetica,sans-Serif" font-size="10.00" fill="#000000">tests/test_multiplication.cpp</text>
</a>
</g>
</g>
<!-- Node9&#45;&gt;Node24 -->
<g id="edge37" class="edge">
<title>Node9&#45;&gt;Node24</title>
<path fill="none" stroke="#191970" d="M1495.239,-131.0047C1564.4598,-106.1821 1714.0296,-52.5462 1775.1513,-30.628"/>
<polygon fill="#191970" stroke="#191970" points="1493.8608,-127.7806 1485.6292,-134.4507 1496.2238,-134.3697 1493.8608,-127.7806"/>
</g>
<!-- Node25 -->
<g id="node17" class="node">
<title>Node25</title>
<g id="a_node17"><a xlink:href="test__noise__vectors_8cpp.html" target="_top" xlink:title="tests/test_noise_vectors.cpp">
<polygon fill="#ffffff" stroke="#000000" points="1889.5,-11.5 1889.5,-30.5 2032.5,-30.5 2032.5,-11.5 1889.5,-11.5"/>
<text text-anchor="middle" x="1961" y="-18.5" font-family="Helvetica,sans-Serif" font-size="10.00" fill="#000000">tests/test_noise_vectors.cpp</text>
</a>
</g>
</g>
<!-- Node9&#45;&gt;Node25 -->
<g id="edge38" class="edge">
<title>Node9&#45;&gt;Node25</title>
<path fill="none" stroke="#191970" d="M1505.6055,-132.9654C1583.3103,-114.5099 1744.2155,-76.0483 1880,-42 1894.6548,-38.3253 1910.7708,-34.1704 1924.742,-30.5321"/>
<polygon fill="#191970" stroke="#191970" points="1504.5734,-129.6131 1495.6521,-135.3281 1506.1901,-136.4238 1504.5734,-129.6131"/>
</g>
<!-- Node26 -->
<g id="node18" class="node">
<title>Node26</title>
<g id="a_node18"><a xlink:href="test__noise__vectors__and__cholesky__decomposition_8cpp.html" target="_top" xlink:title="tests/test_noise_vectors\l_and_cholesky_decomposition.cpp">
<polygon fill="#ffffff" stroke="#000000" points="2050.5,-6 2050.5,-36 2219.5,-36 2219.5,-6 2050.5,-6"/>
<text text-anchor="start" x="2058.5" y="-24" font-family="Helvetica,sans-Serif" font-size="10.00" fill="#000000">tests/test_noise_vectors</text>
<text text-anchor="middle" x="2135" y="-13" font-family="Helvetica,sans-Serif" font-size="10.00" fill="#000000">_and_cholesky_decomposition.cpp</text>
</a>
</g>
</g>
<!-- Node9&#45;&gt;Node26 -->
<g id="edge39" class="edge">
<title>Node9&#45;&gt;Node26</title>
<path fill="none" stroke="#191970" d="M1505.505,-136.6005C1604.3494,-120.7084 1842.5383,-81.5375 2041,-42 2050.2657,-40.1541 2060.0202,-38.1001 2069.5964,-36.0197"/>
<polygon fill="#191970" stroke="#191970" points="1504.8615,-133.1589 1495.5424,-138.1993 1505.9706,-140.0705 1504.8615,-133.1589"/>
</g>
<!-- Node27 -->
<g id="node19" class="node">
<title>Node27</title>
<g id="a_node19"><a xlink:href="test__position__evolution_8cpp.html" target="_top" xlink:title="tests/test_position\l_evolution.cpp">
<polygon fill="#ffffff" stroke="#000000" points="2237.5,-6 2237.5,-36 2334.5,-36 2334.5,-6 2237.5,-6"/>
<text text-anchor="start" x="2245.5" y="-24" font-family="Helvetica,sans-Serif" font-size="10.00" fill="#000000">tests/test_position</text>
<text text-anchor="middle" x="2286" y="-13" font-family="Helvetica,sans-Serif" font-size="10.00" fill="#000000">_evolution.cpp</text>
</a>
</g>
</g>
<!-- Node9&#45;&gt;Node27 -->
<g id="edge40" class="edge">
<title>Node9&#45;&gt;Node27</title>
<path fill="none" stroke="#191970" d="M1505.5674,-141.3434C1626.3792,-133.6977 1959.1676,-107.8234 2228,-42 2234.5532,-40.3955 2241.3936,-38.3088 2247.9829,-36.0746"/>
<polygon fill="#191970" stroke="#191970" points="1505.3146,-137.8523 1495.551,-141.966 1505.7489,-144.8388 1505.3146,-137.8523"/>
</g>
<!-- Node28 -->
<g id="node20" class="node">
<title>Node28</title>
<g id="a_node20"><a xlink:href="test__position__evolution__coupling_8cpp.html" target="_top" xlink:title="tests/test_position\l_evolution_coupling.cpp">
<polygon fill="#ffffff" stroke="#000000" points="2352.5,-6 2352.5,-36 2473.5,-36 2473.5,-6 2352.5,-6"/>
<text text-anchor="start" x="2360.5" y="-24" font-family="Helvetica,sans-Serif" font-size="10.00" fill="#000000">tests/test_position</text>
<text text-anchor="middle" x="2413" y="-13" font-family="Helvetica,sans-Serif" font-size="10.00" fill="#000000">_evolution_coupling.cpp</text>
</a>
</g>
</g>
<!-- Node9&#45;&gt;Node28 -->
<g id="edge41" class="edge">
<title>Node9&#45;&gt;Node28</title>
<path fill="none" stroke="#191970" d="M1505.9344,-142.2873C1638.8637,-136.6477 2028.6409,-114.6486 2343,-42 2350.4172,-40.2859 2358.2029,-38.2217 2365.7767,-36.0657"/>
<polygon fill="#191970" stroke="#191970" points="1505.5533,-138.8 1495.7064,-142.7102 1505.8425,-145.794 1505.5533,-138.8"/>
</g>
<!-- Node29 -->
<g id="node21" class="node">
<title>Node29</title>
<g id="a_node21"><a xlink:href="test__position__evolution__coupling__noise_8cpp.html" target="_top" xlink:title="tests/test_position\l_evolution_coupling\l_noise.cpp">
<polygon fill="#ffffff" stroke="#000000" points="2492,-.5 2492,-41.5 2594,-41.5 2594,-.5 2492,-.5"/>
<text text-anchor="start" x="2500" y="-29.5" font-family="Helvetica,sans-Serif" font-size="10.00" fill="#000000">tests/test_position</text>
<text text-anchor="start" x="2500" y="-18.5" font-family="Helvetica,sans-Serif" font-size="10.00" fill="#000000">_evolution_coupling</text>
<text text-anchor="middle" x="2543" y="-7.5" font-family="Helvetica,sans-Serif" font-size="10.00" fill="#000000">_noise.cpp</text>
</a>
</g>
</g>
<!-- Node9&#45;&gt;Node29 -->
<g id="edge42" class="edge">
<title>Node9&#45;&gt;Node29</title>
<path fill="none" stroke="#191970" d="M1505.6702,-141.9148C1612.2728,-136.8824 1881.7585,-122.6335 2106,-98 2273.9441,-79.5509 2317.8762,-82.112 2482,-42 2485.264,-41.2023 2488.6007,-40.3031 2491.9483,-39.3373"/>
<polygon fill="#191970" stroke="#191970" points="1505.3958,-138.4237 1495.5702,-142.3869 1505.7228,-145.4161 1505.3958,-138.4237"/>
</g>
<!-- Node30 -->
<g id="node22" class="node">
<title>Node30</title>
<g id="a_node22"><a xlink:href="test__position__evolution__hatta__coupling_8cpp.html" target="_top" xlink:title="tests/test_position\l_evolution_hatta_coupling.cpp">
<polygon fill="#ffffff" stroke="#000000" points="2612,-6 2612,-36 2760,-36 2760,-6 2612,-6"/>
<text text-anchor="start" x="2620" y="-24" font-family="Helvetica,sans-Serif" font-size="10.00" fill="#000000">tests/test_position</text>
<text text-anchor="middle" x="2686" y="-13" font-family="Helvetica,sans-Serif" font-size="10.00" fill="#000000">_evolution_hatta_coupling.cpp</text>
</a>
</g>
</g>
<!-- Node9&#45;&gt;Node30 -->
<g id="edge43" class="edge">
<title>Node9&#45;&gt;Node30</title>
<path fill="none" stroke="#191970" d="M1505.8667,-142.4948C1624.7093,-138.3858 1947.3975,-125.4056 2215,-98 2388.3247,-80.2495 2432.0903,-75.8586 2603,-42 2611.7483,-40.2669 2620.9551,-38.1926 2629.925,-36.0323"/>
<polygon fill="#191970" stroke="#191970" points="1505.5452,-139.0036 1495.6704,-142.8427 1505.784,-145.9996 1505.5452,-139.0036"/>
</g>
<!-- Node31 -->
<g id="node23" class="node">
<title>Node31</title>
<g id="a_node23"><a xlink:href="test__symmetrize__average_8cpp.html" target="_top" xlink:title="tests/test_symmetrize\l_average.cpp">
<polygon fill="#ffffff" stroke="#000000" points="2778,-6 2778,-36 2892,-36 2892,-6 2778,-6"/>
<text text-anchor="start" x="2786" y="-24" font-family="Helvetica,sans-Serif" font-size="10.00" fill="#000000">tests/test_symmetrize</text>
<text text-anchor="middle" x="2835" y="-13" font-family="Helvetica,sans-Serif" font-size="10.00" fill="#000000">_average.cpp</text>
</a>
</g>
</g>
<!-- Node9&#45;&gt;Node31 -->
<g id="edge44" class="edge">
<title>Node9&#45;&gt;Node31</title>
<path fill="none" stroke="#191970" d="M1506.2149,-142.6248C1635.8985,-138.598 2008.4357,-125.3526 2317,-98 2518.6341,-80.1262 2571.2643,-85.3172 2769,-42 2776.3999,-40.3789 2784.1547,-38.2839 2791.6417,-36.0464"/>
<polygon fill="#191970" stroke="#191970" points="1505.7482,-139.1374 1495.8604,-142.9427 1505.9631,-146.1341 1505.7482,-139.1374"/>
</g>
<!-- Node32 -->
<g id="node24" class="node">
<title>Node32</title>
<g id="a_node24"><a xlink:href="test__symmetrize__average2_8cpp.html" target="_top" xlink:title="tests/test_symmetrize\l_average2.cpp">
<polygon fill="#ffffff" stroke="#000000" points="2910,-6 2910,-36 3024,-36 3024,-6 2910,-6"/>
<text text-anchor="start" x="2918" y="-24" font-family="Helvetica,sans-Serif" font-size="10.00" fill="#000000">tests/test_symmetrize</text>
<text text-anchor="middle" x="2967" y="-13" font-family="Helvetica,sans-Serif" font-size="10.00" fill="#000000">_average2.cpp</text>
</a>
</g>
</g>
<!-- Node9&#45;&gt;Node32 -->
<g id="edge45" class="edge">
<title>Node9&#45;&gt;Node32</title>
<path fill="none" stroke="#191970" d="M1506.0492,-143.0968C1648.3921,-140.089 2086.891,-128.7983 2449,-98 2650.6966,-80.8452 2703.2643,-85.3172 2901,-42 2908.3999,-40.3789 2916.1547,-38.2839 2923.6417,-36.0464"/>
<polygon fill="#191970" stroke="#191970" points="1505.8501,-139.6001 1495.925,-143.3073 1505.9956,-146.5986 1505.8501,-139.6001"/>
</g>
<!-- Node11&#45;&gt;Node10 -->
<g id="edge3" class="edge">
<title>Node11&#45;&gt;Node10</title>
<path fill="none" stroke="#191970" d="M1402.9434,-87.1929C1163.1207,-83.5915 229.8022,-68.0153 101,-42 89.0778,-39.592 76.3551,-34.885 66.1523,-30.5367"/>
<polygon fill="#191970" stroke="#191970" points="1403.1234,-90.6958 1413.1745,-87.3455 1403.2279,-83.6966 1403.1234,-90.6958"/>
</g>
<!-- Node11&#45;&gt;Node12 -->
<g id="edge4" class="edge">
<title>Node11&#45;&gt;Node12</title>
<path fill="none" stroke="#191970" d="M1402.9672,-87.4971C1197.2539,-85.3949 483.9424,-75.7815 259,-42 242.4396,-39.513 224.3613,-34.857 209.6827,-30.5599"/>
<polygon fill="#191970" stroke="#191970" points="1403.1972,-90.9995 1413.2319,-87.6 1403.2675,-83.9998 1403.1972,-90.9995"/>
</g>
<!-- Node11&#45;&gt;Node13 -->
<g id="edge5" class="edge">
<title>Node11&#45;&gt;Node13</title>
<path fill="none" stroke="#191970" d="M1403.1945,-87.1517C1215.5167,-84.0464 608.1222,-71.882 415,-42 398.6464,-39.4696 380.7967,-34.8102 366.3046,-30.522"/>
<polygon fill="#191970" stroke="#191970" points="1403.3274,-90.6542 1413.3833,-87.3181 1403.4418,-83.6552 1403.3274,-90.6542"/>
</g>
<!-- Node11&#45;&gt;Node14 -->
<g id="edge6" class="edge">
<title>Node11&#45;&gt;Node14</title>
<path fill="none" stroke="#191970" d="M1403.3081,-86.9194C1232.7728,-83.3338 719.3658,-70.409 555,-42 540.2471,-39.4501 524.222,-34.7892 511.2321,-30.5051"/>
<polygon fill="#191970" stroke="#191970" points="1403.2537,-90.4189 1413.3242,-87.1275 1403.3991,-83.4204 1403.2537,-90.4189"/>
</g>
<!-- Node11&#45;&gt;Node15 -->
<g id="edge7" class="edge">
<title>Node11&#45;&gt;Node15</title>
<path fill="none" stroke="#191970" d="M1403.0403,-85.8378C1233.2276,-79.1291 731.0074,-58.1497 659,-42 652.6349,-40.5724 646.0397,-38.4537 639.7708,-36.1033"/>
<polygon fill="#191970" stroke="#191970" points="1403.1323,-89.344 1413.2623,-86.2402 1403.4078,-82.3495 1403.1323,-89.344"/>
</g>
<!-- Node11&#45;&gt;Node16 -->
<g id="edge8" class="edge">
<title>Node11&#45;&gt;Node16</title>
<path fill="none" stroke="#191970" d="M1403.0402,-85.9154C1264.0946,-80.4572 906.1334,-64.5903 789,-42 781.3146,-40.5178 773.2717,-38.4041 765.5663,-36.0829"/>
<polygon fill="#191970" stroke="#191970" points="1402.9241,-89.4135 1413.0528,-86.3056 1403.1967,-82.4188 1402.9241,-89.4135"/>
</g>
<!-- Node11&#45;&gt;Node17 -->
<g id="edge9" class="edge">
<title>Node11&#45;&gt;Node17</title>
<path fill="none" stroke="#191970" d="M1402.9454,-84.8463C1284.1426,-77.8975 1010.4379,-60.4151 919,-42 911.4433,-40.4781 903.5336,-38.3753 895.9373,-36.0845"/>
<polygon fill="#191970" stroke="#191970" points="1403.0834,-88.3601 1413.2696,-85.4464 1403.4896,-81.3719 1403.0834,-88.3601"/>
</g>
<!-- Node11&#45;&gt;Node18 -->
<g id="edge10" class="edge">
<title>Node11&#45;&gt;Node18</title>
<path fill="none" stroke="#191970" d="M1403.051,-85.2858C1323.5854,-80.6279 1173.812,-68.8781 1049,-42 1041.5803,-40.4022 1033.808,-38.2908 1026.323,-36.0224"/>
<polygon fill="#191970" stroke="#191970" points="1403.1377,-88.7963 1413.3207,-85.871 1403.536,-81.8077 1403.1377,-88.7963"/>
</g>
<!-- Node11&#45;&gt;Node19 -->
<g id="edge11" class="edge">
<title>Node11&#45;&gt;Node19</title>
<path fill="none" stroke="#191970" d="M1403.2667,-81.3444C1346.4037,-73.9712 1255.8489,-60.6158 1179,-42 1171.9693,-40.2969 1164.5986,-38.2131 1157.4492,-36.0267"/>
<polygon fill="#191970" stroke="#191970" points="1403.1179,-84.8538 1413.4813,-82.6514 1404.0064,-77.9104 1403.1179,-84.8538"/>
</g>
<!-- Node11&#45;&gt;Node20 -->
<g id="edge12" class="edge">
<title>Node11&#45;&gt;Node20</title>
<path fill="none" stroke="#191970" d="M1419.0354,-75.2494C1384.0147,-64.0761 1333.0716,-47.8229 1296.0831,-36.0218"/>
<polygon fill="#191970" stroke="#191970" points="1418.3214,-78.6953 1428.9121,-78.4005 1420.4491,-72.0265 1418.3214,-78.6953"/>
</g>
<!-- Node11&#45;&gt;Node21 -->
<g id="edge13" class="edge">
<title>Node11&#45;&gt;Node21</title>
<path fill="none" stroke="#191970" d="M1441.9242,-71.1753C1430.9566,-60.3691 1416.8353,-46.4553 1406.246,-36.0218"/>
<polygon fill="#191970" stroke="#191970" points="1439.6775,-73.8752 1449.2573,-78.4005 1444.5905,-68.8889 1439.6775,-73.8752"/>
</g>
<!-- Node11&#45;&gt;Node22 -->
<g id="edge14" class="edge">
<title>Node11&#45;&gt;Node22</title>
<path fill="none" stroke="#191970" d="M1476.3333,-71.1691C1485.5628,-62.2072 1496.992,-51.1093 1506.7524,-41.6318"/>
<polygon fill="#191970" stroke="#191970" points="1473.6221,-68.9232 1468.886,-78.4005 1478.4985,-73.9452 1473.6221,-68.9232"/>
</g>
<!-- Node11&#45;&gt;Node23 -->
<g id="edge15" class="edge">
<title>Node11&#45;&gt;Node23</title>
<path fill="none" stroke="#191970" d="M1497.0641,-75.1844C1526.6633,-65.2189 1568.1799,-51.2409 1601.6314,-39.9784"/>
<polygon fill="#191970" stroke="#191970" points="1495.8723,-71.8926 1487.5118,-78.4005 1498.1059,-78.5267 1495.8723,-71.8926"/>
</g>
<!-- Node11&#45;&gt;Node24 -->
<g id="edge16" class="edge">
<title>Node11&#45;&gt;Node24</title>
<path fill="none" stroke="#191970" d="M1514.5332,-79.7682C1568.1473,-71.481 1651.4945,-57.7021 1723,-42 1738.1088,-38.6822 1754.6734,-34.3826 1768.715,-30.5388"/>
<polygon fill="#191970" stroke="#191970" points="1513.9017,-76.324 1504.5487,-81.3011 1514.9641,-83.2429 1513.9017,-76.324"/>
</g>
<!-- Node11&#45;&gt;Node25 -->
<g id="edge17" class="edge">
<title>Node11&#45;&gt;Node25</title>
<path fill="none" stroke="#191970" d="M1515.2636,-84.4543C1596.356,-78.7563 1750.5711,-65.7197 1880,-42 1896.1471,-39.0408 1913.8213,-34.6024 1928.5284,-30.5672"/>
<polygon fill="#191970" stroke="#191970" points="1514.527,-80.9968 1504.792,-85.1777 1515.0095,-87.9801 1514.527,-80.9968"/>
</g>
<!-- Node11&#45;&gt;Node26 -->
<g id="edge18" class="edge">
<title>Node11&#45;&gt;Node26</title>
<path fill="none" stroke="#191970" d="M1514.7877,-86.2062C1618.7877,-82.2833 1849.1364,-70.8667 2041,-42 2051.5828,-40.4078 2062.7492,-38.2992 2073.546,-36.0319"/>
<polygon fill="#191970" stroke="#191970" points="1514.3906,-82.7183 1504.5262,-86.5842 1514.6484,-89.7136 1514.3906,-82.7183"/>
</g>
<!-- Node11&#45;&gt;Node27 -->
<g id="edge19" class="edge">
<title>Node11&#45;&gt;Node27</title>
<path fill="none" stroke="#191970" d="M1514.853,-86.7392C1667.8821,-82.9537 2091.5553,-70.1657 2228,-42 2235.027,-40.5495 2242.3486,-38.4197 2249.3293,-36.0657"/>
<polygon fill="#191970" stroke="#191970" points="1514.6516,-83.2429 1504.74,-86.9859 1514.8224,-90.2409 1514.6516,-83.2429"/>
</g>
<!-- Node11&#45;&gt;Node28 -->
<g id="edge20" class="edge">
<title>Node11&#45;&gt;Node28</title>
<path fill="none" stroke="#191970" d="M1514.8717,-86.8411C1683.0385,-83.0767 2182.7279,-69.7962 2343,-42 2351.3758,-40.5474 2360.1622,-38.4167 2368.5705,-36.0623"/>
<polygon fill="#191970" stroke="#191970" points="1514.6711,-83.3446 1504.751,-87.0651 1514.8261,-90.3429 1514.6711,-83.3446"/>
</g>
<!-- Node11&#45;&gt;Node29 -->
<g id="edge21" class="edge">
<title>Node11&#45;&gt;Node29</title>
<path fill="none" stroke="#191970" d="M1514.7151,-87.5917C1699.9767,-85.9059 2294.2071,-77.7746 2482,-42 2485.1907,-41.3922 2488.4413,-40.6526 2491.6973,-39.8188"/>
<polygon fill="#191970" stroke="#191970" points="1514.6205,-84.0923 1504.6518,-87.6806 1514.6823,-91.0921 1514.6205,-84.0923"/>
</g>
<!-- Node11&#45;&gt;Node30 -->
<g id="edge22" class="edge">
<title>Node11&#45;&gt;Node30</title>
<path fill="none" stroke="#191970" d="M1515.0444,-87.2865C1714.5025,-84.507 2389.3309,-72.9828 2603,-42 2612.8557,-40.5709 2623.2377,-38.4514 2633.1956,-36.1008"/>
<polygon fill="#191970" stroke="#191970" points="1514.7507,-83.7901 1504.7998,-87.4274 1514.847,-90.7894 1514.7507,-83.7901"/>
</g>
<!-- Node11&#45;&gt;Node31 -->
<g id="edge23" class="edge">
<title>Node11&#45;&gt;Node31</title>
<path fill="none" stroke="#191970" d="M1514.9336,-86.9355C1749.1154,-82.3561 2644.4352,-63.5846 2769,-42 2777.0565,-40.604 2785.4897,-38.4679 2793.5311,-36.0834"/>
<polygon fill="#191970" stroke="#191970" points="1514.5395,-83.4424 1504.6096,-87.1365 1514.6759,-90.441 1514.5395,-83.4424"/>
</g>
<!-- Node11&#45;&gt;Node32 -->
<g id="edge24" class="edge">
<title>Node11&#45;&gt;Node32</title>
<path fill="none" stroke="#191970" d="M1514.7837,-87.1307C1763.2214,-83.1362 2762.8118,-65.7168 2901,-42 2909.0587,-40.6169 2917.493,-38.4869 2925.5347,-36.1043"/>
<polygon fill="#191970" stroke="#191970" points="1514.4907,-83.6349 1504.548,-87.2945 1514.6028,-90.634 1514.4907,-83.6349"/>
</g>
</g>
</svg>
        <g id="navigator" transform="translate(0 0)" fill="#404254">
                <rect fill="#f2f5e9" fill-opacity="0.5" stroke="#606060" stroke-width=".5" x="0" y="0" width="60" height="60"/>
                <use id="zoomplus" xlink:href="#zoomPlus" x="17" y="9" onmousedown="handleZoom(evt,'in')"/>
                <use id="zoomminus" xlink:href="#zoomMin" x="42" y="9" onmousedown="handleZoom(evt,'out')"/>
                <use id="reset" xlink:href="#resetDef" x="30" y="36" onmousedown="handleReset()"/>
                <g id="arrowUp" xlink:href="#dirArrow" transform="translate(30 24)" onmousedown="handlePan(0,-1)">
                  <use xlink:href="#rim" fill="#404040">
                        <set attributeName="fill" to="#808080" begin="arrowUp.mouseover" end="arrowUp.mouseout"/>
                  </use>
                  <path fill="none" stroke="white" stroke-width="1.5" d="M0,-3.0v7 M-2.5,-0.5L0,-3.0L2.5,-0.5"/>
                </g>
                <g id="arrowRight" xlink:href="#dirArrow" transform="rotate(90) translate(36 -43)" onmousedown="handlePan(1,0)">
                  <use xlink:href="#rim" fill="#404040">
                        <set attributeName="fill" to="#808080" begin="arrowRight.mouseover" end="arrowRight.mouseout"/>
                  </use>
                  <path fill="none" stroke="white" stroke-width="1.5" d="M0,-3.0v7 M-2.5,-0.5L0,-3.0L2.5,-0.5"/>
                </g>
                <g id="arrowDown" xlink:href="#dirArrow" transform="rotate(180) translate(-30 -48)" onmousedown="handlePan(0,1)">
                  <use xlink:href="#rim" fill="#404040">
                        <set attributeName="fill" to="#808080" begin="arrowDown.mouseover" end="arrowDown.mouseout"/>
                  </use>
                  <path fill="none" stroke="white" stroke-width="1.5" d="M0,-3.0v7 M-2.5,-0.5L0,-3.0L2.5,-0.5"/>
                </g>
                <g id="arrowLeft" xlink:href="#dirArrow" transform="rotate(270) translate(-36 17)" onmousedown="handlePan(-1,0)">
                  <use xlink:href="#rim" fill="#404040">
                        <set attributeName="fill" to="#808080" begin="arrowLeft.mouseover" end="arrowLeft.mouseout"/>
                  </use>
                  <path fill="none" stroke="white" stroke-width="1.5" d="M0,-3.0v7 M-2.5,-0.5L0,-3.0L2.5,-0.5"/>
                </g>
        </g>
        <svg viewBox="0 0 15 15" width="100%" height="30px" preserveAspectRatio="xMaxYMin meet">
         <g id="arrow_out" transform="scale(0.3 0.3)">
          <a xlink:href="su3__matrix_8h__dep__incl_org.svg" target="_base">
           <rect id="button" ry="5" rx="5" y="6" x="6" height="38" width="38"
                fill="#f2f5e9" fill-opacity="0.5" stroke="#606060" stroke-width="1.0"/>
           <path id="arrow"
             d="M 11.500037,31.436501 C 11.940474,20.09759 22.043105,11.32322 32.158766,21.979434 L 37.068811,17.246167 C 37.068811,17.246167 37.088388,32 37.088388,32 L 22.160133,31.978069 C 22.160133,31.978069 26.997745,27.140456 26.997745,27.140456 C 18.528582,18.264221 13.291696,25.230495 11.500037,31.436501 z"
             style="fill:#404040;"/>
          </a>
         </g>
        </svg>
</svg>
