<?xml version="1.0" encoding="UTF-8" standalone="no"?>
<!DOCTYPE svg PUBLIC "-//W3C//DTD SVG 1.1//EN"
 "http://www.w3.org/Graphics/SVG/1.1/DTD/svg11.dtd">
<!-- Generated by graphviz version 2.40.1 (20161225.0304)
 -->
<!-- Title: su3_matrix.h Pages: 1 -->
<svg width="650pt" height="140pt"
 viewBox="0.00 0.00 650.00 140.00" xmlns="http://www.w3.org/2000/svg" xmlns:xlink="http://www.w3.org/1999/xlink">
<g id="graph0" class="graph" transform="scale(1 1) rotate(0) translate(4 136)">
<title>su3_matrix.h</title>
<polygon fill="#ffffff" stroke="transparent" points="-4,4 -4,-136 646,-136 646,4 -4,4"/>
<!-- Node0 -->
<g id="node1" class="node">
<title>Node0</title>
<polygon fill="#bfbfbf" stroke="#000000" points="213.5,-112.5 213.5,-131.5 286.5,-131.5 286.5,-112.5 213.5,-112.5"/>
<text text-anchor="middle" x="250" y="-119.5" font-family="Helvetica,sans-Serif" font-size="10.00" fill="#000000">su3_matrix.h</text>
</g>
<!-- Node1 -->
<g id="node2" class="node">
<title>Node1</title>
<polygon fill="#ffffff" stroke="#bfbfbf" points="0,-56.5 0,-75.5 46,-75.5 46,-56.5 0,-56.5"/>
<text text-anchor="middle" x="23" y="-63.5" font-family="Helvetica,sans-Serif" font-size="10.00" fill="#000000">stdio.h</text>
</g>
<!-- Node0&#45;&gt;Node1 -->
<g id="edge1" class="edge">
<title>Node0&#45;&gt;Node1</title>
<path fill="none" stroke="#191970" d="M213.144,-114.1269C175.785,-105.9649 116.1304,-92.4366 55.714,-76.0595"/>
<polygon fill="#191970" stroke="#191970" points="56.5834,-72.6688 46.0143,-73.407 54.7369,-79.4209 56.5834,-72.6688"/>
</g>
<!-- Node2 -->
<g id="node3" class="node">
<title>Node2</title>
<polygon fill="#ffffff" stroke="#bfbfbf" points="64.5,-56.5 64.5,-75.5 111.5,-75.5 111.5,-56.5 64.5,-56.5"/>
<text text-anchor="middle" x="88" y="-63.5" font-family="Helvetica,sans-Serif" font-size="10.00" fill="#000000">math.h</text>
</g>
<!-- Node0&#45;&gt;Node2 -->
<g id="edge2" class="edge">
<title>Node0&#45;&gt;Node2</title>
<path fill="none" stroke="#191970" d="M222.1512,-112.3733C194.1105,-102.6802 150.8547,-87.7275 121.0828,-77.436"/>
<polygon fill="#191970" stroke="#191970" points="122.1394,-74.0981 111.5447,-74.1389 119.8524,-80.714 122.1394,-74.0981"/>
</g>
<!-- Node3 -->
<g id="node4" class="node">
<title>Node3</title>
<polygon fill="#ffffff" stroke="#bfbfbf" points="130,-56.5 130,-75.5 178,-75.5 178,-56.5 130,-56.5"/>
<text text-anchor="middle" x="154" y="-63.5" font-family="Helvetica,sans-Serif" font-size="10.00" fill="#000000">stdlib.h</text>
</g>
<!-- Node0&#45;&gt;Node3 -->
<g id="edge3" class="edge">
<title>Node0&#45;&gt;Node3</title>
<path fill="none" stroke="#191970" d="M233.2781,-112.2455C218.4111,-103.5731 196.4534,-90.7645 179.4142,-80.825"/>
<polygon fill="#191970" stroke="#191970" points="180.9317,-77.6582 170.5303,-75.6427 177.4045,-83.7047 180.9317,-77.6582"/>
</g>
<!-- Node4 -->
<g id="node5" class="node">
<title>Node4</title>
<polygon fill="#ffffff" stroke="#bfbfbf" points="196,-56.5 196,-75.5 250,-75.5 250,-56.5 196,-56.5"/>
<text text-anchor="middle" x="223" y="-63.5" font-family="Helvetica,sans-Serif" font-size="10.00" fill="#000000">iostream</text>
</g>
<!-- Node0&#45;&gt;Node4 -->
<g id="edge4" class="edge">
<title>Node0&#45;&gt;Node4</title>
<path fill="none" stroke="#191970" d="M245.297,-112.2455C241.6576,-104.6973 236.5076,-94.0158 232.0738,-84.8197"/>
<polygon fill="#191970" stroke="#191970" points="235.1449,-83.1303 227.6491,-75.6427 228.8395,-86.1704 235.1449,-83.1303"/>
</g>
<!-- Node5 -->
<g id="node6" class="node">
<title>Node5</title>
<polygon fill="#ffffff" stroke="#bfbfbf" points="401,-.5 401,-19.5 463,-19.5 463,-.5 401,-.5"/>
<text text-anchor="middle" x="432" y="-7.5" font-family="Helvetica,sans-Serif" font-size="10.00" fill="#000000">complex.h</text>
</g>
<!-- Node0&#45;&gt;Node5 -->
<g id="edge5" class="edge">
<title>Node0&#45;&gt;Node5</title>
<path fill="none" stroke="#191970" d="M254.3644,-112.4775C261.3747,-98.1998 276.468,-71.2931 297,-56 324.6781,-35.3841 362.2363,-23.5812 390.711,-17.1059"/>
<polygon fill="#191970" stroke="#191970" points="391.7102,-20.4714 400.7555,-14.9549 390.2443,-13.6265 391.7102,-20.4714"/>
</g>
<!-- Node6 -->
<g id="node7" class="node">
<title>Node6</title>
<polygon fill="#ffffff" stroke="#bfbfbf" points="306,-56.5 306,-75.5 350,-75.5 350,-56.5 306,-56.5"/>
<text text-anchor="middle" x="328" y="-63.5" font-family="Helvetica,sans-Serif" font-size="10.00" fill="#000000">float.h</text>
</g>
<!-- Node0&#45;&gt;Node6 -->
<g id="edge6" class="edge">
<title>Node0&#45;&gt;Node6</title>
<path fill="none" stroke="#191970" d="M263.5866,-112.2455C275.3305,-103.814 292.5199,-91.4729 306.1882,-81.6598"/>
<polygon fill="#191970" stroke="#191970" points="308.4871,-84.3179 314.5691,-75.6427 304.4046,-78.6316 308.4871,-84.3179"/>
</g>
<!-- Node7 -->
<g id="node8" class="node">
<title>Node7</title>
<g id="a_node8"><a xlink:href="$zheevc3_8h.html" xlink:title="zheevh3&#45;C&#45;1.1/zheevc3.h">
<polygon fill="#ffffff" stroke="#000000" points="368,-56.5 368,-75.5 496,-75.5 496,-56.5 368,-56.5"/>
<text text-anchor="middle" x="432" y="-63.5" font-family="Helvetica,sans-Serif" font-size="10.00" fill="#000000">zheevh3&#45;C&#45;1.1/zheevc3.h</text>
</a>
</g>
</g>
<!-- Node0&#45;&gt;Node7 -->
<g id="edge7" class="edge">
<title>Node0&#45;&gt;Node7</title>
<path fill="none" stroke="#191970" d="M281.2869,-112.3733C311.6818,-103.021 357.9893,-88.7725 391.25,-78.5385"/>
<polygon fill="#191970" stroke="#191970" points="392.5929,-81.7873 401.1214,-75.5011 390.5342,-75.0968 392.5929,-81.7873"/>
</g>
<!-- Node8 -->
<g id="node9" class="node">
<title>Node8</title>
<g id="a_node9"><a xlink:href="$zheevq3_8h.html" xlink:title="zheevh3&#45;C&#45;1.1/zheevq3.h">
<polygon fill="#ffffff" stroke="#000000" points="514,-56.5 514,-75.5 642,-75.5 642,-56.5 514,-56.5"/>
<text text-anchor="middle" x="578" y="-63.5" font-family="Helvetica,sans-Serif" font-size="10.00" fill="#000000">zheevh3&#45;C&#45;1.1/zheevq3.h</text>
</a>
</g>
</g>
<!-- Node0&#45;&gt;Node8 -->
<g id="edge9" class="edge">
<title>Node0&#45;&gt;Node8</title>
<path fill="none" stroke="#191970" d="M286.671,-115.7391C341.1307,-106.4411 444.2329,-88.8383 512.0286,-77.2634"/>
<polygon fill="#191970" stroke="#191970" points="512.9106,-80.6635 522.1789,-75.5304 511.7325,-73.7634 512.9106,-80.6635"/>
</g>
<!-- Node7&#45;&gt;Node5 -->
<g id="edge8" class="edge">
<title>Node7&#45;&gt;Node5</title>
<path fill="none" stroke="#191970" d="M432,-56.2455C432,-48.9382 432,-38.6944 432,-29.7046"/>
<polygon fill="#191970" stroke="#191970" points="435.5001,-29.6426 432,-19.6427 428.5001,-29.6427 435.5001,-29.6426"/>
</g>
<!-- Node8&#45;&gt;Node5 -->
<g id="edge10" class="edge">
<title>Node8&#45;&gt;Node5</title>
<path fill="none" stroke="#191970" d="M552.9017,-56.3733C529.0445,-47.2226 492.9665,-33.3844 466.429,-23.2057"/>
<polygon fill="#191970" stroke="#191970" points="467.361,-19.8145 456.7708,-19.5011 464.8541,-26.3503 467.361,-19.8145"/>
</g>
</g>
</svg>
