<?xml version="1.0" encoding="UTF-8" standalone="no"?>
<!DOCTYPE svg PUBLIC "-//W3C//DTD SVG 1.1//EN"
 "http://www.w3.org/Graphics/SVG/1.1/DTD/svg11.dtd">
<!-- Generated by graphviz version 2.40.1 (20161225.0304)
 -->
<!-- Title: su3_matrix.h Pages: 1 -->
<svg width="3130pt" height="162pt"
 viewBox="0.00 0.00 3130.00 162.00" xmlns="http://www.w3.org/2000/svg" xmlns:xlink="http://www.w3.org/1999/xlink">
<g id="graph0" class="graph" transform="scale(1 1) rotate(0) translate(4 158)">
<title>su3_matrix.h</title>
<polygon fill="#ffffff" stroke="transparent" points="-4,4 -4,-158 3126,-158 3126,4 -4,4"/>
<!-- Node9 -->
<g id="node1" class="node">
<title>Node9</title>
<polygon fill="#bfbfbf" stroke="#000000" points="1470.5,-134.5 1470.5,-153.5 1543.5,-153.5 1543.5,-134.5 1470.5,-134.5"/>
<text text-anchor="middle" x="1507" y="-141.5" font-family="Helvetica,sans-Serif" font-size="10.00" fill="#000000">su3_matrix.h</text>
</g>
<!-- Node10 -->
<g id="node2" class="node">
<title>Node10</title>
<g id="a_node2"><a xlink:href="$main__explicit_8cpp.html" xlink:title="main_explicit.cpp">
<polygon fill="#ffffff" stroke="#000000" points="0,-11.5 0,-30.5 92,-30.5 92,-11.5 0,-11.5"/>
<text text-anchor="middle" x="46" y="-18.5" font-family="Helvetica,sans-Serif" font-size="10.00" fill="#000000">main_explicit.cpp</text>
</a>
</g>
</g>
<!-- Node9&#45;&gt;Node10 -->
<g id="edge1" class="edge">
<title>Node9&#45;&gt;Node10</title>
<path fill="none" stroke="#191970" d="M1460.3708,-143.1526C1274.3256,-139.6113 584.7251,-124.9141 368,-98 247.6756,-83.0575 217.3325,-76.1758 101,-42 90.1147,-38.8022 78.3288,-34.4294 68.4698,-30.5017"/>
<polygon fill="#191970" stroke="#191970" points="1460.3118,-146.652 1470.3761,-143.3415 1460.444,-139.6533 1460.3118,-146.652"/>
</g>
<!-- Node11 -->
<g id="node3" class="node">
<title>Node11</title>
<g id="a_node3"><a xlink:href="$mpi__fftw__class_8h.html" xlink:title="mpi_fftw_class.h">
<polygon fill="#ffffff" stroke="#000000" points="1424.5,-78.5 1424.5,-97.5 1515.5,-97.5 1515.5,-78.5 1424.5,-78.5"/>
<text text-anchor="middle" x="1470" y="-85.5" font-family="Helvetica,sans-Serif" font-size="10.00" fill="#000000">mpi_fftw_class.h</text>
</a>
</g>
</g>
<!-- Node9&#45;&gt;Node11 -->
<g id="edge2" class="edge">
<title>Node9&#45;&gt;Node11</title>
<path fill="none" stroke="#191970" d="M1494.8624,-125.6296C1488.6907,-116.2887 1481.4434,-105.3197 1476.3711,-97.6427"/>
<polygon fill="#191970" stroke="#191970" points="1492.1223,-127.8316 1500.5551,-134.2455 1497.9627,-123.9728 1492.1223,-127.8316"/>
</g>
<!-- Node12 -->
<g id="node4" class="node">
<title>Node12</title>
<g id="a_node4"><a xlink:href="$main__omp_8cpp.html" xlink:title="main_omp.cpp">
<polygon fill="#ffffff" stroke="#000000" points="110,-11.5 110,-30.5 190,-30.5 190,-11.5 110,-11.5"/>
<text text-anchor="middle" x="150" y="-18.5" font-family="Helvetica,sans-Serif" font-size="10.00" fill="#000000">main_omp.cpp</text>
</a>
</g>
</g>
<!-- Node9&#45;&gt;Node12 -->
<g id="edge26" class="edge">
<title>Node9&#45;&gt;Node12</title>
<path fill="none" stroke="#191970" d="M1460.0089,-143.0485C1325.9279,-140.0234 930.1165,-128.9351 603,-98 422.5329,-80.9334 373.6413,-90.5805 199,-42 188.8349,-39.1724 178.0063,-34.6987 169.1208,-30.6058"/>
<polygon fill="#191970" stroke="#191970" points="1460.2447,-146.5544 1470.3198,-143.2767 1460.3997,-139.5562 1460.2447,-146.5544"/>
</g>
<!-- Node13 -->
<g id="node5" class="node">
<title>Node13</title>
<g id="a_node5"><a xlink:href="$test__accumulation_8cpp.html" xlink:title="tests/test_accumulation.cpp">
<polygon fill="#ffffff" stroke="#000000" points="208,-11.5 208,-30.5 348,-30.5 348,-11.5 208,-11.5"/>
<text text-anchor="middle" x="278" y="-18.5" font-family="Helvetica,sans-Serif" font-size="10.00" fill="#000000">tests/test_accumulation.cpp</text>
</a>
</g>
</g>
<!-- Node9&#45;&gt;Node13 -->
<g id="edge27" class="edge">
<title>Node9&#45;&gt;Node13</title>
<path fill="none" stroke="#191970" d="M1460.1289,-143.1575C1302.8524,-139.6289 780.0291,-122.2102 357,-42 341.2442,-39.0126 324.0055,-34.5708 309.6629,-30.5408"/>
<polygon fill="#191970" stroke="#191970" points="1460.3121,-146.6622 1470.3855,-143.3793 1460.4635,-139.6638 1460.3121,-146.6622"/>
</g>
<!-- Node14 -->
<g id="node6" class="node">
<title>Node14</title>
<g id="a_node6"><a xlink:href="$test__exponentiate_8cpp.html" xlink:title="tests/test_exponentiate.cpp">
<polygon fill="#ffffff" stroke="#000000" points="366.5,-11.5 366.5,-30.5 503.5,-30.5 503.5,-11.5 366.5,-11.5"/>
<text text-anchor="middle" x="435" y="-18.5" font-family="Helvetica,sans-Serif" font-size="10.00" fill="#000000">tests/test_exponentiate.cpp</text>
</a>
</g>
</g>
<!-- Node9&#45;&gt;Node14 -->
<g id="edge28" class="edge">
<title>Node9&#45;&gt;Node14</title>
<path fill="none" stroke="#191970" d="M1460.1537,-140.4278C1369.9869,-133.4111 1166.0886,-116.8601 995,-98 926.8344,-90.4857 910.0896,-86.1746 842,-78 695.9538,-60.4661 657.5581,-69.201 513,-42 497.4263,-39.0696 480.4038,-34.6345 466.2459,-30.5941"/>
<polygon fill="#191970" stroke="#191970" points="1460.0793,-143.9324 1470.3199,-141.2159 1460.6204,-136.9534 1460.0793,-143.9324"/>
</g>
<!-- Node15 -->
<g id="node7" class="node">
<title>Node15</title>
<g id="a_node7"><a xlink:href="$test__hermitian_8cpp.html" xlink:title="tests/test_hermitian.cpp">
<polygon fill="#ffffff" stroke="#000000" points="522,-11.5 522,-30.5 644,-30.5 644,-11.5 522,-11.5"/>
<text text-anchor="middle" x="583" y="-18.5" font-family="Helvetica,sans-Serif" font-size="10.00" fill="#000000">tests/test_hermitian.cpp</text>
</a>
</g>
</g>
<!-- Node9&#45;&gt;Node15 -->
<g id="edge29" class="edge">
<title>Node9&#45;&gt;Node15</title>
<path fill="none" stroke="#191970" d="M1460.0447,-140.2761C1382.7825,-133.8201 1224.1321,-119.1792 1091,-98 1047.9585,-91.1528 1038.0594,-84.7342 995,-78 843.9957,-54.384 802.8486,-72.0899 653,-42 638.8189,-39.1524 623.3866,-34.6766 610.6296,-30.5874"/>
<polygon fill="#191970" stroke="#191970" points="1460.1409,-143.796 1470.3955,-141.1326 1460.7182,-136.8198 1460.1409,-143.796"/>
</g>
<!-- Node16 -->
<g id="node8" class="node">
<title>Node16</title>
<g id="a_node8"><a xlink:href="$test__initial__condition_8cpp.html" xlink:title="tests/test_initial\l_condition.cpp">
<polygon fill="#ffffff" stroke="#000000" points="662,-6 662,-36 748,-36 748,-6 662,-6"/>
<text text-anchor="start" x="670" y="-24" font-family="Helvetica,sans-Serif" font-size="10.00" fill="#000000">tests/test_initial</text>
<text text-anchor="middle" x="705" y="-13" font-family="Helvetica,sans-Serif" font-size="10.00" fill="#000000">_condition.cpp</text>
</a>
</g>
</g>
<!-- Node9&#45;&gt;Node16 -->
<g id="edge30" class="edge">
<title>Node9&#45;&gt;Node16</title>
<path fill="none" stroke="#191970" d="M1459.9571,-140.1934C1392.54,-134.1983 1264.7933,-120.8257 1158,-98 1127.6102,-91.5046 1121.4645,-84.1351 1091,-78 944.6343,-48.5239 901.8241,-78.3007 757,-42 750.8614,-40.4613 744.4877,-38.3502 738.394,-36.0565"/>
<polygon fill="#191970" stroke="#191970" points="1459.98,-143.7086 1470.2467,-141.0925 1460.5894,-136.7352 1459.98,-143.7086"/>
</g>
<!-- Node17 -->
<g id="node9" class="node">
<title>Node17</title>
<g id="a_node9"><a xlink:href="$test__initial__condition__fftw1d_8cpp.html" xlink:title="tests/test_initial\l_condition_fftw1d.cpp">
<polygon fill="#ffffff" stroke="#000000" points="766,-6 766,-36 878,-36 878,-6 766,-6"/>
<text text-anchor="start" x="774" y="-24" font-family="Helvetica,sans-Serif" font-size="10.00" fill="#000000">tests/test_initial</text>
<text text-anchor="middle" x="822" y="-13" font-family="Helvetica,sans-Serif" font-size="10.00" fill="#000000">_condition_fftw1d.cpp</text>
</a>
</g>
</g>
<!-- Node9&#45;&gt;Node17 -->
<g id="edge31" class="edge">
<title>Node9&#45;&gt;Node17</title>
<path fill="none" stroke="#191970" d="M1460.2324,-139.8729C1401.1776,-133.954 1296.8012,-121.1298 1210,-98 1186.0733,-91.6243 1181.9941,-84.117 1158,-78 1040.2633,-47.9844 1005.5132,-68.7857 887,-42 879.7126,-40.3529 872.0754,-38.2447 864.702,-36.0021"/>
<polygon fill="#191970" stroke="#191970" points="1460.0723,-143.3739 1470.3658,-140.8651 1460.7545,-136.4072 1460.0723,-143.3739"/>
</g>
<!-- Node18 -->
<g id="node10" class="node">
<title>Node18</title>
<g id="a_node10"><a xlink:href="$test__momentum__coupling_8cpp.html" xlink:title="tests/test_momentum\l_coupling.cpp">
<polygon fill="#ffffff" stroke="#000000" points="896,-6 896,-36 1008,-36 1008,-6 896,-6"/>
<text text-anchor="start" x="904" y="-24" font-family="Helvetica,sans-Serif" font-size="10.00" fill="#000000">tests/test_momentum</text>
<text text-anchor="middle" x="952" y="-13" font-family="Helvetica,sans-Serif" font-size="10.00" fill="#000000">_coupling.cpp</text>
</a>
</g>
</g>
<!-- Node9&#45;&gt;Node18 -->
<g id="edge32" class="edge">
<title>Node9&#45;&gt;Node18</title>
<path fill="none" stroke="#191970" d="M1460.447,-136.5666C1412.7704,-128.5624 1336.6896,-114.7022 1272,-98 1243.9656,-90.7618 1238.0663,-85.1135 1210,-78 1125.4172,-56.5623 1101.578,-63.4568 1017,-42 1010.1031,-40.2503 1002.8685,-38.1672 995.8334,-36.0031"/>
<polygon fill="#191970" stroke="#191970" points="1460.0286,-140.045 1470.4673,-138.2328 1461.1769,-133.1398 1460.0286,-140.045"/>
</g>
<!-- Node19 -->
<g id="node11" class="node">
<title>Node19</title>
<g id="a_node11"><a xlink:href="$test__momentum__coupling__fft_8cpp.html" xlink:title="tests/test_momentum\l_coupling_fft.cpp">
<polygon fill="#ffffff" stroke="#000000" points="1026,-6 1026,-36 1138,-36 1138,-6 1026,-6"/>
<text text-anchor="start" x="1034" y="-24" font-family="Helvetica,sans-Serif" font-size="10.00" fill="#000000">tests/test_momentum</text>
<text text-anchor="middle" x="1082" y="-13" font-family="Helvetica,sans-Serif" font-size="10.00" fill="#000000">_coupling_fft.cpp</text>
</a>
</g>
</g>
<!-- Node9&#45;&gt;Node19 -->
<g id="edge33" class="edge">
<title>Node9&#45;&gt;Node19</title>
<path fill="none" stroke="#191970" d="M1461.5967,-131.7404C1393.1632,-113.1259 1259.6086,-76.2666 1147,-42 1140.8735,-40.1357 1134.4394,-38.1235 1128.1002,-36.1088"/>
<polygon fill="#191970" stroke="#191970" points="1461.0415,-135.2164 1471.6093,-134.4601 1462.8764,-128.4611 1461.0415,-135.2164"/>
</g>
<!-- Node20 -->
<g id="node12" class="node">
<title>Node20</title>
<g id="a_node12"><a xlink:href="$test__momentum__evolution_8cpp.html" xlink:title="tests/test_momentum\l_evolution.cpp">
<polygon fill="#ffffff" stroke="#000000" points="1156,-6 1156,-36 1268,-36 1268,-6 1156,-6"/>
<text text-anchor="start" x="1164" y="-24" font-family="Helvetica,sans-Serif" font-size="10.00" fill="#000000">tests/test_momentum</text>
<text text-anchor="middle" x="1212" y="-13" font-family="Helvetica,sans-Serif" font-size="10.00" fill="#000000">_evolution.cpp</text>
</a>
</g>
</g>
<!-- Node9&#45;&gt;Node20 -->
<g id="edge34" class="edge">
<title>Node9&#45;&gt;Node20</title>
<path fill="none" stroke="#191970" d="M1472.6346,-130.6708C1449.4948,-121.6225 1418.3303,-109.2945 1391,-98 1340.3506,-77.0686 1282.1235,-51.7937 1246.1919,-36.0546"/>
<polygon fill="#191970" stroke="#191970" points="1471.4375,-133.9607 1482.0258,-134.3353 1473.9822,-127.4396 1471.4375,-133.9607"/>
</g>
<!-- Node21 -->
<g id="node13" class="node">
<title>Node21</title>
<g id="a_node13"><a xlink:href="$test__momentum__evolution__coupling_8cpp.html" xlink:title="tests/test_momentum\l_evolution_coupling.cpp">
<polygon fill="#ffffff" stroke="#000000" points="1286.5,-6 1286.5,-36 1407.5,-36 1407.5,-6 1286.5,-6"/>
<text text-anchor="start" x="1294.5" y="-24" font-family="Helvetica,sans-Serif" font-size="10.00" fill="#000000">tests/test_momentum</text>
<text text-anchor="middle" x="1347" y="-13" font-family="Helvetica,sans-Serif" font-size="10.00" fill="#000000">_evolution_coupling.cpp</text>
</a>
</g>
</g>
<!-- Node9&#45;&gt;Node21 -->
<g id="edge35" class="edge">
<title>Node9&#45;&gt;Node21</title>
<path fill="none" stroke="#191970" d="M1472.1157,-130.3669C1454.0968,-122.4122 1432.3192,-111.3176 1415,-98 1391.5307,-79.9533 1369.9061,-52.9347 1357.602,-36.1676"/>
<polygon fill="#191970" stroke="#191970" points="1471.1164,-133.746 1481.6873,-134.4573 1473.8672,-127.3091 1471.1164,-133.746"/>
</g>
<!-- Node22 -->
<g id="node14" class="node">
<title>Node22</title>
<g id="a_node14"><a xlink:href="$test__momentum__evolution__coupling2_8cpp.html" xlink:title="tests/test_momentum\l_evolution_coupling2.cpp">
<polygon fill="#ffffff" stroke="#000000" points="1426,-6 1426,-36 1552,-36 1552,-6 1426,-6"/>
<text text-anchor="start" x="1434" y="-24" font-family="Helvetica,sans-Serif" font-size="10.00" fill="#000000">tests/test_momentum</text>
<text text-anchor="middle" x="1489" y="-13" font-family="Helvetica,sans-Serif" font-size="10.00" fill="#000000">_evolution_coupling2.cpp</text>
</a>
</g>
</g>
<!-- Node9&#45;&gt;Node22 -->
<g id="edge36" class="edge">
<title>Node9&#45;&gt;Node22</title>
<path fill="none" stroke="#191970" d="M1517.2525,-125.0631C1523.102,-111.8356 1528.4604,-93.7883 1524,-78 1519.6432,-62.5784 1509.813,-47.2197 1501.6764,-36.3374"/>
<polygon fill="#191970" stroke="#191970" points="1514.0726,-123.5989 1512.8381,-134.1216 1520.3652,-126.6655 1514.0726,-123.5989"/>
</g>
<!-- Node23 -->
<g id="node15" class="node">
<title>Node23</title>
<g id="a_node15"><a xlink:href="$test__momentum__evolution__coupling__lambda_8cpp.html" xlink:title="tests/test_momentum\l_evolution_coupling\l_lambda.cpp">
<polygon fill="#ffffff" stroke="#000000" points="1570,-.5 1570,-41.5 1682,-41.5 1682,-.5 1570,-.5"/>
<text text-anchor="start" x="1578" y="-29.5" font-family="Helvetica,sans-Serif" font-size="10.00" fill="#000000">tests/test_momentum</text>
<text text-anchor="start" x="1578" y="-18.5" font-family="Helvetica,sans-Serif" font-size="10.00" fill="#000000">_evolution_coupling</text>
<text text-anchor="middle" x="1626" y="-7.5" font-family="Helvetica,sans-Serif" font-size="10.00" fill="#000000">_lambda.cpp</text>
</a>
</g>
</g>
<!-- Node9&#45;&gt;Node23 -->
<g id="edge37" class="edge">
<title>Node9&#45;&gt;Node23</title>
<path fill="none" stroke="#191970" d="M1523.4718,-126.9745C1544.9671,-104.7567 1582.5679,-65.892 1605.7712,-41.9088"/>
<polygon fill="#191970" stroke="#191970" points="1520.7756,-124.7278 1516.3377,-134.3484 1525.8064,-129.5951 1520.7756,-124.7278"/>
</g>
<!-- Node24 -->
<g id="node16" class="node">
<title>Node24</title>
<g id="a_node16"><a xlink:href="$test__momentum__evolution__coupling__lambda__noise_8cpp.html" xlink:title="tests/test_momentum\l_evolution_coupling\l_lambda_noise.cpp">
<polygon fill="#ffffff" stroke="#000000" points="1700,-.5 1700,-41.5 1812,-41.5 1812,-.5 1700,-.5"/>
<text text-anchor="start" x="1708" y="-29.5" font-family="Helvetica,sans-Serif" font-size="10.00" fill="#000000">tests/test_momentum</text>
<text text-anchor="start" x="1708" y="-18.5" font-family="Helvetica,sans-Serif" font-size="10.00" fill="#000000">_evolution_coupling</text>
<text text-anchor="middle" x="1756" y="-7.5" font-family="Helvetica,sans-Serif" font-size="10.00" fill="#000000">_lambda_noise.cpp</text>
</a>
</g>
</g>
<!-- Node9&#45;&gt;Node24 -->
<g id="edge38" class="edge">
<title>Node9&#45;&gt;Node24</title>
<path fill="none" stroke="#191970" d="M1535.7764,-129.7851C1579.6548,-108.1103 1663.5162,-66.6848 1714.1387,-41.6785"/>
<polygon fill="#191970" stroke="#191970" points="1533.9543,-126.7814 1526.5386,-134.3484 1537.0545,-133.0575 1533.9543,-126.7814"/>
</g>
<!-- Node25 -->
<g id="node17" class="node">
<title>Node25</title>
<g id="a_node17"><a xlink:href="$test__multiplication_8cpp.html" xlink:title="tests/test_multiplication.cpp">
<polygon fill="#ffffff" stroke="#000000" points="1830.5,-11.5 1830.5,-30.5 1969.5,-30.5 1969.5,-11.5 1830.5,-11.5"/>
<text text-anchor="middle" x="1900" y="-18.5" font-family="Helvetica,sans-Serif" font-size="10.00" fill="#000000">tests/test_multiplication.cpp</text>
</a>
</g>
</g>
<!-- Node9&#45;&gt;Node25 -->
<g id="edge39" class="edge">
<title>Node9&#45;&gt;Node25</title>
<path fill="none" stroke="#191970" d="M1547.0819,-131.4553C1625.8413,-106.8054 1799.2237,-52.5407 1869.5084,-30.5432"/>
<polygon fill="#191970" stroke="#191970" points="1546.0091,-128.1236 1537.511,-134.4507 1548.1,-134.804 1546.0091,-128.1236"/>
</g>
<!-- Node26 -->
<g id="node18" class="node">
<title>Node26</title>
<g id="a_node18"><a xlink:href="$test__noise__vectors_8cpp.html" xlink:title="tests/test_noise_vectors.cpp">
<polygon fill="#ffffff" stroke="#000000" points="1987.5,-11.5 1987.5,-30.5 2130.5,-30.5 2130.5,-11.5 1987.5,-11.5"/>
<text text-anchor="middle" x="2059" y="-18.5" font-family="Helvetica,sans-Serif" font-size="10.00" fill="#000000">tests/test_noise_vectors.cpp</text>
</a>
</g>
</g>
<!-- Node9&#45;&gt;Node26 -->
<g id="edge40" class="edge">
<title>Node9&#45;&gt;Node26</title>
<path fill="none" stroke="#191970" d="M1553.5826,-134.5629C1638.2942,-117.2567 1823.1306,-78.8291 1978,-42 1992.9813,-38.4373 2009.4435,-34.2246 2023.5917,-30.511"/>
<polygon fill="#191970" stroke="#191970" points="1552.8556,-131.139 1543.757,-136.5672 1554.2548,-137.9978 1552.8556,-131.139"/>
</g>
<!-- Node27 -->
<g id="node19" class="node">
<title>Node27</title>
<g id="a_node19"><a xlink:href="$test__noise__vectors__and__cholesky__decomposition_8cpp.html" xlink:title="tests/test_noise_vectors\l_and_cholesky_decomposition.cpp">
<polygon fill="#ffffff" stroke="#000000" points="2148.5,-6 2148.5,-36 2317.5,-36 2317.5,-6 2148.5,-6"/>
<text text-anchor="start" x="2156.5" y="-24" font-family="Helvetica,sans-Serif" font-size="10.00" fill="#000000">tests/test_noise_vectors</text>
<text text-anchor="middle" x="2233" y="-13" font-family="Helvetica,sans-Serif" font-size="10.00" fill="#000000">_and_cholesky_decomposition.cpp</text>
</a>
</g>
</g>
<!-- Node9&#45;&gt;Node27 -->
<g id="edge41" class="edge">
<title>Node9&#45;&gt;Node27</title>
<path fill="none" stroke="#191970" d="M1553.7837,-137.4273C1658.7999,-122.4597 1921.1451,-83.8761 2139,-42 2148.4421,-40.185 2158.3849,-38.1259 2168.1271,-36.024"/>
<polygon fill="#191970" stroke="#191970" points="1553.2313,-133.9705 1543.8235,-138.8432 1554.2166,-140.9009 1553.2313,-133.9705"/>
</g>
<!-- Node28 -->
<g id="node20" class="node">
<title>Node28</title>
<g id="a_node20"><a xlink:href="$test__position__evolution_8cpp.html" xlink:title="tests/test_position\l_evolution.cpp">
<polygon fill="#ffffff" stroke="#000000" points="2335.5,-6 2335.5,-36 2432.5,-36 2432.5,-6 2335.5,-6"/>
<text text-anchor="start" x="2343.5" y="-24" font-family="Helvetica,sans-Serif" font-size="10.00" fill="#000000">tests/test_position</text>
<text text-anchor="middle" x="2384" y="-13" font-family="Helvetica,sans-Serif" font-size="10.00" fill="#000000">_evolution.cpp</text>
</a>
</g>
</g>
<!-- Node9&#45;&gt;Node28 -->
<g id="edge42" class="edge">
<title>Node9&#45;&gt;Node28</title>
<path fill="none" stroke="#191970" d="M1553.9734,-141.9038C1680.4127,-135.4599 2037.863,-111.9467 2326,-42 2332.5563,-40.4084 2339.3983,-38.3284 2345.9883,-36.0967"/>
<polygon fill="#191970" stroke="#191970" points="1553.6777,-138.4141 1543.8643,-142.4074 1554.0261,-145.4054 1553.6777,-138.4141"/>
</g>
<!-- Node29 -->
<g id="node21" class="node">
<title>Node29</title>
<g id="a_node21"><a xlink:href="$test__position__evolution__coupling_8cpp.html" xlink:title="tests/test_position\l_evolution_coupling.cpp">
<polygon fill="#ffffff" stroke="#000000" points="2450.5,-6 2450.5,-36 2571.5,-36 2571.5,-6 2450.5,-6"/>
<text text-anchor="start" x="2458.5" y="-24" font-family="Helvetica,sans-Serif" font-size="10.00" fill="#000000">tests/test_position</text>
<text text-anchor="middle" x="2511" y="-13" font-family="Helvetica,sans-Serif" font-size="10.00" fill="#000000">_evolution_coupling.cpp</text>
</a>
</g>
</g>
<!-- Node9&#45;&gt;Node29 -->
<g id="edge43" class="edge">
<title>Node9&#45;&gt;Node29</title>
<path fill="none" stroke="#191970" d="M1553.7811,-142.8452C1691.5307,-138.6051 2106.9486,-119.789 2441,-42 2448.4144,-40.2735 2456.1984,-38.2027 2463.7717,-36.0438"/>
<polygon fill="#191970" stroke="#191970" points="1553.4786,-139.3525 1543.5868,-143.1477 1553.6863,-146.3494 1553.4786,-139.3525"/>
</g>
<!-- Node30 -->
<g id="node22" class="node">
<title>Node30</title>
<g id="a_node22"><a xlink:href="$test__position__evolution__coupling__noise_8cpp.html" xlink:title="tests/test_position\l_evolution_coupling\l_noise.cpp">
<polygon fill="#ffffff" stroke="#000000" points="2590,-.5 2590,-41.5 2692,-41.5 2692,-.5 2590,-.5"/>
<text text-anchor="start" x="2598" y="-29.5" font-family="Helvetica,sans-Serif" font-size="10.00" fill="#000000">tests/test_position</text>
<text text-anchor="start" x="2598" y="-18.5" font-family="Helvetica,sans-Serif" font-size="10.00" fill="#000000">_evolution_coupling</text>
<text text-anchor="middle" x="2641" y="-7.5" font-family="Helvetica,sans-Serif" font-size="10.00" fill="#000000">_noise.cpp</text>
</a>
</g>
</g>
<!-- Node9&#45;&gt;Node30 -->
<g id="edge44" class="edge">
<title>Node9&#45;&gt;Node30</title>
<path fill="none" stroke="#191970" d="M1553.9269,-142.2073C1666.1587,-137.6337 1958.8478,-124.0148 2202,-98 2370.8699,-79.9326 2415.0066,-82.2571 2580,-42 2583.2643,-41.2035 2586.6013,-40.3053 2589.949,-39.3402"/>
<polygon fill="#191970" stroke="#191970" points="1553.4878,-138.722 1543.6368,-142.6218 1553.7696,-145.7164 1553.4878,-138.722"/>
</g>
<!-- Node31 -->
<g id="node23" class="node">
<title>Node31</title>
<g id="a_node23"><a xlink:href="$test__position__evolution__hatta__coupling_8cpp.html" xlink:title="tests/test_position\l_evolution_hatta_coupling.cpp">
<polygon fill="#ffffff" stroke="#000000" points="2710,-6 2710,-36 2858,-36 2858,-6 2710,-6"/>
<text text-anchor="start" x="2718" y="-24" font-family="Helvetica,sans-Serif" font-size="10.00" fill="#000000">tests/test_position</text>
<text text-anchor="middle" x="2784" y="-13" font-family="Helvetica,sans-Serif" font-size="10.00" fill="#000000">_evolution_hatta_coupling.cpp</text>
</a>
</g>
</g>
<!-- Node9&#45;&gt;Node31 -->
<g id="edge45" class="edge">
<title>Node9&#45;&gt;Node31</title>
<path fill="none" stroke="#191970" d="M1553.8612,-142.7295C1677.8598,-139.0632 2024.7396,-126.8305 2312,-98 2485.7981,-80.557 2529.6526,-75.913 2701,-42 2709.7486,-40.2685 2718.9556,-38.1951 2727.9255,-36.0351"/>
<polygon fill="#191970" stroke="#191970" points="1553.488,-139.2388 1543.5942,-143.0285 1553.6918,-146.2358 1553.488,-139.2388"/>
</g>
<!-- Node32 -->
<g id="node24" class="node">
<title>Node32</title>
<g id="a_node24"><a xlink:href="$test__symmetrize__average_8cpp.html" xlink:title="tests/test_symmetrize\l_average.cpp">
<polygon fill="#ffffff" stroke="#000000" points="2876,-6 2876,-36 2990,-36 2990,-6 2876,-6"/>
<text text-anchor="start" x="2884" y="-24" font-family="Helvetica,sans-Serif" font-size="10.00" fill="#000000">tests/test_symmetrize</text>
<text text-anchor="middle" x="2933" y="-13" font-family="Helvetica,sans-Serif" font-size="10.00" fill="#000000">_average.cpp</text>
</a>
</g>
</g>
<!-- Node9&#45;&gt;Node32 -->
<g id="edge46" class="edge">
<title>Node9&#45;&gt;Node32</title>
<path fill="none" stroke="#191970" d="M1554.1249,-142.8122C1688.5926,-139.164 2085.5785,-126.5903 2414,-98 2616.1015,-80.4063 2668.8275,-85.3849 2867,-42 2874.4001,-40.3799 2882.1551,-38.2854 2889.6421,-36.0481"/>
<polygon fill="#191970" stroke="#191970" points="1553.6871,-139.3226 1543.7844,-143.0891 1553.8745,-146.3201 1553.6871,-139.3226"/>
</g>
<!-- Node33 -->
<g id="node25" class="node">
<title>Node33</title>
<g id="a_node25"><a xlink:href="$test__symmetrize__average2_8cpp.html" xlink:title="tests/test_symmetrize\l_average2.cpp">
<polygon fill="#ffffff" stroke="#000000" points="3008,-6 3008,-36 3122,-36 3122,-6 3008,-6"/>
<text text-anchor="start" x="3016" y="-24" font-family="Helvetica,sans-Serif" font-size="10.00" fill="#000000">tests/test_symmetrize</text>
<text text-anchor="middle" x="3065" y="-13" font-family="Helvetica,sans-Serif" font-size="10.00" fill="#000000">_average2.cpp</text>
</a>
</g>
</g>
<!-- Node9&#45;&gt;Node33 -->
<g id="edge47" class="edge">
<title>Node9&#45;&gt;Node33</title>
<path fill="none" stroke="#191970" d="M1553.562,-143.2739C1700.2682,-140.702 2165.9346,-130.3677 2550,-98 2750.3913,-81.1117 2802.5743,-85.1141 2999,-42 3006.3992,-40.3759 3014.1537,-38.2794 3021.6406,-36.0413"/>
<polygon fill="#191970" stroke="#191970" points="1553.4942,-139.7745 1543.5559,-143.4459 1553.6146,-146.7735 1553.4942,-139.7745"/>
</g>
<!-- Node11&#45;&gt;Node10 -->
<g id="edge3" class="edge">
<title>Node11&#45;&gt;Node10</title>
<path fill="none" stroke="#191970" d="M1413.8898,-87.2085C1172.7651,-83.6586 230.9197,-68.2227 101,-42 89.0775,-39.5936 76.3548,-34.8867 66.1521,-30.5381"/>
<polygon fill="#191970" stroke="#191970" points="1414.1239,-90.7122 1424.1741,-87.3589 1414.2264,-83.7129 1414.1239,-90.7122"/>
</g>
<!-- Node11&#45;&gt;Node12 -->
<g id="edge4" class="edge">
<title>Node11&#45;&gt;Node12</title>
<path fill="none" stroke="#191970" d="M1414.1491,-87.1865C1184.3639,-83.6753 318.4261,-68.773 199,-42 188.3433,-39.611 177.1,-34.9626 168.0751,-30.6453"/>
<polygon fill="#191970" stroke="#191970" points="1414.2362,-90.6881 1424.2882,-87.3403 1414.3425,-83.6889 1414.2362,-90.6881"/>
</g>
<!-- Node11&#45;&gt;Node13 -->
<g id="edge5" class="edge">
<title>Node11&#45;&gt;Node13</title>
<path fill="none" stroke="#191970" d="M1414.1373,-87.3045C1218.3953,-84.6154 564.2168,-73.4365 357,-42 340.4434,-39.4882 322.3653,-34.8303 307.686,-30.5383"/>
<polygon fill="#191970" stroke="#191970" points="1414.1524,-90.8049 1424.1989,-87.4407 1414.2472,-83.8055 1414.1524,-90.8049"/>
</g>
<!-- Node11&#45;&gt;Node14 -->
<g id="edge6" class="edge">
<title>Node11&#45;&gt;Node14</title>
<path fill="none" stroke="#191970" d="M1414.1268,-86.8914C1236.8529,-83.1257 688.4202,-69.5021 513,-42 496.7901,-39.4586 479.1046,-34.8538 464.6782,-30.6025"/>
<polygon fill="#191970" stroke="#191970" points="1414.2017,-90.3936 1424.2731,-87.1047 1414.3489,-83.3952 1414.2017,-90.3936"/>
</g>
<!-- Node11&#45;&gt;Node15 -->
<g id="edge7" class="edge">
<title>Node11&#45;&gt;Node15</title>
<path fill="none" stroke="#191970" d="M1414.3276,-86.5706C1255.0985,-82.2119 799.8438,-67.7892 653,-42 638.379,-39.4322 622.501,-34.8251 609.5691,-30.5791"/>
<polygon fill="#191970" stroke="#191970" points="1414.29,-90.0708 1424.3813,-86.8432 1414.4798,-83.0734 1414.29,-90.0708"/>
</g>
<!-- Node11&#45;&gt;Node16 -->
<g id="edge8" class="edge">
<title>Node11&#45;&gt;Node16</title>
<path fill="none" stroke="#191970" d="M1414.4328,-86.7006C1269.378,-82.9437 881.8962,-70.4703 757,-42 750.6399,-40.5502 744.0471,-38.4209 737.779,-36.067"/>
<polygon fill="#191970" stroke="#191970" points="1414.3648,-90.1999 1424.4509,-86.9561 1414.5434,-83.2022 1414.3648,-90.1999"/>
</g>
<!-- Node11&#45;&gt;Node17 -->
<g id="edge9" class="edge">
<title>Node11&#45;&gt;Node17</title>
<path fill="none" stroke="#191970" d="M1413.9623,-85.2515C1288.2389,-78.8135 986.8974,-61.7946 887,-42 879.3223,-40.4787 871.283,-38.346 863.579,-36.0182"/>
<polygon fill="#191970" stroke="#191970" points="1413.9758,-88.7566 1424.1407,-85.7692 1414.3314,-81.7657 1413.9758,-88.7566"/>
</g>
<!-- Node11&#45;&gt;Node18 -->
<g id="edge10" class="edge">
<title>Node11&#45;&gt;Node18</title>
<path fill="none" stroke="#191970" d="M1414.104,-86.1188C1327.9932,-82.3719 1158.0661,-71.6022 1017,-42 1009.572,-40.4413 1001.7955,-38.3494 994.309,-36.0884"/>
<polygon fill="#191970" stroke="#191970" points="1414.0442,-89.6193 1424.1822,-86.5417 1414.3378,-82.6254 1414.0442,-89.6193"/>
</g>
<!-- Node11&#45;&gt;Node19 -->
<g id="edge11" class="edge">
<title>Node11&#45;&gt;Node19</title>
<path fill="none" stroke="#191970" d="M1414.3456,-82.9952C1349.5525,-76.4974 1239.5937,-63.3852 1147,-42 1139.836,-40.3454 1132.3295,-38.2605 1125.0666,-36.0508"/>
<polygon fill="#191970" stroke="#191970" points="1414.0519,-86.4831 1424.3471,-83.9815 1414.7389,-79.5169 1414.0519,-86.4831"/>
</g>
<!-- Node11&#45;&gt;Node20 -->
<g id="edge12" class="edge">
<title>Node11&#45;&gt;Node20</title>
<path fill="none" stroke="#191970" d="M1415.6247,-76.2387C1376.795,-67.5486 1323.4315,-55.0121 1277,-42 1270.4911,-40.1759 1263.6583,-38.123 1256.9684,-36.0337"/>
<polygon fill="#191970" stroke="#191970" points="1415.1494,-79.7184 1425.6709,-78.4738 1416.6697,-72.8855 1415.1494,-79.7184"/>
</g>
<!-- Node11&#45;&gt;Node21 -->
<g id="edge13" class="edge">
<title>Node11&#45;&gt;Node21</title>
<path fill="none" stroke="#191970" d="M1443.3511,-73.4839C1423.0283,-62.4138 1395.1262,-47.2151 1374.5773,-36.0218"/>
<polygon fill="#191970" stroke="#191970" points="1441.9212,-76.6906 1452.3771,-78.4005 1445.2697,-70.5434 1441.9212,-76.6906"/>
</g>
<!-- Node11&#45;&gt;Node22 -->
<g id="edge14" class="edge">
<title>Node11&#45;&gt;Node22</title>
<path fill="none" stroke="#191970" d="M1475.5003,-68.6042C1478.4426,-58.2287 1482.0111,-45.645 1484.7401,-36.0218"/>
<polygon fill="#191970" stroke="#191970" points="1472.0833,-67.825 1472.7222,-78.4005 1478.8178,-69.7348 1472.0833,-67.825"/>
</g>
<!-- Node11&#45;&gt;Node23 -->
<g id="edge15" class="edge">
<title>Node11&#45;&gt;Node23</title>
<path fill="none" stroke="#191970" d="M1501.5397,-74.4541C1523.4696,-65.0355 1553.1086,-52.3059 1577.9619,-41.6318"/>
<polygon fill="#191970" stroke="#191970" points="1500.1582,-71.2382 1492.351,-78.4005 1502.9206,-77.6701 1500.1582,-71.2382"/>
</g>
<!-- Node11&#45;&gt;Node24 -->
<g id="edge16" class="edge">
<title>Node11&#45;&gt;Node24</title>
<path fill="none" stroke="#191970" d="M1525.4633,-78.1644C1570.3938,-69.7878 1635.1748,-56.7822 1691,-42 1693.866,-41.2411 1696.7921,-40.4302 1699.7393,-39.5846"/>
<polygon fill="#191970" stroke="#191970" points="1524.8189,-74.7241 1515.6221,-79.9843 1526.0919,-81.6074 1524.8189,-74.7241"/>
</g>
<!-- Node11&#45;&gt;Node25 -->
<g id="edge17" class="edge">
<title>Node11&#45;&gt;Node25</title>
<path fill="none" stroke="#191970" d="M1526.0347,-82.9163C1595.6235,-76.0852 1717.7717,-62.3953 1821,-42 1836.5931,-38.9192 1853.6634,-34.5145 1867.9336,-30.5341"/>
<polygon fill="#191970" stroke="#191970" points="1525.3585,-79.4653 1515.7429,-83.914 1526.034,-86.4327 1525.3585,-79.4653"/>
</g>
<!-- Node11&#45;&gt;Node26 -->
<g id="edge18" class="edge">
<title>Node11&#45;&gt;Node26</title>
<path fill="none" stroke="#191970" d="M1525.6395,-85.9361C1619.5133,-81.7916 1815.0636,-70.303 1978,-42 1994.3169,-39.1657 2012.1641,-34.6913 2026.943,-30.5996"/>
<polygon fill="#191970" stroke="#191970" points="1525.3582,-82.4449 1515.518,-86.3718 1525.6593,-89.4384 1525.3582,-82.4449"/>
</g>
<!-- Node11&#45;&gt;Node27 -->
<g id="edge19" class="edge">
<title>Node11&#45;&gt;Node27</title>
<path fill="none" stroke="#191970" d="M1526.0119,-87.0037C1641.3141,-84.326 1913.3185,-74.7761 2139,-42 2149.7563,-40.4378 2161.1104,-38.3151 2172.0654,-36.0172"/>
<polygon fill="#191970" stroke="#191970" points="1525.5967,-83.512 1515.6775,-87.2349 1525.7533,-90.5103 1525.5967,-83.512"/>
</g>
<!-- Node11&#45;&gt;Node28 -->
<g id="edge20" class="edge">
<title>Node11&#45;&gt;Node28</title>
<path fill="none" stroke="#191970" d="M1526.0916,-87.1295C1690.9879,-84.2314 2172.2303,-73.2565 2326,-42 2333.0313,-40.5708 2340.355,-38.4512 2347.3364,-36.1006"/>
<polygon fill="#191970" stroke="#191970" points="1525.6326,-83.6368 1515.6945,-87.3088 1525.7534,-90.6357 1525.6326,-83.6368"/>
</g>
<!-- Node11&#45;&gt;Node29 -->
<g id="edge21" class="edge">
<title>Node11&#45;&gt;Node29</title>
<path fill="none" stroke="#191970" d="M1525.7981,-87.1444C1704.7754,-84.1189 2263.1182,-72.4243 2441,-42 2449.3792,-40.5668 2458.1672,-38.4454 2466.576,-36.0942"/>
<polygon fill="#191970" stroke="#191970" points="1525.5001,-83.6487 1515.5599,-87.3149 1525.6168,-90.6478 1525.5001,-83.6487"/>
</g>
<!-- Node11&#45;&gt;Node30 -->
<g id="edge22" class="edge">
<title>Node11&#45;&gt;Node30</title>
<path fill="none" stroke="#191970" d="M1525.8009,-87.8206C1721.3125,-86.8595 2374.6002,-80.7545 2580,-42 2583.1918,-41.3978 2586.4432,-40.6625 2589.6998,-39.8321"/>
<polygon fill="#191970" stroke="#191970" points="1525.7346,-84.3208 1515.7511,-87.8674 1525.7673,-91.3207 1525.7346,-84.3208"/>
</g>
<!-- Node11&#45;&gt;Node31 -->
<g id="edge23" class="edge">
<title>Node11&#45;&gt;Node31</title>
<path fill="none" stroke="#191970" d="M1525.7376,-87.4746C1734.4177,-85.2654 2469.4,-75.2474 2701,-42 2711.0048,-40.5638 2721.5508,-38.4088 2731.6445,-36.0184"/>
<polygon fill="#191970" stroke="#191970" points="1525.5868,-83.9759 1515.6239,-87.5799 1525.6598,-90.9755 1525.5868,-83.9759"/>
</g>
<!-- Node11&#45;&gt;Node32 -->
<g id="edge24" class="edge">
<title>Node11&#45;&gt;Node32</title>
<path fill="none" stroke="#191970" d="M1525.6433,-87.0716C1768.9892,-82.8891 2733.4262,-64.9955 2867,-42 2875.058,-40.6128 2883.492,-38.4808 2891.5336,-36.0976"/>
<polygon fill="#191970" stroke="#191970" points="1525.5469,-83.5727 1515.6083,-87.2434 1525.6668,-90.5717 1525.5469,-83.5727"/>
</g>
<!-- Node11&#45;&gt;Node33 -->
<g id="edge25" class="edge">
<title>Node11&#45;&gt;Node33</title>
<path fill="none" stroke="#191970" d="M1525.7565,-87.2398C1783.3346,-83.6042 2851.8226,-67.1223 2999,-42 3007.1785,-40.604 3015.743,-38.4349 3023.8913,-36.0109"/>
<polygon fill="#191970" stroke="#191970" points="1525.4672,-83.7435 1515.5173,-87.3836 1525.5655,-90.7428 1525.4672,-83.7435"/>
</g>
</g>
</svg>
