<?xml version="1.0" encoding="UTF-8" standalone="no"?>
<!DOCTYPE svg PUBLIC "-//W3C//DTD SVG 1.1//EN"
 "http://www.w3.org/Graphics/SVG/1.1/DTD/svg11.dtd">
<!-- Generated by graphviz version 2.40.1 (20161225.0304)
 -->
<!-- Title: zheevh3&#45;C&#45;1.1/zheevh3.c Pages: 1 -->
<svg width="460pt" height="140pt"
 viewBox="0.00 0.00 460.00 140.00" xmlns="http://www.w3.org/2000/svg" xmlns:xlink="http://www.w3.org/1999/xlink">
<g id="graph0" class="graph" transform="scale(1 1) rotate(0) translate(4 136)">
<title>zheevh3&#45;C&#45;1.1/zheevh3.c</title>
<polygon fill="#ffffff" stroke="transparent" points="-4,4 -4,-136 456,-136 456,4 -4,4"/>
<!-- Node0 -->
<g id="node1" class="node">
<title>Node0</title>
<polygon fill="#bfbfbf" stroke="#000000" points="126,-112.5 126,-131.5 254,-131.5 254,-112.5 126,-112.5"/>
<text text-anchor="middle" x="190" y="-119.5" font-family="Helvetica,sans-Serif" font-size="10.00" fill="#000000">zheevh3&#45;C&#45;1.1/zheevh3.c</text>
</g>
<!-- Node1 -->
<g id="node2" class="node">
<title>Node1</title>
<polygon fill="#ffffff" stroke="#bfbfbf" points="0,-56.5 0,-75.5 46,-75.5 46,-56.5 0,-56.5"/>
<text text-anchor="middle" x="23" y="-63.5" font-family="Helvetica,sans-Serif" font-size="10.00" fill="#000000">stdio.h</text>
</g>
<!-- Node0&#45;&gt;Node1 -->
<g id="edge1" class="edge">
<title>Node0&#45;&gt;Node1</title>
<path fill="none" stroke="#191970" d="M161.2917,-112.3733C132.0504,-102.5678 86.7585,-87.3801 56.0421,-77.08"/>
<polygon fill="#191970" stroke="#191970" points="56.8221,-73.6501 46.2282,-73.7891 54.5965,-80.2869 56.8221,-73.6501"/>
</g>
<!-- Node2 -->
<g id="node3" class="node">
<title>Node2</title>
<polygon fill="#ffffff" stroke="#bfbfbf" points="64.5,-56.5 64.5,-75.5 111.5,-75.5 111.5,-56.5 64.5,-56.5"/>
<text text-anchor="middle" x="88" y="-63.5" font-family="Helvetica,sans-Serif" font-size="10.00" fill="#000000">math.h</text>
</g>
<!-- Node0&#45;&gt;Node2 -->
<g id="edge2" class="edge">
<title>Node0&#45;&gt;Node2</title>
<path fill="none" stroke="#191970" d="M172.233,-112.2455C156.2905,-103.4928 132.6741,-90.527 114.5011,-80.5496"/>
<polygon fill="#191970" stroke="#191970" points="116.0137,-77.3873 105.5634,-75.6427 112.6448,-83.5233 116.0137,-77.3873"/>
</g>
<!-- Node3 -->
<g id="node4" class="node">
<title>Node3</title>
<polygon fill="#ffffff" stroke="#bfbfbf" points="230,-.5 230,-19.5 292,-19.5 292,-.5 230,-.5"/>
<text text-anchor="middle" x="261" y="-7.5" font-family="Helvetica,sans-Serif" font-size="10.00" fill="#000000">complex.h</text>
</g>
<!-- Node0&#45;&gt;Node3 -->
<g id="edge3" class="edge">
<title>Node0&#45;&gt;Node3</title>
<path fill="none" stroke="#191970" d="M179.2681,-112.1753C166.0961,-98.8922 146.91,-74.7149 159,-56 172.4373,-35.1994 197.7841,-23.7082 219.8478,-17.4128"/>
<polygon fill="#191970" stroke="#191970" points="220.8909,-20.7584 229.6995,-14.8711 219.1422,-13.9803 220.8909,-20.7584"/>
</g>
<!-- Node4 -->
<g id="node5" class="node">
<title>Node4</title>
<polygon fill="#ffffff" stroke="#bfbfbf" points="168,-56.5 168,-75.5 212,-75.5 212,-56.5 168,-56.5"/>
<text text-anchor="middle" x="190" y="-63.5" font-family="Helvetica,sans-Serif" font-size="10.00" fill="#000000">float.h</text>
</g>
<!-- Node0&#45;&gt;Node4 -->
<g id="edge4" class="edge">
<title>Node0&#45;&gt;Node4</title>
<path fill="none" stroke="#191970" d="M190,-112.2455C190,-104.9382 190,-94.6944 190,-85.7046"/>
<polygon fill="#191970" stroke="#191970" points="193.5001,-85.6426 190,-75.6427 186.5001,-85.6427 193.5001,-85.6426"/>
</g>
<!-- Node5 -->
<g id="node6" class="node">
<title>Node5</title>
<g id="a_node6"><a xlink:href="$zheevc3_8h.html" xlink:title="zheevc3.h">
<polygon fill="#ffffff" stroke="#000000" points="230,-56.5 230,-75.5 292,-75.5 292,-56.5 230,-56.5"/>
<text text-anchor="middle" x="261" y="-63.5" font-family="Helvetica,sans-Serif" font-size="10.00" fill="#000000">zheevc3.h</text>
</a>
</g>
</g>
<!-- Node0&#45;&gt;Node5 -->
<g id="edge5" class="edge">
<title>Node0&#45;&gt;Node5</title>
<path fill="none" stroke="#191970" d="M202.3673,-112.2455C212.9554,-103.8943 228.4064,-91.7076 240.7893,-81.9408"/>
<polygon fill="#191970" stroke="#191970" points="243.0903,-84.5837 248.7745,-75.6427 238.7553,-79.0875 243.0903,-84.5837"/>
</g>
<!-- Node6 -->
<g id="node7" class="node">
<title>Node6</title>
<g id="a_node7"><a xlink:href="$zheevq3_8h.html" xlink:title="zheevq3.h">
<polygon fill="#ffffff" stroke="#000000" points="310,-56.5 310,-75.5 372,-75.5 372,-56.5 310,-56.5"/>
<text text-anchor="middle" x="341" y="-63.5" font-family="Helvetica,sans-Serif" font-size="10.00" fill="#000000">zheevq3.h</text>
</a>
</g>
</g>
<!-- Node0&#45;&gt;Node6 -->
<g id="edge7" class="edge">
<title>Node0&#45;&gt;Node6</title>
<path fill="none" stroke="#191970" d="M215.9578,-112.3733C240.7407,-103.1822 278.2746,-89.2624 305.754,-79.0713"/>
<polygon fill="#191970" stroke="#191970" points="307.2219,-82.26 315.3809,-75.5011 304.7879,-75.6968 307.2219,-82.26"/>
</g>
<!-- Node7 -->
<g id="node8" class="node">
<title>Node7</title>
<polygon fill="#ffffff" stroke="#bfbfbf" points="390,-56.5 390,-75.5 452,-75.5 452,-56.5 390,-56.5"/>
<text text-anchor="middle" x="421" y="-63.5" font-family="Helvetica,sans-Serif" font-size="10.00" fill="#000000">zheevv3.h</text>
</g>
<!-- Node0&#45;&gt;Node7 -->
<g id="edge9" class="edge">
<title>Node0&#45;&gt;Node7</title>
<path fill="none" stroke="#191970" d="M229.8987,-112.4969C266.4421,-103.7693 322.3007,-90.3697 379.9735,-76.2379"/>
<polygon fill="#191970" stroke="#191970" points="381.1196,-79.5606 389.9977,-73.7787 379.4517,-72.7622 381.1196,-79.5606"/>
</g>
<!-- Node5&#45;&gt;Node3 -->
<g id="edge6" class="edge">
<title>Node5&#45;&gt;Node3</title>
<path fill="none" stroke="#191970" d="M261,-56.2455C261,-48.9382 261,-38.6944 261,-29.7046"/>
<polygon fill="#191970" stroke="#191970" points="264.5001,-29.6426 261,-19.6427 257.5001,-29.6427 264.5001,-29.6426"/>
</g>
<!-- Node6&#45;&gt;Node3 -->
<g id="edge8" class="edge">
<title>Node6&#45;&gt;Node3</title>
<path fill="none" stroke="#191970" d="M327.0651,-56.2455C314.9053,-47.7337 297.0536,-35.2375 282.9715,-25.3801"/>
<polygon fill="#191970" stroke="#191970" points="284.9747,-22.51 274.7752,-19.6427 280.9605,-28.2447 284.9747,-22.51"/>
</g>
</g>
</svg>
