<?xml version="1.0" encoding="UTF-8" standalone="no"?>
<!DOCTYPE svg PUBLIC "-//W3C//DTD SVG 1.1//EN"
 "http://www.w3.org/Graphics/SVG/1.1/DTD/svg11.dtd">
<!-- Generated by graphviz version 2.40.1 (20161225.0304)
 -->
<!-- Title: zheevh3&#45;C&#45;1.1/zheevq3.cpp Pages: 1 -->
<svg width="314pt" height="140pt"
 viewBox="0.00 0.00 314.00 140.00" xmlns="http://www.w3.org/2000/svg" xmlns:xlink="http://www.w3.org/1999/xlink">
<g id="graph0" class="graph" transform="scale(1 1) rotate(0) translate(4 136)">
<title>zheevh3&#45;C&#45;1.1/zheevq3.cpp</title>
<polygon fill="#ffffff" stroke="transparent" points="-4,4 -4,-136 310,-136 310,4 -4,4"/>
<!-- Node0 -->
<g id="node1" class="node">
<title>Node0</title>
<polygon fill="#bfbfbf" stroke="#000000" points="70.5,-112.5 70.5,-131.5 209.5,-131.5 209.5,-112.5 70.5,-112.5"/>
<text text-anchor="middle" x="140" y="-119.5" font-family="Helvetica,sans-Serif" font-size="10.00" fill="#000000">zheevh3&#45;C&#45;1.1/zheevq3.cpp</text>
</g>
<!-- Node1 -->
<g id="node2" class="node">
<title>Node1</title>
<polygon fill="#ffffff" stroke="#bfbfbf" points="0,-56.5 0,-75.5 46,-75.5 46,-56.5 0,-56.5"/>
<text text-anchor="middle" x="23" y="-63.5" font-family="Helvetica,sans-Serif" font-size="10.00" fill="#000000">stdio.h</text>
</g>
<!-- Node0&#45;&gt;Node1 -->
<g id="edge1" class="edge">
<title>Node0&#45;&gt;Node1</title>
<path fill="none" stroke="#191970" d="M119.887,-112.3733C101.1897,-103.4241 73.1256,-89.9917 52.0066,-79.8835"/>
<polygon fill="#191970" stroke="#191970" points="53.3817,-76.6614 42.8506,-75.5011 50.3595,-82.9755 53.3817,-76.6614"/>
</g>
<!-- Node2 -->
<g id="node3" class="node">
<title>Node2</title>
<polygon fill="#ffffff" stroke="#bfbfbf" points="64.5,-56.5 64.5,-75.5 111.5,-75.5 111.5,-56.5 64.5,-56.5"/>
<text text-anchor="middle" x="88" y="-63.5" font-family="Helvetica,sans-Serif" font-size="10.00" fill="#000000">math.h</text>
</g>
<!-- Node0&#45;&gt;Node2 -->
<g id="edge2" class="edge">
<title>Node0&#45;&gt;Node2</title>
<path fill="none" stroke="#191970" d="M130.9423,-112.2455C123.4858,-104.2155 112.7366,-92.6394 103.8583,-83.0781"/>
<polygon fill="#191970" stroke="#191970" points="106.3232,-80.589 96.9539,-75.6427 101.1937,-85.3522 106.3232,-80.589"/>
</g>
<!-- Node3 -->
<g id="node4" class="node">
<title>Node3</title>
<polygon fill="#ffffff" stroke="#bfbfbf" points="166,-.5 166,-19.5 228,-19.5 228,-.5 166,-.5"/>
<text text-anchor="middle" x="197" y="-7.5" font-family="Helvetica,sans-Serif" font-size="10.00" fill="#000000">complex.h</text>
</g>
<!-- Node0&#45;&gt;Node3 -->
<g id="edge3" class="edge">
<title>Node0&#45;&gt;Node3</title>
<path fill="none" stroke="#191970" d="M141.7561,-112.1516C144.3974,-98.8416 150.1608,-74.6341 160,-56 165.4555,-45.6681 173.3894,-35.4161 180.5125,-27.2217"/>
<polygon fill="#191970" stroke="#191970" points="183.127,-29.5488 187.2436,-19.7864 177.9376,-24.8508 183.127,-29.5488"/>
</g>
<!-- Node4 -->
<g id="node5" class="node">
<title>Node4</title>
<g id="a_node5"><a xlink:href="zhetrd3_8h.html" target="_top" xlink:title="zhetrd3.h">
<polygon fill="#ffffff" stroke="#000000" points="168.5,-56.5 168.5,-75.5 225.5,-75.5 225.5,-56.5 168.5,-56.5"/>
<text text-anchor="middle" x="197" y="-63.5" font-family="Helvetica,sans-Serif" font-size="10.00" fill="#000000">zhetrd3.h</text>
</a>
</g>
</g>
<!-- Node0&#45;&gt;Node4 -->
<g id="edge4" class="edge">
<title>Node0&#45;&gt;Node4</title>
<path fill="none" stroke="#191970" d="M149.9286,-112.2455C158.1838,-104.1352 170.1209,-92.4075 179.9082,-82.7919"/>
<polygon fill="#191970" stroke="#191970" points="182.5046,-85.1476 187.1851,-75.6427 177.5989,-80.1542 182.5046,-85.1476"/>
</g>
<!-- Node5 -->
<g id="node6" class="node">
<title>Node5</title>
<g id="a_node6"><a xlink:href="zheevq3_8h.html" target="_top" xlink:title="zheevq3.h">
<polygon fill="#ffffff" stroke="#000000" points="244,-56.5 244,-75.5 306,-75.5 306,-56.5 244,-56.5"/>
<text text-anchor="middle" x="275" y="-63.5" font-family="Helvetica,sans-Serif" font-size="10.00" fill="#000000">zheevq3.h</text>
</a>
</g>
</g>
<!-- Node0&#45;&gt;Node5 -->
<g id="edge6" class="edge">
<title>Node0&#45;&gt;Node5</title>
<path fill="none" stroke="#191970" d="M163.2073,-112.3733C185.1699,-103.2629 218.3332,-89.5062 242.8401,-79.3404"/>
<polygon fill="#191970" stroke="#191970" points="244.1997,-82.5657 252.0955,-75.5011 241.5176,-76.0999 244.1997,-82.5657"/>
</g>
<!-- Node4&#45;&gt;Node3 -->
<g id="edge5" class="edge">
<title>Node4&#45;&gt;Node3</title>
<path fill="none" stroke="#191970" d="M197,-56.2455C197,-48.9382 197,-38.6944 197,-29.7046"/>
<polygon fill="#191970" stroke="#191970" points="200.5001,-29.6426 197,-19.6427 193.5001,-29.6427 200.5001,-29.6426"/>
</g>
<!-- Node5&#45;&gt;Node3 -->
<g id="edge7" class="edge">
<title>Node5&#45;&gt;Node3</title>
<path fill="none" stroke="#191970" d="M261.4134,-56.2455C249.6695,-47.814 232.4801,-35.4729 218.8118,-25.6598"/>
<polygon fill="#191970" stroke="#191970" points="220.5954,-22.6316 210.4309,-19.6427 216.5129,-28.3179 220.5954,-22.6316"/>
</g>
</g>
</svg>
