<?xml version="1.0" encoding="UTF-8" standalone="no"?>
<!DOCTYPE svg PUBLIC "-//W3C//DTD SVG 1.1//EN"
 "http://www.w3.org/Graphics/SVG/1.1/DTD/svg11.dtd">
<!-- Generated by graphviz version 2.40.1 (20161225.0304)
 -->
<!-- Title: zheevh3&#45;C&#45;1.1/zheevh3.cpp Pages: 1 -->
<svg width="380pt" height="140pt"
 viewBox="0.00 0.00 380.00 140.00" xmlns="http://www.w3.org/2000/svg" xmlns:xlink="http://www.w3.org/1999/xlink">
<g id="graph0" class="graph" transform="scale(1 1) rotate(0) translate(4 136)">
<title>zheevh3&#45;C&#45;1.1/zheevh3.cpp</title>
<polygon fill="#ffffff" stroke="transparent" points="-4,4 -4,-136 376,-136 376,4 -4,4"/>
<!-- Node0 -->
<g id="node1" class="node">
<title>Node0</title>
<polygon fill="#bfbfbf" stroke="#000000" points="95.5,-112.5 95.5,-131.5 234.5,-131.5 234.5,-112.5 95.5,-112.5"/>
<text text-anchor="middle" x="165" y="-119.5" font-family="Helvetica,sans-Serif" font-size="10.00" fill="#000000">zheevh3&#45;C&#45;1.1/zheevh3.cpp</text>
</g>
<!-- Node1 -->
<g id="node2" class="node">
<title>Node1</title>
<polygon fill="#ffffff" stroke="#bfbfbf" points="0,-56.5 0,-75.5 46,-75.5 46,-56.5 0,-56.5"/>
<text text-anchor="middle" x="23" y="-63.5" font-family="Helvetica,sans-Serif" font-size="10.00" fill="#000000">stdio.h</text>
</g>
<!-- Node0&#45;&gt;Node1 -->
<g id="edge1" class="edge">
<title>Node0&#45;&gt;Node1</title>
<path fill="none" stroke="#191970" d="M140.5893,-112.3733C117.1045,-103.1116 81.4438,-89.0482 55.5513,-78.8371"/>
<polygon fill="#191970" stroke="#191970" points="56.7386,-75.5431 46.1518,-75.1303 54.1705,-82.055 56.7386,-75.5431"/>
</g>
<!-- Node2 -->
<g id="node3" class="node">
<title>Node2</title>
<polygon fill="#ffffff" stroke="#bfbfbf" points="64.5,-56.5 64.5,-75.5 111.5,-75.5 111.5,-56.5 64.5,-56.5"/>
<text text-anchor="middle" x="88" y="-63.5" font-family="Helvetica,sans-Serif" font-size="10.00" fill="#000000">math.h</text>
</g>
<!-- Node0&#45;&gt;Node2 -->
<g id="edge2" class="edge">
<title>Node0&#45;&gt;Node2</title>
<path fill="none" stroke="#191970" d="M151.5876,-112.2455C139.9943,-103.814 123.0252,-91.4729 109.5322,-81.6598"/>
<polygon fill="#191970" stroke="#191970" points="111.4047,-78.6938 101.2587,-75.6427 107.2874,-84.355 111.4047,-78.6938"/>
</g>
<!-- Node3 -->
<g id="node4" class="node">
<title>Node3</title>
<polygon fill="#ffffff" stroke="#bfbfbf" points="230,-.5 230,-19.5 292,-19.5 292,-.5 230,-.5"/>
<text text-anchor="middle" x="261" y="-7.5" font-family="Helvetica,sans-Serif" font-size="10.00" fill="#000000">complex.h</text>
</g>
<!-- Node0&#45;&gt;Node3 -->
<g id="edge3" class="edge">
<title>Node0&#45;&gt;Node3</title>
<path fill="none" stroke="#191970" d="M160.5734,-112.1434C155.1288,-98.3912 147.887,-73.2026 159,-56 172.4373,-35.1994 197.7841,-23.7082 219.8478,-17.4128"/>
<polygon fill="#191970" stroke="#191970" points="220.8909,-20.7584 229.6995,-14.8711 219.1422,-13.9803 220.8909,-20.7584"/>
</g>
<!-- Node4 -->
<g id="node5" class="node">
<title>Node4</title>
<polygon fill="#ffffff" stroke="#bfbfbf" points="168,-56.5 168,-75.5 212,-75.5 212,-56.5 168,-56.5"/>
<text text-anchor="middle" x="190" y="-63.5" font-family="Helvetica,sans-Serif" font-size="10.00" fill="#000000">float.h</text>
</g>
<!-- Node0&#45;&gt;Node4 -->
<g id="edge4" class="edge">
<title>Node0&#45;&gt;Node4</title>
<path fill="none" stroke="#191970" d="M169.3547,-112.2455C172.7244,-104.6973 177.493,-94.0158 181.5983,-84.8197"/>
<polygon fill="#191970" stroke="#191970" points="184.8147,-86.2009 185.6952,-75.6427 178.4227,-83.3473 184.8147,-86.2009"/>
</g>
<!-- Node5 -->
<g id="node6" class="node">
<title>Node5</title>
<g id="a_node6"><a xlink:href="$zheevc3_8h.html" xlink:title="zheevc3.h">
<polygon fill="#ffffff" stroke="#000000" points="230,-56.5 230,-75.5 292,-75.5 292,-56.5 230,-56.5"/>
<text text-anchor="middle" x="261" y="-63.5" font-family="Helvetica,sans-Serif" font-size="10.00" fill="#000000">zheevc3.h</text>
</a>
</g>
</g>
<!-- Node0&#45;&gt;Node5 -->
<g id="edge5" class="edge">
<title>Node0&#45;&gt;Node5</title>
<path fill="none" stroke="#191970" d="M181.7219,-112.2455C196.5889,-103.5731 218.5466,-90.7645 235.5858,-80.825"/>
<polygon fill="#191970" stroke="#191970" points="237.5955,-83.7047 244.4697,-75.6427 234.0683,-77.6582 237.5955,-83.7047"/>
</g>
<!-- Node6 -->
<g id="node7" class="node">
<title>Node6</title>
<g id="a_node7"><a xlink:href="$zheevq3_8h.html" xlink:title="zheevq3.h">
<polygon fill="#ffffff" stroke="#000000" points="310,-56.5 310,-75.5 372,-75.5 372,-56.5 310,-56.5"/>
<text text-anchor="middle" x="341" y="-63.5" font-family="Helvetica,sans-Serif" font-size="10.00" fill="#000000">zheevq3.h</text>
</a>
</g>
</g>
<!-- Node0&#45;&gt;Node6 -->
<g id="edge7" class="edge">
<title>Node0&#45;&gt;Node6</title>
<path fill="none" stroke="#191970" d="M195.2555,-112.3733C224.6483,-103.021 269.4292,-88.7725 301.5934,-78.5385"/>
<polygon fill="#191970" stroke="#191970" points="302.6713,-81.8685 311.1393,-75.5011 300.5488,-75.198 302.6713,-81.8685"/>
</g>
<!-- Node5&#45;&gt;Node3 -->
<g id="edge6" class="edge">
<title>Node5&#45;&gt;Node3</title>
<path fill="none" stroke="#191970" d="M261,-56.2455C261,-48.9382 261,-38.6944 261,-29.7046"/>
<polygon fill="#191970" stroke="#191970" points="264.5001,-29.6426 261,-19.6427 257.5001,-29.6427 264.5001,-29.6426"/>
</g>
<!-- Node6&#45;&gt;Node3 -->
<g id="edge8" class="edge">
<title>Node6&#45;&gt;Node3</title>
<path fill="none" stroke="#191970" d="M327.0651,-56.2455C314.9053,-47.7337 297.0536,-35.2375 282.9715,-25.3801"/>
<polygon fill="#191970" stroke="#191970" points="284.9747,-22.51 274.7752,-19.6427 280.9605,-28.2447 284.9747,-22.51"/>
</g>
</g>
</svg>
