<?xml version="1.0" encoding="UTF-8" standalone="no"?>
<!DOCTYPE svg PUBLIC "-//W3C//DTD SVG 1.1//EN"
 "http://www.w3.org/Graphics/SVG/1.1/DTD/svg11.dtd">
<!-- Generated by graphviz version 2.40.1 (20161225.0304)
 -->
<!-- Title: zheevh3 Pages: 1 -->
<svg width="235pt" height="66pt"
 viewBox="0.00 0.00 235.00 66.00" xmlns="http://www.w3.org/2000/svg" xmlns:xlink="http://www.w3.org/1999/xlink">
<g id="graph0" class="graph" transform="scale(1 1) rotate(0) translate(4 62)">
<title>zheevh3</title>
<polygon fill="#ffffff" stroke="transparent" points="-4,4 -4,-62 231,-62 231,4 -4,4"/>
<!-- Node0 -->
<g id="node1" class="node">
<title>Node0</title>
<polygon fill="#bfbfbf" stroke="#000000" points="0,-19.5 0,-38.5 53,-38.5 53,-19.5 0,-19.5"/>
<text text-anchor="middle" x="26.5" y="-26.5" font-family="Helvetica,sans-Serif" font-size="10.00" fill="#000000">zheevh3</text>
</g>
<!-- Node1 -->
<g id="node2" class="node">
<title>Node1</title>
<g id="a_node2"><a xlink:href="$zheevc3_8c.html#ab0c3602a614a9b3c61afb58b183f58ff" xlink:title="zheevc3">
<polygon fill="#ffffff" stroke="#000000" points="89,-38.5 89,-57.5 142,-57.5 142,-38.5 89,-38.5"/>
<text text-anchor="middle" x="115.5" y="-45.5" font-family="Helvetica,sans-Serif" font-size="10.00" fill="#000000">zheevc3</text>
</a>
</g>
</g>
<!-- Node0&#45;&gt;Node1 -->
<g id="edge1" class="edge">
<title>Node0&#45;&gt;Node1</title>
<path fill="none" stroke="#191970" d="M53.2029,-34.7006C61.2993,-36.4291 70.3367,-38.3584 78.9616,-40.1997"/>
<polygon fill="#191970" stroke="#191970" points="78.3055,-43.6384 88.8159,-42.3034 79.767,-36.7927 78.3055,-43.6384"/>
</g>
<!-- Node2 -->
<g id="node3" class="node">
<title>Node2</title>
<g id="a_node3"><a xlink:href="$zheevq3_8c.html#a366e69621f4accef15af90601590718c" xlink:title="zheevq3">
<polygon fill="#ffffff" stroke="#000000" points="89,-.5 89,-19.5 142,-19.5 142,-.5 89,-.5"/>
<text text-anchor="middle" x="115.5" y="-7.5" font-family="Helvetica,sans-Serif" font-size="10.00" fill="#000000">zheevq3</text>
</a>
</g>
</g>
<!-- Node0&#45;&gt;Node2 -->
<g id="edge2" class="edge">
<title>Node0&#45;&gt;Node2</title>
<path fill="none" stroke="#191970" d="M53.2029,-23.2994C61.2993,-21.5709 70.3367,-19.6416 78.9616,-17.8003"/>
<polygon fill="#191970" stroke="#191970" points="79.767,-21.2073 88.8159,-15.6966 78.3055,-14.3616 79.767,-21.2073"/>
</g>
<!-- Node3 -->
<g id="node4" class="node">
<title>Node3</title>
<g id="a_node4"><a xlink:href="$zhetrd3_8c.html#a05eb839b1245d01d2e98e7de084eb9ee" xlink:title="zhetrd3">
<polygon fill="#ffffff" stroke="#000000" points="178,-.5 178,-19.5 227,-19.5 227,-.5 178,-.5"/>
<text text-anchor="middle" x="202.5" y="-7.5" font-family="Helvetica,sans-Serif" font-size="10.00" fill="#000000">zhetrd3</text>
</a>
</g>
</g>
<!-- Node2&#45;&gt;Node3 -->
<g id="edge3" class="edge">
<title>Node2&#45;&gt;Node3</title>
<path fill="none" stroke="#191970" d="M142.0756,-10C150.1756,-10 159.2031,-10 167.759,-10"/>
<polygon fill="#191970" stroke="#191970" points="167.8674,-13.5001 177.8673,-10 167.8673,-6.5001 167.8674,-13.5001"/>
</g>
</g>
</svg>
