<?xml version="1.0" encoding="UTF-8" standalone="no"?>
<!DOCTYPE svg PUBLIC "-//W3C//DTD SVG 1.1//EN"
 "http://www.w3.org/Graphics/SVG/1.1/DTD/svg11.dtd">
<!-- Generated by graphviz version 2.40.1 (20161225.0304)
 -->
<!-- Title: function_zheevh3 Pages: 1 -->
<svg width="492pt" height="142pt"
 viewBox="0.00 0.00 492.00 142.00" xmlns="http://www.w3.org/2000/svg" xmlns:xlink="http://www.w3.org/1999/xlink">
<g id="graph0" class="graph" transform="scale(1 1) rotate(0) translate(4 138)">
<title>function_zheevh3</title>
<polygon fill="#ffffff" stroke="transparent" points="-4,4 -4,-138 488,-138 488,4 -4,4"/>
<!-- Node4 -->
<g id="node1" class="node">
<title>Node4</title>
<polygon fill="#bfbfbf" stroke="#000000" points="0,-38.5 0,-57.5 93,-57.5 93,-38.5 0,-38.5"/>
<text text-anchor="middle" x="46.5" y="-45.5" font-family="Helvetica,sans-Serif" font-size="10.00" fill="#000000">function_zheevh3</text>
</g>
<!-- Node5 -->
<g id="node2" class="node">
<title>Node5</title>
<g id="a_node2"><a xlink:href="classsu3__matrix.html#aedf511a4b74bf6f2a4a5ba681c1df72e" target="_top" xlink:title="su3_matrix::exponentiate">
<polygon fill="#ffffff" stroke="#000000" points="129,-57.5 129,-76.5 255,-76.5 255,-57.5 129,-57.5"/>
<text text-anchor="middle" x="192" y="-64.5" font-family="Helvetica,sans-Serif" font-size="10.00" fill="#000000">su3_matrix::exponentiate</text>
</a>
</g>
</g>
<!-- Node4&#45;&gt;Node5 -->
<g id="edge1" class="edge">
<title>Node4&#45;&gt;Node5</title>
<path fill="none" stroke="#191970" d="M103.3445,-55.423C111.6934,-56.5132 120.3361,-57.6418 128.8032,-58.7475"/>
<polygon fill="#191970" stroke="#191970" points="103.7071,-51.9407 93.338,-54.1163 102.8006,-58.8818 103.7071,-51.9407"/>
</g>
<!-- Node11 -->
<g id="node8" class="node">
<title>Node11</title>
<g id="a_node8"><a xlink:href="classsu3__matrix.html#ae0bc960763b5576f3172dca81b45af1a" target="_top" xlink:title="su3_matrix::zheevh3">
<polygon fill="#ffffff" stroke="#000000" points="138.5,-19.5 138.5,-38.5 245.5,-38.5 245.5,-19.5 138.5,-19.5"/>
<text text-anchor="middle" x="192" y="-26.5" font-family="Helvetica,sans-Serif" font-size="10.00" fill="#000000">su3_matrix::zheevh3</text>
</a>
</g>
</g>
<!-- Node4&#45;&gt;Node11 -->
<g id="edge8" class="edge">
<title>Node4&#45;&gt;Node11</title>
<path fill="none" stroke="#191970" d="M103.3141,-40.581C114.8671,-39.0723 126.9838,-37.4901 138.4201,-35.9967"/>
<polygon fill="#191970" stroke="#191970" points="102.8006,-37.1182 93.338,-41.8837 103.7071,-44.0593 102.8006,-37.1182"/>
</g>
<!-- Node6 -->
<g id="node3" class="node">
<title>Node6</title>
<g id="a_node3"><a xlink:href="classlfield.html#ad794d8e7e1cb4685d665e0b474f8901b" target="_top" xlink:title="Overloaded multiplication and assignement operator. ">
<polygon fill="#ffffff" stroke="#000000" points="306.5,-114.5 306.5,-133.5 394.5,-133.5 394.5,-114.5 306.5,-114.5"/>
<text text-anchor="middle" x="350.5" y="-121.5" font-family="Helvetica,sans-Serif" font-size="10.00" fill="#000000">lfield::operator*=</text>
</a>
</g>
</g>
<!-- Node5&#45;&gt;Node6 -->
<g id="edge2" class="edge">
<title>Node5&#45;&gt;Node6</title>
<path fill="none" stroke="#191970" d="M225.3288,-80.3409C244.4486,-87.8561 268.9608,-97.2586 291,-105 300.2078,-108.2343 310.2954,-111.5428 319.5061,-114.4736"/>
<polygon fill="#191970" stroke="#191970" points="226.4502,-77.0207 215.8636,-76.6017 223.8782,-83.5311 226.4502,-77.0207"/>
</g>
<!-- Node7 -->
<g id="node4" class="node">
<title>Node7</title>
<g id="a_node4"><a xlink:href="classlfield.html#a8299544558cca4ccb188039e6d868aee" target="_top" xlink:title="Function to exponentiate elements of the Lie algebra to obtain Lie group elements. ">
<polygon fill="#ffffff" stroke="#000000" points="301.5,-76.5 301.5,-95.5 399.5,-95.5 399.5,-76.5 301.5,-76.5"/>
<text text-anchor="middle" x="350.5" y="-83.5" font-family="Helvetica,sans-Serif" font-size="10.00" fill="#000000">lfield::exponentiate</text>
</a>
</g>
</g>
<!-- Node5&#45;&gt;Node7 -->
<g id="edge3" class="edge">
<title>Node5&#45;&gt;Node7</title>
<path fill="none" stroke="#191970" d="M265.279,-75.7842C277.4819,-77.247 289.8747,-78.7326 301.2912,-80.1012"/>
<polygon fill="#191970" stroke="#191970" points="265.4443,-72.2791 255.0988,-74.5639 264.6111,-79.2293 265.4443,-72.2791"/>
</g>
<!-- Node9 -->
<g id="node6" class="node">
<title>Node9</title>
<g id="a_node6"><a xlink:href="field_8h.html#aea30ef7d1293ae1aa73d254f8eaef4c7" target="_top" xlink:title="Main method for the advance of the Wilson lines in rapidity according to the Langevin equation...">
<polygon fill="#ffffff" stroke="#000000" points="321,-38.5 321,-57.5 380,-57.5 380,-38.5 321,-38.5"/>
<text text-anchor="middle" x="350.5" y="-45.5" font-family="Helvetica,sans-Serif" font-size="10.00" fill="#000000">update_uf</text>
</a>
</g>
</g>
<!-- Node5&#45;&gt;Node9 -->
<g id="edge5" class="edge">
<title>Node5&#45;&gt;Node9</title>
<path fill="none" stroke="#191970" d="M265.2667,-58.2172C284.8446,-55.8704 304.9123,-53.4648 320.6539,-51.5778"/>
<polygon fill="#191970" stroke="#191970" points="264.6111,-54.7707 255.0988,-59.4361 265.4443,-61.7209 264.6111,-54.7707"/>
</g>
<!-- Node10 -->
<g id="node7" class="node">
<title>Node10</title>
<g id="a_node7"><a xlink:href="classsu3__matrix.html#aa149493632baf4843bb12be0f954fda7" target="_top" xlink:title="su3_matrix::su3_matrix">
<polygon fill="#ffffff" stroke="#000000" points="291,-.5 291,-19.5 410,-19.5 410,-.5 291,-.5"/>
<text text-anchor="middle" x="350.5" y="-7.5" font-family="Helvetica,sans-Serif" font-size="10.00" fill="#000000">su3_matrix::su3_matrix</text>
</a>
</g>
</g>
<!-- Node5&#45;&gt;Node10 -->
<g id="edge7" class="edge">
<title>Node5&#45;&gt;Node10</title>
<path fill="none" stroke="#191970" d="M237.8246,-54.3159C243.6659,-52.3681 249.5155,-50.2497 255,-48 271.7382,-41.134 274.3179,-36.0012 291,-29 299.2991,-25.517 308.4712,-22.2953 317.0779,-19.5316"/>
<polygon fill="#191970" stroke="#191970" points="236.5326,-51.0542 228.0679,-57.4259 238.6585,-57.7235 236.5326,-51.0542"/>
</g>
<!-- Node8 -->
<g id="node5" class="node">
<title>Node8</title>
<g id="a_node5"><a xlink:href="main__explicit_8cpp.html#a0ddf1224851353fc92bfbff6f499fa97" target="_top" xlink:title="main">
<polygon fill="#ffffff" stroke="#000000" points="446,-57.5 446,-76.5 484,-76.5 484,-57.5 446,-57.5"/>
<text text-anchor="middle" x="465" y="-64.5" font-family="Helvetica,sans-Serif" font-size="10.00" fill="#000000">main</text>
</a>
</g>
</g>
<!-- Node7&#45;&gt;Node8 -->
<g id="edge4" class="edge">
<title>Node7&#45;&gt;Node8</title>
<path fill="none" stroke="#191970" d="M409.6854,-76.1788C422.738,-74.0129 435.6563,-71.8693 445.7223,-70.1989"/>
<polygon fill="#191970" stroke="#191970" points="409.0149,-72.7422 399.7228,-77.832 410.1609,-79.6477 409.0149,-72.7422"/>
</g>
<!-- Node9&#45;&gt;Node8 -->
<g id="edge6" class="edge">
<title>Node9&#45;&gt;Node8</title>
<path fill="none" stroke="#191970" d="M390.3756,-54.6169C409.1547,-57.7331 430.689,-61.3065 445.7828,-63.8111"/>
<polygon fill="#191970" stroke="#191970" points="390.7227,-51.1267 380.2846,-52.9424 389.5767,-58.0323 390.7227,-51.1267"/>
</g>
</g>
</svg>
