<?xml version="1.0" encoding="UTF-8" standalone="no"?>
<!DOCTYPE svg PUBLIC "-//W3C//DTD SVG 1.1//EN"
 "http://www.w3.org/Graphics/SVG/1.1/DTD/svg11.dtd">
<!-- Generated by graphviz version 2.40.1 (20161225.0304)
 -->
<!-- Title: zheevh3&#45;C&#45;1.1/zheevc3.c Pages: 1 -->
<svg width="238pt" height="140pt"
 viewBox="0.00 0.00 238.00 140.00" xmlns="http://www.w3.org/2000/svg" xmlns:xlink="http://www.w3.org/1999/xlink">
<g id="graph0" class="graph" transform="scale(1 1) rotate(0) translate(4 136)">
<title>zheevh3&#45;C&#45;1.1/zheevc3.c</title>
<polygon fill="#ffffff" stroke="transparent" points="-4,4 -4,-136 234,-136 234,4 -4,4"/>
<!-- Node0 -->
<g id="node1" class="node">
<title>Node0</title>
<polygon fill="#bfbfbf" stroke="#000000" points="50,-112.5 50,-131.5 178,-131.5 178,-112.5 50,-112.5"/>
<text text-anchor="middle" x="114" y="-119.5" font-family="Helvetica,sans-Serif" font-size="10.00" fill="#000000">zheevh3&#45;C&#45;1.1/zheevc3.c</text>
</g>
<!-- Node1 -->
<g id="node2" class="node">
<title>Node1</title>
<polygon fill="#ffffff" stroke="#bfbfbf" points="0,-56.5 0,-75.5 46,-75.5 46,-56.5 0,-56.5"/>
<text text-anchor="middle" x="23" y="-63.5" font-family="Helvetica,sans-Serif" font-size="10.00" fill="#000000">stdio.h</text>
</g>
<!-- Node0&#45;&gt;Node1 -->
<g id="edge1" class="edge">
<title>Node0&#45;&gt;Node1</title>
<path fill="none" stroke="#191970" d="M98.149,-112.2455C84.1868,-103.6534 63.6272,-91.0014 47.5404,-81.1018"/>
<polygon fill="#191970" stroke="#191970" points="49.0203,-77.9029 38.6693,-75.6427 45.3516,-83.8645 49.0203,-77.9029"/>
</g>
<!-- Node2 -->
<g id="node3" class="node">
<title>Node2</title>
<polygon fill="#ffffff" stroke="#bfbfbf" points="64.5,-56.5 64.5,-75.5 111.5,-75.5 111.5,-56.5 64.5,-56.5"/>
<text text-anchor="middle" x="88" y="-63.5" font-family="Helvetica,sans-Serif" font-size="10.00" fill="#000000">math.h</text>
</g>
<!-- Node0&#45;&gt;Node2 -->
<g id="edge2" class="edge">
<title>Node0&#45;&gt;Node2</title>
<path fill="none" stroke="#191970" d="M109.4711,-112.2455C105.9666,-104.6973 101.0073,-94.0158 96.7377,-84.8197"/>
<polygon fill="#191970" stroke="#191970" points="99.8627,-83.2389 92.477,-75.6427 93.5136,-86.1867 99.8627,-83.2389"/>
</g>
<!-- Node3 -->
<g id="node4" class="node">
<title>Node3</title>
<polygon fill="#ffffff" stroke="#bfbfbf" points="138,-.5 138,-19.5 200,-19.5 200,-.5 138,-.5"/>
<text text-anchor="middle" x="169" y="-7.5" font-family="Helvetica,sans-Serif" font-size="10.00" fill="#000000">complex.h</text>
</g>
<!-- Node0&#45;&gt;Node3 -->
<g id="edge3" class="edge">
<title>Node0&#45;&gt;Node3</title>
<path fill="none" stroke="#191970" d="M118.6893,-112.4509C127.7814,-93.936 147.9531,-52.8591 159.8078,-28.7187"/>
<polygon fill="#191970" stroke="#191970" points="163.0563,-30.0438 164.3226,-19.5249 156.773,-26.9582 163.0563,-30.0438"/>
</g>
<!-- Node4 -->
<g id="node5" class="node">
<title>Node4</title>
<g id="a_node5"><a xlink:href="$zheevc3_8h.html" xlink:title="zheevc3.h">
<polygon fill="#ffffff" stroke="#000000" points="168,-56.5 168,-75.5 230,-75.5 230,-56.5 168,-56.5"/>
<text text-anchor="middle" x="199" y="-63.5" font-family="Helvetica,sans-Serif" font-size="10.00" fill="#000000">zheevc3.h</text>
</a>
</g>
</g>
<!-- Node0&#45;&gt;Node4 -->
<g id="edge4" class="edge">
<title>Node0&#45;&gt;Node4</title>
<path fill="none" stroke="#191970" d="M128.8059,-112.2455C141.7256,-103.7337 160.6931,-91.2375 175.6552,-81.3801"/>
<polygon fill="#191970" stroke="#191970" points="177.9387,-84.067 184.3638,-75.6427 174.0876,-78.2216 177.9387,-84.067"/>
</g>
<!-- Node4&#45;&gt;Node3 -->
<g id="edge5" class="edge">
<title>Node4&#45;&gt;Node3</title>
<path fill="none" stroke="#191970" d="M193.7744,-56.2455C189.6877,-48.617 183.8865,-37.7881 178.925,-28.5267"/>
<polygon fill="#191970" stroke="#191970" points="181.9732,-26.8047 174.1657,-19.6427 175.8028,-30.1103 181.9732,-26.8047"/>
</g>
</g>
</svg>
