<?xml version="1.0" encoding="UTF-8" standalone="no"?>
<!DOCTYPE svg PUBLIC "-//W3C//DTD SVG 1.1//EN"
 "http://www.w3.org/Graphics/SVG/1.1/DTD/svg11.dtd">
<!-- Generated by graphviz version 2.40.1 (20161225.0304)
 -->
<!-- Title: zheevq3 Pages: 1 -->
<svg width="581pt" height="142pt"
 viewBox="0.00 0.00 581.00 142.00" xmlns="http://www.w3.org/2000/svg" xmlns:xlink="http://www.w3.org/1999/xlink">
<g id="graph0" class="graph" transform="scale(1 1) rotate(0) translate(4 138)">
<title>zheevq3</title>
<polygon fill="#ffffff" stroke="transparent" points="-4,4 -4,-138 577,-138 577,4 -4,4"/>
<!-- Node2 -->
<g id="node1" class="node">
<title>Node2</title>
<polygon fill="#bfbfbf" stroke="#000000" points="0,-19.5 0,-38.5 53,-38.5 53,-19.5 0,-19.5"/>
<text text-anchor="middle" x="26.5" y="-26.5" font-family="Helvetica,sans-Serif" font-size="10.00" fill="#000000">zheevq3</text>
</g>
<!-- Node3 -->
<g id="node2" class="node">
<title>Node3</title>
<g id="a_node2"><a xlink:href="zheevh3_8h.html#ab226771af05ad43c66ee5a218eee0bdd" target="_top" xlink:title=" Calculates the eigenvalues and normalized eigenvectors of a hermitian 3x3 matrix A using Cardano&#39;s m...">
<polygon fill="#ffffff" stroke="#000000" points="89,-38.5 89,-57.5 182,-57.5 182,-38.5 89,-38.5"/>
<text text-anchor="middle" x="135.5" y="-45.5" font-family="Helvetica,sans-Serif" font-size="10.00" fill="#000000">function_zheevh3</text>
</a>
</g>
</g>
<!-- Node2&#45;&gt;Node3 -->
<g id="edge1" class="edge">
<title>Node2&#45;&gt;Node3</title>
<path fill="none" stroke="#191970" d="M63.1607,-35.3904C71.3594,-36.8195 80.1636,-38.3542 88.7096,-39.8439"/>
<polygon fill="#191970" stroke="#191970" points="63.6169,-31.9172 53.1644,-33.6479 62.4148,-38.8132 63.6169,-31.9172"/>
</g>
<!-- Node11 -->
<g id="node10" class="node">
<title>Node11</title>
<g id="a_node10"><a xlink:href="zheevh3_8c.html#ae81794e4c790741d03e9349abe29e876" target="_top" xlink:title="zheevh3">
<polygon fill="#ffffff" stroke="#000000" points="109,-.5 109,-19.5 162,-19.5 162,-.5 109,-.5"/>
<text text-anchor="middle" x="135.5" y="-7.5" font-family="Helvetica,sans-Serif" font-size="10.00" fill="#000000">zheevh3</text>
</a>
</g>
</g>
<!-- Node2&#45;&gt;Node11 -->
<g id="edge10" class="edge">
<title>Node2&#45;&gt;Node11</title>
<path fill="none" stroke="#191970" d="M63.1157,-22.6174C78.0473,-20.0147 94.9932,-17.0608 108.7331,-14.6658"/>
<polygon fill="#191970" stroke="#191970" points="62.4148,-19.1868 53.1644,-24.3521 63.6169,-26.0828 62.4148,-19.1868"/>
</g>
<!-- Node4 -->
<g id="node3" class="node">
<title>Node4</title>
<g id="a_node3"><a xlink:href="classsu3__matrix.html#aedf511a4b74bf6f2a4a5ba681c1df72e" target="_top" xlink:title="su3_matrix::exponentiate">
<polygon fill="#ffffff" stroke="#000000" points="218,-57.5 218,-76.5 344,-76.5 344,-57.5 218,-57.5"/>
<text text-anchor="middle" x="281" y="-64.5" font-family="Helvetica,sans-Serif" font-size="10.00" fill="#000000">su3_matrix::exponentiate</text>
</a>
</g>
</g>
<!-- Node3&#45;&gt;Node4 -->
<g id="edge2" class="edge">
<title>Node3&#45;&gt;Node4</title>
<path fill="none" stroke="#191970" d="M192.3445,-55.423C200.6934,-56.5132 209.3361,-57.6418 217.8032,-58.7475"/>
<polygon fill="#191970" stroke="#191970" points="192.7071,-51.9407 182.338,-54.1163 191.8006,-58.8818 192.7071,-51.9407"/>
</g>
<!-- Node10 -->
<g id="node9" class="node">
<title>Node10</title>
<g id="a_node9"><a xlink:href="classsu3__matrix.html#ae0bc960763b5576f3172dca81b45af1a" target="_top" xlink:title="su3_matrix::zheevh3">
<polygon fill="#ffffff" stroke="#000000" points="227.5,-19.5 227.5,-38.5 334.5,-38.5 334.5,-19.5 227.5,-19.5"/>
<text text-anchor="middle" x="281" y="-26.5" font-family="Helvetica,sans-Serif" font-size="10.00" fill="#000000">su3_matrix::zheevh3</text>
</a>
</g>
</g>
<!-- Node3&#45;&gt;Node10 -->
<g id="edge9" class="edge">
<title>Node3&#45;&gt;Node10</title>
<path fill="none" stroke="#191970" d="M192.3141,-40.581C203.8671,-39.0723 215.9838,-37.4901 227.4201,-35.9967"/>
<polygon fill="#191970" stroke="#191970" points="191.8006,-37.1182 182.338,-41.8837 192.7071,-44.0593 191.8006,-37.1182"/>
</g>
<!-- Node5 -->
<g id="node4" class="node">
<title>Node5</title>
<g id="a_node4"><a xlink:href="classlfield.html#ad794d8e7e1cb4685d665e0b474f8901b" target="_top" xlink:title="Overloaded multiplication and assignement operator. ">
<polygon fill="#ffffff" stroke="#000000" points="395.5,-114.5 395.5,-133.5 483.5,-133.5 483.5,-114.5 395.5,-114.5"/>
<text text-anchor="middle" x="439.5" y="-121.5" font-family="Helvetica,sans-Serif" font-size="10.00" fill="#000000">lfield::operator*=</text>
</a>
</g>
</g>
<!-- Node4&#45;&gt;Node5 -->
<g id="edge3" class="edge">
<title>Node4&#45;&gt;Node5</title>
<path fill="none" stroke="#191970" d="M314.3288,-80.3409C333.4486,-87.8561 357.9608,-97.2586 380,-105 389.2078,-108.2343 399.2954,-111.5428 408.5061,-114.4736"/>
<polygon fill="#191970" stroke="#191970" points="315.4502,-77.0207 304.8636,-76.6017 312.8782,-83.5311 315.4502,-77.0207"/>
</g>
<!-- Node6 -->
<g id="node5" class="node">
<title>Node6</title>
<g id="a_node5"><a xlink:href="classlfield.html#a8299544558cca4ccb188039e6d868aee" target="_top" xlink:title="Function to exponentiate elements of the Lie algebra to obtain Lie group elements. ">
<polygon fill="#ffffff" stroke="#000000" points="390.5,-76.5 390.5,-95.5 488.5,-95.5 488.5,-76.5 390.5,-76.5"/>
<text text-anchor="middle" x="439.5" y="-83.5" font-family="Helvetica,sans-Serif" font-size="10.00" fill="#000000">lfield::exponentiate</text>
</a>
</g>
</g>
<!-- Node4&#45;&gt;Node6 -->
<g id="edge4" class="edge">
<title>Node4&#45;&gt;Node6</title>
<path fill="none" stroke="#191970" d="M354.279,-75.7842C366.4819,-77.247 378.8747,-78.7326 390.2912,-80.1012"/>
<polygon fill="#191970" stroke="#191970" points="354.4443,-72.2791 344.0988,-74.5639 353.6111,-79.2293 354.4443,-72.2791"/>
</g>
<!-- Node8 -->
<g id="node7" class="node">
<title>Node8</title>
<g id="a_node7"><a xlink:href="field_8h.html#aea30ef7d1293ae1aa73d254f8eaef4c7" target="_top" xlink:title="Main method for the advance of the Wilson lines in rapidity according to the Langevin equation...">
<polygon fill="#ffffff" stroke="#000000" points="410,-38.5 410,-57.5 469,-57.5 469,-38.5 410,-38.5"/>
<text text-anchor="middle" x="439.5" y="-45.5" font-family="Helvetica,sans-Serif" font-size="10.00" fill="#000000">update_uf</text>
</a>
</g>
</g>
<!-- Node4&#45;&gt;Node8 -->
<g id="edge6" class="edge">
<title>Node4&#45;&gt;Node8</title>
<path fill="none" stroke="#191970" d="M354.2667,-58.2172C373.8446,-55.8704 393.9123,-53.4648 409.6539,-51.5778"/>
<polygon fill="#191970" stroke="#191970" points="353.6111,-54.7707 344.0988,-59.4361 354.4443,-61.7209 353.6111,-54.7707"/>
</g>
<!-- Node9 -->
<g id="node8" class="node">
<title>Node9</title>
<g id="a_node8"><a xlink:href="classsu3__matrix.html#aa149493632baf4843bb12be0f954fda7" target="_top" xlink:title="su3_matrix::su3_matrix">
<polygon fill="#ffffff" stroke="#000000" points="380,-.5 380,-19.5 499,-19.5 499,-.5 380,-.5"/>
<text text-anchor="middle" x="439.5" y="-7.5" font-family="Helvetica,sans-Serif" font-size="10.00" fill="#000000">su3_matrix::su3_matrix</text>
</a>
</g>
</g>
<!-- Node4&#45;&gt;Node9 -->
<g id="edge8" class="edge">
<title>Node4&#45;&gt;Node9</title>
<path fill="none" stroke="#191970" d="M326.8246,-54.3159C332.6659,-52.3681 338.5155,-50.2497 344,-48 360.7382,-41.134 363.3179,-36.0012 380,-29 388.2991,-25.517 397.4712,-22.2953 406.0779,-19.5316"/>
<polygon fill="#191970" stroke="#191970" points="325.5326,-51.0542 317.0679,-57.4259 327.6585,-57.7235 325.5326,-51.0542"/>
</g>
<!-- Node7 -->
<g id="node6" class="node">
<title>Node7</title>
<g id="a_node6"><a xlink:href="main__explicit_8cpp.html#a0ddf1224851353fc92bfbff6f499fa97" target="_top" xlink:title="main">
<polygon fill="#ffffff" stroke="#000000" points="535,-57.5 535,-76.5 573,-76.5 573,-57.5 535,-57.5"/>
<text text-anchor="middle" x="554" y="-64.5" font-family="Helvetica,sans-Serif" font-size="10.00" fill="#000000">main</text>
</a>
</g>
</g>
<!-- Node6&#45;&gt;Node7 -->
<g id="edge5" class="edge">
<title>Node6&#45;&gt;Node7</title>
<path fill="none" stroke="#191970" d="M498.6854,-76.1788C511.738,-74.0129 524.6563,-71.8693 534.7223,-70.1989"/>
<polygon fill="#191970" stroke="#191970" points="498.0149,-72.7422 488.7228,-77.832 499.1609,-79.6477 498.0149,-72.7422"/>
</g>
<!-- Node8&#45;&gt;Node7 -->
<g id="edge7" class="edge">
<title>Node8&#45;&gt;Node7</title>
<path fill="none" stroke="#191970" d="M479.3756,-54.6169C498.1547,-57.7331 519.689,-61.3065 534.7828,-63.8111"/>
<polygon fill="#191970" stroke="#191970" points="479.7227,-51.1267 469.2846,-52.9424 478.5767,-58.0323 479.7227,-51.1267"/>
</g>
</g>
</svg>
