<?xml version="1.0" encoding="UTF-8" standalone="no"?>
<!DOCTYPE svg PUBLIC "-//W3C//DTD SVG 1.1//EN"
 "http://www.w3.org/Graphics/SVG/1.1/DTD/svg11.dtd">
<!-- Generated by graphviz version 2.40.1 (20161225.0304)
 -->
<!-- Title: zheevc3 Pages: 1 -->
<!--zoomable 142 -->
<svg id="main" version="1.1" xmlns="http://www.w3.org/2000/svg" xmlns:xlink="http://www.w3.org/1999/xlink" xml:space="preserve" onload="init(evt)">
<style type="text/css"><![CDATA[
.edge:hover path { stroke: red; }
.edge:hover polygon { stroke: red; fill: red; }
]]></style>
<script type="text/javascript"><![CDATA[
var edges = document.getElementsByTagName('g');
if (edges && edges.length) {
  for (var i=0;i<edges.length;i++) {
    if (edges[i].id.substr(0,4)=='edge') {
      edges[i].setAttribute('class','edge');
    }
  }
}
]]></script>
        <defs>
                <circle id="rim" cx="0" cy="0" r="7"/>
                <circle id="rim2" cx="0" cy="0" r="3.5"/>
                <g id="zoomPlus">
                        <use xlink:href="#rim" fill="#404040">
                                <set attributeName="fill" to="#808080" begin="zoomplus.mouseover" end="zoomplus.mouseout"/>
                        </use>
                        <path d="M-4,0h8M0,-4v8" fill="none" stroke="white" stroke-width="1.5" pointer-events="none"/>
                </g>
                <g id="zoomMin">
                        <use xlink:href="#rim" fill="#404040">
                                <set attributeName="fill" to="#808080" begin="zoomminus.mouseover" end="zoomminus.mouseout"/>
                        </use>
                        <path d="M-4,0h8" fill="none" stroke="white" stroke-width="1.5" pointer-events="none"/>
                </g>
                <g id="dirArrow">
                        <path fill="none" stroke="white" stroke-width="1.5" d="M0,-3.0v7 M-2.5,-0.5L0,-3.0L2.5,-0.5"/>
                </g>
               <g id="resetDef">
                       <use xlink:href="#rim2" fill="#404040">
                               <set attributeName="fill" to="#808080" begin="reset.mouseover" end="reset.mouseout"/>
                       </use>
               </g>
        </defs>

<script type="text/javascript">
var viewWidth = 581;
var viewHeight = 142;
var sectionId = 'dynsection-1';
</script>
<script xlink:href="svgpan.js"/>
<svg id="graph" class="graph">
<g id="viewport">
<title>zheevc3</title>
<polygon fill="#ffffff" stroke="transparent" points="-4,4 -4,-138 577,-138 577,4 -4,4"/>
<!-- Node1 -->
<g id="node1" class="node">
<title>Node1</title>
<polygon fill="#bfbfbf" stroke="#000000" points="0,-57.5 0,-76.5 53,-76.5 53,-57.5 0,-57.5"/>
<text text-anchor="middle" x="26.5" y="-64.5" font-family="Helvetica,sans-Serif" font-size="10.00" fill="#000000">zheevc3</text>
</g>
<!-- Node2 -->
<g id="node2" class="node">
<title>Node2</title>
<g id="a_node2"><a xlink:href="zheevh3_8h.html#ab226771af05ad43c66ee5a218eee0bdd" target="_top" xlink:title=" Calculates the eigenvalues and normalized eigenvectors of a hermitian 3x3 matrix A using Cardano&#39;s m...">
<polygon fill="#ffffff" stroke="#000000" points="89,-76.5 89,-95.5 182,-95.5 182,-76.5 89,-76.5"/>
<text text-anchor="middle" x="135.5" y="-83.5" font-family="Helvetica,sans-Serif" font-size="10.00" fill="#000000">function_zheevh3</text>
</a>
</g>
</g>
<!-- Node1&#45;&gt;Node2 -->
<g id="edge1" class="edge">
<title>Node1&#45;&gt;Node2</title>
<path fill="none" stroke="#191970" d="M63.1607,-73.3904C71.3594,-74.8195 80.1636,-76.3542 88.7096,-77.8439"/>
<polygon fill="#191970" stroke="#191970" points="63.6169,-69.9172 53.1644,-71.6479 62.4148,-76.8132 63.6169,-69.9172"/>
</g>
<!-- Node10 -->
<g id="node10" class="node">
<title>Node10</title>
<g id="a_node10"><a xlink:href="zheevh3_8c.html#ae81794e4c790741d03e9349abe29e876" target="_top" xlink:title="zheevh3">
<polygon fill="#ffffff" stroke="#000000" points="109,-38.5 109,-57.5 162,-57.5 162,-38.5 109,-38.5"/>
<text text-anchor="middle" x="135.5" y="-45.5" font-family="Helvetica,sans-Serif" font-size="10.00" fill="#000000">zheevh3</text>
</a>
</g>
</g>
<!-- Node1&#45;&gt;Node10 -->
<g id="edge10" class="edge">
<title>Node1&#45;&gt;Node10</title>
<path fill="none" stroke="#191970" d="M63.1157,-60.6174C78.0473,-58.0147 94.9932,-55.0608 108.7331,-52.6658"/>
<polygon fill="#191970" stroke="#191970" points="62.4148,-57.1868 53.1644,-62.3521 63.6169,-64.0828 62.4148,-57.1868"/>
</g>
<!-- Node3 -->
<g id="node3" class="node">
<title>Node3</title>
<g id="a_node3"><a xlink:href="classsu3__matrix.html#ae0bc960763b5576f3172dca81b45af1a" target="_top" xlink:title="su3_matrix::zheevh3">
<polygon fill="#ffffff" stroke="#000000" points="227.5,-95.5 227.5,-114.5 334.5,-114.5 334.5,-95.5 227.5,-95.5"/>
<text text-anchor="middle" x="281" y="-102.5" font-family="Helvetica,sans-Serif" font-size="10.00" fill="#000000">su3_matrix::zheevh3</text>
</a>
</g>
</g>
<!-- Node2&#45;&gt;Node3 -->
<g id="edge2" class="edge">
<title>Node2&#45;&gt;Node3</title>
<path fill="none" stroke="#191970" d="M192.3141,-93.419C203.8671,-94.9277 215.9838,-96.5099 227.4201,-98.0033"/>
<polygon fill="#191970" stroke="#191970" points="192.7071,-89.9407 182.338,-92.1163 191.8006,-96.8818 192.7071,-89.9407"/>
</g>
<!-- Node4 -->
<g id="node4" class="node">
<title>Node4</title>
<g id="a_node4"><a xlink:href="classsu3__matrix.html#aedf511a4b74bf6f2a4a5ba681c1df72e" target="_top" xlink:title="su3_matrix::exponentiate">
<polygon fill="#ffffff" stroke="#000000" points="218,-57.5 218,-76.5 344,-76.5 344,-57.5 218,-57.5"/>
<text text-anchor="middle" x="281" y="-64.5" font-family="Helvetica,sans-Serif" font-size="10.00" fill="#000000">su3_matrix::exponentiate</text>
</a>
</g>
</g>
<!-- Node2&#45;&gt;Node4 -->
<g id="edge3" class="edge">
<title>Node2&#45;&gt;Node4</title>
<path fill="none" stroke="#191970" d="M192.3445,-78.577C200.6934,-77.4868 209.3361,-76.3582 217.8032,-75.2525"/>
<polygon fill="#191970" stroke="#191970" points="191.8006,-75.1182 182.338,-79.8837 192.7071,-82.0593 191.8006,-75.1182"/>
</g>
<!-- Node5 -->
<g id="node5" class="node">
<title>Node5</title>
<g id="a_node5"><a xlink:href="classlfield.html#ad794d8e7e1cb4685d665e0b474f8901b" target="_top" xlink:title="Overloaded multiplication and assignement operator. ">
<polygon fill="#ffffff" stroke="#000000" points="395.5,-114.5 395.5,-133.5 483.5,-133.5 483.5,-114.5 395.5,-114.5"/>
<text text-anchor="middle" x="439.5" y="-121.5" font-family="Helvetica,sans-Serif" font-size="10.00" fill="#000000">lfield::operator*=</text>
</a>
</g>
</g>
<!-- Node4&#45;&gt;Node5 -->
<g id="edge4" class="edge">
<title>Node4&#45;&gt;Node5</title>
<path fill="none" stroke="#191970" d="M326.8246,-79.6841C332.6659,-81.6319 338.5155,-83.7503 344,-86 360.7382,-92.866 363.3179,-97.9988 380,-105 388.2991,-108.483 397.4712,-111.7047 406.0779,-114.4684"/>
<polygon fill="#191970" stroke="#191970" points="327.6585,-76.2765 317.0679,-76.5741 325.5326,-82.9458 327.6585,-76.2765"/>
</g>
<!-- Node6 -->
<g id="node6" class="node">
<title>Node6</title>
<g id="a_node6"><a xlink:href="classlfield.html#a8299544558cca4ccb188039e6d868aee" target="_top" xlink:title="Function to exponentiate elements of the Lie algebra to obtain Lie group elements. ">
<polygon fill="#ffffff" stroke="#000000" points="390.5,-76.5 390.5,-95.5 488.5,-95.5 488.5,-76.5 390.5,-76.5"/>
<text text-anchor="middle" x="439.5" y="-83.5" font-family="Helvetica,sans-Serif" font-size="10.00" fill="#000000">lfield::exponentiate</text>
</a>
</g>
</g>
<!-- Node4&#45;&gt;Node6 -->
<g id="edge5" class="edge">
<title>Node4&#45;&gt;Node6</title>
<path fill="none" stroke="#191970" d="M354.279,-75.7842C366.4819,-77.247 378.8747,-78.7326 390.2912,-80.1012"/>
<polygon fill="#191970" stroke="#191970" points="354.4443,-72.2791 344.0988,-74.5639 353.6111,-79.2293 354.4443,-72.2791"/>
</g>
<!-- Node8 -->
<g id="node8" class="node">
<title>Node8</title>
<g id="a_node8"><a xlink:href="field_8h.html#aea30ef7d1293ae1aa73d254f8eaef4c7" target="_top" xlink:title="Main method for the advance of the Wilson lines in rapidity according to the Langevin equation...">
<polygon fill="#ffffff" stroke="#000000" points="410,-38.5 410,-57.5 469,-57.5 469,-38.5 410,-38.5"/>
<text text-anchor="middle" x="439.5" y="-45.5" font-family="Helvetica,sans-Serif" font-size="10.00" fill="#000000">update_uf</text>
</a>
</g>
</g>
<!-- Node4&#45;&gt;Node8 -->
<g id="edge7" class="edge">
<title>Node4&#45;&gt;Node8</title>
<path fill="none" stroke="#191970" d="M354.2667,-58.2172C373.8446,-55.8704 393.9123,-53.4648 409.6539,-51.5778"/>
<polygon fill="#191970" stroke="#191970" points="353.6111,-54.7707 344.0988,-59.4361 354.4443,-61.7209 353.6111,-54.7707"/>
</g>
<!-- Node9 -->
<g id="node9" class="node">
<title>Node9</title>
<g id="a_node9"><a xlink:href="classsu3__matrix.html#aa149493632baf4843bb12be0f954fda7" target="_top" xlink:title="su3_matrix::su3_matrix">
<polygon fill="#ffffff" stroke="#000000" points="380,-.5 380,-19.5 499,-19.5 499,-.5 380,-.5"/>
<text text-anchor="middle" x="439.5" y="-7.5" font-family="Helvetica,sans-Serif" font-size="10.00" fill="#000000">su3_matrix::su3_matrix</text>
</a>
</g>
</g>
<!-- Node4&#45;&gt;Node9 -->
<g id="edge9" class="edge">
<title>Node4&#45;&gt;Node9</title>
<path fill="none" stroke="#191970" d="M314.3288,-53.6591C333.4486,-46.1439 357.9608,-36.7414 380,-29 389.2078,-25.7657 399.2954,-22.4572 408.5061,-19.5264"/>
<polygon fill="#191970" stroke="#191970" points="312.8782,-50.4689 304.8636,-57.3983 315.4502,-56.9793 312.8782,-50.4689"/>
</g>
<!-- Node7 -->
<g id="node7" class="node">
<title>Node7</title>
<g id="a_node7"><a xlink:href="main__explicit_8cpp.html#a0ddf1224851353fc92bfbff6f499fa97" target="_top" xlink:title="main">
<polygon fill="#ffffff" stroke="#000000" points="535,-57.5 535,-76.5 573,-76.5 573,-57.5 535,-57.5"/>
<text text-anchor="middle" x="554" y="-64.5" font-family="Helvetica,sans-Serif" font-size="10.00" fill="#000000">main</text>
</a>
</g>
</g>
<!-- Node6&#45;&gt;Node7 -->
<g id="edge6" class="edge">
<title>Node6&#45;&gt;Node7</title>
<path fill="none" stroke="#191970" d="M498.6854,-76.1788C511.738,-74.0129 524.6563,-71.8693 534.7223,-70.1989"/>
<polygon fill="#191970" stroke="#191970" points="498.0149,-72.7422 488.7228,-77.832 499.1609,-79.6477 498.0149,-72.7422"/>
</g>
<!-- Node8&#45;&gt;Node7 -->
<g id="edge8" class="edge">
<title>Node8&#45;&gt;Node7</title>
<path fill="none" stroke="#191970" d="M479.3756,-54.6169C498.1547,-57.7331 519.689,-61.3065 534.7828,-63.8111"/>
<polygon fill="#191970" stroke="#191970" points="479.7227,-51.1267 469.2846,-52.9424 478.5767,-58.0323 479.7227,-51.1267"/>
</g>
</g>
</svg>
        <g id="navigator" transform="translate(0 0)" fill="#404254">
                <rect fill="#f2f5e9" fill-opacity="0.5" stroke="#606060" stroke-width=".5" x="0" y="0" width="60" height="60"/>
                <use id="zoomplus" xlink:href="#zoomPlus" x="17" y="9" onmousedown="handleZoom(evt,'in')"/>
                <use id="zoomminus" xlink:href="#zoomMin" x="42" y="9" onmousedown="handleZoom(evt,'out')"/>
                <use id="reset" xlink:href="#resetDef" x="30" y="36" onmousedown="handleReset()"/>
                <g id="arrowUp" xlink:href="#dirArrow" transform="translate(30 24)" onmousedown="handlePan(0,-1)">
                  <use xlink:href="#rim" fill="#404040">
                        <set attributeName="fill" to="#808080" begin="arrowUp.mouseover" end="arrowUp.mouseout"/>
                  </use>
                  <path fill="none" stroke="white" stroke-width="1.5" d="M0,-3.0v7 M-2.5,-0.5L0,-3.0L2.5,-0.5"/>
                </g>
                <g id="arrowRight" xlink:href="#dirArrow" transform="rotate(90) translate(36 -43)" onmousedown="handlePan(1,0)">
                  <use xlink:href="#rim" fill="#404040">
                        <set attributeName="fill" to="#808080" begin="arrowRight.mouseover" end="arrowRight.mouseout"/>
                  </use>
                  <path fill="none" stroke="white" stroke-width="1.5" d="M0,-3.0v7 M-2.5,-0.5L0,-3.0L2.5,-0.5"/>
                </g>
                <g id="arrowDown" xlink:href="#dirArrow" transform="rotate(180) translate(-30 -48)" onmousedown="handlePan(0,1)">
                  <use xlink:href="#rim" fill="#404040">
                        <set attributeName="fill" to="#808080" begin="arrowDown.mouseover" end="arrowDown.mouseout"/>
                  </use>
                  <path fill="none" stroke="white" stroke-width="1.5" d="M0,-3.0v7 M-2.5,-0.5L0,-3.0L2.5,-0.5"/>
                </g>
                <g id="arrowLeft" xlink:href="#dirArrow" transform="rotate(270) translate(-36 17)" onmousedown="handlePan(-1,0)">
                  <use xlink:href="#rim" fill="#404040">
                        <set attributeName="fill" to="#808080" begin="arrowLeft.mouseover" end="arrowLeft.mouseout"/>
                  </use>
                  <path fill="none" stroke="white" stroke-width="1.5" d="M0,-3.0v7 M-2.5,-0.5L0,-3.0L2.5,-0.5"/>
                </g>
        </g>
        <svg viewBox="0 0 15 15" width="100%" height="30px" preserveAspectRatio="xMaxYMin meet">
         <g id="arrow_out" transform="scale(0.3 0.3)">
          <a xlink:href="zheevc3_8c_ab0c3602a614a9b3c61afb58b183f58ff_icgraph_org.svg" target="_base">
           <rect id="button" ry="5" rx="5" y="6" x="6" height="38" width="38"
                fill="#f2f5e9" fill-opacity="0.5" stroke="#606060" stroke-width="1.0"/>
           <path id="arrow"
             d="M 11.500037,31.436501 C 11.940474,20.09759 22.043105,11.32322 32.158766,21.979434 L 37.068811,17.246167 C 37.068811,17.246167 37.088388,32 37.088388,32 L 22.160133,31.978069 C 22.160133,31.978069 26.997745,27.140456 26.997745,27.140456 C 18.528582,18.264221 13.291696,25.230495 11.500037,31.436501 z"
             style="fill:#404040;"/>
          </a>
         </g>
        </svg>
</svg>
