<?xml version="1.0" encoding="UTF-8" standalone="no"?>
<!DOCTYPE svg PUBLIC "-//W3C//DTD SVG 1.1//EN"
 "http://www.w3.org/Graphics/SVG/1.1/DTD/svg11.dtd">
<!-- Generated by graphviz version 2.40.1 (20161225.0304)
 -->
<!-- Title: function_zheevh3 Pages: 1 -->
<svg width="275pt" height="66pt"
 viewBox="0.00 0.00 275.00 66.00" xmlns="http://www.w3.org/2000/svg" xmlns:xlink="http://www.w3.org/1999/xlink">
<g id="graph0" class="graph" transform="scale(1 1) rotate(0) translate(4 62)">
<title>function_zheevh3</title>
<polygon fill="#ffffff" stroke="transparent" points="-4,4 -4,-62 271,-62 271,4 -4,4"/>
<!-- Node0 -->
<g id="node1" class="node">
<title>Node0</title>
<polygon fill="#bfbfbf" stroke="#000000" points="0,-19.5 0,-38.5 93,-38.5 93,-19.5 0,-19.5"/>
<text text-anchor="middle" x="46.5" y="-26.5" font-family="Helvetica,sans-Serif" font-size="10.00" fill="#000000">function_zheevh3</text>
</g>
<!-- Node1 -->
<g id="node2" class="node">
<title>Node1</title>
<g id="a_node2"><a xlink:href="$zheevc3_8c.html#ab0c3602a614a9b3c61afb58b183f58ff" xlink:title="zheevc3">
<polygon fill="#ffffff" stroke="#000000" points="129,-38.5 129,-57.5 182,-57.5 182,-38.5 129,-38.5"/>
<text text-anchor="middle" x="155.5" y="-45.5" font-family="Helvetica,sans-Serif" font-size="10.00" fill="#000000">zheevc3</text>
</a>
</g>
</g>
<!-- Node0&#45;&gt;Node1 -->
<g id="edge1" class="edge">
<title>Node0&#45;&gt;Node1</title>
<path fill="none" stroke="#191970" d="M93.042,-37.1128C101.6672,-38.6163 110.5642,-40.1671 118.8436,-41.6103"/>
<polygon fill="#191970" stroke="#191970" points="118.4811,-45.0999 128.9336,-43.3692 119.6832,-38.2038 118.4811,-45.0999"/>
</g>
<!-- Node2 -->
<g id="node3" class="node">
<title>Node2</title>
<g id="a_node3"><a xlink:href="$zheevq3_8c.html#a366e69621f4accef15af90601590718c" xlink:title="zheevq3">
<polygon fill="#ffffff" stroke="#000000" points="129,-.5 129,-19.5 182,-19.5 182,-.5 129,-.5"/>
<text text-anchor="middle" x="155.5" y="-7.5" font-family="Helvetica,sans-Serif" font-size="10.00" fill="#000000">zheevq3</text>
</a>
</g>
</g>
<!-- Node0&#45;&gt;Node2 -->
<g id="edge2" class="edge">
<title>Node0&#45;&gt;Node2</title>
<path fill="none" stroke="#191970" d="M93.042,-20.8872C101.6672,-19.3837 110.5642,-17.8329 118.8436,-16.3897"/>
<polygon fill="#191970" stroke="#191970" points="119.6832,-19.7962 128.9336,-14.6308 118.4811,-12.9001 119.6832,-19.7962"/>
</g>
<!-- Node3 -->
<g id="node4" class="node">
<title>Node3</title>
<g id="a_node4"><a xlink:href="$zhetrd3_8c.html#a05eb839b1245d01d2e98e7de084eb9ee" xlink:title="zhetrd3">
<polygon fill="#ffffff" stroke="#000000" points="218,-.5 218,-19.5 267,-19.5 267,-.5 218,-.5"/>
<text text-anchor="middle" x="242.5" y="-7.5" font-family="Helvetica,sans-Serif" font-size="10.00" fill="#000000">zhetrd3</text>
</a>
</g>
</g>
<!-- Node2&#45;&gt;Node3 -->
<g id="edge3" class="edge">
<title>Node2&#45;&gt;Node3</title>
<path fill="none" stroke="#191970" d="M182.0756,-10C190.1756,-10 199.2031,-10 207.759,-10"/>
<polygon fill="#191970" stroke="#191970" points="207.8674,-13.5001 217.8673,-10 207.8673,-6.5001 207.8674,-13.5001"/>
</g>
</g>
</svg>
