<?xml version="1.0" encoding="UTF-8" standalone="no"?>
<!DOCTYPE svg PUBLIC "-//W3C//DTD SVG 1.1//EN"
 "http://www.w3.org/Graphics/SVG/1.1/DTD/svg11.dtd">
<!-- Generated by graphviz version 2.40.1 (20161225.0304)
 -->
<!-- Title: zheevh3&#45;C&#45;1.1/zhetrd3.c Pages: 1 -->
<svg width="234pt" height="140pt"
 viewBox="0.00 0.00 233.50 140.00" xmlns="http://www.w3.org/2000/svg" xmlns:xlink="http://www.w3.org/1999/xlink">
<g id="graph0" class="graph" transform="scale(1 1) rotate(0) translate(4 136)">
<title>zheevh3&#45;C&#45;1.1/zhetrd3.c</title>
<polygon fill="#ffffff" stroke="transparent" points="-4,4 -4,-136 229.5,-136 229.5,4 -4,4"/>
<!-- Node0 -->
<g id="node1" class="node">
<title>Node0</title>
<polygon fill="#bfbfbf" stroke="#000000" points="52,-112.5 52,-131.5 176,-131.5 176,-112.5 52,-112.5"/>
<text text-anchor="middle" x="114" y="-119.5" font-family="Helvetica,sans-Serif" font-size="10.00" fill="#000000">zheevh3&#45;C&#45;1.1/zhetrd3.c</text>
</g>
<!-- Node1 -->
<g id="node2" class="node">
<title>Node1</title>
<polygon fill="#ffffff" stroke="#bfbfbf" points="0,-56.5 0,-75.5 46,-75.5 46,-56.5 0,-56.5"/>
<text text-anchor="middle" x="23" y="-63.5" font-family="Helvetica,sans-Serif" font-size="10.00" fill="#000000">stdio.h</text>
</g>
<!-- Node0&#45;&gt;Node1 -->
<g id="edge1" class="edge">
<title>Node0&#45;&gt;Node1</title>
<path fill="none" stroke="#191970" d="M98.149,-112.2455C84.1868,-103.6534 63.6272,-91.0014 47.5404,-81.1018"/>
<polygon fill="#191970" stroke="#191970" points="49.0203,-77.9029 38.6693,-75.6427 45.3516,-83.8645 49.0203,-77.9029"/>
</g>
<!-- Node2 -->
<g id="node3" class="node">
<title>Node2</title>
<polygon fill="#ffffff" stroke="#bfbfbf" points="64.5,-56.5 64.5,-75.5 111.5,-75.5 111.5,-56.5 64.5,-56.5"/>
<text text-anchor="middle" x="88" y="-63.5" font-family="Helvetica,sans-Serif" font-size="10.00" fill="#000000">math.h</text>
</g>
<!-- Node0&#45;&gt;Node2 -->
<g id="edge2" class="edge">
<title>Node0&#45;&gt;Node2</title>
<path fill="none" stroke="#191970" d="M109.4711,-112.2455C105.9666,-104.6973 101.0073,-94.0158 96.7377,-84.8197"/>
<polygon fill="#191970" stroke="#191970" points="99.8627,-83.2389 92.477,-75.6427 93.5136,-86.1867 99.8627,-83.2389"/>
</g>
<!-- Node3 -->
<g id="node4" class="node">
<title>Node3</title>
<polygon fill="#ffffff" stroke="#bfbfbf" points="137,-.5 137,-19.5 199,-19.5 199,-.5 137,-.5"/>
<text text-anchor="middle" x="168" y="-7.5" font-family="Helvetica,sans-Serif" font-size="10.00" fill="#000000">complex.h</text>
</g>
<!-- Node0&#45;&gt;Node3 -->
<g id="edge3" class="edge">
<title>Node0&#45;&gt;Node3</title>
<path fill="none" stroke="#191970" d="M118.604,-112.4509C127.5309,-93.936 147.3358,-52.8591 158.9749,-28.7187"/>
<polygon fill="#191970" stroke="#191970" points="162.2173,-30.0527 163.4076,-19.5249 155.9119,-27.0125 162.2173,-30.0527"/>
</g>
<!-- Node4 -->
<g id="node5" class="node">
<title>Node4</title>
<g id="a_node5"><a xlink:href="zhetrd3_8h.html" target="_top" xlink:title="zhetrd3.h">
<polygon fill="#ffffff" stroke="#000000" points="168.5,-56.5 168.5,-75.5 225.5,-75.5 225.5,-56.5 168.5,-56.5"/>
<text text-anchor="middle" x="197" y="-63.5" font-family="Helvetica,sans-Serif" font-size="10.00" fill="#000000">zhetrd3.h</text>
</a>
</g>
</g>
<!-- Node0&#45;&gt;Node4 -->
<g id="edge4" class="edge">
<title>Node0&#45;&gt;Node4</title>
<path fill="none" stroke="#191970" d="M128.4575,-112.2455C141.0732,-103.7337 159.5944,-91.2375 174.2045,-81.3801"/>
<polygon fill="#191970" stroke="#191970" points="176.3761,-84.1371 182.7082,-75.6427 172.4609,-78.3343 176.3761,-84.1371"/>
</g>
<!-- Node4&#45;&gt;Node3 -->
<g id="edge5" class="edge">
<title>Node4&#45;&gt;Node3</title>
<path fill="none" stroke="#191970" d="M191.9486,-56.2455C187.9981,-48.617 182.3903,-37.7881 177.5942,-28.5267"/>
<polygon fill="#191970" stroke="#191970" points="180.7001,-26.9131 172.9935,-19.6427 174.4841,-30.1321 180.7001,-26.9131"/>
</g>
</g>
</svg>
