<?xml version="1.0" encoding="UTF-8" standalone="no"?>
<!DOCTYPE svg PUBLIC "-//W3C//DTD SVG 1.1//EN"
 "http://www.w3.org/Graphics/SVG/1.1/DTD/svg11.dtd">
<!-- Generated by graphviz version 2.40.1 (20161225.0304)
 -->
<!-- Title: zhetrd3 Pages: 1 -->
<svg width="666pt" height="142pt"
 viewBox="0.00 0.00 666.00 142.00" xmlns="http://www.w3.org/2000/svg" xmlns:xlink="http://www.w3.org/1999/xlink">
<g id="graph0" class="graph" transform="scale(1 1) rotate(0) translate(4 138)">
<title>zhetrd3</title>
<polygon fill="#ffffff" stroke="transparent" points="-4,4 -4,-138 662,-138 662,4 -4,4"/>
<!-- Node1 -->
<g id="node1" class="node">
<title>Node1</title>
<polygon fill="#bfbfbf" stroke="#000000" points="0,-19.5 0,-38.5 49,-38.5 49,-19.5 0,-19.5"/>
<text text-anchor="middle" x="24.5" y="-26.5" font-family="Helvetica,sans-Serif" font-size="10.00" fill="#000000">zhetrd3</text>
</g>
<!-- Node2 -->
<g id="node2" class="node">
<title>Node2</title>
<g id="a_node2"><a xlink:href="zheevq3_8c.html#a366e69621f4accef15af90601590718c" target="_top" xlink:title="zheevq3">
<polygon fill="#ffffff" stroke="#000000" points="85,-19.5 85,-38.5 138,-38.5 138,-19.5 85,-19.5"/>
<text text-anchor="middle" x="111.5" y="-26.5" font-family="Helvetica,sans-Serif" font-size="10.00" fill="#000000">zheevq3</text>
</a>
</g>
</g>
<!-- Node1&#45;&gt;Node2 -->
<g id="edge1" class="edge">
<title>Node1&#45;&gt;Node2</title>
<path fill="none" stroke="#191970" d="M59.2877,-29C67.8258,-29 76.8309,-29 84.9133,-29"/>
<polygon fill="#191970" stroke="#191970" points="59.198,-25.5001 49.198,-29 59.198,-32.5001 59.198,-25.5001"/>
</g>
<!-- Node3 -->
<g id="node3" class="node">
<title>Node3</title>
<g id="a_node3"><a xlink:href="zheevh3_8h.html#ab226771af05ad43c66ee5a218eee0bdd" target="_top" xlink:title="function_zheevh3">
<polygon fill="#ffffff" stroke="#000000" points="174,-38.5 174,-57.5 267,-57.5 267,-38.5 174,-38.5"/>
<text text-anchor="middle" x="220.5" y="-45.5" font-family="Helvetica,sans-Serif" font-size="10.00" fill="#000000">function_zheevh3</text>
</a>
</g>
</g>
<!-- Node2&#45;&gt;Node3 -->
<g id="edge2" class="edge">
<title>Node2&#45;&gt;Node3</title>
<path fill="none" stroke="#191970" d="M148.1607,-35.3904C156.3594,-36.8195 165.1636,-38.3542 173.7096,-39.8439"/>
<polygon fill="#191970" stroke="#191970" points="148.6169,-31.9172 138.1644,-33.6479 147.4148,-38.8132 148.6169,-31.9172"/>
</g>
<!-- Node11 -->
<g id="node11" class="node">
<title>Node11</title>
<g id="a_node11"><a xlink:href="zheevh3_8c.html#ae81794e4c790741d03e9349abe29e876" target="_top" xlink:title="zheevh3">
<polygon fill="#ffffff" stroke="#000000" points="194,-.5 194,-19.5 247,-19.5 247,-.5 194,-.5"/>
<text text-anchor="middle" x="220.5" y="-7.5" font-family="Helvetica,sans-Serif" font-size="10.00" fill="#000000">zheevh3</text>
</a>
</g>
</g>
<!-- Node2&#45;&gt;Node11 -->
<g id="edge11" class="edge">
<title>Node2&#45;&gt;Node11</title>
<path fill="none" stroke="#191970" d="M148.1157,-22.6174C163.0473,-20.0147 179.9932,-17.0608 193.7331,-14.6658"/>
<polygon fill="#191970" stroke="#191970" points="147.4148,-19.1868 138.1644,-24.3521 148.6169,-26.0828 147.4148,-19.1868"/>
</g>
<!-- Node4 -->
<g id="node4" class="node">
<title>Node4</title>
<g id="a_node4"><a xlink:href="classsu3__matrix.html#aedf511a4b74bf6f2a4a5ba681c1df72e" target="_top" xlink:title="su3_matrix::exponentiate">
<polygon fill="#ffffff" stroke="#000000" points="303,-57.5 303,-76.5 429,-76.5 429,-57.5 303,-57.5"/>
<text text-anchor="middle" x="366" y="-64.5" font-family="Helvetica,sans-Serif" font-size="10.00" fill="#000000">su3_matrix::exponentiate</text>
</a>
</g>
</g>
<!-- Node3&#45;&gt;Node4 -->
<g id="edge3" class="edge">
<title>Node3&#45;&gt;Node4</title>
<path fill="none" stroke="#191970" d="M277.3445,-55.423C285.6934,-56.5132 294.3361,-57.6418 302.8032,-58.7475"/>
<polygon fill="#191970" stroke="#191970" points="277.7071,-51.9407 267.338,-54.1163 276.8006,-58.8818 277.7071,-51.9407"/>
</g>
<!-- Node10 -->
<g id="node10" class="node">
<title>Node10</title>
<g id="a_node10"><a xlink:href="classsu3__matrix.html#ae0bc960763b5576f3172dca81b45af1a" target="_top" xlink:title="su3_matrix::zheevh3">
<polygon fill="#ffffff" stroke="#000000" points="312.5,-19.5 312.5,-38.5 419.5,-38.5 419.5,-19.5 312.5,-19.5"/>
<text text-anchor="middle" x="366" y="-26.5" font-family="Helvetica,sans-Serif" font-size="10.00" fill="#000000">su3_matrix::zheevh3</text>
</a>
</g>
</g>
<!-- Node3&#45;&gt;Node10 -->
<g id="edge10" class="edge">
<title>Node3&#45;&gt;Node10</title>
<path fill="none" stroke="#191970" d="M277.3141,-40.581C288.8671,-39.0723 300.9838,-37.4901 312.4201,-35.9967"/>
<polygon fill="#191970" stroke="#191970" points="276.8006,-37.1182 267.338,-41.8837 277.7071,-44.0593 276.8006,-37.1182"/>
</g>
<!-- Node5 -->
<g id="node5" class="node">
<title>Node5</title>
<g id="a_node5"><a xlink:href="classlfield.html#ad794d8e7e1cb4685d665e0b474f8901b" target="_top" xlink:title="lfield::operator*=">
<polygon fill="#ffffff" stroke="#000000" points="480.5,-114.5 480.5,-133.5 568.5,-133.5 568.5,-114.5 480.5,-114.5"/>
<text text-anchor="middle" x="524.5" y="-121.5" font-family="Helvetica,sans-Serif" font-size="10.00" fill="#000000">lfield::operator*=</text>
</a>
</g>
</g>
<!-- Node4&#45;&gt;Node5 -->
<g id="edge4" class="edge">
<title>Node4&#45;&gt;Node5</title>
<path fill="none" stroke="#191970" d="M399.3288,-80.3409C418.4486,-87.8561 442.9608,-97.2586 465,-105 474.2078,-108.2343 484.2954,-111.5428 493.5061,-114.4736"/>
<polygon fill="#191970" stroke="#191970" points="400.4502,-77.0207 389.8636,-76.6017 397.8782,-83.5311 400.4502,-77.0207"/>
</g>
<!-- Node6 -->
<g id="node6" class="node">
<title>Node6</title>
<g id="a_node6"><a xlink:href="classlfield.html#a8299544558cca4ccb188039e6d868aee" target="_top" xlink:title="lfield::exponentiate">
<polygon fill="#ffffff" stroke="#000000" points="475.5,-76.5 475.5,-95.5 573.5,-95.5 573.5,-76.5 475.5,-76.5"/>
<text text-anchor="middle" x="524.5" y="-83.5" font-family="Helvetica,sans-Serif" font-size="10.00" fill="#000000">lfield::exponentiate</text>
</a>
</g>
</g>
<!-- Node4&#45;&gt;Node6 -->
<g id="edge5" class="edge">
<title>Node4&#45;&gt;Node6</title>
<path fill="none" stroke="#191970" d="M439.279,-75.7842C451.4819,-77.247 463.8747,-78.7326 475.2912,-80.1012"/>
<polygon fill="#191970" stroke="#191970" points="439.4443,-72.2791 429.0988,-74.5639 438.6111,-79.2293 439.4443,-72.2791"/>
</g>
<!-- Node8 -->
<g id="node8" class="node">
<title>Node8</title>
<g id="a_node8"><a xlink:href="field_8h.html#aea30ef7d1293ae1aa73d254f8eaef4c7" target="_top" xlink:title="update_uf">
<polygon fill="#ffffff" stroke="#000000" points="495,-38.5 495,-57.5 554,-57.5 554,-38.5 495,-38.5"/>
<text text-anchor="middle" x="524.5" y="-45.5" font-family="Helvetica,sans-Serif" font-size="10.00" fill="#000000">update_uf</text>
</a>
</g>
</g>
<!-- Node4&#45;&gt;Node8 -->
<g id="edge7" class="edge">
<title>Node4&#45;&gt;Node8</title>
<path fill="none" stroke="#191970" d="M439.2667,-58.2172C458.8446,-55.8704 478.9123,-53.4648 494.6539,-51.5778"/>
<polygon fill="#191970" stroke="#191970" points="438.6111,-54.7707 429.0988,-59.4361 439.4443,-61.7209 438.6111,-54.7707"/>
</g>
<!-- Node9 -->
<g id="node9" class="node">
<title>Node9</title>
<g id="a_node9"><a xlink:href="classsu3__matrix.html#aa149493632baf4843bb12be0f954fda7" target="_top" xlink:title="su3_matrix::su3_matrix">
<polygon fill="#ffffff" stroke="#000000" points="465,-.5 465,-19.5 584,-19.5 584,-.5 465,-.5"/>
<text text-anchor="middle" x="524.5" y="-7.5" font-family="Helvetica,sans-Serif" font-size="10.00" fill="#000000">su3_matrix::su3_matrix</text>
</a>
</g>
</g>
<!-- Node4&#45;&gt;Node9 -->
<g id="edge9" class="edge">
<title>Node4&#45;&gt;Node9</title>
<path fill="none" stroke="#191970" d="M411.8246,-54.3159C417.6659,-52.3681 423.5155,-50.2497 429,-48 445.7382,-41.134 448.3179,-36.0012 465,-29 473.2991,-25.517 482.4712,-22.2953 491.0779,-19.5316"/>
<polygon fill="#191970" stroke="#191970" points="410.5326,-51.0542 402.0679,-57.4259 412.6585,-57.7235 410.5326,-51.0542"/>
</g>
<!-- Node7 -->
<g id="node7" class="node">
<title>Node7</title>
<g id="a_node7"><a xlink:href="main__explicit_8cpp.html#a0ddf1224851353fc92bfbff6f499fa97" target="_top" xlink:title="main">
<polygon fill="#ffffff" stroke="#000000" points="620,-57.5 620,-76.5 658,-76.5 658,-57.5 620,-57.5"/>
<text text-anchor="middle" x="639" y="-64.5" font-family="Helvetica,sans-Serif" font-size="10.00" fill="#000000">main</text>
</a>
</g>
</g>
<!-- Node6&#45;&gt;Node7 -->
<g id="edge6" class="edge">
<title>Node6&#45;&gt;Node7</title>
<path fill="none" stroke="#191970" d="M583.6854,-76.1788C596.738,-74.0129 609.6563,-71.8693 619.7223,-70.1989"/>
<polygon fill="#191970" stroke="#191970" points="583.0149,-72.7422 573.7228,-77.832 584.1609,-79.6477 583.0149,-72.7422"/>
</g>
<!-- Node8&#45;&gt;Node7 -->
<g id="edge8" class="edge">
<title>Node8&#45;&gt;Node7</title>
<path fill="none" stroke="#191970" d="M564.3756,-54.6169C583.1547,-57.7331 604.689,-61.3065 619.7828,-63.8111"/>
<polygon fill="#191970" stroke="#191970" points="564.7227,-51.1267 554.2846,-52.9424 563.5767,-58.0323 564.7227,-51.1267"/>
</g>
</g>
</svg>
