<?xml version="1.0" encoding="UTF-8" standalone="no"?>
<!DOCTYPE svg PUBLIC "-//W3C//DTD SVG 1.1//EN"
 "http://www.w3.org/Graphics/SVG/1.1/DTD/svg11.dtd">
<!-- Generated by graphviz version 2.40.1 (20161225.0304)
 -->
<!-- Title: zheevh3&#45;C&#45;1.1/zhetrd3.h Pages: 1 -->
<svg width="588pt" height="84pt"
 viewBox="0.00 0.00 588.00 84.00" xmlns="http://www.w3.org/2000/svg" xmlns:xlink="http://www.w3.org/1999/xlink">
<g id="graph0" class="graph" transform="scale(1 1) rotate(0) translate(4 80)">
<title>zheevh3&#45;C&#45;1.1/zhetrd3.h</title>
<polygon fill="#ffffff" stroke="transparent" points="-4,4 -4,-80 584,-80 584,4 -4,4"/>
<!-- Node2 -->
<g id="node1" class="node">
<title>Node2</title>
<polygon fill="#bfbfbf" stroke="#000000" points="229,-56.5 229,-75.5 353,-75.5 353,-56.5 229,-56.5"/>
<text text-anchor="middle" x="291" y="-63.5" font-family="Helvetica,sans-Serif" font-size="10.00" fill="#000000">zheevh3&#45;C&#45;1.1/zhetrd3.h</text>
</g>
<!-- Node3 -->
<g id="node2" class="node">
<title>Node3</title>
<g id="a_node2"><a xlink:href="zheevq3_8c.html" target="_top" xlink:title="zheevh3&#45;C&#45;1.1/zheevq3.c">
<polygon fill="#ffffff" stroke="#000000" points="0,-.5 0,-19.5 128,-19.5 128,-.5 0,-.5"/>
<text text-anchor="middle" x="64" y="-7.5" font-family="Helvetica,sans-Serif" font-size="10.00" fill="#000000">zheevh3&#45;C&#45;1.1/zheevq3.c</text>
</a>
</g>
</g>
<!-- Node2&#45;&gt;Node3 -->
<g id="edge1" class="edge">
<title>Node2&#45;&gt;Node3</title>
<path fill="none" stroke="#191970" d="M242.2842,-53.982C200.5167,-43.6781 141.1519,-29.0331 102.6049,-19.5237"/>
<polygon fill="#191970" stroke="#191970" points="241.688,-57.4398 252.2352,-56.4369 243.3646,-50.6435 241.688,-57.4398"/>
</g>
<!-- Node4 -->
<g id="node3" class="node">
<title>Node4</title>
<g id="a_node3"><a xlink:href="zheevq3_8cpp.html" target="_top" xlink:title="zheevh3&#45;C&#45;1.1/zheevq3.cpp">
<polygon fill="#ffffff" stroke="#000000" points="146.5,-.5 146.5,-19.5 285.5,-19.5 285.5,-.5 146.5,-.5"/>
<text text-anchor="middle" x="216" y="-7.5" font-family="Helvetica,sans-Serif" font-size="10.00" fill="#000000">zheevh3&#45;C&#45;1.1/zheevq3.cpp</text>
</a>
</g>
</g>
<!-- Node2&#45;&gt;Node4 -->
<g id="edge2" class="edge">
<title>Node2&#45;&gt;Node4</title>
<path fill="none" stroke="#191970" d="M269.8523,-50.2097C256.6799,-40.3743 240.16,-28.0394 228.9143,-19.6427"/>
<polygon fill="#191970" stroke="#191970" points="267.8291,-53.0671 277.936,-56.2455 272.0172,-47.4581 267.8291,-53.0671"/>
</g>
<!-- Node5 -->
<g id="node4" class="node">
<title>Node5</title>
<g id="a_node4"><a xlink:href="zhetrd3_8c.html" target="_top" xlink:title="zheevh3&#45;C&#45;1.1/zhetrd3.c">
<polygon fill="#ffffff" stroke="#000000" points="304,-.5 304,-19.5 428,-19.5 428,-.5 304,-.5"/>
<text text-anchor="middle" x="366" y="-7.5" font-family="Helvetica,sans-Serif" font-size="10.00" fill="#000000">zheevh3&#45;C&#45;1.1/zhetrd3.c</text>
</a>
</g>
</g>
<!-- Node2&#45;&gt;Node5 -->
<g id="edge3" class="edge">
<title>Node2&#45;&gt;Node5</title>
<path fill="none" stroke="#191970" d="M312.1477,-50.2097C325.3201,-40.3743 341.84,-28.0394 353.0857,-19.6427"/>
<polygon fill="#191970" stroke="#191970" points="309.9828,-47.4581 304.064,-56.2455 314.1709,-53.0671 309.9828,-47.4581"/>
</g>
<!-- Node6 -->
<g id="node5" class="node">
<title>Node6</title>
<g id="a_node5"><a xlink:href="zhetrd3_8cpp.html" target="_top" xlink:title="zheevh3&#45;C&#45;1.1/zhetrd3.cpp">
<polygon fill="#ffffff" stroke="#000000" points="446,-.5 446,-19.5 580,-19.5 580,-.5 446,-.5"/>
<text text-anchor="middle" x="513" y="-7.5" font-family="Helvetica,sans-Serif" font-size="10.00" fill="#000000">zheevh3&#45;C&#45;1.1/zhetrd3.cpp</text>
</a>
</g>
</g>
<!-- Node2&#45;&gt;Node6 -->
<g id="edge4" class="edge">
<title>Node2&#45;&gt;Node6</title>
<path fill="none" stroke="#191970" d="M338.6428,-53.982C379.4903,-43.6781 437.5475,-29.0331 475.2454,-19.5237"/>
<polygon fill="#191970" stroke="#191970" points="337.7511,-50.5972 328.9109,-56.4369 339.4633,-57.3846 337.7511,-50.5972"/>
</g>
</g>
</svg>
